<svg xmlns="http://www.w3.org/2000/svg" width="74" height="101" fill="none" xmlns:v="https://vecta.io/nano"><path d="M42.128 52.384c.085-.853.341-1.365.768-1.536.512-.171 1.024.043 1.536.64s.939 1.408 1.28 2.432c.427.939.768 1.92 1.024 2.944s.341 1.963.256 2.816-.341 1.365-.768 1.536-.939-.043-1.536-.64c-.512-.597-.981-1.365-1.408-2.304l-.896-3.072c-.256-1.024-.341-1.963-.256-2.816zm9.344-2.432c.683.512.939 1.579.768 3.2s-.725 3.285-1.664 4.992c-.853 1.621-1.664 2.304-2.432 2.048-.597-.597-.811-1.707-.64-3.328s.683-3.243 1.536-4.864c.939-1.707 1.749-2.389 2.432-2.048zm-19.84 2.432c.085-.853.341-1.365.768-1.536.512-.171 1.024.043 1.536.64.597.597 1.067 1.408 1.408 2.432.427.939.768 1.92 1.024 2.944s.341 1.963.256 2.816-.384 1.365-.896 1.536c-.427.171-.896-.043-1.408-.64s-.981-1.365-1.408-2.304a21.61 21.61 0 0 1-1.024-3.072c-.256-1.024-.341-1.963-.256-2.816zm9.472-2.432c.683.512.939 1.579.768 3.2s-.725 3.285-1.664 4.992c-.853 1.621-1.664 2.304-2.432 2.048-.683-.597-.939-1.707-.768-3.328s.683-3.243 1.536-4.864c.939-1.707 1.792-2.389 2.56-2.048zm12.288-8.704c.683-.341 1.451.341 2.304 2.048.939 1.621 1.493 3.243 1.664 4.864s-.043 2.731-.64 3.328c-.768.256-1.621-.427-2.56-2.048-.853-1.707-1.365-3.371-1.536-4.992s.085-2.688.768-3.2zm8.576-1.024c.683.512.939 1.621.768 3.328-.171 1.621-.725 3.285-1.664 4.992-.853 1.621-1.664 2.261-2.432 1.92-.683-.512-.939-1.579-.768-3.2.171-1.707.683-3.371 1.536-4.992.939-1.707 1.792-2.389 2.56-2.048zm-19.072 1.024c.768-.341 1.579.341 2.432 2.048.939 1.621 1.493 3.243 1.664 4.864s-.085 2.731-.768 3.328c-.768.256-1.579-.427-2.432-2.048-.853-1.707-1.408-3.371-1.664-4.992-.171-1.621.085-2.688.768-3.2zm8.576-1.024c.683.512.939 1.621.768 3.328-.171 1.621-.725 3.285-1.664 4.992-.853 1.621-1.664 2.261-2.432 1.92-.597-.512-.811-1.579-.64-3.2.171-1.707.683-3.371 1.536-4.992.939-1.707 1.749-2.389 2.432-2.048zM63.76 31.52c.768-.341 1.579.341 2.432 2.048.939 1.621 1.493 3.285 1.664 4.992.171 1.621-.085 2.688-.768 3.2-.768.256-1.621-.427-2.56-2.048-.853-1.621-1.365-3.243-1.536-4.864-.171-1.707.085-2.816.768-3.328zm8.576-1.024c.683.597.939 1.707.768 3.328s-.725 3.285-1.664 4.992c-.853 1.621-1.664 2.261-2.432 1.92-.683-.512-.939-1.579-.768-3.2.256-1.621.811-3.243 1.664-4.864.939-1.707 1.749-2.432 2.432-2.176zM53.392 31.52c.683-.341 1.451.341 2.304 2.048.939 1.621 1.493 3.285 1.664 4.992.171 1.621-.043 2.688-.64 3.2-.768.256-1.621-.427-2.56-2.048-.853-1.621-1.365-3.243-1.536-4.864-.171-1.707.085-2.816.768-3.328zm8.576-1.024c.683.597.939 1.707.768 3.328s-.725 3.285-1.664 4.992c-.853 1.621-1.664 2.261-2.432 1.92-.683-.512-.939-1.579-.768-3.2s.683-3.243 1.536-4.864c.939-1.707 1.792-2.432 2.56-2.176zm-29.44 59.136c.768-.256 1.579.469 2.432 2.176.853 1.621 1.365 3.243 1.536 4.864.256 1.621.043 2.731-.64 3.328-.768.256-1.621-.427-2.56-2.048-.853-1.707-1.365-3.371-1.536-4.992s.085-2.731.768-3.328zm8.576-.896c.683.512.939 1.579.768 3.2s-.725 3.285-1.664 4.992c-.853 1.621-1.664 2.304-2.432 2.048-.683-.597-.939-1.707-.768-3.328s.683-3.243 1.536-4.864c.939-1.707 1.792-2.389 2.56-2.048zm-29.44.896c.768-.256 1.579.469 2.432 2.176.853 1.621 1.365 3.243 1.536 4.864.256 1.621.043 2.731-.64 3.328-.768.256-1.621-.427-2.56-2.048-.853-1.707-1.365-3.371-1.536-4.992s.085-2.731.768-3.328zm8.576-.896c.683.512.939 1.579.768 3.2s-.725 3.285-1.664 4.992c-.853 1.621-1.664 2.304-2.432 2.048-.683-.597-.939-1.707-.768-3.328.256-1.621.811-3.243 1.664-4.864.853-1.707 1.664-2.389 2.432-2.048zm-18.944.896c.683-.256 1.451.469 2.304 2.176.939 1.621 1.493 3.243 1.664 4.864s-.085 2.731-.768 3.328c-.683.256-1.493-.427-2.432-2.048C1.211 96.245.699 94.581.528 92.96s.085-2.731.768-3.328zm8.576-.896c.683.512.896 1.579.64 3.2-.171 1.621-.683 3.285-1.536 4.992-.853 1.621-1.664 2.304-2.432 2.048-.512-.171-.811-.683-.896-1.536s0-1.792.256-2.816a17.15 17.15 0 0 1 1.024-2.944c.427-1.024.896-1.792 1.408-2.304.512-.597 1.024-.811 1.536-.64zm1.792-8.704c.768-.341 1.579.341 2.432 2.048.853 1.621 1.365 3.243 1.536 4.864.256 1.621.043 2.731-.64 3.328-.768.256-1.621-.427-2.56-2.048-.853-1.707-1.365-3.371-1.536-4.992s.085-2.688.768-3.2zm8.576-1.024c.683.512.939 1.621.768 3.328-.171 1.621-.725 3.285-1.664 4.992-.853 1.621-1.664 2.261-2.432 1.92-.683-.512-.939-1.579-.768-3.2.256-1.707.811-3.371 1.664-4.992.853-1.707 1.664-2.389 2.432-2.048zM1.296 80.032c.683-.341 1.451.341 2.304 2.048.939 1.621 1.493 3.243 1.664 4.864s-.085 2.731-.768 3.328c-.683.256-1.493-.427-2.432-2.048-.853-1.707-1.365-3.371-1.536-4.992s.085-2.688.768-3.2zm8.576-1.024c.683.512.896 1.621.64 3.328-.171 1.621-.683 3.285-1.536 4.992-.853 1.621-1.664 2.261-2.432 1.92-.512-.171-.811-.64-.896-1.408-.085-.853 0-1.792.256-2.816.256-1.109.597-2.133 1.024-3.072s.896-1.707 1.408-2.304 1.024-.811 1.536-.64zm12.16-8.704c.768-.341 1.579.341 2.432 2.048.939 1.621 1.493 3.285 1.664 4.992.171 1.621-.085 2.688-.768 3.2-.768.256-1.579-.427-2.432-2.048s-1.408-3.243-1.664-4.864c-.171-1.707.085-2.816.768-3.328zm8.704-1.024c.683.597.896 1.707.64 3.328-.171 1.621-.725 3.285-1.664 4.992-.853 1.621-1.621 2.261-2.304 1.92-.683-.512-.939-1.579-.768-3.2s.683-3.243 1.536-4.864c.939-1.707 1.792-2.432 2.56-2.176zm-19.072 1.024c.768-.341 1.579.341 2.432 2.048.853 1.621 1.365 3.285 1.536 4.992.256 1.621.043 2.688-.64 3.2-.768.256-1.621-.427-2.56-2.048-.853-1.621-1.365-3.243-1.536-4.864-.171-1.707.085-2.816.768-3.328zm8.576-1.024c.683.597.939 1.707.768 3.328s-.725 3.285-1.664 4.992c-.853 1.621-1.664 2.261-2.432 1.92-.683-.512-.939-1.579-.768-3.2.256-1.621.811-3.243 1.664-4.864.853-1.707 1.664-2.432 2.432-2.176zm12.288-8.704c.768-.256 1.579.427 2.432 2.048s1.365 3.285 1.536 4.992c.256 1.621.043 2.688-.64 3.2-.768.341-1.621-.299-2.56-1.92-.853-1.707-1.365-3.371-1.536-4.992-.171-1.707.085-2.816.768-3.328zm8.576-1.024c.683.597.939 1.707.768 3.328s-.725 3.285-1.664 4.992c-.853 1.621-1.664 2.304-2.432 2.048-.683-.597-.939-1.707-.768-3.328.256-1.621.811-3.243 1.664-4.864.853-1.707 1.664-2.432 2.432-2.176zm22.656 30.08c.768-.256 1.579.469 2.432 2.176.939 1.621 1.493 3.243 1.664 4.864s-.085 2.731-.768 3.328c-.768.256-1.621-.427-2.56-2.048-.853-1.707-1.365-3.371-1.536-4.992s.085-2.731.768-3.328zm8.576-.896c.683.512.939 1.579.768 3.2s-.725 3.285-1.664 4.992c-.853 1.621-1.664 2.304-2.432 2.048-.683-.597-.939-1.707-.768-3.328.256-1.621.811-3.243 1.664-4.864.939-1.707 1.749-2.389 2.432-2.048zm-18.944.896c.683-.256 1.451.469 2.304 2.176.939 1.621 1.493 3.243 1.664 4.864s-.043 2.731-.64 3.328c-.768.256-1.621-.427-2.56-2.048-.853-1.707-1.365-3.371-1.536-4.992s.085-2.731.768-3.328zm8.576-.896c.683.512.939 1.579.768 3.2s-.725 3.285-1.664 4.992c-.853 1.621-1.664 2.304-2.432 2.048-.683-.597-.939-1.707-.768-3.328s.683-3.243 1.536-4.864c.939-1.707 1.792-2.389 2.56-2.048zm-19.072.896c.768-.256 1.579.469 2.432 2.176.939 1.621 1.493 3.243 1.664 4.864s-.085 2.731-.768 3.328c-.768.256-1.579-.427-2.432-2.048-.853-1.707-1.408-3.371-1.664-4.992-.171-1.621.085-2.731.768-3.328zm8.576-.896c.683.512.939 1.579.768 3.2s-.725 3.285-1.664 4.992c-.853 1.621-1.664 2.304-2.432 2.048-.597-.597-.811-1.707-.64-3.328s.683-3.243 1.536-4.864c.939-1.707 1.749-2.389 2.432-2.048zm-29.44.896c.768-.256 1.579.469 2.432 2.176.939 1.621 1.493 3.243 1.664 4.864s-.085 2.731-.768 3.328c-.768.256-1.579-.427-2.432-2.048-.853-1.707-1.408-3.371-1.664-4.992-.171-1.621.085-2.731.768-3.328zm8.704-.896c.683.512.896 1.579.64 3.2-.171 1.621-.725 3.285-1.664 4.992-.853 1.621-1.621 2.304-2.304 2.048-.683-.597-.939-1.707-.768-3.328s.683-3.243 1.536-4.864c.939-1.707 1.792-2.389 2.56-2.048zm-8.704-28.16c.768-.256 1.579.427 2.432 2.048.939 1.621 1.493 3.285 1.664 4.992.171 1.621-.085 2.688-.768 3.2-.768.341-1.579-.299-2.432-1.92-.853-1.707-1.408-3.371-1.664-4.992-.171-1.707.085-2.816.768-3.328zm8.704-1.024c.683.597.896 1.707.64 3.328-.171 1.621-.725 3.285-1.664 4.992-.853 1.621-1.621 2.304-2.304 2.048-.683-.597-.939-1.707-.768-3.328s.683-3.243 1.536-4.864c.939-1.707 1.792-2.432 2.56-2.176zm33.024-37.76c.768-.256 1.579.427 2.432 2.048.939 1.621 1.493 3.285 1.664 4.992.171 1.621-.085 2.688-.768 3.2-.768.341-1.621-.299-2.56-1.92-.853-1.707-1.365-3.371-1.536-4.992-.171-1.707.085-2.816.768-3.328zm8.576-1.024c.683.597.939 1.707.768 3.328s-.725 3.285-1.664 4.992c-.853 1.621-1.664 2.304-2.432 2.048-.683-.597-.939-1.707-.768-3.328.256-1.621.811-3.243 1.664-4.864.939-1.707 1.749-2.432 2.432-2.176zm-18.944 1.024c.683-.256 1.451.427 2.304 2.048.939 1.621 1.493 3.285 1.664 4.992.171 1.621-.043 2.688-.64 3.2-.768.341-1.621-.299-2.56-1.92-.853-1.707-1.365-3.371-1.536-4.992-.171-1.707.085-2.816.768-3.328zm8.576-1.024c.683.597.939 1.707.768 3.328s-.725 3.285-1.664 4.992c-.853 1.621-1.664 2.304-2.432 2.048-.683-.597-.939-1.707-.768-3.328s.683-3.243 1.536-4.864c.939-1.707 1.792-2.432 2.56-2.176zM1.296 21.792c.683-.256 1.451.427 2.304 2.048.939 1.621 1.493 3.285 1.664 4.992.171 1.621-.085 2.688-.768 3.2-.683.341-1.493-.299-2.432-1.92C1.211 28.405.699 26.741.528 25.12c-.171-1.707.085-2.816.768-3.328zm8.576-1.024c.683.597.896 1.707.64 3.328-.171 1.621-.683 3.285-1.536 4.992-.853 1.621-1.664 2.304-2.432 2.048-.512-.171-.811-.683-.896-1.536s0-1.792.256-2.816a17.15 17.15 0 0 1 1.024-2.944c.427-1.024.896-1.835 1.408-2.432s1.024-.811 1.536-.64zm43.52-8.704c.683-.256 1.451.469 2.304 2.176.939 1.621 1.493 3.243 1.664 4.864s-.043 2.731-.64 3.328c-.768.256-1.621-.427-2.56-2.048-.853-1.707-1.365-3.371-1.536-4.992s.085-2.731.768-3.328zm8.576-.896c.683.512.939 1.579.768 3.2s-.725 3.285-1.664 4.992c-.853 1.621-1.664 2.304-2.432 2.048-.683-.597-.939-1.707-.768-3.328s.683-3.243 1.536-4.864c.939-1.707 1.792-2.389 2.56-2.048zm-50.304.896c.768-.256 1.579.469 2.432 2.176.853 1.621 1.365 3.243 1.536 4.864.256 1.621.043 2.731-.64 3.328-.768.256-1.621-.427-2.56-2.048-.853-1.707-1.365-3.371-1.536-4.992s.085-2.731.768-3.328zm8.576-.896c.683.512.939 1.579.768 3.2s-.725 3.285-1.664 4.992c-.853 1.621-1.664 2.304-2.432 2.048-.683-.597-.939-1.707-.768-3.328.256-1.621.811-3.243 1.664-4.864.853-1.707 1.664-2.389 2.432-2.048zm33.152-8.832c.683-.256 1.451.469 2.304 2.176.939 1.621 1.493 3.243 1.664 4.864s-.043 2.731-.64 3.328c-.768.256-1.621-.427-2.56-2.048-.853-1.707-1.365-3.371-1.536-4.992s.085-2.731.768-3.328zm8.576-.896c.683.512.939 1.621.768 3.328-.171 1.621-.725 3.285-1.664 4.992-.853 1.621-1.664 2.261-2.432 1.92-.683-.512-.939-1.579-.768-3.2.171-1.707.683-3.371 1.536-4.992.939-1.707 1.792-2.389 2.56-2.048zm-29.44.896c.768-.256 1.579.469 2.432 2.176.853 1.621 1.365 3.243 1.536 4.864.256 1.621.043 2.731-.64 3.328-.768.256-1.621-.427-2.56-2.048-.853-1.707-1.365-3.371-1.536-4.992s.085-2.731.768-3.328zm8.576-.896c.683.512.939 1.621.768 3.328-.171 1.621-.725 3.285-1.664 4.992-.853 1.621-1.664 2.261-2.432 1.92-.683-.512-.939-1.579-.768-3.2.256-1.707.811-3.371 1.664-4.992.853-1.707 1.664-2.389 2.432-2.048zm-29.44.896c.768-.256 1.579.469 2.432 2.176.853 1.621 1.365 3.243 1.536 4.864.256 1.621.043 2.731-.64 3.328-.768.256-1.621-.427-2.56-2.048-.853-1.707-1.365-3.371-1.536-4.992s.085-2.731.768-3.328zm8.576-.896c.683.512.939 1.621.768 3.328-.171 1.621-.725 3.285-1.664 4.992-.853 1.621-1.664 2.261-2.432 1.92-.683-.512-.939-1.579-.768-3.2.256-1.707.811-3.371 1.664-4.992.853-1.707 1.664-2.389 2.432-2.048zm43.52 10.624c.768-.256 1.579.469 2.432 2.176.939 1.621 1.493 3.243 1.664 4.864s-.085 2.731-.768 3.328c-.768.256-1.621-.427-2.56-2.048-.853-1.707-1.365-3.371-1.536-4.992s.085-2.731.768-3.328zm5.248 9.344c-.683-.597-.939-1.707-.768-3.328.256-1.621.811-3.243 1.664-4.864.939-1.707 1.749-2.389 2.432-2.048.683.512.939 1.579.768 3.2s-.725 3.285-1.664 4.992c-.853 1.621-1.664 2.304-2.432 2.048zM1.296 12.064c.683-.256 1.451.469 2.304 2.176.939 1.621 1.493 3.243 1.664 4.864s-.085 2.731-.768 3.328c-.683.256-1.493-.427-2.432-2.048-.853-1.707-1.365-3.371-1.536-4.992s.085-2.731.768-3.328zm8.576-.896c.683.512.896 1.579.64 3.2-.171 1.621-.683 3.285-1.536 4.992-.853 1.621-1.664 2.304-2.432 2.048-.512-.171-.811-.683-.896-1.536s0-1.792.256-2.816a17.15 17.15 0 0 1 1.024-2.944c.427-1.024.896-1.792 1.408-2.304.512-.597 1.024-.811 1.536-.64zm33.024-8.832c.768-.256 1.579.469 2.432 2.176.939 1.621 1.493 3.243 1.664 4.864s-.085 2.731-.768 3.328c-.768.256-1.579-.427-2.432-2.048-.853-1.707-1.408-3.371-1.664-4.992-.171-1.621.085-2.731.768-3.328zm8.576-.896c.683.512.939 1.621.768 3.328-.171 1.621-.725 3.285-1.664 4.992-.853 1.621-1.664 2.261-2.432 1.92-.597-.512-.811-1.579-.64-3.2.171-1.707.683-3.371 1.536-4.992.939-1.707 1.749-2.389 2.432-2.048zm-29.44.896c.768-.256 1.579.469 2.432 2.176.939 1.621 1.493 3.243 1.664 4.864s-.085 2.731-.768 3.328c-.768.256-1.579-.427-2.432-2.048-.853-1.707-1.408-3.371-1.664-4.992-.171-1.621.085-2.731.768-3.328zm8.704-.896c.683.512.896 1.621.64 3.328-.171 1.621-.725 3.285-1.664 4.992-.853 1.621-1.621 2.261-2.304 1.92-.683-.512-.939-1.579-.768-3.2.171-1.707.683-3.371 1.536-4.992.939-1.707 1.792-2.389 2.56-2.048z" fill="#3a3e45"/></svg>