<svg xmlns="http://www.w3.org/2000/svg" xmlns:xlink="http://www.w3.org/1999/xlink" width="55" height="49" fill="none" xmlns:v="https://vecta.io/nano"><g fill="#3a3e45"><use xlink:href="#B"/><use xlink:href="#B" x="-11.214" y="-9.402"/><use xlink:href="#B" x="-11.214"/><use xlink:href="#B" x="-11.214" y="9.401"/><path d="M31.396.981c-.768-.256-1.579.469-2.432 2.176-.853 1.621-1.365 3.243-1.536 4.864-.256 1.621-.043 2.731.64 3.328.768.256 1.621-.427 2.56-2.048.853-1.707 1.365-3.371 1.536-4.992s-.085-2.731-.768-3.328zM22.82.085c-.683.512-.939 1.579-.768 3.2s.725 3.285 1.664 4.992c.853 1.621 1.664 2.304 2.432 2.048.683-.597.939-1.707.768-3.328s-.683-3.243-1.536-4.864C24.441.427 23.588-.256 22.82.085z"/><use xlink:href="#B" x="-22.429" y="-9.402"/><use xlink:href="#B" x="-22.429" y="9.401"/><use xlink:href="#B" x="-22.429" y="18.803"/></g><g fill="#fff"><use xlink:href="#B" x="-22"/><use xlink:href="#B" x="-33.214" y="-9.402"/><use xlink:href="#B" x="-33.214"/><use xlink:href="#B" x="-33.214" y="9.401"/><path d="M9.396.981c-.768-.256-1.579.469-2.432 2.176C6.11 4.779 5.598 6.4 5.428 8.021c-.256 1.621-.043 2.731.64 3.328.768.256 1.621-.427 2.56-2.048.853-1.707 1.365-3.371 1.536-4.992s-.085-2.731-.768-3.328zM.82.085c-.683.512-.939 1.579-.768 3.2S.777 6.57 1.716 8.277c.853 1.621 1.664 2.304 2.432 2.048.683-.597.939-1.707.768-3.328S4.233 3.755 3.38 2.133C2.441.427 1.588-.256.82.085zm8.576 10.298c-.768-.256-1.579.469-2.432 2.176-.853 1.621-1.365 3.243-1.536 4.864-.256 1.621-.043 2.731.64 3.328.768.256 1.621-.427 2.56-2.048.853-1.707 1.365-3.371 1.536-4.992s-.085-2.731-.768-3.328zM.82 9.487c-.683.512-.939 1.579-.768 3.2s.725 3.285 1.664 4.992c.853 1.621 1.664 2.304 2.432 2.048.683-.597.939-1.707.768-3.328s-.683-3.243-1.536-4.864C2.441 9.828 1.588 9.146.82 9.487zm8.576 19.699c-.768-.256-1.579.469-2.432 2.176-.853 1.621-1.365 3.243-1.536 4.864-.256 1.621-.043 2.731.64 3.328.768.256 1.621-.427 2.56-2.048.853-1.707 1.365-3.371 1.536-4.992s-.085-2.731-.768-3.328zM.82 28.29c-.683.512-.939 1.579-.768 3.2s.725 3.285 1.664 4.992c.853 1.621 1.664 2.304 2.432 2.048.683-.597.939-1.707.768-3.328s-.683-3.243-1.536-4.864c-.939-1.707-1.792-2.389-2.56-2.048zm8.576 10.298c-.768-.256-1.579.469-2.432 2.176-.853 1.621-1.365 3.243-1.536 4.864-.256 1.621-.043 2.731.64 3.328.768.256 1.621-.427 2.56-2.048.853-1.707 1.365-3.371 1.536-4.992s-.085-2.731-.768-3.328zM.82 37.692c-.683.512-.939 1.579-.768 3.2s.725 3.285 1.664 4.992c.853 1.621 1.664 2.304 2.432 2.048.683-.597.939-1.707.768-3.328s-.683-3.243-1.536-4.864c-.939-1.707-1.792-2.389-2.56-2.048z"/></g><defs ><path id="B" d="M53.825 19.785c-.768-.256-1.579.469-2.432 2.176-.853 1.621-1.365 3.243-1.536 4.864-.256 1.621-.043 2.731.64 3.328.768.256 1.621-.427 2.56-2.048.853-1.707 1.365-3.371 1.536-4.992s-.085-2.731-.768-3.328zm-8.576-.896c-.683.512-.939 1.579-.768 3.2s.725 3.285 1.664 4.992c.853 1.621 1.664 2.304 2.432 2.048.683-.597.939-1.707.768-3.328s-.683-3.243-1.536-4.864c-.939-1.707-1.792-2.389-2.56-2.048z"/></defs></svg>