<svg xmlns="http://www.w3.org/2000/svg" xmlns:xlink="http://www.w3.org/1999/xlink" width="931" height="21" fill="none" xmlns:v="https://vecta.io/nano"><g fill="#3a3e45"><path d="M9.396.981c-.768-.256-1.579.469-2.432 2.176C6.11 4.779 5.598 6.4 5.428 8.021c-.256 1.621-.043 2.731.64 3.328.768.256 1.621-.427 2.56-2.048.853-1.707 1.365-3.371 1.536-4.992s-.085-2.731-.768-3.328zM.82.085c-.683.512-.939 1.579-.768 3.2S.777 6.57 1.716 8.277c.853 1.621 1.664 2.304 2.432 2.048.683-.597.939-1.707.768-3.328S4.233 3.755 3.38 2.133C2.441.427 1.588-.256.82.085zm8.576 10.298c-.768-.256-1.579.469-2.432 2.176-.853 1.621-1.365 3.243-1.536 4.864-.256 1.621-.043 2.731.64 3.328.768.256 1.621-.427 2.56-2.048.853-1.707 1.365-3.371 1.536-4.992s-.085-2.731-.768-3.328zM.82 9.487c-.683.512-.939 1.579-.768 3.2s.725 3.285 1.664 4.992c.853 1.621 1.664 2.304 2.432 2.048.683-.597.939-1.707.768-3.328s-.683-3.243-1.536-4.864C2.441 9.828 1.588 9.146.82 9.487z"/><path d="M9.825.981c-.768-.256-1.579.469-2.432 2.176C6.54 4.779 6.028 6.4 5.857 8.021c-.256 1.621-.043 2.731.64 3.328.768.256 1.621-.427 2.56-2.048.853-1.707 1.365-3.371 1.536-4.992s-.085-2.731-.768-3.328zM1.249.085C.567.597.311 1.664.481 3.285s.725 3.285 1.664 4.992c.853 1.621 1.664 2.304 2.432 2.048.683-.597.939-1.707.768-3.328s-.683-3.243-1.536-4.864C2.871.427 2.017-.256 1.249.085z"/><use xlink:href="#B"/><path d="M21.04.981c-.768-.256-1.579.469-2.432 2.176-.853 1.621-1.365 3.243-1.536 4.864-.256 1.621-.043 2.731.64 3.328.768.256 1.621-.427 2.56-2.048.853-1.707 1.365-3.371 1.536-4.992s-.085-2.731-.768-3.328zM12.464.085c-.683.512-.939 1.579-.768 3.2s.725 3.285 1.664 4.992c.853 1.621 1.664 2.304 2.432 2.048.683-.597.939-1.707.768-3.328s-.683-3.243-1.536-4.864C14.086.427 13.232-.256 12.464.085z"/><use xlink:href="#B" x="11.215"/><path d="M32.253.981c-.768-.256-1.579.469-2.432 2.176-.853 1.621-1.365 3.243-1.536 4.864-.256 1.621-.043 2.731.64 3.328.768.256 1.621-.427 2.56-2.048.853-1.707 1.365-3.371 1.536-4.992s-.085-2.731-.768-3.328zM23.677.085c-.683.512-.939 1.579-.768 3.2s.725 3.285 1.664 4.992c.853 1.621 1.664 2.304 2.432 2.048.683-.597.939-1.707.768-3.328s-.683-3.243-1.536-4.864C25.298.427 24.445-.256 23.677.085z"/><use xlink:href="#B" x="22.428"/><path d="M43.468.981c-.768-.256-1.579.469-2.432 2.176-.853 1.621-1.365 3.243-1.536 4.864-.256 1.621-.043 2.731.64 3.328.768.256 1.621-.427 2.56-2.048.853-1.707 1.365-3.371 1.536-4.992s-.085-2.731-.768-3.328zM34.892.085c-.683.512-.939 1.579-.768 3.2s.725 3.285 1.664 4.992c.853 1.621 1.664 2.304 2.432 2.048.683-.597.939-1.707.768-3.328s-.683-3.243-1.536-4.864C36.513.427 35.66-.256 34.892.085z"/><use xlink:href="#B" x="33.643"/><path d="M54.683.981c-.768-.256-1.579.469-2.432 2.176-.853 1.621-1.365 3.243-1.536 4.864-.256 1.621-.043 2.731.64 3.328.768.256 1.621-.427 2.56-2.048.853-1.707 1.365-3.371 1.536-4.992s-.085-2.731-.768-3.328zM46.107.085c-.683.512-.939 1.579-.768 3.2s.725 3.285 1.664 4.992c.853 1.621 1.664 2.304 2.432 2.048.683-.597.939-1.707.768-3.328s-.683-3.243-1.536-4.864C47.728.427 46.875-.256 46.107.085z"/><use xlink:href="#B" x="44.858"/><path d="M65.898.981c-.768-.256-1.579.469-2.432 2.176C62.612 4.779 62.1 6.4 61.93 8.021c-.256 1.621-.043 2.731.64 3.328.768.256 1.621-.427 2.56-2.048.853-1.707 1.365-3.371 1.536-4.992s-.085-2.731-.768-3.328zM57.322.085c-.683.512-.939 1.579-.768 3.2s.725 3.285 1.664 4.992c.853 1.621 1.664 2.304 2.432 2.048.683-.597.939-1.707.768-3.328s-.683-3.243-1.536-4.864C58.943.427 58.09-.256 57.322.085z"/><use xlink:href="#B" x="56.073"/><path d="M77.111.981c-.768-.256-1.579.469-2.432 2.176-.853 1.621-1.365 3.243-1.536 4.864-.256 1.621-.043 2.731.64 3.328.768.256 1.621-.427 2.56-2.048.853-1.707 1.365-3.371 1.536-4.992s-.085-2.731-.768-3.328zM68.535.085c-.683.512-.939 1.579-.768 3.2s.725 3.285 1.664 4.992c.853 1.621 1.664 2.304 2.432 2.048.683-.597.939-1.707.768-3.328s-.683-3.243-1.536-4.864C70.156.427 69.303-.256 68.535.085z"/><use xlink:href="#B" x="67.286"/><path d="M88.325.981c-.768-.256-1.579.469-2.432 2.176-.853 1.621-1.365 3.243-1.536 4.864-.256 1.621-.043 2.731.64 3.328.768.256 1.621-.427 2.56-2.048.853-1.707 1.365-3.371 1.536-4.992s-.085-2.731-.768-3.328zM79.749.085c-.683.512-.939 1.579-.768 3.2s.725 3.285 1.664 4.992c.853 1.621 1.664 2.304 2.432 2.048.683-.597.939-1.707.768-3.328s-.683-3.243-1.536-4.864C81.371.427 80.517-.256 79.749.085z"/><use xlink:href="#B" x="78.5"/><path d="M99.54.981c-.768-.256-1.579.469-2.432 2.176-.853 1.621-1.365 3.243-1.536 4.864-.256 1.621-.043 2.731.64 3.328.768.256 1.621-.427 2.56-2.048.853-1.707 1.366-3.371 1.536-4.992s-.085-2.731-.768-3.328zM90.964.085c-.683.512-.939 1.579-.768 3.2s.725 3.285 1.664 4.992c.853 1.621 1.664 2.304 2.432 2.048.683-.597.939-1.707.768-3.328s-.683-3.243-1.536-4.864C92.586.427 91.732-.256 90.964.085zm8.576 10.298c-.768-.256-1.579.469-2.432 2.176-.853 1.621-1.365 3.243-1.536 4.864-.256 1.621-.043 2.731.64 3.328.768.256 1.621-.427 2.56-2.048.853-1.707 1.366-3.371 1.536-4.992s-.085-2.731-.768-3.328zm-8.576-.896c-.683.512-.939 1.579-.768 3.2s.725 3.285 1.664 4.992c.853 1.621 1.664 2.304 2.432 2.048.683-.597.939-1.707.768-3.328s-.683-3.243-1.536-4.864c-.939-1.707-1.792-2.389-2.56-2.048z"/><use xlink:href="#B" x="100.93" y="-9.402"/><use xlink:href="#B" x="100.93"/><use xlink:href="#B" x="112.145" y="-9.402"/><use xlink:href="#B" x="112.145"/><use xlink:href="#C"/><use xlink:href="#C" y="9.402"/><use xlink:href="#C" x="11.215"/><use xlink:href="#C" x="11.215" y="9.402"/><use xlink:href="#D"/><use xlink:href="#D" y="9.402"/><use xlink:href="#D" x="11.215"/><use xlink:href="#D" x="11.215" y="9.402"/><use xlink:href="#D" x="22.428"/><use xlink:href="#D" x="22.428" y="9.402"/><use xlink:href="#B" x="179.43" y="-9.402"/><use xlink:href="#B" x="179.43"/><use xlink:href="#B" x="190.645" y="-9.402"/><use xlink:href="#B" x="190.645"/><use xlink:href="#C" x="78.502"/><use xlink:href="#C" x="78.502" y="9.402"/><use xlink:href="#C" x="89.715"/><use xlink:href="#C" x="89.715" y="9.402"/><use xlink:href="#D" x="78.5"/><use xlink:href="#D" x="78.5" y="9.402"/><use xlink:href="#D" x="89.715"/><use xlink:href="#D" x="89.715" y="9.402"/><use xlink:href="#B" x="246.717" y="-9.402"/><use xlink:href="#B" x="246.717"/><use xlink:href="#B" x="257.932" y="-9.402"/><use xlink:href="#B" x="257.932"/><use xlink:href="#B" x="269.145" y="-9.402"/><use xlink:href="#B" x="269.145"/><use xlink:href="#C" x="157.002"/><use xlink:href="#C" x="157.002" y="9.402"/><use xlink:href="#C" x="168.217"/><use xlink:href="#C" x="168.217" y="9.402"/><use xlink:href="#D" x="157.002"/><use xlink:href="#D" x="157.002" y="9.402"/><use xlink:href="#D" x="168.215"/><use xlink:href="#D" x="168.215" y="9.402"/><use xlink:href="#B" x="325.217" y="-9.402"/><use xlink:href="#B" x="325.217"/><use xlink:href="#B" x="336.432" y="-9.402"/><use xlink:href="#B" x="336.432"/><use xlink:href="#C" x="224.289"/><use xlink:href="#C" x="224.289" y="9.402"/><use xlink:href="#C" x="235.502"/><use xlink:href="#C" x="235.502" y="9.402"/><use xlink:href="#C" x="246.717"/><use xlink:href="#C" x="246.717" y="9.402"/><use xlink:href="#D" x="235.502"/><use xlink:href="#D" x="235.502" y="9.402"/><use xlink:href="#D" x="246.717"/><use xlink:href="#D" x="246.717" y="9.402"/><use xlink:href="#B" x="403.719" y="-9.402"/><use xlink:href="#B" x="403.719"/><use xlink:href="#B" x="414.932" y="-9.402"/><use xlink:href="#B" x="414.932"/><use xlink:href="#C" x="302.789"/><use xlink:href="#C" x="302.789" y="9.402"/><use xlink:href="#C" x="314.004"/><use xlink:href="#C" x="314.004" y="9.402"/><use xlink:href="#C" x="325.219"/><use xlink:href="#C" x="325.219" y="9.402"/><use xlink:href="#D" x="314.002"/><use xlink:href="#D" x="314.002" y="9.402"/><use xlink:href="#D" x="325.217"/><use xlink:href="#D" x="325.217" y="9.402"/><use xlink:href="#B" x="482.219" y="-9.402"/><use xlink:href="#B" x="482.219"/><use xlink:href="#B" x="493.434" y="-9.402"/><use xlink:href="#B" x="493.434"/><use xlink:href="#C" x="381.289"/><use xlink:href="#C" x="381.289" y="9.402"/><use xlink:href="#C" x="392.504"/><use xlink:href="#C" x="392.504" y="9.402"/><use xlink:href="#C" x="403.719"/><use xlink:href="#C" x="403.719" y="9.402"/><path d="M548.116.981c-.768-.256-1.578.469-2.432 2.176-.853 1.621-1.365 3.243-1.536 4.864-.256 1.621-.042 2.731.64 3.328.768.256 1.622-.427 2.56-2.048.854-1.707 1.366-3.371 1.536-4.992s-.085-2.731-.768-3.328zM539.54.085c-.682.512-.938 1.579-.768 3.2s.726 3.285 1.664 4.992c.854 1.621 1.664 2.304 2.432 2.048.683-.597.939-1.707.768-3.328s-.682-3.243-1.536-4.864c-.938-1.707-1.792-2.389-2.56-2.048z"/><use xlink:href="#D" x="392.504" y="9.402"/><use xlink:href="#D" x="403.719"/><use xlink:href="#D" x="403.719" y="9.402"/><use xlink:href="#B" x="560.719" y="-9.402"/><use xlink:href="#B" x="560.719"/><use xlink:href="#B" x="571.934" y="-9.402"/><use xlink:href="#B" x="571.934"/><use xlink:href="#C" x="459.791"/><use xlink:href="#C" x="459.791" y="9.402"/><use xlink:href="#C" x="471.006"/><use xlink:href="#C" x="471.006" y="9.402"/><use xlink:href="#C" x="482.219"/><use xlink:href="#C" x="482.219" y="9.402"/><path d="M626.616.981c-.768-.256-1.578.469-2.432 2.176-.853 1.621-1.365 3.243-1.536 4.864-.256 1.621-.042 2.731.64 3.328.768.256 1.622-.427 2.56-2.048.854-1.707 1.366-3.371 1.536-4.992s-.085-2.731-.768-3.328zM618.04.085c-.682.512-.938 1.579-.768 3.2s.726 3.285 1.664 4.992c.854 1.621 1.664 2.304 2.432 2.048.683-.597.939-1.707.768-3.328s-.682-3.243-1.536-4.864c-.938-1.707-1.792-2.389-2.56-2.048z"/><use xlink:href="#D" x="471.004" y="9.402"/><use xlink:href="#D" x="482.219"/><use xlink:href="#D" x="482.219" y="9.402"/><path d="M649.046.981c-.768-.256-1.579.469-2.432 2.176-.853 1.621-1.365 3.243-1.536 4.864-.256 1.621-.043 2.731.64 3.328.768.256 1.621-.427 2.56-2.048.853-1.707 1.365-3.371 1.536-4.992s-.085-2.731-.768-3.328zM640.47.085c-.683.512-.939 1.579-.768 3.2s.725 3.285 1.664 4.992c.853 1.621 1.664 2.304 2.432 2.048.683-.597.939-1.707.768-3.328s-.683-3.243-1.536-4.864c-.939-1.707-1.792-2.389-2.56-2.048z"/><use xlink:href="#B" x="639.221"/><use xlink:href="#B" x="650.436" y="-9.402"/><use xlink:href="#B" x="650.436"/><use xlink:href="#C" x="538.291"/><use xlink:href="#C" x="538.291" y="9.402"/><use xlink:href="#C" x="549.506"/><use xlink:href="#C" x="549.506" y="9.402"/><use xlink:href="#D" x="538.291"/><use xlink:href="#D" x="538.291" y="9.402"/><use xlink:href="#D" x="549.506"/><use xlink:href="#D" x="549.506" y="9.402"/><use xlink:href="#D" x="560.719"/><use xlink:href="#D" x="560.719" y="9.402"/><path d="M727.546.981c-.768-.256-1.579.469-2.432 2.176-.853 1.621-1.365 3.243-1.536 4.864-.256 1.621-.043 2.731.64 3.328.768.256 1.621-.427 2.56-2.048.853-1.707 1.365-3.371 1.536-4.992s-.085-2.731-.768-3.328zM718.97.085c-.683.512-.939 1.579-.768 3.2s.725 3.285 1.664 4.992c.853 1.621 1.664 2.304 2.432 2.048.683-.597.939-1.707.768-3.328s-.683-3.243-1.536-4.864c-.939-1.707-1.792-2.389-2.56-2.048z"/><use xlink:href="#B" x="717.721"/><use xlink:href="#B" x="728.936" y="-9.402"/><use xlink:href="#B" x="728.936"/><path d="M749.976.981c-.768-.256-1.579.469-2.432 2.176-.854 1.621-1.366 3.243-1.536 4.864-.256 1.621-.043 2.731.64 3.328.768.256 1.621-.427 2.56-2.048.853-1.707 1.365-3.371 1.536-4.992s-.086-2.731-.768-3.328zM741.4.085c-.683.512-.939 1.579-.768 3.2s.725 3.285 1.664 4.992c.853 1.621 1.664 2.304 2.432 2.048.682-.597.938-1.707.768-3.328s-.683-3.243-1.536-4.864c-.939-1.707-1.792-2.389-2.56-2.048z"/><use xlink:href="#C" x="616.793" y="9.402"/><use xlink:href="#C" x="628.008"/><use xlink:href="#C" x="628.008" y="9.402"/><use xlink:href="#D" x="616.791"/><use xlink:href="#D" x="616.791" y="9.402"/><use xlink:href="#D" x="628.006"/><use xlink:href="#D" x="628.006" y="9.402"/><use xlink:href="#B" x="785.008" y="-9.402"/><use xlink:href="#B" x="785.008"/><use xlink:href="#B" x="796.223" y="-9.402"/><use xlink:href="#B" x="796.223"/><use xlink:href="#C" x="684.08"/><use xlink:href="#C" x="684.08" y="9.402"/><path d="M828.476.981c-.768-.256-1.579.469-2.432 2.176-.854 1.621-1.366 3.243-1.536 4.864-.256 1.621-.043 2.731.64 3.328.768.256 1.621-.427 2.56-2.048.853-1.707 1.365-3.371 1.536-4.992s-.086-2.731-.768-3.328zM819.9.085c-.683.512-.939 1.579-.768 3.2s.725 3.285 1.664 4.992c.853 1.621 1.664 2.304 2.432 2.048.682-.597.938-1.707.768-3.328s-.683-3.243-1.536-4.864c-.939-1.707-1.792-2.389-2.56-2.048z"/><use xlink:href="#C" x="695.293" y="9.402"/><use xlink:href="#C" x="706.508"/><use xlink:href="#C" x="706.508" y="9.402"/><use xlink:href="#D" x="695.293"/><use xlink:href="#D" x="695.293" y="9.402"/><use xlink:href="#D" x="706.508"/><use xlink:href="#D" x="706.508" y="9.402"/><use xlink:href="#B" x="863.508" y="-9.402"/><use xlink:href="#B" x="863.508"/><use xlink:href="#B" x="874.723" y="-9.402"/><use xlink:href="#B" x="874.723"/><use xlink:href="#C" x="762.58"/><use xlink:href="#C" x="762.58" y="9.402"/><use xlink:href="#C" x="773.795"/><use xlink:href="#C" x="773.795" y="9.402"/><use xlink:href="#C" x="785.01"/><use xlink:href="#C" x="785.01" y="9.402"/><use xlink:href="#D" x="773.793"/><use xlink:href="#D" x="773.793" y="9.402"/></g><defs ><path id="B" d="M9.825 10.383c-.768-.256-1.579.469-2.432 2.176-.853 1.621-1.365 3.243-1.536 4.864-.256 1.621-.043 2.731.64 3.328.768.256 1.621-.427 2.56-2.048.853-1.707 1.365-3.371 1.536-4.992s-.085-2.731-.768-3.328zm-8.576-.896c-.683.512-.939 1.579-.768 3.2s.725 3.285 1.664 4.992c.853 1.621 1.664 2.304 2.432 2.048.683-.597.939-1.707.768-3.328s-.683-3.243-1.536-4.864c-.939-1.707-1.792-2.389-2.56-2.048z"/><path id="C" d="M133.183.981c-.768-.256-1.579.469-2.432 2.176-.854 1.621-1.366 3.243-1.536 4.864-.256 1.621-.043 2.731.64 3.328.768.256 1.621-.427 2.56-2.048.853-1.707 1.365-3.371 1.536-4.992s-.086-2.731-.768-3.328zm-8.576-.896c-.683.512-.939 1.579-.768 3.2s.725 3.285 1.664 4.992c.853 1.621 1.664 2.304 2.432 2.048.682-.597.938-1.707.768-3.328s-.683-3.243-1.536-4.864c-.939-1.707-1.792-2.389-2.56-2.048z"/><path id="D" d="M155.612.981c-.768-.256-1.578.469-2.432 2.176-.853 1.621-1.365 3.243-1.536 4.864-.256 1.621-.042 2.731.64 3.328.768.256 1.622-.427 2.56-2.048.854-1.707 1.366-3.371 1.536-4.992s-.085-2.731-.768-3.328zm-8.576-.896c-.682.512-.938 1.579-.768 3.2s.726 3.285 1.664 4.992c.854 1.621 1.664 2.304 2.432 2.048.683-.597.939-1.707.768-3.328s-.682-3.243-1.536-4.864c-.938-1.707-1.792-2.389-2.56-2.048z"/></defs></svg>