<svg xmlns="http://www.w3.org/2000/svg" xmlns:xlink="http://www.w3.org/1999/xlink" width="22" height="548" fill="none" xmlns:v="https://vecta.io/nano"><g fill="#3a3e45"><path d="M20.611.981c-.768-.256-1.579.469-2.432 2.176-.853 1.621-1.365 3.243-1.536 4.864-.256 1.621-.043 2.731.64 3.328.768.256 1.621-.427 2.56-2.048.853-1.707 1.365-3.371 1.536-4.992s-.085-2.731-.768-3.328zM12.035.085c-.683.512-.939 1.579-.768 3.2s.725 3.285 1.664 4.992c.853 1.621 1.664 2.304 2.432 2.048.683-.597.939-1.707.768-3.328s-.683-3.243-1.536-4.864C13.656.427 12.803-.256 12.035.085z"/><use xlink:href="#B"/><use xlink:href="#B" y="9.402"/><use xlink:href="#B" y="18.803"/><use xlink:href="#B" y="28.205"/><use xlink:href="#B" y="37.607"/><use xlink:href="#B" y="47.008"/><use xlink:href="#B" y="56.41"/><use xlink:href="#B" y="65.812"/><use xlink:href="#B" y="75.213"/><use xlink:href="#B" y="84.615"/><use xlink:href="#C"/><use xlink:href="#D"/><use xlink:href="#D" y="9.402"/><use xlink:href="#B" y="122.222"/><use xlink:href="#C" y="37.607"/><use xlink:href="#D" y="37.607"/><use xlink:href="#B" y="150.427"/><use xlink:href="#B" y="159.829"/><use xlink:href="#C" y="75.214"/><use xlink:href="#D" y="75.214"/><use xlink:href="#B" y="188.034"/><use xlink:href="#C" y="103.419"/><use xlink:href="#C" y="112.821"/><use xlink:href="#D" y="112.821"/><use xlink:href="#B" y="225.641"/><use xlink:href="#C" y="141.026"/><use xlink:href="#D" y="141.026"/><use xlink:href="#D" y="150.428"/><use xlink:href="#B" y="263.248"/><use xlink:href="#C" y="178.633"/><use xlink:href="#D" y="178.633"/><use xlink:href="#B" y="291.453"/><use xlink:href="#B" y="300.855"/><use xlink:href="#C" y="216.24"/><use xlink:href="#D" y="216.24"/><use xlink:href="#B" y="329.06"/><use xlink:href="#C" y="244.445"/><use xlink:href="#C" y="253.847"/><use xlink:href="#D" y="253.847"/><use xlink:href="#B" y="366.667"/><use xlink:href="#C" y="282.052"/><use xlink:href="#C" y="291.454"/><use xlink:href="#D" y="291.454"/><use xlink:href="#B" y="404.274"/><use xlink:href="#C" y="319.659"/><use xlink:href="#D" y="319.659"/><use xlink:href="#D" y="329.061"/><use xlink:href="#B" y="441.881"/><use xlink:href="#C" y="357.266"/><use xlink:href="#D" y="357.266"/><use xlink:href="#B" y="470.086"/><use xlink:href="#B" y="479.488"/><use xlink:href="#C" y="394.873"/><use xlink:href="#D" y="394.873"/><use xlink:href="#B" y="507.693"/><use xlink:href="#C" y="423.078"/><path d="M20.611 536.88c-.768-.257-1.579.469-2.432 2.175-.853 1.622-1.365 3.243-1.536 4.864-.256 1.622-.043 2.731.64 3.328.768.256 1.621-.426 2.56-2.047.853-1.707 1.365-3.371 1.536-4.993s-.085-2.73-.768-3.327zm-8.576-.897c-.683.512-.939 1.579-.768 3.2s.725 3.286 1.664 4.992c.853 1.622 1.664 2.304 2.432 2.048.683-.597.939-1.706.768-3.328s-.683-3.242-1.536-4.864c-.939-1.706-1.792-2.389-2.56-2.048zM9.396.981c-.768-.256-1.579.469-2.432 2.176C6.11 4.779 5.598 6.4 5.428 8.021c-.256 1.621-.043 2.731.64 3.328.768.256 1.621-.427 2.56-2.048.853-1.707 1.365-3.371 1.536-4.992s-.085-2.731-.768-3.328zM.82.085c-.683.512-.939 1.579-.768 3.2S.777 6.57 1.716 8.277c.853 1.621 1.664 2.304 2.432 2.048.683-.597.939-1.707.768-3.328S4.233 3.755 3.38 2.133C2.441.427 1.588-.256.82.085zm8.576 10.298c-.768-.256-1.579.469-2.432 2.176-.853 1.621-1.365 3.243-1.536 4.864-.256 1.621-.043 2.731.64 3.328.768.256 1.621-.427 2.56-2.048.853-1.707 1.365-3.371 1.536-4.992s-.085-2.731-.768-3.328zM.82 9.487c-.683.512-.939 1.579-.768 3.2s.725 3.285 1.664 4.992c.853 1.621 1.664 2.304 2.432 2.048.683-.597.939-1.707.768-3.328s-.683-3.243-1.536-4.864C2.441 9.828 1.588 9.146.82 9.487zm8.576 10.298c-.768-.256-1.579.469-2.432 2.176-.853 1.621-1.365 3.243-1.536 4.864-.256 1.621-.043 2.731.64 3.328.768.256 1.621-.427 2.56-2.048.853-1.707 1.365-3.371 1.536-4.992s-.085-2.731-.768-3.328zM.82 18.889c-.683.512-.939 1.579-.768 3.2s.725 3.285 1.664 4.992c.853 1.621 1.664 2.304 2.432 2.048.683-.597.939-1.707.768-3.328s-.683-3.243-1.536-4.864c-.939-1.707-1.792-2.389-2.56-2.048zm8.576 10.297c-.768-.256-1.579.469-2.432 2.176-.853 1.621-1.365 3.243-1.536 4.864-.256 1.621-.043 2.731.64 3.328.768.256 1.621-.427 2.56-2.048.853-1.707 1.365-3.371 1.536-4.992s-.085-2.731-.768-3.328zM.82 28.29c-.683.512-.939 1.579-.768 3.2s.725 3.285 1.664 4.992c.853 1.621 1.664 2.304 2.432 2.048.683-.597.939-1.707.768-3.328s-.683-3.243-1.536-4.864c-.939-1.707-1.792-2.389-2.56-2.048zm8.576 10.298c-.768-.256-1.579.469-2.432 2.176-.853 1.621-1.365 3.243-1.536 4.864-.256 1.621-.043 2.731.64 3.328.768.256 1.621-.427 2.56-2.048.853-1.707 1.365-3.371 1.536-4.992s-.085-2.731-.768-3.328zM.82 37.692c-.683.512-.939 1.579-.768 3.2s.725 3.285 1.664 4.992c.853 1.621 1.664 2.304 2.432 2.048.683-.597.939-1.707.768-3.328s-.683-3.243-1.536-4.864c-.939-1.707-1.792-2.389-2.56-2.048zM9.396 47.99c-.768-.256-1.579.469-2.432 2.176-.853 1.621-1.365 3.243-1.536 4.864-.256 1.621-.043 2.731.64 3.328.768.256 1.621-.427 2.56-2.048.853-1.707 1.365-3.371 1.536-4.992s-.085-2.731-.768-3.328zM.82 47.094c-.683.512-.939 1.579-.768 3.2s.725 3.285 1.664 4.992c.853 1.621 1.664 2.304 2.432 2.048.683-.597.939-1.707.768-3.328s-.683-3.243-1.536-4.864c-.939-1.707-1.792-2.389-2.56-2.048zm8.576 10.297c-.768-.256-1.579.469-2.432 2.176-.853 1.621-1.365 3.243-1.536 4.864-.256 1.621-.043 2.731.64 3.328.768.256 1.621-.427 2.56-2.048.853-1.707 1.365-3.371 1.536-4.992s-.085-2.731-.768-3.328zM.82 56.495c-.683.512-.939 1.579-.768 3.2s.725 3.285 1.664 4.992c.853 1.621 1.664 2.304 2.432 2.048.683-.597.939-1.707.768-3.328s-.683-3.243-1.536-4.864c-.939-1.707-1.792-2.389-2.56-2.048zm8.576 10.298c-.768-.256-1.579.469-2.432 2.176-.853 1.621-1.365 3.243-1.536 4.864-.256 1.621-.043 2.731.64 3.328.768.256 1.621-.427 2.56-2.048.853-1.707 1.365-3.371 1.536-4.992s-.085-2.731-.768-3.328zM.82 65.897c-.683.512-.939 1.579-.768 3.2s.725 3.285 1.664 4.992c.853 1.621 1.664 2.304 2.432 2.048.683-.597.939-1.707.768-3.328s-.683-3.243-1.536-4.864c-.939-1.707-1.792-2.389-2.56-2.048zm8.576 10.298c-.768-.256-1.579.469-2.432 2.176-.853 1.621-1.365 3.243-1.536 4.864-.256 1.621-.043 2.731.64 3.328.768.256 1.621-.427 2.56-2.048.853-1.707 1.365-3.371 1.536-4.992s-.085-2.731-.768-3.328zM.82 75.299c-.683.512-.939 1.579-.768 3.2s.725 3.285 1.664 4.992c.853 1.621 1.664 2.304 2.432 2.048.683-.597.939-1.707.768-3.328s-.683-3.243-1.536-4.864c-.939-1.707-1.792-2.389-2.56-2.048zm8.576 10.297c-.768-.256-1.579.469-2.432 2.176-.853 1.621-1.365 3.243-1.536 4.864-.256 1.621-.043 2.731.64 3.328.768.256 1.621-.427 2.56-2.048.853-1.707 1.365-3.371 1.536-4.992s-.085-2.731-.768-3.328zM.82 84.7c-.683.512-.939 1.579-.768 3.2s.725 3.285 1.664 4.992c.853 1.621 1.664 2.304 2.432 2.048.683-.597.939-1.707.768-3.328s-.683-3.243-1.536-4.864C2.441 85.042 1.588 84.359.82 84.7zm8.576 10.298c-.768-.256-1.579.469-2.432 2.176-.853 1.621-1.365 3.243-1.536 4.864-.256 1.621-.043 2.731.64 3.328.768.256 1.621-.427 2.56-2.048.853-1.707 1.365-3.371 1.536-4.992s-.085-2.731-.768-3.328zM.82 94.102c-.683.512-.939 1.579-.768 3.2s.725 3.285 1.664 4.992c.853 1.621 1.664 2.304 2.432 2.048.683-.597.939-1.707.768-3.328s-.683-3.243-1.536-4.864c-.939-1.707-1.792-2.389-2.56-2.048z"/><use xlink:href="#C" x="-11.215"/><use xlink:href="#D" x="-11.215"/><use xlink:href="#D" x="-11.215" y="9.402"/><use xlink:href="#B" x="-11.215" y="122.222"/><use xlink:href="#C" x="-11.215" y="37.607"/><use xlink:href="#D" x="-11.215" y="37.607"/><use xlink:href="#B" x="-11.215" y="150.427"/><use xlink:href="#B" x="-11.215" y="159.829"/><use xlink:href="#C" x="-11.215" y="75.214"/><use xlink:href="#D" x="-11.215" y="75.214"/><use xlink:href="#B" x="-11.215" y="188.034"/><use xlink:href="#C" x="-11.215" y="103.419"/><use xlink:href="#C" x="-11.215" y="112.821"/><use xlink:href="#D" x="-11.215" y="112.821"/><use xlink:href="#B" x="-11.215" y="225.641"/><path d="M9.396 245.426c-.768-.256-1.579.469-2.432 2.176-.853 1.621-1.365 3.242-1.536 4.864-.256 1.621-.043 2.73.64 3.328.768.256 1.621-.427 2.56-2.048.853-1.707 1.365-3.371 1.536-4.992s-.085-2.731-.768-3.328zM.82 244.53c-.683.512-.939 1.578-.768 3.2s.725 3.285 1.664 4.992c.853 1.621 1.664 2.304 2.432 2.048.683-.598.939-1.707.768-3.328s-.683-3.243-1.536-4.864c-.939-1.707-1.792-2.39-2.56-2.048z"/><use xlink:href="#D" x="-11.215" y="141.026"/><use xlink:href="#D" x="-11.215" y="150.428"/><use xlink:href="#B" x="-11.215" y="263.248"/><use xlink:href="#C" x="-11.215" y="178.633"/><use xlink:href="#D" x="-11.215" y="178.633"/><path d="M9.396 301.836c-.768-.256-1.579.469-2.432 2.176-.853 1.621-1.365 3.243-1.536 4.864-.256 1.621-.043 2.731.64 3.328.768.256 1.621-.427 2.56-2.048.853-1.707 1.365-3.371 1.536-4.992s-.085-2.731-.768-3.328zM.82 300.94c-.683.512-.939 1.579-.768 3.2s.725 3.285 1.664 4.992c.853 1.621 1.664 2.304 2.432 2.048.683-.597.939-1.707.768-3.328s-.683-3.243-1.536-4.864c-.939-1.707-1.792-2.389-2.56-2.048z"/><use xlink:href="#B" x="-11.215" y="300.855"/><use xlink:href="#C" x="-11.215" y="216.24"/><use xlink:href="#D" x="-11.215" y="216.24"/><use xlink:href="#B" x="-11.215" y="329.06"/><use xlink:href="#C" x="-11.215" y="244.445"/><use xlink:href="#C" x="-11.215" y="253.847"/><use xlink:href="#D" x="-11.215" y="253.847"/><use xlink:href="#B" x="-11.215" y="366.667"/><use xlink:href="#C" x="-11.215" y="282.052"/><use xlink:href="#C" x="-11.215" y="291.454"/><use xlink:href="#D" x="-11.215" y="291.454"/><use xlink:href="#B" x="-11.215" y="404.274"/><use xlink:href="#C" x="-11.215" y="319.659"/><use xlink:href="#D" x="-11.215" y="319.659"/><use xlink:href="#D" x="-11.215" y="329.061"/><use xlink:href="#B" x="-11.215" y="441.881"/><path d="M9.396 461.666c-.768-.256-1.579.469-2.432 2.176-.853 1.621-1.365 3.242-1.536 4.864-.256 1.621-.043 2.73.64 3.328.768.256 1.621-.427 2.56-2.048.853-1.707 1.365-3.371 1.536-4.992s-.085-2.731-.768-3.328zM.82 460.77c-.683.512-.939 1.578-.768 3.2s.725 3.285 1.664 4.992c.853 1.621 1.664 2.304 2.432 2.048.683-.598.939-1.707.768-3.328s-.683-3.243-1.536-4.864c-.939-1.707-1.792-2.39-2.56-2.048z"/><use xlink:href="#D" x="-11.215" y="357.266"/><use xlink:href="#B" x="-11.215" y="470.086"/><use xlink:href="#B" x="-11.215" y="479.488"/><use xlink:href="#C" x="-11.215" y="394.873"/><use xlink:href="#D" x="-11.215" y="394.873"/><path d="M9.396 518.076c-.768-.256-1.579.469-2.432 2.176-.853 1.621-1.365 3.243-1.536 4.864-.256 1.621-.043 2.731.64 3.328.768.256 1.621-.427 2.56-2.048.853-1.707 1.365-3.371 1.536-4.992s-.085-2.731-.768-3.328zM.82 517.18c-.683.512-.939 1.579-.768 3.2s.725 3.285 1.664 4.992c.853 1.621 1.664 2.304 2.432 2.048.683-.597.939-1.707.768-3.328s-.683-3.243-1.536-4.864c-.939-1.707-1.792-2.389-2.56-2.048z"/><use xlink:href="#C" x="-11.215" y="423.078"/><use xlink:href="#C" x="-11.215" y="432.48"/></g><defs ><path id="B" d="M20.611 10.383c-.768-.256-1.579.469-2.432 2.176-.853 1.621-1.365 3.243-1.536 4.864-.256 1.621-.043 2.731.64 3.328.768.256 1.621-.427 2.56-2.048.853-1.707 1.365-3.371 1.536-4.992s-.085-2.731-.768-3.328zm-8.576-.896c-.683.512-.939 1.579-.768 3.2s.725 3.285 1.664 4.992c.853 1.621 1.664 2.304 2.432 2.048.683-.597.939-1.707.768-3.328s-.683-3.243-1.536-4.864c-.939-1.707-1.792-2.389-2.56-2.048z"/><path id="C" d="M20.611 104.4c-.768-.256-1.579.469-2.432 2.176-.853 1.621-1.365 3.242-1.536 4.864-.256 1.621-.043 2.73.64 3.328.768.256 1.621-.427 2.56-2.048.853-1.707 1.365-3.371 1.536-4.992s-.085-2.731-.768-3.328zm-8.576-.896c-.683.512-.939 1.578-.768 3.2s.725 3.285 1.664 4.992c.853 1.621 1.664 2.304 2.432 2.048.683-.598.939-1.707.768-3.328s-.683-3.243-1.536-4.864c-.939-1.707-1.792-2.39-2.56-2.048z"/><path id="D" d="M20.611 113.801c-.768-.256-1.579.47-2.432 2.176-.853 1.622-1.365 3.243-1.536 4.864-.256 1.622-.043 2.731.64 3.328.768.256 1.621-.426 2.56-2.048.853-1.706 1.365-3.37 1.536-4.992s-.085-2.73-.768-3.328zm-8.576-.896c-.683.512-.939 1.579-.768 3.2s.725 3.286 1.664 4.992c.853 1.622 1.664 2.304 2.432 2.048.683-.597.939-1.706.768-3.328s-.683-3.242-1.536-4.864c-.939-1.706-1.792-2.389-2.56-2.048z"/></defs></svg>