<svg xmlns="http://www.w3.org/2000/svg" xmlns:xlink="http://www.w3.org/1999/xlink" width="974" height="548" fill="none" xmlns:v="https://vecta.io/nano"><g fill="#3a3e45"><use xlink:href="#B"/><use xlink:href="#C"/><path d="M31.825.981c-.768-.256-1.579.469-2.432 2.176-.853 1.621-1.365 3.243-1.536 4.864-.256 1.621-.043 2.731.64 3.328.768.256 1.621-.427 2.56-2.048.853-1.707 1.365-3.371 1.536-4.992s-.085-2.731-.768-3.328zM23.249.085c-.683.512-.939 1.579-.768 3.2s.725 3.285 1.664 4.992c.853 1.621 1.664 2.304 2.432 2.048.683-.597.939-1.707.768-3.328s-.683-3.243-1.536-4.864C24.871.427 24.017-.256 23.249.085z"/><use xlink:href="#C" x="11.214"/><path d="M32.255.981c-.768-.256-1.579.469-2.432 2.176-.853 1.621-1.365 3.243-1.536 4.864-.256 1.621-.043 2.731.64 3.328.768.256 1.621-.427 2.56-2.048.853-1.707 1.365-3.371 1.536-4.992s-.085-2.731-.768-3.328zM23.679.085c-.683.512-.939 1.579-.768 3.2s.725 3.285 1.664 4.992c.853 1.621 1.664 2.304 2.432 2.048.683-.597.939-1.707.768-3.328s-.683-3.243-1.536-4.864C25.3.427 24.447-.256 23.679.085z"/><use xlink:href="#C" x="11.644"/><path d="M43.47.981c-.768-.256-1.579.469-2.432 2.176-.853 1.621-1.365 3.243-1.536 4.864-.256 1.621-.043 2.731.64 3.328.768.256 1.621-.427 2.56-2.048.853-1.707 1.365-3.371 1.536-4.992s-.085-2.731-.768-3.328zM34.894.085c-.683.512-.939 1.579-.768 3.2s.725 3.285 1.664 4.992c.853 1.621 1.664 2.304 2.432 2.048.683-.597.939-1.707.768-3.328s-.683-3.243-1.536-4.864C36.515.427 35.662-.256 34.894.085z"/><use xlink:href="#C" x="22.859"/><path d="M54.683.981c-.768-.256-1.579.469-2.432 2.176-.853 1.621-1.365 3.243-1.536 4.864-.256 1.621-.043 2.731.64 3.328.768.256 1.621-.427 2.56-2.048.853-1.707 1.365-3.371 1.536-4.992s-.085-2.731-.768-3.328zM46.107.085c-.683.512-.939 1.579-.768 3.2s.725 3.285 1.664 4.992c.853 1.621 1.664 2.304 2.432 2.048.683-.597.939-1.707.768-3.328s-.683-3.243-1.536-4.864C47.728.427 46.875-.256 46.107.085z"/><use xlink:href="#C" x="34.072"/><path d="M65.898.981c-.768-.256-1.579.469-2.432 2.176C62.612 4.779 62.1 6.4 61.93 8.021c-.256 1.621-.043 2.731.64 3.328.768.256 1.621-.427 2.56-2.048.853-1.707 1.365-3.371 1.536-4.992s-.085-2.731-.768-3.328zM57.322.085c-.683.512-.939 1.579-.768 3.2s.725 3.285 1.664 4.992c.853 1.621 1.664 2.304 2.432 2.048.683-.597.939-1.707.768-3.328s-.683-3.243-1.536-4.864C58.943.427 58.09-.256 57.322.085z"/><use xlink:href="#C" x="45.287"/><path d="M77.112.981c-.768-.256-1.579.469-2.432 2.176-.853 1.621-1.365 3.243-1.536 4.864-.256 1.621-.043 2.731.64 3.328.768.256 1.621-.427 2.56-2.048.853-1.707 1.365-3.371 1.536-4.992s-.085-2.731-.768-3.328zM68.536.085c-.683.512-.939 1.579-.768 3.2s.725 3.285 1.664 4.992c.853 1.621 1.664 2.304 2.432 2.048.683-.597.939-1.707.768-3.328s-.683-3.243-1.536-4.864C70.158.427 69.304-.256 68.536.085z"/><use xlink:href="#C" x="56.501"/><path d="M88.327.981c-.768-.256-1.579.469-2.432 2.176-.853 1.621-1.365 3.243-1.536 4.864-.256 1.621-.043 2.731.64 3.328.768.256 1.621-.427 2.56-2.048.853-1.707 1.365-3.371 1.536-4.992s-.085-2.731-.768-3.328zM79.751.085c-.683.512-.939 1.579-.768 3.2s.725 3.285 1.664 4.992c.853 1.621 1.664 2.304 2.432 2.048.683-.597.939-1.707.768-3.328s-.683-3.243-1.536-4.864C81.373.427 80.519-.256 79.751.085z"/><use xlink:href="#C" x="67.716"/><path d="M99.54.981c-.768-.256-1.579.469-2.432 2.176-.853 1.621-1.365 3.243-1.536 4.864-.256 1.621-.043 2.731.64 3.328.768.256 1.621-.427 2.56-2.048.853-1.707 1.366-3.371 1.536-4.992s-.085-2.731-.768-3.328zM90.964.085c-.683.512-.939 1.579-.768 3.2s.725 3.285 1.664 4.992c.853 1.621 1.664 2.304 2.432 2.048.683-.597.939-1.707.768-3.328s-.683-3.243-1.536-4.864C92.586.427 91.732-.256 90.964.085zm8.576 10.298c-.768-.256-1.579.469-2.432 2.176-.853 1.621-1.365 3.243-1.536 4.864-.256 1.621-.043 2.731.64 3.328.768.256 1.621-.427 2.56-2.048.853-1.707 1.366-3.371 1.536-4.992s-.085-2.731-.768-3.328zm-8.576-.896c-.683.512-.939 1.579-.768 3.2s.725 3.285 1.664 4.992c.853 1.621 1.664 2.304 2.432 2.048.683-.597.939-1.707.768-3.328s-.683-3.243-1.536-4.864c-.939-1.707-1.792-2.389-2.56-2.048z"/><use xlink:href="#C" x="90.144" y="-9.402"/><use xlink:href="#C" x="90.144"/><use xlink:href="#C" x="101.359" y="-9.402"/><use xlink:href="#C" x="101.359"/><use xlink:href="#D"/><use xlink:href="#D" y="9.402"/><use xlink:href="#D" x="11.215"/><use xlink:href="#D" x="11.215" y="9.402"/><use xlink:href="#E"/><use xlink:href="#E" y="9.402"/><use xlink:href="#E" x="11.215"/><use xlink:href="#E" x="11.215" y="9.402"/><use xlink:href="#C" x="157.431" y="-9.402"/><use xlink:href="#C" x="157.431"/><use xlink:href="#C" x="168.646" y="-9.402"/><use xlink:href="#C" x="168.646"/><use xlink:href="#C" x="179.859" y="-9.402"/><use xlink:href="#C" x="179.859"/><use xlink:href="#D" x="78.5"/><use xlink:href="#D" x="78.5" y="9.402"/><use xlink:href="#D" x="89.715"/><use xlink:href="#D" x="89.715" y="9.402"/><use xlink:href="#E" x="78.502"/><use xlink:href="#E" x="78.502" y="9.402"/><use xlink:href="#E" x="89.715"/><use xlink:href="#E" x="89.715" y="9.402"/><use xlink:href="#C" x="235.931" y="-9.402"/><use xlink:href="#C" x="235.931"/><use xlink:href="#C" x="247.146" y="-9.402"/><use xlink:href="#C" x="247.146"/><use xlink:href="#D" x="145.787"/><use xlink:href="#D" x="145.787" y="9.402"/><use xlink:href="#D" x="157.002"/><use xlink:href="#D" x="157.002" y="9.402"/><use xlink:href="#D" x="168.215"/><use xlink:href="#D" x="168.215" y="9.402"/><use xlink:href="#E" x="157.002"/><use xlink:href="#E" x="157.002" y="9.402"/><use xlink:href="#E" x="168.217"/><use xlink:href="#E" x="168.217" y="9.402"/><use xlink:href="#C" x="314.433" y="-9.402"/><use xlink:href="#C" x="314.433"/><use xlink:href="#C" x="325.646" y="-9.402"/><use xlink:href="#C" x="325.646"/><use xlink:href="#D" x="224.287"/><use xlink:href="#D" x="224.287" y="9.402"/><use xlink:href="#D" x="235.502"/><use xlink:href="#D" x="235.502" y="9.402"/><use xlink:href="#D" x="246.717"/><use xlink:href="#D" x="246.717" y="9.402"/><use xlink:href="#E" x="235.502"/><use xlink:href="#E" x="235.502" y="9.402"/><use xlink:href="#E" x="246.717"/><use xlink:href="#E" x="246.717" y="9.402"/><use xlink:href="#C" x="392.933" y="-9.402"/><use xlink:href="#C" x="392.933"/><use xlink:href="#C" x="404.148" y="-9.402"/><use xlink:href="#C" x="404.148"/><use xlink:href="#D" x="302.789"/><use xlink:href="#D" x="302.789" y="9.402"/><use xlink:href="#D" x="314.002"/><use xlink:href="#D" x="314.002" y="9.402"/><use xlink:href="#D" x="325.217"/><use xlink:href="#D" x="325.217" y="9.402"/><path d="M469.616.981c-.768-.256-1.578.469-2.432 2.176-.853 1.621-1.365 3.243-1.536 4.864-.256 1.621-.042 2.731.64 3.328.768.256 1.622-.427 2.56-2.048.854-1.707 1.366-3.371 1.536-4.992s-.085-2.731-.768-3.328zM461.04.085c-.682.512-.938 1.579-.768 3.2s.726 3.285 1.664 4.992c.854 1.621 1.664 2.304 2.432 2.048.683-.597.939-1.707.768-3.328s-.682-3.243-1.536-4.864c-.938-1.707-1.792-2.389-2.56-2.048z"/><use xlink:href="#E" x="314.004" y="9.402"/><use xlink:href="#E" x="325.219"/><use xlink:href="#E" x="325.219" y="9.402"/><use xlink:href="#C" x="471.433" y="-9.402"/><use xlink:href="#C" x="471.433"/><use xlink:href="#C" x="482.648" y="-9.402"/><use xlink:href="#C" x="482.648"/><use xlink:href="#D" x="381.289"/><use xlink:href="#D" x="381.289" y="9.402"/><use xlink:href="#D" x="392.504"/><use xlink:href="#D" x="392.504" y="9.402"/><use xlink:href="#D" x="403.717"/><use xlink:href="#D" x="403.717" y="9.402"/><path d="M548.116.981c-.768-.256-1.578.469-2.432 2.176-.853 1.621-1.365 3.243-1.536 4.864-.256 1.621-.042 2.731.64 3.328.768.256 1.622-.427 2.56-2.048.854-1.707 1.366-3.371 1.536-4.992s-.085-2.731-.768-3.328zM539.54.085c-.682.512-.938 1.579-.768 3.2s.726 3.285 1.664 4.992c.854 1.621 1.664 2.304 2.432 2.048.683-.597.939-1.707.768-3.328s-.682-3.243-1.536-4.864c-.938-1.707-1.792-2.389-2.56-2.048z"/><use xlink:href="#E" x="392.504" y="9.402"/><use xlink:href="#E" x="403.719"/><use xlink:href="#E" x="403.719" y="9.402"/><path d="M570.546.981c-.768-.256-1.579.469-2.432 2.176-.853 1.621-1.365 3.243-1.536 4.864-.256 1.621-.043 2.731.64 3.328.768.256 1.621-.427 2.56-2.048.853-1.707 1.365-3.371 1.536-4.992s-.085-2.731-.768-3.328zM561.97.085c-.683.512-.939 1.579-.768 3.2s.725 3.285 1.664 4.992c.853 1.621 1.664 2.304 2.432 2.048.683-.597.939-1.707.768-3.328s-.683-3.243-1.536-4.864c-.939-1.707-1.792-2.389-2.56-2.048z"/><use xlink:href="#C" x="549.935"/><use xlink:href="#C" x="561.15" y="-9.402"/><use xlink:href="#C" x="561.15"/><use xlink:href="#D" x="459.789"/><use xlink:href="#D" x="459.789" y="9.402"/><use xlink:href="#D" x="471.004"/><use xlink:href="#D" x="471.004" y="9.402"/><use xlink:href="#E" x="459.791"/><use xlink:href="#E" x="459.791" y="9.402"/><use xlink:href="#E" x="471.006"/><use xlink:href="#E" x="471.006" y="9.402"/><use xlink:href="#E" x="482.219"/><use xlink:href="#E" x="482.219" y="9.402"/><path d="M649.046.981c-.768-.256-1.579.469-2.432 2.176-.853 1.621-1.365 3.243-1.536 4.864-.256 1.621-.043 2.731.64 3.328.768.256 1.621-.427 2.56-2.048.853-1.707 1.365-3.371 1.536-4.992s-.085-2.731-.768-3.328zM640.47.085c-.683.512-.939 1.579-.768 3.2s.725 3.285 1.664 4.992c.853 1.621 1.664 2.304 2.432 2.048.683-.597.939-1.707.768-3.328s-.683-3.243-1.536-4.864c-.939-1.707-1.792-2.389-2.56-2.048z"/><use xlink:href="#C" x="628.435"/><use xlink:href="#C" x="639.65" y="-9.402"/><use xlink:href="#C" x="639.65"/><path d="M671.476.981c-.768-.256-1.579.469-2.432 2.176-.854 1.621-1.366 3.243-1.536 4.864-.256 1.621-.043 2.731.64 3.328.768.256 1.621-.427 2.56-2.048.853-1.707 1.365-3.371 1.536-4.992s-.086-2.731-.768-3.328zM662.9.085c-.683.512-.939 1.579-.768 3.2s.725 3.285 1.664 4.992c.853 1.621 1.664 2.304 2.432 2.048.682-.597.938-1.707.768-3.328s-.683-3.243-1.536-4.864c-.939-1.707-1.792-2.389-2.56-2.048z"/><use xlink:href="#D" x="538.291" y="9.402"/><use xlink:href="#D" x="549.506"/><use xlink:href="#D" x="549.506" y="9.402"/><use xlink:href="#E" x="538.291"/><use xlink:href="#E" x="538.291" y="9.402"/><use xlink:href="#E" x="549.506"/><use xlink:href="#E" x="549.506" y="9.402"/><use xlink:href="#C" x="695.722" y="-9.402"/><use xlink:href="#C" x="695.722"/><use xlink:href="#C" x="706.937" y="-9.402"/><use xlink:href="#C" x="706.937"/><use xlink:href="#C" x="718.15" y="-9.402"/><use xlink:href="#C" x="718.15"/><path d="M749.976.981c-.768-.256-1.579.469-2.432 2.176-.854 1.621-1.366 3.243-1.536 4.864-.256 1.621-.043 2.731.64 3.328.768.256 1.621-.427 2.56-2.048.853-1.707 1.365-3.371 1.536-4.992s-.086-2.731-.768-3.328zM741.4.085c-.683.512-.939 1.579-.768 3.2s.725 3.285 1.664 4.992c.853 1.621 1.664 2.304 2.432 2.048.682-.597.938-1.707.768-3.328s-.683-3.243-1.536-4.864c-.939-1.707-1.792-2.389-2.56-2.048z"/><use xlink:href="#D" x="616.791" y="9.402"/><use xlink:href="#D" x="628.006"/><use xlink:href="#D" x="628.006" y="9.402"/><use xlink:href="#E" x="616.793"/><use xlink:href="#E" x="616.793" y="9.402"/><use xlink:href="#E" x="628.008"/><use xlink:href="#E" x="628.008" y="9.402"/><use xlink:href="#C" x="774.222" y="-9.402"/><use xlink:href="#C" x="774.222"/><use xlink:href="#C" x="785.437" y="-9.402"/><use xlink:href="#C" x="785.437"/><use xlink:href="#D" x="684.078"/><use xlink:href="#D" x="684.078" y="9.402"/><use xlink:href="#D" x="695.293"/><use xlink:href="#D" x="695.293" y="9.402"/><use xlink:href="#D" x="706.508"/><use xlink:href="#D" x="706.508" y="9.402"/><use xlink:href="#E" x="695.293"/><use xlink:href="#E" x="695.293" y="9.402"/><use xlink:href="#E" x="706.508"/><use xlink:href="#E" x="706.508" y="9.402"/><use xlink:href="#C" x="852.724" y="-9.402"/><use xlink:href="#C" x="852.724"/><use xlink:href="#C" x="863.939" y="-9.402"/><use xlink:href="#C" x="863.939"/><use xlink:href="#D" x="762.578"/><use xlink:href="#D" x="762.578" y="9.402"/><use xlink:href="#D" x="773.793"/><use xlink:href="#D" x="773.793" y="9.402"/><use xlink:href="#D" x="785.008"/><use xlink:href="#D" x="785.008" y="9.402"/><use xlink:href="#E" x="773.795"/><use xlink:href="#E" x="773.795" y="9.402"/><use xlink:href="#E" x="785.01"/><use xlink:href="#E" x="785.01" y="9.402"/><use xlink:href="#C" x="931.224" y="-9.402"/><use xlink:href="#C" x="931.224"/><use xlink:href="#F"/><use xlink:href="#C" x="10.785" y="526"/><use xlink:href="#F" x="0.429"/><use xlink:href="#C" x="11.214" y="526"/><use xlink:href="#F" x="11.644"/><use xlink:href="#C" x="22.429" y="526"/><use xlink:href="#F" x="22.857"/><use xlink:href="#C" x="33.642" y="526"/><use xlink:href="#F" x="34.072"/><use xlink:href="#C" x="44.857" y="526"/><use xlink:href="#F" x="45.287"/><use xlink:href="#C" x="56.072" y="526"/><use xlink:href="#F" x="56.502"/><use xlink:href="#C" x="67.287" y="526"/><use xlink:href="#F" x="67.715"/><use xlink:href="#C" x="78.5" y="526"/><use xlink:href="#G"/><use xlink:href="#E" x="-45.287" y="535.402"/><use xlink:href="#G" x="11.215"/><use xlink:href="#E" x="-34.072" y="535.402"/><use xlink:href="#F" x="101.359"/><use xlink:href="#C" x="112.144" y="526"/><use xlink:href="#F" x="112.574"/><use xlink:href="#C" x="123.359" y="526"/><use xlink:href="#H"/><use xlink:href="#D" x="21.998" y="535.402"/><use xlink:href="#H" x="11.215"/><use xlink:href="#D" x="33.213" y="535.402"/><use xlink:href="#G" x="67.287"/><use xlink:href="#E" x="22" y="535.402"/><use xlink:href="#G" x="78.502"/><use xlink:href="#E" x="33.215" y="535.402"/><use xlink:href="#G" x="89.715"/><use xlink:href="#E" x="44.428" y="535.402"/><use xlink:href="#F" x="179.859"/><use xlink:href="#C" x="190.644" y="526"/><use xlink:href="#F" x="191.074"/><use xlink:href="#C" x="201.859" y="526"/><use xlink:href="#H" x="78.502"/><use xlink:href="#D" x="100.5" y="535.402"/><use xlink:href="#H" x="89.715"/><use xlink:href="#D" x="111.713" y="535.402"/><use xlink:href="#G" x="145.787"/><use xlink:href="#E" x="100.5" y="535.402"/><use xlink:href="#G" x="157.002"/><use xlink:href="#E" x="111.715" y="535.402"/><use xlink:href="#F" x="247.146"/><use xlink:href="#C" x="257.931" y="526"/><use xlink:href="#F" x="258.361"/><use xlink:href="#C" x="269.146" y="526"/><use xlink:href="#F" x="269.574"/><use xlink:href="#C" x="280.359" y="526"/><use xlink:href="#H" x="157.002"/><use xlink:href="#D" x="179" y="535.402"/><use xlink:href="#H" x="168.217"/><use xlink:href="#D" x="190.215" y="535.402"/><use xlink:href="#G" x="224.289"/><use xlink:href="#E" x="179.002" y="535.402"/><use xlink:href="#G" x="235.502"/><use xlink:href="#E" x="190.215" y="535.402"/><use xlink:href="#F" x="325.646"/><use xlink:href="#C" x="336.431" y="526"/><use xlink:href="#F" x="336.861"/><use xlink:href="#C" x="347.646" y="526"/><use xlink:href="#H" x="224.289"/><use xlink:href="#D" x="246.287" y="535.402"/><use xlink:href="#H" x="235.502"/><use xlink:href="#D" x="257.5" y="535.402"/><use xlink:href="#H" x="246.717"/><use xlink:href="#D" x="268.715" y="535.402"/><use xlink:href="#G" x="302.789"/><use xlink:href="#E" x="257.502" y="535.402"/><use xlink:href="#G" x="314.004"/><use xlink:href="#E" x="268.717" y="535.402"/><use xlink:href="#F" x="404.148"/><use xlink:href="#C" x="414.933" y="526"/><use xlink:href="#F" x="415.361"/><use xlink:href="#C" x="426.146" y="526"/><use xlink:href="#H" x="302.789"/><use xlink:href="#D" x="324.787" y="535.402"/><use xlink:href="#H" x="314.004"/><use xlink:href="#D" x="336.002" y="535.402"/><use xlink:href="#H" x="325.219"/><use xlink:href="#D" x="347.217" y="535.402"/><use xlink:href="#G" x="381.289"/><use xlink:href="#E" x="336.002" y="535.402"/><use xlink:href="#G" x="392.504"/><use xlink:href="#E" x="347.217" y="535.402"/><use xlink:href="#F" x="482.648"/><use xlink:href="#C" x="493.433" y="526"/><use xlink:href="#F" x="493.863"/><use xlink:href="#C" x="504.648" y="526"/><use xlink:href="#H" x="381.289"/><use xlink:href="#D" x="403.287" y="535.402"/><use xlink:href="#H" x="392.504"/><use xlink:href="#D" x="414.502" y="535.402"/><use xlink:href="#H" x="403.719"/><use xlink:href="#D" x="425.717" y="535.402"/><use xlink:href="#G" x="459.791"/><use xlink:href="#E" x="414.504" y="535.402"/><use xlink:href="#G" x="471.006"/><use xlink:href="#E" x="425.719" y="535.402"/><use xlink:href="#F" x="561.148"/><use xlink:href="#C" x="571.933" y="526"/><use xlink:href="#F" x="572.363"/><use xlink:href="#C" x="583.148" y="526"/><use xlink:href="#H" x="459.791"/><use xlink:href="#D" x="481.789" y="535.402"/><use xlink:href="#H" x="471.006"/><use xlink:href="#D" x="493.004" y="535.402"/><use xlink:href="#H" x="482.219"/><use xlink:href="#D" x="504.217" y="535.402"/><use xlink:href="#G" x="538.291"/><use xlink:href="#E" x="493.004" y="535.402"/><use xlink:href="#G" x="549.506"/><use xlink:href="#E" x="504.219" y="535.402"/><use xlink:href="#F" x="639.65"/><use xlink:href="#C" x="650.435" y="526"/><use xlink:href="#F" x="650.865"/><use xlink:href="#C" x="661.65" y="526"/><use xlink:href="#H" x="538.291"/><use xlink:href="#D" x="560.289" y="535.402"/><use xlink:href="#H" x="549.506"/><use xlink:href="#D" x="571.504" y="535.402"/><use xlink:href="#G" x="605.578"/><use xlink:href="#E" x="560.291" y="535.402"/><use xlink:href="#G" x="616.793"/><use xlink:href="#E" x="571.506" y="535.402"/><use xlink:href="#G" x="628.006"/><use xlink:href="#E" x="582.719" y="535.402"/><use xlink:href="#F" x="718.15"/><use xlink:href="#C" x="728.935" y="526"/><use xlink:href="#F" x="729.365"/><use xlink:href="#C" x="740.15" y="526"/><use xlink:href="#H" x="616.793"/><use xlink:href="#D" x="638.791" y="535.402"/><use xlink:href="#H" x="628.008"/><use xlink:href="#D" x="650.006" y="535.402"/><use xlink:href="#G" x="684.078"/><use xlink:href="#E" x="638.791" y="535.402"/><use xlink:href="#G" x="695.293"/><use xlink:href="#E" x="650.006" y="535.402"/><use xlink:href="#F" x="785.437"/><use xlink:href="#C" x="796.222" y="526"/><use xlink:href="#F" x="796.652"/><use xlink:href="#C" x="807.437" y="526"/><use xlink:href="#H" x="684.08"/><use xlink:href="#D" x="706.078" y="535.402"/><use xlink:href="#H" x="695.293"/><use xlink:href="#D" x="717.291" y="535.402"/><use xlink:href="#H" x="706.508"/><use xlink:href="#D" x="728.506" y="535.402"/><use xlink:href="#G" x="762.58"/><use xlink:href="#E" x="717.293" y="535.402"/><use xlink:href="#G" x="773.795"/><use xlink:href="#E" x="728.508" y="535.402"/><use xlink:href="#F" x="863.937"/><use xlink:href="#C" x="874.722" y="526"/><use xlink:href="#F" x="875.152"/><use xlink:href="#C" x="885.937" y="526"/><use xlink:href="#H" x="762.58"/><use xlink:href="#D" x="784.578" y="535.402"/><use xlink:href="#H" x="773.795"/><use xlink:href="#D" x="795.793" y="535.402"/><use xlink:href="#H" x="785.01"/><use xlink:href="#D" x="807.008" y="535.402"/><use xlink:href="#G" x="841.08"/><use xlink:href="#E" x="795.793" y="535.402"/><use xlink:href="#B"/><use xlink:href="#C"/><use xlink:href="#C" y="9.402"/><use xlink:href="#C" y="18.803"/><use xlink:href="#C" y="28.205"/><use xlink:href="#C" y="37.607"/><use xlink:href="#C" y="47.008"/><use xlink:href="#C" y="56.41"/><use xlink:href="#C" y="65.812"/><use xlink:href="#C" y="75.213"/><use xlink:href="#C" y="84.615"/><use xlink:href="#I"/><use xlink:href="#F" x="-10.785" y="-413.18"/><use xlink:href="#F" x="-10.785" y="-403.778"/><use xlink:href="#C" y="122.222"/><use xlink:href="#I" y="37.607"/><use xlink:href="#F" x="-10.785" y="-375.573"/><use xlink:href="#C" y="150.427"/><use xlink:href="#C" y="159.829"/><use xlink:href="#I" y="75.214"/><use xlink:href="#F" x="-10.785" y="-337.966"/><use xlink:href="#C" y="188.034"/><use xlink:href="#I" y="103.419"/><use xlink:href="#I" y="112.821"/><use xlink:href="#F" x="-10.785" y="-300.359"/><use xlink:href="#C" y="225.641"/><use xlink:href="#I" y="141.026"/><use xlink:href="#F" x="-10.785" y="-272.154"/><use xlink:href="#F" x="-10.785" y="-262.752"/><use xlink:href="#C" y="263.248"/><use xlink:href="#I" y="178.633"/><use xlink:href="#F" x="-10.785" y="-234.547"/><use xlink:href="#C" y="291.453"/><use xlink:href="#C" y="300.855"/><use xlink:href="#I" y="216.24"/><use xlink:href="#F" x="-10.785" y="-196.94"/><use xlink:href="#C" y="329.06"/><use xlink:href="#I" y="244.445"/><use xlink:href="#I" y="253.847"/><use xlink:href="#F" x="-10.785" y="-159.333"/><use xlink:href="#C" y="366.667"/><use xlink:href="#I" y="282.052"/><use xlink:href="#I" y="291.454"/><use xlink:href="#F" x="-10.785" y="-121.726"/><use xlink:href="#C" y="404.274"/><use xlink:href="#I" y="319.659"/><use xlink:href="#F" x="-10.785" y="-93.521"/><use xlink:href="#F" x="-10.785" y="-84.119"/><use xlink:href="#C" y="441.881"/><use xlink:href="#I" y="357.266"/><use xlink:href="#F" x="-10.785" y="-55.914"/><use xlink:href="#C" y="470.086"/><use xlink:href="#C" y="479.488"/><use xlink:href="#I" y="394.873"/><use xlink:href="#F" x="-10.785" y="-18.307"/><use xlink:href="#C" y="507.693"/><use xlink:href="#I" y="423.078"/><path d="M20.611 536.88c-.768-.257-1.579.469-2.432 2.175-.853 1.622-1.365 3.243-1.536 4.864-.256 1.622-.043 2.731.64 3.328.768.256 1.621-.426 2.56-2.047.853-1.707 1.365-3.371 1.536-4.993s-.085-2.73-.768-3.327zm-8.576-.897c-.683.512-.939 1.579-.768 3.2s.725 3.286 1.664 4.992c.853 1.622 1.664 2.304 2.432 2.048.683-.597.939-1.706.768-3.328s-.683-3.242-1.536-4.864c-.939-1.706-1.792-2.389-2.56-2.048zM9.396.981c-.768-.256-1.579.469-2.432 2.176C6.11 4.779 5.598 6.4 5.428 8.021c-.256 1.621-.043 2.731.64 3.328.768.256 1.621-.427 2.56-2.048.853-1.707 1.365-3.371 1.536-4.992s-.085-2.731-.768-3.328zM.82.085c-.683.512-.939 1.579-.768 3.2S.777 6.57 1.716 8.277c.853 1.621 1.664 2.304 2.432 2.048.683-.597.939-1.707.768-3.328S4.233 3.755 3.38 2.133C2.441.427 1.588-.256.82.085zm8.576 10.298c-.768-.256-1.579.469-2.432 2.176-.853 1.621-1.365 3.243-1.536 4.864-.256 1.621-.043 2.731.64 3.328.768.256 1.621-.427 2.56-2.048.853-1.707 1.365-3.371 1.536-4.992s-.085-2.731-.768-3.328zM.82 9.487c-.683.512-.939 1.579-.768 3.2s.725 3.285 1.664 4.992c.853 1.621 1.664 2.304 2.432 2.048.683-.597.939-1.707.768-3.328s-.683-3.243-1.536-4.864C2.441 9.828 1.588 9.146.82 9.487zm8.576 10.298c-.768-.256-1.579.469-2.432 2.176-.853 1.621-1.365 3.243-1.536 4.864-.256 1.621-.043 2.731.64 3.328.768.256 1.621-.427 2.56-2.048.853-1.707 1.365-3.371 1.536-4.992s-.085-2.731-.768-3.328zM.82 18.889c-.683.512-.939 1.579-.768 3.2s.725 3.285 1.664 4.992c.853 1.621 1.664 2.304 2.432 2.048.683-.597.939-1.707.768-3.328s-.683-3.243-1.536-4.864c-.939-1.707-1.792-2.389-2.56-2.048zm8.576 10.297c-.768-.256-1.579.469-2.432 2.176-.853 1.621-1.365 3.243-1.536 4.864-.256 1.621-.043 2.731.64 3.328.768.256 1.621-.427 2.56-2.048.853-1.707 1.365-3.371 1.536-4.992s-.085-2.731-.768-3.328zM.82 28.29c-.683.512-.939 1.579-.768 3.2s.725 3.285 1.664 4.992c.853 1.621 1.664 2.304 2.432 2.048.683-.597.939-1.707.768-3.328s-.683-3.243-1.536-4.864c-.939-1.707-1.792-2.389-2.56-2.048zm8.576 10.298c-.768-.256-1.579.469-2.432 2.176-.853 1.621-1.365 3.243-1.536 4.864-.256 1.621-.043 2.731.64 3.328.768.256 1.621-.427 2.56-2.048.853-1.707 1.365-3.371 1.536-4.992s-.085-2.731-.768-3.328zM.82 37.692c-.683.512-.939 1.579-.768 3.2s.725 3.285 1.664 4.992c.853 1.621 1.664 2.304 2.432 2.048.683-.597.939-1.707.768-3.328s-.683-3.243-1.536-4.864c-.939-1.707-1.792-2.389-2.56-2.048zM9.396 47.99c-.768-.256-1.579.469-2.432 2.176-.853 1.621-1.365 3.243-1.536 4.864-.256 1.621-.043 2.731.64 3.328.768.256 1.621-.427 2.56-2.048.853-1.707 1.365-3.371 1.536-4.992s-.085-2.731-.768-3.328zM.82 47.094c-.683.512-.939 1.579-.768 3.2s.725 3.285 1.664 4.992c.853 1.621 1.664 2.304 2.432 2.048.683-.597.939-1.707.768-3.328s-.683-3.243-1.536-4.864c-.939-1.707-1.792-2.389-2.56-2.048zm8.576 10.297c-.768-.256-1.579.469-2.432 2.176-.853 1.621-1.365 3.243-1.536 4.864-.256 1.621-.043 2.731.64 3.328.768.256 1.621-.427 2.56-2.048.853-1.707 1.365-3.371 1.536-4.992s-.085-2.731-.768-3.328zM.82 56.495c-.683.512-.939 1.579-.768 3.2s.725 3.285 1.664 4.992c.853 1.621 1.664 2.304 2.432 2.048.683-.597.939-1.707.768-3.328s-.683-3.243-1.536-4.864c-.939-1.707-1.792-2.389-2.56-2.048zm8.576 10.298c-.768-.256-1.579.469-2.432 2.176-.853 1.621-1.365 3.243-1.536 4.864-.256 1.621-.043 2.731.64 3.328.768.256 1.621-.427 2.56-2.048.853-1.707 1.365-3.371 1.536-4.992s-.085-2.731-.768-3.328zM.82 65.897c-.683.512-.939 1.579-.768 3.2s.725 3.285 1.664 4.992c.853 1.621 1.664 2.304 2.432 2.048.683-.597.939-1.707.768-3.328s-.683-3.243-1.536-4.864c-.939-1.707-1.792-2.389-2.56-2.048zm8.576 10.298c-.768-.256-1.579.469-2.432 2.176-.853 1.621-1.365 3.243-1.536 4.864-.256 1.621-.043 2.731.64 3.328.768.256 1.621-.427 2.56-2.048.853-1.707 1.365-3.371 1.536-4.992s-.085-2.731-.768-3.328zM.82 75.299c-.683.512-.939 1.579-.768 3.2s.725 3.285 1.664 4.992c.853 1.621 1.664 2.304 2.432 2.048.683-.597.939-1.707.768-3.328s-.683-3.243-1.536-4.864c-.939-1.707-1.792-2.389-2.56-2.048zm8.576 10.297c-.768-.256-1.579.469-2.432 2.176-.853 1.621-1.365 3.243-1.536 4.864-.256 1.621-.043 2.731.64 3.328.768.256 1.621-.427 2.56-2.048.853-1.707 1.365-3.371 1.536-4.992s-.085-2.731-.768-3.328zM.82 84.7c-.683.512-.939 1.579-.768 3.2s.725 3.285 1.664 4.992c.853 1.621 1.664 2.304 2.432 2.048.683-.597.939-1.707.768-3.328s-.683-3.243-1.536-4.864C2.441 85.042 1.588 84.359.82 84.7zm8.576 10.298c-.768-.256-1.579.469-2.432 2.176-.853 1.621-1.365 3.243-1.536 4.864-.256 1.621-.043 2.731.64 3.328.768.256 1.621-.427 2.56-2.048.853-1.707 1.365-3.371 1.536-4.992s-.085-2.731-.768-3.328zM.82 94.102c-.683.512-.939 1.579-.768 3.2s.725 3.285 1.664 4.992c.853 1.621 1.664 2.304 2.432 2.048.683-.597.939-1.707.768-3.328s-.683-3.243-1.536-4.864c-.939-1.707-1.792-2.389-2.56-2.048z"/><use xlink:href="#I" x="-11.215"/><use xlink:href="#F" x="-22" y="-413.18"/><use xlink:href="#F" x="-22" y="-403.778"/><use xlink:href="#C" x="-11.215" y="122.222"/><use xlink:href="#I" x="-11.215" y="37.607"/><use xlink:href="#F" x="-22" y="-375.573"/><use xlink:href="#C" x="-11.215" y="150.427"/><use xlink:href="#C" x="-11.215" y="159.829"/><use xlink:href="#I" x="-11.215" y="75.214"/><use xlink:href="#F" x="-22" y="-337.966"/><use xlink:href="#C" x="-11.215" y="188.034"/><use xlink:href="#I" x="-11.215" y="103.419"/><use xlink:href="#I" x="-11.215" y="112.821"/><use xlink:href="#F" x="-22" y="-300.359"/><use xlink:href="#C" x="-11.215" y="225.641"/><path d="M9.396 245.426c-.768-.256-1.579.469-2.432 2.176-.853 1.621-1.365 3.242-1.536 4.864-.256 1.621-.043 2.73.64 3.328.768.256 1.621-.427 2.56-2.048.853-1.707 1.365-3.371 1.536-4.992s-.085-2.731-.768-3.328zM.82 244.53c-.683.512-.939 1.578-.768 3.2s.725 3.285 1.664 4.992c.853 1.621 1.664 2.304 2.432 2.048.683-.598.939-1.707.768-3.328s-.683-3.243-1.536-4.864c-.939-1.707-1.792-2.39-2.56-2.048z"/><use xlink:href="#F" x="-22" y="-272.154"/><use xlink:href="#F" x="-22" y="-262.752"/><use xlink:href="#C" x="-11.215" y="263.248"/><use xlink:href="#I" x="-11.215" y="178.633"/><use xlink:href="#F" x="-22" y="-234.547"/><path d="M9.396 301.836c-.768-.256-1.579.469-2.432 2.176-.853 1.621-1.365 3.243-1.536 4.864-.256 1.621-.043 2.731.64 3.328.768.256 1.621-.427 2.56-2.048.853-1.707 1.365-3.371 1.536-4.992s-.085-2.731-.768-3.328zM.82 300.94c-.683.512-.939 1.579-.768 3.2s.725 3.285 1.664 4.992c.853 1.621 1.664 2.304 2.432 2.048.683-.597.939-1.707.768-3.328s-.683-3.243-1.536-4.864c-.939-1.707-1.792-2.389-2.56-2.048z"/><use xlink:href="#C" x="-11.215" y="300.855"/><use xlink:href="#I" x="-11.215" y="216.24"/><use xlink:href="#F" x="-22" y="-196.94"/><use xlink:href="#C" x="-11.215" y="329.06"/><use xlink:href="#I" x="-11.215" y="244.445"/><use xlink:href="#I" x="-11.215" y="253.847"/><use xlink:href="#F" x="-22" y="-159.333"/><use xlink:href="#C" x="-11.215" y="366.667"/><use xlink:href="#I" x="-11.215" y="282.052"/><use xlink:href="#I" x="-11.215" y="291.454"/><use xlink:href="#F" x="-22" y="-121.726"/><use xlink:href="#C" x="-11.215" y="404.274"/><use xlink:href="#I" x="-11.215" y="319.659"/><use xlink:href="#F" x="-22" y="-93.521"/><use xlink:href="#F" x="-22" y="-84.119"/><use xlink:href="#C" x="-11.215" y="441.881"/><path d="M9.396 461.666c-.768-.256-1.579.469-2.432 2.176-.853 1.621-1.365 3.242-1.536 4.864-.256 1.621-.043 2.73.64 3.328.768.256 1.621-.427 2.56-2.048.853-1.707 1.365-3.371 1.536-4.992s-.085-2.731-.768-3.328zM.82 460.77c-.683.512-.939 1.578-.768 3.2s.725 3.285 1.664 4.992c.853 1.621 1.664 2.304 2.432 2.048.683-.598.939-1.707.768-3.328s-.683-3.243-1.536-4.864c-.939-1.707-1.792-2.39-2.56-2.048z"/><use xlink:href="#F" x="-22" y="-55.914"/><use xlink:href="#C" x="-11.215" y="470.086"/><use xlink:href="#C" x="-11.215" y="479.488"/><use xlink:href="#I" x="-11.215" y="394.873"/><use xlink:href="#F" x="-22" y="-18.307"/><path d="M9.396 518.076c-.768-.256-1.579.469-2.432 2.176-.853 1.621-1.365 3.243-1.536 4.864-.256 1.621-.043 2.731.64 3.328.768.256 1.621-.427 2.56-2.048.853-1.707 1.365-3.371 1.536-4.992s-.085-2.731-.768-3.328zM.82 517.18c-.683.512-.939 1.579-.768 3.2s.725 3.285 1.664 4.992c.853 1.621 1.664 2.304 2.432 2.048.683-.597.939-1.707.768-3.328s-.683-3.243-1.536-4.864c-.939-1.707-1.792-2.389-2.56-2.048z"/><use xlink:href="#I" x="-11.215" y="423.078"/><use xlink:href="#I" x="-11.215" y="432.48"/><use xlink:href="#E" x="816.998"/><use xlink:href="#E" x="816.998" y="9.402"/><use xlink:href="#E" x="816.998" y="18.804"/><use xlink:href="#E" x="816.998" y="28.205"/><use xlink:href="#E" x="816.998" y="37.607"/><use xlink:href="#E" x="816.998" y="47.009"/><use xlink:href="#E" x="816.998" y="56.41"/><use xlink:href="#E" x="816.998" y="65.812"/><use xlink:href="#E" x="816.998" y="75.214"/><use xlink:href="#E" x="816.998" y="84.615"/><use xlink:href="#E" x="816.998" y="94.017"/><use xlink:href="#J"/><use xlink:href="#G" x="862.285" y="-413.18"/><use xlink:href="#G" x="862.285" y="-403.778"/><use xlink:href="#E" x="816.998" y="131.624"/><use xlink:href="#J" y="37.607"/><use xlink:href="#G" x="862.285" y="-375.573"/><use xlink:href="#E" x="816.998" y="159.829"/><use xlink:href="#E" x="816.998" y="169.231"/><use xlink:href="#J" y="75.214"/><use xlink:href="#G" x="862.285" y="-337.966"/><use xlink:href="#E" x="816.998" y="197.436"/><use xlink:href="#J" y="103.419"/><use xlink:href="#J" y="112.821"/><use xlink:href="#G" x="862.285" y="-300.359"/><use xlink:href="#E" x="816.998" y="235.043"/><use xlink:href="#J" y="141.026"/><use xlink:href="#G" x="862.285" y="-272.154"/><use xlink:href="#G" x="862.285" y="-262.752"/><use xlink:href="#E" x="816.998" y="272.65"/><use xlink:href="#J" y="178.633"/><use xlink:href="#G" x="862.285" y="-234.547"/><use xlink:href="#E" x="816.998" y="300.855"/><use xlink:href="#E" x="816.998" y="310.257"/><use xlink:href="#J" y="216.24"/><use xlink:href="#G" x="862.285" y="-196.94"/><use xlink:href="#E" x="816.998" y="338.462"/><use xlink:href="#J" y="244.445"/><use xlink:href="#J" y="253.847"/><use xlink:href="#G" x="862.285" y="-159.333"/><use xlink:href="#E" x="816.998" y="376.069"/><use xlink:href="#J" y="282.052"/><use xlink:href="#J" y="291.454"/><use xlink:href="#G" x="862.285" y="-121.726"/><use xlink:href="#E" x="816.998" y="413.676"/><use xlink:href="#J" y="319.659"/><use xlink:href="#G" x="862.285" y="-93.521"/><use xlink:href="#G" x="862.285" y="-84.119"/><use xlink:href="#E" x="816.998" y="451.283"/><use xlink:href="#J" y="357.266"/><use xlink:href="#G" x="862.285" y="-55.914"/><use xlink:href="#E" x="816.998" y="479.488"/><use xlink:href="#E" x="816.998" y="488.89"/><use xlink:href="#J" y="394.873"/><use xlink:href="#G" x="862.285" y="-18.307"/><use xlink:href="#E" x="816.998" y="517.095"/><use xlink:href="#J" y="423.078"/><path d="M972.61 536.88c-.768-.257-1.578.469-2.432 2.175-.853 1.622-1.365 3.243-1.536 4.864-.256 1.622-.042 2.731.64 3.328.768.256 1.622-.426 2.56-2.047.854-1.707 1.366-3.371 1.536-4.993s-.085-2.73-.768-3.327zm-8.576-.897c-.682.512-.938 1.579-.768 3.2s.726 3.286 1.664 4.992c.854 1.622 1.664 2.304 2.432 2.048.683-.597.939-1.706.768-3.328s-.682-3.242-1.536-4.864c-.938-1.706-1.792-2.389-2.56-2.048zM961.396.981c-.768-.256-1.579.469-2.432 2.176-.854 1.621-1.366 3.243-1.536 4.864-.256 1.621-.043 2.731.64 3.328.768.256 1.621-.427 2.56-2.048.853-1.707 1.365-3.371 1.536-4.992s-.086-2.731-.768-3.328zM952.82.085c-.683.512-.939 1.579-.768 3.2s.725 3.285 1.664 4.992c.853 1.621 1.664 2.304 2.432 2.048.682-.597.938-1.707.768-3.328s-.683-3.243-1.536-4.864c-.939-1.707-1.792-2.389-2.56-2.048z"/><use xlink:href="#D" x="828.211" y="9.402"/><use xlink:href="#D" x="828.211" y="18.804"/><use xlink:href="#D" x="828.211" y="28.205"/><use xlink:href="#D" x="828.211" y="37.607"/><use xlink:href="#D" x="828.211" y="47.009"/><use xlink:href="#D" x="828.211" y="56.41"/><use xlink:href="#D" x="828.211" y="65.812"/><use xlink:href="#D" x="828.211" y="75.214"/><use xlink:href="#D" x="828.211" y="84.615"/><use xlink:href="#D" x="828.211" y="94.017"/><use xlink:href="#K"/><use xlink:href="#H" x="806.213" y="-413.18"/><use xlink:href="#H" x="806.213" y="-403.778"/><use xlink:href="#D" x="828.211" y="131.624"/><use xlink:href="#K" y="37.607"/><use xlink:href="#H" x="806.213" y="-375.573"/><use xlink:href="#D" x="828.211" y="159.829"/><use xlink:href="#D" x="828.211" y="169.231"/><use xlink:href="#K" y="75.214"/><use xlink:href="#H" x="806.213" y="-337.966"/><use xlink:href="#D" x="828.211" y="197.436"/><use xlink:href="#K" y="103.419"/><use xlink:href="#K" y="112.821"/><use xlink:href="#H" x="806.213" y="-300.359"/><use xlink:href="#D" x="828.211" y="235.043"/><use xlink:href="#K" y="141.026"/><use xlink:href="#H" x="806.213" y="-272.154"/><use xlink:href="#H" x="806.213" y="-262.752"/><use xlink:href="#D" x="828.211" y="272.65"/><use xlink:href="#K" y="178.633"/><use xlink:href="#H" x="806.213" y="-234.547"/><use xlink:href="#D" x="828.211" y="300.855"/><use xlink:href="#D" x="828.211" y="310.257"/><use xlink:href="#K" y="216.24"/><use xlink:href="#H" x="806.213" y="-196.94"/><use xlink:href="#D" x="828.211" y="338.462"/><use xlink:href="#K" y="244.445"/><use xlink:href="#K" y="253.847"/><use xlink:href="#H" x="806.213" y="-159.333"/><use xlink:href="#D" x="828.211" y="376.069"/><use xlink:href="#K" y="282.052"/><use xlink:href="#K" y="291.454"/><use xlink:href="#H" x="806.213" y="-121.726"/><use xlink:href="#D" x="828.211" y="413.676"/><use xlink:href="#K" y="319.659"/><use xlink:href="#H" x="806.213" y="-93.521"/><use xlink:href="#H" x="806.213" y="-84.119"/><use xlink:href="#D" x="828.211" y="451.283"/><use xlink:href="#K" y="357.266"/><use xlink:href="#H" x="806.213" y="-55.914"/><use xlink:href="#D" x="828.211" y="479.488"/><use xlink:href="#D" x="828.211" y="488.89"/><use xlink:href="#K" y="394.873"/><use xlink:href="#H" x="806.213" y="-18.307"/><use xlink:href="#D" x="828.211" y="517.095"/><use xlink:href="#K" y="423.078"/><use xlink:href="#K" y="432.48"/></g><defs ><path id="B" d="M20.611.981c-.768-.256-1.579.469-2.432 2.176-.853 1.621-1.365 3.243-1.536 4.864-.256 1.621-.043 2.731.64 3.328.768.256 1.621-.427 2.56-2.048.853-1.707 1.365-3.371 1.536-4.992s-.085-2.731-.768-3.328zM12.035.085c-.683.512-.939 1.579-.768 3.2s.725 3.285 1.664 4.992c.853 1.621 1.664 2.304 2.432 2.048.683-.597.939-1.707.768-3.328s-.683-3.243-1.536-4.864C13.656.427 12.803-.256 12.035.085z"/><path id="C" d="M20.611 10.383c-.768-.256-1.579.469-2.432 2.176-.853 1.621-1.365 3.243-1.536 4.864-.256 1.621-.043 2.731.64 3.328.768.256 1.621-.427 2.56-2.048.853-1.707 1.365-3.371 1.536-4.992s-.085-2.731-.768-3.328zm-8.576-.896c-.683.512-.939 1.579-.768 3.2s.725 3.285 1.664 4.992c.853 1.621 1.664 2.304 2.432 2.048.683-.597.939-1.707.768-3.328s-.683-3.243-1.536-4.864c-.939-1.707-1.792-2.389-2.56-2.048z"/><path id="D" d="M133.185.981c-.768-.256-1.579.469-2.432 2.176-.854 1.621-1.366 3.243-1.536 4.864-.256 1.621-.043 2.731.64 3.328.768.256 1.621-.427 2.56-2.048.853-1.707 1.365-3.371 1.536-4.992s-.086-2.731-.768-3.328zm-8.576-.896c-.683.512-.939 1.579-.768 3.2s.725 3.285 1.664 4.992c.853 1.621 1.664 2.304 2.432 2.048.682-.597.938-1.707.768-3.328s-.683-3.243-1.536-4.864c-.939-1.707-1.792-2.389-2.56-2.048z"/><path id="E" d="M155.612.981c-.768-.256-1.578.469-2.432 2.176-.853 1.621-1.365 3.243-1.536 4.864-.256 1.621-.042 2.731.64 3.328.768.256 1.622-.427 2.56-2.048.854-1.707 1.366-3.371 1.536-4.992s-.085-2.731-.768-3.328zm-8.576-.896c-.682.512-.938 1.579-.768 3.2s.726 3.285 1.664 4.992c.854 1.621 1.664 2.304 2.432 2.048.683-.597.939-1.707.768-3.328s-.682-3.243-1.536-4.864c-.938-1.707-1.792-2.389-2.56-2.048z"/><path id="F" d="M31.396 526.981c-.768-.256-1.579.47-2.432 2.176-.853 1.622-1.365 3.243-1.536 4.864-.256 1.622-.043 2.731.64 3.328.768.256 1.621-.426 2.56-2.048.853-1.706 1.365-3.37 1.536-4.992s-.085-2.73-.768-3.328zm-8.576-.896c-.683.512-.939 1.579-.768 3.2s.725 3.286 1.664 4.992c.853 1.622 1.664 2.304 2.432 2.048.683-.597.939-1.706.768-3.328s-.683-3.242-1.536-4.864c-.939-1.706-1.792-2.389-2.56-2.048z"/><path id="G" d="M110.325 526.981c-.768-.256-1.578.47-2.432 2.176-.853 1.622-1.365 3.243-1.536 4.864-.256 1.622-.042 2.731.64 3.328.768.256 1.622-.426 2.56-2.048.854-1.706 1.366-3.37 1.536-4.992s-.085-2.73-.768-3.328zm-8.576-.896c-.682.512-.938 1.579-.768 3.2s.726 3.286 1.664 4.992c.854 1.622 1.664 2.304 2.432 2.048.683-.597.939-1.706.768-3.328s-.682-3.242-1.536-4.864c-.938-1.706-1.792-2.389-2.56-2.048z"/><path id="H" d="M155.183 526.981c-.768-.256-1.579.47-2.432 2.176-.854 1.622-1.366 3.243-1.536 4.864-.256 1.622-.043 2.731.64 3.328.768.256 1.621-.426 2.56-2.048.853-1.706 1.365-3.37 1.536-4.992s-.086-2.73-.768-3.328zm-8.576-.896c-.683.512-.939 1.579-.768 3.2s.725 3.286 1.664 4.992c.853 1.622 1.664 2.304 2.432 2.048.682-.597.938-1.706.768-3.328s-.683-3.242-1.536-4.864c-.939-1.706-1.792-2.389-2.56-2.048z"/><path id="I" d="M20.611 104.4c-.768-.256-1.579.469-2.432 2.176-.853 1.621-1.365 3.242-1.536 4.864-.256 1.621-.043 2.73.64 3.328.768.256 1.621-.427 2.56-2.048.853-1.707 1.365-3.371 1.536-4.992s-.085-2.731-.768-3.328zm-8.576-.896c-.683.512-.939 1.578-.768 3.2s.725 3.285 1.664 4.992c.853 1.621 1.664 2.304 2.432 2.048.683-.598.939-1.707.768-3.328s-.683-3.243-1.536-4.864c-.939-1.707-1.792-2.39-2.56-2.048z"/><path id="J" d="M972.61 104.4c-.768-.256-1.578.469-2.432 2.176-.853 1.621-1.365 3.242-1.536 4.864-.256 1.621-.042 2.73.64 3.328.768.256 1.622-.427 2.56-2.048.854-1.707 1.366-3.371 1.536-4.992s-.085-2.731-.768-3.328zm-8.576-.896c-.682.512-.938 1.578-.768 3.2s.726 3.285 1.664 4.992c.854 1.621 1.664 2.304 2.432 2.048.683-.598.939-1.707.768-3.328s-.682-3.243-1.536-4.864c-.938-1.707-1.792-2.39-2.56-2.048z"/><path id="K" d="M961.396 104.4c-.768-.256-1.579.469-2.432 2.176-.854 1.621-1.366 3.242-1.536 4.864-.256 1.621-.043 2.73.64 3.328.768.256 1.621-.427 2.56-2.048.853-1.707 1.365-3.371 1.536-4.992s-.086-2.731-.768-3.328zm-8.576-.896c-.683.512-.939 1.578-.768 3.2s.725 3.285 1.664 4.992c.853 1.621 1.664 2.304 2.432 2.048.682-.598.938-1.707.768-3.328s-.683-3.243-1.536-4.864c-.939-1.707-1.792-2.39-2.56-2.048z"/></defs></svg>