<svg width="101" height="110" fill="none" xmlns="http://www.w3.org/2000/svg"><path d="M.665 67.047c.493-.164 1.014.302 1.562 1.398.548 1.04.876 2.082.986 3.123.164 1.042.027 1.754-.41 2.138-.494.164-1.042-.274-1.645-1.316-.548-1.096-.877-2.164-.986-3.206-.11-1.04.054-1.753.493-2.137zm5.507-.575c.439.329.603 1.014.494 2.055-.11 1.041-.466 2.11-1.069 3.206-.548 1.041-1.069 1.48-1.562 1.315-.438-.383-.603-1.096-.493-2.137.11-1.041.438-2.083.986-3.124.603-1.096 1.151-1.534 1.644-1.315z" fill="#FFDB00"/><path d="M7.866 61.01c.493-.165 1.014.3 1.562 1.397.548 1.04.877 2.082.986 3.123.165 1.042.028 1.754-.41 2.138-.494.164-1.042-.274-1.645-1.316-.548-1.096-.877-2.164-.986-3.206-.11-1.04.055-1.753.493-2.137zm5.508-.576c.438.329.602 1.014.493 2.055-.11 1.041-.466 2.11-1.069 3.206-.548 1.041-1.069 1.48-1.562 1.315-.438-.384-.603-1.096-.493-2.137.11-1.042.438-2.083.986-3.124.603-1.096 1.151-1.535 1.645-1.315zM7.866 67.047c.493-.164 1.014.302 1.562 1.398.548 1.04.877 2.082.986 3.123.165 1.042.028 1.754-.41 2.138-.494.164-1.042-.274-1.645-1.316-.548-1.096-.877-2.164-.986-3.206-.11-1.04.055-1.753.493-2.137zm5.508-.575c.438.329.602 1.014.493 2.055-.11 1.041-.466 2.11-1.069 3.206-.548 1.041-1.069 1.48-1.562 1.315-.438-.383-.603-1.096-.493-2.137.11-1.041.438-2.083.986-3.124.603-1.096 1.151-1.534 1.645-1.315zM7.866 73.085c.493-.164 1.014.302 1.562 1.398.548 1.04.877 2.082.986 3.123.165 1.041.028 1.754-.41 2.138-.494.164-1.042-.275-1.645-1.316-.548-1.096-.877-2.164-.986-3.206-.11-1.04.055-1.753.493-2.137zm5.508-.575c.438.328.602 1.013.493 2.055-.11 1.041-.466 2.11-1.069 3.206-.548 1.04-1.069 1.48-1.562 1.315-.438-.384-.603-1.096-.493-2.137.11-1.042.438-2.083.986-3.124.603-1.096 1.151-1.535 1.645-1.315zM15.07 48.934c.492-.165 1.013.3 1.56 1.397.549 1.041.878 2.082.987 3.124.165 1.04.028 1.753-.41 2.137-.494.164-1.042-.274-1.645-1.315-.548-1.096-.877-2.165-.986-3.206-.11-1.041.055-1.754.493-2.137zm5.507-.576c.438.329.602 1.014.493 2.055-.11 1.041-.466 2.11-1.069 3.206-.548 1.041-1.068 1.48-1.562 1.315-.438-.383-.602-1.096-.493-2.137.11-1.041.439-2.082.987-3.124.602-1.096 1.15-1.534 1.644-1.315zM15.07 61.01c.492-.165 1.013.3 1.56 1.397.549 1.04.878 2.082.987 3.123.165 1.042.028 1.754-.41 2.138-.494.164-1.042-.274-1.645-1.316-.548-1.096-.877-2.164-.986-3.206-.11-1.04.055-1.753.493-2.137zm5.507-.576c.438.329.602 1.014.493 2.055-.11 1.041-.466 2.11-1.069 3.206-.548 1.041-1.068 1.48-1.562 1.315-.438-.384-.602-1.096-.493-2.137.11-1.042.439-2.083.987-3.124.602-1.096 1.15-1.535 1.644-1.315zM15.07 67.047c.492-.164 1.013.302 1.56 1.398.549 1.04.878 2.082.987 3.123.165 1.042.028 1.754-.41 2.138-.494.164-1.042-.274-1.645-1.316-.548-1.096-.877-2.164-.986-3.206-.11-1.04.055-1.753.493-2.137zm5.507-.575c.438.329.602 1.014.493 2.055-.11 1.041-.466 2.11-1.069 3.206-.548 1.041-1.068 1.48-1.562 1.315-.438-.383-.602-1.096-.493-2.137.11-1.041.439-2.083.987-3.124.602-1.096 1.15-1.534 1.644-1.315zM15.07 73.085c.492-.164 1.013.302 1.56 1.398.549 1.04.878 2.082.987 3.123.165 1.041.028 1.754-.41 2.138-.494.164-1.042-.275-1.645-1.316-.548-1.096-.877-2.164-.986-3.206-.11-1.04.055-1.753.493-2.137zm5.507-.575c.438.328.602 1.013.493 2.055-.11 1.041-.466 2.11-1.069 3.206-.548 1.04-1.068 1.48-1.562 1.315-.438-.384-.602-1.096-.493-2.137.11-1.042.439-2.083.987-3.124.602-1.096 1.15-1.535 1.644-1.315zM22.27 36.858c.494-.165 1.014.3 1.562 1.397.548 1.041.877 2.082.987 3.124.164 1.041.027 1.753-.412 2.137-.493.164-1.04-.274-1.643-1.315-.549-1.096-.877-2.165-.987-3.206-.11-1.041.055-1.754.493-2.137zm5.508-.576c.438.329.603 1.014.493 2.055-.11 1.041-.466 2.11-1.069 3.206-.548 1.041-1.068 1.48-1.561 1.315-.439-.383-.603-1.096-.494-2.137.11-1.041.439-2.082.987-3.124.603-1.096 1.15-1.534 1.644-1.315zM22.27 48.934c.494-.165 1.014.3 1.562 1.397.548 1.041.877 2.082.987 3.124.164 1.04.027 1.753-.412 2.137-.493.164-1.04-.274-1.643-1.315-.549-1.096-.877-2.165-.987-3.206-.11-1.041.055-1.754.493-2.137zm5.508-.576c.438.329.603 1.014.493 2.055-.11 1.041-.466 2.11-1.069 3.206-.548 1.041-1.068 1.48-1.561 1.315-.439-.383-.603-1.096-.494-2.137.11-1.041.439-2.082.987-3.124.603-1.096 1.15-1.534 1.644-1.315zM22.27 54.971c.494-.164 1.014.302 1.562 1.398.548 1.041.877 2.082.987 3.123.164 1.042.027 1.754-.412 2.138-.493.164-1.04-.274-1.643-1.316-.549-1.096-.877-2.164-.987-3.205-.11-1.042.055-1.754.493-2.138zm5.508-.575c.438.329.603 1.014.493 2.055-.11 1.041-.466 2.11-1.069 3.206-.548 1.041-1.068 1.48-1.561 1.315-.439-.383-.603-1.096-.494-2.137.11-1.041.439-2.083.987-3.124.603-1.096 1.15-1.534 1.644-1.315z" fill="#fff"/><path d="M22.27 61.01c.494-.165 1.014.3 1.562 1.397.548 1.04.877 2.082.987 3.123.164 1.042.027 1.754-.412 2.138-.493.164-1.04-.274-1.643-1.316-.549-1.096-.877-2.164-.987-3.206-.11-1.04.055-1.753.493-2.137zm5.508-.576c.438.329.603 1.014.493 2.055-.11 1.041-.466 2.11-1.069 3.206-.548 1.041-1.068 1.48-1.561 1.315-.439-.384-.603-1.096-.494-2.137.11-1.042.439-2.083.987-3.124.603-1.096 1.15-1.535 1.644-1.315z" fill="#FFDB00"/><path d="M22.27 67.047c.494-.164 1.014.302 1.562 1.398.548 1.04.877 2.082.987 3.123.164 1.042.027 1.754-.412 2.138-.493.164-1.04-.274-1.643-1.316-.549-1.096-.877-2.164-.987-3.206-.11-1.04.055-1.753.493-2.137zm5.508-.575c.438.329.603 1.014.493 2.055-.11 1.041-.466 2.11-1.069 3.206-.548 1.041-1.068 1.48-1.561 1.315-.439-.383-.603-1.096-.494-2.137.11-1.041.439-2.083.987-3.124.603-1.096 1.15-1.534 1.644-1.315zM22.27 73.085c.494-.164 1.014.302 1.562 1.398.548 1.04.877 2.082.987 3.123.164 1.041.027 1.754-.412 2.138-.493.164-1.04-.275-1.643-1.316-.549-1.096-.877-2.164-.987-3.206-.11-1.04.055-1.753.493-2.137zm5.508-.575c.438.328.603 1.013.493 2.055-.11 1.041-.466 2.11-1.069 3.206-.548 1.04-1.068 1.48-1.561 1.315-.439-.384-.603-1.096-.494-2.137.11-1.042.439-2.083.987-3.124.603-1.096 1.15-1.535 1.644-1.315zM29.471 24.782c.494-.165 1.014.301 1.562 1.397.548 1.042.877 2.083.987 3.124.164 1.041.027 1.754-.411 2.137-.494.165-1.042-.274-1.644-1.315-.548-1.096-.877-2.165-.987-3.206-.11-1.041.055-1.753.493-2.137zm5.508-.576c.438.33.603 1.014.493 2.056-.11 1.04-.465 2.11-1.068 3.205-.548 1.042-1.069 1.48-1.562 1.316-.439-.384-.603-1.096-.493-2.138.11-1.04.438-2.082.986-3.123.603-1.096 1.15-1.535 1.644-1.316zM29.471 36.858c.494-.165 1.014.3 1.562 1.397.548 1.041.877 2.082.987 3.124.164 1.041.027 1.753-.411 2.137-.494.164-1.042-.274-1.644-1.315-.548-1.096-.877-2.165-.987-3.206-.11-1.041.055-1.754.493-2.137zm5.508-.576c.438.329.603 1.014.493 2.055-.11 1.041-.465 2.11-1.068 3.206-.548 1.041-1.069 1.48-1.562 1.315-.439-.383-.603-1.096-.493-2.137.11-1.041.438-2.082.986-3.124.603-1.096 1.15-1.534 1.644-1.315zM29.471 48.934c.494-.165 1.014.3 1.562 1.397.548 1.041.877 2.082.987 3.124.164 1.04.027 1.753-.411 2.137-.494.164-1.042-.274-1.644-1.315-.548-1.096-.877-2.165-.987-3.206-.11-1.041.055-1.754.493-2.137zm5.508-.576c.438.329.603 1.014.493 2.055-.11 1.041-.465 2.11-1.068 3.206-.548 1.041-1.069 1.48-1.562 1.315-.439-.383-.603-1.096-.493-2.137.11-1.041.438-2.082.986-3.124.603-1.096 1.15-1.534 1.644-1.315zM29.471 54.971c.494-.164 1.014.302 1.562 1.398.548 1.041.877 2.082.987 3.123.164 1.042.027 1.754-.411 2.138-.494.164-1.042-.274-1.644-1.316-.548-1.096-.877-2.164-.987-3.205-.11-1.042.055-1.754.493-2.138zm5.508-.575c.438.329.603 1.014.493 2.055-.11 1.041-.465 2.11-1.068 3.206-.548 1.041-1.069 1.48-1.562 1.315-.439-.383-.603-1.096-.493-2.137.11-1.041.438-2.083.986-3.124.603-1.096 1.15-1.534 1.644-1.315zM29.471 61.01c.494-.165 1.014.3 1.562 1.397.548 1.04.877 2.082.987 3.123.164 1.042.027 1.754-.411 2.138-.494.164-1.042-.274-1.644-1.316-.548-1.096-.877-2.164-.987-3.206-.11-1.04.055-1.753.493-2.137zm5.508-.576c.438.329.603 1.014.493 2.055-.11 1.041-.465 2.11-1.068 3.206-.548 1.041-1.069 1.48-1.562 1.315-.439-.384-.603-1.096-.493-2.137.11-1.042.438-2.083.986-3.124.603-1.096 1.15-1.535 1.644-1.315zM29.471 67.047c.494-.164 1.014.302 1.562 1.398.548 1.04.877 2.082.987 3.123.164 1.042.027 1.754-.411 2.138-.494.164-1.042-.274-1.644-1.316-.548-1.096-.877-2.164-.987-3.206-.11-1.04.055-1.753.493-2.137zm5.508-.575c.438.329.603 1.014.493 2.055-.11 1.041-.465 2.11-1.068 3.206-.548 1.041-1.069 1.48-1.562 1.315-.439-.383-.603-1.096-.493-2.137.11-1.041.438-2.083.986-3.124.603-1.096 1.15-1.534 1.644-1.315z" fill="#fff"/><path d="M29.471 73.085c.494-.164 1.014.302 1.562 1.398.548 1.04.877 2.082.987 3.123.164 1.041.027 1.754-.411 2.138-.494.164-1.042-.275-1.644-1.316-.548-1.096-.877-2.164-.987-3.206-.11-1.04.055-1.753.493-2.137zm5.508-.575c.438.328.603 1.013.493 2.055-.11 1.041-.465 2.11-1.068 3.206-.548 1.04-1.069 1.48-1.562 1.315-.439-.384-.603-1.096-.493-2.137.11-1.042.438-2.083.986-3.124.603-1.096 1.15-1.535 1.644-1.315zM36.675 12.706c.493-.165 1.013.301 1.561 1.397.548 1.042.877 2.083.987 3.124.164 1.041.027 1.754-.411 2.137-.493.165-1.041-.274-1.644-1.315-.548-1.096-.877-2.165-.987-3.206-.11-1.041.055-1.754.494-2.137zm5.507-.575c.439.328.603 1.013.493 2.055-.11 1.04-.465 2.11-1.068 3.206-.548 1.04-1.069 1.48-1.562 1.315-.439-.384-.603-1.096-.493-2.137.11-1.042.438-2.083.986-3.124.603-1.096 1.151-1.535 1.644-1.316z" fill="#FFDB00"/><path d="M36.675 18.744c.493-.164 1.013.301 1.561 1.398.548 1.04.877 2.082.987 3.123.164 1.041.027 1.754-.411 2.137-.493.165-1.041-.274-1.644-1.315-.548-1.096-.877-2.165-.987-3.206-.11-1.041.055-1.753.494-2.137zm5.507-.575c.439.328.603 1.013.493 2.055-.11 1.04-.465 2.11-1.068 3.206-.548 1.04-1.069 1.48-1.562 1.315-.439-.384-.603-1.096-.493-2.137.11-1.042.438-2.083.986-3.124.603-1.096 1.151-1.535 1.644-1.315zM36.675 24.782c.493-.165 1.013.301 1.561 1.397.548 1.042.877 2.083.987 3.124.164 1.041.027 1.754-.411 2.137-.493.165-1.041-.274-1.644-1.315-.548-1.096-.877-2.165-.987-3.206-.11-1.041.055-1.753.494-2.137zm5.507-.576c.439.33.603 1.014.493 2.056-.11 1.04-.465 2.11-1.068 3.205-.548 1.042-1.069 1.48-1.562 1.316-.439-.384-.603-1.096-.493-2.138.11-1.04.438-2.082.986-3.123.603-1.096 1.151-1.535 1.644-1.316zM36.675 30.82c.493-.165 1.013.301 1.561 1.397.548 1.041.877 2.083.987 3.124.164 1.041.027 1.754-.411 2.137-.493.165-1.041-.274-1.644-1.315-.548-1.096-.877-2.165-.987-3.206-.11-1.041.055-1.754.494-2.137zm5.507-.576c.439.33.603 1.014.493 2.055-.11 1.042-.465 2.11-1.068 3.206-.548 1.041-1.069 1.48-1.562 1.316-.439-.384-.603-1.096-.493-2.138.11-1.041.438-2.082.986-3.123.603-1.096 1.151-1.535 1.644-1.316z" fill="#fff"/><path d="M36.675 36.858c.493-.165 1.013.3 1.561 1.397.548 1.041.877 2.082.987 3.124.164 1.041.027 1.753-.411 2.137-.493.164-1.041-.274-1.644-1.315-.548-1.096-.877-2.165-.987-3.206-.11-1.041.055-1.754.494-2.137zm5.507-.576c.439.329.603 1.014.493 2.055-.11 1.041-.465 2.11-1.068 3.206-.548 1.041-1.069 1.48-1.562 1.315-.439-.383-.603-1.096-.493-2.137.11-1.041.438-2.082.986-3.124.603-1.096 1.151-1.534 1.644-1.315z" fill="#FFDB00"/><path d="M36.675 42.895c.493-.164 1.013.302 1.561 1.398.548 1.041.877 2.082.987 3.124.164 1.04.027 1.753-.411 2.137-.493.164-1.041-.274-1.644-1.315-.548-1.096-.877-2.165-.987-3.206-.11-1.042.055-1.754.494-2.138zm5.507-.575c.439.329.603 1.014.493 2.055-.11 1.041-.465 2.11-1.068 3.206-.548 1.041-1.069 1.48-1.562 1.315-.439-.383-.603-1.096-.493-2.137.11-1.041.438-2.083.986-3.124.603-1.096 1.151-1.534 1.644-1.315zM29.427 42.895c.493-.164 1.013.302 1.561 1.398.548 1.041.877 2.082.987 3.124.164 1.04.027 1.753-.411 2.137-.493.164-1.041-.274-1.644-1.315-.548-1.096-.877-2.165-.987-3.206-.11-1.042.055-1.754.494-2.138zm5.507-.575c.439.329.603 1.014.493 2.055-.11 1.041-.465 2.11-1.068 3.206-.548 1.041-1.069 1.48-1.562 1.315-.439-.383-.603-1.096-.493-2.137.11-1.041.438-2.083.986-3.124.603-1.096 1.15-1.534 1.644-1.315z" fill="#fff"/><path d="M36.675 48.934c.493-.165 1.013.3 1.561 1.397.548 1.041.877 2.082.987 3.124.164 1.04.027 1.753-.411 2.137-.493.164-1.041-.274-1.644-1.315-.548-1.096-.877-2.165-.987-3.206-.11-1.041.055-1.754.494-2.137zm5.507-.576c.439.329.603 1.014.493 2.055-.11 1.041-.465 2.11-1.068 3.206-.548 1.041-1.069 1.48-1.562 1.315-.439-.383-.603-1.096-.493-2.137.11-1.041.438-2.082.986-3.124.603-1.096 1.151-1.534 1.644-1.315z" fill="#FFDB00"/><path d="M36.675 54.971c.493-.164 1.013.302 1.561 1.398.548 1.041.877 2.082.987 3.123.164 1.042.027 1.754-.411 2.138-.493.164-1.041-.274-1.644-1.316-.548-1.096-.877-2.164-.987-3.205-.11-1.042.055-1.754.494-2.138zm5.507-.575c.439.329.603 1.014.493 2.055-.11 1.041-.465 2.11-1.068 3.206-.548 1.041-1.069 1.48-1.562 1.315-.439-.383-.603-1.096-.493-2.137.11-1.041.438-2.083.986-3.124.603-1.096 1.151-1.534 1.644-1.315zM36.675 61.01c.493-.165 1.013.3 1.561 1.397.548 1.04.877 2.082.987 3.123.164 1.042.027 1.754-.411 2.138-.493.164-1.041-.274-1.644-1.316-.548-1.096-.877-2.164-.987-3.206-.11-1.04.055-1.753.494-2.137zm5.507-.576c.439.329.603 1.014.493 2.055-.11 1.041-.465 2.11-1.068 3.206-.548 1.041-1.069 1.48-1.562 1.315-.439-.384-.603-1.096-.493-2.137.11-1.042.438-2.083.986-3.124.603-1.096 1.151-1.535 1.644-1.315zM36.675 67.047c.493-.164 1.013.302 1.561 1.398.548 1.04.877 2.082.987 3.123.164 1.042.027 1.754-.411 2.138-.493.164-1.041-.274-1.644-1.316-.548-1.096-.877-2.164-.987-3.206-.11-1.04.055-1.753.494-2.137zm5.507-.575c.439.329.603 1.014.493 2.055-.11 1.041-.465 2.11-1.068 3.206-.548 1.041-1.069 1.48-1.562 1.315-.439-.383-.603-1.096-.493-2.137.11-1.041.438-2.083.986-3.124.603-1.096 1.151-1.534 1.644-1.315zM36.675 73.085c.493-.164 1.013.302 1.561 1.398.548 1.04.877 2.082.987 3.123.164 1.041.027 1.754-.411 2.138-.493.164-1.041-.275-1.644-1.316-.548-1.096-.877-2.164-.987-3.206-.11-1.04.055-1.753.494-2.137zm5.507-.575c.439.328.603 1.013.493 2.055-.11 1.041-.465 2.11-1.068 3.206-.548 1.04-1.069 1.48-1.562 1.315-.439-.384-.603-1.096-.493-2.137.11-1.042.438-2.083.986-3.124.603-1.096 1.151-1.535 1.644-1.315zM36.675 79.123c.493-.165 1.013.301 1.561 1.397.548 1.042.877 2.083.987 3.124.164 1.041.027 1.754-.411 2.137-.493.165-1.041-.274-1.644-1.315-.548-1.096-.877-2.165-.987-3.206-.11-1.041.055-1.754.494-2.137zm5.507-.576c.439.33.603 1.014.493 2.056-.11 1.04-.465 2.11-1.068 3.206-.548 1.04-1.069 1.48-1.562 1.315-.439-.384-.603-1.096-.493-2.137.11-1.042.438-2.083.986-3.124.603-1.096 1.151-1.535 1.644-1.316zM29.427 79.123c.493-.165 1.013.301 1.561 1.397.548 1.042.877 2.083.987 3.124.164 1.041.027 1.754-.411 2.137-.493.165-1.041-.274-1.644-1.315-.548-1.096-.877-2.165-.987-3.206-.11-1.041.055-1.754.494-2.137zm5.507-.576c.439.33.603 1.014.493 2.056-.11 1.04-.465 2.11-1.068 3.206-.548 1.04-1.069 1.48-1.562 1.315-.439-.384-.603-1.096-.493-2.137.11-1.042.438-2.083.986-3.124.603-1.096 1.15-1.535 1.644-1.316zM22.362 79.123c.493-.165 1.014.301 1.562 1.397.548 1.042.877 2.083.986 3.124.165 1.041.028 1.754-.41 2.137-.494.165-1.042-.274-1.645-1.315-.548-1.096-.877-2.165-.986-3.206-.11-1.041.055-1.754.493-2.137zm5.508-.576c.438.33.602 1.014.493 2.056-.11 1.04-.466 2.11-1.069 3.206-.548 1.04-1.068 1.48-1.562 1.315-.438-.384-.602-1.096-.493-2.137.11-1.042.439-2.083.987-3.124.602-1.096 1.15-1.535 1.644-1.316z" fill="#fff"/><path d="M14.839 79.623c.493-.165 1.013.301 1.562 1.397.547 1.041.876 2.083.986 3.124.164 1.041.027 1.754-.411 2.137-.493.165-1.041-.274-1.644-1.315-.548-1.096-.877-2.165-.987-3.206-.11-1.041.055-1.754.494-2.137zm5.507-.576c.439.33.603 1.014.494 2.055-.11 1.042-.466 2.11-1.07 3.206-.547 1.042-1.068 1.48-1.561 1.316-.439-.384-.603-1.096-.493-2.138.11-1.04.438-2.082.986-3.123.603-1.096 1.151-1.535 1.644-1.316z" fill="#FFDB00"/><path d="M7.59 79.623c.494-.165 1.014.301 1.562 1.397.548 1.041.877 2.083.987 3.124.164 1.041.027 1.754-.411 2.137-.493.165-1.041-.274-1.644-1.315-.548-1.096-.877-2.165-.987-3.206-.11-1.041.055-1.754.494-2.137zm5.508-.576c.439.33.603 1.014.493 2.055-.11 1.042-.465 2.11-1.068 3.206-.548 1.042-1.069 1.48-1.562 1.316-.438-.384-.603-1.096-.493-2.138.11-1.04.438-2.082.986-3.123.603-1.096 1.151-1.535 1.644-1.316zM.526 79.623c.493-.165 1.014.301 1.562 1.397.548 1.041.877 2.083.986 3.124.165 1.041.028 1.754-.41 2.137-.494.165-1.042-.274-1.645-1.315C.471 83.87.142 82.801.033 81.76c-.11-1.041.055-1.754.493-2.137zm5.508-.576c.438.33.603 1.014.493 2.055-.11 1.042-.466 2.11-1.069 3.206-.548 1.042-1.068 1.48-1.562 1.316-.438-.384-.602-1.096-.493-2.138.11-1.04.439-2.082.987-3.123.603-1.096 1.15-1.535 1.644-1.316z" fill="#fff"/><path d="M.526 79.623c.493-.165 1.014.301 1.562 1.397.548 1.041.877 2.083.986 3.124.165 1.041.028 1.754-.41 2.137-.494.165-1.042-.274-1.645-1.315C.471 83.87.142 82.801.033 81.76c-.11-1.041.055-1.754.493-2.137zm5.508-.576c.438.33.603 1.014.493 2.055-.11 1.042-.466 2.11-1.069 3.206-.548 1.042-1.068 1.48-1.562 1.316-.438-.384-.602-1.096-.493-2.138.11-1.04.439-2.082.987-3.123.603-1.096 1.15-1.535 1.644-1.316zM94.29 79.123c.493-.165 1.014.301 1.562 1.397.548 1.042.876 2.083.986 3.124.165 1.041.028 1.754-.41 2.137-.494.165-1.042-.274-1.645-1.315-.548-1.096-.877-2.165-.986-3.206-.11-1.041.054-1.754.493-2.137zm5.507-.576c.439.33.603 1.014.494 2.056-.11 1.04-.466 2.11-1.069 3.206-.548 1.04-1.069 1.48-1.562 1.315-.438-.384-.603-1.096-.493-2.137.11-1.042.438-2.083.986-3.124.603-1.096 1.151-1.535 1.644-1.316zM87.225 79.123c.494-.165 1.014.301 1.562 1.397.548 1.042.877 2.083.987 3.124.164 1.041.027 1.754-.411 2.137-.494.165-1.042-.274-1.644-1.315-.548-1.096-.877-2.165-.987-3.206-.11-1.041.055-1.754.493-2.137zm5.508-.576c.438.33.603 1.014.493 2.056-.11 1.04-.466 2.11-1.069 3.206-.547 1.04-1.068 1.48-1.561 1.315-.439-.384-.603-1.096-.494-2.137.11-1.042.439-2.083.987-3.124.603-1.096 1.15-1.535 1.644-1.316zM79.704 79.623c.493-.165 1.014.301 1.562 1.397.548 1.041.876 2.083.986 3.124.165 1.041.028 1.754-.41 2.137-.494.165-1.042-.274-1.645-1.315-.548-1.096-.877-2.165-.986-3.206-.11-1.041.054-1.754.493-2.137zm5.508-.576c.438.33.602 1.014.493 2.055-.11 1.042-.466 2.11-1.069 3.206-.548 1.042-1.069 1.48-1.562 1.316-.438-.384-.603-1.096-.493-2.138.11-1.04.438-2.082.986-3.123.603-1.096 1.151-1.535 1.645-1.316zM72.454 79.623c.493-.165 1.014.301 1.562 1.397.548 1.041.876 2.083.986 3.124.165 1.041.028 1.754-.41 2.137-.494.165-1.042-.274-1.645-1.315-.548-1.096-.877-2.165-.986-3.206-.11-1.041.054-1.754.493-2.137zm5.508-.576c.438.33.602 1.014.493 2.055-.11 1.042-.466 2.11-1.069 3.206-.548 1.042-1.069 1.48-1.562 1.316-.438-.384-.603-1.096-.493-2.138.11-1.04.438-2.082.986-3.123.603-1.096 1.151-1.535 1.645-1.316zM65.39 79.623c.493-.165 1.013.301 1.561 1.397.548 1.041.877 2.083.987 3.124.164 1.041.027 1.754-.411 2.137-.493.165-1.042-.274-1.644-1.315-.548-1.096-.877-2.165-.987-3.206-.11-1.041.055-1.754.493-2.137zm5.507-.576c.438.33.603 1.014.493 2.055-.11 1.042-.466 2.11-1.068 3.206-.548 1.042-1.069 1.48-1.562 1.316-.439-.384-.603-1.096-.494-2.138.11-1.04.439-2.082.987-3.123.603-1.096 1.15-1.535 1.644-1.316z" fill="#fff"/><path d="M36.675 85.16c.493-.164 1.013.302 1.561 1.398.548 1.041.877 2.083.987 3.124.164 1.041.027 1.754-.411 2.137-.493.165-1.041-.274-1.644-1.315-.548-1.096-.877-2.165-.987-3.206-.11-1.041.055-1.754.494-2.137zm5.507-.575c.439.33.603 1.014.493 2.055-.11 1.042-.465 2.11-1.068 3.206-.548 1.042-1.069 1.48-1.562 1.316-.439-.384-.603-1.096-.493-2.138.11-1.04.438-2.082.986-3.123.603-1.096 1.151-1.535 1.644-1.316z" fill="#FFDB00"/><path d="M36.675 91.199c.493-.165 1.013.301 1.561 1.397.548 1.041.877 2.082.987 3.124.164 1.041.027 1.754-.411 2.137-.493.165-1.041-.274-1.644-1.315-.548-1.096-.877-2.165-.987-3.206-.11-1.041.055-1.754.494-2.137zm5.507-.576c.439.329.603 1.014.493 2.055-.11 1.041-.465 2.11-1.068 3.206-.548 1.041-1.069 1.48-1.562 1.315-.439-.383-.603-1.096-.493-2.137.11-1.041.438-2.082.986-3.124.603-1.096 1.151-1.534 1.644-1.315zM36.675 97.237c.493-.165 1.013.301 1.561 1.397.548 1.041.877 2.083.987 3.124.164 1.041.027 1.754-.411 2.137-.493.165-1.041-.274-1.644-1.315-.548-1.096-.877-2.165-.987-3.206-.11-1.041.055-1.754.494-2.137zm5.507-.576c.439.33.603 1.014.493 2.055-.11 1.042-.465 2.11-1.068 3.206-.548 1.042-1.069 1.48-1.562 1.316-.439-.384-.603-1.097-.493-2.138.11-1.041.438-2.082.986-3.123.603-1.097 1.151-1.535 1.644-1.316zM36.675 103.275c.493-.165 1.013.301 1.561 1.397.548 1.041.877 2.082.987 3.124.164 1.041.027 1.753-.411 2.137-.493.164-1.041-.274-1.644-1.315-.548-1.096-.877-2.165-.987-3.206-.11-1.041.055-1.754.494-2.137zm5.507-.576c.439.329.603 1.014.493 2.055-.11 1.041-.465 2.11-1.068 3.206-.548 1.041-1.069 1.48-1.562 1.315-.439-.383-.603-1.096-.493-2.137.11-1.041.438-2.082.986-3.124.603-1.096 1.151-1.534 1.644-1.315zM43.876.63c.493-.164 1.014.302 1.562 1.398.548 1.04.876 2.082.986 3.123.164 1.042.027 1.754-.411 2.138-.493.164-1.041-.274-1.644-1.316-.548-1.096-.877-2.164-.986-3.205-.11-1.042.054-1.754.493-2.138zm5.507-.575c.439.329.603 1.014.494 2.055-.11 1.041-.466 2.11-1.07 3.206-.547 1.041-1.068 1.48-1.56 1.315-.44-.384-.604-1.096-.494-2.137.11-1.041.438-2.083.986-3.124C48.342.274 48.89-.164 49.383.055zM43.876 6.668c.493-.164 1.014.301 1.562 1.398.548 1.04.876 2.082.986 3.123.164 1.041.027 1.754-.411 2.138-.493.164-1.041-.274-1.644-1.316-.548-1.096-.877-2.164-.986-3.206-.11-1.04.054-1.753.493-2.137zm5.507-.575c.439.328.603 1.013.494 2.055-.11 1.041-.466 2.11-1.07 3.206-.547 1.04-1.068 1.48-1.56 1.315-.44-.384-.604-1.096-.494-2.137.11-1.042.438-2.083.986-3.124.603-1.096 1.151-1.535 1.644-1.315zM43.876 12.706c.493-.165 1.014.301 1.562 1.397.548 1.042.876 2.083.986 3.124.164 1.041.027 1.754-.411 2.137-.493.165-1.041-.274-1.644-1.315-.548-1.096-.877-2.165-.986-3.206-.11-1.041.054-1.754.493-2.137zm5.507-.575c.439.328.603 1.013.494 2.055-.11 1.04-.466 2.11-1.07 3.206-.547 1.04-1.068 1.48-1.56 1.315-.44-.384-.604-1.096-.494-2.137.11-1.042.438-2.083.986-3.124.603-1.096 1.151-1.535 1.644-1.316zM43.876 18.744c.493-.164 1.014.301 1.562 1.398.548 1.04.876 2.082.986 3.123.164 1.041.027 1.754-.411 2.137-.493.165-1.041-.274-1.644-1.315-.548-1.096-.877-2.165-.986-3.206-.11-1.041.054-1.753.493-2.137zm5.507-.575c.439.328.603 1.013.494 2.055-.11 1.04-.466 2.11-1.07 3.206-.547 1.04-1.068 1.48-1.56 1.315-.44-.384-.604-1.096-.494-2.137.11-1.042.438-2.083.986-3.124.603-1.096 1.151-1.535 1.644-1.315z" fill="#fff"/><path d="M43.876 24.782c.493-.165 1.014.301 1.562 1.397.548 1.042.876 2.083.986 3.124.164 1.041.027 1.754-.411 2.137-.493.165-1.041-.274-1.644-1.315-.548-1.096-.877-2.165-.986-3.206-.11-1.041.054-1.753.493-2.137zm5.507-.576c.439.33.603 1.014.494 2.056-.11 1.04-.466 2.11-1.07 3.205-.547 1.042-1.068 1.48-1.56 1.316-.44-.384-.604-1.096-.494-2.138.11-1.04.438-2.082.986-3.123.603-1.096 1.151-1.535 1.644-1.316z" fill="#FFDB00"/><path d="M43.876 30.82c.493-.165 1.014.301 1.562 1.397.548 1.041.876 2.083.986 3.124.164 1.041.027 1.754-.411 2.137-.493.165-1.041-.274-1.644-1.315-.548-1.096-.877-2.165-.986-3.206-.11-1.041.054-1.754.493-2.137zm5.507-.576c.439.33.603 1.014.494 2.055-.11 1.042-.466 2.11-1.07 3.206-.547 1.041-1.068 1.48-1.56 1.316-.44-.384-.604-1.096-.494-2.138.11-1.041.438-2.082.986-3.123.603-1.096 1.151-1.535 1.644-1.316zM43.876 36.858c.493-.165 1.014.3 1.562 1.397.548 1.041.876 2.082.986 3.124.164 1.041.027 1.753-.411 2.137-.493.164-1.041-.274-1.644-1.315-.548-1.096-.877-2.165-.986-3.206-.11-1.041.054-1.754.493-2.137zm5.507-.576c.439.329.603 1.014.494 2.055-.11 1.041-.466 2.11-1.07 3.206-.547 1.041-1.068 1.48-1.56 1.315-.44-.383-.604-1.096-.494-2.137.11-1.041.438-2.082.986-3.124.603-1.096 1.151-1.534 1.644-1.315zM43.876 42.895c.493-.164 1.014.302 1.562 1.398.548 1.041.876 2.082.986 3.124.164 1.04.027 1.753-.411 2.137-.493.164-1.041-.274-1.644-1.315-.548-1.096-.877-2.165-.986-3.206-.11-1.042.054-1.754.493-2.138zm5.507-.575c.439.329.603 1.014.494 2.055-.11 1.041-.466 2.11-1.07 3.206-.547 1.041-1.068 1.48-1.56 1.315-.44-.383-.604-1.096-.494-2.137.11-1.041.438-2.083.986-3.124.603-1.096 1.151-1.534 1.644-1.315zM43.876 48.934c.493-.165 1.014.3 1.562 1.397.548 1.041.876 2.082.986 3.124.164 1.04.027 1.753-.411 2.137-.493.164-1.041-.274-1.644-1.315-.548-1.096-.877-2.165-.986-3.206-.11-1.041.054-1.754.493-2.137zm5.507-.576c.439.329.603 1.014.494 2.055-.11 1.041-.466 2.11-1.07 3.206-.547 1.041-1.068 1.48-1.56 1.315-.44-.383-.604-1.096-.494-2.137.11-1.041.438-2.082.986-3.124.603-1.096 1.151-1.534 1.644-1.315zM43.876 54.971c.493-.164 1.014.302 1.562 1.398.548 1.041.876 2.082.986 3.123.164 1.042.027 1.754-.411 2.138-.493.164-1.041-.274-1.644-1.316-.548-1.096-.877-2.164-.986-3.205-.11-1.042.054-1.754.493-2.138zm5.507-.575c.439.329.603 1.014.494 2.055-.11 1.041-.466 2.11-1.07 3.206-.547 1.041-1.068 1.48-1.56 1.315-.44-.383-.604-1.096-.494-2.137.11-1.041.438-2.083.986-3.124.603-1.096 1.151-1.534 1.644-1.315z" fill="#fff"/><path d="M43.876 61.01c.493-.165 1.014.3 1.562 1.397.548 1.04.876 2.082.986 3.123.164 1.042.027 1.754-.411 2.138-.493.164-1.041-.274-1.644-1.316-.548-1.096-.877-2.164-.986-3.206-.11-1.04.054-1.753.493-2.137zm5.507-.576c.439.329.603 1.014.494 2.055-.11 1.041-.466 2.11-1.07 3.206-.547 1.041-1.068 1.48-1.56 1.315-.44-.384-.604-1.096-.494-2.137.11-1.042.438-2.083.986-3.124.603-1.096 1.151-1.535 1.644-1.315z" fill="#FFDB00"/><path d="M43.876 67.047c.493-.164 1.014.302 1.562 1.398.548 1.04.876 2.082.986 3.123.164 1.042.027 1.754-.411 2.138-.493.164-1.041-.274-1.644-1.316-.548-1.096-.877-2.164-.986-3.206-.11-1.04.054-1.753.493-2.137zm5.507-.575c.439.329.603 1.014.494 2.055-.11 1.041-.466 2.11-1.07 3.206-.547 1.041-1.068 1.48-1.56 1.315-.44-.383-.604-1.096-.494-2.137.11-1.041.438-2.083.986-3.124.603-1.096 1.151-1.534 1.644-1.315zM43.876 73.085c.493-.164 1.014.302 1.562 1.398.548 1.04.876 2.082.986 3.123.164 1.041.027 1.754-.411 2.138-.493.164-1.041-.275-1.644-1.316-.548-1.096-.877-2.164-.986-3.206-.11-1.04.054-1.753.493-2.137zm5.507-.575c.439.328.603 1.013.494 2.055-.11 1.041-.466 2.11-1.07 3.206-.547 1.04-1.068 1.48-1.56 1.315-.44-.384-.604-1.096-.494-2.137.11-1.042.438-2.083.986-3.124.603-1.096 1.151-1.535 1.644-1.315zM43.876 79.123c.493-.165 1.014.301 1.562 1.397.548 1.042.876 2.083.986 3.124.164 1.041.027 1.754-.411 2.137-.493.165-1.041-.274-1.644-1.315-.548-1.096-.877-2.165-.986-3.206-.11-1.041.054-1.754.493-2.137zm5.507-.576c.439.33.603 1.014.494 2.056-.11 1.04-.466 2.11-1.07 3.206-.547 1.04-1.068 1.48-1.56 1.315-.44-.384-.604-1.096-.494-2.137.11-1.042.438-2.083.986-3.124.603-1.096 1.151-1.535 1.644-1.316zM43.876 85.16c.493-.164 1.014.302 1.562 1.398.548 1.041.876 2.083.986 3.124.164 1.041.027 1.754-.411 2.137-.493.165-1.041-.274-1.644-1.315-.548-1.096-.877-2.165-.986-3.206-.11-1.041.054-1.754.493-2.137zm5.507-.575c.439.33.603 1.014.494 2.055-.11 1.042-.466 2.11-1.07 3.206-.547 1.042-1.068 1.48-1.56 1.316-.44-.384-.604-1.096-.494-2.138.11-1.04.438-2.082.986-3.123.603-1.096 1.151-1.535 1.644-1.316zM43.876 91.199c.493-.165 1.014.301 1.562 1.397.548 1.041.876 2.082.986 3.124.164 1.041.027 1.754-.411 2.137-.493.165-1.041-.274-1.644-1.315-.548-1.096-.877-2.165-.986-3.206-.11-1.041.054-1.754.493-2.137zm5.507-.576c.439.329.603 1.014.494 2.055-.11 1.041-.466 2.11-1.07 3.206-.547 1.041-1.068 1.48-1.56 1.315-.44-.383-.604-1.096-.494-2.137.11-1.041.438-2.082.986-3.124.603-1.096 1.151-1.534 1.644-1.315zM43.876 97.237c.493-.165 1.014.301 1.562 1.397.548 1.041.876 2.083.986 3.124.164 1.041.027 1.754-.411 2.137-.493.165-1.041-.274-1.644-1.315-.548-1.096-.877-2.165-.986-3.206-.11-1.041.054-1.754.493-2.137zm5.507-.576c.439.33.603 1.014.494 2.055-.11 1.042-.466 2.11-1.07 3.206-.547 1.042-1.068 1.48-1.56 1.316-.44-.384-.604-1.097-.494-2.138.11-1.041.438-2.082.986-3.123.603-1.097 1.151-1.535 1.644-1.316zM43.876 103.275c.493-.165 1.014.301 1.562 1.397.548 1.041.876 2.082.986 3.124.164 1.041.027 1.753-.411 2.137-.493.164-1.041-.274-1.644-1.315-.548-1.096-.877-2.165-.986-3.206-.11-1.041.054-1.754.493-2.137zm5.507-.576c.439.329.603 1.014.494 2.055-.11 1.041-.466 2.11-1.07 3.206-.547 1.041-1.068 1.48-1.56 1.315-.44-.383-.604-1.096-.494-2.137.11-1.041.438-2.082.986-3.124.603-1.096 1.151-1.534 1.644-1.315zM51.079.63c.493-.164 1.014.302 1.562 1.398.548 1.04.877 2.082.986 3.123.165 1.042.027 1.754-.41 2.138-.494.164-1.042-.274-1.645-1.316-.548-1.096-.877-2.164-.986-3.205-.11-1.042.054-1.754.493-2.138zm5.508-.575c.438.329.602 1.014.493 2.055-.11 1.041-.466 2.11-1.069 3.206-.548 1.041-1.069 1.48-1.562 1.315-.438-.384-.603-1.096-.493-2.137.11-1.041.438-2.083.986-3.124.603-1.096 1.151-1.534 1.645-1.315z" fill="#fff"/><path d="M51.079 6.668c.493-.164 1.014.301 1.562 1.398.548 1.04.877 2.082.986 3.123.165 1.041.027 1.754-.41 2.138-.494.164-1.042-.274-1.645-1.316-.548-1.096-.877-2.164-.986-3.206-.11-1.04.054-1.753.493-2.137zm5.508-.575c.438.328.602 1.013.493 2.055-.11 1.041-.466 2.11-1.069 3.206-.548 1.04-1.069 1.48-1.562 1.315-.438-.384-.603-1.096-.493-2.137.11-1.042.438-2.083.986-3.124.603-1.096 1.151-1.535 1.645-1.315z" fill="#FFDB00"/><path d="M51.079 12.706c.493-.165 1.014.301 1.562 1.397.548 1.042.877 2.083.986 3.124.165 1.041.027 1.754-.41 2.137-.494.165-1.042-.274-1.645-1.315-.548-1.096-.877-2.165-.986-3.206-.11-1.041.054-1.754.493-2.137zm5.508-.575c.438.328.602 1.013.493 2.055-.11 1.04-.466 2.11-1.069 3.206-.548 1.04-1.069 1.48-1.562 1.315-.438-.384-.603-1.096-.493-2.137.11-1.042.438-2.083.986-3.124.603-1.096 1.151-1.535 1.645-1.316zM51.079 18.744c.493-.164 1.014.301 1.562 1.398.548 1.04.877 2.082.986 3.123.165 1.041.027 1.754-.41 2.137-.494.165-1.042-.274-1.645-1.315-.548-1.096-.877-2.165-.986-3.206-.11-1.041.054-1.753.493-2.137zm5.508-.575c.438.328.602 1.013.493 2.055-.11 1.04-.466 2.11-1.069 3.206-.548 1.04-1.069 1.48-1.562 1.315-.438-.384-.603-1.096-.493-2.137.11-1.042.438-2.083.986-3.124.603-1.096 1.151-1.535 1.645-1.315zM51.079 24.782c.493-.165 1.014.301 1.562 1.397.548 1.042.877 2.083.986 3.124.165 1.041.027 1.754-.41 2.137-.494.165-1.042-.274-1.645-1.315-.548-1.096-.877-2.165-.986-3.206-.11-1.041.054-1.753.493-2.137zm5.508-.576c.438.33.602 1.014.493 2.056-.11 1.04-.466 2.11-1.069 3.205-.548 1.042-1.069 1.48-1.562 1.316-.438-.384-.603-1.096-.493-2.138.11-1.04.438-2.082.986-3.123.603-1.096 1.151-1.535 1.645-1.316zM51.079 30.82c.493-.165 1.014.301 1.562 1.397.548 1.041.877 2.083.986 3.124.165 1.041.027 1.754-.41 2.137-.494.165-1.042-.274-1.645-1.315-.548-1.096-.877-2.165-.986-3.206-.11-1.041.054-1.754.493-2.137zm5.508-.576c.438.33.602 1.014.493 2.055-.11 1.042-.466 2.11-1.069 3.206-.548 1.041-1.069 1.48-1.562 1.316-.438-.384-.603-1.096-.493-2.138.11-1.041.438-2.082.986-3.123.603-1.096 1.151-1.535 1.645-1.316zM51.079 36.858c.493-.165 1.014.3 1.562 1.397.548 1.041.877 2.082.986 3.124.165 1.041.027 1.753-.41 2.137-.494.164-1.042-.274-1.645-1.315-.548-1.096-.877-2.165-.986-3.206-.11-1.041.054-1.754.493-2.137zm5.508-.576c.438.329.602 1.014.493 2.055-.11 1.041-.466 2.11-1.069 3.206-.548 1.041-1.069 1.48-1.562 1.315-.438-.383-.603-1.096-.493-2.137.11-1.041.438-2.082.986-3.124.603-1.096 1.151-1.534 1.645-1.315zM51.079 42.895c.493-.164 1.014.302 1.562 1.398.548 1.041.877 2.082.986 3.124.165 1.04.027 1.753-.41 2.137-.494.164-1.042-.274-1.645-1.315-.548-1.096-.877-2.165-.986-3.206-.11-1.042.054-1.754.493-2.138zm5.508-.575c.438.329.602 1.014.493 2.055-.11 1.041-.466 2.11-1.069 3.206-.548 1.041-1.069 1.48-1.562 1.315-.438-.383-.603-1.096-.493-2.137.11-1.041.438-2.083.986-3.124.603-1.096 1.151-1.534 1.645-1.315z" fill="#fff"/><path d="M51.079 48.934c.493-.165 1.014.3 1.562 1.397.548 1.041.877 2.082.986 3.124.165 1.04.027 1.753-.41 2.137-.494.164-1.042-.274-1.645-1.315-.548-1.096-.877-2.165-.986-3.206-.11-1.041.054-1.754.493-2.137zm5.508-.576c.438.329.602 1.014.493 2.055-.11 1.041-.466 2.11-1.069 3.206-.548 1.041-1.069 1.48-1.562 1.315-.438-.383-.603-1.096-.493-2.137.11-1.041.438-2.082.986-3.124.603-1.096 1.151-1.534 1.645-1.315z" fill="#FFDB00"/><path d="M51.079 54.971c.493-.164 1.014.302 1.562 1.398.548 1.041.877 2.082.986 3.123.165 1.042.027 1.754-.41 2.138-.494.164-1.042-.274-1.645-1.316-.548-1.096-.877-2.164-.986-3.205-.11-1.042.054-1.754.493-2.138zm5.508-.575c.438.329.602 1.014.493 2.055-.11 1.041-.466 2.11-1.069 3.206-.548 1.041-1.069 1.48-1.562 1.315-.438-.383-.603-1.096-.493-2.137.11-1.041.438-2.083.986-3.124.603-1.096 1.151-1.534 1.645-1.315zM51.079 61.01c.493-.165 1.014.3 1.562 1.397.548 1.04.877 2.082.986 3.123.165 1.042.027 1.754-.41 2.138-.494.164-1.042-.274-1.645-1.316-.548-1.096-.877-2.164-.986-3.206-.11-1.04.054-1.753.493-2.137zm5.508-.576c.438.329.602 1.014.493 2.055-.11 1.041-.466 2.11-1.069 3.206-.548 1.041-1.069 1.48-1.562 1.315-.438-.384-.603-1.096-.493-2.137.11-1.042.438-2.083.986-3.124.603-1.096 1.151-1.535 1.645-1.315zM51.079 67.047c.493-.164 1.014.302 1.562 1.398.548 1.04.877 2.082.986 3.123.165 1.042.027 1.754-.41 2.138-.494.164-1.042-.274-1.645-1.316-.548-1.096-.877-2.164-.986-3.206-.11-1.04.054-1.753.493-2.137zm5.508-.575c.438.329.602 1.014.493 2.055-.11 1.041-.466 2.11-1.069 3.206-.548 1.041-1.069 1.48-1.562 1.315-.438-.383-.603-1.096-.493-2.137.11-1.041.438-2.083.986-3.124.603-1.096 1.151-1.534 1.645-1.315zM51.079 73.085c.493-.164 1.014.302 1.562 1.398.548 1.04.877 2.082.986 3.123.165 1.041.027 1.754-.41 2.138-.494.164-1.042-.275-1.645-1.316-.548-1.096-.877-2.164-.986-3.206-.11-1.04.054-1.753.493-2.137zm5.508-.575c.438.328.602 1.013.493 2.055-.11 1.041-.466 2.11-1.069 3.206-.548 1.04-1.069 1.48-1.562 1.315-.438-.384-.603-1.096-.493-2.137.11-1.042.438-2.083.986-3.124.603-1.096 1.151-1.535 1.645-1.315z" fill="#fff"/><path d="M51.079 79.123c.493-.165 1.014.301 1.562 1.397.548 1.042.877 2.083.986 3.124.165 1.041.027 1.754-.41 2.137-.494.165-1.042-.274-1.645-1.315-.548-1.096-.877-2.165-.986-3.206-.11-1.041.054-1.754.493-2.137zm5.508-.576c.438.33.602 1.014.493 2.056-.11 1.04-.466 2.11-1.069 3.206-.548 1.04-1.069 1.48-1.562 1.315-.438-.384-.603-1.096-.493-2.137.11-1.042.438-2.083.986-3.124.603-1.096 1.151-1.535 1.645-1.316z" fill="#FFDB00"/><path d="M51.079 85.16c.493-.164 1.014.302 1.562 1.398.548 1.041.877 2.083.986 3.124.165 1.041.027 1.754-.41 2.137-.494.165-1.042-.274-1.645-1.315-.548-1.096-.877-2.165-.986-3.206-.11-1.041.054-1.754.493-2.137zm5.508-.575c.438.33.602 1.014.493 2.055-.11 1.042-.466 2.11-1.069 3.206-.548 1.042-1.069 1.48-1.562 1.316-.438-.384-.603-1.096-.493-2.138.11-1.04.438-2.082.986-3.123.603-1.096 1.151-1.535 1.645-1.316zM51.079 91.199c.493-.165 1.014.301 1.562 1.397.548 1.041.877 2.082.986 3.124.165 1.041.027 1.754-.41 2.137-.494.165-1.042-.274-1.645-1.315-.548-1.096-.877-2.165-.986-3.206-.11-1.041.054-1.754.493-2.137zm5.508-.576c.438.329.602 1.014.493 2.055-.11 1.041-.466 2.11-1.069 3.206-.548 1.041-1.069 1.48-1.562 1.315-.438-.383-.603-1.096-.493-2.137.11-1.041.438-2.082.986-3.124.603-1.096 1.151-1.534 1.645-1.315zM51.079 97.237c.493-.165 1.014.301 1.562 1.397.548 1.041.877 2.083.986 3.124.165 1.041.027 1.754-.41 2.137-.494.165-1.042-.274-1.645-1.315-.548-1.096-.877-2.165-.986-3.206-.11-1.041.054-1.754.493-2.137zm5.508-.576c.438.33.602 1.014.493 2.055-.11 1.042-.466 2.11-1.069 3.206-.548 1.042-1.069 1.48-1.562 1.316-.438-.384-.603-1.097-.493-2.138.11-1.041.438-2.082.986-3.123.603-1.097 1.151-1.535 1.645-1.316zM51.079 103.275c.493-.165 1.014.301 1.562 1.397.548 1.041.877 2.082.986 3.124.165 1.041.027 1.753-.41 2.137-.494.164-1.042-.274-1.645-1.315-.548-1.096-.877-2.165-.986-3.206-.11-1.041.054-1.754.493-2.137zm5.508-.576c.438.329.602 1.014.493 2.055-.11 1.041-.466 2.11-1.069 3.206-.548 1.041-1.069 1.48-1.562 1.315-.438-.383-.603-1.096-.493-2.137.11-1.041.438-2.082.986-3.124.603-1.096 1.151-1.534 1.645-1.315zM58.325 103.275c.493-.165 1.014.301 1.562 1.397.548 1.041.877 2.082.986 3.124.165 1.041.028 1.753-.41 2.137-.494.164-1.042-.274-1.645-1.315-.548-1.096-.877-2.165-.986-3.206-.11-1.041.054-1.754.493-2.137zm5.508-.576c.438.329.602 1.014.493 2.055-.11 1.041-.466 2.11-1.069 3.206-.548 1.041-1.069 1.48-1.562 1.315-.438-.383-.602-1.096-.493-2.137.11-1.041.439-2.082.986-3.124.603-1.096 1.151-1.534 1.645-1.315zM58.28 12.706c.493-.165 1.014.301 1.562 1.397.548 1.042.877 2.083.986 3.124.165 1.041.028 1.754-.41 2.137-.494.165-1.042-.274-1.645-1.315-.548-1.096-.877-2.165-.986-3.206-.11-1.041.055-1.754.493-2.137zm5.508-.575c.438.328.603 1.013.493 2.055-.11 1.04-.466 2.11-1.069 3.206-.548 1.04-1.068 1.48-1.562 1.315-.438-.384-.602-1.096-.493-2.137.11-1.042.439-2.083.987-3.124.602-1.096 1.15-1.535 1.644-1.316zM58.28 18.744c.493-.164 1.014.301 1.562 1.398.548 1.04.877 2.082.986 3.123.165 1.041.028 1.754-.41 2.137-.494.165-1.042-.274-1.645-1.315-.548-1.096-.877-2.165-.986-3.206-.11-1.041.055-1.753.493-2.137zm5.508-.575c.438.328.603 1.013.493 2.055-.11 1.04-.466 2.11-1.069 3.206-.548 1.04-1.068 1.48-1.562 1.315-.438-.384-.602-1.096-.493-2.137.11-1.042.439-2.083.987-3.124.602-1.096 1.15-1.535 1.644-1.315zM58.28 24.782c.493-.165 1.014.301 1.562 1.397.548 1.042.877 2.083.986 3.124.165 1.041.028 1.754-.41 2.137-.494.165-1.042-.274-1.645-1.315-.548-1.096-.877-2.165-.986-3.206-.11-1.041.055-1.753.493-2.137zm5.508-.576c.438.33.603 1.014.493 2.056-.11 1.04-.466 2.11-1.069 3.205-.548 1.042-1.068 1.48-1.562 1.316-.438-.384-.602-1.096-.493-2.138.11-1.04.439-2.082.987-3.123.602-1.096 1.15-1.535 1.644-1.316zM58.28 30.82c.493-.165 1.014.301 1.562 1.397.548 1.041.877 2.083.986 3.124.165 1.041.028 1.754-.41 2.137-.494.165-1.042-.274-1.645-1.315-.548-1.096-.877-2.165-.986-3.206-.11-1.041.055-1.754.493-2.137zm5.508-.576c.438.33.603 1.014.493 2.055-.11 1.042-.466 2.11-1.069 3.206-.548 1.041-1.068 1.48-1.562 1.316-.438-.384-.602-1.096-.493-2.138.11-1.041.439-2.082.987-3.123.602-1.096 1.15-1.535 1.644-1.316z" fill="#fff"/><path d="M58.28 36.858c.493-.165 1.014.3 1.562 1.397.548 1.041.877 2.082.986 3.124.165 1.041.028 1.753-.41 2.137-.494.164-1.042-.274-1.645-1.315-.548-1.096-.877-2.165-.986-3.206-.11-1.041.055-1.754.493-2.137zm5.508-.576c.438.329.603 1.014.493 2.055-.11 1.041-.466 2.11-1.069 3.206-.548 1.041-1.068 1.48-1.562 1.315-.438-.383-.602-1.096-.493-2.137.11-1.041.439-2.082.987-3.124.602-1.096 1.15-1.534 1.644-1.315z" fill="#FFDB00"/><path d="M58.28 42.895c.493-.164 1.014.302 1.562 1.398.548 1.041.877 2.082.986 3.124.165 1.04.028 1.753-.41 2.137-.494.164-1.042-.274-1.645-1.315-.548-1.096-.877-2.165-.986-3.206-.11-1.042.055-1.754.493-2.138zm5.508-.575c.438.329.603 1.014.493 2.055-.11 1.041-.466 2.11-1.069 3.206-.548 1.041-1.068 1.48-1.562 1.315-.438-.383-.602-1.096-.493-2.137.11-1.041.439-2.083.987-3.124.602-1.096 1.15-1.534 1.644-1.315zM65.39 42.895c.493-.164 1.013.302 1.561 1.398.548 1.041.877 2.082.987 3.124.164 1.04.027 1.753-.411 2.137-.493.164-1.042-.274-1.644-1.315-.548-1.096-.877-2.165-.987-3.206-.11-1.042.055-1.754.493-2.138zm5.507-.575c.438.329.603 1.014.493 2.055-.11 1.041-.466 2.11-1.068 3.206-.548 1.041-1.069 1.48-1.562 1.315-.439-.383-.603-1.096-.494-2.137.11-1.041.439-2.083.987-3.124.603-1.096 1.15-1.534 1.644-1.315zM58.28 48.934c.493-.165 1.014.3 1.562 1.397.548 1.041.877 2.082.986 3.124.165 1.04.028 1.753-.41 2.137-.494.164-1.042-.274-1.645-1.315-.548-1.096-.877-2.165-.986-3.206-.11-1.041.055-1.754.493-2.137zm5.508-.576c.438.329.603 1.014.493 2.055-.11 1.041-.466 2.11-1.069 3.206-.548 1.041-1.068 1.48-1.562 1.315-.438-.383-.602-1.096-.493-2.137.11-1.041.439-2.082.987-3.124.602-1.096 1.15-1.534 1.644-1.315zM58.28 54.971c.493-.164 1.014.302 1.562 1.398.548 1.041.877 2.082.986 3.123.165 1.042.028 1.754-.41 2.138-.494.164-1.042-.274-1.645-1.316-.548-1.096-.877-2.164-.986-3.205-.11-1.042.055-1.754.493-2.138zm5.508-.575c.438.329.603 1.014.493 2.055-.11 1.041-.466 2.11-1.069 3.206-.548 1.041-1.068 1.48-1.562 1.315-.438-.383-.602-1.096-.493-2.137.11-1.041.439-2.083.987-3.124.602-1.096 1.15-1.534 1.644-1.315z" fill="#fff"/><path d="M58.28 61.01c.493-.165 1.014.3 1.562 1.397.548 1.04.877 2.082.986 3.123.165 1.042.028 1.754-.41 2.138-.494.164-1.042-.274-1.645-1.316-.548-1.096-.877-2.164-.986-3.206-.11-1.04.055-1.753.493-2.137zm5.508-.576c.438.329.603 1.014.493 2.055-.11 1.041-.466 2.11-1.069 3.206-.548 1.041-1.068 1.48-1.562 1.315-.438-.384-.602-1.096-.493-2.137.11-1.042.439-2.083.987-3.124.602-1.096 1.15-1.535 1.644-1.315z" fill="#FFDB00"/><path d="M58.28 67.047c.493-.164 1.014.302 1.562 1.398.548 1.04.877 2.082.986 3.123.165 1.042.028 1.754-.41 2.138-.494.164-1.042-.274-1.645-1.316-.548-1.096-.877-2.164-.986-3.206-.11-1.04.055-1.753.493-2.137zm5.508-.575c.438.329.603 1.014.493 2.055-.11 1.041-.466 2.11-1.069 3.206-.548 1.041-1.068 1.48-1.562 1.315-.438-.383-.602-1.096-.493-2.137.11-1.041.439-2.083.987-3.124.602-1.096 1.15-1.534 1.644-1.315zM58.28 73.085c.493-.164 1.014.302 1.562 1.398.548 1.04.877 2.082.986 3.123.165 1.041.028 1.754-.41 2.138-.494.164-1.042-.275-1.645-1.316-.548-1.096-.877-2.164-.986-3.206-.11-1.04.055-1.753.493-2.137zm5.508-.575c.438.328.603 1.013.493 2.055-.11 1.041-.466 2.11-1.069 3.206-.548 1.04-1.068 1.48-1.562 1.315-.438-.384-.602-1.096-.493-2.137.11-1.042.439-2.083.987-3.124.602-1.096 1.15-1.535 1.644-1.315zM58.28 79.123c.493-.165 1.014.301 1.562 1.397.548 1.042.877 2.083.986 3.124.165 1.041.028 1.754-.41 2.137-.494.165-1.042-.274-1.645-1.315-.548-1.096-.877-2.165-.986-3.206-.11-1.041.055-1.754.493-2.137zm5.508-.576c.438.33.603 1.014.493 2.056-.11 1.04-.466 2.11-1.069 3.206-.548 1.04-1.068 1.48-1.562 1.315-.438-.384-.602-1.096-.493-2.137.11-1.042.439-2.083.987-3.124.602-1.096 1.15-1.535 1.644-1.316zM58.28 85.16c.493-.164 1.014.302 1.562 1.398.548 1.041.877 2.083.986 3.124.165 1.041.028 1.754-.41 2.137-.494.165-1.042-.274-1.645-1.315-.548-1.096-.877-2.165-.986-3.206-.11-1.041.055-1.754.493-2.137zm5.508-.575c.438.33.603 1.014.493 2.055-.11 1.042-.466 2.11-1.069 3.206-.548 1.042-1.068 1.48-1.562 1.316-.438-.384-.602-1.096-.493-2.138.11-1.04.439-2.082.987-3.123.602-1.096 1.15-1.535 1.644-1.316zM7.59 85.403c.494-.165 1.014.301 1.562 1.397.548 1.041.877 2.083.987 3.124.164 1.041.027 1.754-.411 2.137-.493.165-1.041-.274-1.644-1.315-.548-1.096-.877-2.165-.987-3.206-.11-1.041.055-1.754.494-2.137zm5.508-.576c.439.33.603 1.014.493 2.055-.11 1.042-.465 2.11-1.068 3.206-.548 1.041-1.069 1.48-1.562 1.316-.438-.384-.603-1.096-.493-2.138.11-1.041.438-2.082.986-3.124.603-1.096 1.151-1.534 1.644-1.315zM14.792 85.403c.493-.165 1.014.301 1.562 1.397.548 1.041.876 2.083.986 3.124.164 1.041.027 1.754-.411 2.137-.493.165-1.041-.274-1.644-1.315-.548-1.096-.877-2.165-.986-3.206-.11-1.041.054-1.754.493-2.137zm5.507-.576c.439.33.603 1.014.494 2.055-.11 1.042-.466 2.11-1.07 3.206-.547 1.041-1.068 1.48-1.56 1.316-.44-.384-.604-1.096-.494-2.138.11-1.041.438-2.082.986-3.124.603-1.096 1.151-1.534 1.644-1.315zM21.995 85.403c.493-.165 1.014.301 1.562 1.397.548 1.041.877 2.083.986 3.124.165 1.041.028 1.754-.41 2.137-.494.165-1.042-.274-1.645-1.315-.548-1.096-.877-2.165-.986-3.206-.11-1.041.054-1.754.493-2.137zm5.508-.576c.438.33.602 1.014.493 2.055-.11 1.042-.466 2.11-1.069 3.206-.548 1.041-1.069 1.48-1.562 1.316-.438-.384-.603-1.096-.493-2.138.11-1.041.438-2.082.986-3.124.603-1.096 1.151-1.534 1.645-1.315zM29.196 85.403c.493-.165 1.014.301 1.562 1.397.548 1.041.877 2.083.986 3.124.165 1.041.028 1.754-.41 2.137-.494.165-1.042-.274-1.645-1.315-.548-1.096-.877-2.165-.986-3.206-.11-1.041.055-1.754.493-2.137zm5.508-.576c.438.33.602 1.014.493 2.055-.11 1.042-.466 2.11-1.069 3.206-.548 1.041-1.068 1.48-1.562 1.316-.438-.384-.603-1.096-.493-2.138.11-1.041.439-2.082.987-3.124.602-1.096 1.15-1.534 1.644-1.315zM65.39 85.403c.493-.165 1.013.301 1.561 1.397.548 1.041.877 2.083.987 3.124.164 1.041.027 1.754-.411 2.137-.493.165-1.042-.274-1.644-1.315-.548-1.096-.877-2.165-.987-3.206-.11-1.041.055-1.754.493-2.137zm5.507-.576c.438.33.603 1.014.493 2.055-.11 1.042-.466 2.11-1.068 3.206-.548 1.041-1.069 1.48-1.562 1.316-.439-.384-.603-1.096-.494-2.138.11-1.041.439-2.082.987-3.124.603-1.096 1.15-1.534 1.644-1.315z" fill="#fff"/><path d="M72.59 85.403c.494-.165 1.014.301 1.562 1.397.548 1.041.877 2.083.987 3.124.164 1.041.027 1.754-.411 2.137-.493.165-1.041-.274-1.644-1.315-.548-1.096-.877-2.165-.987-3.206-.11-1.041.055-1.754.494-2.137zm5.508-.576c.439.33.603 1.014.493 2.055-.11 1.042-.465 2.11-1.068 3.206-.548 1.041-1.069 1.48-1.562 1.316-.439-.384-.603-1.096-.493-2.138.11-1.041.438-2.082.986-3.124.603-1.096 1.151-1.534 1.644-1.315z" fill="#FFDB00"/><path d="M79.794 85.403c.493-.165 1.014.301 1.562 1.397.548 1.041.876 2.083.986 3.124.164 1.041.027 1.754-.411 2.137-.493.165-1.041-.274-1.644-1.315-.548-1.096-.877-2.165-.987-3.206-.11-1.041.055-1.754.494-2.137zm5.507-.576c.439.33.603 1.014.493 2.055-.11 1.042-.465 2.11-1.068 3.206-.548 1.041-1.069 1.48-1.562 1.316-.438-.384-.603-1.096-.493-2.138.11-1.041.438-2.082.986-3.124.603-1.096 1.151-1.534 1.644-1.315zM86.995 85.403c.493-.165 1.014.301 1.562 1.397.548 1.041.877 2.083.986 3.124.165 1.041.028 1.754-.41 2.137-.494.165-1.042-.274-1.645-1.315-.548-1.096-.877-2.165-.986-3.206-.11-1.041.054-1.754.493-2.137zm5.507-.576c.439.33.603 1.014.494 2.055-.11 1.042-.466 2.11-1.069 3.206-.548 1.041-1.069 1.48-1.562 1.316-.438-.384-.603-1.096-.493-2.138.11-1.041.438-2.082.986-3.124.603-1.096 1.151-1.534 1.644-1.315zM58.28 91.199c.493-.165 1.014.301 1.562 1.397.548 1.041.877 2.082.986 3.124.165 1.041.028 1.754-.41 2.137-.494.165-1.042-.274-1.645-1.315-.548-1.096-.877-2.165-.986-3.206-.11-1.041.055-1.754.493-2.137zm5.508-.576c.438.329.603 1.014.493 2.055-.11 1.041-.466 2.11-1.069 3.206-.548 1.041-1.068 1.48-1.562 1.315-.438-.383-.602-1.096-.493-2.137.11-1.041.439-2.082.987-3.124.602-1.096 1.15-1.534 1.644-1.315zM58.28 97.237c.493-.165 1.014.301 1.562 1.397.548 1.041.877 2.083.986 3.124.165 1.041.028 1.754-.41 2.137-.494.165-1.042-.274-1.645-1.315-.548-1.096-.877-2.165-.986-3.206-.11-1.041.055-1.754.493-2.137zm5.508-.576c.438.33.603 1.014.493 2.055-.11 1.042-.466 2.11-1.069 3.206-.548 1.042-1.068 1.48-1.562 1.316-.438-.384-.602-1.097-.493-2.138.11-1.041.439-2.082.987-3.123.602-1.097 1.15-1.535 1.644-1.316zM65.481 24.782c.493-.165 1.014.301 1.562 1.397.548 1.042.877 2.083.986 3.124.165 1.041.028 1.754-.41 2.137-.494.165-1.042-.274-1.645-1.315-.548-1.096-.876-2.165-.986-3.206-.11-1.041.055-1.753.493-2.137zm5.508-.576c.438.33.603 1.014.493 2.056-.11 1.04-.466 2.11-1.069 3.205-.548 1.042-1.068 1.48-1.561 1.316-.439-.384-.603-1.096-.494-2.138.11-1.04.439-2.082.987-3.123.603-1.096 1.15-1.535 1.644-1.316zM65.481 36.858c.493-.165 1.014.3 1.562 1.397.548 1.041.877 2.082.986 3.124.165 1.041.028 1.753-.41 2.137-.494.164-1.042-.274-1.645-1.315-.548-1.096-.876-2.165-.986-3.206-.11-1.041.055-1.754.493-2.137zm5.508-.576c.438.329.603 1.014.493 2.055-.11 1.041-.466 2.11-1.069 3.206-.548 1.041-1.068 1.48-1.561 1.315-.439-.383-.603-1.096-.494-2.137.11-1.041.439-2.082.987-3.124.603-1.096 1.15-1.534 1.644-1.315zM65.481 48.934c.493-.165 1.014.3 1.562 1.397.548 1.041.877 2.082.986 3.124.165 1.04.028 1.753-.41 2.137-.494.164-1.042-.274-1.645-1.315-.548-1.096-.876-2.165-.986-3.206-.11-1.041.055-1.754.493-2.137zm5.508-.576c.438.329.603 1.014.493 2.055-.11 1.041-.466 2.11-1.069 3.206-.548 1.041-1.068 1.48-1.561 1.315-.439-.383-.603-1.096-.494-2.137.11-1.041.439-2.082.987-3.124.603-1.096 1.15-1.534 1.644-1.315zM65.481 54.971c.493-.164 1.014.302 1.562 1.398.548 1.041.877 2.082.986 3.123.165 1.042.028 1.754-.41 2.138-.494.164-1.042-.274-1.645-1.316-.548-1.096-.876-2.164-.986-3.205-.11-1.042.055-1.754.493-2.138zm5.508-.575c.438.329.603 1.014.493 2.055-.11 1.041-.466 2.11-1.069 3.206-.548 1.041-1.068 1.48-1.561 1.315-.439-.383-.603-1.096-.494-2.137.11-1.041.439-2.083.987-3.124.603-1.096 1.15-1.534 1.644-1.315zM65.481 61.01c.493-.165 1.014.3 1.562 1.397.548 1.04.877 2.082.986 3.123.165 1.042.028 1.754-.41 2.138-.494.164-1.042-.274-1.645-1.316-.548-1.096-.876-2.164-.986-3.206-.11-1.04.055-1.753.493-2.137zm5.508-.576c.438.329.603 1.014.493 2.055-.11 1.041-.466 2.11-1.069 3.206-.548 1.041-1.068 1.48-1.561 1.315-.439-.384-.603-1.096-.494-2.137.11-1.042.439-2.083.987-3.124.603-1.096 1.15-1.535 1.644-1.315z" fill="#fff"/><path d="M65.481 67.047c.493-.164 1.014.302 1.562 1.398.548 1.04.877 2.082.986 3.123.165 1.042.028 1.754-.41 2.138-.494.164-1.042-.274-1.645-1.316-.548-1.096-.876-2.164-.986-3.206-.11-1.04.055-1.753.493-2.137zm5.508-.575c.438.329.603 1.014.493 2.055-.11 1.041-.466 2.11-1.069 3.206-.548 1.041-1.068 1.48-1.561 1.315-.439-.383-.603-1.096-.494-2.137.11-1.041.439-2.083.987-3.124.603-1.096 1.15-1.534 1.644-1.315z" fill="#FFDB00"/><path d="M65.481 73.085c.493-.164 1.014.302 1.562 1.398.548 1.04.877 2.082.986 3.123.165 1.041.028 1.754-.41 2.138-.494.164-1.042-.275-1.645-1.316-.548-1.096-.876-2.164-.986-3.206-.11-1.04.055-1.753.493-2.137zm5.508-.575c.438.328.603 1.013.493 2.055-.11 1.041-.466 2.11-1.069 3.206-.548 1.04-1.068 1.48-1.561 1.315-.439-.384-.603-1.096-.494-2.137.11-1.042.439-2.083.987-3.124.603-1.096 1.15-1.535 1.644-1.315zM72.684 36.858c.493-.165 1.014.3 1.562 1.397.548 1.041.877 2.082.987 3.124.164 1.041.027 1.753-.411 2.137-.494.164-1.042-.274-1.645-1.315-.548-1.096-.876-2.165-.986-3.206-.11-1.041.055-1.754.493-2.137zm5.508-.576c.438.329.603 1.014.493 2.055-.11 1.041-.466 2.11-1.069 3.206-.547 1.041-1.068 1.48-1.561 1.315-.439-.383-.603-1.096-.494-2.137.11-1.041.439-2.082.987-3.124.603-1.096 1.15-1.534 1.644-1.315z" fill="#fff"/><path d="M72.684 48.934c.493-.165 1.014.3 1.562 1.397.548 1.041.877 2.082.987 3.124.164 1.04.027 1.753-.411 2.137-.494.164-1.042-.274-1.645-1.315-.548-1.096-.876-2.165-.986-3.206-.11-1.041.055-1.754.493-2.137zm5.508-.576c.438.329.603 1.014.493 2.055-.11 1.041-.466 2.11-1.069 3.206-.547 1.041-1.068 1.48-1.561 1.315-.439-.383-.603-1.096-.494-2.137.11-1.041.439-2.082.987-3.124.603-1.096 1.15-1.534 1.644-1.315z" fill="#FFDB00"/><path d="M72.684 54.971c.493-.164 1.014.302 1.562 1.398.548 1.041.877 2.082.987 3.123.164 1.042.027 1.754-.411 2.138-.494.164-1.042-.274-1.645-1.316-.548-1.096-.876-2.164-.986-3.205-.11-1.042.055-1.754.493-2.138zm5.508-.575c.438.329.603 1.014.493 2.055-.11 1.041-.466 2.11-1.069 3.206-.547 1.041-1.068 1.48-1.561 1.315-.439-.383-.603-1.096-.494-2.137.11-1.041.439-2.083.987-3.124.603-1.096 1.15-1.534 1.644-1.315zM72.684 61.01c.493-.165 1.014.3 1.562 1.397.548 1.04.877 2.082.987 3.123.164 1.042.027 1.754-.411 2.138-.494.164-1.042-.274-1.645-1.316-.548-1.096-.876-2.164-.986-3.206-.11-1.04.055-1.753.493-2.137zm5.508-.576c.438.329.603 1.014.493 2.055-.11 1.041-.466 2.11-1.069 3.206-.547 1.041-1.068 1.48-1.561 1.315-.439-.384-.603-1.096-.494-2.137.11-1.042.439-2.083.987-3.124.603-1.096 1.15-1.535 1.644-1.315zM72.684 67.047c.493-.164 1.014.302 1.562 1.398.548 1.04.877 2.082.987 3.123.164 1.042.027 1.754-.411 2.138-.494.164-1.042-.274-1.645-1.316-.548-1.096-.876-2.164-.986-3.206-.11-1.04.055-1.753.493-2.137zm5.508-.575c.438.329.603 1.014.493 2.055-.11 1.041-.466 2.11-1.069 3.206-.547 1.041-1.068 1.48-1.561 1.315-.439-.383-.603-1.096-.494-2.137.11-1.041.439-2.083.987-3.124.603-1.096 1.15-1.534 1.644-1.315zM72.684 73.085c.493-.164 1.014.302 1.562 1.398.548 1.04.877 2.082.987 3.123.164 1.041.027 1.754-.411 2.138-.494.164-1.042-.275-1.645-1.316-.548-1.096-.876-2.164-.986-3.206-.11-1.04.055-1.753.493-2.137zm5.508-.575c.438.328.603 1.013.493 2.055-.11 1.041-.466 2.11-1.069 3.206-.547 1.04-1.068 1.48-1.561 1.315-.439-.384-.603-1.096-.494-2.137.11-1.042.439-2.083.987-3.124.603-1.096 1.15-1.535 1.644-1.315zM79.885 48.934c.494-.165 1.014.3 1.562 1.397.548 1.041.877 2.082.987 3.124.164 1.04.027 1.753-.411 2.137-.493.164-1.041-.274-1.644-1.315-.548-1.096-.877-2.165-.987-3.206-.11-1.041.055-1.754.493-2.137zm5.508-.576c.439.329.603 1.014.493 2.055-.11 1.041-.465 2.11-1.068 3.206-.548 1.041-1.069 1.48-1.562 1.315-.439-.383-.603-1.096-.493-2.137.11-1.041.438-2.082.986-3.124.603-1.096 1.15-1.534 1.644-1.315zM79.885 61.01c.494-.165 1.014.3 1.562 1.397.548 1.04.877 2.082.987 3.123.164 1.042.027 1.754-.411 2.138-.493.164-1.041-.274-1.644-1.316-.548-1.096-.877-2.164-.987-3.206-.11-1.04.055-1.753.493-2.137zm5.508-.576c.439.329.603 1.014.493 2.055-.11 1.041-.465 2.11-1.068 3.206-.548 1.041-1.069 1.48-1.562 1.315-.439-.384-.603-1.096-.493-2.137.11-1.042.438-2.083.986-3.124.603-1.096 1.15-1.535 1.644-1.315zM79.885 67.047c.494-.164 1.014.302 1.562 1.398.548 1.04.877 2.082.987 3.123.164 1.042.027 1.754-.411 2.138-.493.164-1.041-.274-1.644-1.316-.548-1.096-.877-2.164-.987-3.206-.11-1.04.055-1.753.493-2.137zm5.508-.575c.439.329.603 1.014.493 2.055-.11 1.041-.465 2.11-1.068 3.206-.548 1.041-1.069 1.48-1.562 1.315-.439-.383-.603-1.096-.493-2.137.11-1.041.438-2.083.986-3.124.603-1.096 1.15-1.534 1.644-1.315z" fill="#fff"/><path d="M79.885 73.085c.494-.164 1.014.302 1.562 1.398.548 1.04.877 2.082.987 3.123.164 1.041.027 1.754-.411 2.138-.493.164-1.041-.275-1.644-1.316-.548-1.096-.877-2.164-.987-3.206-.11-1.04.055-1.753.493-2.137zm5.508-.575c.439.328.603 1.013.493 2.055-.11 1.041-.465 2.11-1.068 3.206-.548 1.04-1.069 1.48-1.562 1.315-.439-.384-.603-1.096-.493-2.137.11-1.042.438-2.083.986-3.124.603-1.096 1.15-1.535 1.644-1.315z" fill="#FFDB00"/><path d="M87.225 73.085c.494-.164 1.014.302 1.562 1.398.548 1.04.877 2.082.987 3.123.164 1.041.027 1.754-.411 2.138-.494.164-1.042-.275-1.644-1.316-.548-1.096-.877-2.164-.987-3.206-.11-1.04.055-1.753.493-2.137zm5.508-.575c.438.328.603 1.013.493 2.055-.11 1.041-.466 2.11-1.069 3.206-.547 1.04-1.068 1.48-1.561 1.315-.439-.384-.603-1.096-.494-2.137.11-1.042.439-2.083.987-3.124.603-1.096 1.15-1.535 1.644-1.315zM87.089 61.01c.493-.165 1.013.3 1.561 1.397.548 1.04.877 2.082.987 3.123.164 1.042.027 1.754-.411 2.138-.493.164-1.041-.274-1.644-1.316-.548-1.096-.877-2.164-.987-3.206-.11-1.04.055-1.753.494-2.137zm5.507-.576c.439.329.603 1.014.493 2.055-.11 1.041-.465 2.11-1.068 3.206-.548 1.041-1.069 1.48-1.562 1.315-.439-.384-.603-1.096-.493-2.137.11-1.042.438-2.083.986-3.124.603-1.096 1.151-1.535 1.644-1.315zM87.089 67.047c.493-.164 1.013.302 1.561 1.398.548 1.04.877 2.082.987 3.123.164 1.042.027 1.754-.411 2.138-.493.164-1.041-.274-1.644-1.316-.548-1.096-.877-2.164-.987-3.206-.11-1.04.055-1.753.494-2.137zm5.507-.575c.439.329.603 1.014.493 2.055-.11 1.041-.465 2.11-1.068 3.206-.548 1.041-1.069 1.48-1.562 1.315-.439-.383-.603-1.096-.493-2.137.11-1.041.438-2.083.986-3.124.603-1.096 1.151-1.534 1.644-1.315zM94.29 66.778c.493-.164 1.014.302 1.562 1.398.548 1.041.876 2.082.986 3.124.165 1.04.028 1.753-.41 2.137-.494.164-1.042-.274-1.645-1.315-.548-1.096-.877-2.165-.986-3.206-.11-1.041.054-1.754.493-2.138zm5.507-.575c.439.329.603 1.014.494 2.055-.11 1.041-.466 2.11-1.069 3.206-.548 1.041-1.069 1.48-1.562 1.315-.438-.383-.603-1.096-.493-2.137.11-1.041.438-2.082.986-3.124.603-1.096 1.151-1.534 1.644-1.315z" fill="#fff"/></svg>