<svg width="135" height="116" fill="none" xmlns="http://www.w3.org/2000/svg"><path d="M127.552 54.972c-.493-.165-1.014.301-1.562 1.397-.548 1.041-.877 2.083-.986 3.124-.165 1.041-.028 1.753.411 2.137.493.165 1.041-.274 1.644-1.315.548-1.096.877-2.165.986-3.206.11-1.041-.055-1.754-.493-2.137zm-5.508-.576c-.438.329-.602 1.014-.493 2.055.11 1.042.466 2.11 1.069 3.206.548 1.042 1.068 1.48 1.562 1.316.438-.384.603-1.096.493-2.138-.11-1.041-.439-2.082-.987-3.123-.602-1.097-1.15-1.535-1.644-1.316zM127.552 61.01c-.493-.165-1.014.3-1.562 1.397-.548 1.041-.877 2.083-.986 3.124-.165 1.04-.028 1.753.411 2.137.493.164 1.041-.274 1.644-1.315.548-1.096.877-2.165.986-3.206.11-1.041-.055-1.754-.493-2.137zm-5.508-.576c-.438.329-.602 1.014-.493 2.055.11 1.041.466 2.11 1.069 3.206.548 1.041 1.068 1.48 1.562 1.315.438-.383.603-1.096.493-2.137-.11-1.041-.439-2.082-.987-3.124-.602-1.096-1.15-1.534-1.644-1.315zM127.552 67.047c-.493-.164-1.014.302-1.562 1.398-.548 1.041-.877 2.082-.986 3.124-.165 1.04-.028 1.753.411 2.137.493.164 1.041-.274 1.644-1.315.548-1.096.877-2.165.986-3.206.11-1.041-.055-1.754-.493-2.138zm-5.508-.575c-.438.329-.602 1.014-.493 2.055.11 1.041.466 2.11 1.069 3.206.548 1.041 1.068 1.48 1.562 1.315.438-.383.603-1.096.493-2.137-.11-1.041-.439-2.082-.987-3.124-.602-1.096-1.15-1.534-1.644-1.315zM127.552 73.085c-.493-.164-1.014.302-1.562 1.398-.548 1.041-.877 2.082-.986 3.124-.165 1.04-.028 1.753.411 2.137.493.164 1.041-.274 1.644-1.315.548-1.096.877-2.165.986-3.206.11-1.041-.055-1.754-.493-2.138zm-5.508-.575c-.438.329-.602 1.014-.493 2.055.11 1.041.466 2.11 1.069 3.206.548 1.041 1.068 1.48 1.562 1.315.438-.383.603-1.096.493-2.137-.11-1.041-.439-2.082-.987-3.124-.602-1.096-1.15-1.534-1.644-1.315zM127.552 79.123c-.493-.164-1.014.302-1.562 1.398-.548 1.041-.877 2.082-.986 3.124-.165 1.04-.028 1.753.411 2.137.493.164 1.041-.274 1.644-1.315.548-1.096.877-2.165.986-3.206.11-1.042-.055-1.754-.493-2.138zm-5.508-.575c-.438.329-.602 1.014-.493 2.055.11 1.041.466 2.11 1.069 3.206.548 1.041 1.068 1.48 1.562 1.315.438-.383.603-1.096.493-2.137-.11-1.041-.439-2.082-.987-3.124-.602-1.096-1.15-1.534-1.644-1.315zM127.552 85.161c-.493-.164-1.014.302-1.562 1.398-.548 1.041-.877 2.082-.986 3.124-.165 1.04-.028 1.753.411 2.137.493.164 1.041-.274 1.644-1.315.548-1.096.877-2.165.986-3.206.11-1.042-.055-1.754-.493-2.138zm-5.508-.575c-.438.329-.602 1.014-.493 2.055.11 1.041.466 2.11 1.069 3.206.548 1.041 1.068 1.48 1.562 1.315.438-.383.603-1.096.493-2.137-.11-1.041-.439-2.083-.987-3.124-.602-1.096-1.15-1.534-1.644-1.315zM127.552 91.2c-.493-.165-1.014.3-1.562 1.397-.548 1.04-.877 2.082-.986 3.123-.165 1.042-.028 1.754.411 2.138.493.164 1.041-.274 1.644-1.316.548-1.096.877-2.164.986-3.206.11-1.04-.055-1.753-.493-2.137zm-5.508-.576c-.438.329-.602 1.014-.493 2.055.11 1.041.466 2.11 1.069 3.206.548 1.041 1.068 1.48 1.562 1.315.438-.384.603-1.096.493-2.137-.11-1.041-.439-2.083-.987-3.124-.602-1.096-1.15-1.534-1.644-1.315zM127.552 97.237c-.493-.164-1.014.302-1.562 1.398-.548 1.04-.877 2.082-.986 3.123-.165 1.042-.028 1.754.411 2.138.493.164 1.041-.274 1.644-1.316.548-1.096.877-2.164.986-3.206.11-1.04-.055-1.753-.493-2.137zm-5.508-.575c-.438.329-.602 1.014-.493 2.055.11 1.041.466 2.11 1.069 3.206.548 1.041 1.068 1.479 1.562 1.315.438-.384.603-1.096.493-2.137-.11-1.042-.439-2.083-.987-3.124-.602-1.096-1.15-1.535-1.644-1.315zM127.552 103.275c-.493-.164-1.014.302-1.562 1.398-.548 1.041-.877 2.082-.986 3.123-.165 1.042-.028 1.754.411 2.138.493.164 1.041-.274 1.644-1.316.548-1.096.877-2.164.986-3.206.11-1.041-.055-1.753-.493-2.137zm-5.508-.575c-.438.329-.602 1.014-.493 2.055.11 1.041.466 2.11 1.069 3.206.548 1.041 1.068 1.479 1.562 1.315.438-.384.603-1.096.493-2.137-.11-1.042-.439-2.083-.987-3.124-.602-1.096-1.15-1.535-1.644-1.315zM120.349 48.934c-.493-.165-1.014.301-1.562 1.397-.548 1.041-.877 2.083-.986 3.124-.165 1.041-.028 1.754.411 2.137.493.165 1.041-.274 1.644-1.315.548-1.096.877-2.165.986-3.206.11-1.041-.055-1.754-.493-2.137zm-5.508-.576c-.438.33-.603 1.014-.493 2.055.11 1.042.466 2.11 1.069 3.206.548 1.041 1.068 1.48 1.562 1.316.438-.384.602-1.096.493-2.138-.11-1.041-.439-2.082-.987-3.123-.602-1.096-1.151-1.535-1.644-1.316zM120.349 54.972c-.493-.165-1.014.301-1.562 1.397-.548 1.041-.877 2.083-.986 3.124-.165 1.041-.028 1.753.411 2.137.493.165 1.041-.274 1.644-1.315.548-1.096.877-2.165.986-3.206.11-1.041-.055-1.754-.493-2.137zm-5.508-.576c-.438.329-.603 1.014-.493 2.055.11 1.042.466 2.11 1.069 3.206.548 1.042 1.068 1.48 1.562 1.316.438-.384.602-1.096.493-2.138-.11-1.041-.439-2.082-.987-3.123-.602-1.097-1.151-1.535-1.644-1.316zM120.349 61.01c-.493-.165-1.014.3-1.562 1.397-.548 1.041-.877 2.083-.986 3.124-.165 1.04-.028 1.753.411 2.137.493.164 1.041-.274 1.644-1.315.548-1.096.877-2.165.986-3.206.11-1.041-.055-1.754-.493-2.137zm-5.508-.576c-.438.329-.603 1.014-.493 2.055.11 1.041.466 2.11 1.069 3.206.548 1.041 1.068 1.48 1.562 1.315.438-.383.602-1.096.493-2.137-.11-1.041-.439-2.082-.987-3.124-.602-1.096-1.151-1.534-1.644-1.315zM120.349 67.047c-.493-.164-1.014.302-1.562 1.398-.548 1.041-.877 2.082-.986 3.124-.165 1.04-.028 1.753.411 2.137.493.164 1.041-.274 1.644-1.315.548-1.096.877-2.165.986-3.206.11-1.041-.055-1.754-.493-2.138zm-5.508-.575c-.438.329-.603 1.014-.493 2.055.11 1.041.466 2.11 1.069 3.206.548 1.041 1.068 1.48 1.562 1.315.438-.383.602-1.096.493-2.137-.11-1.041-.439-2.082-.987-3.124-.602-1.096-1.151-1.534-1.644-1.315zM120.349 73.085c-.493-.164-1.014.302-1.562 1.398-.548 1.041-.877 2.082-.986 3.124-.165 1.04-.028 1.753.411 2.137.493.164 1.041-.274 1.644-1.315.548-1.096.877-2.165.986-3.206.11-1.041-.055-1.754-.493-2.138zm-5.508-.575c-.438.329-.603 1.014-.493 2.055.11 1.041.466 2.11 1.069 3.206.548 1.041 1.068 1.48 1.562 1.315.438-.383.602-1.096.493-2.137-.11-1.041-.439-2.082-.987-3.124-.602-1.096-1.151-1.534-1.644-1.315zM120.349 79.123c-.493-.164-1.014.302-1.562 1.398-.548 1.041-.877 2.082-.986 3.124-.165 1.04-.028 1.753.411 2.137.493.164 1.041-.274 1.644-1.315.548-1.096.877-2.165.986-3.206.11-1.042-.055-1.754-.493-2.138zm-5.508-.575c-.438.329-.603 1.014-.493 2.055.11 1.041.466 2.11 1.069 3.206.548 1.041 1.068 1.48 1.562 1.315.438-.383.602-1.096.493-2.137-.11-1.041-.439-2.082-.987-3.124-.602-1.096-1.151-1.534-1.644-1.315zM120.349 109.313c-.493-.164-1.014.302-1.562 1.398-.548 1.041-.877 2.082-.986 3.123-.165 1.042-.028 1.754.411 2.138.493.164 1.041-.274 1.644-1.316.548-1.096.877-2.164.986-3.206.11-1.041-.055-1.753-.493-2.137zm-5.508-.575c-.438.328-.603 1.014-.493 2.055.11 1.041.466 2.11 1.069 3.206.548 1.041 1.068 1.479 1.562 1.315.438-.384.602-1.096.493-2.137-.11-1.042-.439-2.083-.987-3.124-.602-1.096-1.151-1.535-1.644-1.315zM113.148 42.896c-.493-.165-1.014.301-1.562 1.397-.548 1.041-.877 2.083-.987 3.124-.164 1.041-.027 1.754.411 2.137.494.165 1.042-.274 1.645-1.315.548-1.096.876-2.165.986-3.206.11-1.041-.055-1.754-.493-2.137zm-5.508-.576c-.438.33-.603 1.014-.493 2.055.109 1.042.466 2.11 1.069 3.206.548 1.042 1.068 1.48 1.561 1.316.439-.384.603-1.096.494-2.138-.11-1.04-.439-2.082-.987-3.123-.603-1.097-1.151-1.535-1.644-1.316zM113.148 48.934c-.493-.165-1.014.301-1.562 1.397-.548 1.041-.877 2.083-.987 3.124-.164 1.041-.027 1.754.411 2.137.494.165 1.042-.274 1.645-1.315.548-1.096.876-2.165.986-3.206.11-1.041-.055-1.754-.493-2.137zm-5.508-.576c-.438.33-.603 1.014-.493 2.055.109 1.042.466 2.11 1.069 3.206.548 1.041 1.068 1.48 1.561 1.316.439-.384.603-1.096.494-2.138-.11-1.041-.439-2.082-.987-3.123-.603-1.096-1.151-1.535-1.644-1.316zM113.148 54.972c-.493-.165-1.014.301-1.562 1.397-.548 1.041-.877 2.083-.987 3.124-.164 1.041-.027 1.753.411 2.137.494.165 1.042-.274 1.645-1.315.548-1.096.876-2.165.986-3.206.11-1.041-.055-1.754-.493-2.137zm-5.508-.576c-.438.329-.603 1.014-.493 2.055.109 1.042.466 2.11 1.069 3.206.548 1.042 1.068 1.48 1.561 1.316.439-.384.603-1.096.494-2.138-.11-1.041-.439-2.082-.987-3.123-.603-1.097-1.151-1.535-1.644-1.316zM113.148 61.01c-.493-.165-1.014.3-1.562 1.397-.548 1.041-.877 2.083-.987 3.124-.164 1.04-.027 1.753.411 2.137.494.164 1.042-.274 1.645-1.315.548-1.096.876-2.165.986-3.206.11-1.041-.055-1.754-.493-2.137zm-5.508-.576c-.438.329-.603 1.014-.493 2.055.109 1.041.466 2.11 1.069 3.206.548 1.041 1.068 1.48 1.561 1.315.439-.383.603-1.096.494-2.137-.11-1.041-.439-2.082-.987-3.124-.603-1.096-1.151-1.534-1.644-1.315z" fill="#fff"/><path d="M133.835 60.998c-.493-.164-1.014.302-1.562 1.398-.548 1.041-.876 2.082-.986 3.124-.164 1.041-.027 1.753.411 2.137.493.164 1.041-.274 1.644-1.315.548-1.096.877-2.165.986-3.206.11-1.041-.054-1.754-.493-2.138zm-5.507-.575c-.439.329-.603 1.014-.494 2.055.11 1.041.466 2.11 1.069 3.206.548 1.041 1.069 1.48 1.562 1.315.438-.383.603-1.096.493-2.137-.11-1.041-.438-2.082-.986-3.124-.603-1.096-1.151-1.534-1.644-1.315zM105.945 36.858c-.494-.164-1.014.301-1.562 1.397-.548 1.042-.877 2.083-.987 3.124-.164 1.041-.027 1.754.411 2.137.494.165 1.042-.274 1.644-1.315.548-1.096.877-2.165.987-3.206.109-1.041-.055-1.753-.493-2.137zm-5.508-.575c-.438.328-.603 1.013-.493 2.055.109 1.04.466 2.11 1.068 3.206.548 1.04 1.069 1.48 1.562 1.315.439-.384.603-1.096.493-2.138-.109-1.04-.438-2.082-.986-3.123-.603-1.096-1.151-1.535-1.644-1.316zM105.945 42.896c-.494-.165-1.014.301-1.562 1.397-.548 1.041-.877 2.083-.987 3.124-.164 1.041-.027 1.754.411 2.137.494.165 1.042-.274 1.644-1.315.548-1.096.877-2.165.987-3.206.109-1.041-.055-1.754-.493-2.137zm-5.508-.576c-.438.33-.603 1.014-.493 2.055.109 1.042.466 2.11 1.068 3.206.548 1.042 1.069 1.48 1.562 1.316.439-.384.603-1.096.493-2.138-.109-1.04-.438-2.082-.986-3.123-.603-1.097-1.151-1.535-1.644-1.316zM105.945 48.934c-.494-.165-1.014.301-1.562 1.397-.548 1.041-.877 2.083-.987 3.124-.164 1.041-.027 1.754.411 2.137.494.165 1.042-.274 1.644-1.315.548-1.096.877-2.165.987-3.206.109-1.041-.055-1.754-.493-2.137zm-5.508-.576c-.438.33-.603 1.014-.493 2.055.109 1.042.466 2.11 1.068 3.206.548 1.041 1.069 1.48 1.562 1.316.439-.384.603-1.096.493-2.138-.109-1.041-.438-2.082-.986-3.123-.603-1.096-1.151-1.535-1.644-1.316zM105.945 54.972c-.494-.165-1.014.301-1.562 1.397-.548 1.041-.877 2.083-.987 3.124-.164 1.041-.027 1.753.411 2.137.494.165 1.042-.274 1.644-1.315.548-1.096.877-2.165.987-3.206.109-1.041-.055-1.754-.493-2.137zm-5.508-.576c-.438.329-.603 1.014-.493 2.055.109 1.042.466 2.11 1.068 3.206.548 1.042 1.069 1.48 1.562 1.316.439-.384.603-1.096.493-2.138-.109-1.041-.438-2.082-.986-3.123-.603-1.097-1.151-1.535-1.644-1.316zM105.945 61.01c-.494-.165-1.014.3-1.562 1.397-.548 1.041-.877 2.083-.987 3.124-.164 1.04-.027 1.753.411 2.137.494.164 1.042-.274 1.644-1.315.548-1.096.877-2.165.987-3.206.109-1.041-.055-1.754-.493-2.137zm-5.508-.576c-.438.329-.603 1.014-.493 2.055.109 1.041.466 2.11 1.068 3.206.548 1.041 1.069 1.48 1.562 1.315.439-.383.603-1.096.493-2.137-.109-1.041-.438-2.082-.986-3.124-.603-1.096-1.151-1.534-1.644-1.315zM105.945 67.047c-.494-.164-1.014.302-1.562 1.398-.548 1.041-.877 2.082-.987 3.124-.164 1.04-.027 1.753.411 2.137.494.164 1.042-.274 1.644-1.315.548-1.096.877-2.165.987-3.206.109-1.041-.055-1.754-.493-2.138zm-5.508-.575c-.438.329-.603 1.014-.493 2.055.109 1.041.466 2.11 1.068 3.206.548 1.041 1.069 1.48 1.562 1.315.439-.383.603-1.096.493-2.137-.109-1.041-.438-2.082-.986-3.124-.603-1.096-1.151-1.534-1.644-1.315zM105.945 73.085c-.494-.164-1.014.302-1.562 1.398-.548 1.041-.877 2.082-.987 3.124-.164 1.04-.027 1.753.411 2.137.494.164 1.042-.274 1.644-1.315.548-1.096.877-2.165.987-3.206.109-1.041-.055-1.754-.493-2.138zm-5.508-.575c-.438.329-.603 1.014-.493 2.055.109 1.041.466 2.11 1.068 3.206.548 1.041 1.069 1.48 1.562 1.315.439-.383.603-1.096.493-2.137-.109-1.041-.438-2.082-.986-3.124-.603-1.096-1.151-1.534-1.644-1.315zM105.945 79.123c-.494-.164-1.014.302-1.562 1.398-.548 1.041-.877 2.082-.987 3.124-.164 1.04-.027 1.753.411 2.137.494.164 1.042-.274 1.644-1.315.548-1.096.877-2.165.987-3.206.109-1.042-.055-1.754-.493-2.138zm-5.508-.575c-.438.329-.603 1.014-.493 2.055.109 1.041.466 2.11 1.068 3.206.548 1.041 1.069 1.48 1.562 1.315.439-.383.603-1.096.493-2.137-.109-1.041-.438-2.082-.986-3.124-.603-1.096-1.151-1.534-1.644-1.315zM105.945 85.161c-.494-.164-1.014.302-1.562 1.398-.548 1.041-.877 2.082-.987 3.124-.164 1.04-.027 1.753.411 2.137.494.164 1.042-.274 1.644-1.315.548-1.096.877-2.165.987-3.206.109-1.042-.055-1.754-.493-2.138zm-5.508-.575c-.438.329-.603 1.014-.493 2.055.109 1.041.466 2.11 1.068 3.206.548 1.041 1.069 1.48 1.562 1.315.439-.383.603-1.096.493-2.137-.109-1.041-.438-2.083-.986-3.124-.603-1.096-1.151-1.534-1.644-1.315zM105.945 91.2c-.494-.165-1.014.3-1.562 1.397-.548 1.04-.877 2.082-.987 3.123-.164 1.042-.027 1.754.411 2.138.494.164 1.042-.274 1.644-1.316.548-1.096.877-2.164.987-3.206.109-1.04-.055-1.753-.493-2.137zm-5.508-.576c-.438.329-.603 1.014-.493 2.055.109 1.041.466 2.11 1.068 3.206.548 1.041 1.069 1.48 1.562 1.315.439-.384.603-1.096.493-2.137-.109-1.041-.438-2.083-.986-3.124-.603-1.096-1.151-1.534-1.644-1.315zM105.945 97.237c-.494-.164-1.014.302-1.562 1.398-.548 1.04-.877 2.082-.987 3.123-.164 1.042-.027 1.754.411 2.138.494.164 1.042-.274 1.644-1.316.548-1.096.877-2.164.987-3.206.109-1.04-.055-1.753-.493-2.137zm-5.508-.575c-.438.329-.603 1.014-.493 2.055.109 1.041.466 2.11 1.068 3.206.548 1.041 1.069 1.479 1.562 1.315.439-.384.603-1.096.493-2.137-.109-1.042-.438-2.083-.986-3.124-.603-1.096-1.151-1.535-1.644-1.315zM105.945 103.275c-.494-.164-1.014.302-1.562 1.398-.548 1.041-.877 2.082-.987 3.123-.164 1.042-.027 1.754.411 2.138.494.164 1.042-.274 1.644-1.316.548-1.096.877-2.164.987-3.206.109-1.041-.055-1.753-.493-2.137zm-5.508-.575c-.438.329-.603 1.014-.493 2.055.109 1.041.466 2.11 1.068 3.206.548 1.041 1.069 1.479 1.562 1.315.439-.384.603-1.096.493-2.137-.109-1.042-.438-2.083-.986-3.124-.603-1.096-1.151-1.535-1.644-1.315zM98.742 36.858c-.494-.164-1.014.301-1.562 1.397-.548 1.042-.877 2.083-.987 3.124-.164 1.041-.027 1.754.411 2.137.493.165 1.041-.274 1.644-1.315.548-1.096.877-2.165.987-3.206.11-1.041-.055-1.753-.493-2.137zm-5.508-.575c-.439.328-.603 1.013-.493 2.055.11 1.04.465 2.11 1.068 3.206.548 1.04 1.069 1.48 1.562 1.315.439-.384.603-1.096.493-2.138-.11-1.04-.438-2.082-.986-3.123-.603-1.096-1.15-1.535-1.644-1.316zM98.742 42.896c-.494-.165-1.014.301-1.562 1.397-.548 1.041-.877 2.083-.987 3.124-.164 1.041-.027 1.754.411 2.137.493.165 1.041-.274 1.644-1.315.548-1.096.877-2.165.987-3.206.11-1.041-.055-1.754-.493-2.137zm-5.508-.576c-.439.33-.603 1.014-.493 2.055.11 1.042.465 2.11 1.068 3.206.548 1.042 1.069 1.48 1.562 1.316.439-.384.603-1.096.493-2.138-.11-1.04-.438-2.082-.986-3.123-.603-1.097-1.15-1.535-1.644-1.316zM98.742 48.934c-.494-.165-1.014.301-1.562 1.397-.548 1.041-.877 2.083-.987 3.124-.164 1.041-.027 1.754.411 2.137.493.165 1.041-.274 1.644-1.315.548-1.096.877-2.165.987-3.206.11-1.041-.055-1.754-.493-2.137zm-5.508-.576c-.439.33-.603 1.014-.493 2.055.11 1.042.465 2.11 1.068 3.206.548 1.041 1.069 1.48 1.562 1.316.439-.384.603-1.096.493-2.138-.11-1.041-.438-2.082-.986-3.123-.603-1.096-1.15-1.535-1.644-1.316zM98.742 54.972c-.494-.165-1.014.301-1.562 1.397-.548 1.041-.877 2.083-.987 3.124-.164 1.041-.027 1.753.411 2.137.493.165 1.041-.274 1.644-1.315.548-1.096.877-2.165.987-3.206.11-1.041-.055-1.754-.493-2.137zm-5.508-.576c-.439.329-.603 1.014-.493 2.055.11 1.042.465 2.11 1.068 3.206.548 1.042 1.069 1.48 1.562 1.316.439-.384.603-1.096.493-2.138-.11-1.041-.438-2.082-.986-3.123-.603-1.097-1.15-1.535-1.644-1.316zM98.742 61.01c-.494-.165-1.014.3-1.562 1.397-.548 1.041-.877 2.083-.987 3.124-.164 1.04-.027 1.753.411 2.137.493.164 1.041-.274 1.644-1.315.548-1.096.877-2.165.987-3.206.11-1.041-.055-1.754-.493-2.137zm-5.508-.576c-.439.329-.603 1.014-.493 2.055.11 1.041.465 2.11 1.068 3.206.548 1.041 1.069 1.48 1.562 1.315.439-.383.603-1.096.493-2.137-.11-1.041-.438-2.082-.986-3.124-.603-1.096-1.15-1.534-1.644-1.315zM98.742 103.275c-.494-.164-1.014.302-1.562 1.398-.548 1.041-.877 2.082-.987 3.123-.164 1.042-.027 1.754.411 2.138.493.164 1.041-.274 1.644-1.316.548-1.096.877-2.164.987-3.206.11-1.041-.055-1.753-.493-2.137zm-5.508-.575c-.439.329-.603 1.014-.493 2.055.11 1.041.465 2.11 1.068 3.206.548 1.041 1.069 1.479 1.562 1.315.439-.384.603-1.096.493-2.137-.11-1.042-.438-2.083-.986-3.124-.603-1.096-1.15-1.535-1.644-1.315zM98.742 109.313c-.494-.164-1.014.302-1.562 1.398-.548 1.041-.877 2.082-.987 3.123-.164 1.042-.027 1.754.411 2.138.493.164 1.041-.274 1.644-1.316.548-1.096.877-2.164.987-3.206.11-1.041-.055-1.753-.493-2.137zm-5.508-.575c-.439.328-.603 1.014-.493 2.055.11 1.041.465 2.11 1.068 3.206.548 1.041 1.069 1.479 1.562 1.315.439-.384.603-1.096.493-2.137-.11-1.042-.438-2.083-.986-3.124-.603-1.096-1.15-1.535-1.644-1.315zM91.54 36.858c-.493-.164-1.014.301-1.562 1.397-.548 1.042-.876 2.083-.986 3.124-.164 1.041-.027 1.754.411 2.137.493.165 1.041-.274 1.644-1.315.548-1.096.877-2.165.987-3.206.11-1.041-.055-1.753-.494-2.137zm-5.507-.575c-.439.328-.603 1.013-.494 2.055.11 1.04.466 2.11 1.07 3.206.547 1.04 1.068 1.48 1.561 1.315.438-.384.603-1.096.493-2.138-.11-1.04-.438-2.082-.986-3.123-.603-1.096-1.151-1.535-1.644-1.316zM91.54 42.896c-.493-.165-1.014.301-1.562 1.397-.548 1.041-.876 2.083-.986 3.124-.164 1.041-.027 1.754.411 2.137.493.165 1.041-.274 1.644-1.315.548-1.096.877-2.165.987-3.206.11-1.041-.055-1.754-.494-2.137zm-5.507-.576c-.439.33-.603 1.014-.494 2.055.11 1.042.466 2.11 1.07 3.206.547 1.042 1.068 1.48 1.561 1.316.438-.384.603-1.096.493-2.138-.11-1.04-.438-2.082-.986-3.123-.603-1.097-1.151-1.535-1.644-1.316zM91.54 48.934c-.493-.165-1.014.301-1.562 1.397-.548 1.041-.876 2.083-.986 3.124-.164 1.041-.027 1.754.411 2.137.493.165 1.041-.274 1.644-1.315.548-1.096.877-2.165.987-3.206.11-1.041-.055-1.754-.494-2.137zm-5.507-.576c-.439.33-.603 1.014-.494 2.055.11 1.042.466 2.11 1.07 3.206.547 1.041 1.068 1.48 1.561 1.316.438-.384.603-1.096.493-2.138-.11-1.041-.438-2.082-.986-3.123-.603-1.096-1.151-1.535-1.644-1.316zM91.54 54.972c-.493-.165-1.014.301-1.562 1.397-.548 1.041-.876 2.083-.986 3.124-.164 1.041-.027 1.753.411 2.137.493.165 1.041-.274 1.644-1.315.548-1.096.877-2.165.987-3.206.11-1.041-.055-1.754-.494-2.137zm-5.507-.576c-.439.329-.603 1.014-.494 2.055.11 1.042.466 2.11 1.07 3.206.547 1.042 1.068 1.48 1.561 1.316.438-.384.603-1.096.493-2.138-.11-1.041-.438-2.082-.986-3.123-.603-1.097-1.151-1.535-1.644-1.316zM91.54 61.01c-.493-.165-1.014.3-1.562 1.397-.548 1.041-.876 2.083-.986 3.124-.164 1.04-.027 1.753.411 2.137.493.164 1.041-.274 1.644-1.315.548-1.096.877-2.165.987-3.206.11-1.041-.055-1.754-.494-2.137zm-5.507-.576c-.439.329-.603 1.014-.494 2.055.11 1.041.466 2.11 1.07 3.206.547 1.041 1.068 1.48 1.561 1.315.438-.383.603-1.096.493-2.137-.11-1.041-.438-2.082-.986-3.124-.603-1.096-1.151-1.534-1.644-1.315zM84.34 36.858c-.494-.164-1.015.301-1.563 1.397-.548 1.042-.877 2.083-.986 3.124-.165 1.041-.028 1.754.41 2.137.494.165 1.042-.274 1.645-1.315.548-1.096.877-2.165.986-3.206.11-1.041-.054-1.753-.493-2.137zm-5.508-.575c-.439.328-.603 1.013-.494 2.055.11 1.04.466 2.11 1.069 3.206.548 1.04 1.069 1.48 1.562 1.315.438-.384.603-1.096.493-2.138-.11-1.04-.438-2.082-.986-3.123-.603-1.096-1.151-1.535-1.644-1.316zM84.34 42.896c-.494-.165-1.015.301-1.563 1.397-.548 1.041-.877 2.083-.986 3.124-.165 1.041-.028 1.754.41 2.137.494.165 1.042-.274 1.645-1.315.548-1.096.877-2.165.986-3.206.11-1.041-.054-1.754-.493-2.137zm-5.508-.576c-.439.33-.603 1.014-.494 2.055.11 1.042.466 2.11 1.069 3.206.548 1.042 1.069 1.48 1.562 1.316.438-.384.603-1.096.493-2.138-.11-1.04-.438-2.082-.986-3.123-.603-1.097-1.151-1.535-1.644-1.316zM84.34 48.934c-.494-.165-1.015.301-1.563 1.397-.548 1.041-.877 2.083-.986 3.124-.165 1.041-.028 1.754.41 2.137.494.165 1.042-.274 1.645-1.315.548-1.096.877-2.165.986-3.206.11-1.041-.054-1.754-.493-2.137zm-5.508-.576c-.439.33-.603 1.014-.494 2.055.11 1.042.466 2.11 1.069 3.206.548 1.041 1.069 1.48 1.562 1.316.438-.384.603-1.096.493-2.138-.11-1.041-.438-2.082-.986-3.123-.603-1.096-1.151-1.535-1.644-1.316zM84.34 54.972c-.494-.165-1.015.301-1.563 1.397-.548 1.041-.877 2.083-.986 3.124-.165 1.041-.028 1.753.41 2.137.494.165 1.042-.274 1.645-1.315.548-1.096.877-2.165.986-3.206.11-1.041-.054-1.754-.493-2.137zm-5.508-.576c-.439.329-.603 1.014-.494 2.055.11 1.042.466 2.11 1.069 3.206.548 1.042 1.069 1.48 1.562 1.316.438-.384.603-1.096.493-2.138-.11-1.041-.438-2.082-.986-3.123-.603-1.097-1.151-1.535-1.644-1.316zM84.34 61.01c-.494-.165-1.015.3-1.563 1.397-.548 1.041-.877 2.083-.986 3.124-.165 1.04-.028 1.753.41 2.137.494.164 1.042-.274 1.645-1.315.548-1.096.877-2.165.986-3.206.11-1.041-.054-1.754-.493-2.137zm-5.508-.576c-.439.329-.603 1.014-.494 2.055.11 1.041.466 2.11 1.069 3.206.548 1.041 1.069 1.48 1.562 1.315.438-.383.603-1.096.493-2.137-.11-1.041-.438-2.082-.986-3.124-.603-1.096-1.151-1.534-1.644-1.315zM84.34 67.047c-.494-.164-1.015.302-1.563 1.398-.548 1.041-.877 2.082-.986 3.124-.165 1.04-.028 1.753.41 2.137.494.164 1.042-.274 1.645-1.315.548-1.096.877-2.165.986-3.206.11-1.041-.054-1.754-.493-2.138zm-5.508-.575c-.439.329-.603 1.014-.494 2.055.11 1.041.466 2.11 1.069 3.206.548 1.041 1.069 1.48 1.562 1.315.438-.383.603-1.096.493-2.137-.11-1.041-.438-2.082-.986-3.124-.603-1.096-1.151-1.534-1.644-1.315zM84.34 73.085c-.494-.164-1.015.302-1.563 1.398-.548 1.041-.877 2.082-.986 3.124-.165 1.04-.028 1.753.41 2.137.494.164 1.042-.274 1.645-1.315.548-1.096.877-2.165.986-3.206.11-1.041-.054-1.754-.493-2.138zm-5.508-.575c-.439.329-.603 1.014-.494 2.055.11 1.041.466 2.11 1.069 3.206.548 1.041 1.069 1.48 1.562 1.315.438-.383.603-1.096.493-2.137-.11-1.041-.438-2.082-.986-3.124-.603-1.096-1.151-1.534-1.644-1.315zM84.34 79.123c-.494-.164-1.015.302-1.563 1.398-.548 1.041-.877 2.082-.986 3.124-.165 1.04-.028 1.753.41 2.137.494.164 1.042-.274 1.645-1.315.548-1.096.877-2.165.986-3.206.11-1.042-.054-1.754-.493-2.138zm-5.508-.575c-.439.329-.603 1.014-.494 2.055.11 1.041.466 2.11 1.069 3.206.548 1.041 1.069 1.48 1.562 1.315.438-.383.603-1.096.493-2.137-.11-1.041-.438-2.082-.986-3.124-.603-1.096-1.151-1.534-1.644-1.315zM84.34 85.161c-.494-.164-1.015.302-1.563 1.398-.548 1.041-.877 2.082-.986 3.124-.165 1.04-.028 1.753.41 2.137.494.164 1.042-.274 1.645-1.315.548-1.096.877-2.165.986-3.206.11-1.042-.054-1.754-.493-2.138zm-5.508-.575c-.439.329-.603 1.014-.494 2.055.11 1.041.466 2.11 1.069 3.206.548 1.041 1.069 1.48 1.562 1.315.438-.383.603-1.096.493-2.137-.11-1.041-.438-2.083-.986-3.124-.603-1.096-1.151-1.534-1.644-1.315zM84.34 91.2c-.494-.165-1.015.3-1.563 1.397-.548 1.04-.877 2.082-.986 3.123-.165 1.042-.028 1.754.41 2.138.494.164 1.042-.274 1.645-1.316.548-1.096.877-2.164.986-3.206.11-1.04-.054-1.753-.493-2.137zm-5.508-.576c-.439.329-.603 1.014-.494 2.055.11 1.041.466 2.11 1.069 3.206.548 1.041 1.069 1.48 1.562 1.315.438-.384.603-1.096.493-2.137-.11-1.041-.438-2.083-.986-3.124-.603-1.096-1.151-1.534-1.644-1.315zM84.34 97.237c-.494-.164-1.015.302-1.563 1.398-.548 1.04-.877 2.082-.986 3.123-.165 1.042-.028 1.754.41 2.138.494.164 1.042-.274 1.645-1.316.548-1.096.877-2.164.986-3.206.11-1.04-.054-1.753-.493-2.137zm-5.508-.575c-.439.329-.603 1.014-.494 2.055.11 1.041.466 2.11 1.069 3.206.548 1.041 1.069 1.479 1.562 1.315.438-.384.603-1.096.493-2.137-.11-1.042-.438-2.083-.986-3.124-.603-1.096-1.151-1.535-1.644-1.315zM84.34 103.275c-.494-.164-1.015.302-1.563 1.398-.548 1.041-.877 2.082-.986 3.123-.165 1.042-.028 1.754.41 2.138.494.164 1.042-.274 1.645-1.316.548-1.096.877-2.164.986-3.206.11-1.041-.054-1.753-.493-2.137zm-5.508-.575c-.439.329-.603 1.014-.494 2.055.11 1.041.466 2.11 1.069 3.206.548 1.041 1.069 1.479 1.562 1.315.438-.384.603-1.096.493-2.137-.11-1.042-.438-2.083-.986-3.124-.603-1.096-1.151-1.535-1.644-1.315zM77.136.63c-.493-.164-1.014.302-1.562 1.398-.548 1.04-.877 2.082-.986 3.123-.165 1.042-.028 1.754.41 2.138.494.164 1.042-.274 1.645-1.316.548-1.096.877-2.164.986-3.205.11-1.042-.055-1.754-.493-2.138zM71.628.055c-.438.329-.603 1.014-.493 2.055.11 1.041.466 2.11 1.069 3.206.548 1.041 1.068 1.48 1.562 1.315.438-.384.602-1.096.493-2.137-.11-1.041-.439-2.083-.987-3.124C72.67.274 72.122-.164 71.628.055zM77.136 6.668c-.493-.164-1.014.301-1.562 1.398-.548 1.04-.877 2.082-.986 3.123-.165 1.041-.028 1.754.41 2.138.494.164 1.042-.274 1.645-1.316.548-1.096.877-2.164.986-3.206.11-1.04-.055-1.753-.493-2.137zm-5.508-.575c-.438.328-.603 1.013-.493 2.055.11 1.041.466 2.11 1.069 3.206.548 1.04 1.068 1.48 1.562 1.315.438-.384.602-1.096.493-2.137-.11-1.042-.439-2.083-.987-3.124-.602-1.096-1.15-1.535-1.644-1.315zM77.136 36.858c-.493-.164-1.014.301-1.562 1.397-.548 1.042-.877 2.083-.986 3.124-.165 1.041-.028 1.754.41 2.137.494.165 1.042-.274 1.645-1.315.548-1.096.877-2.165.986-3.206.11-1.041-.055-1.753-.493-2.137zm-5.508-.575c-.438.328-.603 1.013-.493 2.055.11 1.04.466 2.11 1.069 3.206.548 1.04 1.068 1.48 1.562 1.315.438-.384.602-1.096.493-2.138-.11-1.04-.439-2.082-.987-3.123-.602-1.096-1.15-1.535-1.644-1.316zM77.136 42.896c-.493-.165-1.014.301-1.562 1.397-.548 1.041-.877 2.083-.986 3.124-.165 1.041-.028 1.754.41 2.137.494.165 1.042-.274 1.645-1.315.548-1.096.877-2.165.986-3.206.11-1.041-.055-1.754-.493-2.137zm-5.508-.576c-.438.33-.603 1.014-.493 2.055.11 1.042.466 2.11 1.069 3.206.548 1.042 1.068 1.48 1.562 1.316.438-.384.602-1.096.493-2.138-.11-1.04-.439-2.082-.987-3.123-.602-1.097-1.15-1.535-1.644-1.316zM77.136 48.934c-.493-.165-1.014.301-1.562 1.397-.548 1.041-.877 2.083-.986 3.124-.165 1.041-.028 1.754.41 2.137.494.165 1.042-.274 1.645-1.315.548-1.096.877-2.165.986-3.206.11-1.041-.055-1.754-.493-2.137zm-5.508-.576c-.438.33-.603 1.014-.493 2.055.11 1.042.466 2.11 1.069 3.206.548 1.041 1.068 1.48 1.562 1.316.438-.384.602-1.096.493-2.138-.11-1.041-.439-2.082-.987-3.123-.602-1.096-1.15-1.535-1.644-1.316zM77.136 54.972c-.493-.165-1.014.301-1.562 1.397-.548 1.041-.877 2.083-.986 3.124-.165 1.041-.028 1.753.41 2.137.494.165 1.042-.274 1.645-1.315.548-1.096.877-2.165.986-3.206.11-1.041-.055-1.754-.493-2.137zm-5.508-.576c-.438.329-.603 1.014-.493 2.055.11 1.042.466 2.11 1.069 3.206.548 1.042 1.068 1.48 1.562 1.316.438-.384.602-1.096.493-2.138-.11-1.041-.439-2.082-.987-3.123-.602-1.097-1.15-1.535-1.644-1.316zM77.136 61.01c-.493-.165-1.014.3-1.562 1.397-.548 1.041-.877 2.083-.986 3.124-.165 1.04-.028 1.753.41 2.137.494.164 1.042-.274 1.645-1.315.548-1.096.877-2.165.986-3.206.11-1.041-.055-1.754-.493-2.137zm-5.508-.576c-.438.329-.603 1.014-.493 2.055.11 1.041.466 2.11 1.069 3.206.548 1.041 1.068 1.48 1.562 1.315.438-.383.602-1.096.493-2.137-.11-1.041-.439-2.082-.987-3.124-.602-1.096-1.15-1.534-1.644-1.315zM77.136 67.047c-.493-.164-1.014.302-1.562 1.398-.548 1.041-.877 2.082-.986 3.124-.165 1.04-.028 1.753.41 2.137.494.164 1.042-.274 1.645-1.315.548-1.096.877-2.165.986-3.206.11-1.041-.055-1.754-.493-2.138zm-5.508-.575c-.438.329-.603 1.014-.493 2.055.11 1.041.466 2.11 1.069 3.206.548 1.041 1.068 1.48 1.562 1.315.438-.383.602-1.096.493-2.137-.11-1.041-.439-2.082-.987-3.124-.602-1.096-1.15-1.534-1.644-1.315zM77.136 73.085c-.493-.164-1.014.302-1.562 1.398-.548 1.041-.877 2.082-.986 3.124-.165 1.04-.028 1.753.41 2.137.494.164 1.042-.274 1.645-1.315.548-1.096.877-2.165.986-3.206.11-1.041-.055-1.754-.493-2.138zm-5.508-.575c-.438.329-.603 1.014-.493 2.055.11 1.041.466 2.11 1.069 3.206.548 1.041 1.068 1.48 1.562 1.315.438-.383.602-1.096.493-2.137-.11-1.041-.439-2.082-.987-3.124-.602-1.096-1.15-1.534-1.644-1.315zM77.136 103.275c-.493-.164-1.014.302-1.562 1.398-.548 1.041-.877 2.082-.986 3.123-.165 1.042-.028 1.754.41 2.138.494.164 1.042-.274 1.645-1.316.548-1.096.877-2.164.986-3.206.11-1.041-.055-1.753-.493-2.137zm-5.508-.575c-.438.329-.603 1.014-.493 2.055.11 1.041.466 2.11 1.069 3.206.548 1.041 1.068 1.479 1.562 1.315.438-.384.602-1.096.493-2.137-.11-1.042-.439-2.083-.987-3.124-.602-1.096-1.15-1.535-1.644-1.315zM77.136 109.313c-.493-.164-1.014.302-1.562 1.398-.548 1.041-.877 2.082-.986 3.123-.165 1.042-.028 1.754.41 2.138.494.164 1.042-.274 1.645-1.316.548-1.096.877-2.164.986-3.206.11-1.041-.055-1.753-.493-2.137zm-5.508-.575c-.438.328-.603 1.014-.493 2.055.11 1.041.466 2.11 1.069 3.206.548 1.041 1.068 1.479 1.562 1.315.438-.384.602-1.096.493-2.137-.11-1.042-.439-2.083-.987-3.124-.602-1.096-1.15-1.535-1.644-1.315zM69.935 6.668c-.493-.164-1.014.301-1.562 1.398-.548 1.04-.877 2.082-.987 3.123-.164 1.041-.027 1.754.412 2.138.493.164 1.04-.274 1.644-1.316.548-1.096.877-2.164.986-3.206.11-1.04-.055-1.753-.493-2.137zm-5.508-.575c-.438.328-.603 1.013-.493 2.055.11 1.041.466 2.11 1.069 3.206.548 1.04 1.068 1.48 1.561 1.315.439-.384.603-1.096.494-2.137-.11-1.042-.439-2.083-.987-3.124-.603-1.096-1.15-1.535-1.644-1.315zM69.935 36.858c-.493-.164-1.014.301-1.562 1.397-.548 1.042-.877 2.083-.987 3.124-.164 1.041-.027 1.754.412 2.137.493.165 1.04-.274 1.644-1.315.548-1.096.877-2.165.986-3.206.11-1.041-.055-1.753-.493-2.137zm-5.508-.575c-.438.328-.603 1.013-.493 2.055.11 1.04.466 2.11 1.069 3.206.548 1.04 1.068 1.48 1.561 1.315.439-.384.603-1.096.494-2.138-.11-1.04-.439-2.082-.987-3.123-.603-1.096-1.15-1.535-1.644-1.316zM69.935 42.896c-.493-.165-1.014.301-1.562 1.397-.548 1.041-.877 2.083-.987 3.124-.164 1.041-.027 1.754.412 2.137.493.165 1.04-.274 1.644-1.315.548-1.096.877-2.165.986-3.206.11-1.041-.055-1.754-.493-2.137zm-5.508-.576c-.438.33-.603 1.014-.493 2.055.11 1.042.466 2.11 1.069 3.206.548 1.042 1.068 1.48 1.561 1.316.439-.384.603-1.096.494-2.138-.11-1.04-.439-2.082-.987-3.123-.603-1.097-1.15-1.535-1.644-1.316zM69.935 48.934c-.493-.165-1.014.301-1.562 1.397-.548 1.041-.877 2.083-.987 3.124-.164 1.041-.027 1.754.412 2.137.493.165 1.04-.274 1.644-1.315.548-1.096.877-2.165.986-3.206.11-1.041-.055-1.754-.493-2.137zm-5.508-.576c-.438.33-.603 1.014-.493 2.055.11 1.042.466 2.11 1.069 3.206.548 1.041 1.068 1.48 1.561 1.316.439-.384.603-1.096.494-2.138-.11-1.041-.439-2.082-.987-3.123-.603-1.096-1.15-1.535-1.644-1.316zM69.935 54.972c-.493-.165-1.014.301-1.562 1.397-.548 1.041-.877 2.083-.987 3.124-.164 1.041-.027 1.753.412 2.137.493.165 1.04-.274 1.644-1.315.548-1.096.877-2.165.986-3.206.11-1.041-.055-1.754-.493-2.137zm-5.508-.576c-.438.329-.603 1.014-.493 2.055.11 1.042.466 2.11 1.069 3.206.548 1.042 1.068 1.48 1.561 1.316.439-.384.603-1.096.494-2.138-.11-1.041-.439-2.082-.987-3.123-.603-1.097-1.15-1.535-1.644-1.316zM69.935 61.01c-.493-.165-1.014.3-1.562 1.397-.548 1.041-.877 2.083-.987 3.124-.164 1.04-.027 1.753.412 2.137.493.164 1.04-.274 1.644-1.315.548-1.096.877-2.165.986-3.206.11-1.041-.055-1.754-.493-2.137zm-5.508-.576c-.438.329-.603 1.014-.493 2.055.11 1.041.466 2.11 1.069 3.206.548 1.041 1.068 1.48 1.561 1.315.439-.383.603-1.096.494-2.137-.11-1.041-.439-2.082-.987-3.124-.603-1.096-1.15-1.534-1.644-1.315zM69.935 67.047c-.493-.164-1.014.302-1.562 1.398-.548 1.041-.877 2.082-.987 3.124-.164 1.04-.027 1.753.412 2.137.493.164 1.04-.274 1.644-1.315.548-1.096.877-2.165.986-3.206.11-1.041-.055-1.754-.493-2.138zm-5.508-.575c-.438.329-.603 1.014-.493 2.055.11 1.041.466 2.11 1.069 3.206.548 1.041 1.068 1.48 1.561 1.315.439-.383.603-1.096.494-2.137-.11-1.041-.439-2.082-.987-3.124-.603-1.096-1.15-1.534-1.644-1.315zM62.732.63c-.493-.164-1.014.302-1.562 1.398-.548 1.04-.877 2.082-.987 3.123-.164 1.042-.027 1.754.411 2.138.494.164 1.042-.274 1.645-1.316.547-1.096.876-2.164.986-3.205.11-1.042-.055-1.754-.493-2.138zM57.224.055c-.438.329-.603 1.014-.493 2.055.11 1.041.466 2.11 1.069 3.206.547 1.041 1.068 1.48 1.561 1.315.439-.384.603-1.096.494-2.137-.11-1.041-.439-2.083-.987-3.124-.603-1.096-1.15-1.534-1.644-1.315zM62.732 6.668c-.493-.164-1.014.301-1.562 1.398-.548 1.04-.877 2.082-.987 3.123-.164 1.041-.027 1.754.411 2.138.494.164 1.042-.274 1.645-1.316.547-1.096.876-2.164.986-3.206.11-1.04-.055-1.753-.493-2.137zm-5.508-.575c-.438.328-.603 1.013-.493 2.055.11 1.041.466 2.11 1.069 3.206.547 1.04 1.068 1.48 1.561 1.315.439-.384.603-1.096.494-2.137-.11-1.042-.439-2.083-.987-3.124-.603-1.096-1.15-1.535-1.644-1.315zM62.732 12.706c-.493-.164-1.014.302-1.562 1.398-.548 1.04-.877 2.082-.987 3.123-.164 1.042-.027 1.754.411 2.138.494.164 1.042-.274 1.645-1.316.547-1.096.876-2.164.986-3.206.11-1.04-.055-1.753-.493-2.137zm-5.508-.575c-.438.329-.603 1.014-.493 2.055.11 1.041.466 2.11 1.069 3.206.547 1.041 1.068 1.48 1.561 1.315.439-.384.603-1.096.494-2.137-.11-1.042-.439-2.083-.987-3.124-.603-1.096-1.15-1.534-1.644-1.315zM62.732 36.858c-.493-.164-1.014.301-1.562 1.397-.548 1.042-.877 2.083-.987 3.124-.164 1.041-.027 1.754.411 2.137.494.165 1.042-.274 1.645-1.315.547-1.096.876-2.165.986-3.206.11-1.041-.055-1.753-.493-2.137zm-5.508-.575c-.438.328-.603 1.013-.493 2.055.11 1.04.466 2.11 1.069 3.206.547 1.04 1.068 1.48 1.561 1.315.439-.384.603-1.096.494-2.138-.11-1.04-.439-2.082-.987-3.123-.603-1.096-1.15-1.535-1.644-1.316zM62.732 42.896c-.493-.165-1.014.301-1.562 1.397-.548 1.041-.877 2.083-.987 3.124-.164 1.041-.027 1.754.411 2.137.494.165 1.042-.274 1.645-1.315.547-1.096.876-2.165.986-3.206.11-1.041-.055-1.754-.493-2.137zm-5.508-.576c-.438.33-.603 1.014-.493 2.055.11 1.042.466 2.11 1.069 3.206.547 1.042 1.068 1.48 1.561 1.316.439-.384.603-1.096.494-2.138-.11-1.04-.439-2.082-.987-3.123-.603-1.097-1.15-1.535-1.644-1.316zM62.732 48.934c-.493-.165-1.014.301-1.562 1.397-.548 1.041-.877 2.083-.987 3.124-.164 1.041-.027 1.754.411 2.137.494.165 1.042-.274 1.645-1.315.547-1.096.876-2.165.986-3.206.11-1.041-.055-1.754-.493-2.137zm-5.508-.576c-.438.33-.603 1.014-.493 2.055.11 1.042.466 2.11 1.069 3.206.547 1.041 1.068 1.48 1.561 1.316.439-.384.603-1.096.494-2.138-.11-1.041-.439-2.082-.987-3.123-.603-1.096-1.15-1.535-1.644-1.316zM62.732 54.972c-.493-.165-1.014.301-1.562 1.397-.548 1.041-.877 2.083-.987 3.124-.164 1.041-.027 1.753.411 2.137.494.165 1.042-.274 1.645-1.315.547-1.096.876-2.165.986-3.206.11-1.041-.055-1.754-.493-2.137zm-5.508-.576c-.438.329-.603 1.014-.493 2.055.11 1.042.466 2.11 1.069 3.206.547 1.042 1.068 1.48 1.561 1.316.439-.384.603-1.096.494-2.138-.11-1.041-.439-2.082-.987-3.123-.603-1.097-1.15-1.535-1.644-1.316zM62.732 61.01c-.493-.165-1.014.3-1.562 1.397-.548 1.041-.877 2.083-.987 3.124-.164 1.04-.027 1.753.411 2.137.494.164 1.042-.274 1.645-1.315.547-1.096.876-2.165.986-3.206.11-1.041-.055-1.754-.493-2.137zm-5.508-.576c-.438.329-.603 1.014-.493 2.055.11 1.041.466 2.11 1.069 3.206.547 1.041 1.068 1.48 1.561 1.315.439-.383.603-1.096.494-2.137-.11-1.041-.439-2.082-.987-3.124-.603-1.096-1.15-1.534-1.644-1.315zM62.732 67.047c-.493-.164-1.014.302-1.562 1.398-.548 1.041-.877 2.082-.987 3.124-.164 1.04-.027 1.753.411 2.137.494.164 1.042-.274 1.645-1.315.547-1.096.876-2.165.986-3.206.11-1.041-.055-1.754-.493-2.138zm-5.508-.575c-.438.329-.603 1.014-.493 2.055.11 1.041.466 2.11 1.069 3.206.547 1.041 1.068 1.48 1.561 1.315.439-.383.603-1.096.494-2.137-.11-1.041-.439-2.082-.987-3.124-.603-1.096-1.15-1.534-1.644-1.315zM62.732 73.085c-.493-.164-1.014.302-1.562 1.398-.548 1.041-.877 2.082-.987 3.124-.164 1.04-.027 1.753.411 2.137.494.164 1.042-.274 1.645-1.315.547-1.096.876-2.165.986-3.206.11-1.041-.055-1.754-.493-2.138zm-5.508-.575c-.438.329-.603 1.014-.493 2.055.11 1.041.466 2.11 1.069 3.206.547 1.041 1.068 1.48 1.561 1.315.439-.383.603-1.096.494-2.137-.11-1.041-.439-2.082-.987-3.124-.603-1.096-1.15-1.534-1.644-1.315zM55.53 18.744c-.493-.164-1.013.301-1.561 1.398-.548 1.04-.877 2.082-.987 3.123-.164 1.041-.027 1.754.411 2.137.493.165 1.041-.274 1.644-1.315.548-1.096.877-2.165.987-3.206.11-1.041-.055-1.753-.493-2.137zm-5.507-.575c-.439.328-.603 1.013-.493 2.055.11 1.04.465 2.11 1.068 3.206.548 1.04 1.069 1.48 1.562 1.315.439-.384.603-1.096.493-2.137-.11-1.042-.438-2.083-.986-3.124-.603-1.096-1.15-1.535-1.644-1.315zM55.53 30.82c-.493-.165-1.013.301-1.561 1.397-.548 1.041-.877 2.083-.987 3.124-.164 1.041-.027 1.754.411 2.137.493.165 1.041-.274 1.644-1.315.548-1.096.877-2.165.987-3.206.11-1.041-.055-1.754-.493-2.137zm-5.507-.576c-.439.33-.603 1.014-.493 2.056.11 1.04.465 2.11 1.068 3.205.548 1.042 1.069 1.48 1.562 1.316.439-.384.603-1.096.493-2.138-.11-1.04-.438-2.082-.986-3.123-.603-1.096-1.15-1.535-1.644-1.316zM55.53 36.858c-.493-.164-1.013.301-1.561 1.397-.548 1.042-.877 2.083-.987 3.124-.164 1.041-.027 1.754.411 2.137.493.165 1.041-.274 1.644-1.315.548-1.096.877-2.165.987-3.206.11-1.041-.055-1.753-.493-2.137zm-5.507-.575c-.439.328-.603 1.013-.493 2.055.11 1.04.465 2.11 1.068 3.206.548 1.04 1.069 1.48 1.562 1.315.439-.384.603-1.096.493-2.138-.11-1.04-.438-2.082-.986-3.123-.603-1.096-1.15-1.535-1.644-1.316zM55.53 42.896c-.493-.165-1.013.301-1.561 1.397-.548 1.041-.877 2.083-.987 3.124-.164 1.041-.027 1.754.411 2.137.493.165 1.041-.274 1.644-1.315.548-1.096.877-2.165.987-3.206.11-1.041-.055-1.754-.493-2.137zm-5.507-.576c-.439.33-.603 1.014-.493 2.055.11 1.042.465 2.11 1.068 3.206.548 1.042 1.069 1.48 1.562 1.316.439-.384.603-1.096.493-2.138-.11-1.04-.438-2.082-.986-3.123-.603-1.097-1.15-1.535-1.644-1.316zM55.53 48.934c-.493-.165-1.013.301-1.561 1.397-.548 1.041-.877 2.083-.987 3.124-.164 1.041-.027 1.754.411 2.137.493.165 1.041-.274 1.644-1.315.548-1.096.877-2.165.987-3.206.11-1.041-.055-1.754-.493-2.137zm-5.507-.576c-.439.33-.603 1.014-.493 2.055.11 1.042.465 2.11 1.068 3.206.548 1.041 1.069 1.48 1.562 1.316.439-.384.603-1.096.493-2.138-.11-1.041-.438-2.082-.986-3.123-.603-1.096-1.15-1.535-1.644-1.316zM55.53 54.972c-.493-.165-1.013.301-1.561 1.397-.548 1.041-.877 2.083-.987 3.124-.164 1.041-.027 1.753.411 2.137.493.165 1.041-.274 1.644-1.315.548-1.096.877-2.165.987-3.206.11-1.041-.055-1.754-.493-2.137zm-5.507-.576c-.439.329-.603 1.014-.493 2.055.11 1.042.465 2.11 1.068 3.206.548 1.042 1.069 1.48 1.562 1.316.439-.384.603-1.096.493-2.138-.11-1.041-.438-2.082-.986-3.123-.603-1.097-1.15-1.535-1.644-1.316zM55.53 61.01c-.493-.165-1.013.3-1.561 1.397-.548 1.041-.877 2.083-.987 3.124-.164 1.04-.027 1.753.411 2.137.493.164 1.041-.274 1.644-1.315.548-1.096.877-2.165.987-3.206.11-1.041-.055-1.754-.493-2.137zm-5.507-.576c-.439.329-.603 1.014-.493 2.055.11 1.041.465 2.11 1.068 3.206.548 1.041 1.069 1.48 1.562 1.315.439-.383.603-1.096.493-2.137-.11-1.041-.438-2.082-.986-3.124-.603-1.096-1.15-1.534-1.644-1.315zM55.53 67.047c-.493-.164-1.013.302-1.561 1.398-.548 1.041-.877 2.082-.987 3.124-.164 1.04-.027 1.753.411 2.137.493.164 1.041-.274 1.644-1.315.548-1.096.877-2.165.987-3.206.11-1.041-.055-1.754-.493-2.138zm-5.507-.575c-.439.329-.603 1.014-.493 2.055.11 1.041.465 2.11 1.068 3.206.548 1.041 1.069 1.48 1.562 1.315.439-.383.603-1.096.493-2.137-.11-1.041-.438-2.082-.986-3.124-.603-1.096-1.15-1.534-1.644-1.315zM55.53 73.085c-.493-.164-1.013.302-1.561 1.398-.548 1.041-.877 2.082-.987 3.124-.164 1.04-.027 1.753.411 2.137.493.164 1.041-.274 1.644-1.315.548-1.096.877-2.165.987-3.206.11-1.041-.055-1.754-.493-2.138zm-5.507-.575c-.439.329-.603 1.014-.493 2.055.11 1.041.465 2.11 1.068 3.206.548 1.041 1.069 1.48 1.562 1.315.439-.383.603-1.096.493-2.137-.11-1.041-.438-2.082-.986-3.124-.603-1.096-1.15-1.534-1.644-1.315zM55.53 79.123c-.493-.164-1.013.302-1.561 1.398-.548 1.041-.877 2.082-.987 3.124-.164 1.04-.027 1.753.411 2.137.493.164 1.041-.274 1.644-1.315.548-1.096.877-2.165.987-3.206.11-1.042-.055-1.754-.493-2.138zm-5.507-.575c-.439.329-.603 1.014-.493 2.055.11 1.041.465 2.11 1.068 3.206.548 1.041 1.069 1.48 1.562 1.315.439-.383.603-1.096.493-2.137-.11-1.041-.438-2.082-.986-3.124-.603-1.096-1.15-1.534-1.644-1.315zM55.53 85.161c-.493-.164-1.013.302-1.561 1.398-.548 1.041-.877 2.082-.987 3.124-.164 1.04-.027 1.753.411 2.137.493.164 1.041-.274 1.644-1.315.548-1.096.877-2.165.987-3.206.11-1.042-.055-1.754-.493-2.138zm-5.507-.575c-.439.329-.603 1.014-.493 2.055.11 1.041.465 2.11 1.068 3.206.548 1.041 1.069 1.48 1.562 1.315.439-.383.603-1.096.493-2.137-.11-1.041-.438-2.083-.986-3.124-.603-1.096-1.15-1.534-1.644-1.315zM55.53 91.2c-.493-.165-1.013.3-1.561 1.397-.548 1.04-.877 2.082-.987 3.123-.164 1.042-.027 1.754.411 2.138.493.164 1.041-.274 1.644-1.316.548-1.096.877-2.164.987-3.206.11-1.04-.055-1.753-.493-2.137zm-5.507-.576c-.439.329-.603 1.014-.493 2.055.11 1.041.465 2.11 1.068 3.206.548 1.041 1.069 1.48 1.562 1.315.439-.384.603-1.096.493-2.137-.11-1.041-.438-2.083-.986-3.124-.603-1.096-1.15-1.534-1.644-1.315zM55.53 97.237c-.493-.164-1.013.302-1.561 1.398-.548 1.04-.877 2.082-.987 3.123-.164 1.042-.027 1.754.411 2.138.493.164 1.041-.274 1.644-1.316.548-1.096.877-2.164.987-3.206.11-1.04-.055-1.753-.493-2.137zm-5.507-.575c-.439.329-.603 1.014-.493 2.055.11 1.041.465 2.11 1.068 3.206.548 1.041 1.069 1.479 1.562 1.315.439-.384.603-1.096.493-2.137-.11-1.042-.438-2.083-.986-3.124-.603-1.096-1.15-1.535-1.644-1.315zM48.33.63c-.494-.164-1.014.302-1.563 1.398-.548 1.04-.876 2.082-.986 3.123-.164 1.042-.027 1.754.411 2.138.493.164 1.041-.274 1.644-1.316.548-1.096.877-2.164.987-3.205.11-1.042-.055-1.754-.494-2.138zM42.821.055c-.439.329-.603 1.014-.494 2.055.11 1.041.466 2.11 1.07 3.206.547 1.041 1.068 1.48 1.561 1.315.438-.384.603-1.096.493-2.137-.11-1.041-.438-2.083-.986-3.124C43.863.274 43.315-.164 42.822.055zM48.33 6.668c-.494-.164-1.014.301-1.563 1.398-.548 1.04-.876 2.082-.986 3.123-.164 1.041-.027 1.754.411 2.138.493.164 1.041-.274 1.644-1.316.548-1.096.877-2.164.987-3.206.11-1.04-.055-1.753-.494-2.137zm-5.508-.575c-.439.328-.603 1.013-.494 2.055.11 1.041.466 2.11 1.07 3.206.547 1.04 1.068 1.48 1.561 1.315.438-.384.603-1.096.493-2.137-.11-1.042-.438-2.083-.986-3.124-.603-1.096-1.151-1.535-1.644-1.315zM48.33 12.706c-.494-.164-1.014.302-1.563 1.398-.548 1.04-.876 2.082-.986 3.123-.164 1.042-.027 1.754.411 2.138.493.164 1.041-.274 1.644-1.316.548-1.096.877-2.164.987-3.206.11-1.04-.055-1.753-.494-2.137zm-5.508-.575c-.439.329-.603 1.014-.494 2.055.11 1.041.466 2.11 1.07 3.206.547 1.041 1.068 1.48 1.561 1.315.438-.384.603-1.096.493-2.137-.11-1.042-.438-2.083-.986-3.124-.603-1.096-1.151-1.534-1.644-1.315zM48.33 18.744c-.494-.164-1.014.301-1.563 1.398-.548 1.04-.876 2.082-.986 3.123-.164 1.041-.027 1.754.411 2.137.493.165 1.041-.274 1.644-1.315.548-1.096.877-2.165.987-3.206.11-1.041-.055-1.753-.494-2.137zm-5.508-.575c-.439.328-.603 1.013-.494 2.055.11 1.04.466 2.11 1.07 3.206.547 1.04 1.068 1.48 1.561 1.315.438-.384.603-1.096.493-2.137-.11-1.042-.438-2.083-.986-3.124-.603-1.096-1.151-1.535-1.644-1.315zM48.33 24.782c-.494-.164-1.014.301-1.563 1.397-.548 1.042-.876 2.083-.986 3.124-.164 1.041-.027 1.754.411 2.137.493.165 1.041-.274 1.644-1.315.548-1.096.877-2.165.987-3.206.11-1.041-.055-1.753-.494-2.137zm-5.508-.576c-.439.33-.603 1.014-.494 2.056.11 1.04.466 2.11 1.07 3.206.547 1.04 1.068 1.48 1.561 1.315.438-.384.603-1.096.493-2.138-.11-1.04-.438-2.082-.986-3.123-.603-1.096-1.151-1.535-1.644-1.316zM48.33 30.82c-.494-.165-1.014.301-1.563 1.397-.548 1.041-.876 2.083-.986 3.124-.164 1.041-.027 1.754.411 2.137.493.165 1.041-.274 1.644-1.315.548-1.096.877-2.165.987-3.206.11-1.041-.055-1.754-.494-2.137zm-5.508-.576c-.439.33-.603 1.014-.494 2.056.11 1.04.466 2.11 1.07 3.205.547 1.042 1.068 1.48 1.561 1.316.438-.384.603-1.096.493-2.138-.11-1.04-.438-2.082-.986-3.123-.603-1.096-1.151-1.535-1.644-1.316zM48.33 36.858c-.494-.164-1.014.301-1.563 1.397-.548 1.042-.876 2.083-.986 3.124-.164 1.041-.027 1.754.411 2.137.493.165 1.041-.274 1.644-1.315.548-1.096.877-2.165.987-3.206.11-1.041-.055-1.753-.494-2.137zm-5.508-.575c-.439.328-.603 1.013-.494 2.055.11 1.04.466 2.11 1.07 3.206.547 1.04 1.068 1.48 1.561 1.315.438-.384.603-1.096.493-2.138-.11-1.04-.438-2.082-.986-3.123-.603-1.096-1.151-1.535-1.644-1.316zM48.33 42.896c-.494-.165-1.014.301-1.563 1.397-.548 1.041-.876 2.083-.986 3.124-.164 1.041-.027 1.754.411 2.137.493.165 1.041-.274 1.644-1.315.548-1.096.877-2.165.987-3.206.11-1.041-.055-1.754-.494-2.137zm-5.508-.576c-.439.33-.603 1.014-.494 2.055.11 1.042.466 2.11 1.07 3.206.547 1.042 1.068 1.48 1.561 1.316.438-.384.603-1.096.493-2.138-.11-1.04-.438-2.082-.986-3.123-.603-1.097-1.151-1.535-1.644-1.316zM48.33 48.934c-.494-.165-1.014.301-1.563 1.397-.548 1.041-.876 2.083-.986 3.124-.164 1.041-.027 1.754.411 2.137.493.165 1.041-.274 1.644-1.315.548-1.096.877-2.165.987-3.206.11-1.041-.055-1.754-.494-2.137zm-5.508-.576c-.439.33-.603 1.014-.494 2.055.11 1.042.466 2.11 1.07 3.206.547 1.041 1.068 1.48 1.561 1.316.438-.384.603-1.096.493-2.138-.11-1.041-.438-2.082-.986-3.123-.603-1.096-1.151-1.535-1.644-1.316zM48.33 54.972c-.494-.165-1.014.301-1.563 1.397-.548 1.041-.876 2.083-.986 3.124-.164 1.041-.027 1.753.411 2.137.493.165 1.041-.274 1.644-1.315.548-1.096.877-2.165.987-3.206.11-1.041-.055-1.754-.494-2.137zm-5.508-.576c-.439.329-.603 1.014-.494 2.055.11 1.042.466 2.11 1.07 3.206.547 1.042 1.068 1.48 1.561 1.316.438-.384.603-1.096.493-2.138-.11-1.041-.438-2.082-.986-3.123-.603-1.097-1.151-1.535-1.644-1.316zM48.33 97.237c-.494-.164-1.014.302-1.563 1.398-.548 1.04-.876 2.082-.986 3.123-.164 1.042-.027 1.754.411 2.138.493.164 1.041-.274 1.644-1.316.548-1.096.877-2.164.987-3.206.11-1.04-.055-1.753-.494-2.137zm-5.508-.575c-.439.329-.603 1.014-.494 2.055.11 1.041.466 2.11 1.07 3.206.547 1.041 1.068 1.479 1.561 1.315.438-.384.603-1.096.493-2.137-.11-1.042-.438-2.083-.986-3.124-.603-1.096-1.151-1.535-1.644-1.315zM48.33 103.275c-.494-.164-1.014.302-1.563 1.398-.548 1.041-.876 2.082-.986 3.123-.164 1.042-.027 1.754.411 2.138.493.164 1.041-.274 1.644-1.316.548-1.096.877-2.164.987-3.206.11-1.041-.055-1.753-.494-2.137zm-5.508-.575c-.439.329-.603 1.014-.494 2.055.11 1.041.466 2.11 1.07 3.206.547 1.041 1.068 1.479 1.561 1.315.438-.384.603-1.096.493-2.137-.11-1.042-.438-2.083-.986-3.124-.603-1.096-1.151-1.535-1.644-1.315zM48.33 109.313c-.494-.164-1.014.302-1.563 1.398-.548 1.041-.876 2.082-.986 3.123-.164 1.042-.027 1.754.411 2.138.493.164 1.041-.274 1.644-1.316.548-1.096.877-2.164.987-3.206.11-1.041-.055-1.753-.494-2.137zm-5.508-.575c-.439.328-.603 1.014-.494 2.055.11 1.041.466 2.11 1.07 3.206.547 1.041 1.068 1.479 1.561 1.315.438-.384.603-1.096.493-2.137-.11-1.042-.438-2.083-.986-3.124-.603-1.096-1.151-1.535-1.644-1.315zM41.355 109.313c-.493-.164-1.014.302-1.562 1.398-.548 1.041-.877 2.082-.987 3.123-.164 1.042-.027 1.754.412 2.138.493.164 1.04-.274 1.643-1.316.549-1.096.877-2.164.987-3.206.11-1.041-.055-1.753-.493-2.137zm-5.508-.575c-.438.328-.603 1.014-.493 2.055.11 1.041.466 2.11 1.069 3.206.548 1.041 1.068 1.479 1.561 1.315.439-.384.603-1.096.494-2.137-.11-1.042-.439-2.083-.987-3.124-.603-1.096-1.15-1.535-1.644-1.315zM41.126 18.744c-.493-.164-1.014.301-1.562 1.398-.548 1.04-.877 2.082-.986 3.123-.165 1.041-.028 1.754.41 2.137.494.165 1.042-.274 1.645-1.315.548-1.096.877-2.165.986-3.206.11-1.041-.054-1.753-.493-2.137zm-5.507-.575c-.439.328-.603 1.013-.494 2.055.11 1.04.466 2.11 1.069 3.206.548 1.04 1.069 1.48 1.562 1.315.438-.384.603-1.096.493-2.137-.11-1.042-.438-2.083-.986-3.124-.603-1.096-1.151-1.535-1.644-1.315zM41.126 24.782c-.493-.164-1.014.301-1.562 1.397-.548 1.042-.877 2.083-.986 3.124-.165 1.041-.028 1.754.41 2.137.494.165 1.042-.274 1.645-1.315.548-1.096.877-2.165.986-3.206.11-1.041-.054-1.753-.493-2.137zm-5.507-.576c-.439.33-.603 1.014-.494 2.056.11 1.04.466 2.11 1.069 3.206.548 1.04 1.069 1.48 1.562 1.315.438-.384.603-1.096.493-2.138-.11-1.04-.438-2.082-.986-3.123-.603-1.096-1.151-1.535-1.644-1.316zM41.126 30.82c-.493-.165-1.014.301-1.562 1.397-.548 1.041-.877 2.083-.986 3.124-.165 1.041-.028 1.754.41 2.137.494.165 1.042-.274 1.645-1.315.548-1.096.877-2.165.986-3.206.11-1.041-.054-1.754-.493-2.137zm-5.507-.576c-.439.33-.603 1.014-.494 2.056.11 1.04.466 2.11 1.069 3.205.548 1.042 1.069 1.48 1.562 1.316.438-.384.603-1.096.493-2.138-.11-1.04-.438-2.082-.986-3.123-.603-1.096-1.151-1.535-1.644-1.316zM41.126 36.858c-.493-.164-1.014.301-1.562 1.397-.548 1.042-.877 2.083-.986 3.124-.165 1.041-.028 1.754.41 2.137.494.165 1.042-.274 1.645-1.315.548-1.096.877-2.165.986-3.206.11-1.041-.054-1.753-.493-2.137zm-5.507-.575c-.439.328-.603 1.013-.494 2.055.11 1.04.466 2.11 1.069 3.206.548 1.04 1.069 1.48 1.562 1.315.438-.384.603-1.096.493-2.138-.11-1.04-.438-2.082-.986-3.123-.603-1.096-1.151-1.535-1.644-1.316zM41.126 42.896c-.493-.165-1.014.301-1.562 1.397-.548 1.041-.877 2.083-.986 3.124-.165 1.041-.028 1.754.41 2.137.494.165 1.042-.274 1.645-1.315.548-1.096.877-2.165.986-3.206.11-1.041-.054-1.754-.493-2.137zm-5.507-.576c-.439.33-.603 1.014-.494 2.055.11 1.042.466 2.11 1.069 3.206.548 1.042 1.069 1.48 1.562 1.316.438-.384.603-1.096.493-2.138-.11-1.04-.438-2.082-.986-3.123-.603-1.097-1.151-1.535-1.644-1.316zM41.126 48.934c-.493-.165-1.014.301-1.562 1.397-.548 1.041-.877 2.083-.986 3.124-.165 1.041-.028 1.754.41 2.137.494.165 1.042-.274 1.645-1.315.548-1.096.877-2.165.986-3.206.11-1.041-.054-1.754-.493-2.137zm-5.507-.576c-.439.33-.603 1.014-.494 2.055.11 1.042.466 2.11 1.069 3.206.548 1.041 1.069 1.48 1.562 1.316.438-.384.603-1.096.493-2.138-.11-1.041-.438-2.082-.986-3.123-.603-1.096-1.151-1.535-1.644-1.316zM33.925.63c-.493-.164-1.014.302-1.562 1.398-.548 1.04-.877 2.082-.986 3.123-.165 1.042-.028 1.754.41 2.138.494.164 1.042-.274 1.645-1.316.548-1.096.877-2.164.986-3.205.11-1.042-.054-1.754-.493-2.138zM28.417.055c-.438.329-.602 1.014-.493 2.055.11 1.041.466 2.11 1.069 3.206.548 1.041 1.069 1.48 1.562 1.315.438-.384.602-1.096.493-2.137-.11-1.041-.438-2.083-.986-3.124C29.458.274 28.91-.164 28.416.055zM12.456.63c-.493-.164-1.013.302-1.562 1.398-.548 1.04-.876 2.082-.986 3.123-.164 1.042-.027 1.754.411 2.138.493.164 1.041-.274 1.644-1.316.548-1.096.877-2.164.987-3.205.11-1.042-.055-1.754-.494-2.138zM6.95.055c-.439.329-.603 1.014-.494 2.055.11 1.041.466 2.11 1.07 3.206.547 1.041 1.068 1.48 1.561 1.315.438-.384.603-1.096.493-2.137-.11-1.041-.438-2.083-.986-3.124C7.99.274 7.442-.164 6.949.055zM33.925 6.668c-.493-.164-1.014.301-1.562 1.398-.548 1.04-.877 2.082-.986 3.123-.165 1.041-.028 1.754.41 2.138.494.164 1.042-.274 1.645-1.316.548-1.096.877-2.164.986-3.206.11-1.04-.054-1.753-.493-2.137zm-5.508-.575c-.438.328-.602 1.013-.493 2.055.11 1.041.466 2.11 1.069 3.206.548 1.04 1.069 1.48 1.562 1.315.438-.384.602-1.096.493-2.137-.11-1.042-.438-2.083-.986-3.124-.603-1.096-1.151-1.535-1.645-1.315zM33.925 12.706c-.493-.164-1.014.302-1.562 1.398-.548 1.04-.877 2.082-.986 3.123-.165 1.042-.028 1.754.41 2.138.494.164 1.042-.274 1.645-1.316.548-1.096.877-2.164.986-3.206.11-1.04-.054-1.753-.493-2.137zm-5.508-.575c-.438.329-.602 1.014-.493 2.055.11 1.041.466 2.11 1.069 3.206.548 1.041 1.069 1.48 1.562 1.315.438-.384.602-1.096.493-2.137-.11-1.042-.438-2.083-.986-3.124-.603-1.096-1.151-1.534-1.645-1.315zM33.925 18.744c-.493-.164-1.014.301-1.562 1.398-.548 1.04-.877 2.082-.986 3.123-.165 1.041-.028 1.754.41 2.137.494.165 1.042-.274 1.645-1.315.548-1.096.877-2.165.986-3.206.11-1.041-.054-1.753-.493-2.137zm-5.508-.575c-.438.328-.602 1.013-.493 2.055.11 1.04.466 2.11 1.069 3.206.548 1.04 1.069 1.48 1.562 1.315.438-.384.602-1.096.493-2.137-.11-1.042-.438-2.083-.986-3.124-.603-1.096-1.151-1.535-1.645-1.315zM33.925 24.782c-.493-.164-1.014.301-1.562 1.397-.548 1.042-.877 2.083-.986 3.124-.165 1.041-.028 1.754.41 2.137.494.165 1.042-.274 1.645-1.315.548-1.096.877-2.165.986-3.206.11-1.041-.054-1.753-.493-2.137zm-5.508-.576c-.438.33-.602 1.014-.493 2.056.11 1.04.466 2.11 1.069 3.206.548 1.04 1.069 1.48 1.562 1.315.438-.384.602-1.096.493-2.138-.11-1.04-.438-2.082-.986-3.123-.603-1.096-1.151-1.535-1.645-1.316zM33.925 30.82c-.493-.165-1.014.301-1.562 1.397-.548 1.041-.877 2.083-.986 3.124-.165 1.041-.028 1.754.41 2.137.494.165 1.042-.274 1.645-1.315.548-1.096.877-2.165.986-3.206.11-1.041-.054-1.754-.493-2.137zm-5.508-.576c-.438.33-.602 1.014-.493 2.056.11 1.04.466 2.11 1.069 3.205.548 1.042 1.069 1.48 1.562 1.316.438-.384.602-1.096.493-2.138-.11-1.04-.438-2.082-.986-3.123-.603-1.096-1.151-1.535-1.645-1.316zM33.925 36.858c-.493-.164-1.014.301-1.562 1.397-.548 1.042-.877 2.083-.986 3.124-.165 1.041-.028 1.754.41 2.137.494.165 1.042-.274 1.645-1.315.548-1.096.877-2.165.986-3.206.11-1.041-.054-1.753-.493-2.137zm-5.508-.575c-.438.328-.602 1.013-.493 2.055.11 1.04.466 2.11 1.069 3.206.548 1.04 1.069 1.48 1.562 1.315.438-.384.602-1.096.493-2.138-.11-1.04-.438-2.082-.986-3.123-.603-1.096-1.151-1.535-1.645-1.316zM33.925 42.896c-.493-.165-1.014.301-1.562 1.397-.548 1.041-.877 2.083-.986 3.124-.165 1.041-.028 1.754.41 2.137.494.165 1.042-.274 1.645-1.315.548-1.096.877-2.165.986-3.206.11-1.041-.054-1.754-.493-2.137zm-5.508-.576c-.438.33-.602 1.014-.493 2.055.11 1.042.466 2.11 1.069 3.206.548 1.042 1.069 1.48 1.562 1.316.438-.384.602-1.096.493-2.138-.11-1.04-.438-2.082-.986-3.123-.603-1.097-1.151-1.535-1.645-1.316zM85.027 7.052c-.494-.164-1.014.302-1.562 1.398-.548 1.041-.877 2.082-.987 3.123-.164 1.042-.027 1.754.411 2.138.494.164 1.042-.274 1.644-1.315.548-1.097.877-2.165.987-3.206.11-1.042-.055-1.754-.493-2.138zm-5.508-.575c-.438.329-.603 1.014-.493 2.055.11 1.041.466 2.11 1.068 3.206.548 1.041 1.07 1.48 1.562 1.315.439-.383.603-1.096.493-2.137-.11-1.041-.438-2.083-.986-3.124-.603-1.096-1.15-1.534-1.644-1.315zM26.722 12.706c-.493-.164-1.014.302-1.562 1.398-.548 1.04-.877 2.082-.986 3.123-.165 1.042-.028 1.754.41 2.138.494.164 1.042-.274 1.645-1.316.548-1.096.877-2.164.986-3.206.11-1.04-.055-1.753-.493-2.137zm-5.508-.575c-.438.329-.602 1.014-.493 2.055.11 1.041.466 2.11 1.069 3.206.548 1.041 1.068 1.48 1.562 1.315.438-.384.602-1.096.493-2.137-.11-1.042-.439-2.083-.987-3.124-.602-1.096-1.15-1.534-1.644-1.315zM26.722 18.744c-.493-.164-1.014.301-1.562 1.398-.548 1.04-.877 2.082-.986 3.123-.165 1.041-.028 1.754.41 2.137.494.165 1.042-.274 1.645-1.315.548-1.096.877-2.165.986-3.206.11-1.041-.055-1.753-.493-2.137zm-5.508-.575c-.438.328-.602 1.013-.493 2.055.11 1.04.466 2.11 1.069 3.206.548 1.04 1.068 1.48 1.562 1.315.438-.384.602-1.096.493-2.137-.11-1.042-.439-2.083-.987-3.124-.602-1.096-1.15-1.535-1.644-1.315zM26.722 30.82c-.493-.165-1.014.301-1.562 1.397-.548 1.041-.877 2.083-.986 3.124-.165 1.041-.028 1.754.41 2.137.494.165 1.042-.274 1.645-1.315.548-1.096.877-2.165.986-3.206.11-1.041-.055-1.754-.493-2.137zm-5.508-.576c-.438.33-.602 1.014-.493 2.056.11 1.04.466 2.11 1.069 3.205.548 1.042 1.068 1.48 1.562 1.316.438-.384.602-1.096.493-2.138-.11-1.04-.439-2.082-.987-3.123-.602-1.096-1.15-1.535-1.644-1.316zM26.722 36.858c-.493-.164-1.014.301-1.562 1.397-.548 1.042-.877 2.083-.986 3.124-.165 1.041-.028 1.754.41 2.137.494.165 1.042-.274 1.645-1.315.548-1.096.877-2.165.986-3.206.11-1.041-.055-1.753-.493-2.137zm-5.508-.575c-.438.328-.602 1.013-.493 2.055.11 1.04.466 2.11 1.069 3.206.548 1.04 1.068 1.48 1.562 1.315.438-.384.602-1.096.493-2.138-.11-1.04-.439-2.082-.987-3.123-.602-1.096-1.15-1.535-1.644-1.316zM19.52 6.668c-.492-.164-1.013.301-1.561 1.398-.548 1.04-.877 2.082-.986 3.123-.165 1.041-.028 1.754.41 2.138.494.164 1.042-.274 1.645-1.316.548-1.096.876-2.164.986-3.206.11-1.04-.055-1.753-.493-2.137zm-5.507-.575c-.438.328-.603 1.013-.493 2.055.11 1.041.466 2.11 1.069 3.206.548 1.04 1.068 1.48 1.561 1.315.439-.384.603-1.096.494-2.137-.11-1.042-.439-2.083-.987-3.124-.603-1.096-1.15-1.535-1.644-1.315zM12.456 6.668c-.493-.164-1.013.301-1.562 1.398-.548 1.04-.876 2.082-.986 3.123-.164 1.041-.027 1.754.411 2.138.493.164 1.041-.274 1.644-1.316.548-1.096.877-2.164.987-3.206.11-1.04-.055-1.753-.494-2.137zM6.95 6.093c-.439.328-.603 1.013-.494 2.055.11 1.041.466 2.11 1.07 3.206.547 1.04 1.068 1.48 1.561 1.315.438-.384.603-1.096.493-2.137-.11-1.042-.438-2.083-.986-3.124-.603-1.096-1.151-1.535-1.644-1.315z" fill="#fff"/><path d="M6.034 6.668c-.493-.164-1.013.301-1.561 1.398-.548 1.04-.877 2.082-.987 3.123-.164 1.041-.027 1.754.411 2.138.493.164 1.041-.274 1.644-1.316.548-1.096.877-2.164.987-3.206.11-1.04-.055-1.753-.494-2.137zM.527 6.093C.088 6.42-.076 7.106.034 8.148c.11 1.041.465 2.11 1.068 3.206.548 1.04 1.069 1.48 1.562 1.315.439-.384.603-1.096.493-2.137-.11-1.042-.438-2.083-.986-3.124C1.568 6.312 1.02 5.873.527 6.093zM19.52 36.858c-.492-.164-1.013.301-1.561 1.397-.548 1.042-.877 2.083-.986 3.124-.165 1.041-.028 1.754.41 2.137.494.165 1.042-.274 1.645-1.315.548-1.096.876-2.165.986-3.206.11-1.041-.055-1.753-.493-2.137zm-5.507-.575c-.438.328-.603 1.013-.493 2.055.11 1.04.466 2.11 1.069 3.206.548 1.04 1.068 1.48 1.561 1.315.439-.384.603-1.096.494-2.138-.11-1.04-.439-2.082-.987-3.123-.603-1.096-1.15-1.535-1.644-1.316z" fill="#fff"/></svg>