<svg width="108" height="110" fill="none" xmlns="http://www.w3.org/2000/svg"><path d="M.526 42.895c.493-.164 1.014.302 1.562 1.398.548 1.041.877 2.082.986 3.124.165 1.04.028 1.753-.41 2.137-.494.164-1.042-.274-1.645-1.315-.548-1.096-.877-2.165-.986-3.206-.11-1.042.055-1.754.493-2.138zm5.508-.575c.438.329.603 1.014.493 2.055-.11 1.041-.466 2.11-1.069 3.206-.548 1.041-1.068 1.48-1.562 1.315-.438-.383-.602-1.096-.493-2.137.11-1.041.439-2.083.987-3.124.603-1.096 1.15-1.534 1.644-1.315zM.526 48.934c.493-.165 1.014.3 1.562 1.397.548 1.041.877 2.082.986 3.124.165 1.04.028 1.753-.41 2.137-.494.164-1.042-.274-1.645-1.315C.471 53.18.142 52.112.033 51.07c-.11-1.041.055-1.754.493-2.137zm5.508-.576c.438.329.603 1.014.493 2.055-.11 1.041-.466 2.11-1.069 3.206-.548 1.041-1.068 1.48-1.562 1.315-.438-.383-.602-1.096-.493-2.137.11-1.041.439-2.082.987-3.124.603-1.096 1.15-1.534 1.644-1.315zM.526 54.971c.493-.164 1.014.302 1.562 1.398.548 1.041.877 2.082.986 3.123.165 1.042.028 1.754-.41 2.138-.494.164-1.042-.274-1.645-1.316C.471 59.219.142 58.15.033 57.11c-.11-1.042.055-1.754.493-2.138zm5.508-.575c.438.329.603 1.014.493 2.055-.11 1.041-.466 2.11-1.069 3.206-.548 1.041-1.068 1.48-1.562 1.315-.438-.383-.602-1.096-.493-2.137.11-1.041.439-2.083.987-3.124.603-1.096 1.15-1.534 1.644-1.315zM.526 61.01c.493-.165 1.014.3 1.562 1.397.548 1.04.877 2.082.986 3.123.165 1.042.028 1.754-.41 2.138-.494.164-1.042-.274-1.645-1.316-.548-1.096-.877-2.164-.986-3.206-.11-1.04.055-1.753.493-2.137zm5.508-.576c.438.329.603 1.014.493 2.055-.11 1.041-.466 2.11-1.069 3.206-.548 1.041-1.068 1.48-1.562 1.315-.438-.384-.602-1.096-.493-2.137.11-1.042.439-2.083.987-3.124.603-1.096 1.15-1.535 1.644-1.315zM7.73 30.82c.492-.165 1.013.301 1.561 1.397.548 1.041.877 2.083.986 3.124.165 1.041.028 1.754-.41 2.137-.494.165-1.042-.274-1.645-1.315-.548-1.096-.876-2.165-.986-3.206-.11-1.041.055-1.754.493-2.137zm5.507-.576c.438.33.603 1.014.493 2.055-.11 1.042-.466 2.11-1.069 3.206-.548 1.041-1.068 1.48-1.561 1.316-.439-.384-.603-1.096-.494-2.138.11-1.041.439-2.082.987-3.123.603-1.096 1.15-1.535 1.644-1.316zM7.73 36.858c.492-.165 1.013.3 1.561 1.397.548 1.041.877 2.082.986 3.124.165 1.041.028 1.753-.41 2.137-.494.164-1.042-.274-1.645-1.315-.548-1.096-.876-2.165-.986-3.206-.11-1.041.055-1.754.493-2.137zm5.507-.576c.438.329.603 1.014.493 2.055-.11 1.041-.466 2.11-1.069 3.206-.548 1.041-1.068 1.48-1.561 1.315-.439-.383-.603-1.096-.494-2.137.11-1.041.439-2.082.987-3.124.603-1.096 1.15-1.534 1.644-1.315zM7.73 42.895c.492-.164 1.013.302 1.561 1.398.548 1.041.877 2.082.986 3.124.165 1.04.028 1.753-.41 2.137-.494.164-1.042-.274-1.645-1.315-.548-1.096-.876-2.165-.986-3.206-.11-1.042.055-1.754.493-2.138zm5.507-.575c.438.329.603 1.014.493 2.055-.11 1.041-.466 2.11-1.069 3.206-.548 1.041-1.068 1.48-1.561 1.315-.439-.383-.603-1.096-.494-2.137.11-1.041.439-2.083.987-3.124.603-1.096 1.15-1.534 1.644-1.315zM7.73 48.934c.492-.165 1.013.3 1.561 1.397.548 1.041.877 2.082.986 3.124.165 1.04.028 1.753-.41 2.137-.494.164-1.042-.274-1.645-1.315-.548-1.096-.876-2.165-.986-3.206-.11-1.041.055-1.754.493-2.137zm5.507-.576c.438.329.603 1.014.493 2.055-.11 1.041-.466 2.11-1.069 3.206-.548 1.041-1.068 1.48-1.561 1.315-.439-.383-.603-1.096-.494-2.137.11-1.041.439-2.082.987-3.124.603-1.096 1.15-1.534 1.644-1.315zM7.73 54.971c.492-.164 1.013.302 1.561 1.398.548 1.041.877 2.082.986 3.123.165 1.042.028 1.754-.41 2.138-.494.164-1.042-.274-1.645-1.316-.548-1.096-.876-2.164-.986-3.205-.11-1.042.055-1.754.493-2.138zm5.507-.575c.438.329.603 1.014.493 2.055-.11 1.041-.466 2.11-1.069 3.206-.548 1.041-1.068 1.48-1.561 1.315-.439-.383-.603-1.096-.494-2.137.11-1.041.439-2.083.987-3.124.603-1.096 1.15-1.534 1.644-1.315zM7.73 61.01c.492-.165 1.013.3 1.561 1.397.548 1.04.877 2.082.986 3.123.165 1.042.028 1.754-.41 2.138-.494.164-1.042-.274-1.645-1.316-.548-1.096-.876-2.164-.986-3.206-.11-1.04.055-1.753.493-2.137zm5.507-.576c.438.329.603 1.014.493 2.055-.11 1.041-.466 2.11-1.069 3.206-.548 1.041-1.068 1.48-1.561 1.315-.439-.384-.603-1.096-.494-2.137.11-1.042.439-2.083.987-3.124.603-1.096 1.15-1.535 1.644-1.315zM7.73 67.047c.492-.164 1.013.302 1.561 1.398.548 1.04.877 2.082.986 3.123.165 1.042.028 1.754-.41 2.138-.494.164-1.042-.274-1.645-1.316-.548-1.096-.876-2.164-.986-3.206-.11-1.04.055-1.753.493-2.137zm5.507-.575c.438.329.603 1.014.493 2.055-.11 1.041-.466 2.11-1.069 3.206-.548 1.041-1.068 1.48-1.561 1.315-.439-.383-.603-1.096-.494-2.137.11-1.041.439-2.083.987-3.124.603-1.096 1.15-1.534 1.644-1.315zM7.73 73.085c.492-.164 1.013.302 1.561 1.398.548 1.04.877 2.082.986 3.123.165 1.041.028 1.754-.41 2.138-.494.164-1.042-.275-1.645-1.316-.548-1.096-.876-2.164-.986-3.206-.11-1.04.055-1.753.493-2.137zm5.507-.575c.438.328.603 1.013.493 2.055-.11 1.041-.466 2.11-1.069 3.206-.548 1.04-1.068 1.48-1.561 1.315-.439-.384-.603-1.096-.494-2.137.11-1.042.439-2.083.987-3.124.603-1.096 1.15-1.535 1.644-1.315zM14.93 18.744c.494-.164 1.014.301 1.562 1.398.548 1.04.877 2.082.987 3.123.164 1.041.027 1.754-.411 2.137-.494.165-1.042-.274-1.644-1.315-.548-1.096-.877-2.165-.987-3.206-.11-1.041.055-1.753.493-2.137zm5.508-.575c.439.328.603 1.013.493 2.055-.11 1.04-.466 2.11-1.068 3.206-.548 1.04-1.069 1.48-1.562 1.315-.439-.384-.603-1.096-.493-2.137.11-1.042.438-2.083.986-3.124.603-1.096 1.15-1.535 1.644-1.315zM14.93 24.782c.494-.165 1.014.301 1.562 1.397.548 1.042.877 2.083.987 3.124.164 1.041.027 1.754-.411 2.137-.494.165-1.042-.274-1.644-1.315-.548-1.096-.877-2.165-.987-3.206-.11-1.041.055-1.753.493-2.137zm5.508-.576c.439.33.603 1.014.493 2.056-.11 1.04-.466 2.11-1.068 3.205-.548 1.042-1.069 1.48-1.562 1.316-.439-.384-.603-1.096-.493-2.138.11-1.04.438-2.082.986-3.123.603-1.096 1.15-1.535 1.644-1.316zM14.93 30.82c.494-.165 1.014.301 1.562 1.397.548 1.041.877 2.083.987 3.124.164 1.041.027 1.754-.411 2.137-.494.165-1.042-.274-1.644-1.315-.548-1.096-.877-2.165-.987-3.206-.11-1.041.055-1.754.493-2.137zm5.508-.576c.439.33.603 1.014.493 2.055-.11 1.042-.466 2.11-1.068 3.206-.548 1.041-1.069 1.48-1.562 1.316-.439-.384-.603-1.096-.493-2.138.11-1.041.438-2.082.986-3.123.603-1.096 1.15-1.535 1.644-1.316zM14.93 36.858c.494-.165 1.014.3 1.562 1.397.548 1.041.877 2.082.987 3.124.164 1.041.027 1.753-.411 2.137-.494.164-1.042-.274-1.644-1.315-.548-1.096-.877-2.165-.987-3.206-.11-1.041.055-1.754.493-2.137zm5.508-.576c.439.329.603 1.014.493 2.055-.11 1.041-.466 2.11-1.068 3.206-.548 1.041-1.069 1.48-1.562 1.315-.439-.383-.603-1.096-.493-2.137.11-1.041.438-2.082.986-3.124.603-1.096 1.15-1.534 1.644-1.315zM14.93 42.895c.494-.164 1.014.302 1.562 1.398.548 1.041.877 2.082.987 3.124.164 1.04.027 1.753-.411 2.137-.494.164-1.042-.274-1.644-1.315-.548-1.096-.877-2.165-.987-3.206-.11-1.042.055-1.754.493-2.138zm5.508-.575c.439.329.603 1.014.493 2.055-.11 1.041-.466 2.11-1.068 3.206-.548 1.041-1.069 1.48-1.562 1.315-.439-.383-.603-1.096-.493-2.137.11-1.041.438-2.083.986-3.124.603-1.096 1.15-1.534 1.644-1.315zM14.93 48.934c.494-.165 1.014.3 1.562 1.397.548 1.041.877 2.082.987 3.124.164 1.04.027 1.753-.411 2.137-.494.164-1.042-.274-1.644-1.315-.548-1.096-.877-2.165-.987-3.206-.11-1.041.055-1.754.493-2.137zm5.508-.576c.439.329.603 1.014.493 2.055-.11 1.041-.466 2.11-1.068 3.206-.548 1.041-1.069 1.48-1.562 1.315-.439-.383-.603-1.096-.493-2.137.11-1.041.438-2.082.986-3.124.603-1.096 1.15-1.534 1.644-1.315z" fill="#fff"/><path d="M14.93 54.971c.494-.164 1.014.302 1.562 1.398.548 1.041.877 2.082.987 3.123.164 1.042.027 1.754-.411 2.138-.494.164-1.042-.274-1.644-1.316-.548-1.096-.877-2.164-.987-3.205-.11-1.042.055-1.754.493-2.138zm5.508-.575c.439.329.603 1.014.493 2.055-.11 1.041-.466 2.11-1.068 3.206-.548 1.041-1.069 1.48-1.562 1.315-.439-.383-.603-1.096-.493-2.137.11-1.041.438-2.083.986-3.124.603-1.096 1.15-1.534 1.644-1.315zM14.93 61.01c.494-.165 1.014.3 1.562 1.397.548 1.04.877 2.082.987 3.123.164 1.042.027 1.754-.411 2.138-.494.164-1.042-.274-1.644-1.316-.548-1.096-.877-2.164-.987-3.206-.11-1.04.055-1.753.493-2.137zm5.508-.576c.439.329.603 1.014.493 2.055-.11 1.041-.466 2.11-1.068 3.206-.548 1.041-1.069 1.48-1.562 1.315-.439-.384-.603-1.096-.493-2.137.11-1.042.438-2.083.986-3.124.603-1.096 1.15-1.535 1.644-1.315z" fill="#FDE106"/><path d="M14.93 67.047c.494-.164 1.014.302 1.562 1.398.548 1.04.877 2.082.987 3.123.164 1.042.027 1.754-.411 2.138-.494.164-1.042-.274-1.644-1.316-.548-1.096-.877-2.164-.987-3.206-.11-1.04.055-1.753.493-2.137zm5.508-.575c.439.329.603 1.014.493 2.055-.11 1.041-.466 2.11-1.068 3.206-.548 1.041-1.069 1.48-1.562 1.315-.439-.383-.603-1.096-.493-2.137.11-1.041.438-2.083.986-3.124.603-1.096 1.15-1.534 1.644-1.315zM14.93 73.085c.494-.164 1.014.302 1.562 1.398.548 1.04.877 2.082.987 3.123.164 1.041.027 1.754-.411 2.138-.494.164-1.042-.275-1.644-1.316-.548-1.096-.877-2.164-.987-3.206-.11-1.04.055-1.753.493-2.137zm5.508-.575c.439.328.603 1.013.493 2.055-.11 1.041-.466 2.11-1.068 3.206-.548 1.04-1.069 1.48-1.562 1.315-.439-.384-.603-1.096-.493-2.137.11-1.042.438-2.083.986-3.124.603-1.096 1.15-1.535 1.644-1.315z" fill="#fff"/><path d="M14.93 79.123c.494-.165 1.014.301 1.562 1.397.548 1.042.877 2.083.987 3.124.164 1.041.027 1.754-.411 2.137-.494.165-1.042-.274-1.644-1.315-.548-1.096-.877-2.165-.987-3.206-.11-1.041.055-1.754.493-2.137zm5.508-.576c.439.33.603 1.014.493 2.056-.11 1.04-.466 2.11-1.068 3.206-.548 1.04-1.069 1.48-1.562 1.315-.439-.384-.603-1.096-.493-2.137.11-1.042.438-2.083.986-3.124.603-1.096 1.15-1.535 1.644-1.316zM14.93 85.16c.494-.164 1.014.302 1.562 1.398.548 1.041.877 2.083.987 3.124.164 1.041.027 1.754-.411 2.137-.494.165-1.042-.274-1.644-1.315-.548-1.096-.877-2.165-.987-3.206-.11-1.041.055-1.754.493-2.137zm5.508-.575c.439.33.603 1.014.493 2.055-.11 1.042-.466 2.11-1.068 3.206-.548 1.042-1.069 1.48-1.562 1.316-.439-.384-.603-1.096-.493-2.138.11-1.04.438-2.082.986-3.123.603-1.096 1.15-1.535 1.644-1.316z" fill="#FDE106"/><path d="M22.132 12.706c.493-.165 1.013.301 1.561 1.397.548 1.042.877 2.083.987 3.124.164 1.041.027 1.754-.411 2.137-.493.165-1.041-.274-1.644-1.315-.548-1.096-.877-2.165-.987-3.206-.11-1.041.055-1.754.494-2.137zm5.507-.575c.439.328.603 1.013.493 2.055-.11 1.04-.465 2.11-1.068 3.206-.548 1.04-1.069 1.48-1.562 1.315-.438-.384-.603-1.096-.493-2.137.11-1.042.438-2.083.986-3.124.603-1.096 1.151-1.535 1.644-1.316zM22.132 18.744c.493-.164 1.013.301 1.561 1.398.548 1.04.877 2.082.987 3.123.164 1.041.027 1.754-.411 2.137-.493.165-1.041-.274-1.644-1.315-.548-1.096-.877-2.165-.987-3.206-.11-1.041.055-1.753.494-2.137zm5.507-.575c.439.328.603 1.013.493 2.055-.11 1.04-.465 2.11-1.068 3.206-.548 1.04-1.069 1.48-1.562 1.315-.438-.384-.603-1.096-.493-2.137.11-1.042.438-2.083.986-3.124.603-1.096 1.151-1.535 1.644-1.315zM22.132 24.782c.493-.165 1.013.301 1.561 1.397.548 1.042.877 2.083.987 3.124.164 1.041.027 1.754-.411 2.137-.493.165-1.041-.274-1.644-1.315-.548-1.096-.877-2.165-.987-3.206-.11-1.041.055-1.753.494-2.137zm5.507-.576c.439.33.603 1.014.493 2.056-.11 1.04-.465 2.11-1.068 3.205-.548 1.042-1.069 1.48-1.562 1.316-.438-.384-.603-1.096-.493-2.138.11-1.04.438-2.082.986-3.123.603-1.096 1.151-1.535 1.644-1.316zM22.132 30.82c.493-.165 1.013.301 1.561 1.397.548 1.041.877 2.083.987 3.124.164 1.041.027 1.754-.411 2.137-.493.165-1.041-.274-1.644-1.315-.548-1.096-.877-2.165-.987-3.206-.11-1.041.055-1.754.494-2.137zm5.507-.576c.439.33.603 1.014.493 2.055-.11 1.042-.465 2.11-1.068 3.206-.548 1.041-1.069 1.48-1.562 1.316-.438-.384-.603-1.096-.493-2.138.11-1.041.438-2.082.986-3.123.603-1.096 1.151-1.535 1.644-1.316zM22.132 36.858c.493-.165 1.013.3 1.561 1.397.548 1.041.877 2.082.987 3.124.164 1.041.027 1.753-.411 2.137-.493.164-1.041-.274-1.644-1.315-.548-1.096-.877-2.165-.987-3.206-.11-1.041.055-1.754.494-2.137zm5.507-.576c.439.329.603 1.014.493 2.055-.11 1.041-.465 2.11-1.068 3.206-.548 1.041-1.069 1.48-1.562 1.315-.438-.383-.603-1.096-.493-2.137.11-1.041.438-2.082.986-3.124.603-1.096 1.151-1.534 1.644-1.315zM22.132 42.895c.493-.164 1.013.302 1.561 1.398.548 1.041.877 2.082.987 3.124.164 1.04.027 1.753-.411 2.137-.493.164-1.041-.274-1.644-1.315-.548-1.096-.877-2.165-.987-3.206-.11-1.042.055-1.754.494-2.138zm5.507-.575c.439.329.603 1.014.493 2.055-.11 1.041-.465 2.11-1.068 3.206-.548 1.041-1.069 1.48-1.562 1.315-.438-.383-.603-1.096-.493-2.137.11-1.041.438-2.083.986-3.124.603-1.096 1.151-1.534 1.644-1.315zM22.132 48.934c.493-.165 1.013.3 1.561 1.397.548 1.041.877 2.082.987 3.124.164 1.04.027 1.753-.411 2.137-.493.164-1.041-.274-1.644-1.315-.548-1.096-.877-2.165-.987-3.206-.11-1.041.055-1.754.494-2.137zm5.507-.576c.439.329.603 1.014.493 2.055-.11 1.041-.465 2.11-1.068 3.206-.548 1.041-1.069 1.48-1.562 1.315-.438-.383-.603-1.096-.493-2.137.11-1.041.438-2.082.986-3.124.603-1.096 1.151-1.534 1.644-1.315zM22.132 54.971c.493-.164 1.013.302 1.561 1.398.548 1.041.877 2.082.987 3.123.164 1.042.027 1.754-.411 2.138-.493.164-1.041-.274-1.644-1.316-.548-1.096-.877-2.164-.987-3.205-.11-1.042.055-1.754.494-2.138zm5.507-.575c.439.329.603 1.014.493 2.055-.11 1.041-.465 2.11-1.068 3.206-.548 1.041-1.069 1.48-1.562 1.315-.438-.383-.603-1.096-.493-2.137.11-1.041.438-2.083.986-3.124.603-1.096 1.151-1.534 1.644-1.315z" fill="#fff"/><path d="M22.132 61.01c.493-.165 1.013.3 1.561 1.397.548 1.04.877 2.082.987 3.123.164 1.042.027 1.754-.411 2.138-.493.164-1.041-.274-1.644-1.316-.548-1.096-.877-2.164-.987-3.206-.11-1.04.055-1.753.494-2.137zm5.507-.576c.439.329.603 1.014.493 2.055-.11 1.041-.465 2.11-1.068 3.206-.548 1.041-1.069 1.48-1.562 1.315-.438-.384-.603-1.096-.493-2.137.11-1.042.438-2.083.986-3.124.603-1.096 1.151-1.535 1.644-1.315zM22.132 67.047c.493-.164 1.013.302 1.561 1.398.548 1.04.877 2.082.987 3.123.164 1.042.027 1.754-.411 2.138-.493.164-1.041-.274-1.644-1.316-.548-1.096-.877-2.164-.987-3.206-.11-1.04.055-1.753.494-2.137zm5.507-.575c.439.329.603 1.014.493 2.055-.11 1.041-.465 2.11-1.068 3.206-.548 1.041-1.069 1.48-1.562 1.315-.438-.383-.603-1.096-.493-2.137.11-1.041.438-2.083.986-3.124.603-1.096 1.151-1.534 1.644-1.315z" fill="#FDE106"/><path d="M22.132 73.085c.493-.164 1.013.302 1.561 1.398.548 1.04.877 2.082.987 3.123.164 1.041.027 1.754-.411 2.138-.493.164-1.041-.275-1.644-1.316-.548-1.096-.877-2.164-.987-3.206-.11-1.04.055-1.753.494-2.137zm5.507-.575c.439.328.603 1.013.493 2.055-.11 1.041-.465 2.11-1.068 3.206-.548 1.04-1.069 1.48-1.562 1.315-.438-.384-.603-1.096-.493-2.137.11-1.042.438-2.083.986-3.124.603-1.096 1.151-1.535 1.644-1.315zM22.132 79.123c.493-.165 1.013.301 1.561 1.397.548 1.042.877 2.083.987 3.124.164 1.041.027 1.754-.411 2.137-.493.165-1.041-.274-1.644-1.315-.548-1.096-.877-2.165-.987-3.206-.11-1.041.055-1.754.494-2.137zm5.507-.576c.439.33.603 1.014.493 2.056-.11 1.04-.465 2.11-1.068 3.206-.548 1.04-1.069 1.48-1.562 1.315-.438-.384-.603-1.096-.493-2.137.11-1.042.438-2.083.986-3.124.603-1.096 1.151-1.535 1.644-1.316z" fill="#fff"/><path d="M22.132 85.16c.493-.164 1.013.302 1.561 1.398.548 1.041.877 2.083.987 3.124.164 1.041.027 1.754-.411 2.137-.493.165-1.041-.274-1.644-1.315-.548-1.096-.877-2.165-.987-3.206-.11-1.041.055-1.754.494-2.137zm5.507-.575c.439.33.603 1.014.493 2.055-.11 1.042-.465 2.11-1.068 3.206-.548 1.042-1.069 1.48-1.562 1.316-.438-.384-.603-1.096-.493-2.138.11-1.04.438-2.082.986-3.123.603-1.096 1.151-1.535 1.644-1.316zM22.132 91.199c.493-.165 1.013.301 1.561 1.397.548 1.041.877 2.082.987 3.124.164 1.041.027 1.754-.411 2.137-.493.165-1.041-.274-1.644-1.315-.548-1.096-.877-2.165-.987-3.206-.11-1.041.055-1.754.494-2.137zm5.507-.576c.439.329.603 1.014.493 2.055-.11 1.041-.465 2.11-1.068 3.206-.548 1.041-1.069 1.48-1.562 1.315-.438-.383-.603-1.096-.493-2.137.11-1.041.438-2.082.986-3.124.603-1.096 1.151-1.534 1.644-1.315z" fill="#FDE106"/><path d="M29.335 6.668c.493-.164 1.014.301 1.562 1.398.548 1.04.876 2.082.986 3.123.164 1.041.027 1.754-.411 2.138-.493.164-1.041-.274-1.644-1.316-.548-1.096-.877-2.164-.986-3.206-.11-1.04.054-1.753.493-2.137zm5.507-.575c.439.328.603 1.013.494 2.055-.11 1.041-.466 2.11-1.07 3.206-.547 1.04-1.068 1.48-1.561 1.315-.438-.384-.603-1.096-.493-2.137.11-1.042.438-2.083.986-3.124.603-1.096 1.151-1.535 1.644-1.315zM29.335 12.706c.493-.165 1.014.301 1.562 1.397.548 1.042.876 2.083.986 3.124.164 1.041.027 1.754-.411 2.137-.493.165-1.041-.274-1.644-1.315-.548-1.096-.877-2.165-.986-3.206-.11-1.041.054-1.754.493-2.137zm5.507-.575c.439.328.603 1.013.494 2.055-.11 1.04-.466 2.11-1.07 3.206-.547 1.04-1.068 1.48-1.561 1.315-.438-.384-.603-1.096-.493-2.137.11-1.042.438-2.083.986-3.124.603-1.096 1.151-1.535 1.644-1.316zM29.335 18.744c.493-.164 1.014.301 1.562 1.398.548 1.04.876 2.082.986 3.123.164 1.041.027 1.754-.411 2.137-.493.165-1.041-.274-1.644-1.315-.548-1.096-.877-2.165-.986-3.206-.11-1.041.054-1.753.493-2.137zm5.507-.575c.439.328.603 1.013.494 2.055-.11 1.04-.466 2.11-1.07 3.206-.547 1.04-1.068 1.48-1.561 1.315-.438-.384-.603-1.096-.493-2.137.11-1.042.438-2.083.986-3.124.603-1.096 1.151-1.535 1.644-1.315zM29.335 24.782c.493-.165 1.014.301 1.562 1.397.548 1.042.876 2.083.986 3.124.164 1.041.027 1.754-.411 2.137-.493.165-1.041-.274-1.644-1.315-.548-1.096-.877-2.165-.986-3.206-.11-1.041.054-1.753.493-2.137zm5.507-.576c.439.33.603 1.014.494 2.056-.11 1.04-.466 2.11-1.07 3.205-.547 1.042-1.068 1.48-1.561 1.316-.438-.384-.603-1.096-.493-2.138.11-1.04.438-2.082.986-3.123.603-1.096 1.151-1.535 1.644-1.316zM29.335 30.82c.493-.165 1.014.301 1.562 1.397.548 1.041.876 2.083.986 3.124.164 1.041.027 1.754-.411 2.137-.493.165-1.041-.274-1.644-1.315-.548-1.096-.877-2.165-.986-3.206-.11-1.041.054-1.754.493-2.137zm5.507-.576c.439.33.603 1.014.494 2.055-.11 1.042-.466 2.11-1.07 3.206-.547 1.041-1.068 1.48-1.561 1.316-.438-.384-.603-1.096-.493-2.138.11-1.041.438-2.082.986-3.123.603-1.096 1.151-1.535 1.644-1.316zM29.335 36.858c.493-.165 1.014.3 1.562 1.397.548 1.041.876 2.082.986 3.124.164 1.041.027 1.753-.411 2.137-.493.164-1.041-.274-1.644-1.315-.548-1.096-.877-2.165-.986-3.206-.11-1.041.054-1.754.493-2.137zm5.507-.576c.439.329.603 1.014.494 2.055-.11 1.041-.466 2.11-1.07 3.206-.547 1.041-1.068 1.48-1.561 1.315-.438-.383-.603-1.096-.493-2.137.11-1.041.438-2.082.986-3.124.603-1.096 1.151-1.534 1.644-1.315z" fill="#fff"/><path d="M29.335 42.895c.493-.164 1.014.302 1.562 1.398.548 1.041.876 2.082.986 3.124.164 1.04.027 1.753-.411 2.137-.493.164-1.041-.274-1.644-1.315-.548-1.096-.877-2.165-.986-3.206-.11-1.042.054-1.754.493-2.138zm5.507-.575c.439.329.603 1.014.494 2.055-.11 1.041-.466 2.11-1.07 3.206-.547 1.041-1.068 1.48-1.561 1.315-.438-.383-.603-1.096-.493-2.137.11-1.041.438-2.083.986-3.124.603-1.096 1.151-1.534 1.644-1.315zM29.335 48.934c.493-.165 1.014.3 1.562 1.397.548 1.041.876 2.082.986 3.124.164 1.04.027 1.753-.411 2.137-.493.164-1.041-.274-1.644-1.315-.548-1.096-.877-2.165-.986-3.206-.11-1.041.054-1.754.493-2.137zm5.507-.576c.439.329.603 1.014.494 2.055-.11 1.041-.466 2.11-1.07 3.206-.547 1.041-1.068 1.48-1.561 1.315-.438-.383-.603-1.096-.493-2.137.11-1.041.438-2.082.986-3.124.603-1.096 1.151-1.534 1.644-1.315z" fill="#FDE106"/><path d="M29.335 54.971c.493-.164 1.014.302 1.562 1.398.548 1.041.876 2.082.986 3.123.164 1.042.027 1.754-.411 2.138-.493.164-1.041-.274-1.644-1.316-.548-1.096-.877-2.164-.986-3.205-.11-1.042.054-1.754.493-2.138zm5.507-.575c.439.329.603 1.014.494 2.055-.11 1.041-.466 2.11-1.07 3.206-.547 1.041-1.068 1.48-1.561 1.315-.438-.383-.603-1.096-.493-2.137.11-1.041.438-2.083.986-3.124.603-1.096 1.151-1.534 1.644-1.315zM29.335 61.01c.493-.165 1.014.3 1.562 1.397.548 1.04.876 2.082.986 3.123.164 1.042.027 1.754-.411 2.138-.493.164-1.041-.274-1.644-1.316-.548-1.096-.877-2.164-.986-3.206-.11-1.04.054-1.753.493-2.137zm5.507-.576c.439.329.603 1.014.494 2.055-.11 1.041-.466 2.11-1.07 3.206-.547 1.041-1.068 1.48-1.561 1.315-.438-.384-.603-1.096-.493-2.137.11-1.042.438-2.083.986-3.124.603-1.096 1.151-1.535 1.644-1.315z" fill="#fff"/><path d="M29.335 67.047c.493-.164 1.014.302 1.562 1.398.548 1.04.876 2.082.986 3.123.164 1.042.027 1.754-.411 2.138-.493.164-1.041-.274-1.644-1.316-.548-1.096-.877-2.164-.986-3.206-.11-1.04.054-1.753.493-2.137zm5.507-.575c.439.329.603 1.014.494 2.055-.11 1.041-.466 2.11-1.07 3.206-.547 1.041-1.068 1.48-1.561 1.315-.438-.383-.603-1.096-.493-2.137.11-1.041.438-2.083.986-3.124.603-1.096 1.151-1.534 1.644-1.315zM29.335 73.085c.493-.164 1.014.302 1.562 1.398.548 1.04.876 2.082.986 3.123.164 1.041.027 1.754-.411 2.138-.493.164-1.041-.275-1.644-1.316-.548-1.096-.877-2.164-.986-3.206-.11-1.04.054-1.753.493-2.137zm5.507-.575c.439.328.603 1.013.494 2.055-.11 1.041-.466 2.11-1.07 3.206-.547 1.04-1.068 1.48-1.561 1.315-.438-.384-.603-1.096-.493-2.137.11-1.042.438-2.083.986-3.124.603-1.096 1.151-1.535 1.644-1.315z" fill="#FDE106"/><path d="M29.335 79.123c.493-.165 1.014.301 1.562 1.397.548 1.042.876 2.083.986 3.124.164 1.041.027 1.754-.411 2.137-.493.165-1.041-.274-1.644-1.315-.548-1.096-.877-2.165-.986-3.206-.11-1.041.054-1.754.493-2.137zm5.507-.576c.439.33.603 1.014.494 2.056-.11 1.04-.466 2.11-1.07 3.206-.547 1.04-1.068 1.48-1.561 1.315-.438-.384-.603-1.096-.493-2.137.11-1.042.438-2.083.986-3.124.603-1.096 1.151-1.535 1.644-1.316z" fill="#fff"/><path d="M29.335 85.16c.493-.164 1.014.302 1.562 1.398.548 1.041.876 2.083.986 3.124.164 1.041.027 1.754-.411 2.137-.493.165-1.041-.274-1.644-1.315-.548-1.096-.877-2.165-.986-3.206-.11-1.041.054-1.754.493-2.137zm5.507-.575c.439.33.603 1.014.494 2.055-.11 1.042-.466 2.11-1.07 3.206-.547 1.042-1.068 1.48-1.561 1.316-.438-.384-.603-1.096-.493-2.138.11-1.04.438-2.082.986-3.123.603-1.096 1.151-1.535 1.644-1.316zM29.335 91.199c.493-.165 1.014.301 1.562 1.397.548 1.041.876 2.082.986 3.124.164 1.041.027 1.754-.411 2.137-.493.165-1.041-.274-1.644-1.315-.548-1.096-.877-2.165-.986-3.206-.11-1.041.054-1.754.493-2.137zm5.507-.576c.439.329.603 1.014.494 2.055-.11 1.041-.466 2.11-1.07 3.206-.547 1.041-1.068 1.48-1.561 1.315-.438-.383-.603-1.096-.493-2.137.11-1.041.438-2.082.986-3.124.603-1.096 1.151-1.534 1.644-1.315zM29.335 97.237c.493-.165 1.014.301 1.562 1.397.548 1.041.876 2.083.986 3.124.164 1.041.027 1.754-.411 2.137-.493.165-1.041-.274-1.644-1.315-.548-1.096-.877-2.165-.986-3.206-.11-1.041.054-1.754.493-2.137zm5.507-.576c.439.33.603 1.014.494 2.055-.11 1.042-.466 2.11-1.07 3.206-.547 1.042-1.068 1.48-1.561 1.316-.438-.384-.603-1.097-.493-2.138.11-1.041.438-2.082.986-3.123.603-1.097 1.151-1.535 1.644-1.316z" fill="#FDE106"/><path d="M36.536 6.668c.493-.164 1.014.301 1.562 1.398.548 1.04.877 2.082.986 3.123.165 1.041.028 1.754-.41 2.138-.494.164-1.042-.274-1.645-1.316-.548-1.096-.877-2.164-.986-3.206-.11-1.04.054-1.753.493-2.137zm5.508-.575c.438.328.602 1.013.493 2.055-.11 1.041-.466 2.11-1.069 3.206-.548 1.04-1.069 1.48-1.562 1.315-.438-.384-.603-1.096-.493-2.137.11-1.042.438-2.083.986-3.124.603-1.096 1.151-1.535 1.645-1.315zM36.536 12.706c.493-.165 1.014.301 1.562 1.397.548 1.042.877 2.083.986 3.124.165 1.041.028 1.754-.41 2.137-.494.165-1.042-.274-1.645-1.315-.548-1.096-.877-2.165-.986-3.206-.11-1.041.054-1.754.493-2.137zm5.508-.575c.438.328.602 1.013.493 2.055-.11 1.04-.466 2.11-1.069 3.206-.548 1.04-1.069 1.48-1.562 1.315-.438-.384-.603-1.096-.493-2.137.11-1.042.438-2.083.986-3.124.603-1.096 1.151-1.535 1.645-1.316zM36.536 18.744c.493-.164 1.014.301 1.562 1.398.548 1.04.877 2.082.986 3.123.165 1.041.028 1.754-.41 2.137-.494.165-1.042-.274-1.645-1.315-.548-1.096-.877-2.165-.986-3.206-.11-1.041.054-1.753.493-2.137zm5.508-.575c.438.328.602 1.013.493 2.055-.11 1.04-.466 2.11-1.069 3.206-.548 1.04-1.069 1.48-1.562 1.315-.438-.384-.603-1.096-.493-2.137.11-1.042.438-2.083.986-3.124.603-1.096 1.151-1.535 1.645-1.315zM36.536 24.782c.493-.165 1.014.301 1.562 1.397.548 1.042.877 2.083.986 3.124.165 1.041.028 1.754-.41 2.137-.494.165-1.042-.274-1.645-1.315-.548-1.096-.877-2.165-.986-3.206-.11-1.041.054-1.753.493-2.137zm5.508-.576c.438.33.602 1.014.493 2.056-.11 1.04-.466 2.11-1.069 3.205-.548 1.042-1.069 1.48-1.562 1.316-.438-.384-.603-1.096-.493-2.138.11-1.04.438-2.082.986-3.123.603-1.096 1.151-1.535 1.645-1.316zM36.536 30.82c.493-.165 1.014.301 1.562 1.397.548 1.041.877 2.083.986 3.124.165 1.041.028 1.754-.41 2.137-.494.165-1.042-.274-1.645-1.315-.548-1.096-.877-2.165-.986-3.206-.11-1.041.054-1.754.493-2.137zm5.508-.576c.438.33.602 1.014.493 2.055-.11 1.042-.466 2.11-1.069 3.206-.548 1.041-1.069 1.48-1.562 1.316-.438-.384-.603-1.096-.493-2.138.11-1.041.438-2.082.986-3.123.603-1.096 1.151-1.535 1.645-1.316zM36.536 36.858c.493-.165 1.014.3 1.562 1.397.548 1.041.877 2.082.986 3.124.165 1.041.028 1.753-.41 2.137-.494.164-1.042-.274-1.645-1.315-.548-1.096-.877-2.165-.986-3.206-.11-1.041.054-1.754.493-2.137zm5.508-.576c.438.329.602 1.014.493 2.055-.11 1.041-.466 2.11-1.069 3.206-.548 1.041-1.069 1.48-1.562 1.315-.438-.383-.603-1.096-.493-2.137.11-1.041.438-2.082.986-3.124.603-1.096 1.151-1.534 1.645-1.315zM36.536 42.895c.493-.164 1.014.302 1.562 1.398.548 1.041.877 2.082.986 3.124.165 1.04.028 1.753-.41 2.137-.494.164-1.042-.274-1.645-1.315-.548-1.096-.877-2.165-.986-3.206-.11-1.042.054-1.754.493-2.138zm5.508-.575c.438.329.602 1.014.493 2.055-.11 1.041-.466 2.11-1.069 3.206-.548 1.041-1.069 1.48-1.562 1.315-.438-.383-.603-1.096-.493-2.137.11-1.041.438-2.083.986-3.124.603-1.096 1.151-1.534 1.645-1.315z" fill="#fff"/><path d="M36.536 48.934c.493-.165 1.014.3 1.562 1.397.548 1.041.877 2.082.986 3.124.165 1.04.028 1.753-.41 2.137-.494.164-1.042-.274-1.645-1.315-.548-1.096-.877-2.165-.986-3.206-.11-1.041.054-1.754.493-2.137zm5.508-.576c.438.329.602 1.014.493 2.055-.11 1.041-.466 2.11-1.069 3.206-.548 1.041-1.069 1.48-1.562 1.315-.438-.383-.603-1.096-.493-2.137.11-1.041.438-2.082.986-3.124.603-1.096 1.151-1.534 1.645-1.315zM36.536 54.971c.493-.164 1.014.302 1.562 1.398.548 1.041.877 2.082.986 3.123.165 1.042.028 1.754-.41 2.138-.494.164-1.042-.274-1.645-1.316-.548-1.096-.877-2.164-.986-3.205-.11-1.042.054-1.754.493-2.138zm5.508-.575c.438.329.602 1.014.493 2.055-.11 1.041-.466 2.11-1.069 3.206-.548 1.041-1.069 1.48-1.562 1.315-.438-.383-.603-1.096-.493-2.137.11-1.041.438-2.083.986-3.124.603-1.096 1.151-1.534 1.645-1.315z" fill="#FDE106"/><path d="M36.536 61.01c.493-.165 1.014.3 1.562 1.397.548 1.04.877 2.082.986 3.123.165 1.042.028 1.754-.41 2.138-.494.164-1.042-.274-1.645-1.316-.548-1.096-.877-2.164-.986-3.206-.11-1.04.054-1.753.493-2.137zm5.508-.576c.438.329.602 1.014.493 2.055-.11 1.041-.466 2.11-1.069 3.206-.548 1.041-1.069 1.48-1.562 1.315-.438-.384-.603-1.096-.493-2.137.11-1.042.438-2.083.986-3.124.603-1.096 1.151-1.535 1.645-1.315z" fill="#fff"/><path d="M36.536 67.047c.493-.164 1.014.302 1.562 1.398.548 1.04.877 2.082.986 3.123.165 1.042.028 1.754-.41 2.138-.494.164-1.042-.274-1.645-1.316-.548-1.096-.877-2.164-.986-3.206-.11-1.04.054-1.753.493-2.137zm5.508-.575c.438.329.602 1.014.493 2.055-.11 1.041-.466 2.11-1.069 3.206-.548 1.041-1.069 1.48-1.562 1.315-.438-.383-.603-1.096-.493-2.137.11-1.041.438-2.083.986-3.124.603-1.096 1.151-1.534 1.645-1.315zM36.536 73.085c.493-.164 1.014.302 1.562 1.398.548 1.04.877 2.082.986 3.123.165 1.041.028 1.754-.41 2.138-.494.164-1.042-.275-1.645-1.316-.548-1.096-.877-2.164-.986-3.206-.11-1.04.054-1.753.493-2.137zm5.508-.575c.438.328.602 1.013.493 2.055-.11 1.041-.466 2.11-1.069 3.206-.548 1.04-1.069 1.48-1.562 1.315-.438-.384-.603-1.096-.493-2.137.11-1.042.438-2.083.986-3.124.603-1.096 1.151-1.535 1.645-1.315zM36.536 79.123c.493-.165 1.014.301 1.562 1.397.548 1.042.877 2.083.986 3.124.165 1.041.028 1.754-.41 2.137-.494.165-1.042-.274-1.645-1.315-.548-1.096-.877-2.165-.986-3.206-.11-1.041.054-1.754.493-2.137zm5.508-.576c.438.33.602 1.014.493 2.056-.11 1.04-.466 2.11-1.069 3.206-.548 1.04-1.069 1.48-1.562 1.315-.438-.384-.603-1.096-.493-2.137.11-1.042.438-2.083.986-3.124.603-1.096 1.151-1.535 1.645-1.316zM36.536 85.16c.493-.164 1.014.302 1.562 1.398.548 1.041.877 2.083.986 3.124.165 1.041.028 1.754-.41 2.137-.494.165-1.042-.274-1.645-1.315-.548-1.096-.877-2.165-.986-3.206-.11-1.041.054-1.754.493-2.137zm5.508-.575c.438.33.602 1.014.493 2.055-.11 1.042-.466 2.11-1.069 3.206-.548 1.042-1.069 1.48-1.562 1.316-.438-.384-.603-1.096-.493-2.138.11-1.04.438-2.082.986-3.123.603-1.096 1.151-1.535 1.645-1.316zM36.536 91.199c.493-.165 1.014.301 1.562 1.397.548 1.041.877 2.082.986 3.124.165 1.041.028 1.754-.41 2.137-.494.165-1.042-.274-1.645-1.315-.548-1.096-.877-2.165-.986-3.206-.11-1.041.054-1.754.493-2.137zm5.508-.576c.438.329.602 1.014.493 2.055-.11 1.041-.466 2.11-1.069 3.206-.548 1.041-1.069 1.48-1.562 1.315-.438-.383-.603-1.096-.493-2.137.11-1.041.438-2.082.986-3.124.603-1.096 1.151-1.534 1.645-1.315zM36.536 97.237c.493-.165 1.014.301 1.562 1.397.548 1.041.877 2.083.986 3.124.165 1.041.028 1.754-.41 2.137-.494.165-1.042-.274-1.645-1.315-.548-1.096-.877-2.165-.986-3.206-.11-1.041.054-1.754.493-2.137zm5.508-.576c.438.33.602 1.014.493 2.055-.11 1.042-.466 2.11-1.069 3.206-.548 1.042-1.069 1.48-1.562 1.316-.438-.384-.603-1.097-.493-2.138.11-1.041.438-2.082.986-3.123.603-1.097 1.151-1.535 1.645-1.316z" fill="#FDE106"/><path d="M43.739.63c.493-.164 1.014.302 1.562 1.398.548 1.04.877 2.082.986 3.123.165 1.042.028 1.754-.41 2.138-.494.164-1.042-.274-1.645-1.316-.548-1.096-.877-2.164-.986-3.205-.11-1.042.055-1.754.493-2.138zm5.508-.575c.438.329.602 1.014.493 2.055-.11 1.041-.466 2.11-1.069 3.206-.548 1.041-1.068 1.48-1.562 1.315-.438-.384-.602-1.096-.493-2.137.11-1.041.438-2.083.987-3.124.602-1.096 1.15-1.534 1.644-1.315zM43.739 6.668c.493-.164 1.014.301 1.562 1.398.548 1.04.877 2.082.986 3.123.165 1.041.028 1.754-.41 2.138-.494.164-1.042-.274-1.645-1.316-.548-1.096-.877-2.164-.986-3.206-.11-1.04.055-1.753.493-2.137zm5.508-.575c.438.328.602 1.013.493 2.055-.11 1.041-.466 2.11-1.069 3.206-.548 1.04-1.068 1.48-1.562 1.315-.438-.384-.602-1.096-.493-2.137.11-1.042.438-2.083.987-3.124.602-1.096 1.15-1.535 1.644-1.315zM43.739 12.706c.493-.165 1.014.301 1.562 1.397.548 1.042.877 2.083.986 3.124.165 1.041.028 1.754-.41 2.137-.494.165-1.042-.274-1.645-1.315-.548-1.096-.877-2.165-.986-3.206-.11-1.041.055-1.754.493-2.137zm5.508-.575c.438.328.602 1.013.493 2.055-.11 1.04-.466 2.11-1.069 3.206-.548 1.04-1.068 1.48-1.562 1.315-.438-.384-.602-1.096-.493-2.137.11-1.042.438-2.083.987-3.124.602-1.096 1.15-1.535 1.644-1.316zM43.739 18.744c.493-.164 1.014.301 1.562 1.398.548 1.04.877 2.082.986 3.123.165 1.041.028 1.754-.41 2.137-.494.165-1.042-.274-1.645-1.315-.548-1.096-.877-2.165-.986-3.206-.11-1.041.055-1.753.493-2.137zm5.508-.575c.438.328.602 1.013.493 2.055-.11 1.04-.466 2.11-1.069 3.206-.548 1.04-1.068 1.48-1.562 1.315-.438-.384-.602-1.096-.493-2.137.11-1.042.438-2.083.987-3.124.602-1.096 1.15-1.535 1.644-1.315zM43.739 24.782c.493-.165 1.014.301 1.562 1.397.548 1.042.877 2.083.986 3.124.165 1.041.028 1.754-.41 2.137-.494.165-1.042-.274-1.645-1.315-.548-1.096-.877-2.165-.986-3.206-.11-1.041.055-1.753.493-2.137zm5.508-.576c.438.33.602 1.014.493 2.056-.11 1.04-.466 2.11-1.069 3.205-.548 1.042-1.068 1.48-1.562 1.316-.438-.384-.602-1.096-.493-2.138.11-1.04.438-2.082.987-3.123.602-1.096 1.15-1.535 1.644-1.316zM43.739 30.82c.493-.165 1.014.301 1.562 1.397.548 1.041.877 2.083.986 3.124.165 1.041.028 1.754-.41 2.137-.494.165-1.042-.274-1.645-1.315-.548-1.096-.877-2.165-.986-3.206-.11-1.041.055-1.754.493-2.137zm5.508-.576c.438.33.602 1.014.493 2.055-.11 1.042-.466 2.11-1.069 3.206-.548 1.041-1.068 1.48-1.562 1.316-.438-.384-.602-1.096-.493-2.138.11-1.041.438-2.082.987-3.123.602-1.096 1.15-1.535 1.644-1.316zM43.739 36.858c.493-.165 1.014.3 1.562 1.397.548 1.041.877 2.082.986 3.124.165 1.041.028 1.753-.41 2.137-.494.164-1.042-.274-1.645-1.315-.548-1.096-.877-2.165-.986-3.206-.11-1.041.055-1.754.493-2.137zm5.508-.576c.438.329.602 1.014.493 2.055-.11 1.041-.466 2.11-1.069 3.206-.548 1.041-1.068 1.48-1.562 1.315-.438-.383-.602-1.096-.493-2.137.11-1.041.438-2.082.987-3.124.602-1.096 1.15-1.534 1.644-1.315zM43.739 42.895c.493-.164 1.014.302 1.562 1.398.548 1.041.877 2.082.986 3.124.165 1.04.028 1.753-.41 2.137-.494.164-1.042-.274-1.645-1.315-.548-1.096-.877-2.165-.986-3.206-.11-1.042.055-1.754.493-2.138zm5.508-.575c.438.329.602 1.014.493 2.055-.11 1.041-.466 2.11-1.069 3.206-.548 1.041-1.068 1.48-1.562 1.315-.438-.383-.602-1.096-.493-2.137.11-1.041.438-2.083.987-3.124.602-1.096 1.15-1.534 1.644-1.315zM43.739 48.934c.493-.165 1.014.3 1.562 1.397.548 1.041.877 2.082.986 3.124.165 1.04.028 1.753-.41 2.137-.494.164-1.042-.274-1.645-1.315-.548-1.096-.877-2.165-.986-3.206-.11-1.041.055-1.754.493-2.137zm5.508-.576c.438.329.602 1.014.493 2.055-.11 1.041-.466 2.11-1.069 3.206-.548 1.041-1.068 1.48-1.562 1.315-.438-.383-.602-1.096-.493-2.137.11-1.041.438-2.082.987-3.124.602-1.096 1.15-1.534 1.644-1.315z" fill="#fff"/><path d="M43.739 54.971c.493-.164 1.014.302 1.562 1.398.548 1.041.877 2.082.986 3.123.165 1.042.028 1.754-.41 2.138-.494.164-1.042-.274-1.645-1.316-.548-1.096-.877-2.164-.986-3.205-.11-1.042.055-1.754.493-2.138zm5.508-.575c.438.329.602 1.014.493 2.055-.11 1.041-.466 2.11-1.069 3.206-.548 1.041-1.068 1.48-1.562 1.315-.438-.383-.602-1.096-.493-2.137.11-1.041.438-2.083.987-3.124.602-1.096 1.15-1.534 1.644-1.315zM43.739 61.01c.493-.165 1.014.3 1.562 1.397.548 1.04.877 2.082.986 3.123.165 1.042.028 1.754-.41 2.138-.494.164-1.042-.274-1.645-1.316-.548-1.096-.877-2.164-.986-3.206-.11-1.04.055-1.753.493-2.137zm5.508-.576c.438.329.602 1.014.493 2.055-.11 1.041-.466 2.11-1.069 3.206-.548 1.041-1.068 1.48-1.562 1.315-.438-.384-.602-1.096-.493-2.137.11-1.042.438-2.083.987-3.124.602-1.096 1.15-1.535 1.644-1.315zM43.739 67.047c.493-.164 1.014.302 1.562 1.398.548 1.04.877 2.082.986 3.123.165 1.042.028 1.754-.41 2.138-.494.164-1.042-.274-1.645-1.316-.548-1.096-.877-2.164-.986-3.206-.11-1.04.055-1.753.493-2.137zm5.508-.575c.438.329.602 1.014.493 2.055-.11 1.041-.466 2.11-1.069 3.206-.548 1.041-1.068 1.48-1.562 1.315-.438-.383-.602-1.096-.493-2.137.11-1.041.438-2.083.987-3.124.602-1.096 1.15-1.534 1.644-1.315zM43.739 73.085c.493-.164 1.014.302 1.562 1.398.548 1.04.877 2.082.986 3.123.165 1.041.028 1.754-.41 2.138-.494.164-1.042-.275-1.645-1.316-.548-1.096-.877-2.164-.986-3.206-.11-1.04.055-1.753.493-2.137zm5.508-.575c.438.328.602 1.013.493 2.055-.11 1.041-.466 2.11-1.069 3.206-.548 1.04-1.068 1.48-1.562 1.315-.438-.384-.602-1.096-.493-2.137.11-1.042.438-2.083.987-3.124.602-1.096 1.15-1.535 1.644-1.315zM43.739 79.123c.493-.165 1.014.301 1.562 1.397.548 1.042.877 2.083.986 3.124.165 1.041.028 1.754-.41 2.137-.494.165-1.042-.274-1.645-1.315-.548-1.096-.877-2.165-.986-3.206-.11-1.041.055-1.754.493-2.137zm5.508-.576c.438.33.602 1.014.493 2.056-.11 1.04-.466 2.11-1.069 3.206-.548 1.04-1.068 1.48-1.562 1.315-.438-.384-.602-1.096-.493-2.137.11-1.042.438-2.083.987-3.124.602-1.096 1.15-1.535 1.644-1.316z" fill="#FDE106"/><path d="M43.739 85.16c.493-.164 1.014.302 1.562 1.398.548 1.041.877 2.083.986 3.124.165 1.041.028 1.754-.41 2.137-.494.165-1.042-.274-1.645-1.315-.548-1.096-.877-2.165-.986-3.206-.11-1.041.055-1.754.493-2.137zm5.508-.575c.438.33.602 1.014.493 2.055-.11 1.042-.466 2.11-1.069 3.206-.548 1.042-1.068 1.48-1.562 1.316-.438-.384-.602-1.096-.493-2.138.11-1.04.438-2.082.987-3.123.602-1.096 1.15-1.535 1.644-1.316zM43.739 91.199c.493-.165 1.014.301 1.562 1.397.548 1.041.877 2.082.986 3.124.165 1.041.028 1.754-.41 2.137-.494.165-1.042-.274-1.645-1.315-.548-1.096-.877-2.165-.986-3.206-.11-1.041.055-1.754.493-2.137zm5.508-.576c.438.329.602 1.014.493 2.055-.11 1.041-.466 2.11-1.069 3.206-.548 1.041-1.068 1.48-1.562 1.315-.438-.383-.602-1.096-.493-2.137.11-1.041.438-2.082.987-3.124.602-1.096 1.15-1.534 1.644-1.315zM43.739 97.237c.493-.165 1.014.301 1.562 1.397.548 1.041.877 2.083.986 3.124.165 1.041.028 1.754-.41 2.137-.494.165-1.042-.274-1.645-1.315-.548-1.096-.877-2.165-.986-3.206-.11-1.041.055-1.754.493-2.137zm5.508-.576c.438.33.602 1.014.493 2.055-.11 1.042-.466 2.11-1.069 3.206-.548 1.042-1.068 1.48-1.562 1.316-.438-.384-.602-1.097-.493-2.138.11-1.041.438-2.082.987-3.123.602-1.097 1.15-1.535 1.644-1.316zM43.739 103.275c.493-.165 1.014.301 1.562 1.397.548 1.041.877 2.082.986 3.124.165 1.041.028 1.753-.41 2.137-.494.164-1.042-.274-1.645-1.315-.548-1.096-.877-2.165-.986-3.206-.11-1.041.055-1.754.493-2.137zm5.508-.576c.438.329.602 1.014.493 2.055-.11 1.041-.466 2.11-1.069 3.206-.548 1.041-1.068 1.48-1.562 1.315-.438-.383-.602-1.096-.493-2.137.11-1.041.438-2.082.987-3.124.602-1.096 1.15-1.534 1.644-1.315zM50.94.63c.493-.164 1.014.302 1.562 1.398.548 1.04.877 2.082.986 3.123.165 1.042.028 1.754-.41 2.138-.494.164-1.042-.274-1.645-1.316-.548-1.096-.877-2.164-.986-3.205-.11-1.042.055-1.754.493-2.138zm5.508-.575c.438.329.603 1.014.493 2.055-.11 1.041-.466 2.11-1.069 3.206-.548 1.041-1.068 1.48-1.562 1.315-.438-.384-.602-1.096-.493-2.137.11-1.041.439-2.083.987-3.124.603-1.096 1.15-1.534 1.644-1.315zM50.94 6.668c.493-.164 1.014.301 1.562 1.398.548 1.04.877 2.082.986 3.123.165 1.041.028 1.754-.41 2.138-.494.164-1.042-.274-1.645-1.316-.548-1.096-.877-2.164-.986-3.206-.11-1.04.055-1.753.493-2.137zm5.508-.575c.438.328.603 1.013.493 2.055-.11 1.041-.466 2.11-1.069 3.206-.548 1.04-1.068 1.48-1.562 1.315-.438-.384-.602-1.096-.493-2.137.11-1.042.439-2.083.987-3.124.603-1.096 1.15-1.535 1.644-1.315zM50.94 12.706c.493-.165 1.014.301 1.562 1.397.548 1.042.877 2.083.986 3.124.165 1.041.028 1.754-.41 2.137-.494.165-1.042-.274-1.645-1.315-.548-1.096-.877-2.165-.986-3.206-.11-1.041.055-1.754.493-2.137zm5.508-.575c.438.328.603 1.013.493 2.055-.11 1.04-.466 2.11-1.069 3.206-.548 1.04-1.068 1.48-1.562 1.315-.438-.384-.602-1.096-.493-2.137.11-1.042.439-2.083.987-3.124.603-1.096 1.15-1.535 1.644-1.316zM50.94 18.744c.493-.164 1.014.301 1.562 1.398.548 1.04.877 2.082.986 3.123.165 1.041.028 1.754-.41 2.137-.494.165-1.042-.274-1.645-1.315-.548-1.096-.877-2.165-.986-3.206-.11-1.041.055-1.753.493-2.137zm5.508-.575c.438.328.603 1.013.493 2.055-.11 1.04-.466 2.11-1.069 3.206-.548 1.04-1.068 1.48-1.562 1.315-.438-.384-.602-1.096-.493-2.137.11-1.042.439-2.083.987-3.124.603-1.096 1.15-1.535 1.644-1.315z" fill="#fff"/><path d="M50.94 24.782c.493-.165 1.014.301 1.562 1.397.548 1.042.877 2.083.986 3.124.165 1.041.028 1.754-.41 2.137-.494.165-1.042-.274-1.645-1.315-.548-1.096-.877-2.165-.986-3.206-.11-1.041.055-1.753.493-2.137zm5.508-.576c.438.33.603 1.014.493 2.056-.11 1.04-.466 2.11-1.069 3.205-.548 1.042-1.068 1.48-1.562 1.316-.438-.384-.602-1.096-.493-2.138.11-1.04.439-2.082.987-3.123.603-1.096 1.15-1.535 1.644-1.316zM50.94 30.82c.493-.165 1.014.301 1.562 1.397.548 1.041.877 2.083.986 3.124.165 1.041.028 1.754-.41 2.137-.494.165-1.042-.274-1.645-1.315-.548-1.096-.877-2.165-.986-3.206-.11-1.041.055-1.754.493-2.137zm5.508-.576c.438.33.603 1.014.493 2.055-.11 1.042-.466 2.11-1.069 3.206-.548 1.041-1.068 1.48-1.562 1.316-.438-.384-.602-1.096-.493-2.138.11-1.041.439-2.082.987-3.123.603-1.096 1.15-1.535 1.644-1.316zM50.94 36.858c.493-.165 1.014.3 1.562 1.397.548 1.041.877 2.082.986 3.124.165 1.041.028 1.753-.41 2.137-.494.164-1.042-.274-1.645-1.315-.548-1.096-.877-2.165-.986-3.206-.11-1.041.055-1.754.493-2.137zm5.508-.576c.438.329.603 1.014.493 2.055-.11 1.041-.466 2.11-1.069 3.206-.548 1.041-1.068 1.48-1.562 1.315-.438-.383-.602-1.096-.493-2.137.11-1.041.439-2.082.987-3.124.603-1.096 1.15-1.534 1.644-1.315zM50.94 42.895c.493-.164 1.014.302 1.562 1.398.548 1.041.877 2.082.986 3.124.165 1.04.028 1.753-.41 2.137-.494.164-1.042-.274-1.645-1.315-.548-1.096-.877-2.165-.986-3.206-.11-1.042.055-1.754.493-2.138zm5.508-.575c.438.329.603 1.014.493 2.055-.11 1.041-.466 2.11-1.069 3.206-.548 1.041-1.068 1.48-1.562 1.315-.438-.383-.602-1.096-.493-2.137.11-1.041.439-2.083.987-3.124.603-1.096 1.15-1.534 1.644-1.315z" fill="#FDE106"/><path d="M50.94 48.934c.493-.165 1.014.3 1.562 1.397.548 1.041.877 2.082.986 3.124.165 1.04.028 1.753-.41 2.137-.494.164-1.042-.274-1.645-1.315-.548-1.096-.877-2.165-.986-3.206-.11-1.041.055-1.754.493-2.137zm5.508-.576c.438.329.603 1.014.493 2.055-.11 1.041-.466 2.11-1.069 3.206-.548 1.041-1.068 1.48-1.562 1.315-.438-.383-.602-1.096-.493-2.137.11-1.041.439-2.082.987-3.124.603-1.096 1.15-1.534 1.644-1.315z" fill="#fff"/><path d="M50.94 54.971c.493-.164 1.014.302 1.562 1.398.548 1.041.877 2.082.986 3.123.165 1.042.028 1.754-.41 2.138-.494.164-1.042-.274-1.645-1.316-.548-1.096-.877-2.164-.986-3.205-.11-1.042.055-1.754.493-2.138zm5.508-.575c.438.329.603 1.014.493 2.055-.11 1.041-.466 2.11-1.069 3.206-.548 1.041-1.068 1.48-1.562 1.315-.438-.383-.602-1.096-.493-2.137.11-1.041.439-2.083.987-3.124.603-1.096 1.15-1.534 1.644-1.315zM50.94 61.01c.493-.165 1.014.3 1.562 1.397.548 1.04.877 2.082.986 3.123.165 1.042.028 1.754-.41 2.138-.494.164-1.042-.274-1.645-1.316-.548-1.096-.877-2.164-.986-3.206-.11-1.04.055-1.753.493-2.137zm5.508-.576c.438.329.603 1.014.493 2.055-.11 1.041-.466 2.11-1.069 3.206-.548 1.041-1.068 1.48-1.562 1.315-.438-.384-.602-1.096-.493-2.137.11-1.042.439-2.083.987-3.124.603-1.096 1.15-1.535 1.644-1.315zM50.94 67.047c.493-.164 1.014.302 1.562 1.398.548 1.04.877 2.082.986 3.123.165 1.042.028 1.754-.41 2.138-.494.164-1.042-.274-1.645-1.316-.548-1.096-.877-2.164-.986-3.206-.11-1.04.055-1.753.493-2.137zm5.508-.575c.438.329.603 1.014.493 2.055-.11 1.041-.466 2.11-1.069 3.206-.548 1.041-1.068 1.48-1.562 1.315-.438-.383-.602-1.096-.493-2.137.11-1.041.439-2.083.987-3.124.603-1.096 1.15-1.534 1.644-1.315z" fill="#FDE106"/><path d="M50.94 73.085c.493-.164 1.014.302 1.562 1.398.548 1.04.877 2.082.986 3.123.165 1.041.028 1.754-.41 2.138-.494.164-1.042-.275-1.645-1.316-.548-1.096-.877-2.164-.986-3.206-.11-1.04.055-1.753.493-2.137zm5.508-.575c.438.328.603 1.013.493 2.055-.11 1.041-.466 2.11-1.069 3.206-.548 1.04-1.068 1.48-1.562 1.315-.438-.384-.602-1.096-.493-2.137.11-1.042.439-2.083.987-3.124.603-1.096 1.15-1.535 1.644-1.315zM50.94 79.123c.493-.165 1.014.301 1.562 1.397.548 1.042.877 2.083.986 3.124.165 1.041.028 1.754-.41 2.137-.494.165-1.042-.274-1.645-1.315-.548-1.096-.877-2.165-.986-3.206-.11-1.041.055-1.754.493-2.137zm5.508-.576c.438.33.603 1.014.493 2.056-.11 1.04-.466 2.11-1.069 3.206-.548 1.04-1.068 1.48-1.562 1.315-.438-.384-.602-1.096-.493-2.137.11-1.042.439-2.083.987-3.124.603-1.096 1.15-1.535 1.644-1.316zM50.94 85.16c.493-.164 1.014.302 1.562 1.398.548 1.041.877 2.083.986 3.124.165 1.041.028 1.754-.41 2.137-.494.165-1.042-.274-1.645-1.315-.548-1.096-.877-2.165-.986-3.206-.11-1.041.055-1.754.493-2.137zm5.508-.575c.438.33.603 1.014.493 2.055-.11 1.042-.466 2.11-1.069 3.206-.548 1.042-1.068 1.48-1.562 1.316-.438-.384-.602-1.096-.493-2.138.11-1.04.439-2.082.987-3.123.603-1.096 1.15-1.535 1.644-1.316zM50.94 91.199c.493-.165 1.014.301 1.562 1.397.548 1.041.877 2.082.986 3.124.165 1.041.028 1.754-.41 2.137-.494.165-1.042-.274-1.645-1.315-.548-1.096-.877-2.165-.986-3.206-.11-1.041.055-1.754.493-2.137zm5.508-.576c.438.329.603 1.014.493 2.055-.11 1.041-.466 2.11-1.069 3.206-.548 1.041-1.068 1.48-1.562 1.315-.438-.383-.602-1.096-.493-2.137.11-1.041.439-2.082.987-3.124.603-1.096 1.15-1.534 1.644-1.315zM50.94 97.237c.493-.165 1.014.301 1.562 1.397.548 1.041.877 2.083.986 3.124.165 1.041.028 1.754-.41 2.137-.494.165-1.042-.274-1.645-1.315-.548-1.096-.877-2.165-.986-3.206-.11-1.041.055-1.754.493-2.137zm5.508-.576c.438.33.603 1.014.493 2.055-.11 1.042-.466 2.11-1.069 3.206-.548 1.042-1.068 1.48-1.562 1.316-.438-.384-.602-1.097-.493-2.138.11-1.041.439-2.082.987-3.123.603-1.097 1.15-1.535 1.644-1.316zM50.94 103.275c.493-.165 1.014.301 1.562 1.397.548 1.041.877 2.082.986 3.124.165 1.041.028 1.753-.41 2.137-.494.164-1.042-.274-1.645-1.315-.548-1.096-.877-2.165-.986-3.206-.11-1.041.055-1.754.493-2.137zm5.508-.576c.438.329.603 1.014.493 2.055-.11 1.041-.466 2.11-1.069 3.206-.548 1.041-1.068 1.48-1.562 1.315-.438-.383-.602-1.096-.493-2.137.11-1.041.439-2.082.987-3.124.603-1.096 1.15-1.534 1.644-1.315zM58.143.63c.493-.164 1.014.302 1.562 1.398.548 1.04.877 2.082.987 3.123.164 1.042.027 1.754-.411 2.138-.494.164-1.042-.274-1.645-1.316-.547-1.096-.876-2.164-.986-3.205-.11-1.042.055-1.754.493-2.138zm5.508-.575c.438.329.603 1.014.493 2.055-.11 1.041-.466 2.11-1.069 3.206-.547 1.041-1.068 1.48-1.561 1.315-.439-.384-.603-1.096-.494-2.137.11-1.041.439-2.083.987-3.124C62.61.274 63.157-.164 63.65.055zM58.143 6.668c.493-.164 1.014.301 1.562 1.398.548 1.04.877 2.082.987 3.123.164 1.041.027 1.754-.411 2.138-.494.164-1.042-.274-1.645-1.316-.547-1.096-.876-2.164-.986-3.206-.11-1.04.055-1.753.493-2.137zm5.508-.575c.438.328.603 1.013.493 2.055-.11 1.041-.466 2.11-1.069 3.206-.547 1.04-1.068 1.48-1.561 1.315-.439-.384-.603-1.096-.494-2.137.11-1.042.439-2.083.987-3.124.603-1.096 1.15-1.535 1.644-1.315zM58.143 12.706c.493-.165 1.014.301 1.562 1.397.548 1.042.877 2.083.987 3.124.164 1.041.027 1.754-.411 2.137-.494.165-1.042-.274-1.645-1.315-.547-1.096-.876-2.165-.986-3.206-.11-1.041.055-1.754.493-2.137zm5.508-.575c.438.328.603 1.013.493 2.055-.11 1.04-.466 2.11-1.069 3.206-.547 1.04-1.068 1.48-1.561 1.315-.439-.384-.603-1.096-.494-2.137.11-1.042.439-2.083.987-3.124.603-1.096 1.15-1.535 1.644-1.316zM58.143 18.744c.493-.164 1.014.301 1.562 1.398.548 1.04.877 2.082.987 3.123.164 1.041.027 1.754-.411 2.137-.494.165-1.042-.274-1.645-1.315-.547-1.096-.876-2.165-.986-3.206-.11-1.041.055-1.753.493-2.137zm5.508-.575c.438.328.603 1.013.493 2.055-.11 1.04-.466 2.11-1.069 3.206-.547 1.04-1.068 1.48-1.561 1.315-.439-.384-.603-1.096-.494-2.137.11-1.042.439-2.083.987-3.124.603-1.096 1.15-1.535 1.644-1.315zM58.143 24.782c.493-.165 1.014.301 1.562 1.397.548 1.042.877 2.083.987 3.124.164 1.041.027 1.754-.411 2.137-.494.165-1.042-.274-1.645-1.315-.547-1.096-.876-2.165-.986-3.206-.11-1.041.055-1.753.493-2.137zm5.508-.576c.438.33.603 1.014.493 2.056-.11 1.04-.466 2.11-1.069 3.205-.547 1.042-1.068 1.48-1.561 1.316-.439-.384-.603-1.096-.494-2.138.11-1.04.439-2.082.987-3.123.603-1.096 1.15-1.535 1.644-1.316zM58.143 30.82c.493-.165 1.014.301 1.562 1.397.548 1.041.877 2.083.987 3.124.164 1.041.027 1.754-.411 2.137-.494.165-1.042-.274-1.645-1.315-.547-1.096-.876-2.165-.986-3.206-.11-1.041.055-1.754.493-2.137zm5.508-.576c.438.33.603 1.014.493 2.055-.11 1.042-.466 2.11-1.069 3.206-.547 1.041-1.068 1.48-1.561 1.316-.439-.384-.603-1.096-.494-2.138.11-1.041.439-2.082.987-3.123.603-1.096 1.15-1.535 1.644-1.316z" fill="#fff"/><path d="M58.143 36.858c.493-.165 1.014.3 1.562 1.397.548 1.041.877 2.082.987 3.124.164 1.041.027 1.753-.411 2.137-.494.164-1.042-.274-1.645-1.315-.547-1.096-.876-2.165-.986-3.206-.11-1.041.055-1.754.493-2.137zm5.508-.576c.438.329.603 1.014.493 2.055-.11 1.041-.466 2.11-1.069 3.206-.547 1.041-1.068 1.48-1.561 1.315-.439-.383-.603-1.096-.494-2.137.11-1.041.439-2.082.987-3.124.603-1.096 1.15-1.534 1.644-1.315zM58.143 42.895c.493-.164 1.014.302 1.562 1.398.548 1.041.877 2.082.987 3.124.164 1.04.027 1.753-.411 2.137-.494.164-1.042-.274-1.645-1.315-.547-1.096-.876-2.165-.986-3.206-.11-1.042.055-1.754.493-2.138zm5.508-.575c.438.329.603 1.014.493 2.055-.11 1.041-.466 2.11-1.069 3.206-.547 1.041-1.068 1.48-1.561 1.315-.439-.383-.603-1.096-.494-2.137.11-1.041.439-2.083.987-3.124.603-1.096 1.15-1.534 1.644-1.315zM58.143 48.934c.493-.165 1.014.3 1.562 1.397.548 1.041.877 2.082.987 3.124.164 1.04.027 1.753-.411 2.137-.494.164-1.042-.274-1.645-1.315-.547-1.096-.876-2.165-.986-3.206-.11-1.041.055-1.754.493-2.137zm5.508-.576c.438.329.603 1.014.493 2.055-.11 1.041-.466 2.11-1.069 3.206-.547 1.041-1.068 1.48-1.561 1.315-.439-.383-.603-1.096-.494-2.137.11-1.041.439-2.082.987-3.124.603-1.096 1.15-1.534 1.644-1.315zM58.143 54.971c.493-.164 1.014.302 1.562 1.398.548 1.041.877 2.082.987 3.123.164 1.042.027 1.754-.411 2.138-.494.164-1.042-.274-1.645-1.316-.547-1.096-.876-2.164-.986-3.205-.11-1.042.055-1.754.493-2.138zm5.508-.575c.438.329.603 1.014.493 2.055-.11 1.041-.466 2.11-1.069 3.206-.547 1.041-1.068 1.48-1.561 1.315-.439-.383-.603-1.096-.494-2.137.11-1.041.439-2.083.987-3.124.603-1.096 1.15-1.534 1.644-1.315zM58.143 61.01c.493-.165 1.014.3 1.562 1.397.548 1.04.877 2.082.987 3.123.164 1.042.027 1.754-.411 2.138-.494.164-1.042-.274-1.645-1.316-.547-1.096-.876-2.164-.986-3.206-.11-1.04.055-1.753.493-2.137zm5.508-.576c.438.329.603 1.014.493 2.055-.11 1.041-.466 2.11-1.069 3.206-.547 1.041-1.068 1.48-1.561 1.315-.439-.384-.603-1.096-.494-2.137.11-1.042.439-2.083.987-3.124.603-1.096 1.15-1.535 1.644-1.315z" fill="#FDE106"/><path d="M58.143 67.047c.493-.164 1.014.302 1.562 1.398.548 1.04.877 2.082.987 3.123.164 1.042.027 1.754-.411 2.138-.494.164-1.042-.274-1.645-1.316-.547-1.096-.876-2.164-.986-3.206-.11-1.04.055-1.753.493-2.137zm5.508-.575c.438.329.603 1.014.493 2.055-.11 1.041-.466 2.11-1.069 3.206-.547 1.041-1.068 1.48-1.561 1.315-.439-.383-.603-1.096-.494-2.137.11-1.041.439-2.083.987-3.124.603-1.096 1.15-1.534 1.644-1.315zM58.143 73.085c.493-.164 1.014.302 1.562 1.398.548 1.04.877 2.082.987 3.123.164 1.041.027 1.754-.411 2.138-.494.164-1.042-.275-1.645-1.316-.547-1.096-.876-2.164-.986-3.206-.11-1.04.055-1.753.493-2.137zm5.508-.575c.438.328.603 1.013.493 2.055-.11 1.041-.466 2.11-1.069 3.206-.547 1.04-1.068 1.48-1.561 1.315-.439-.384-.603-1.096-.494-2.137.11-1.042.439-2.083.987-3.124.603-1.096 1.15-1.535 1.644-1.315zM58.143 79.123c.493-.165 1.014.301 1.562 1.397.548 1.042.877 2.083.987 3.124.164 1.041.027 1.754-.411 2.137-.494.165-1.042-.274-1.645-1.315-.547-1.096-.876-2.165-.986-3.206-.11-1.041.055-1.754.493-2.137zm5.508-.576c.438.33.603 1.014.493 2.056-.11 1.04-.466 2.11-1.069 3.206-.547 1.04-1.068 1.48-1.561 1.315-.439-.384-.603-1.096-.494-2.137.11-1.042.439-2.083.987-3.124.603-1.096 1.15-1.535 1.644-1.316zM58.143 85.16c.493-.164 1.014.302 1.562 1.398.548 1.041.877 2.083.987 3.124.164 1.041.027 1.754-.411 2.137-.494.165-1.042-.274-1.645-1.315-.547-1.096-.876-2.165-.986-3.206-.11-1.041.055-1.754.493-2.137zm5.508-.575c.438.33.603 1.014.493 2.055-.11 1.042-.466 2.11-1.069 3.206-.547 1.042-1.068 1.48-1.561 1.316-.439-.384-.603-1.096-.494-2.138.11-1.04.439-2.082.987-3.123.603-1.096 1.15-1.535 1.644-1.316zM58.143 91.199c.493-.165 1.014.301 1.562 1.397.548 1.041.877 2.082.987 3.124.164 1.041.027 1.754-.411 2.137-.494.165-1.042-.274-1.645-1.315-.547-1.096-.876-2.165-.986-3.206-.11-1.041.055-1.754.493-2.137zm5.508-.576c.438.329.603 1.014.493 2.055-.11 1.041-.466 2.11-1.069 3.206-.547 1.041-1.068 1.48-1.561 1.315-.439-.383-.603-1.096-.494-2.137.11-1.041.439-2.082.987-3.124.603-1.096 1.15-1.534 1.644-1.315zM58.143 97.237c.493-.165 1.014.301 1.562 1.397.548 1.041.877 2.083.987 3.124.164 1.041.027 1.754-.411 2.137-.494.165-1.042-.274-1.645-1.315-.547-1.096-.876-2.165-.986-3.206-.11-1.041.055-1.754.493-2.137zm5.508-.576c.438.33.603 1.014.493 2.055-.11 1.042-.466 2.11-1.069 3.206-.547 1.042-1.068 1.48-1.561 1.316-.439-.384-.603-1.097-.494-2.138.11-1.041.439-2.082.987-3.123.603-1.097 1.15-1.535 1.644-1.316zM58.143 103.275c.493-.165 1.014.301 1.562 1.397.548 1.041.877 2.082.987 3.124.164 1.041.027 1.753-.411 2.137-.494.164-1.042-.274-1.645-1.315-.547-1.096-.876-2.165-.986-3.206-.11-1.041.055-1.754.493-2.137zm5.508-.576c.438.329.603 1.014.493 2.055-.11 1.041-.466 2.11-1.069 3.206-.547 1.041-1.068 1.48-1.561 1.315-.439-.383-.603-1.096-.494-2.137.11-1.041.439-2.082.987-3.124.603-1.096 1.15-1.534 1.644-1.315zM65.344 6.668c.494-.164 1.014.301 1.562 1.398.548 1.04.877 2.082.987 3.123.164 1.041.027 1.754-.411 2.138-.493.164-1.041-.274-1.644-1.316-.548-1.096-.877-2.164-.987-3.206-.11-1.04.055-1.753.493-2.137zm5.508-.575c.438.328.603 1.013.493 2.055-.11 1.041-.466 2.11-1.068 3.206-.548 1.04-1.069 1.48-1.562 1.315-.439-.384-.603-1.096-.493-2.137.11-1.042.438-2.083.986-3.124.603-1.096 1.15-1.535 1.644-1.315zM65.344 12.706c.494-.165 1.014.301 1.562 1.397.548 1.042.877 2.083.987 3.124.164 1.041.027 1.754-.411 2.137-.493.165-1.041-.274-1.644-1.315-.548-1.096-.877-2.165-.987-3.206-.11-1.041.055-1.754.493-2.137zm5.508-.575c.438.328.603 1.013.493 2.055-.11 1.04-.466 2.11-1.068 3.206-.548 1.04-1.069 1.48-1.562 1.315-.439-.384-.603-1.096-.493-2.137.11-1.042.438-2.083.986-3.124.603-1.096 1.15-1.535 1.644-1.316zM65.344 18.744c.494-.164 1.014.301 1.562 1.398.548 1.04.877 2.082.987 3.123.164 1.041.027 1.754-.411 2.137-.493.165-1.041-.274-1.644-1.315-.548-1.096-.877-2.165-.987-3.206-.11-1.041.055-1.753.493-2.137zm5.508-.575c.438.328.603 1.013.493 2.055-.11 1.04-.466 2.11-1.068 3.206-.548 1.04-1.069 1.48-1.562 1.315-.439-.384-.603-1.096-.493-2.137.11-1.042.438-2.083.986-3.124.603-1.096 1.15-1.535 1.644-1.315zM65.344 24.782c.494-.165 1.014.301 1.562 1.397.548 1.042.877 2.083.987 3.124.164 1.041.027 1.754-.411 2.137-.493.165-1.041-.274-1.644-1.315-.548-1.096-.877-2.165-.987-3.206-.11-1.041.055-1.753.493-2.137zm5.508-.576c.438.33.603 1.014.493 2.056-.11 1.04-.466 2.11-1.068 3.205-.548 1.042-1.069 1.48-1.562 1.316-.439-.384-.603-1.096-.493-2.138.11-1.04.438-2.082.986-3.123.603-1.096 1.15-1.535 1.644-1.316zM65.344 30.82c.494-.165 1.014.301 1.562 1.397.548 1.041.877 2.083.987 3.124.164 1.041.027 1.754-.411 2.137-.493.165-1.041-.274-1.644-1.315-.548-1.096-.877-2.165-.987-3.206-.11-1.041.055-1.754.493-2.137zm5.508-.576c.438.33.603 1.014.493 2.055-.11 1.042-.466 2.11-1.068 3.206-.548 1.041-1.069 1.48-1.562 1.316-.439-.384-.603-1.096-.493-2.138.11-1.041.438-2.082.986-3.123.603-1.096 1.15-1.535 1.644-1.316zM65.344 36.858c.494-.165 1.014.3 1.562 1.397.548 1.041.877 2.082.987 3.124.164 1.041.027 1.753-.411 2.137-.493.164-1.041-.274-1.644-1.315-.548-1.096-.877-2.165-.987-3.206-.11-1.041.055-1.754.493-2.137zm5.508-.576c.438.329.603 1.014.493 2.055-.11 1.041-.466 2.11-1.068 3.206-.548 1.041-1.069 1.48-1.562 1.315-.439-.383-.603-1.096-.493-2.137.11-1.041.438-2.082.986-3.124.603-1.096 1.15-1.534 1.644-1.315zM65.344 42.895c.494-.164 1.014.302 1.562 1.398.548 1.041.877 2.082.987 3.124.164 1.04.027 1.753-.411 2.137-.493.164-1.041-.274-1.644-1.315-.548-1.096-.877-2.165-.987-3.206-.11-1.042.055-1.754.493-2.138zm5.508-.575c.438.329.603 1.014.493 2.055-.11 1.041-.466 2.11-1.068 3.206-.548 1.041-1.069 1.48-1.562 1.315-.439-.383-.603-1.096-.493-2.137.11-1.041.438-2.083.986-3.124.603-1.096 1.15-1.534 1.644-1.315z" fill="#fff"/><path d="M65.344 48.934c.494-.165 1.014.3 1.562 1.397.548 1.041.877 2.082.987 3.124.164 1.04.027 1.753-.411 2.137-.493.164-1.041-.274-1.644-1.315-.548-1.096-.877-2.165-.987-3.206-.11-1.041.055-1.754.493-2.137zm5.508-.576c.438.329.603 1.014.493 2.055-.11 1.041-.466 2.11-1.068 3.206-.548 1.041-1.069 1.48-1.562 1.315-.439-.383-.603-1.096-.493-2.137.11-1.041.438-2.082.986-3.124.603-1.096 1.15-1.534 1.644-1.315zM65.344 54.971c.494-.164 1.014.302 1.562 1.398.548 1.041.877 2.082.987 3.123.164 1.042.027 1.754-.411 2.138-.493.164-1.041-.274-1.644-1.316-.548-1.096-.877-2.164-.987-3.205-.11-1.042.055-1.754.493-2.138zm5.508-.575c.438.329.603 1.014.493 2.055-.11 1.041-.466 2.11-1.068 3.206-.548 1.041-1.069 1.48-1.562 1.315-.439-.383-.603-1.096-.493-2.137.11-1.041.438-2.083.986-3.124.603-1.096 1.15-1.534 1.644-1.315zM65.344 61.01c.494-.165 1.014.3 1.562 1.397.548 1.04.877 2.082.987 3.123.164 1.042.027 1.754-.411 2.138-.493.164-1.041-.274-1.644-1.316-.548-1.096-.877-2.164-.987-3.206-.11-1.04.055-1.753.493-2.137zm5.508-.576c.438.329.603 1.014.493 2.055-.11 1.041-.466 2.11-1.068 3.206-.548 1.041-1.069 1.48-1.562 1.315-.439-.384-.603-1.096-.493-2.137.11-1.042.438-2.083.986-3.124.603-1.096 1.15-1.535 1.644-1.315z" fill="#FDE106"/><path d="M65.344 67.047c.494-.164 1.014.302 1.562 1.398.548 1.04.877 2.082.987 3.123.164 1.042.027 1.754-.411 2.138-.493.164-1.041-.274-1.644-1.316-.548-1.096-.877-2.164-.987-3.206-.11-1.04.055-1.753.493-2.137zm5.508-.575c.438.329.603 1.014.493 2.055-.11 1.041-.466 2.11-1.068 3.206-.548 1.041-1.069 1.48-1.562 1.315-.439-.383-.603-1.096-.493-2.137.11-1.041.438-2.083.986-3.124.603-1.096 1.15-1.534 1.644-1.315zM65.344 73.085c.494-.164 1.014.302 1.562 1.398.548 1.04.877 2.082.987 3.123.164 1.041.027 1.754-.411 2.138-.493.164-1.041-.275-1.644-1.316-.548-1.096-.877-2.164-.987-3.206-.11-1.04.055-1.753.493-2.137zm5.508-.575c.438.328.603 1.013.493 2.055-.11 1.041-.466 2.11-1.068 3.206-.548 1.04-1.069 1.48-1.562 1.315-.439-.384-.603-1.096-.493-2.137.11-1.042.438-2.083.986-3.124.603-1.096 1.15-1.535 1.644-1.315zM65.344 79.123c.494-.165 1.014.301 1.562 1.397.548 1.042.877 2.083.987 3.124.164 1.041.027 1.754-.411 2.137-.493.165-1.041-.274-1.644-1.315-.548-1.096-.877-2.165-.987-3.206-.11-1.041.055-1.754.493-2.137zm5.508-.576c.438.33.603 1.014.493 2.056-.11 1.04-.466 2.11-1.068 3.206-.548 1.04-1.069 1.48-1.562 1.315-.439-.384-.603-1.096-.493-2.137.11-1.042.438-2.083.986-3.124.603-1.096 1.15-1.535 1.644-1.316zM65.344 85.16c.494-.164 1.014.302 1.562 1.398.548 1.041.877 2.083.987 3.124.164 1.041.027 1.754-.411 2.137-.493.165-1.041-.274-1.644-1.315-.548-1.096-.877-2.165-.987-3.206-.11-1.041.055-1.754.493-2.137zm5.508-.575c.438.33.603 1.014.493 2.055-.11 1.042-.466 2.11-1.068 3.206-.548 1.042-1.069 1.48-1.562 1.316-.439-.384-.603-1.096-.493-2.138.11-1.04.438-2.082.986-3.123.603-1.096 1.15-1.535 1.644-1.316zM65.344 91.199c.494-.165 1.014.301 1.562 1.397.548 1.041.877 2.082.987 3.124.164 1.041.027 1.754-.411 2.137-.493.165-1.041-.274-1.644-1.315-.548-1.096-.877-2.165-.987-3.206-.11-1.041.055-1.754.493-2.137zm5.508-.576c.438.329.603 1.014.493 2.055-.11 1.041-.466 2.11-1.068 3.206-.548 1.041-1.069 1.48-1.562 1.315-.439-.383-.603-1.096-.493-2.137.11-1.041.438-2.082.986-3.124.603-1.096 1.15-1.534 1.644-1.315zM65.344 97.237c.494-.165 1.014.301 1.562 1.397.548 1.041.877 2.083.987 3.124.164 1.041.027 1.754-.411 2.137-.493.165-1.041-.274-1.644-1.315-.548-1.096-.877-2.165-.987-3.206-.11-1.041.055-1.754.493-2.137zm5.508-.576c.438.33.603 1.014.493 2.055-.11 1.042-.466 2.11-1.068 3.206-.548 1.042-1.069 1.48-1.562 1.316-.439-.384-.603-1.097-.493-2.138.11-1.041.438-2.082.986-3.123.603-1.097 1.15-1.535 1.644-1.316zM72.546 6.668c.493-.164 1.013.301 1.561 1.398.549 1.04.877 2.082.987 3.123.164 1.041.027 1.754-.411 2.138-.493.164-1.041-.274-1.644-1.316-.548-1.096-.877-2.164-.987-3.206-.11-1.04.055-1.753.494-2.137zm5.507-.575c.439.328.603 1.013.493 2.055-.11 1.041-.465 2.11-1.068 3.206-.548 1.04-1.069 1.48-1.562 1.315-.438-.384-.603-1.096-.493-2.137.11-1.042.438-2.083.986-3.124.603-1.096 1.151-1.535 1.644-1.315zM72.546 12.706c.493-.165 1.013.301 1.561 1.397.549 1.042.877 2.083.987 3.124.164 1.041.027 1.754-.411 2.137-.493.165-1.041-.274-1.644-1.315-.548-1.096-.877-2.165-.987-3.206-.11-1.041.055-1.754.494-2.137zm5.507-.575c.439.328.603 1.013.493 2.055-.11 1.04-.465 2.11-1.068 3.206-.548 1.04-1.069 1.48-1.562 1.315-.438-.384-.603-1.096-.493-2.137.11-1.042.438-2.083.986-3.124.603-1.096 1.151-1.535 1.644-1.316z" fill="#fff"/><path d="M72.546 18.744c.493-.164 1.013.301 1.561 1.398.549 1.04.877 2.082.987 3.123.164 1.041.027 1.754-.411 2.137-.493.165-1.041-.274-1.644-1.315-.548-1.096-.877-2.165-.987-3.206-.11-1.041.055-1.753.494-2.137zm5.507-.575c.439.328.603 1.013.493 2.055-.11 1.04-.465 2.11-1.068 3.206-.548 1.04-1.069 1.48-1.562 1.315-.438-.384-.603-1.096-.493-2.137.11-1.042.438-2.083.986-3.124.603-1.096 1.151-1.535 1.644-1.315zM72.546 24.782c.493-.165 1.013.301 1.561 1.397.549 1.042.877 2.083.987 3.124.164 1.041.027 1.754-.411 2.137-.493.165-1.041-.274-1.644-1.315-.548-1.096-.877-2.165-.987-3.206-.11-1.041.055-1.753.494-2.137zm5.507-.576c.439.33.603 1.014.493 2.056-.11 1.04-.465 2.11-1.068 3.205-.548 1.042-1.069 1.48-1.562 1.316-.438-.384-.603-1.096-.493-2.138.11-1.04.438-2.082.986-3.123.603-1.096 1.151-1.535 1.644-1.316zM72.546 30.82c.493-.165 1.013.301 1.561 1.397.549 1.041.877 2.083.987 3.124.164 1.041.027 1.754-.411 2.137-.493.165-1.041-.274-1.644-1.315-.548-1.096-.877-2.165-.987-3.206-.11-1.041.055-1.754.494-2.137zm5.507-.576c.439.33.603 1.014.493 2.055-.11 1.042-.465 2.11-1.068 3.206-.548 1.041-1.069 1.48-1.562 1.316-.438-.384-.603-1.096-.493-2.138.11-1.041.438-2.082.986-3.123.603-1.096 1.151-1.535 1.644-1.316zM72.546 36.858c.493-.165 1.013.3 1.561 1.397.549 1.041.877 2.082.987 3.124.164 1.041.027 1.753-.411 2.137-.493.164-1.041-.274-1.644-1.315-.548-1.096-.877-2.165-.987-3.206-.11-1.041.055-1.754.494-2.137zm5.507-.576c.439.329.603 1.014.493 2.055-.11 1.041-.465 2.11-1.068 3.206-.548 1.041-1.069 1.48-1.562 1.315-.438-.383-.603-1.096-.493-2.137.11-1.041.438-2.082.986-3.124.603-1.096 1.151-1.534 1.644-1.315zM72.546 42.895c.493-.164 1.013.302 1.561 1.398.549 1.041.877 2.082.987 3.124.164 1.04.027 1.753-.411 2.137-.493.164-1.041-.274-1.644-1.315-.548-1.096-.877-2.165-.987-3.206-.11-1.042.055-1.754.494-2.138zm5.507-.575c.439.329.603 1.014.493 2.055-.11 1.041-.465 2.11-1.068 3.206-.548 1.041-1.069 1.48-1.562 1.315-.438-.383-.603-1.096-.493-2.137.11-1.041.438-2.083.986-3.124.603-1.096 1.151-1.534 1.644-1.315zM72.546 48.934c.493-.165 1.013.3 1.561 1.397.549 1.041.877 2.082.987 3.124.164 1.04.027 1.753-.411 2.137-.493.164-1.041-.274-1.644-1.315-.548-1.096-.877-2.165-.987-3.206-.11-1.041.055-1.754.494-2.137zm5.507-.576c.439.329.603 1.014.493 2.055-.11 1.041-.465 2.11-1.068 3.206-.548 1.041-1.069 1.48-1.562 1.315-.438-.383-.603-1.096-.493-2.137.11-1.041.438-2.082.986-3.124.603-1.096 1.151-1.534 1.644-1.315zM72.546 54.971c.493-.164 1.013.302 1.561 1.398.549 1.041.877 2.082.987 3.123.164 1.042.027 1.754-.411 2.138-.493.164-1.041-.274-1.644-1.316-.548-1.096-.877-2.164-.987-3.205-.11-1.042.055-1.754.494-2.138zm5.507-.575c.439.329.603 1.014.493 2.055-.11 1.041-.465 2.11-1.068 3.206-.548 1.041-1.069 1.48-1.562 1.315-.438-.383-.603-1.096-.493-2.137.11-1.041.438-2.083.986-3.124.603-1.096 1.151-1.534 1.644-1.315z" fill="#FDE106"/><path d="M72.546 61.01c.493-.165 1.013.3 1.561 1.397.549 1.04.877 2.082.987 3.123.164 1.042.027 1.754-.411 2.138-.493.164-1.041-.274-1.644-1.316-.548-1.096-.877-2.164-.987-3.206-.11-1.04.055-1.753.494-2.137zm5.507-.576c.439.329.603 1.014.493 2.055-.11 1.041-.465 2.11-1.068 3.206-.548 1.041-1.069 1.48-1.562 1.315-.438-.384-.603-1.096-.493-2.137.11-1.042.438-2.083.986-3.124.603-1.096 1.151-1.535 1.644-1.315zM72.546 67.047c.493-.164 1.013.302 1.561 1.398.549 1.04.877 2.082.987 3.123.164 1.042.027 1.754-.411 2.138-.493.164-1.041-.274-1.644-1.316-.548-1.096-.877-2.164-.987-3.206-.11-1.04.055-1.753.494-2.137zm5.507-.575c.439.329.603 1.014.493 2.055-.11 1.041-.465 2.11-1.068 3.206-.548 1.041-1.069 1.48-1.562 1.315-.438-.383-.603-1.096-.493-2.137.11-1.041.438-2.083.986-3.124.603-1.096 1.151-1.534 1.644-1.315zM72.546 73.085c.493-.164 1.013.302 1.561 1.398.549 1.04.877 2.082.987 3.123.164 1.041.027 1.754-.411 2.138-.493.164-1.041-.275-1.644-1.316-.548-1.096-.877-2.164-.987-3.206-.11-1.04.055-1.753.494-2.137zm5.507-.575c.439.328.603 1.013.493 2.055-.11 1.041-.465 2.11-1.068 3.206-.548 1.04-1.069 1.48-1.562 1.315-.438-.384-.603-1.096-.493-2.137.11-1.042.438-2.083.986-3.124.603-1.096 1.151-1.535 1.644-1.315zM72.546 79.123c.493-.165 1.013.301 1.561 1.397.549 1.042.877 2.083.987 3.124.164 1.041.027 1.754-.411 2.137-.493.165-1.041-.274-1.644-1.315-.548-1.096-.877-2.165-.987-3.206-.11-1.041.055-1.754.494-2.137zm5.507-.576c.439.33.603 1.014.493 2.056-.11 1.04-.465 2.11-1.068 3.206-.548 1.04-1.069 1.48-1.562 1.315-.438-.384-.603-1.096-.493-2.137.11-1.042.438-2.083.986-3.124.603-1.096 1.151-1.535 1.644-1.316zM72.546 85.16c.493-.164 1.013.302 1.561 1.398.549 1.041.877 2.083.987 3.124.164 1.041.027 1.754-.411 2.137-.493.165-1.041-.274-1.644-1.315-.548-1.096-.877-2.165-.987-3.206-.11-1.041.055-1.754.494-2.137zm5.507-.575c.439.33.603 1.014.493 2.055-.11 1.042-.465 2.11-1.068 3.206-.548 1.042-1.069 1.48-1.562 1.316-.438-.384-.603-1.096-.493-2.138.11-1.04.438-2.082.986-3.123.603-1.096 1.151-1.535 1.644-1.316zM72.546 91.199c.493-.165 1.013.301 1.561 1.397.549 1.041.877 2.082.987 3.124.164 1.041.027 1.754-.411 2.137-.493.165-1.041-.274-1.644-1.315-.548-1.096-.877-2.165-.987-3.206-.11-1.041.055-1.754.494-2.137zm5.507-.576c.439.329.603 1.014.493 2.055-.11 1.041-.465 2.11-1.068 3.206-.548 1.041-1.069 1.48-1.562 1.315-.438-.383-.603-1.096-.493-2.137.11-1.041.438-2.082.986-3.124.603-1.096 1.151-1.534 1.644-1.315zM72.546 97.237c.493-.165 1.013.301 1.561 1.397.549 1.041.877 2.083.987 3.124.164 1.041.027 1.754-.411 2.137-.493.165-1.041-.274-1.644-1.315-.548-1.096-.877-2.165-.987-3.206-.11-1.041.055-1.754.494-2.137zm5.507-.576c.439.33.603 1.014.493 2.055-.11 1.042-.465 2.11-1.068 3.206-.548 1.042-1.069 1.48-1.562 1.316-.438-.384-.603-1.097-.493-2.138.11-1.041.438-2.082.986-3.123.603-1.097 1.151-1.535 1.644-1.316zM79.749 12.706c.493-.165 1.014.301 1.562 1.397.548 1.042.876 2.083.986 3.124.165 1.041.028 1.754-.41 2.137-.494.165-1.042-.274-1.645-1.315-.548-1.096-.877-2.165-.987-3.206-.11-1.041.055-1.754.494-2.137zm5.507-.575c.439.328.603 1.013.494 2.055-.11 1.04-.466 2.11-1.069 3.206-.548 1.04-1.069 1.48-1.562 1.315-.438-.384-.603-1.096-.493-2.137.11-1.042.438-2.083.986-3.124.603-1.096 1.151-1.535 1.644-1.316zM79.749 18.744c.493-.164 1.014.301 1.562 1.398.548 1.04.876 2.082.986 3.123.165 1.041.028 1.754-.41 2.137-.494.165-1.042-.274-1.645-1.315-.548-1.096-.877-2.165-.987-3.206-.11-1.041.055-1.753.494-2.137zm5.507-.575c.439.328.603 1.013.494 2.055-.11 1.04-.466 2.11-1.069 3.206-.548 1.04-1.069 1.48-1.562 1.315-.438-.384-.603-1.096-.493-2.137.11-1.042.438-2.083.986-3.124.603-1.096 1.151-1.535 1.644-1.315zM79.749 24.782c.493-.165 1.014.301 1.562 1.397.548 1.042.876 2.083.986 3.124.165 1.041.028 1.754-.41 2.137-.494.165-1.042-.274-1.645-1.315-.548-1.096-.877-2.165-.987-3.206-.11-1.041.055-1.753.494-2.137zm5.507-.576c.439.33.603 1.014.494 2.056-.11 1.04-.466 2.11-1.069 3.205-.548 1.042-1.069 1.48-1.562 1.316-.438-.384-.603-1.096-.493-2.138.11-1.04.438-2.082.986-3.123.603-1.096 1.151-1.535 1.644-1.316z" fill="#fff"/><path d="M79.749 30.82c.493-.165 1.014.301 1.562 1.397.548 1.041.876 2.083.986 3.124.165 1.041.028 1.754-.41 2.137-.494.165-1.042-.274-1.645-1.315-.548-1.096-.877-2.165-.987-3.206-.11-1.041.055-1.754.494-2.137zm5.507-.576c.439.33.603 1.014.494 2.055-.11 1.042-.466 2.11-1.069 3.206-.548 1.041-1.069 1.48-1.562 1.316-.438-.384-.603-1.096-.493-2.138.11-1.041.438-2.082.986-3.123.603-1.096 1.151-1.535 1.644-1.316zM79.749 36.858c.493-.165 1.014.3 1.562 1.397.548 1.041.876 2.082.986 3.124.165 1.041.028 1.753-.41 2.137-.494.164-1.042-.274-1.645-1.315-.548-1.096-.877-2.165-.987-3.206-.11-1.041.055-1.754.494-2.137zm5.507-.576c.439.329.603 1.014.494 2.055-.11 1.041-.466 2.11-1.069 3.206-.548 1.041-1.069 1.48-1.562 1.315-.438-.383-.603-1.096-.493-2.137.11-1.041.438-2.082.986-3.124.603-1.096 1.151-1.534 1.644-1.315zM79.749 42.895c.493-.164 1.014.302 1.562 1.398.548 1.041.876 2.082.986 3.124.165 1.04.028 1.753-.41 2.137-.494.164-1.042-.274-1.645-1.315-.548-1.096-.877-2.165-.987-3.206-.11-1.042.055-1.754.494-2.138zm5.507-.575c.439.329.603 1.014.494 2.055-.11 1.041-.466 2.11-1.069 3.206-.548 1.041-1.069 1.48-1.562 1.315-.438-.383-.603-1.096-.493-2.137.11-1.041.438-2.083.986-3.124.603-1.096 1.151-1.534 1.644-1.315zM79.749 48.934c.493-.165 1.014.3 1.562 1.397.548 1.041.876 2.082.986 3.124.165 1.04.028 1.753-.41 2.137-.494.164-1.042-.274-1.645-1.315-.548-1.096-.877-2.165-.987-3.206-.11-1.041.055-1.754.494-2.137zm5.507-.576c.439.329.603 1.014.494 2.055-.11 1.041-.466 2.11-1.069 3.206-.548 1.041-1.069 1.48-1.562 1.315-.438-.383-.603-1.096-.493-2.137.11-1.041.438-2.082.986-3.124.603-1.096 1.151-1.534 1.644-1.315zM79.749 54.971c.493-.164 1.014.302 1.562 1.398.548 1.041.876 2.082.986 3.123.165 1.042.028 1.754-.41 2.138-.494.164-1.042-.274-1.645-1.316-.548-1.096-.877-2.164-.987-3.205-.11-1.042.055-1.754.494-2.138zm5.507-.575c.439.329.603 1.014.494 2.055-.11 1.041-.466 2.11-1.069 3.206-.548 1.041-1.069 1.48-1.562 1.315-.438-.383-.603-1.096-.493-2.137.11-1.041.438-2.083.986-3.124.603-1.096 1.151-1.534 1.644-1.315z" fill="#FDE106"/><path d="M79.749 61.01c.493-.165 1.014.3 1.562 1.397.548 1.04.876 2.082.986 3.123.165 1.042.028 1.754-.41 2.138-.494.164-1.042-.274-1.645-1.316-.548-1.096-.877-2.164-.987-3.206-.11-1.04.055-1.753.494-2.137zm5.507-.576c.439.329.603 1.014.494 2.055-.11 1.041-.466 2.11-1.069 3.206-.548 1.041-1.069 1.48-1.562 1.315-.438-.384-.603-1.096-.493-2.137.11-1.042.438-2.083.986-3.124.603-1.096 1.151-1.535 1.644-1.315zM79.749 67.047c.493-.164 1.014.302 1.562 1.398.548 1.04.876 2.082.986 3.123.165 1.042.028 1.754-.41 2.138-.494.164-1.042-.274-1.645-1.316-.548-1.096-.877-2.164-.987-3.206-.11-1.04.055-1.753.494-2.137zm5.507-.575c.439.329.603 1.014.494 2.055-.11 1.041-.466 2.11-1.069 3.206-.548 1.041-1.069 1.48-1.562 1.315-.438-.383-.603-1.096-.493-2.137.11-1.041.438-2.083.986-3.124.603-1.096 1.151-1.534 1.644-1.315zM79.749 73.085c.493-.164 1.014.302 1.562 1.398.548 1.04.876 2.082.986 3.123.165 1.041.028 1.754-.41 2.138-.494.164-1.042-.275-1.645-1.316-.548-1.096-.877-2.164-.987-3.206-.11-1.04.055-1.753.494-2.137zm5.507-.575c.439.328.603 1.013.494 2.055-.11 1.041-.466 2.11-1.069 3.206-.548 1.04-1.069 1.48-1.562 1.315-.438-.384-.603-1.096-.493-2.137.11-1.042.438-2.083.986-3.124.603-1.096 1.151-1.535 1.644-1.315zM79.749 79.123c.493-.165 1.014.301 1.562 1.397.548 1.042.876 2.083.986 3.124.165 1.041.028 1.754-.41 2.137-.494.165-1.042-.274-1.645-1.315-.548-1.096-.877-2.165-.987-3.206-.11-1.041.055-1.754.494-2.137zm5.507-.576c.439.33.603 1.014.494 2.056-.11 1.04-.466 2.11-1.069 3.206-.548 1.04-1.069 1.48-1.562 1.315-.438-.384-.603-1.096-.493-2.137.11-1.042.438-2.083.986-3.124.603-1.096 1.151-1.535 1.644-1.316zM79.749 85.16c.493-.164 1.014.302 1.562 1.398.548 1.041.876 2.083.986 3.124.165 1.041.028 1.754-.41 2.137-.494.165-1.042-.274-1.645-1.315-.548-1.096-.877-2.165-.987-3.206-.11-1.041.055-1.754.494-2.137zm5.507-.575c.439.33.603 1.014.494 2.055-.11 1.042-.466 2.11-1.069 3.206-.548 1.042-1.069 1.48-1.562 1.316-.438-.384-.603-1.096-.493-2.138.11-1.04.438-2.082.986-3.123.603-1.096 1.151-1.535 1.644-1.316zM79.749 91.199c.493-.165 1.014.301 1.562 1.397.548 1.041.876 2.082.986 3.124.165 1.041.028 1.754-.41 2.137-.494.165-1.042-.274-1.645-1.315-.548-1.096-.877-2.165-.987-3.206-.11-1.041.055-1.754.494-2.137zm5.507-.576c.439.329.603 1.014.494 2.055-.11 1.041-.466 2.11-1.069 3.206-.548 1.041-1.069 1.48-1.562 1.315-.438-.383-.603-1.096-.493-2.137.11-1.041.438-2.082.986-3.124.603-1.096 1.151-1.534 1.644-1.315zM86.95 18.744c.493-.164 1.014.301 1.562 1.398.548 1.04.877 2.082.986 3.123.165 1.041.028 1.754-.41 2.137-.494.165-1.042-.274-1.645-1.315-.548-1.096-.877-2.165-.986-3.206-.11-1.041.055-1.753.493-2.137zm5.508-.575c.438.328.602 1.013.493 2.055-.11 1.04-.466 2.11-1.069 3.206-.548 1.04-1.069 1.48-1.562 1.315-.438-.384-.602-1.096-.493-2.137.11-1.042.439-2.083.987-3.124.602-1.096 1.15-1.535 1.644-1.315zM86.95 24.782c.493-.165 1.014.301 1.562 1.397.548 1.042.877 2.083.986 3.124.165 1.041.028 1.754-.41 2.137-.494.165-1.042-.274-1.645-1.315-.548-1.096-.877-2.165-.986-3.206-.11-1.041.055-1.753.493-2.137zm5.508-.576c.438.33.602 1.014.493 2.056-.11 1.04-.466 2.11-1.069 3.205-.548 1.042-1.069 1.48-1.562 1.316-.438-.384-.602-1.096-.493-2.138.11-1.04.439-2.082.987-3.123.602-1.096 1.15-1.535 1.644-1.316zM86.95 30.82c.493-.165 1.014.301 1.562 1.397.548 1.041.877 2.083.986 3.124.165 1.041.028 1.754-.41 2.137-.494.165-1.042-.274-1.645-1.315-.548-1.096-.877-2.165-.986-3.206-.11-1.041.055-1.754.493-2.137zm5.508-.576c.438.33.602 1.014.493 2.055-.11 1.042-.466 2.11-1.069 3.206-.548 1.041-1.069 1.48-1.562 1.316-.438-.384-.602-1.096-.493-2.138.11-1.041.439-2.082.987-3.123.602-1.096 1.15-1.535 1.644-1.316zM86.95 36.858c.493-.165 1.014.3 1.562 1.397.548 1.041.877 2.082.986 3.124.165 1.041.028 1.753-.41 2.137-.494.164-1.042-.274-1.645-1.315-.548-1.096-.877-2.165-.986-3.206-.11-1.041.055-1.754.493-2.137zm5.508-.576c.438.329.602 1.014.493 2.055-.11 1.041-.466 2.11-1.069 3.206-.548 1.041-1.069 1.48-1.562 1.315-.438-.383-.602-1.096-.493-2.137.11-1.041.439-2.082.987-3.124.602-1.096 1.15-1.534 1.644-1.315z" fill="#fff"/><path d="M86.95 42.895c.493-.164 1.014.302 1.562 1.398.548 1.041.877 2.082.986 3.124.165 1.04.028 1.753-.41 2.137-.494.164-1.042-.274-1.645-1.315-.548-1.096-.877-2.165-.986-3.206-.11-1.042.055-1.754.493-2.138zm5.508-.575c.438.329.602 1.014.493 2.055-.11 1.041-.466 2.11-1.069 3.206-.548 1.041-1.069 1.48-1.562 1.315-.438-.383-.602-1.096-.493-2.137.11-1.041.439-2.083.987-3.124.602-1.096 1.15-1.534 1.644-1.315zM86.95 48.934c.493-.165 1.014.3 1.562 1.397.548 1.041.877 2.082.986 3.124.165 1.04.028 1.753-.41 2.137-.494.164-1.042-.274-1.645-1.315-.548-1.096-.877-2.165-.986-3.206-.11-1.041.055-1.754.493-2.137zm5.508-.576c.438.329.602 1.014.493 2.055-.11 1.041-.466 2.11-1.069 3.206-.548 1.041-1.069 1.48-1.562 1.315-.438-.383-.602-1.096-.493-2.137.11-1.041.439-2.082.987-3.124.602-1.096 1.15-1.534 1.644-1.315z" fill="#FDE106"/><path d="M86.95 54.971c.493-.164 1.014.302 1.562 1.398.548 1.041.877 2.082.986 3.123.165 1.042.028 1.754-.41 2.138-.494.164-1.042-.274-1.645-1.316-.548-1.096-.877-2.164-.986-3.205-.11-1.042.055-1.754.493-2.138zm5.508-.575c.438.329.602 1.014.493 2.055-.11 1.041-.466 2.11-1.069 3.206-.548 1.041-1.069 1.48-1.562 1.315-.438-.383-.602-1.096-.493-2.137.11-1.041.439-2.083.987-3.124.602-1.096 1.15-1.534 1.644-1.315zM86.95 61.01c.493-.165 1.014.3 1.562 1.397.548 1.04.877 2.082.986 3.123.165 1.042.028 1.754-.41 2.138-.494.164-1.042-.274-1.645-1.316-.548-1.096-.877-2.164-.986-3.206-.11-1.04.055-1.753.493-2.137zm5.508-.576c.438.329.602 1.014.493 2.055-.11 1.041-.466 2.11-1.069 3.206-.548 1.041-1.069 1.48-1.562 1.315-.438-.384-.602-1.096-.493-2.137.11-1.042.439-2.083.987-3.124.602-1.096 1.15-1.535 1.644-1.315zM86.95 67.047c.493-.164 1.014.302 1.562 1.398.548 1.04.877 2.082.986 3.123.165 1.042.028 1.754-.41 2.138-.494.164-1.042-.274-1.645-1.316-.548-1.096-.877-2.164-.986-3.206-.11-1.04.055-1.753.493-2.137zm5.508-.575c.438.329.602 1.014.493 2.055-.11 1.041-.466 2.11-1.069 3.206-.548 1.041-1.069 1.48-1.562 1.315-.438-.383-.602-1.096-.493-2.137.11-1.041.439-2.083.987-3.124.602-1.096 1.15-1.534 1.644-1.315zM86.95 73.085c.493-.164 1.014.302 1.562 1.398.548 1.04.877 2.082.986 3.123.165 1.041.028 1.754-.41 2.138-.494.164-1.042-.275-1.645-1.316-.548-1.096-.877-2.164-.986-3.206-.11-1.04.055-1.753.493-2.137zm5.508-.575c.438.328.602 1.013.493 2.055-.11 1.041-.466 2.11-1.069 3.206-.548 1.04-1.069 1.48-1.562 1.315-.438-.384-.602-1.096-.493-2.137.11-1.042.439-2.083.987-3.124.602-1.096 1.15-1.535 1.644-1.315zM86.95 79.123c.493-.165 1.014.301 1.562 1.397.548 1.042.877 2.083.986 3.124.165 1.041.028 1.754-.41 2.137-.494.165-1.042-.274-1.645-1.315-.548-1.096-.877-2.165-.986-3.206-.11-1.041.055-1.754.493-2.137zm5.508-.576c.438.33.602 1.014.493 2.056-.11 1.04-.466 2.11-1.069 3.206-.548 1.04-1.069 1.48-1.562 1.315-.438-.384-.602-1.096-.493-2.137.11-1.042.439-2.083.987-3.124.602-1.096 1.15-1.535 1.644-1.316zM86.95 85.16c.493-.164 1.014.302 1.562 1.398.548 1.041.877 2.083.986 3.124.165 1.041.028 1.754-.41 2.137-.494.165-1.042-.274-1.645-1.315-.548-1.096-.877-2.165-.986-3.206-.11-1.041.055-1.754.493-2.137zm5.508-.575c.438.33.602 1.014.493 2.055-.11 1.042-.466 2.11-1.069 3.206-.548 1.042-1.069 1.48-1.562 1.316-.438-.384-.602-1.096-.493-2.138.11-1.04.439-2.082.987-3.123.602-1.096 1.15-1.535 1.644-1.316z" fill="#fff"/><path d="M94.153 30.82c.493-.165 1.014.301 1.562 1.397.548 1.041.877 2.083.986 3.124.165 1.041.028 1.754-.41 2.137-.494.165-1.042-.274-1.645-1.315-.548-1.096-.877-2.165-.986-3.206-.11-1.041.055-1.754.493-2.137zm5.508-.576c.438.33.603 1.014.493 2.055-.11 1.042-.466 2.11-1.069 3.206-.548 1.041-1.068 1.48-1.562 1.316-.438-.384-.602-1.096-.493-2.138.11-1.041.439-2.082.987-3.123.603-1.096 1.15-1.535 1.644-1.316zM94.153 36.858c.493-.165 1.014.3 1.562 1.397.548 1.041.877 2.082.986 3.124.165 1.041.028 1.753-.41 2.137-.494.164-1.042-.274-1.645-1.315-.548-1.096-.877-2.165-.986-3.206-.11-1.041.055-1.754.493-2.137zm5.508-.576c.438.329.603 1.014.493 2.055-.11 1.041-.466 2.11-1.069 3.206-.548 1.041-1.068 1.48-1.562 1.315-.438-.383-.602-1.096-.493-2.137.11-1.041.439-2.082.987-3.124.603-1.096 1.15-1.534 1.644-1.315zM94.153 42.895c.493-.164 1.014.302 1.562 1.398.548 1.041.877 2.082.986 3.124.165 1.04.028 1.753-.41 2.137-.494.164-1.042-.274-1.645-1.315-.548-1.096-.877-2.165-.986-3.206-.11-1.042.055-1.754.493-2.138zm5.508-.575c.438.329.603 1.014.493 2.055-.11 1.041-.466 2.11-1.069 3.206-.548 1.041-1.068 1.48-1.562 1.315-.438-.383-.602-1.096-.493-2.137.11-1.041.439-2.083.987-3.124.603-1.096 1.15-1.534 1.644-1.315zM94.153 48.934c.493-.165 1.014.3 1.562 1.397.548 1.041.877 2.082.986 3.124.165 1.04.028 1.753-.41 2.137-.494.164-1.042-.274-1.645-1.315-.548-1.096-.877-2.165-.986-3.206-.11-1.041.055-1.754.493-2.137zm5.508-.576c.438.329.603 1.014.493 2.055-.11 1.041-.466 2.11-1.069 3.206-.548 1.041-1.068 1.48-1.562 1.315-.438-.383-.602-1.096-.493-2.137.11-1.041.439-2.082.987-3.124.603-1.096 1.15-1.534 1.644-1.315z" fill="#FDE106"/><path d="M94.153 54.971c.493-.164 1.014.302 1.562 1.398.548 1.041.877 2.082.986 3.123.165 1.042.028 1.754-.41 2.138-.494.164-1.042-.274-1.645-1.316-.548-1.096-.877-2.164-.986-3.205-.11-1.042.055-1.754.493-2.138zm5.508-.575c.438.329.603 1.014.493 2.055-.11 1.041-.466 2.11-1.069 3.206-.548 1.041-1.068 1.48-1.562 1.315-.438-.383-.602-1.096-.493-2.137.11-1.041.439-2.083.987-3.124.603-1.096 1.15-1.534 1.644-1.315zM94.153 61.01c.493-.165 1.014.3 1.562 1.397.548 1.04.877 2.082.986 3.123.165 1.042.028 1.754-.41 2.138-.494.164-1.042-.274-1.645-1.316-.548-1.096-.877-2.164-.986-3.206-.11-1.04.055-1.753.493-2.137zm5.508-.576c.438.329.603 1.014.493 2.055-.11 1.041-.466 2.11-1.069 3.206-.548 1.041-1.068 1.48-1.562 1.315-.438-.384-.602-1.096-.493-2.137.11-1.042.439-2.083.987-3.124.603-1.096 1.15-1.535 1.644-1.315zM94.153 67.047c.493-.164 1.014.302 1.562 1.398.548 1.04.877 2.082.986 3.123.165 1.042.028 1.754-.41 2.138-.494.164-1.042-.274-1.645-1.316-.548-1.096-.877-2.164-.986-3.206-.11-1.04.055-1.753.493-2.137zm5.508-.575c.438.329.603 1.014.493 2.055-.11 1.041-.466 2.11-1.069 3.206-.548 1.041-1.068 1.48-1.562 1.315-.438-.383-.602-1.096-.493-2.137.11-1.041.439-2.083.987-3.124.603-1.096 1.15-1.534 1.644-1.315zM94.153 73.085c.493-.164 1.014.302 1.562 1.398.548 1.04.877 2.082.986 3.123.165 1.041.028 1.754-.41 2.138-.494.164-1.042-.275-1.645-1.316-.548-1.096-.877-2.164-.986-3.206-.11-1.04.055-1.753.493-2.137zm5.508-.575c.438.328.603 1.013.493 2.055-.11 1.041-.466 2.11-1.069 3.206-.548 1.04-1.068 1.48-1.562 1.315-.438-.384-.602-1.096-.493-2.137.11-1.042.439-2.083.987-3.124.603-1.096 1.15-1.535 1.644-1.315z" fill="#fff"/><path d="M101.354 42.895c.493-.164 1.014.302 1.562 1.398.548 1.041.877 2.082.987 3.124.164 1.04.027 1.753-.411 2.137-.494.164-1.042-.274-1.645-1.315-.548-1.096-.876-2.165-.986-3.206-.11-1.042.055-1.754.493-2.138zm5.508-.575c.438.329.603 1.014.493 2.055-.11 1.041-.466 2.11-1.069 3.206-.548 1.041-1.068 1.48-1.561 1.315-.439-.383-.603-1.096-.494-2.137.11-1.041.439-2.083.987-3.124.603-1.096 1.151-1.534 1.644-1.315zM101.354 48.934c.493-.165 1.014.3 1.562 1.397.548 1.041.877 2.082.987 3.124.164 1.04.027 1.753-.411 2.137-.494.164-1.042-.274-1.645-1.315-.548-1.096-.876-2.165-.986-3.206-.11-1.041.055-1.754.493-2.137zm5.508-.576c.438.329.603 1.014.493 2.055-.11 1.041-.466 2.11-1.069 3.206-.548 1.041-1.068 1.48-1.561 1.315-.439-.383-.603-1.096-.494-2.137.11-1.041.439-2.082.987-3.124.603-1.096 1.151-1.534 1.644-1.315z" fill="#FDE106"/><path d="M101.354 54.971c.493-.164 1.014.302 1.562 1.398.548 1.041.877 2.082.987 3.123.164 1.042.027 1.754-.411 2.138-.494.164-1.042-.274-1.645-1.316-.548-1.096-.876-2.164-.986-3.205-.11-1.042.055-1.754.493-2.138zm5.508-.575c.438.329.603 1.014.493 2.055-.11 1.041-.466 2.11-1.069 3.206-.548 1.041-1.068 1.48-1.561 1.315-.439-.383-.603-1.096-.494-2.137.11-1.041.439-2.083.987-3.124.603-1.096 1.151-1.534 1.644-1.315zM101.354 61.01c.493-.165 1.014.3 1.562 1.397.548 1.04.877 2.082.987 3.123.164 1.042.027 1.754-.411 2.138-.494.164-1.042-.274-1.645-1.316-.548-1.096-.876-2.164-.986-3.206-.11-1.04.055-1.753.493-2.137zm5.508-.576c.438.329.603 1.014.493 2.055-.11 1.041-.466 2.11-1.069 3.206-.548 1.041-1.068 1.48-1.561 1.315-.439-.384-.603-1.096-.494-2.137.11-1.042.439-2.083.987-3.124.603-1.096 1.151-1.535 1.644-1.315z" fill="#fff"/></svg>