<svg xmlns="http://www.w3.org/2000/svg" xmlns:xlink="http://www.w3.org/1999/xlink" width="11" height="642" fill="none" xmlns:v="https://vecta.io/nano"><g fill="#fff"><use xlink:href="#B"/><use xlink:href="#B" y="-9.402"/><use xlink:href="#C"/><use xlink:href="#D"/><use xlink:href="#B" y="-37.607"/><use xlink:href="#C" y="-28.205"/><use xlink:href="#D" y="-28.205"/><use xlink:href="#B" y="-65.812"/><use xlink:href="#C" y="-56.41"/><use xlink:href="#D" y="-56.41"/><use xlink:href="#B" y="-94.017"/><use xlink:href="#C" y="-84.615"/><use xlink:href="#D" y="-84.615"/><use xlink:href="#D" y="-94.017"/><use xlink:href="#B" y="-131.624"/><use xlink:href="#C" y="-122.222"/><use xlink:href="#D" y="-122.222"/><use xlink:href="#B" y="-159.829"/><use xlink:href="#C" y="-150.427"/><use xlink:href="#D" y="-150.427"/><use xlink:href="#B" y="-188.034"/><use xlink:href="#C" y="-178.632"/><use xlink:href="#C" y="-188.034"/><use xlink:href="#D" y="-188.034"/><use xlink:href="#B" y="-225.641"/><use xlink:href="#C" y="-216.239"/><use xlink:href="#D" y="-216.239"/><use xlink:href="#B" y="-253.846"/><use xlink:href="#C" y="-244.444"/><use xlink:href="#D" y="-244.444"/><use xlink:href="#B" y="-282.051"/><use xlink:href="#B" y="-291.453"/><use xlink:href="#C" y="-282.051"/><use xlink:href="#D" y="-282.051"/><use xlink:href="#B" y="-319.658"/><use xlink:href="#C" y="-310.256"/><use xlink:href="#D" y="-310.256"/><use xlink:href="#B" y="-347.863"/><use xlink:href="#C" y="-338.461"/><use xlink:href="#D" y="-338.461"/><use xlink:href="#D" y="-347.863"/><use xlink:href="#B" y="-385.47"/><use xlink:href="#C" y="-376.068"/><use xlink:href="#D" y="-376.068"/><use xlink:href="#B" y="-413.675"/><use xlink:href="#C" y="-404.273"/><use xlink:href="#D" y="-404.273"/><use xlink:href="#B" y="-441.88"/><use xlink:href="#C" y="-432.478"/><path d="M9.395 170.212c-.768-.256-1.579.469-2.432 2.176-.853 1.621-1.365 3.242-1.536 4.864-.256 1.621-.043 2.731.64 3.328.768.256 1.621-.427 2.56-2.048.853-1.707 1.365-3.371 1.536-4.992s-.085-2.731-.768-3.328zm-8.576-.896c-.683.512-.939 1.578-.768 3.2s.725 3.285 1.664 4.992c.853 1.621 1.664 2.304 2.432 2.048.683-.598.939-1.707.768-3.328s-.683-3.243-1.536-4.864c-.939-1.707-1.792-2.39-2.56-2.048z"/><use xlink:href="#D" y="-441.88"/><use xlink:href="#B" y="-479.487"/><use xlink:href="#C" y="-470.085"/><use xlink:href="#D" y="-470.085"/><use xlink:href="#B" y="-507.692"/><use xlink:href="#C" y="-498.29"/><use xlink:href="#D" y="-498.29"/><path d="M9.395 94.998c-.768-.256-1.579.469-2.432 2.176-.853 1.621-1.365 3.243-1.536 4.864-.256 1.622-.043 2.731.64 3.328.768.256 1.621-.426 2.56-2.048.853-1.706 1.365-3.37 1.536-4.992s-.085-2.731-.768-3.328zm-8.576-.896c-.683.512-.939 1.579-.768 3.2s.725 3.286 1.664 4.992c.853 1.622 1.664 2.304 2.432 2.048.683-.597.939-1.706.768-3.328s-.683-3.242-1.536-4.864c-.939-1.707-1.792-2.389-2.56-2.048z"/><use xlink:href="#D" y="-517.093"/><use xlink:href="#D" y="-526.495"/><use xlink:href="#D" y="-535.897"/><use xlink:href="#D" y="-545.298"/><use xlink:href="#D" y="-554.7"/><use xlink:href="#D" y="-564.102"/><use xlink:href="#D" y="-573.503"/><use xlink:href="#D" y="-582.905"/><path d="M9.395 10.383c-.768-.256-1.579.469-2.432 2.176-.853 1.621-1.365 3.243-1.536 4.864-.256 1.621-.043 2.731.64 3.328.768.256 1.621-.427 2.56-2.048.853-1.707 1.365-3.371 1.536-4.992s-.085-2.731-.768-3.328zM.819 9.487c-.683.512-.939 1.579-.768 3.2s.725 3.285 1.664 4.992c.853 1.621 1.664 2.304 2.432 2.048.683-.597.939-1.707.768-3.328s-.683-3.243-1.536-4.864C2.44 9.829 1.587 9.146.819 9.487zM9.395.982c-.768-.256-1.579.469-2.432 2.176C6.11 4.779 5.598 6.4 5.427 8.022c-.256 1.621-.043 2.731.64 3.328.768.256 1.621-.427 2.56-2.048.853-1.707 1.365-3.371 1.536-4.992s-.085-2.731-.768-3.328zM.819.086C.136.598-.12 1.664.051 3.286s.725 3.285 1.664 4.992c.853 1.621 1.664 2.304 2.432 2.048.683-.597.939-1.707.768-3.328s-.683-3.243-1.536-4.864C2.44.427 1.587-.256.819.086z"/></g><defs ><path id="B" d="M9.395 630.895c-.768-.256-1.579.47-2.432 2.176-.853 1.622-1.365 3.243-1.536 4.864-.256 1.622-.043 2.731.64 3.328.768.256 1.621-.426 2.56-2.048.853-1.706 1.365-3.37 1.536-4.992s-.085-2.73-.768-3.328zm-8.576-.896c-.683.512-.939 1.579-.768 3.2s.725 3.286 1.664 4.992c.853 1.622 1.664 2.304 2.432 2.048.683-.597.939-1.706.768-3.328s-.683-3.242-1.536-4.864c-.939-1.706-1.792-2.389-2.56-2.048z"/><path id="C" d="M9.395 612.092c-.768-.256-1.579.469-2.432 2.176-.853 1.621-1.365 3.242-1.536 4.864-.256 1.621-.043 2.73.64 3.328.768.256 1.621-.427 2.56-2.048.853-1.707 1.365-3.371 1.536-4.992s-.085-2.731-.768-3.328zm-8.576-.896c-.683.512-.939 1.578-.768 3.2s.725 3.285 1.664 4.992c.853 1.621 1.664 2.304 2.432 2.048.683-.598.939-1.707.768-3.328s-.683-3.243-1.536-4.864c-.939-1.707-1.792-2.39-2.56-2.048z"/><path id="D" d="M9.395 602.69c-.768-.256-1.579.469-2.432 2.176-.853 1.621-1.365 3.243-1.536 4.864-.256 1.621-.043 2.731.64 3.328.768.256 1.621-.427 2.56-2.048.853-1.707 1.365-3.371 1.536-4.992s-.085-2.731-.768-3.328zm-8.576-.896c-.683.512-.939 1.579-.768 3.2s.725 3.285 1.664 4.992c.853 1.621 1.664 2.304 2.432 2.048.683-.597.939-1.707.768-3.328s-.683-3.243-1.536-4.864c-.939-1.707-1.792-2.389-2.56-2.048z"/></defs></svg>