<svg xmlns="http://www.w3.org/2000/svg" xmlns:xlink="http://www.w3.org/1999/xlink" width="457" height="260" fill="none" xmlns:v="https://vecta.io/nano"><g filter="url(#A)"><rect x="16" y="16" width="425" height="228" rx="13" fill="#2d2f33"/></g><g fill="#3a3e45"><use xlink:href="#B"/><use xlink:href="#B" y="-9.402"/><use xlink:href="#C"/><use xlink:href="#D"/><use xlink:href="#B" y="-37.607"/><use xlink:href="#C" y="-28.205"/><use xlink:href="#C" y="-37.607"/><use xlink:href="#D" y="-37.607"/><use xlink:href="#B" y="-75.214"/><use xlink:href="#C" y="-65.812"/><use xlink:href="#C" y="-75.214"/><use xlink:href="#D" y="-75.214"/><use xlink:href="#B" y="-112.821"/><use xlink:href="#C" y="-103.419"/><use xlink:href="#E"/><use xlink:href="#C" y="-122.222"/><use xlink:href="#C" y="-131.624"/><use xlink:href="#C" y="-141.026"/><use xlink:href="#C" y="-150.428"/><use xlink:href="#C" y="-159.829"/><use xlink:href="#C" y="-169.231"/><use xlink:href="#C" y="-178.633"/><use xlink:href="#D" x="11.215" y="37.607"/><use xlink:href="#B" x="11.215"/><use xlink:href="#B" x="11.215" y="-9.402"/><use xlink:href="#C" x="11.215"/><use xlink:href="#D" x="11.215"/><use xlink:href="#B" x="11.215" y="-37.607"/><use xlink:href="#C" x="11.215" y="-28.205"/><use xlink:href="#C" x="11.215" y="-37.607"/><use xlink:href="#D" x="11.215" y="-37.607"/><use xlink:href="#B" x="11.215" y="-75.214"/><use xlink:href="#C" x="11.215" y="-65.812"/><use xlink:href="#D" x="11.215" y="-65.812"/><use xlink:href="#D" x="11.215" y="-75.214"/><use xlink:href="#B" x="11.215" y="-112.821"/><use xlink:href="#C" x="11.215" y="-103.419"/><use xlink:href="#E" x="11.215"/><use xlink:href="#C" x="11.215" y="-122.222"/><use xlink:href="#C" x="11.215" y="-131.624"/><use xlink:href="#C" x="11.215" y="-141.026"/><use xlink:href="#C" x="11.215" y="-150.428"/><use xlink:href="#C" x="11.215" y="-159.829"/><use xlink:href="#C" x="11.215" y="-169.231"/><use xlink:href="#C" x="11.215" y="-178.633"/><use xlink:href="#C" x="11.215" y="-188.035"/><use xlink:href="#D" x="22.429" y="37.607"/><use xlink:href="#B" x="22.429"/><use xlink:href="#B" x="22.429" y="-9.402"/><use xlink:href="#C" x="22.429"/><use xlink:href="#D" x="22.429"/><use xlink:href="#B" x="22.429" y="-37.607"/><use xlink:href="#C" x="22.429" y="-28.205"/><use xlink:href="#C" x="22.429" y="-37.607"/><use xlink:href="#D" x="22.429" y="-37.607"/><use xlink:href="#B" x="22.429" y="-75.214"/><use xlink:href="#C" x="22.429" y="-65.812"/><use xlink:href="#D" x="22.429" y="-65.812"/><use xlink:href="#D" x="22.429" y="-75.214"/><use xlink:href="#B" x="22.429" y="-112.821"/><use xlink:href="#C" x="22.429" y="-103.419"/><use xlink:href="#E" x="22.429"/><use xlink:href="#C" x="22.429" y="-122.222"/><use xlink:href="#C" x="22.429" y="-131.624"/><use xlink:href="#C" x="22.429" y="-141.026"/><use xlink:href="#C" x="22.429" y="-150.428"/><use xlink:href="#C" x="22.429" y="-159.829"/><use xlink:href="#C" x="22.429" y="-169.231"/><use xlink:href="#C" x="22.429" y="-178.633"/><use xlink:href="#C" x="22.429" y="-188.035"/><use xlink:href="#D" x="33.644" y="37.607"/><use xlink:href="#B" x="33.644"/><use xlink:href="#B" x="33.644" y="-9.402"/><use xlink:href="#C" x="33.644"/><use xlink:href="#D" x="33.644"/><use xlink:href="#B" x="33.644" y="-37.607"/><use xlink:href="#C" x="33.644" y="-28.205"/><use xlink:href="#C" x="33.644" y="-37.607"/><use xlink:href="#D" x="33.644" y="-37.607"/><use xlink:href="#B" x="33.644" y="-75.214"/><use xlink:href="#C" x="33.644" y="-65.812"/><use xlink:href="#D" x="33.644" y="-65.812"/><use xlink:href="#D" x="33.644" y="-75.214"/><use xlink:href="#B" x="33.644" y="-112.821"/><use xlink:href="#C" x="33.644" y="-103.419"/><use xlink:href="#E" x="33.644"/><use xlink:href="#C" x="33.644" y="-122.222"/><use xlink:href="#C" x="33.644" y="-131.624"/><use xlink:href="#C" x="33.644" y="-141.026"/><use xlink:href="#C" x="33.644" y="-150.428"/><use xlink:href="#C" x="33.644" y="-159.829"/><use xlink:href="#C" x="33.644" y="-169.231"/><use xlink:href="#C" x="33.644" y="-178.633"/><use xlink:href="#C" x="33.644" y="-188.035"/><use xlink:href="#D" x="44.858" y="37.607"/><use xlink:href="#B" x="44.858"/><use xlink:href="#B" x="44.858" y="-9.402"/><use xlink:href="#C" x="44.858"/><use xlink:href="#D" x="44.858"/><use xlink:href="#B" x="44.858" y="-37.607"/><use xlink:href="#C" x="44.858" y="-28.205"/><use xlink:href="#C" x="44.858" y="-37.607"/><use xlink:href="#D" x="44.858" y="-37.607"/><use xlink:href="#B" x="44.858" y="-75.214"/><use xlink:href="#C" x="44.858" y="-65.812"/><use xlink:href="#D" x="44.858" y="-65.812"/><use xlink:href="#D" x="44.858" y="-75.214"/><use xlink:href="#B" x="44.858" y="-112.821"/><use xlink:href="#C" x="44.858" y="-103.419"/><use xlink:href="#E" x="44.858"/><use xlink:href="#C" x="44.858" y="-122.222"/><use xlink:href="#C" x="44.858" y="-131.624"/><use xlink:href="#C" x="44.858" y="-141.026"/><use xlink:href="#C" x="44.858" y="-150.428"/><use xlink:href="#C" x="44.858" y="-159.829"/><use xlink:href="#C" x="44.858" y="-169.231"/><use xlink:href="#C" x="44.858" y="-178.633"/><use xlink:href="#C" x="44.858" y="-188.035"/><use xlink:href="#D" x="56.072" y="37.607"/><use xlink:href="#B" x="56.072"/><use xlink:href="#B" x="56.072" y="-9.402"/><use xlink:href="#C" x="56.072"/><use xlink:href="#D" x="56.072"/><use xlink:href="#B" x="56.072" y="-37.607"/><use xlink:href="#C" x="56.072" y="-28.205"/><use xlink:href="#C" x="56.072" y="-37.607"/><use xlink:href="#D" x="56.072" y="-37.607"/><use xlink:href="#B" x="56.072" y="-75.214"/><use xlink:href="#C" x="56.072" y="-65.812"/><use xlink:href="#D" x="56.072" y="-65.812"/><use xlink:href="#D" x="56.072" y="-75.214"/><use xlink:href="#B" x="56.072" y="-112.821"/><use xlink:href="#C" x="56.072" y="-103.419"/><use xlink:href="#E" x="56.072"/><use xlink:href="#C" x="56.072" y="-122.222"/><use xlink:href="#C" x="56.072" y="-131.624"/><use xlink:href="#C" x="56.072" y="-141.026"/><use xlink:href="#C" x="56.072" y="-150.428"/><use xlink:href="#C" x="56.072" y="-159.829"/><use xlink:href="#C" x="56.072" y="-169.231"/><use xlink:href="#C" x="56.072" y="-178.633"/><use xlink:href="#C" x="56.072" y="-188.035"/><use xlink:href="#D" x="67.287" y="37.607"/><use xlink:href="#B" x="67.287"/><use xlink:href="#B" x="67.287" y="-9.402"/><use xlink:href="#C" x="67.287"/><use xlink:href="#D" x="67.287"/><use xlink:href="#B" x="67.287" y="-37.607"/><use xlink:href="#C" x="67.287" y="-28.205"/><use xlink:href="#C" x="67.287" y="-37.607"/><use xlink:href="#D" x="67.287" y="-37.607"/><use xlink:href="#B" x="67.287" y="-75.214"/><use xlink:href="#C" x="67.287" y="-65.812"/><use xlink:href="#D" x="67.287" y="-65.812"/><use xlink:href="#D" x="67.287" y="-75.214"/><use xlink:href="#B" x="67.287" y="-112.821"/><use xlink:href="#C" x="67.287" y="-103.419"/><use xlink:href="#E" x="67.287"/><use xlink:href="#C" x="67.287" y="-122.222"/><use xlink:href="#C" x="67.287" y="-131.624"/><use xlink:href="#C" x="67.287" y="-141.026"/><use xlink:href="#C" x="67.287" y="-150.428"/><use xlink:href="#C" x="67.287" y="-159.829"/><use xlink:href="#C" x="67.287" y="-169.231"/><use xlink:href="#C" x="67.287" y="-178.633"/><use xlink:href="#C" x="67.287" y="-188.035"/><use xlink:href="#D" x="78.501" y="37.607"/><use xlink:href="#B" x="78.501"/><use xlink:href="#B" x="78.501" y="-9.402"/><use xlink:href="#C" x="78.501"/><use xlink:href="#D" x="78.501"/><use xlink:href="#B" x="78.501" y="-37.607"/><use xlink:href="#C" x="78.501" y="-28.205"/><use xlink:href="#C" x="78.501" y="-37.607"/><use xlink:href="#D" x="78.501" y="-37.607"/><use xlink:href="#B" x="78.501" y="-75.214"/><use xlink:href="#C" x="78.501" y="-65.812"/><use xlink:href="#D" x="78.501" y="-65.812"/><use xlink:href="#D" x="78.501" y="-75.214"/><use xlink:href="#B" x="78.501" y="-112.821"/><use xlink:href="#C" x="78.501" y="-103.419"/><use xlink:href="#E" x="78.501"/><use xlink:href="#C" x="78.501" y="-122.222"/><use xlink:href="#C" x="78.501" y="-131.624"/><use xlink:href="#C" x="78.501" y="-141.026"/><use xlink:href="#C" x="78.501" y="-150.428"/><use xlink:href="#C" x="78.501" y="-159.829"/><use xlink:href="#C" x="78.501" y="-169.231"/><use xlink:href="#C" x="78.501" y="-178.633"/><use xlink:href="#C" x="78.501" y="-188.035"/><use xlink:href="#F"/><use xlink:href="#G"/><use xlink:href="#G" y="-9.402"/><use xlink:href="#H"/><use xlink:href="#F" y="-37.607"/><use xlink:href="#G" y="-37.607"/><use xlink:href="#H" y="-28.205"/><use xlink:href="#H" y="-37.607"/><use xlink:href="#F" y="-75.214"/><use xlink:href="#G" y="-75.214"/><use xlink:href="#H" y="-65.812"/><use xlink:href="#F" y="-103.419"/><use xlink:href="#F" y="-112.821"/><use xlink:href="#G" y="-112.821"/><use xlink:href="#H" y="-103.419"/><use xlink:href="#I"/><use xlink:href="#H" y="-122.222"/><use xlink:href="#H" y="-131.624"/><use xlink:href="#H" y="-141.026"/><use xlink:href="#H" y="-150.428"/><use xlink:href="#H" y="-159.829"/><use xlink:href="#H" y="-169.231"/><use xlink:href="#H" y="-178.633"/><use xlink:href="#H" y="-188.035"/><use xlink:href="#D" x="100.93" y="37.607"/><use xlink:href="#B" x="100.93"/><use xlink:href="#B" x="100.93" y="-9.402"/><use xlink:href="#C" x="100.93"/><use xlink:href="#D" x="100.93"/><use xlink:href="#B" x="100.93" y="-37.607"/><use xlink:href="#C" x="100.93" y="-28.205"/><use xlink:href="#C" x="100.93" y="-37.607"/><use xlink:href="#D" x="100.93" y="-37.607"/><use xlink:href="#B" x="100.93" y="-75.214"/><use xlink:href="#C" x="100.93" y="-65.812"/><use xlink:href="#D" x="100.93" y="-65.812"/><use xlink:href="#D" x="100.93" y="-75.214"/><use xlink:href="#B" x="100.93" y="-112.821"/><use xlink:href="#C" x="100.93" y="-103.419"/><use xlink:href="#E" x="100.93"/><use xlink:href="#C" x="100.93" y="-122.222"/><use xlink:href="#C" x="100.93" y="-131.624"/><use xlink:href="#C" x="100.93" y="-141.026"/><use xlink:href="#C" x="100.93" y="-150.428"/><use xlink:href="#C" x="100.93" y="-159.829"/><use xlink:href="#C" x="100.93" y="-169.231"/><use xlink:href="#C" x="100.93" y="-178.633"/><use xlink:href="#C" x="100.93" y="-188.035"/><use xlink:href="#F" x="22.429"/><use xlink:href="#G" x="22.429"/><use xlink:href="#G" x="22.429" y="-9.402"/><use xlink:href="#H" x="22.429"/><use xlink:href="#F" x="22.429" y="-37.607"/><use xlink:href="#G" x="22.429" y="-37.607"/><use xlink:href="#H" x="22.429" y="-28.205"/><use xlink:href="#H" x="22.429" y="-37.607"/><use xlink:href="#F" x="22.429" y="-75.214"/><use xlink:href="#G" x="22.429" y="-75.214"/><use xlink:href="#H" x="22.429" y="-65.812"/><use xlink:href="#F" x="22.429" y="-103.419"/><use xlink:href="#F" x="22.429" y="-112.821"/><use xlink:href="#G" x="22.429" y="-112.821"/><use xlink:href="#H" x="22.429" y="-103.419"/><use xlink:href="#I" x="22.429"/><use xlink:href="#H" x="22.429" y="-122.222"/><use xlink:href="#H" x="22.429" y="-131.624"/><use xlink:href="#H" x="22.429" y="-141.026"/><use xlink:href="#H" x="22.429" y="-150.428"/><use xlink:href="#H" x="22.429" y="-159.829"/><use xlink:href="#H" x="22.429" y="-169.231"/><use xlink:href="#H" x="22.429" y="-178.633"/><use xlink:href="#H" x="22.429" y="-188.035"/><use xlink:href="#J"/><use xlink:href="#K"/><use xlink:href="#K" y="-9.402"/><use xlink:href="#L"/><use xlink:href="#J" y="-37.607"/><use xlink:href="#K" y="-37.607"/><use xlink:href="#L" y="-28.205"/><use xlink:href="#L" y="-37.607"/><use xlink:href="#J" y="-75.214"/><use xlink:href="#K" y="-75.214"/><use xlink:href="#L" y="-65.812"/><use xlink:href="#J" y="-103.419"/><use xlink:href="#J" y="-112.821"/><use xlink:href="#K" y="-112.821"/><use xlink:href="#L" y="-103.419"/><use xlink:href="#M"/><use xlink:href="#L" y="-122.222"/><use xlink:href="#L" y="-131.624"/><use xlink:href="#L" y="-141.026"/><use xlink:href="#L" y="-150.428"/><use xlink:href="#L" y="-159.829"/><use xlink:href="#L" y="-169.231"/><use xlink:href="#L" y="-178.633"/><use xlink:href="#L" y="-188.035"/><use xlink:href="#D" x="134.573" y="37.607"/><use xlink:href="#B" x="134.573"/><use xlink:href="#B" x="134.573" y="-9.402"/><use xlink:href="#C" x="134.573"/><use xlink:href="#D" x="134.573"/><use xlink:href="#B" x="134.573" y="-37.607"/><use xlink:href="#C" x="134.573" y="-28.205"/><use xlink:href="#C" x="134.573" y="-37.607"/><use xlink:href="#D" x="134.573" y="-37.607"/><use xlink:href="#B" x="134.573" y="-75.214"/><use xlink:href="#C" x="134.573" y="-65.812"/><use xlink:href="#D" x="134.573" y="-65.812"/><use xlink:href="#D" x="134.573" y="-75.214"/><use xlink:href="#B" x="134.573" y="-112.821"/><use xlink:href="#C" x="134.573" y="-103.419"/><use xlink:href="#E" x="134.573"/><use xlink:href="#C" x="134.573" y="-122.222"/><use xlink:href="#C" x="134.573" y="-131.624"/><use xlink:href="#C" x="134.573" y="-141.026"/><use xlink:href="#C" x="134.573" y="-150.428"/><use xlink:href="#C" x="134.573" y="-159.829"/><use xlink:href="#C" x="134.573" y="-169.231"/><use xlink:href="#C" x="134.573" y="-178.633"/><use xlink:href="#C" x="134.573" y="-188.035"/><use xlink:href="#F" x="56.072"/><use xlink:href="#G" x="56.072"/><use xlink:href="#G" x="56.072" y="-9.402"/><use xlink:href="#H" x="56.072"/><use xlink:href="#F" x="56.072" y="-37.607"/><use xlink:href="#G" x="56.072" y="-37.607"/><use xlink:href="#H" x="56.072" y="-28.205"/><use xlink:href="#H" x="56.072" y="-37.607"/><use xlink:href="#F" x="56.072" y="-75.214"/><use xlink:href="#G" x="56.072" y="-75.214"/><use xlink:href="#H" x="56.072" y="-65.812"/><use xlink:href="#F" x="56.072" y="-103.419"/><use xlink:href="#F" x="56.072" y="-112.821"/><use xlink:href="#G" x="56.072" y="-112.821"/><use xlink:href="#H" x="56.072" y="-103.419"/><use xlink:href="#I" x="56.072"/><use xlink:href="#H" x="56.072" y="-122.222"/><use xlink:href="#H" x="56.072" y="-131.624"/><use xlink:href="#H" x="56.072" y="-141.026"/><use xlink:href="#H" x="56.072" y="-150.428"/><use xlink:href="#H" x="56.072" y="-159.829"/><use xlink:href="#H" x="56.072" y="-169.231"/><use xlink:href="#H" x="56.072" y="-178.633"/><use xlink:href="#H" x="56.072" y="-188.035"/><use xlink:href="#D" x="157.002" y="37.607"/><use xlink:href="#B" x="157.002"/><use xlink:href="#B" x="157.002" y="-9.402"/><use xlink:href="#C" x="157.002"/><use xlink:href="#D" x="157.002"/><use xlink:href="#B" x="157.002" y="-37.607"/><use xlink:href="#C" x="157.002" y="-28.205"/><use xlink:href="#C" x="157.002" y="-37.607"/><use xlink:href="#D" x="157.002" y="-37.607"/><use xlink:href="#B" x="157.002" y="-75.214"/><use xlink:href="#C" x="157.002" y="-65.812"/><use xlink:href="#D" x="157.002" y="-65.812"/><use xlink:href="#D" x="157.002" y="-75.214"/><use xlink:href="#B" x="157.002" y="-112.821"/><use xlink:href="#C" x="157.002" y="-103.419"/><use xlink:href="#E" x="157.002"/><use xlink:href="#C" x="157.002" y="-122.222"/><use xlink:href="#C" x="157.002" y="-131.624"/><use xlink:href="#C" x="157.002" y="-141.026"/><use xlink:href="#C" x="157.002" y="-150.428"/><use xlink:href="#C" x="157.002" y="-159.829"/><use xlink:href="#C" x="157.002" y="-169.231"/><use xlink:href="#C" x="157.002" y="-178.633"/><use xlink:href="#C" x="157.002" y="-188.035"/><use xlink:href="#F" x="78.501"/><use xlink:href="#G" x="78.501"/><use xlink:href="#G" x="78.501" y="-9.402"/><use xlink:href="#H" x="78.501"/><use xlink:href="#F" x="78.501" y="-37.607"/><use xlink:href="#G" x="78.501" y="-37.607"/><use xlink:href="#H" x="78.501" y="-28.205"/><use xlink:href="#H" x="78.501" y="-37.607"/><use xlink:href="#F" x="78.501" y="-75.214"/><use xlink:href="#G" x="78.501" y="-75.214"/><use xlink:href="#H" x="78.501" y="-65.812"/><use xlink:href="#F" x="78.501" y="-103.419"/><use xlink:href="#F" x="78.501" y="-112.821"/><use xlink:href="#G" x="78.501" y="-112.821"/><use xlink:href="#H" x="78.501" y="-103.419"/><use xlink:href="#I" x="78.501"/><use xlink:href="#H" x="78.501" y="-122.222"/><use xlink:href="#H" x="78.501" y="-131.624"/><use xlink:href="#H" x="78.501" y="-141.026"/><use xlink:href="#H" x="78.501" y="-150.428"/><use xlink:href="#H" x="78.501" y="-159.829"/><use xlink:href="#H" x="78.501" y="-169.231"/><use xlink:href="#H" x="78.501" y="-178.633"/><use xlink:href="#H" x="78.501" y="-188.035"/><use xlink:href="#J" x="56.072"/><use xlink:href="#K" x="56.072"/><use xlink:href="#K" x="56.072" y="-9.402"/><use xlink:href="#L" x="56.072"/><use xlink:href="#J" x="56.072" y="-37.607"/><use xlink:href="#K" x="56.072" y="-37.607"/><use xlink:href="#L" x="56.072" y="-28.205"/><use xlink:href="#L" x="56.072" y="-37.607"/><use xlink:href="#J" x="56.072" y="-75.214"/><use xlink:href="#K" x="56.072" y="-75.214"/><use xlink:href="#L" x="56.072" y="-65.812"/><use xlink:href="#J" x="56.072" y="-103.419"/><use xlink:href="#J" x="56.072" y="-112.821"/><use xlink:href="#K" x="56.072" y="-112.821"/><use xlink:href="#L" x="56.072" y="-103.419"/><use xlink:href="#M" x="56.072"/><use xlink:href="#L" x="56.072" y="-122.222"/><use xlink:href="#L" x="56.072" y="-131.624"/><use xlink:href="#L" x="56.072" y="-141.026"/><use xlink:href="#L" x="56.072" y="-150.428"/><use xlink:href="#L" x="56.072" y="-159.829"/><use xlink:href="#L" x="56.072" y="-169.231"/><use xlink:href="#L" x="56.072" y="-178.633"/><use xlink:href="#L" x="56.072" y="-188.035"/><use xlink:href="#F" x="100.93"/><use xlink:href="#G" x="100.93"/><use xlink:href="#G" x="100.93" y="-9.402"/><use xlink:href="#H" x="100.93"/><use xlink:href="#F" x="100.93" y="-37.607"/><use xlink:href="#G" x="100.93" y="-37.607"/><use xlink:href="#H" x="100.93" y="-28.205"/><use xlink:href="#H" x="100.93" y="-37.607"/><use xlink:href="#F" x="100.93" y="-75.214"/><use xlink:href="#G" x="100.93" y="-75.214"/><use xlink:href="#H" x="100.93" y="-65.812"/><use xlink:href="#F" x="100.93" y="-103.419"/><use xlink:href="#F" x="100.93" y="-112.821"/><use xlink:href="#G" x="100.93" y="-112.821"/><use xlink:href="#H" x="100.93" y="-103.419"/><use xlink:href="#I" x="100.93"/><use xlink:href="#H" x="100.93" y="-122.222"/><use xlink:href="#H" x="100.93" y="-131.624"/><use xlink:href="#H" x="100.93" y="-141.026"/><use xlink:href="#H" x="100.93" y="-150.428"/><use xlink:href="#H" x="100.93" y="-159.829"/><use xlink:href="#H" x="100.93" y="-169.231"/><use xlink:href="#H" x="100.93" y="-178.633"/><use xlink:href="#H" x="100.93" y="-188.035"/><use xlink:href="#J" x="78.501"/><use xlink:href="#K" x="78.501"/><use xlink:href="#K" x="78.501" y="-9.402"/><use xlink:href="#L" x="78.501"/><use xlink:href="#J" x="78.501" y="-37.607"/><use xlink:href="#K" x="78.501" y="-37.607"/><use xlink:href="#L" x="78.501" y="-28.205"/><use xlink:href="#L" x="78.501" y="-37.607"/><use xlink:href="#J" x="78.501" y="-75.214"/><use xlink:href="#K" x="78.501" y="-75.214"/><use xlink:href="#L" x="78.501" y="-65.812"/><use xlink:href="#J" x="78.501" y="-103.419"/><use xlink:href="#J" x="78.501" y="-112.821"/><use xlink:href="#K" x="78.501" y="-112.821"/><use xlink:href="#L" x="78.501" y="-103.419"/><use xlink:href="#M" x="78.501"/><use xlink:href="#L" x="78.501" y="-122.222"/><use xlink:href="#L" x="78.501" y="-131.624"/><use xlink:href="#L" x="78.501" y="-141.026"/><use xlink:href="#L" x="78.501" y="-150.428"/><use xlink:href="#L" x="78.501" y="-159.829"/><use xlink:href="#L" x="78.501" y="-169.231"/><use xlink:href="#L" x="78.501" y="-178.633"/><use xlink:href="#L" x="78.501" y="-188.035"/><use xlink:href="#D" x="213.074" y="37.607"/><use xlink:href="#B" x="213.074"/><use xlink:href="#B" x="213.074" y="-9.402"/><use xlink:href="#C" x="213.074"/><use xlink:href="#D" x="213.074"/><use xlink:href="#B" x="213.074" y="-37.607"/><use xlink:href="#C" x="213.074" y="-28.205"/><use xlink:href="#C" x="213.074" y="-37.607"/><use xlink:href="#D" x="213.074" y="-37.607"/><use xlink:href="#B" x="213.074" y="-75.214"/><use xlink:href="#C" x="213.074" y="-65.812"/><use xlink:href="#D" x="213.074" y="-65.812"/><use xlink:href="#D" x="213.074" y="-75.214"/><use xlink:href="#B" x="213.074" y="-112.821"/><use xlink:href="#C" x="213.074" y="-103.419"/><use xlink:href="#E" x="213.074"/><use xlink:href="#C" x="213.074" y="-122.222"/><use xlink:href="#C" x="213.074" y="-131.624"/><use xlink:href="#C" x="213.074" y="-141.026"/><use xlink:href="#C" x="213.074" y="-150.428"/><use xlink:href="#C" x="213.074" y="-159.829"/><use xlink:href="#C" x="213.074" y="-169.231"/><use xlink:href="#C" x="213.074" y="-178.633"/><use xlink:href="#C" x="213.074" y="-188.035"/><use xlink:href="#F" x="134.573"/><use xlink:href="#G" x="134.573"/><use xlink:href="#G" x="134.573" y="-9.402"/><use xlink:href="#H" x="134.573"/><use xlink:href="#F" x="134.573" y="-37.607"/><use xlink:href="#G" x="134.573" y="-37.607"/><use xlink:href="#H" x="134.573" y="-28.205"/><use xlink:href="#H" x="134.573" y="-37.607"/><use xlink:href="#F" x="134.573" y="-75.214"/><use xlink:href="#G" x="134.573" y="-75.214"/><use xlink:href="#H" x="134.573" y="-65.812"/><use xlink:href="#F" x="134.573" y="-103.419"/><use xlink:href="#F" x="134.573" y="-112.821"/><use xlink:href="#G" x="134.573" y="-112.821"/><use xlink:href="#H" x="134.573" y="-103.419"/><use xlink:href="#I" x="134.573"/><use xlink:href="#H" x="134.573" y="-122.222"/><use xlink:href="#H" x="134.573" y="-131.624"/><use xlink:href="#H" x="134.573" y="-141.026"/><use xlink:href="#H" x="134.573" y="-150.428"/><use xlink:href="#H" x="134.573" y="-159.829"/><use xlink:href="#H" x="134.573" y="-169.231"/><use xlink:href="#H" x="134.573" y="-178.633"/><use xlink:href="#H" x="134.573" y="-188.035"/><use xlink:href="#J" x="112.144"/><use xlink:href="#K" x="112.144"/><use xlink:href="#K" x="112.144" y="-9.402"/><use xlink:href="#L" x="112.144"/><use xlink:href="#J" x="112.144" y="-37.607"/><use xlink:href="#K" x="112.144" y="-37.607"/><use xlink:href="#L" x="112.144" y="-28.205"/><use xlink:href="#L" x="112.144" y="-37.607"/><use xlink:href="#J" x="112.144" y="-75.214"/><use xlink:href="#K" x="112.144" y="-75.214"/><use xlink:href="#L" x="112.144" y="-65.812"/><use xlink:href="#J" x="112.144" y="-103.419"/><use xlink:href="#J" x="112.144" y="-112.821"/><use xlink:href="#K" x="112.144" y="-112.821"/><use xlink:href="#L" x="112.144" y="-103.419"/><use xlink:href="#M" x="112.144"/><use xlink:href="#L" x="112.144" y="-122.222"/><use xlink:href="#L" x="112.144" y="-131.624"/><use xlink:href="#L" x="112.144" y="-141.026"/><use xlink:href="#L" x="112.144" y="-150.428"/><use xlink:href="#L" x="112.144" y="-159.829"/><use xlink:href="#L" x="112.144" y="-169.231"/><use xlink:href="#L" x="112.144" y="-178.633"/><use xlink:href="#L" x="112.144" y="-188.035"/><use xlink:href="#D" x="246.717" y="37.607"/><use xlink:href="#B" x="246.717"/><use xlink:href="#B" x="246.717" y="-9.402"/><use xlink:href="#C" x="246.717"/><use xlink:href="#D" x="246.717"/><use xlink:href="#B" x="246.717" y="-37.607"/><use xlink:href="#C" x="246.717" y="-28.205"/><use xlink:href="#C" x="246.717" y="-37.607"/><use xlink:href="#D" x="246.717" y="-37.607"/><use xlink:href="#B" x="246.717" y="-75.214"/><use xlink:href="#C" x="246.717" y="-65.812"/><use xlink:href="#D" x="246.717" y="-65.812"/><use xlink:href="#D" x="246.717" y="-75.214"/><use xlink:href="#B" x="246.717" y="-112.821"/><use xlink:href="#C" x="246.717" y="-103.419"/><use xlink:href="#E" x="246.717"/><use xlink:href="#C" x="246.717" y="-122.222"/><use xlink:href="#C" x="246.717" y="-131.624"/><use xlink:href="#C" x="246.717" y="-141.026"/><use xlink:href="#C" x="246.717" y="-150.428"/><use xlink:href="#C" x="246.717" y="-159.829"/><use xlink:href="#C" x="246.717" y="-169.231"/><use xlink:href="#C" x="246.717" y="-178.633"/><use xlink:href="#C" x="246.717" y="-188.035"/><use xlink:href="#F" x="168.216"/><use xlink:href="#G" x="168.216"/><use xlink:href="#G" x="168.216" y="-9.402"/><use xlink:href="#H" x="168.216"/><use xlink:href="#F" x="168.216" y="-37.607"/><use xlink:href="#G" x="168.216" y="-37.607"/><use xlink:href="#H" x="168.216" y="-28.205"/><use xlink:href="#H" x="168.216" y="-37.607"/><use xlink:href="#F" x="168.216" y="-75.214"/><use xlink:href="#G" x="168.216" y="-75.214"/><use xlink:href="#H" x="168.216" y="-65.812"/><use xlink:href="#F" x="168.216" y="-103.419"/><use xlink:href="#F" x="168.216" y="-112.821"/><use xlink:href="#G" x="168.216" y="-112.821"/><use xlink:href="#H" x="168.216" y="-103.419"/><use xlink:href="#I" x="168.216"/><use xlink:href="#H" x="168.216" y="-122.222"/><use xlink:href="#H" x="168.216" y="-131.624"/><use xlink:href="#H" x="168.216" y="-141.026"/><use xlink:href="#H" x="168.216" y="-150.428"/><use xlink:href="#H" x="168.216" y="-159.829"/><use xlink:href="#H" x="168.216" y="-169.231"/><use xlink:href="#H" x="168.216" y="-178.633"/><use xlink:href="#H" x="168.216" y="-188.035"/><use xlink:href="#J" x="145.787"/><use xlink:href="#K" x="145.787"/><use xlink:href="#K" x="145.787" y="-9.402"/><use xlink:href="#L" x="145.787"/><use xlink:href="#J" x="145.787" y="-37.607"/><use xlink:href="#K" x="145.787" y="-37.607"/><use xlink:href="#L" x="145.787" y="-28.205"/><use xlink:href="#L" x="145.787" y="-37.607"/><use xlink:href="#J" x="145.787" y="-75.214"/><use xlink:href="#K" x="145.787" y="-75.214"/><use xlink:href="#L" x="145.787" y="-65.812"/><use xlink:href="#J" x="145.787" y="-103.419"/><use xlink:href="#J" x="145.787" y="-112.821"/><use xlink:href="#K" x="145.787" y="-112.821"/><use xlink:href="#L" x="145.787" y="-103.419"/><use xlink:href="#M" x="145.787"/><use xlink:href="#L" x="145.787" y="-122.222"/><use xlink:href="#L" x="145.787" y="-131.624"/><use xlink:href="#L" x="145.787" y="-141.026"/><use xlink:href="#L" x="145.787" y="-150.428"/><use xlink:href="#L" x="145.787" y="-159.829"/><use xlink:href="#L" x="145.787" y="-169.231"/><use xlink:href="#L" x="145.787" y="-178.633"/><use xlink:href="#L" x="145.787" y="-188.035"/><use xlink:href="#D" x="280.36" y="37.607"/><use xlink:href="#B" x="280.36"/><use xlink:href="#B" x="280.36" y="-9.402"/><use xlink:href="#C" x="280.36"/><use xlink:href="#D" x="280.36"/><use xlink:href="#B" x="280.36" y="-37.607"/><use xlink:href="#C" x="280.36" y="-28.205"/><use xlink:href="#C" x="280.36" y="-37.607"/><use xlink:href="#D" x="280.36" y="-37.607"/><use xlink:href="#B" x="280.36" y="-75.214"/><use xlink:href="#C" x="280.36" y="-65.812"/><use xlink:href="#D" x="280.36" y="-65.812"/><use xlink:href="#D" x="280.36" y="-75.214"/><use xlink:href="#B" x="280.36" y="-112.821"/><use xlink:href="#C" x="280.36" y="-103.419"/><use xlink:href="#E" x="280.36"/><use xlink:href="#C" x="280.36" y="-122.222"/><use xlink:href="#C" x="280.36" y="-131.624"/><use xlink:href="#C" x="280.36" y="-141.026"/><use xlink:href="#C" x="280.36" y="-150.428"/><use xlink:href="#C" x="280.36" y="-159.829"/><use xlink:href="#C" x="280.36" y="-169.231"/><use xlink:href="#C" x="280.36" y="-178.633"/><use xlink:href="#C" x="280.36" y="-188.035"/><use xlink:href="#D" x="291.575" y="37.607"/><use xlink:href="#B" x="291.575"/><use xlink:href="#B" x="291.575" y="-9.402"/><use xlink:href="#C" x="291.575"/><use xlink:href="#D" x="291.575"/><use xlink:href="#B" x="291.575" y="-37.607"/><use xlink:href="#C" x="291.575" y="-28.205"/><use xlink:href="#C" x="291.575" y="-37.607"/><use xlink:href="#D" x="291.575" y="-37.607"/><use xlink:href="#B" x="291.575" y="-75.214"/><use xlink:href="#C" x="291.575" y="-65.812"/><use xlink:href="#D" x="291.575" y="-65.812"/><use xlink:href="#D" x="291.575" y="-75.214"/><use xlink:href="#B" x="291.575" y="-112.821"/><use xlink:href="#C" x="291.575" y="-103.419"/><use xlink:href="#E" x="291.575"/><use xlink:href="#C" x="291.575" y="-122.222"/><use xlink:href="#C" x="291.575" y="-131.624"/><use xlink:href="#C" x="291.575" y="-141.026"/><use xlink:href="#C" x="291.575" y="-150.428"/><use xlink:href="#C" x="291.575" y="-159.829"/><use xlink:href="#C" x="291.575" y="-169.231"/><use xlink:href="#C" x="291.575" y="-178.633"/><use xlink:href="#C" x="291.575" y="-188.035"/><use xlink:href="#F" x="213.074"/><use xlink:href="#G" x="213.074"/><use xlink:href="#G" x="213.074" y="-9.402"/><use xlink:href="#H" x="213.074"/><use xlink:href="#F" x="213.074" y="-37.607"/><use xlink:href="#G" x="213.074" y="-37.607"/><use xlink:href="#H" x="213.074" y="-28.205"/><use xlink:href="#H" x="213.074" y="-37.607"/><use xlink:href="#F" x="213.074" y="-75.214"/><use xlink:href="#G" x="213.074" y="-75.214"/><use xlink:href="#H" x="213.074" y="-65.812"/><use xlink:href="#F" x="213.074" y="-103.419"/><use xlink:href="#F" x="213.074" y="-112.821"/><use xlink:href="#G" x="213.074" y="-112.821"/><use xlink:href="#H" x="213.074" y="-103.419"/><use xlink:href="#I" x="213.074"/><use xlink:href="#H" x="213.074" y="-122.222"/><use xlink:href="#H" x="213.074" y="-131.624"/><use xlink:href="#H" x="213.074" y="-141.026"/><use xlink:href="#H" x="213.074" y="-150.428"/><use xlink:href="#H" x="213.074" y="-159.829"/><use xlink:href="#H" x="213.074" y="-169.231"/><use xlink:href="#H" x="213.074" y="-178.633"/><use xlink:href="#H" x="213.074" y="-188.035"/><use xlink:href="#J" x="190.645"/><use xlink:href="#K" x="190.645"/><use xlink:href="#K" x="190.645" y="-9.402"/><use xlink:href="#L" x="190.645"/><use xlink:href="#J" x="190.645" y="-37.607"/><use xlink:href="#K" x="190.645" y="-37.607"/><use xlink:href="#L" x="190.645" y="-28.205"/><use xlink:href="#L" x="190.645" y="-37.607"/><use xlink:href="#J" x="190.645" y="-75.214"/><use xlink:href="#K" x="190.645" y="-75.214"/><use xlink:href="#L" x="190.645" y="-65.812"/><use xlink:href="#J" x="190.645" y="-103.419"/><use xlink:href="#J" x="190.645" y="-112.821"/><use xlink:href="#K" x="190.645" y="-112.821"/><use xlink:href="#L" x="190.645" y="-103.419"/><use xlink:href="#M" x="190.645"/><use xlink:href="#L" x="190.645" y="-122.222"/><use xlink:href="#L" x="190.645" y="-131.624"/><use xlink:href="#L" x="190.645" y="-141.026"/><use xlink:href="#L" x="190.645" y="-150.428"/><use xlink:href="#L" x="190.645" y="-159.829"/><use xlink:href="#L" x="190.645" y="-169.231"/><use xlink:href="#L" x="190.645" y="-178.633"/><use xlink:href="#L" x="190.645" y="-188.035"/><use xlink:href="#D" x="325.218" y="37.607"/><use xlink:href="#B" x="325.218"/><use xlink:href="#B" x="325.218" y="-9.402"/><use xlink:href="#C" x="325.218"/><use xlink:href="#D" x="325.218"/><use xlink:href="#B" x="325.218" y="-37.607"/><use xlink:href="#C" x="325.218" y="-28.205"/><use xlink:href="#C" x="325.218" y="-37.607"/><use xlink:href="#D" x="325.218" y="-37.607"/><use xlink:href="#B" x="325.218" y="-75.214"/><use xlink:href="#C" x="325.218" y="-65.812"/><use xlink:href="#D" x="325.218" y="-65.812"/><use xlink:href="#D" x="325.218" y="-75.214"/><use xlink:href="#B" x="325.218" y="-112.821"/><use xlink:href="#C" x="325.218" y="-103.419"/><use xlink:href="#E" x="325.218"/><use xlink:href="#C" x="325.218" y="-122.222"/><use xlink:href="#C" x="325.218" y="-131.624"/><use xlink:href="#C" x="325.218" y="-141.026"/><use xlink:href="#C" x="325.218" y="-150.428"/><use xlink:href="#C" x="325.218" y="-159.829"/><use xlink:href="#C" x="325.218" y="-169.231"/><use xlink:href="#C" x="325.218" y="-178.633"/><use xlink:href="#C" x="325.218" y="-188.035"/><use xlink:href="#F" x="246.717"/><use xlink:href="#G" x="246.717"/><use xlink:href="#G" x="246.717" y="-9.402"/><use xlink:href="#H" x="246.717"/><use xlink:href="#F" x="246.717" y="-37.607"/><use xlink:href="#G" x="246.717" y="-37.607"/><use xlink:href="#H" x="246.717" y="-28.205"/><use xlink:href="#H" x="246.717" y="-37.607"/><use xlink:href="#F" x="246.717" y="-75.214"/><use xlink:href="#G" x="246.717" y="-75.214"/><use xlink:href="#H" x="246.717" y="-65.812"/><use xlink:href="#F" x="246.717" y="-103.419"/><use xlink:href="#F" x="246.717" y="-112.821"/><use xlink:href="#G" x="246.717" y="-112.821"/><use xlink:href="#H" x="246.717" y="-103.419"/><use xlink:href="#I" x="246.717"/><use xlink:href="#H" x="246.717" y="-122.222"/><use xlink:href="#H" x="246.717" y="-131.624"/><use xlink:href="#H" x="246.717" y="-141.026"/><use xlink:href="#H" x="246.717" y="-150.428"/><use xlink:href="#H" x="246.717" y="-159.829"/><use xlink:href="#H" x="246.717" y="-169.231"/><use xlink:href="#H" x="246.717" y="-178.633"/><use xlink:href="#H" x="246.717" y="-188.035"/><use xlink:href="#J" x="224.288"/><use xlink:href="#K" x="224.288"/><use xlink:href="#K" x="224.288" y="-9.402"/><use xlink:href="#L" x="224.288"/><use xlink:href="#J" x="224.288" y="-37.607"/><use xlink:href="#K" x="224.288" y="-37.607"/><use xlink:href="#L" x="224.288" y="-28.205"/><use xlink:href="#L" x="224.288" y="-37.607"/><use xlink:href="#J" x="224.288" y="-75.214"/><use xlink:href="#K" x="224.288" y="-75.214"/><use xlink:href="#L" x="224.288" y="-65.812"/><use xlink:href="#J" x="224.288" y="-103.419"/><use xlink:href="#J" x="224.288" y="-112.821"/><use xlink:href="#K" x="224.288" y="-112.821"/><use xlink:href="#L" x="224.288" y="-103.419"/><use xlink:href="#M" x="224.288"/><use xlink:href="#L" x="224.288" y="-122.222"/><use xlink:href="#L" x="224.288" y="-131.624"/><use xlink:href="#L" x="224.288" y="-141.026"/><use xlink:href="#L" x="224.288" y="-150.428"/><use xlink:href="#L" x="224.288" y="-159.829"/><use xlink:href="#L" x="224.288" y="-169.231"/><use xlink:href="#L" x="224.288" y="-178.633"/><use xlink:href="#L" x="224.288" y="-188.035"/><use xlink:href="#D" x="358.861" y="37.607"/><use xlink:href="#B" x="358.861"/><use xlink:href="#B" x="358.861" y="-9.402"/><use xlink:href="#C" x="358.861"/><use xlink:href="#D" x="358.861"/><use xlink:href="#B" x="358.861" y="-37.607"/><use xlink:href="#C" x="358.861" y="-28.205"/><use xlink:href="#C" x="358.861" y="-37.607"/><use xlink:href="#D" x="358.861" y="-37.607"/><use xlink:href="#B" x="358.861" y="-75.214"/><use xlink:href="#C" x="358.861" y="-65.812"/><use xlink:href="#D" x="358.861" y="-65.812"/><use xlink:href="#D" x="358.861" y="-75.214"/><use xlink:href="#B" x="358.861" y="-112.821"/><use xlink:href="#C" x="358.861" y="-103.419"/><use xlink:href="#E" x="358.861"/><use xlink:href="#C" x="358.861" y="-122.222"/><use xlink:href="#C" x="358.861" y="-131.624"/><use xlink:href="#C" x="358.861" y="-141.026"/><use xlink:href="#C" x="358.861" y="-150.428"/><use xlink:href="#C" x="358.861" y="-159.829"/><use xlink:href="#C" x="358.861" y="-169.231"/><use xlink:href="#C" x="358.861" y="-178.633"/><use xlink:href="#C" x="358.861" y="-188.035"/><use xlink:href="#F" x="280.36"/><use xlink:href="#G" x="280.36"/><use xlink:href="#G" x="280.36" y="-9.402"/><use xlink:href="#H" x="280.36"/><use xlink:href="#F" x="280.36" y="-37.607"/><use xlink:href="#G" x="280.36" y="-37.607"/><use xlink:href="#H" x="280.36" y="-28.205"/><use xlink:href="#H" x="280.36" y="-37.607"/><use xlink:href="#F" x="280.36" y="-75.214"/><use xlink:href="#G" x="280.36" y="-75.214"/><use xlink:href="#H" x="280.36" y="-65.812"/><use xlink:href="#F" x="280.36" y="-103.419"/><use xlink:href="#F" x="280.36" y="-112.821"/><use xlink:href="#G" x="280.36" y="-112.821"/><use xlink:href="#H" x="280.36" y="-103.419"/><use xlink:href="#I" x="280.36"/><use xlink:href="#H" x="280.36" y="-122.222"/><use xlink:href="#H" x="280.36" y="-131.624"/><use xlink:href="#H" x="280.36" y="-141.026"/><use xlink:href="#H" x="280.36" y="-150.428"/><use xlink:href="#H" x="280.36" y="-159.829"/><use xlink:href="#H" x="280.36" y="-169.231"/><use xlink:href="#H" x="280.36" y="-178.633"/><use xlink:href="#H" x="280.36" y="-188.035"/><use xlink:href="#J" x="257.931"/><use xlink:href="#K" x="257.931"/><use xlink:href="#K" x="257.931" y="-9.402"/><use xlink:href="#L" x="257.931"/><use xlink:href="#J" x="257.931" y="-37.607"/><use xlink:href="#K" x="257.931" y="-37.607"/><use xlink:href="#L" x="257.931" y="-28.205"/><use xlink:href="#L" x="257.931" y="-37.607"/><use xlink:href="#J" x="257.931" y="-75.214"/><use xlink:href="#K" x="257.931" y="-75.214"/><use xlink:href="#L" x="257.931" y="-65.812"/><use xlink:href="#J" x="257.931" y="-103.419"/><use xlink:href="#J" x="257.931" y="-112.821"/><use xlink:href="#K" x="257.931" y="-112.821"/><use xlink:href="#L" x="257.931" y="-103.419"/><use xlink:href="#M" x="257.931"/><use xlink:href="#L" x="257.931" y="-122.222"/><use xlink:href="#L" x="257.931" y="-131.624"/><use xlink:href="#L" x="257.931" y="-141.026"/><use xlink:href="#L" x="257.931" y="-150.428"/><use xlink:href="#L" x="257.931" y="-159.829"/><use xlink:href="#L" x="257.931" y="-169.231"/><use xlink:href="#L" x="257.931" y="-178.633"/><use xlink:href="#L" x="257.931" y="-188.035"/><use xlink:href="#D" x="392.504" y="37.607"/><use xlink:href="#B" x="392.504"/><use xlink:href="#B" x="392.504" y="-9.402"/><use xlink:href="#C" x="392.504"/><use xlink:href="#D" x="392.504"/><use xlink:href="#B" x="392.504" y="-37.607"/><use xlink:href="#C" x="392.504" y="-28.205"/><use xlink:href="#C" x="392.504" y="-37.607"/><use xlink:href="#D" x="392.504" y="-37.607"/><use xlink:href="#B" x="392.504" y="-75.214"/><use xlink:href="#C" x="392.504" y="-65.812"/><use xlink:href="#D" x="392.504" y="-65.812"/><use xlink:href="#D" x="392.504" y="-75.214"/><use xlink:href="#B" x="392.504" y="-112.821"/><use xlink:href="#C" x="392.504" y="-103.419"/><use xlink:href="#E" x="392.504"/><use xlink:href="#C" x="392.504" y="-122.222"/><use xlink:href="#C" x="392.504" y="-131.624"/><use xlink:href="#C" x="392.504" y="-141.026"/><use xlink:href="#C" x="392.504" y="-150.428"/><use xlink:href="#C" x="392.504" y="-159.829"/><use xlink:href="#C" x="392.504" y="-169.231"/><use xlink:href="#C" x="392.504" y="-178.633"/><use xlink:href="#C" x="392.504" y="-188.035"/><use xlink:href="#F" x="314.003"/><use xlink:href="#G" x="314.003"/><use xlink:href="#G" x="314.003" y="-9.402"/><use xlink:href="#H" x="314.003"/><use xlink:href="#F" x="314.003" y="-37.607"/><use xlink:href="#G" x="314.003" y="-37.607"/><use xlink:href="#H" x="314.003" y="-28.205"/><use xlink:href="#H" x="314.003" y="-37.607"/><use xlink:href="#F" x="314.003" y="-75.214"/><use xlink:href="#G" x="314.003" y="-75.214"/><use xlink:href="#H" x="314.003" y="-65.812"/><use xlink:href="#F" x="314.003" y="-103.419"/><use xlink:href="#F" x="314.003" y="-112.821"/><use xlink:href="#G" x="314.003" y="-112.821"/><use xlink:href="#H" x="314.003" y="-103.419"/><use xlink:href="#I" x="314.003"/><use xlink:href="#H" x="314.003" y="-122.222"/><use xlink:href="#H" x="314.003" y="-131.624"/><use xlink:href="#H" x="314.003" y="-141.026"/><use xlink:href="#H" x="314.003" y="-150.428"/><use xlink:href="#H" x="314.003" y="-159.829"/><use xlink:href="#H" x="314.003" y="-169.231"/><use xlink:href="#H" x="314.003" y="-178.633"/><use xlink:href="#H" x="314.003" y="-188.035"/><use xlink:href="#K" x="291.574"/><use xlink:href="#K" x="291.574" y="-9.402"/><use xlink:href="#L" x="291.574"/><use xlink:href="#J" x="291.574" y="-37.607"/><use xlink:href="#K" x="291.574" y="-37.607"/><use xlink:href="#L" x="291.574" y="-28.205"/><use xlink:href="#L" x="291.574" y="-37.607"/><use xlink:href="#J" x="291.574" y="-75.214"/><use xlink:href="#K" x="291.574" y="-75.214"/><use xlink:href="#L" x="291.574" y="-65.812"/><use xlink:href="#L" x="291.574" y="-75.214"/><use xlink:href="#J" x="291.574" y="-112.821"/><use xlink:href="#K" x="291.574" y="-112.821"/><use xlink:href="#L" x="291.574" y="-103.419"/><use xlink:href="#M" x="291.574"/><use xlink:href="#L" x="291.574" y="-122.222"/><use xlink:href="#L" x="291.574" y="-131.624"/><use xlink:href="#L" x="291.574" y="-141.026"/><use xlink:href="#L" x="291.574" y="-150.428"/><use xlink:href="#L" x="291.574" y="-159.829"/><use xlink:href="#L" x="291.574" y="-169.231"/><use xlink:href="#L" x="291.574" y="-178.633"/></g><defs><filter id="A" x=".6" y=".6" width="455.8" height="258.8" filterUnits="userSpaceOnUse" color-interpolation-filters="sRGB"><feFlood flood-opacity="0"/><feBlend in="SourceGraphic"/><feGaussianBlur stdDeviation="7.7"/></filter><path id="B" d="M25.395 233.259c-.768.256-1.579-.47-2.432-2.176-.853-1.622-1.365-3.243-1.536-4.864-.256-1.622-.043-2.731.64-3.328.768-.256 1.621.426 2.56 2.048.853 1.706 1.365 3.37 1.536 4.992s-.085 2.73-.768 3.328zm-8.576.896c-.683-.512-.939-1.579-.768-3.2s.725-3.286 1.664-4.992c.853-1.622 1.664-2.304 2.432-2.048.683.597.939 1.706.768 3.328s-.683 3.242-1.536 4.864c-.939 1.706-1.792 2.389-2.56 2.048z"/><path id="C" d="M25.395 214.455c-.768.256-1.579-.469-2.432-2.176-.853-1.621-1.365-3.243-1.536-4.864-.256-1.621-.043-2.731.64-3.328.768-.256 1.621.427 2.56 2.048.853 1.707 1.365 3.371 1.536 4.992s-.085 2.731-.768 3.328zm-8.576.896c-.683-.512-.939-1.579-.768-3.2s.725-3.285 1.664-4.992c.853-1.621 1.664-2.304 2.432-2.048.683.597.939 1.707.768 3.328s-.683 3.243-1.536 4.864c-.939 1.707-1.792 2.389-2.56 2.048z"/><path id="D" d="M25.395 205.053c-.768.256-1.579-.469-2.432-2.176-.853-1.621-1.365-3.242-1.536-4.864-.256-1.621-.043-2.73.64-3.328.768-.256 1.621.427 2.56 2.048.853 1.707 1.365 3.371 1.536 4.992s-.085 2.731-.768 3.328zm-8.576.896c-.683-.512-.939-1.578-.768-3.2s.725-3.285 1.664-4.992c.853-1.621 1.664-2.304 2.432-2.048.683.598.939 1.707.768 3.328s-.683 3.243-1.536 4.864c-.939 1.707-1.792 2.39-2.56 2.048z"/><path id="E" d="M25.395 101.634c-.768.256-1.579-.469-2.432-2.176-.853-1.621-1.365-3.243-1.536-4.864-.256-1.621-.043-2.731.64-3.328.768-.256 1.621.427 2.56 2.048.853 1.707 1.365 3.371 1.536 4.992s-.085 2.731-.768 3.328zm-8.576.896c-.683-.512-.939-1.578-.768-3.2s.725-3.285 1.664-4.992c.853-1.621 1.664-2.304 2.432-2.048.683.597.939 1.707.768 3.328s-.683 3.243-1.536 4.864c-.939 1.707-1.792 2.39-2.56 2.048z"/><path id="F" d="M115.11 242.66c-.768.256-1.578-.469-2.432-2.176-.853-1.621-1.365-3.242-1.536-4.864-.256-1.621-.042-2.73.64-3.328.768-.256 1.622.427 2.56 2.048.854 1.707 1.366 3.371 1.536 4.992s-.085 2.731-.768 3.328zm-8.576.896c-.682-.512-.938-1.578-.768-3.2s.726-3.285 1.664-4.992c.854-1.621 1.664-2.304 2.432-2.048.683.598.939 1.707.768 3.328s-.682 3.243-1.536 4.864c-.938 1.707-1.792 2.39-2.56 2.048z"/><path id="G" d="M115.11 233.259c-.768.256-1.578-.47-2.432-2.176-.853-1.622-1.365-3.243-1.536-4.864-.256-1.622-.042-2.731.64-3.328.768-.256 1.622.426 2.56 2.048.854 1.706 1.366 3.37 1.536 4.992s-.085 2.73-.768 3.328zm-8.576.896c-.682-.512-.938-1.579-.768-3.2s.726-3.286 1.664-4.992c.854-1.622 1.664-2.304 2.432-2.048.683.597.939 1.706.768 3.328s-.682 3.242-1.536 4.864c-.938 1.706-1.792 2.389-2.56 2.048z"/><path id="H" d="M115.11 214.455c-.768.256-1.578-.469-2.432-2.176-.853-1.621-1.365-3.243-1.536-4.864-.256-1.621-.042-2.731.64-3.328.768-.256 1.622.427 2.56 2.048.854 1.707 1.366 3.371 1.536 4.992s-.085 2.731-.768 3.328zm-8.576.896c-.682-.512-.938-1.579-.768-3.2s.726-3.285 1.664-4.992c.854-1.621 1.664-2.304 2.432-2.048.683.597.939 1.707.768 3.328s-.682 3.243-1.536 4.864c-.938 1.707-1.792 2.389-2.56 2.048z"/><path id="I" d="M115.11 101.634c-.768.256-1.578-.469-2.432-2.176-.853-1.621-1.365-3.243-1.536-4.864-.256-1.621-.042-2.731.64-3.328.768-.256 1.622.427 2.56 2.048.854 1.707 1.366 3.371 1.536 4.992s-.085 2.731-.768 3.328zm-8.576.896c-.682-.512-.938-1.578-.768-3.2s.726-3.285 1.664-4.992c.854-1.621 1.664-2.304 2.432-2.048.683.597.939 1.707.768 3.328s-.682 3.243-1.536 4.864c-.938 1.707-1.792 2.39-2.56 2.048z"/><path id="J" d="M148.754 242.66c-.768.256-1.579-.469-2.432-2.176-.854-1.621-1.366-3.242-1.536-4.864-.256-1.621-.043-2.73.64-3.328.768-.256 1.621.427 2.56 2.048.853 1.707 1.365 3.371 1.536 4.992s-.086 2.731-.768 3.328zm-8.576.896c-.683-.512-.939-1.578-.768-3.2s.725-3.285 1.664-4.992c.853-1.621 1.664-2.304 2.432-2.048.682.598.938 1.707.768 3.328s-.683 3.243-1.536 4.864c-.939 1.707-1.792 2.39-2.56 2.048z"/><path id="K" d="M148.754 233.259c-.768.256-1.579-.47-2.432-2.176-.854-1.622-1.366-3.243-1.536-4.864-.256-1.622-.043-2.731.64-3.328.768-.256 1.621.426 2.56 2.048.853 1.706 1.365 3.37 1.536 4.992s-.086 2.73-.768 3.328zm-8.576.896c-.683-.512-.939-1.579-.768-3.2s.725-3.286 1.664-4.992c.853-1.622 1.664-2.304 2.432-2.048.682.597.938 1.706.768 3.328s-.683 3.242-1.536 4.864c-.939 1.706-1.792 2.389-2.56 2.048z"/><path id="L" d="M148.754 214.455c-.768.256-1.579-.469-2.432-2.176-.854-1.621-1.366-3.243-1.536-4.864-.256-1.621-.043-2.731.64-3.328.768-.256 1.621.427 2.56 2.048.853 1.707 1.365 3.371 1.536 4.992s-.086 2.731-.768 3.328zm-8.576.896c-.683-.512-.939-1.579-.768-3.2s.725-3.285 1.664-4.992c.853-1.621 1.664-2.304 2.432-2.048.682.597.938 1.707.768 3.328s-.683 3.243-1.536 4.864c-.939 1.707-1.792 2.389-2.56 2.048z"/><path id="M" d="M148.754 101.634c-.768.256-1.579-.469-2.432-2.176-.854-1.621-1.366-3.243-1.536-4.864-.256-1.621-.043-2.731.64-3.328.768-.256 1.621.427 2.56 2.048.853 1.707 1.365 3.371 1.536 4.992s-.086 2.731-.768 3.328zm-8.576.896c-.683-.512-.939-1.578-.768-3.2s.725-3.285 1.664-4.992c.853-1.621 1.664-2.304 2.432-2.048.682.597.938 1.707.768 3.328s-.683 3.243-1.536 4.864c-.939 1.707-1.792 2.39-2.56 2.048z"/></defs></svg>