<svg xmlns="http://www.w3.org/2000/svg" width="201" height="71" fill="none" xmlns:v="https://vecta.io/nano"><path fill-rule="evenodd" d="M80.305 37.511C65.396 31.711 40.49 27.507.449 27.9l12.237-1.55L.419 24.93c40.194-.394 65.539 3.813 80.964 9.813 2.875 1.118 5.418 2.305 7.655 3.543 2.951-3.525 6.78-5.697 11.164-6.977 4.748-1.386 10.181-1.734 15.936-1.634 4.733.082 9.768.47 14.889.865l3.319.253c12.609.941 25.517 1.531 36.738-2.251 11.085-3.736 20.651-11.789 26.478-28.519l2.616 3.148c-6.11 17.543-16.138 24.139-28.143 28.185-11.869 4-25.357 3.335-37.909 2.399l-3.359-.256c-5.117-.395-10.044-.775-14.68-.855-5.64-.098-10.726.253-15.052 1.516-3.774 1.101-6.943 2.888-9.405 5.669 7.859 5.04 11.119 10.767 11.354 16.113.312 7.104-4.819 12.91-10.049 14.135-2.706.634-5.562.052-7.577-2.344-1.944-2.312-2.876-6.052-2.511-11.261.468-6.665 1.986-11.826 4.439-15.764-2.024-1.099-4.34-2.171-6.981-3.198zm9.546 4.701c-2.15 3.421-3.592 8.09-4.04 14.47-.341 4.859.59 7.678 1.821 9.142 1.16 1.38 2.79 1.792 4.623 1.363 3.849-.901 8.008-5.447 7.759-11.114-.18-4.101-2.728-9.151-10.163-13.861z" fill="#fff"/></svg>