<svg xmlns="http://www.w3.org/2000/svg" width="344" height="103" fill="none" xmlns:v="https://vecta.io/nano"><g filter="url(#A)"><path d="M288.589 88.405c.768-.256 1.579.469 2.432 2.176.939 1.621 1.494 3.243 1.664 4.864s-.085 2.731-.768 3.328c-.768.256-1.578-.427-2.432-2.048-.853-1.707-1.365-3.371-1.536-4.992s.043-2.731.64-3.328zm8.704-.896c.683.512.896 1.579.64 3.2-.17 1.621-.682 3.285-1.536 4.992-.853 1.621-1.664 2.304-2.432 2.048-.682-.597-.938-1.707-.768-3.328s.683-3.243 1.536-4.864c.939-1.707 1.792-2.389 2.56-2.048zm-8.704-8.832c.768-.256 1.579.469 2.432 2.176.939 1.621 1.494 3.243 1.664 4.864s-.085 2.731-.768 3.328c-.426.171-.938-.043-1.536-.64-.512-.597-.981-1.365-1.408-2.304l-.896-3.072c-.256-1.024-.341-1.963-.256-2.816s.342-1.365.768-1.536zm8.704-.896c.683.512.896 1.621.64 3.328-.17 1.621-.682 3.243-1.536 4.864s-1.664 2.304-2.432 2.048c-.682-.512-.938-1.579-.768-3.2.171-1.707.683-3.371 1.536-4.992.939-1.707 1.792-2.389 2.56-2.048zm-19.072.896c.768-.256 1.579.469 2.432 2.176.854 1.621 1.366 3.243 1.536 4.864.256 1.621.043 2.731-.64 3.328-.938.341-1.877-.597-2.816-2.816-1.45-3.243-1.792-5.589-1.024-7.04a.77.77 0 0 1 .512-.512zm8.576-.896c.683.512.939 1.621.768 3.328-.17 1.621-.725 3.243-1.664 4.864-.853 1.621-1.664 2.304-2.432 2.048-.682-.512-.938-1.579-.768-3.2.256-1.707.811-3.371 1.664-4.992.854-1.707 1.664-2.389 2.432-2.048zm12.288-8.832c.427-.171.896.043 1.408.64.598.597 1.067 1.408 1.408 2.432a17.12 17.12 0 0 1 1.024 2.944c.256 1.024.342 1.963.256 2.816s-.341 1.365-.768 1.536c-.768.256-1.621-.427-2.56-2.048-.853-1.707-1.365-3.371-1.536-4.992s.086-2.731.768-3.328zm8.576-.896c.683.512.939 1.621.768 3.328-.17 1.621-.725 3.285-1.664 4.992-.853 1.621-1.664 2.261-2.432 1.92-.682-.512-.938-1.579-.768-3.2.256-1.707.811-3.371 1.664-4.992.854-1.707 1.664-2.389 2.432-2.048zm-19.072.896c.342-.085.683.043 1.024.384.427.256.811.683 1.152 1.28.342.512.64 1.109.896 1.792a9.35 9.35 0 0 1 .768 2.176c.171.768.256 1.493.256 2.176.086.597.043 1.152-.128 1.664-.085.427-.298.725-.64.896-.768.256-1.578-.427-2.432-2.048-.853-1.707-1.365-3.371-1.536-4.992s.043-2.731.64-3.328zm8.704-.896c.683.512.896 1.621.64 3.328-.17 1.621-.682 3.285-1.536 4.992-.853 1.621-1.664 2.261-2.432 1.92-.682-.512-.938-1.579-.768-3.2.171-1.707.683-3.371 1.536-4.992.939-1.707 1.792-2.389 2.56-2.048zm-19.072.896c.342-.085.683.043 1.024.384.427.256.768.683 1.024 1.28.342.512.64 1.109.896 1.792a9.35 9.35 0 0 1 .768 2.176l.384 2.176c.086.597.043 1.152-.128 1.664-.085.427-.298.725-.64.896-.768.256-1.621-.427-2.56-2.048-.853-1.707-1.365-3.371-1.536-4.992s.086-2.731.768-3.328zm8.576-.896c.683.512.939 1.621.768 3.328-.17 1.621-.725 3.285-1.664 4.992-.853 1.621-1.664 2.261-2.432 1.92-.682-.512-.938-1.579-.768-3.2.256-1.707.811-3.371 1.664-4.992.854-1.707 1.664-2.389 2.432-2.048zm12.288-8.704c.768-.341 1.579.341 2.432 2.048.854 1.621 1.366 3.285 1.536 4.992.256 1.621.043 2.688-.64 3.2-.426.171-.938-.043-1.536-.64-.512-.597-.981-1.365-1.408-2.304l-.896-3.072c-.256-1.024-.341-1.92-.256-2.688.086-.853.342-1.365.768-1.536zm8.576-1.024c.683.512.939 1.621.768 3.328-.17 1.621-.725 3.285-1.664 4.992-.853 1.621-1.664 2.261-2.432 1.92-.682-.512-.938-1.579-.768-3.2.256-1.707.811-3.371 1.664-4.992s1.664-2.304 2.432-2.048zm-29.44 1.024c.768-.341 1.579.341 2.432 2.048.854 1.621 1.366 3.285 1.536 4.992.256 1.621.043 2.688-.64 3.2-.512.171-1.024-.043-1.536-.64s-.981-1.365-1.408-2.304a21.7 21.7 0 0 1-1.024-3.072c-.17-1.024-.213-1.92-.128-2.688.086-.853.342-1.365.768-1.536zm8.576-1.024c.683.512.939 1.621.768 3.328-.17 1.621-.725 3.285-1.664 4.992-.853 1.621-1.664 2.261-2.432 1.92-.682-.512-.938-1.579-.768-3.2.256-1.707.811-3.371 1.664-4.992s1.664-2.304 2.432-2.048zm-19.072 1.024c.768-.341 1.579.341 2.432 2.048.939 1.621 1.494 3.285 1.664 4.992.171 1.621-.085 2.688-.768 3.2-.426.171-.938-.043-1.536-.64-.512-.597-.981-1.365-1.408-2.304l-.896-3.072c-.256-1.024-.341-1.92-.256-2.688.086-.853.342-1.365.768-1.536zm8.704-1.024c.683.512.896 1.621.64 3.328-.17 1.621-.725 3.285-1.664 4.992-.853 1.621-1.621 2.261-2.304 1.92-.682-.512-.938-1.579-.768-3.2.171-1.707.683-3.371 1.536-4.992.939-1.621 1.792-2.304 2.56-2.048zm-8.704-18.432c.768-.341 1.579.341 2.432 2.048.939 1.621 1.494 3.285 1.664 4.992.171 1.621-.085 2.688-.768 3.2-.768.341-1.578-.299-2.432-1.92-.853-1.707-1.408-3.371-1.664-4.992-.17-1.707.086-2.816.768-3.328zm8.704-1.024c.683.597.896 1.707.64 3.328-.17 1.621-.725 3.285-1.664 4.992-.853 1.621-1.621 2.304-2.304 2.048-.682-.597-.938-1.707-.768-3.328s.683-3.243 1.536-4.864c.939-1.707 1.792-2.432 2.56-2.176zm43.52-8.704c.768-.256 1.579.469 2.432 2.176.939 1.621 1.494 3.243 1.664 4.864s-.085 2.688-.768 3.2c-.768.341-1.621-.299-2.56-1.92-.853-1.707-1.365-3.371-1.536-4.992-.17-1.707.086-2.816.768-3.328zm7.04-.384c.598-.597 1.11-.811 1.536-.64.512.171.811.683.896 1.536s0 1.792-.256 2.816-.597 2.048-1.024 3.072c-.426.939-.896 1.707-1.408 2.304s-1.024.811-1.536.64c-.426-.171-.682-.683-.768-1.536s0-1.792.256-2.816a29.75 29.75 0 0 1 .896-2.944c.427-1.024.896-1.835 1.408-2.432zm-17.408.384c.683-.256 1.451.469 2.304 2.176.939 1.621 1.494 3.243 1.664 4.864s-.085 2.688-.768 3.2c-.682.341-1.493-.299-2.432-1.92-.853-1.707-1.365-3.371-1.536-4.992-.17-1.707.086-2.816.768-3.328zm8.576-1.024c.683.597.896 1.707.64 3.328-.17 1.621-.682 3.285-1.536 4.992-.853 1.621-1.664 2.304-2.432 2.048-.682-.597-.938-1.707-.768-3.328s.683-3.243 1.536-4.864c.939-1.707 1.792-2.432 2.56-2.176zm-8.576 10.752c.683-.341 1.451.341 2.304 2.048.939 1.621 1.494 3.285 1.664 4.992.171 1.621-.085 2.688-.768 3.2-.682.341-1.493-.299-2.432-1.92-.853-1.707-1.365-3.371-1.536-4.992-.17-1.707.086-2.816.768-3.328zm8.576-1.024c.683.597.896 1.707.64 3.328-.17 1.621-.682 3.285-1.536 4.992-.853 1.621-1.664 2.304-2.432 2.048-.682-.597-.938-1.707-.768-3.328s.683-3.243 1.536-4.864c.939-1.707 1.792-2.432 2.56-2.176zm1.792-18.432c.768-.256 1.579.469 2.432 2.176.939 1.621 1.494 3.243 1.664 4.864s-.085 2.731-.768 3.328c-.768.256-1.621-.427-2.56-2.048-.853-1.707-1.365-3.371-1.536-4.992s.086-2.731.768-3.328zm7.04-.384c.598-.597 1.11-.768 1.536-.512.512.171.811.683.896 1.536.086.768 0 1.664-.256 2.688s-.597 2.048-1.024 3.072c-.426.939-.896 1.707-1.408 2.304s-1.024.811-1.536.64c-.426-.171-.682-.683-.768-1.536s0-1.792.256-2.816a29.75 29.75 0 0 1 .896-2.944c.427-1.024.896-1.835 1.408-2.432zm-7.04-9.344c.768-.256 1.579.469 2.432 2.176.939 1.621 1.494 3.243 1.664 4.864s-.085 2.731-.768 3.328c-.426.171-.938-.043-1.536-.64-.512-.597-.981-1.365-1.408-2.304l-.896-3.072c-.256-1.024-.341-1.963-.256-2.816s.342-1.365.768-1.536zm7.04-.256c.598-.597 1.11-.811 1.536-.64.512.171.811.683.896 1.536.086.768 0 1.664-.256 2.688s-.597 2.048-1.024 3.072c-.426.939-.896 1.707-1.408 2.304s-1.024.811-1.536.64c-.426-.171-.682-.64-.768-1.408-.085-.853 0-1.792.256-2.816a26.38 26.38 0 0 1 .896-3.072c.427-1.024.896-1.792 1.408-2.304zm3.456-9.472c.683-.256 1.451.469 2.304 2.176.939 1.621 1.494 3.243 1.664 4.864s-.042 2.731-.64 3.328c-.768.256-1.621-.427-2.56-2.048-.853-1.707-1.365-3.371-1.536-4.992s.086-2.731.768-3.328zm8.576-.896c.683.512.939 1.621.768 3.328-.17 1.621-.725 3.285-1.664 4.992-.853 1.621-1.664 2.261-2.432 1.92-.682-.512-.938-1.579-.768-3.2.171-1.707.683-3.371 1.536-4.992.939-1.707 1.792-2.389 2.56-2.048zm-29.44.896c.683-.256 1.451.469 2.304 2.176.939 1.621 1.494 3.243 1.664 4.864s-.085 2.731-.768 3.328c-.682.256-1.493-.427-2.432-2.048-.853-1.707-1.365-3.371-1.536-4.992s.086-2.731.768-3.328zm8.576-.896c.683.512.896 1.621.64 3.328-.17 1.621-.682 3.285-1.536 4.992-.853 1.621-1.664 2.261-2.432 1.92-.682-.512-.938-1.579-.768-3.2.171-1.707.683-3.371 1.536-4.992.939-1.707 1.792-2.389 2.56-2.048zm1.792.896c.768-.256 1.579.469 2.432 2.176.939 1.621 1.494 3.243 1.664 4.864s-.085 2.731-.768 3.328c-.768.256-1.621-.427-2.56-2.048-.853-1.707-1.365-3.371-1.536-4.992s.086-2.731.768-3.328zm8.576-.896c.683.512.939 1.621.768 3.328-.17 1.621-.725 3.285-1.664 4.992-.853 1.621-1.664 2.261-2.432 1.92-.682-.512-.938-1.579-.768-3.2.256-1.707.811-3.371 1.664-4.992.939-1.707 1.75-2.389 2.432-2.048zm-18.944 49.536c.683-.341 1.451.341 2.304 2.048.939 1.621 1.494 3.285 1.664 4.992.171 1.621-.085 2.688-.768 3.2-.682.341-1.493-.299-2.432-1.92-.853-1.707-1.365-3.371-1.536-4.992-.17-1.707.086-2.816.768-3.328zm8.576-1.024c.683.512.896 1.621.64 3.328-.17 1.621-.682 3.285-1.536 4.992-.853 1.621-1.664 2.261-2.432 1.92-.682-.512-.938-1.579-.768-3.2s.683-3.243 1.536-4.864c.939-1.707 1.792-2.432 2.56-2.176zm-19.072 1.024c.768-.341 1.579.341 2.432 2.048.939 1.621 1.494 3.285 1.664 4.992.171 1.621-.085 2.688-.768 3.2-.768.341-1.621-.299-2.56-1.92-.853-1.707-1.365-3.371-1.536-4.992-.17-1.707.086-2.816.768-3.328zm8.576-1.024c.683.512.939 1.621.768 3.328-.17 1.621-.725 3.285-1.664 4.992-.853 1.621-1.664 2.261-2.432 1.92-.682-.512-.938-1.579-.768-3.2.256-1.621.811-3.243 1.664-4.864.939-1.707 1.75-2.432 2.432-2.176zm-29.44 1.024c.768-.341 1.579.341 2.432 2.048.854 1.621 1.366 3.285 1.536 4.992.256 1.621.043 2.688-.64 3.2-.768.341-1.621-.299-2.56-1.92-.853-1.707-1.365-3.371-1.536-4.992-.17-1.707.086-2.816.768-3.328zm8.576-1.024c.683.512.939 1.621.768 3.328-.17 1.621-.725 3.285-1.664 4.992-.853 1.621-1.664 2.261-2.432 1.92-.682-.512-.938-1.579-.768-3.2.256-1.621.811-3.243 1.664-4.864.854-1.707 1.664-2.432 2.432-2.176zm-19.072 1.024c.768-.341 1.579.341 2.432 2.048.939 1.621 1.494 3.285 1.664 4.992.171 1.621-.085 2.688-.768 3.2-.768.341-1.578-.299-2.432-1.92-.853-1.707-1.408-3.371-1.664-4.992-.17-1.707.086-2.816.768-3.328zm8.704-1.024c.683.512.896 1.621.64 3.328-.17 1.621-.725 3.285-1.664 4.992-.853 1.621-1.621 2.261-2.304 1.92-.682-.512-.938-1.579-.768-3.2s.683-3.243 1.536-4.864c.939-1.707 1.792-2.432 2.56-2.176zm-29.568 39.808c.768-.256 1.579.469 2.432 2.176.939 1.621 1.494 3.243 1.664 4.864s-.085 2.731-.768 3.328c-.768.256-1.578-.427-2.432-2.048-.853-1.707-1.408-3.371-1.664-4.992-.17-1.621.086-2.731.768-3.328zm8.704-.896c.598.512.811 1.579.64 3.2s-.725 3.285-1.664 4.992c-.853 1.621-1.664 2.304-2.432 2.048-.597-.597-.81-1.707-.64-3.328s.683-3.243 1.536-4.864c.939-1.707 1.792-2.389 2.56-2.048zm-8.704-8.832c.768-.256 1.579.469 2.432 2.176.939 1.621 1.494 3.243 1.664 4.864s-.085 2.731-.768 3.328c-.426.171-.938-.043-1.536-.64-.512-.597-.981-1.365-1.408-2.304l-.896-3.072c-.256-1.024-.341-1.963-.256-2.816s.342-1.365.768-1.536zm8.704-.896c.598.512.811 1.621.64 3.328-.17 1.621-.725 3.243-1.664 4.864-.853 1.621-1.664 2.304-2.432 2.048-.597-.512-.81-1.579-.64-3.2.171-1.707.683-3.371 1.536-4.992.939-1.707 1.792-2.389 2.56-2.048zm-19.072.896c.768-.256 1.579.469 2.432 2.176.854 1.621 1.366 3.243 1.536 4.864s-.042 2.731-.64 3.328c-.512.171-1.024-.043-1.536-.64s-.981-1.365-1.408-2.304a21.7 21.7 0 0 1-1.024-3.072c-.256-1.024-.341-1.963-.256-2.816s.384-1.365.896-1.536zm8.576-.896c.683.512.939 1.621.768 3.328-.17 1.621-.725 3.243-1.664 4.864-.853 1.621-1.664 2.304-2.432 2.048-.682-.512-.938-1.579-.768-3.2.171-1.707.683-3.371 1.536-4.992.939-1.707 1.792-2.389 2.56-2.048zm12.288-8.832c.427-.171.896.043 1.408.64.598.597 1.067 1.408 1.408 2.432a17.12 17.12 0 0 1 1.024 2.944c.256 1.024.342 1.963.256 2.816s-.341 1.365-.768 1.536c-.768.256-1.621-.427-2.56-2.048-.853-1.707-1.365-3.371-1.536-4.992s.086-2.731.768-3.328zm8.576-.896c.683.512.939 1.621.768 3.328-.17 1.621-.725 3.285-1.664 4.992-.853 1.621-1.664 2.261-2.432 1.92-.682-.512-.938-1.579-.768-3.2.256-1.707.811-3.371 1.664-4.992.854-1.707 1.664-2.389 2.432-2.048zm-19.072.896c.512-.171 1.024.043 1.536.64s.939 1.408 1.28 2.432a17.12 17.12 0 0 1 1.024 2.944c.256 1.024.342 1.963.256 2.816s-.341 1.365-.768 1.536c-.768.256-1.578-.427-2.432-2.048-.853-1.707-1.408-3.371-1.664-4.992-.17-1.621.086-2.731.768-3.328zm8.704-.896c.598.512.811 1.621.64 3.328-.17 1.621-.725 3.285-1.664 4.992-.853 1.621-1.664 2.261-2.432 1.92-.597-.512-.81-1.579-.64-3.2.171-1.707.683-3.371 1.536-4.992.939-1.707 1.792-2.389 2.56-2.048zm-19.072.896c.427-.171.896.043 1.408.64.598.597 1.067 1.408 1.408 2.432a17.12 17.12 0 0 1 1.024 2.944c.256 1.024.342 1.963.256 2.816s-.341 1.365-.768 1.536c-.768.256-1.621-.427-2.56-2.048-.853-1.707-1.365-3.371-1.536-4.992s.086-2.731.768-3.328zm8.576-.896c.683.512.939 1.621.768 3.328-.17 1.621-.725 3.285-1.664 4.992-.853 1.621-1.664 2.261-2.432 1.92-.682-.512-.938-1.579-.768-3.2.171-1.707.683-3.371 1.536-4.992.939-1.707 1.792-2.389 2.56-2.048zm12.288-8.704c.768-.341 1.579.341 2.432 2.048.854 1.621 1.366 3.285 1.536 4.992.256 1.621.043 2.688-.64 3.2-.512.171-1.024-.043-1.536-.64s-.981-1.365-1.408-2.304a21.7 21.7 0 0 1-1.024-3.072c-.256-1.024-.341-1.92-.256-2.688.086-.853.384-1.365.896-1.536zm8.576-1.024c.683.512.939 1.621.768 3.328-.17 1.621-.725 3.285-1.664 4.992-.853 1.621-1.664 2.261-2.432 1.92-.682-.512-.938-1.579-.768-3.2.256-1.707.811-3.371 1.664-4.992s1.664-2.304 2.432-2.048zm-29.44 1.024c.768-.341 1.579.341 2.432 2.048.854 1.621 1.366 3.285 1.536 4.992.171 1.621-.042 2.688-.64 3.2-.512.171-1.024-.043-1.536-.64s-.981-1.365-1.408-2.304a21.7 21.7 0 0 1-1.024-3.072c-.256-1.024-.341-1.92-.256-2.688.086-.853.384-1.365.896-1.536zm8.576-1.024c.683.512.939 1.621.768 3.328-.17 1.621-.725 3.285-1.664 4.992-.853 1.621-1.664 2.261-2.432 1.92-.682-.512-.938-1.579-.768-3.2.171-1.707.683-3.371 1.536-4.992.939-1.621 1.792-2.304 2.56-2.048zm-19.072 1.024c.768-.341 1.579.341 2.432 2.048.939 1.621 1.494 3.285 1.664 4.992.171 1.621-.085 2.688-.768 3.2-.426.171-.938-.043-1.536-.64-.512-.597-.981-1.365-1.408-2.304l-.896-3.072c-.256-1.024-.341-1.92-.256-2.688.086-.853.342-1.365.768-1.536zm8.704-1.024c.598.512.811 1.621.64 3.328-.17 1.621-.725 3.285-1.664 4.992-.853 1.621-1.664 2.261-2.432 1.92-.597-.512-.81-1.579-.64-3.2.171-1.707.683-3.371 1.536-4.992.939-1.621 1.792-2.304 2.56-2.048zm-8.704-18.432c.768-.341 1.579.341 2.432 2.048.939 1.621 1.494 3.285 1.664 4.992.171 1.621-.085 2.688-.768 3.2-.768.341-1.621-.299-2.56-1.92-.853-1.707-1.365-3.371-1.536-4.992-.17-1.707.086-2.816.768-3.328zm8.704-1.024c.598.597.811 1.707.64 3.328s-.725 3.285-1.664 4.992c-.853 1.621-1.664 2.304-2.432 2.048-.597-.597-.81-1.707-.64-3.328s.683-3.243 1.536-4.864c.939-1.707 1.792-2.432 2.56-2.176zm-19.072 1.024c.683-.341 1.451.341 2.304 2.048.939 1.621 1.494 3.285 1.664 4.992.171 1.621-.042 2.688-.64 3.2-.768.341-1.621-.299-2.56-1.92-.853-1.707-1.365-3.371-1.536-4.992-.17-1.707.086-2.816.768-3.328zm8.576-1.024c.683.597.939 1.707.768 3.328s-.725 3.285-1.664 4.992c-.853 1.621-1.664 2.304-2.432 2.048-.426-.171-.682-.683-.768-1.536s0-1.792.256-2.816a29.75 29.75 0 0 1 .896-2.944c.427-1.024.896-1.835 1.408-2.432.598-.597 1.11-.811 1.536-.64zm1.792-8.704c.768-.256 1.579.469 2.432 2.176.939 1.621 1.494 3.243 1.664 4.864s-.085 2.688-.768 3.2c-.768.341-1.621-.299-2.56-1.92-.853-1.707-1.365-3.371-1.536-4.992-.17-1.707.086-2.816.768-3.328zm8.704-1.024c.598.597.811 1.707.64 3.328s-.725 3.285-1.664 4.992c-.853 1.621-1.664 2.304-2.432 2.048-.597-.597-.81-1.707-.64-3.328s.683-3.243 1.536-4.864c.939-1.707 1.792-2.432 2.56-2.176zm-19.072 1.024c.683-.256 1.451.469 2.304 2.176.939 1.621 1.494 3.243 1.664 4.864s-.042 2.688-.64 3.2c-.768.341-1.621-.299-2.56-1.92-.853-1.707-1.365-3.371-1.536-4.992-.17-1.707.086-2.816.768-3.328zm8.576-1.024c.683.597.939 1.707.768 3.328s-.725 3.285-1.664 4.992c-.853 1.621-1.664 2.304-2.432 2.048-.426-.171-.682-.683-.768-1.536s0-1.792.256-2.816a29.75 29.75 0 0 1 .896-2.944c.427-1.024.896-1.835 1.408-2.432.598-.597 1.11-.811 1.536-.64zm-8.576-8.704c.683-.256 1.451.469 2.304 2.176.939 1.621 1.494 3.243 1.664 4.864s-.042 2.731-.64 3.328c-.768.256-1.621-.427-2.56-2.048-.853-1.707-1.365-3.371-1.536-4.992s.086-2.731.768-3.328zm8.576-.896c.683.512.939 1.579.768 3.2s-.725 3.285-1.664 4.992c-.853 1.621-1.664 2.304-2.432 2.048-.426-.171-.682-.683-.768-1.536s0-1.792.256-2.816a29.75 29.75 0 0 1 .896-2.944c.427-1.024.896-1.835 1.408-2.432.598-.597 1.11-.768 1.536-.512zm-19.072.896c.768-.256 1.579.469 2.432 2.176.939 1.621 1.494 3.243 1.664 4.864s-.085 2.731-.768 3.328c-.768.256-1.621-.427-2.56-2.048-.853-1.707-1.365-3.371-1.536-4.992s.086-2.731.768-3.328zm8.576-.896c.683.512.939 1.579.768 3.2s-.725 3.285-1.664 4.992c-.853 1.621-1.664 2.304-2.432 2.048-.682-.597-.938-1.707-.768-3.328.256-1.621.811-3.243 1.664-4.864.939-1.707 1.75-2.389 2.432-2.048zm1.92-8.832c.683-.256 1.451.469 2.304 2.176.939 1.621 1.494 3.243 1.664 4.864s-.042 2.731-.64 3.328c-.512.171-1.066-.043-1.664-.64-.512-.597-.981-1.365-1.408-2.304l-.896-3.072c-.256-1.024-.341-1.963-.256-2.816s.384-1.365.896-1.536zm8.576-.896c.683.512.939 1.621.768 3.328-.17 1.621-.725 3.243-1.664 4.864-.853 1.621-1.664 2.304-2.432 2.048-.426-.171-.682-.64-.768-1.408-.085-.853 0-1.792.256-2.816a26.38 26.38 0 0 1 .896-3.072c.427-1.024.896-1.792 1.408-2.304.598-.597 1.11-.811 1.536-.64zm-19.072.896c.768-.256 1.579.469 2.432 2.176.939 1.621 1.494 3.243 1.664 4.864s-.085 2.731-.768 3.328c-.426.171-.938-.043-1.536-.64-.512-.597-.981-1.365-1.408-2.304l-.896-3.072c-.256-1.024-.341-1.963-.256-2.816s.342-1.365.768-1.536zm8.576-.896c.683.512.939 1.621.768 3.328-.17 1.621-.725 3.243-1.664 4.864-.853 1.621-1.664 2.304-2.432 2.048-.682-.512-.938-1.579-.768-3.2.256-1.707.811-3.371 1.664-4.992.939-1.707 1.75-2.389 2.432-2.048zm1.92-8.832c.683-.256 1.451.469 2.304 2.176.939 1.621 1.494 3.243 1.664 4.864s-.042 2.731-.64 3.328c-.768.256-1.621-.427-2.56-2.048-.853-1.707-1.365-3.371-1.536-4.992s.086-2.731.768-3.328zm8.576-.896c.683.512.939 1.621.768 3.328-.17 1.621-.725 3.285-1.664 4.992-.853 1.621-1.664 2.261-2.432 1.92-.682-.512-.938-1.579-.768-3.2.171-1.707.683-3.371 1.536-4.992.939-1.707 1.792-2.389 2.56-2.048zm-19.072.896c.768-.256 1.579.469 2.432 2.176.939 1.621 1.494 3.243 1.664 4.864s-.085 2.731-.768 3.328c-.768.256-1.621-.427-2.56-2.048-.853-1.707-1.365-3.371-1.536-4.992s.086-2.731.768-3.328zm8.576-.896c.683.512.939 1.621.768 3.328-.17 1.621-.725 3.285-1.664 4.992-.853 1.621-1.664 2.261-2.432 1.92-.426-.171-.682-.64-.768-1.408-.085-.853 0-1.792.256-2.816.256-1.109.555-2.133.896-3.072.427-1.024.896-1.792 1.408-2.304.598-.597 1.11-.811 1.536-.64zm12.288.896c.768-.256 1.579.469 2.432 2.176.939 1.621 1.494 3.243 1.664 4.864s-.085 2.731-.768 3.328c-.768.256-1.621-.427-2.56-2.048-.853-1.707-1.365-3.371-1.536-4.992s.086-2.731.768-3.328zm8.704-.896c.598.512.811 1.621.64 3.328-.17 1.621-.725 3.285-1.664 4.992-.853 1.621-1.664 2.261-2.432 1.92-.597-.512-.81-1.579-.64-3.2.171-1.707.683-3.371 1.536-4.992.939-1.707 1.792-2.389 2.56-2.048zm-39.936.896c.683-.256 1.451.469 2.304 2.176.939 1.621 1.494 3.243 1.664 4.864s-.085 2.731-.768 3.328c-.682.256-1.493-.427-2.432-2.048-.853-1.707-1.365-3.371-1.536-4.992s.086-2.731.768-3.328zm8.576-.896c.683.512.896 1.621.64 3.328-.17 1.621-.682 3.285-1.536 4.992-.853 1.621-1.664 2.261-2.432 1.92-.682-.512-.938-1.579-.768-3.2.171-1.707.683-3.371 1.536-4.992.939-1.707 1.792-2.389 2.56-2.048zm54.016 49.536c.768-.341 1.579.341 2.432 2.048.854 1.621 1.366 3.285 1.536 4.992.256 1.621.043 2.688-.64 3.2-.768.341-1.621-.299-2.56-1.92-.853-1.707-1.365-3.371-1.536-4.992-.17-1.707.086-2.816.768-3.328zm8.576-1.024c.683.512.939 1.621.768 3.328-.17 1.621-.725 3.285-1.664 4.992-.853 1.621-1.664 2.261-2.432 1.92-.682-.512-.938-1.579-.768-3.2.256-1.621.811-3.243 1.664-4.864.854-1.707 1.664-2.432 2.432-2.176zm-29.44 1.024c.768-.341 1.579.341 2.432 2.048.854 1.621 1.366 3.285 1.536 4.992.171 1.621-.042 2.688-.64 3.2-.768.341-1.621-.299-2.56-1.92-.853-1.707-1.365-3.371-1.536-4.992-.17-1.707.086-2.816.768-3.328zm8.576-1.024c.683.512.939 1.621.768 3.328-.17 1.621-.725 3.285-1.664 4.992-.853 1.621-1.664 2.261-2.432 1.92-.682-.512-.938-1.579-.768-3.2s.683-3.243 1.536-4.864c.939-1.707 1.792-2.432 2.56-2.176zm-19.072 1.024c.768-.341 1.579.341 2.432 2.048.939 1.621 1.494 3.285 1.664 4.992.171 1.621-.085 2.688-.768 3.2-.768.341-1.621-.299-2.56-1.92-.853-1.707-1.365-3.371-1.536-4.992-.17-1.707.086-2.816.768-3.328zm8.704-1.024c.598.512.811 1.621.64 3.328-.17 1.621-.725 3.285-1.664 4.992-.853 1.621-1.664 2.261-2.432 1.92-.597-.512-.81-1.579-.64-3.2s.683-3.243 1.536-4.864c.939-1.707 1.792-2.432 2.56-2.176z" fill="#fff"/><path d="M181.404 88.405c.768-.256 1.579.469 2.432 2.176.939 1.621 1.494 3.243 1.664 4.864s-.085 2.731-.768 3.328c-.768.256-1.578-.427-2.432-2.048-.853-1.707-1.408-3.371-1.664-4.992-.17-1.621.086-2.731.768-3.328zm8.704-.896c.683.512.896 1.579.64 3.2-.17 1.621-.725 3.285-1.664 4.992-.853 1.621-1.621 2.304-2.304 2.048-.682-.597-.938-1.707-.768-3.328s.683-3.243 1.536-4.864c.939-1.707 1.792-2.389 2.56-2.048zm-19.072.896c.768-.256 1.579.469 2.432 2.176.854 1.621 1.366 3.243 1.536 4.864.256 1.621.043 2.731-.64 3.328-.768.256-1.621-.427-2.56-2.048-.853-1.707-1.365-3.371-1.536-4.992s.086-2.731.768-3.328zm8.576-.896c.683.512.939 1.579.768 3.2s-.725 3.285-1.664 4.992c-.853 1.621-1.664 2.304-2.432 2.048-.682-.597-.938-1.707-.768-3.328.256-1.621.811-3.243 1.664-4.864.854-1.707 1.664-2.389 2.432-2.048zm-19.072.896c.768-.256 1.579.469 2.432 2.176.939 1.621 1.494 3.243 1.664 4.864s-.085 2.731-.768 3.328c-.768.256-1.578-.427-2.432-2.048-.853-1.707-1.408-3.371-1.664-4.992-.17-1.621.086-2.731.768-3.328zm8.704-.896c.598.512.811 1.579.64 3.2s-.725 3.285-1.664 4.992c-.853 1.621-1.664 2.304-2.432 2.048-.597-.597-.81-1.707-.64-3.328s.683-3.243 1.536-4.864c.939-1.707 1.792-2.389 2.56-2.048zm-19.072.896c.768-.256 1.579.469 2.432 2.176.854 1.621 1.366 3.243 1.536 4.864s-.042 2.731-.64 3.328c-.768.256-1.621-.427-2.56-2.048-.853-1.707-1.365-3.371-1.536-4.992s.086-2.731.768-3.328zm8.576-.896c.683.512.939 1.579.768 3.2s-.725 3.285-1.664 4.992c-.853 1.621-1.664 2.304-2.432 2.048-.682-.597-.938-1.707-.768-3.328s.683-3.243 1.536-4.864c.939-1.707 1.792-2.389 2.56-2.048zm-19.072.896c.768-.256 1.579.469 2.432 2.176.939 1.621 1.494 3.243 1.664 4.864s-.085 2.731-.768 3.328c-.768.256-1.621-.427-2.56-2.048-.853-1.707-1.365-3.371-1.536-4.992s.086-2.731.768-3.328zm8.576-.896c.683.512.939 1.579.768 3.2s-.725 3.285-1.664 4.992c-.853 1.621-1.664 2.304-2.432 2.048-.597-.597-.81-1.707-.64-3.328s.683-3.243 1.536-4.864c.939-1.707 1.75-2.389 2.432-2.048zm-18.944.896c.683-.256 1.451.469 2.304 2.176.939 1.621 1.494 3.243 1.664 4.864s-.042 2.731-.64 3.328c-.768.256-1.621-.427-2.56-2.048-.853-1.707-1.365-3.371-1.536-4.992s.086-2.731.768-3.328zm8.576-.896c.683.512.939 1.579.768 3.2s-.725 3.285-1.664 4.992c-.853 1.621-1.664 2.304-2.432 2.048-.682-.597-.938-1.707-.768-3.328s.683-3.243 1.536-4.864c.939-1.707 1.792-2.389 2.56-2.048zm-19.072.896c.768-.256 1.579.469 2.432 2.176.939 1.621 1.494 3.243 1.664 4.864s-.085 2.731-.768 3.328c-.768.256-1.621-.427-2.56-2.048-.853-1.707-1.365-3.371-1.536-4.992s.086-2.731.768-3.328zm8.576-.896c.683.512.939 1.579.768 3.2s-.725 3.285-1.664 4.992c-.853 1.621-1.664 2.304-2.432 2.048-.682-.597-.938-1.707-.768-3.328.256-1.621.811-3.243 1.664-4.864.939-1.707 1.75-2.389 2.432-2.048zm-18.944.896c.683-.256 1.451.469 2.304 2.176.939 1.621 1.494 3.243 1.664 4.864s-.085 2.731-.768 3.328c-.682.256-1.493-.427-2.432-2.048-.853-1.707-1.365-3.371-1.536-4.992s.086-2.731.768-3.328zm8.576-.896c.427.171.683.683.768 1.536.086.768 0 1.664-.256 2.688s-.597 2.048-1.024 3.072c-.341.939-.81 1.707-1.408 2.304-.512.597-.981.811-1.408.64-.341-.171-.597-.469-.768-.896-.085-.512-.128-1.067-.128-1.664l.384-2.176a16.25 16.25 0 0 1 .64-2.176c.342-.683.683-1.28 1.024-1.792.342-.597.683-1.024 1.024-1.28.427-.341.811-.427 1.152-.256zm64.384-8.832c.768-.256 1.579.469 2.432 2.176.939 1.621 1.494 3.243 1.664 4.864s-.085 2.731-.768 3.328c-.768.256-1.578-.427-2.432-2.048-.853-1.707-1.408-3.371-1.664-4.992-.17-1.621.086-2.731.768-3.328zm8.704-.896c.683.512.896 1.621.64 3.328-.17 1.621-.725 3.243-1.664 4.864-.853 1.621-1.621 2.304-2.304 2.048-.682-.512-.938-1.579-.768-3.2.171-1.707.683-3.371 1.536-4.992.939-1.707 1.792-2.389 2.56-2.048zm-60.8.896c.683-.256 1.451.469 2.304 2.176.939 1.621 1.494 3.243 1.664 4.864s-.042 2.731-.64 3.328c-.768.256-1.621-.427-2.56-2.048-.853-1.707-1.365-3.371-1.536-4.992s.086-2.731.768-3.328zm8.576-.896c.683.512.939 1.621.768 3.328-.17 1.621-.725 3.243-1.664 4.864-.853 1.621-1.664 2.304-2.432 2.048-.682-.512-.938-1.579-.768-3.2.171-1.707.683-3.371 1.536-4.992.939-1.707 1.792-2.389 2.56-2.048zm-19.072.896c.768-.256 1.579.469 2.432 2.176.939 1.621 1.494 3.243 1.664 4.864s-.085 2.731-.768 3.328c-.768.256-1.621-.427-2.56-2.048-.853-1.707-1.365-3.371-1.536-4.992s.086-2.731.768-3.328zm8.576-.896c.683.512.939 1.621.768 3.328-.17 1.621-.725 3.243-1.664 4.864-.853 1.621-1.664 2.304-2.432 2.048-.682-.512-.938-1.579-.768-3.2.256-1.707.811-3.371 1.664-4.992.939-1.707 1.75-2.389 2.432-2.048zm53.248-7.296c.086-.853.342-1.365.768-1.536.512-.171 1.024.043 1.536.64s.982 1.408 1.408 2.432a17.12 17.12 0 0 1 1.024 2.944c.256 1.024.342 1.963.256 2.816s-.384 1.365-.896 1.536c-.426.171-.938-.043-1.536-.64-.512-.597-.981-1.365-1.408-2.304l-.896-3.072c-.256-1.024-.341-1.963-.256-2.816zm9.472-2.432c.683.512.896 1.621.64 3.328-.17 1.621-.725 3.285-1.664 4.992-.853 1.621-1.621 2.261-2.304 1.92-.682-.512-.938-1.579-.768-3.2.171-1.707.683-3.371 1.536-4.992.939-1.707 1.792-2.389 2.56-2.048zm-61.696 2.432c.086-.853.342-1.365.768-1.536.512-.171 1.024.043 1.536.64.598.597 1.067 1.408 1.408 2.432a17.12 17.12 0 0 1 1.024 2.944c.256 1.024.342 1.963.256 2.816s-.384 1.365-.896 1.536c-.426.171-.896-.043-1.408-.64s-.981-1.365-1.408-2.304a21.7 21.7 0 0 1-1.024-3.072c-.256-1.024-.341-1.963-.256-2.816zm9.472-2.432c.683.512.939 1.621.768 3.328-.17 1.621-.725 3.285-1.664 4.992-.853 1.621-1.664 2.261-2.432 1.92-.682-.512-.938-1.579-.768-3.2.171-1.707.683-3.371 1.536-4.992.939-1.707 1.792-2.389 2.56-2.048zm-19.072.896c.342-.085.683.043 1.024.384.427.256.811.683 1.152 1.28.342.512.64 1.109.896 1.792s.47 1.408.64 2.176c.256.768.384 1.493.384 2.176.086.597.043 1.152-.128 1.664-.085.427-.298.725-.64.896-.426.171-.938-.043-1.536-.64-.512-.597-.981-1.365-1.408-2.304l-.896-3.072c-.256-1.024-.341-1.963-.256-2.816s.342-1.365.768-1.536zm8.576-.896c.683.512.939 1.621.768 3.328-.17 1.621-.725 3.285-1.664 4.992-.853 1.621-1.664 2.261-2.432 1.92-.682-.512-.938-1.579-.768-3.2.256-1.707.811-3.371 1.664-4.992.939-1.707 1.75-2.389 2.432-2.048zm1.92-8.704c.683-.341 1.451.341 2.304 2.048.939 1.621 1.494 3.285 1.664 4.992.171 1.621-.042 2.688-.64 3.2-.768.256-1.621-.427-2.56-2.048-.853-1.707-1.365-3.371-1.536-4.992s.086-2.688.768-3.2zm8.576-1.024c.683.512.939 1.621.768 3.328-.17 1.621-.725 3.285-1.664 4.992-.853 1.621-1.664 2.261-2.432 1.92-.682-.512-.938-1.579-.768-3.2.171-1.707.683-3.371 1.536-4.992.939-1.621 1.792-2.304 2.56-2.048zm-19.072 1.024c.768-.341 1.579.341 2.432 2.048.939 1.621 1.494 3.285 1.664 4.992.171 1.621-.085 2.688-.768 3.2-.768.256-1.621-.427-2.56-2.048-.853-1.707-1.365-3.371-1.536-4.992s.086-2.688.768-3.2zm8.576-1.024c.683.512.939 1.621.768 3.328-.17 1.621-.725 3.285-1.664 4.992-.853 1.621-1.664 2.261-2.432 1.92-.682-.512-.938-1.579-.768-3.2.256-1.707.811-3.371 1.664-4.992.939-1.621 1.75-2.304 2.432-2.048zm33.152-8.704c.768-.341 1.579.341 2.432 2.048.939 1.621 1.494 3.285 1.664 4.992.171 1.621-.085 2.688-.768 3.2-.768.341-1.578-.299-2.432-1.92-.853-1.707-1.408-3.371-1.664-4.992-.17-1.707.086-2.816.768-3.328zm8.704-1.024c.598.512.811 1.621.64 3.328-.17 1.621-.725 3.285-1.664 4.992-.853 1.621-1.664 2.261-2.432 1.92-.597-.512-.81-1.579-.64-3.2s.683-3.243 1.536-4.864c.939-1.707 1.792-2.432 2.56-2.176zm-39.936 1.024c.683-.341 1.451.341 2.304 2.048.939 1.621 1.494 3.285 1.664 4.992.171 1.621-.042 2.688-.64 3.2-.768.341-1.621-.299-2.56-1.92-.853-1.707-1.365-3.371-1.536-4.992-.17-1.707.086-2.816.768-3.328zm8.576-1.024c.683.512.939 1.621.768 3.328-.17 1.621-.725 3.285-1.664 4.992-.853 1.621-1.664 2.261-2.432 1.92-.682-.512-.938-1.579-.768-3.2s.683-3.243 1.536-4.864c.939-1.707 1.792-2.432 2.56-2.176zm-19.072 1.024c.768-.341 1.579.341 2.432 2.048.939 1.621 1.494 3.285 1.664 4.992.171 1.621-.085 2.688-.768 3.2-.768.341-1.621-.299-2.56-1.92-.853-1.707-1.365-3.371-1.536-4.992-.17-1.707.086-2.816.768-3.328zm8.576-1.024c.683.512.939 1.621.768 3.328-.17 1.621-.725 3.285-1.664 4.992-.853 1.621-1.664 2.261-2.432 1.92-.682-.512-.938-1.579-.768-3.2.256-1.621.811-3.243 1.664-4.864.939-1.707 1.75-2.432 2.432-2.176zm33.152-8.704c.768-.341 1.579.341 2.432 2.048.939 1.621 1.494 3.285 1.664 4.992.171 1.621-.085 2.688-.768 3.2-.768.341-1.578-.299-2.432-1.92-.853-1.707-1.408-3.371-1.664-4.992-.17-1.707.086-2.816.768-3.328zm8.704-1.024c.683.597.896 1.707.64 3.328-.17 1.621-.725 3.285-1.664 4.992-.853 1.621-1.664 2.304-2.432 2.048-.597-.597-.81-1.707-.64-3.328s.683-3.243 1.536-4.864c.939-1.707 1.792-2.432 2.56-2.176zm-19.072 1.024c.768-.341 1.579.341 2.432 2.048.854 1.621 1.366 3.285 1.536 4.992.171 1.621-.042 2.688-.64 3.2-.768.341-1.621-.299-2.56-1.92-.853-1.707-1.365-3.371-1.536-4.992-.17-1.707.086-2.816.768-3.328zm8.576-1.024c.683.597.939 1.707.768 3.328s-.725 3.285-1.664 4.992c-.853 1.621-1.664 2.304-2.432 2.048-.682-.597-.938-1.707-.768-3.328s.683-3.243 1.536-4.864c.939-1.707 1.792-2.432 2.56-2.176zm-19.072 1.024c.768-.341 1.579.341 2.432 2.048.939 1.621 1.494 3.285 1.664 4.992.171 1.621-.085 2.688-.768 3.2-.768.341-1.621-.299-2.56-1.92-.853-1.707-1.365-3.371-1.536-4.992-.17-1.707.086-2.816.768-3.328zm8.704-1.024c.598.597.811 1.707.64 3.328s-.725 3.285-1.664 4.992c-.853 1.621-1.664 2.304-2.432 2.048-.597-.597-.81-1.707-.64-3.328s.683-3.243 1.536-4.864c.939-1.707 1.792-2.432 2.56-2.176zm-19.072 1.024c.683-.341 1.451.341 2.304 2.048.939 1.621 1.494 3.285 1.664 4.992.171 1.621-.042 2.688-.64 3.2-.768.341-1.621-.299-2.56-1.92-.853-1.707-1.365-3.371-1.536-4.992-.17-1.707.086-2.816.768-3.328zm8.576-1.024c.683.597.939 1.707.768 3.328s-.725 3.285-1.664 4.992c-.853 1.621-1.664 2.304-2.432 2.048-.682-.597-.938-1.707-.768-3.328s.683-3.243 1.536-4.864c.939-1.707 1.792-2.432 2.56-2.176zm-19.072 1.024c.768-.341 1.579.341 2.432 2.048.939 1.621 1.494 3.285 1.664 4.992.171 1.621-.085 2.688-.768 3.2-.768.341-1.621-.299-2.56-1.92-.853-1.707-1.365-3.371-1.536-4.992-.17-1.707.086-2.816.768-3.328zm8.576-1.024c.683.597.939 1.707.768 3.328s-.725 3.285-1.664 4.992c-.853 1.621-1.664 2.304-2.432 2.048-.682-.597-.938-1.707-.768-3.328.256-1.621.811-3.243 1.664-4.864.939-1.707 1.75-2.432 2.432-2.176zm33.152-8.704c.768-.256 1.579.469 2.432 2.176.939 1.621 1.494 3.243 1.664 4.864s-.085 2.688-.768 3.2c-.768.341-1.578-.299-2.432-1.92-.853-1.707-1.408-3.371-1.664-4.992-.17-1.707.086-2.816.768-3.328zm8.704-1.024c.683.597.896 1.707.64 3.328-.17 1.621-.725 3.285-1.664 4.992-.853 1.621-1.621 2.304-2.304 2.048-.682-.597-.938-1.707-.768-3.328s.683-3.243 1.536-4.864c.939-1.707 1.792-2.432 2.56-2.176zm-39.936 1.024c.683-.256 1.451.469 2.304 2.176.939 1.621 1.494 3.243 1.664 4.864s-.042 2.688-.64 3.2c-.768.341-1.621-.299-2.56-1.92-.853-1.707-1.365-3.371-1.536-4.992-.17-1.707.086-2.816.768-3.328zm8.576-1.024c.683.597.939 1.707.768 3.328s-.725 3.285-1.664 4.992c-.853 1.621-1.664 2.304-2.432 2.048-.682-.597-.938-1.707-.768-3.328s.683-3.243 1.536-4.864c.939-1.707 1.792-2.432 2.56-2.176zm-19.072 1.024c.768-.256 1.579.469 2.432 2.176.939 1.621 1.494 3.243 1.664 4.864s-.085 2.688-.768 3.2c-.768.341-1.621-.299-2.56-1.92-.853-1.707-1.365-3.371-1.536-4.992-.17-1.707.086-2.816.768-3.328zm8.576-1.024c.683.597.939 1.707.768 3.328s-.725 3.285-1.664 4.992c-.853 1.621-1.664 2.304-2.432 2.048-.682-.597-.938-1.707-.768-3.328.256-1.621.811-3.243 1.664-4.864.939-1.707 1.75-2.432 2.432-2.176zm1.92-8.704c.683-.256 1.451.469 2.304 2.176.939 1.621 1.494 3.243 1.664 4.864s-.042 2.731-.64 3.328c-.768.256-1.621-.427-2.56-2.048-.853-1.707-1.365-3.371-1.536-4.992s.086-2.731.768-3.328zm8.576-.896c.683.512.939 1.579.768 3.2s-.725 3.285-1.664 4.992c-.853 1.621-1.664 2.304-2.432 2.048-.682-.597-.938-1.707-.768-3.328s.683-3.243 1.536-4.864c.939-1.707 1.792-2.389 2.56-2.048zm-19.072.896c.768-.256 1.579.469 2.432 2.176.939 1.621 1.494 3.243 1.664 4.864s-.085 2.731-.768 3.328c-.768.256-1.621-.427-2.56-2.048-.853-1.707-1.365-3.371-1.536-4.992s.086-2.731.768-3.328zm8.576-.896c.683.512.939 1.579.768 3.2s-.725 3.285-1.664 4.992c-.853 1.621-1.664 2.304-2.432 2.048-.682-.597-.938-1.707-.768-3.328.256-1.621.811-3.243 1.664-4.864.939-1.707 1.75-2.389 2.432-2.048zm54.016-8.832c.512-.171 1.024.043 1.536.64s.982 1.408 1.408 2.432a17.12 17.12 0 0 1 1.024 2.944c.256 1.024.342 1.963.256 2.816s-.384 1.365-.896 1.536c-.768.256-1.578-.427-2.432-2.048-.853-1.707-1.408-3.371-1.664-4.992-.17-1.621.086-2.731.768-3.328zm8.704-.896c.683.512.896 1.621.64 3.328-.17 1.621-.725 3.243-1.664 4.864-.853 1.621-1.621 2.304-2.304 2.048-.682-.512-.938-1.579-.768-3.2.171-1.707.683-3.371 1.536-4.992.939-1.707 1.792-2.389 2.56-2.048zm-60.8.896c.427-.171.896.043 1.408.64.598.597 1.067 1.408 1.408 2.432a17.12 17.12 0 0 1 1.024 2.944c.256 1.024.342 1.963.256 2.816s-.341 1.365-.768 1.536c-.768.256-1.621-.427-2.56-2.048-.853-1.707-1.365-3.371-1.536-4.992s.086-2.731.768-3.328zm8.576-.896c.683.512.939 1.621.768 3.328-.17 1.621-.725 3.243-1.664 4.864-.853 1.621-1.664 2.304-2.432 2.048-.682-.512-.938-1.579-.768-3.2.171-1.707.683-3.371 1.536-4.992.939-1.707 1.792-2.389 2.56-2.048zm-19.072.896c.427-.171.896.043 1.408.64.598.597 1.067 1.408 1.408 2.432a17.12 17.12 0 0 1 1.024 2.944c.256 1.024.342 1.963.256 2.816s-.341 1.365-.768 1.536c-.768.256-1.621-.427-2.56-2.048-.853-1.707-1.365-3.371-1.536-4.992s.086-2.731.768-3.328zm8.576-.896c.683.512.939 1.621.768 3.328-.17 1.621-.725 3.243-1.664 4.864-.853 1.621-1.664 2.304-2.432 2.048-.682-.512-.938-1.579-.768-3.2.256-1.707.811-3.371 1.664-4.992.939-1.707 1.75-2.389 2.432-2.048zM181.404.981c.768-.256 1.579.469 2.432 2.176.939 1.621 1.494 3.243 1.664 4.864s-.085 2.731-.768 3.328c-.768.256-1.578-.427-2.432-2.048-.853-1.707-1.408-3.371-1.664-4.992-.17-1.621.086-2.731.768-3.328zm5.376 9.344c-.512-.171-.81-.64-.896-1.408-.085-.853 0-1.792.256-2.816.256-1.109.598-2.133 1.024-3.072.427-1.024.896-1.792 1.408-2.304.512-.597 1.024-.811 1.536-.64.683.512.896 1.621.64 3.328-.17 1.621-.725 3.285-1.664 4.992-.853 1.621-1.621 2.261-2.304 1.92zM171.036.981c.768-.256 1.579.469 2.432 2.176.854 1.621 1.366 3.243 1.536 4.864.256 1.621.043 2.731-.64 3.328-.768.256-1.621-.427-2.56-2.048-.853-1.707-1.365-3.371-1.536-4.992s.086-2.731.768-3.328zm8.576-.896c.683.512.939 1.621.768 3.328-.17 1.621-.725 3.285-1.664 4.992-.853 1.621-1.664 2.261-2.432 1.92-.682-.512-.938-1.579-.768-3.2.256-1.707.811-3.371 1.664-4.992.854-1.707 1.664-2.389 2.432-2.048zM160.54.981c.768-.256 1.579.469 2.432 2.176.939 1.621 1.494 3.243 1.664 4.864s-.085 2.731-.768 3.328c-.768.256-1.578-.427-2.432-2.048-.853-1.707-1.408-3.371-1.664-4.992-.17-1.621.086-2.731.768-3.328zm8.704-.896c.683.512.896 1.621.64 3.328-.17 1.621-.725 3.285-1.664 4.992-.853 1.621-1.621 2.261-2.304 1.92-.682-.512-.938-1.579-.768-3.2.171-1.707.683-3.371 1.536-4.992.939-1.707 1.792-2.389 2.56-2.048zm-19.072.896c.768-.256 1.579.469 2.432 2.176.854 1.621 1.366 3.243 1.536 4.864s-.042 2.731-.64 3.328c-.768.256-1.621-.427-2.56-2.048-.853-1.707-1.365-3.371-1.536-4.992s.086-2.731.768-3.328zm8.576-.896c.683.512.939 1.621.768 3.328-.17 1.621-.725 3.285-1.664 4.992-.853 1.621-1.664 2.261-2.432 1.92-.682-.512-.938-1.579-.768-3.2.171-1.707.683-3.371 1.536-4.992.939-1.707 1.792-2.389 2.56-2.048zm-19.072.896c.768-.256 1.579.469 2.432 2.176.939 1.621 1.494 3.243 1.664 4.864s-.085 2.731-.768 3.328c-.768.256-1.621-.427-2.56-2.048-.853-1.707-1.365-3.371-1.536-4.992s.086-2.731.768-3.328zm8.704-.896c.598.512.811 1.621.64 3.328-.17 1.621-.725 3.285-1.664 4.992-.853 1.621-1.664 2.261-2.432 1.92-.597-.512-.81-1.579-.64-3.2.171-1.707.683-3.371 1.536-4.992.939-1.707 1.792-2.389 2.56-2.048zm-19.072.896c.683-.256 1.451.469 2.304 2.176.939 1.621 1.494 3.243 1.664 4.864s-.042 2.731-.64 3.328c-.768.256-1.621-.427-2.56-2.048-.853-1.707-1.365-3.371-1.536-4.992s.086-2.731.768-3.328zm8.576-.896c.683.512.939 1.621.768 3.328-.17 1.621-.725 3.285-1.664 4.992-.853 1.621-1.664 2.261-2.432 1.92-.682-.512-.938-1.579-.768-3.2.171-1.707.683-3.371 1.536-4.992.939-1.707 1.792-2.389 2.56-2.048zm-19.072.896c.768-.256 1.579.469 2.432 2.176.939 1.621 1.494 3.243 1.664 4.864s-.085 2.731-.768 3.328c-.768.256-1.621-.427-2.56-2.048-.853-1.707-1.365-3.371-1.536-4.992s.086-2.731.768-3.328zm8.576-.896c.683.512.939 1.621.768 3.328-.17 1.621-.725 3.285-1.664 4.992-.853 1.621-1.664 2.261-2.432 1.92-.682-.512-.938-1.579-.768-3.2.256-1.707.811-3.371 1.664-4.992.939-1.707 1.75-2.389 2.432-2.048zm-18.944.896c.683-.256 1.451.469 2.304 2.176.939 1.621 1.494 3.243 1.664 4.864s-.085 2.731-.768 3.328c-.682.256-1.493-.427-2.432-2.048-.853-1.707-1.365-3.371-1.536-4.992s.086-2.731.768-3.328zm8.576-.896c.342.085.555.384.64.896.171.512.214 1.109.128 1.792l-.384 2.048c-.17.768-.426 1.493-.768 2.176-.256.683-.554 1.323-.896 1.92-.256.512-.597.939-1.024 1.28-.341.256-.682.299-1.024.128-1.28-.427-1.322-2.432-.128-6.016 1.195-2.987 2.347-4.395 3.456-4.224z" fill="#fff"/><path d="M11.187 88.405c.768-.256 1.579.469 2.432 2.176.939 1.621 1.493 3.243 1.664 4.864s-.085 2.731-.768 3.328c-.768.256-1.621-.427-2.56-2.048-.853-1.707-1.365-3.371-1.536-4.992s.085-2.731.768-3.328zm8.576-.896c.683.512.939 1.579.768 3.2s-.725 3.285-1.664 4.992c-.853 1.621-1.664 2.304-2.432 2.048-.427-.171-.683-.683-.768-1.536s0-1.792.256-2.816a29.67 29.67 0 0 1 .896-2.944c.427-1.024.896-1.835 1.408-2.432.597-.597 1.109-.768 1.536-.512zm-18.944.896c.683-.256 1.451.469 2.304 2.176.939 1.621 1.493 3.243 1.664 4.864s-.085 2.731-.768 3.328c-.683.256-1.493-.427-2.432-2.048C.734 95.019.222 93.355.051 91.733s.085-2.731.768-3.328zm8.576-.896c.683.512.896 1.579.64 3.2-.171 1.621-.683 3.285-1.536 4.992-.853 1.621-1.664 2.304-2.432 2.048-.683-.597-.939-1.707-.768-3.328s.683-3.243 1.536-4.864c.939-1.707 1.792-2.389 2.56-2.048zm1.792-8.832c.768-.256 1.579.469 2.432 2.176.939 1.621 1.493 3.243 1.664 4.864s-.085 2.731-.768 3.328c-.768.256-1.621-.427-2.56-2.048-.853-1.707-1.365-3.371-1.536-4.992s.085-2.731.768-3.328zm8.576-.896c.683.512.939 1.621.768 3.328-.171 1.621-.725 3.243-1.664 4.864-.853 1.621-1.664 2.304-2.432 2.048-.341-.085-.597-.384-.768-.896-.085-.512-.085-1.067 0-1.664.085-.683.213-1.408.384-2.176s.384-1.493.64-2.176c.341-.683.683-1.28 1.024-1.792.341-.597.683-1.024 1.024-1.28.427-.341.768-.427 1.024-.256zm-8.576-8.832c.768-.256 1.579.469 2.432 2.176.939 1.621 1.493 3.243 1.664 4.864s-.085 2.731-.768 3.328c-.427.171-.939-.043-1.536-.64-.512-.597-.981-1.365-1.408-2.304l-.896-3.072c-.256-1.024-.341-1.963-.256-2.816s.341-1.365.768-1.536zm8.576-.896c.683.512.939 1.621.768 3.328-.171 1.621-.725 3.285-1.664 4.992-.853 1.621-1.664 2.261-2.432 1.92-.427-.171-.683-.64-.768-1.408-.085-.853 0-1.792.256-2.816.256-1.109.555-2.133.896-3.072.427-1.024.896-1.792 1.408-2.304.597-.597 1.109-.811 1.536-.64zm-8.576-8.704c.427-.171.896.043 1.408.64.597.512 1.067 1.28 1.408 2.304a16.22 16.22 0 0 1 1.024 3.072c.256 1.024.341 1.963.256 2.816-.085.768-.341 1.237-.768 1.408-.768.256-1.621-.427-2.56-2.048-.853-1.707-1.365-3.371-1.536-4.992s.085-2.688.768-3.2zm8.576-1.024c.683.512.939 1.621.768 3.328-.171 1.621-.725 3.285-1.664 4.992-.853 1.621-1.664 2.261-2.432 1.92-.427-.171-.683-.64-.768-1.408-.085-.853 0-1.792.256-2.816a29.67 29.67 0 0 1 .896-2.944c.427-1.024.896-1.835 1.408-2.432.597-.597 1.109-.811 1.536-.64zm-8.576-8.704c.768-.341 1.579.341 2.432 2.048.939 1.621 1.493 3.285 1.664 4.992.171 1.621-.085 2.688-.768 3.2-.768.341-1.621-.299-2.56-1.92-.853-1.707-1.365-3.371-1.536-4.992-.171-1.707.085-2.816.768-3.328zm8.576-1.024c.683.512.939 1.621.768 3.328-.171 1.621-.725 3.285-1.664 4.992-.853 1.621-1.664 2.261-2.432 1.92-.427-.171-.683-.64-.768-1.408-.085-.853 0-1.792.256-2.816a29.67 29.67 0 0 1 .896-2.944c.427-1.024.896-1.835 1.408-2.432.597-.597 1.109-.811 1.536-.64zm-8.576-8.704c.768-.341 1.579.341 2.432 2.048.939 1.621 1.493 3.285 1.664 4.992.171 1.621-.085 2.688-.768 3.2-.427.171-.939 0-1.536-.512-.512-.597-.981-1.365-1.408-2.304l-.896-3.072c-.256-1.109-.341-2.048-.256-2.816.085-.853.341-1.365.768-1.536zm8.576-1.024c.683.597.939 1.707.768 3.328s-.725 3.285-1.664 4.992c-.853 1.621-1.664 2.304-2.432 2.048-.427-.171-.683-.683-.768-1.536s0-1.792.256-2.816a29.67 29.67 0 0 1 .896-2.944c.427-1.024.896-1.835 1.408-2.432.597-.597 1.109-.811 1.536-.64zm-8.576-8.704c.768-.256 1.579.469 2.432 2.176.939 1.621 1.493 3.243 1.664 4.864s-.085 2.688-.768 3.2c-.768.341-1.621-.299-2.56-1.92-.853-1.707-1.365-3.371-1.536-4.992-.171-1.707.085-2.816.768-3.328zm8.576-1.024c.683.597.939 1.707.768 3.328s-.725 3.285-1.664 4.992c-.853 1.621-1.664 2.304-2.432 2.048-.427-.171-.683-.683-.768-1.536s0-1.792.256-2.816a29.67 29.67 0 0 1 .896-2.944c.427-1.024.896-1.835 1.408-2.432.597-.597 1.109-.811 1.536-.64zm1.92 59.264c.683-.256 1.451.469 2.304 2.176.939 1.621 1.493 3.243 1.664 4.864s-.043 2.731-.64 3.328c-.768.256-1.621-.427-2.56-2.048-.853-1.707-1.365-3.371-1.536-4.992s.085-2.731.768-3.328zm8.576-.896c.683.512.939 1.579.768 3.2s-.725 3.285-1.664 4.992c-.853 1.621-1.664 2.304-2.432 2.048-.427-.171-.683-.683-.768-1.536s0-1.792.256-2.816a29.67 29.67 0 0 1 .896-2.944c.427-1.024.896-1.835 1.408-2.432.597-.597 1.109-.768 1.536-.512zm22.656-28.16c.512-.171 1.024.043 1.536.64.512.512.939 1.28 1.28 2.304a16.22 16.22 0 0 1 1.024 3.072c.256 1.024.341 1.963.256 2.816-.085.768-.341 1.237-.768 1.408-.768.256-1.579-.427-2.432-2.048-.853-1.707-1.408-3.371-1.664-4.992-.171-1.621.085-2.688.768-3.2zm8.704-1.024c.597.512.811 1.621.64 3.328-.171 1.621-.725 3.285-1.664 4.992-.853 1.621-1.664 2.261-2.432 1.92-.597-.512-.811-1.579-.64-3.2.171-1.707.683-3.371 1.536-4.992.939-1.621 1.792-2.304 2.56-2.048zm-8.704-8.704c.768-.341 1.579.341 2.432 2.048.939 1.621 1.493 3.285 1.664 4.992.171 1.621-.085 2.688-.768 3.2-.768.341-1.579-.299-2.432-1.92-.853-1.707-1.408-3.371-1.664-4.992-.171-1.707.085-2.816.768-3.328zm8.704-1.024c.597.512.811 1.621.64 3.328-.171 1.621-.725 3.285-1.664 4.992-.853 1.621-1.664 2.261-2.432 1.92-.597-.512-.811-1.579-.64-3.2s.683-3.243 1.536-4.864c.939-1.707 1.792-2.432 2.56-2.176zm-19.072 1.024c.768-.341 1.579.341 2.432 2.048.853 1.621 1.365 3.285 1.536 4.992.171 1.621-.043 2.688-.64 3.2-.768.341-1.621-.299-2.56-1.92-.853-1.707-1.365-3.371-1.536-4.992-.171-1.707.085-2.816.768-3.328zm8.576-1.024c.683.512.939 1.621.768 3.328-.171 1.621-.725 3.285-1.664 4.992-.853 1.621-1.664 2.261-2.432 1.92-.683-.512-.939-1.579-.768-3.2s.683-3.243 1.536-4.864c.939-1.707 1.792-2.432 2.56-2.176zm1.792-8.704c.768-.341 1.579.341 2.432 2.048.939 1.621 1.493 3.285 1.664 4.992.171 1.621-.085 2.688-.768 3.2-.427.171-.939 0-1.536-.512-.512-.597-.981-1.365-1.408-2.304l-.896-3.072c-.256-1.109-.341-2.048-.256-2.816.085-.853.341-1.365.768-1.536zm8.704-1.024c.597.597.811 1.707.64 3.328s-.725 3.285-1.664 4.992c-.853 1.621-1.664 2.304-2.432 2.048-.597-.597-.811-1.707-.64-3.328s.683-3.243 1.536-4.864c.939-1.707 1.792-2.432 2.56-2.176zm-19.072 1.024c.768-.341 1.579.341 2.432 2.048.853 1.621 1.365 3.285 1.536 4.992.171 1.621-.043 2.688-.64 3.2-.512.171-1.024 0-1.536-.512-.512-.597-.981-1.365-1.408-2.304a21.61 21.61 0 0 1-1.024-3.072c-.256-1.109-.341-2.048-.256-2.816.085-.853.384-1.365.896-1.536zm8.576-1.024c.683.597.939 1.707.768 3.328s-.725 3.285-1.664 4.992c-.853 1.621-1.664 2.304-2.432 2.048-.683-.597-.939-1.707-.768-3.328s.683-3.243 1.536-4.864c.939-1.707 1.792-2.432 2.56-2.176zm-19.072 1.024c.768-.341 1.579.341 2.432 2.048.939 1.621 1.493 3.285 1.664 4.992.171 1.621-.085 2.688-.768 3.2-.427.171-.939 0-1.536-.512-.512-.597-.981-1.365-1.408-2.304l-.896-3.072c-.256-1.109-.341-2.048-.256-2.816.085-.853.341-1.365.768-1.536zm8.576-1.024c.683.597.939 1.707.768 3.328s-.725 3.285-1.664 4.992c-.853 1.621-1.664 2.304-2.432 2.048-.597-.597-.811-1.707-.64-3.328s.683-3.243 1.536-4.864c.939-1.707 1.749-2.432 2.432-2.176zm1.92-8.704c.768-.256 1.579.469 2.432 2.176.853 1.621 1.365 3.243 1.536 4.864s-.043 2.688-.64 3.2c-.768.341-1.621-.299-2.56-1.92-.853-1.707-1.365-3.371-1.536-4.992-.171-1.707.085-2.816.768-3.328zm8.576-1.024c.683.597.939 1.707.768 3.328s-.725 3.285-1.664 4.992c-.853 1.621-1.664 2.304-2.432 2.048-.683-.597-.939-1.707-.768-3.328s.683-3.243 1.536-4.864c.939-1.707 1.792-2.432 2.56-2.176zm-19.072 1.024c.768-.256 1.579.469 2.432 2.176.939 1.621 1.493 3.243 1.664 4.864s-.085 2.688-.768 3.2c-.768.341-1.621-.299-2.56-1.92-.853-1.707-1.365-3.371-1.536-4.992-.171-1.707.085-2.816.768-3.328zm8.576-1.024c.683.597.939 1.707.768 3.328s-.725 3.285-1.664 4.992c-.853 1.621-1.664 2.304-2.432 2.048-.597-.597-.811-1.707-.64-3.328s.683-3.243 1.536-4.864c.939-1.707 1.749-2.432 2.432-2.176zm-18.944 1.024c.683-.256 1.451.469 2.304 2.176.939 1.621 1.493 3.243 1.664 4.864s-.043 2.688-.64 3.2c-.768.341-1.621-.299-2.56-1.92-.853-1.707-1.365-3.371-1.536-4.992-.171-1.707.085-2.816.768-3.328zm8.576-1.024c.683.597.939 1.707.768 3.328s-.725 3.285-1.664 4.992c-.853 1.621-1.664 2.304-2.432 2.048-.427-.171-.683-.683-.768-1.536s0-1.792.256-2.816a29.67 29.67 0 0 1 .896-2.944c.427-1.024.896-1.835 1.408-2.432.597-.597 1.109-.811 1.536-.64zm54.016 59.264c.768-.256 1.579.469 2.432 2.176.853 1.621 1.365 3.243 1.536 4.864.256 1.621.043 2.731-.64 3.328-.768.256-1.621-.427-2.56-2.048-.853-1.707-1.365-3.371-1.536-4.992s.085-2.731.768-3.328zm8.576-.896c.683.512.939 1.579.768 3.2s-.725 3.285-1.664 4.992c-.853 1.621-1.664 2.304-2.432 2.048-.683-.597-.939-1.707-.768-3.328.256-1.621.811-3.243 1.664-4.864.853-1.707 1.664-2.389 2.432-2.048zm-8.576-8.832c.768-.256 1.579.469 2.432 2.176.853 1.621 1.365 3.243 1.536 4.864.256 1.621.043 2.731-.64 3.328-.768.256-1.621-.427-2.56-2.048-.853-1.707-1.365-3.371-1.536-4.992s.085-2.731.768-3.328zm8.576-.896c.683.512.939 1.621.768 3.328-.171 1.621-.725 3.243-1.664 4.864-.853 1.621-1.664 2.304-2.432 2.048-.683-.512-.939-1.579-.768-3.2.256-1.707.811-3.371 1.664-4.992.853-1.707 1.664-2.389 2.432-2.048zm-19.072.896c.768-.256 1.579.469 2.432 2.176.939 1.621 1.493 3.243 1.664 4.864s-.085 2.731-.768 3.328c-.768.256-1.579-.427-2.432-2.048-.853-1.707-1.408-3.371-1.664-4.992-.171-1.621.085-2.731.768-3.328zm8.704-.896c.683.512.896 1.621.64 3.328-.171 1.621-.725 3.243-1.664 4.864-.853 1.621-1.621 2.304-2.304 2.048-.683-.512-.939-1.579-.768-3.2.171-1.707.683-3.371 1.536-4.992.939-1.707 1.792-2.389 2.56-2.048zm1.792-8.832c.768-.256 1.579.469 2.432 2.176.853 1.621 1.365 3.243 1.536 4.864.256 1.621.043 2.731-.64 3.328-.512.171-1.024-.043-1.536-.64s-.981-1.365-1.408-2.304a21.61 21.61 0 0 1-1.024-3.072c-.171-1.024-.213-1.963-.128-2.816s.341-1.365.768-1.536zm8.576-.896c.683.512.939 1.621.768 3.328-.171 1.621-.725 3.285-1.664 4.992-.853 1.621-1.664 2.261-2.432 1.92-.683-.512-.939-1.579-.768-3.2.256-1.707.811-3.371 1.664-4.992.853-1.707 1.664-2.389 2.432-2.048zm-19.072.896c.768-.256 1.579.469 2.432 2.176.939 1.621 1.493 3.243 1.664 4.864s-.085 2.731-.768 3.328c-.427.171-.939-.043-1.536-.64-.512-.597-.981-1.365-1.408-2.304l-.896-3.072c-.256-1.024-.341-1.963-.256-2.816s.341-1.365.768-1.536zm8.704-.896c.683.512.896 1.621.64 3.328-.171 1.621-.725 3.285-1.664 4.992-.853 1.621-1.621 2.261-2.304 1.92-.683-.512-.939-1.579-.768-3.2.171-1.707.683-3.371 1.536-4.992.939-1.707 1.792-2.389 2.56-2.048zm-19.072.896c.768-.256 1.579.469 2.432 2.176.853 1.621 1.365 3.243 1.536 4.864.256 1.621.043 2.731-.64 3.328-.512.171-1.024-.043-1.536-.64s-.981-1.365-1.408-2.304a21.61 21.61 0 0 1-1.024-3.072c-.256-1.024-.341-1.963-.256-2.816s.384-1.365.896-1.536zm8.576-.896c.683.512.939 1.621.768 3.328-.171 1.621-.725 3.285-1.664 4.992-.853 1.621-1.664 2.261-2.432 1.92-.683-.512-.939-1.579-.768-3.2.256-1.707.811-3.371 1.664-4.992.853-1.707 1.664-2.389 2.432-2.048zm12.288-8.704c.853-.341 1.749.512 2.688 2.56 1.536 3.243 1.92 5.632 1.152 7.168a.77.77 0 0 1-.512.512c-.768.256-1.621-.427-2.56-2.048-.853-1.707-1.365-3.371-1.536-4.992s.085-2.688.768-3.2zm8.576-1.024c.683.512.939 1.621.768 3.328-.171 1.621-.725 3.285-1.664 4.992-.853 1.621-1.664 2.261-2.432 1.92-.683-.512-.939-1.579-.768-3.2.256-1.707.811-3.371 1.664-4.992s1.664-2.304 2.432-2.048zm-19.072 1.024c.341-.171.683-.085 1.024.256.427.256.811.683 1.152 1.28.341.512.64 1.109.896 1.792.341.683.597 1.408.768 2.176s.256 1.493.256 2.176c.085.597.043 1.152-.128 1.664-.085.512-.299.811-.64.896-.768.256-1.579-.427-2.432-2.048-.853-1.707-1.408-3.371-1.664-4.992-.171-1.621.085-2.688.768-3.2zm8.704-1.024c.683.512.896 1.621.64 3.328-.171 1.621-.725 3.285-1.664 4.992-.853 1.621-1.621 2.261-2.304 1.92-.683-.512-.939-1.579-.768-3.2.171-1.707.683-3.371 1.536-4.992.939-1.621 1.792-2.304 2.56-2.048zm-19.072 1.024c.341-.171.683-.085 1.024.256.427.256.768.683 1.024 1.28.341.512.64 1.109.896 1.792.341.683.597 1.408.768 2.176l.384 2.176c.085.597.043 1.152-.128 1.664-.085.512-.299.811-.64.896-.768.256-1.621-.427-2.56-2.048-.853-1.707-1.365-3.371-1.536-4.992s.085-2.688.768-3.2zm8.576-1.024c.683.512.939 1.621.768 3.328-.171 1.621-.725 3.285-1.664 4.992-.853 1.621-1.664 2.261-2.432 1.92-.683-.512-.939-1.579-.768-3.2.256-1.707.811-3.371 1.664-4.992s1.664-2.304 2.432-2.048zm12.288-8.704c.768-.341 1.579.341 2.432 2.048.853 1.621 1.365 3.285 1.536 4.992.256 1.621.043 2.688-.64 3.2-.768.341-1.621-.299-2.56-1.92-.853-1.707-1.365-3.371-1.536-4.992-.171-1.707.085-2.816.768-3.328zm8.576-1.024c.683.512.939 1.621.768 3.328-.171 1.621-.725 3.285-1.664 4.992-.853 1.621-1.664 2.261-2.432 1.92-.683-.512-.939-1.579-.768-3.2.256-1.621.811-3.243 1.664-4.864.853-1.707 1.664-2.432 2.432-2.176zm-29.44 1.024c.768-.341 1.579.341 2.432 2.048.853 1.621 1.365 3.285 1.536 4.992.256 1.621.043 2.688-.64 3.2-.768.341-1.621-.299-2.56-1.92-.853-1.707-1.365-3.371-1.536-4.992-.171-1.707.085-2.816.768-3.328zm8.576-1.024c.683.512.939 1.621.768 3.328-.171 1.621-.725 3.285-1.664 4.992-.853 1.621-1.664 2.261-2.432 1.92-.683-.512-.939-1.579-.768-3.2.256-1.621.811-3.243 1.664-4.864.853-1.707 1.664-2.432 2.432-2.176zm12.288-8.704c.768-.341 1.579.341 2.432 2.048.853 1.621 1.365 3.285 1.536 4.992.256 1.621.043 2.688-.64 3.2-.512.171-1.024 0-1.536-.512-.512-.597-.981-1.365-1.408-2.304a21.61 21.61 0 0 1-1.024-3.072c-.171-1.109-.213-2.048-.128-2.816.085-.853.341-1.365.768-1.536zm8.576-1.024c.683.597.939 1.707.768 3.328s-.725 3.285-1.664 4.992c-.853 1.621-1.664 2.304-2.432 2.048-.683-.597-.939-1.707-.768-3.328.256-1.621.811-3.243 1.664-4.864.853-1.707 1.664-2.432 2.432-2.176zm-8.576-8.704c.768-.256 1.579.469 2.432 2.176.853 1.621 1.365 3.243 1.536 4.864.256 1.621.043 2.688-.64 3.2-.768.341-1.621-.299-2.56-1.92-.853-1.707-1.365-3.371-1.536-4.992-.171-1.707.085-2.816.768-3.328zm8.576-1.024c.683.597.939 1.707.768 3.328s-.725 3.285-1.664 4.992c-.853 1.621-1.664 2.304-2.432 2.048-.683-.597-.939-1.707-.768-3.328.256-1.621.811-3.243 1.664-4.864.853-1.707 1.664-2.432 2.432-2.176zm-8.576-8.704c.427-.171.896.043 1.408.64.597.597 1.067 1.408 1.408 2.432.427.939.768 1.92 1.024 2.944s.341 1.963.256 2.816-.341 1.365-.768 1.536c-.768.256-1.621-.427-2.56-2.048-.853-1.707-1.365-3.371-1.536-4.992s.085-2.731.768-3.328zm8.576-.896c.683.512.939 1.579.768 3.2s-.725 3.285-1.664 4.992c-.853 1.621-1.664 2.304-2.432 2.048-.683-.597-.939-1.707-.768-3.328.256-1.621.811-3.243 1.664-4.864.853-1.707 1.664-2.389 2.432-2.048zm-60.8.896c.341-.085.683 0 1.024.256.427.256.811.683 1.152 1.28.341.512.64 1.152.896 1.92.341.683.597 1.408.768 2.176s.256 1.493.256 2.176c.085.597.043 1.152-.128 1.664-.085.427-.299.725-.64.896-.768.256-1.621-.427-2.56-2.048-.853-1.707-1.365-3.371-1.536-4.992s.085-2.731.768-3.328zm8.704-.896c.597.512.811 1.579.64 3.2s-.725 3.285-1.664 4.992c-.853 1.621-1.664 2.304-2.432 2.048-.597-.597-.811-1.707-.64-3.328s.683-3.243 1.536-4.864c.939-1.707 1.792-2.389 2.56-2.048zm-19.072.896c.427-.171.896.043 1.408.64.597.597 1.067 1.408 1.408 2.432.427.939.768 1.92 1.024 2.944s.341 1.963.256 2.816-.341 1.365-.768 1.536c-.768.256-1.621-.427-2.56-2.048-.853-1.707-1.365-3.371-1.536-4.992s.085-2.731.768-3.328zm8.576-.896c.683.512.939 1.579.768 3.2s-.725 3.285-1.664 4.992c-.853 1.621-1.664 2.304-2.432 2.048-.427-.171-.683-.683-.768-1.536s0-1.792.256-2.816a29.67 29.67 0 0 1 .896-2.944c.427-1.024.896-1.835 1.408-2.432.597-.597 1.109-.768 1.536-.512zm-19.072.896c.427-.171.896.043 1.408.64.597.597 1.067 1.408 1.408 2.432.427.939.768 1.92 1.024 2.944s.341 1.963.256 2.816-.341 1.365-.768 1.536c-.768.256-1.621-.427-2.56-2.048-.853-1.707-1.365-3.371-1.536-4.992s.085-2.731.768-3.328zm8.576-.896c.683.512.939 1.579.768 3.2s-.725 3.285-1.664 4.992c-.853 1.621-1.664 2.304-2.432 2.048-.341-.171-.597-.469-.768-.896-.085-.512-.085-1.067 0-1.664.085-.683.213-1.408.384-2.176s.384-1.493.64-2.176c.341-.683.683-1.28 1.024-1.792.341-.597.683-1.024 1.024-1.28.427-.341.768-.427 1.024-.256zm64.512-8.832c.768-.256 1.579.469 2.432 2.176.853 1.621 1.365 3.243 1.536 4.864.256 1.621.043 2.731-.64 3.328-.512.171-1.024-.043-1.536-.64s-.981-1.365-1.408-2.304a21.61 21.61 0 0 1-1.024-3.072c-.171-1.024-.213-1.963-.128-2.816s.341-1.365.768-1.536zm8.576-.896c.683.512.939 1.621.768 3.328-.171 1.621-.725 3.243-1.664 4.864-.853 1.621-1.664 2.304-2.432 2.048-.683-.512-.939-1.579-.768-3.2.256-1.707.811-3.371 1.664-4.992.853-1.707 1.664-2.389 2.432-2.048zm-71.168.896c.683-.256 1.451.469 2.304 2.176.939 1.621 1.493 3.243 1.664 4.864s-.043 2.731-.64 3.328c-.512.171-1.024-.043-1.536-.64s-.981-1.365-1.408-2.304a21.61 21.61 0 0 1-1.024-3.072c-.256-1.024-.341-1.963-.256-2.816s.384-1.365.896-1.536zm8.576-.896c.683.512.939 1.621.768 3.328-.171 1.621-.725 3.243-1.664 4.864-.853 1.621-1.664 2.304-2.432 2.048-.427-.171-.683-.64-.768-1.408-.085-.853 0-1.792.256-2.816.256-1.109.555-2.133.896-3.072.427-1.024.896-1.792 1.408-2.304.597-.597 1.109-.811 1.536-.64zm-19.072.896c.768-.256 1.579.469 2.432 2.176.939 1.621 1.493 3.243 1.664 4.864s-.085 2.731-.768 3.328c-.427.171-.939-.043-1.536-.64-.512-.597-.981-1.365-1.408-2.304l-.896-3.072c-.256-1.024-.341-1.963-.256-2.816s.341-1.365.768-1.536zm8.576-.896c.683.512.939 1.621.768 3.328-.171 1.621-.725 3.243-1.664 4.864-.853 1.621-1.664 2.304-2.432 2.048-.427-.171-.683-.64-.768-1.408-.085-.853 0-1.792.256-2.816.256-1.109.555-2.133.896-3.072.427-1.024.896-1.792 1.408-2.304.597-.597 1.109-.811 1.536-.64zM94.643.981c.341-.085.683.043 1.024.384.427.256.811.683 1.152 1.28a8.78 8.78 0 0 1 .896 1.792c.341.683.597 1.408.768 2.176s.256 1.493.256 2.176c.085.597.043 1.152-.128 1.664-.085.427-.299.725-.64.896-.768.256-1.579-.427-2.432-2.048-.853-1.707-1.365-3.371-1.536-4.992s.043-2.731.64-3.328zm8.704-.896c.683.512.896 1.621.64 3.328-.17 1.621-.682 3.285-1.536 4.992-.853 1.621-1.664 2.261-2.432 1.92-.683-.512-.939-1.579-.768-3.2.171-1.707.683-3.371 1.536-4.992.939-1.707 1.792-2.389 2.56-2.048zM84.275.981c.427-.171.896.043 1.408.64.597.597 1.067 1.408 1.408 2.432.427.939.768 1.92 1.024 2.944s.341 1.963.256 2.816-.341 1.365-.768 1.536c-.768.256-1.621-.427-2.56-2.048-.853-1.707-1.365-3.371-1.536-4.992s.085-2.731.768-3.328zm8.576-.896c.683.512.939 1.621.768 3.328-.171 1.621-.725 3.285-1.664 4.992-.853 1.621-1.664 2.261-2.432 1.92-.683-.512-.939-1.579-.768-3.2.256-1.707.811-3.371 1.664-4.992.853-1.707 1.664-2.389 2.432-2.048zM73.779.981c.512-.171 1.024.043 1.536.64s.981 1.408 1.408 2.432c.427.939.768 1.92 1.024 2.944s.341 1.963.256 2.816-.384 1.365-.896 1.536c-.768.256-1.579-.427-2.432-2.048-.853-1.707-1.408-3.371-1.664-4.992-.171-1.621.085-2.731.768-3.328zm8.704-.896c.683.512.896 1.621.64 3.328-.171 1.621-.725 3.285-1.664 4.992-.853 1.621-1.621 2.261-2.304 1.92-.683-.512-.939-1.579-.768-3.2.171-1.707.683-3.371 1.536-4.992.939-1.707 1.792-2.389 2.56-2.048zm-60.8.896c.427-.171.896.043 1.408.64.597.597 1.067 1.408 1.408 2.432.427.939.768 1.92 1.024 2.944s.341 1.963.256 2.816-.341 1.365-.768 1.536c-.768.256-1.621-.427-2.56-2.048-.853-1.707-1.365-3.371-1.536-4.992s.085-2.731.768-3.328zm8.576-.896c.683.512.939 1.621.768 3.328-.171 1.621-.725 3.285-1.664 4.992-.853 1.621-1.664 2.261-2.432 1.92-.427-.171-.683-.64-.768-1.408-.085-.853 0-1.792.256-2.816.256-1.109.555-2.133.896-3.072.427-1.024.896-1.792 1.408-2.304.597-.597 1.109-.811 1.536-.64zM11.187.981c.427-.171.896.043 1.408.64.597.597 1.067 1.408 1.408 2.432.427.939.768 1.92 1.024 2.944s.341 1.963.256 2.816-.341 1.365-.768 1.536c-.768.256-1.621-.427-2.56-2.048-.853-1.707-1.365-3.371-1.536-4.992s.085-2.731.768-3.328zm8.576-.896c.683.512.939 1.621.768 3.328-.171 1.621-.725 3.285-1.664 4.992-.853 1.621-1.664 2.261-2.432 1.92-.427-.171-.683-.64-.768-1.408-.085-.853 0-1.792.256-2.816.256-1.109.555-2.133.896-3.072.427-1.024.896-1.792 1.408-2.304.597-.597 1.109-.811 1.536-.64zM.819.981c.427-.171.896.043 1.408.64s.981 1.408 1.408 2.432a17.15 17.15 0 0 1 1.024 2.944c.256 1.024.341 1.963.256 2.816s-.384 1.365-.896 1.536c-.683.256-1.493-.427-2.432-2.048C.734 7.595.222 5.931.051 4.309S.137 1.579.819.981zM9.395.085c.683.512.896 1.621.64 3.328-.171 1.621-.683 3.285-1.536 4.992-.853 1.621-1.664 2.261-2.432 1.92-.683-.512-.939-1.579-.768-3.2.171-1.707.683-3.371 1.536-4.992C7.774.427 8.627-.256 9.395.085z" fill="#fff"/></g><defs><filter id="A" x="0" y="0" width="343.84" height="102.826" filterUnits="userSpaceOnUse" color-interpolation-filters="sRGB"><feFlood flood-opacity="0" result="A"/><feColorMatrix in="SourceAlpha" values="0 0 0 0 0 0 0 0 0 0 0 0 0 0 0 0 0 0 127 0" result="B"/><feOffset dx="2" dy="2"/><feGaussianBlur stdDeviation="1"/><feComposite in2="B" operator="out"/><feColorMatrix values="0 0 0 0 0.912429 0 0 0 0 0.783615 0 0 0 0 0 0 0 0 1 0"/><feBlend in2="A"/><feBlend in="SourceGraphic"/></filter></defs></svg>