<svg xmlns="http://www.w3.org/2000/svg" xmlns:xlink="http://www.w3.org/1999/xlink" width="712" height="240" fill="none" xmlns:v="https://vecta.io/nano"><style><![CDATA[.B{fill:#fff}.C{fill:#ffdb00}]]></style><g filter="url(#A)"><path d="M556.187 199.632c.768-.256 1.579.469 2.432 2.176.939 1.621 1.494 3.243 1.664 4.864s-.085 2.731-.768 3.328c-.768.256-1.621-.427-2.56-2.048-.853-1.707-1.365-3.371-1.536-4.992s.086-2.731.768-3.328zm8.576-.896c.683.512.939 1.579.768 3.2s-.725 3.285-1.664 4.992c-.853 1.621-1.664 2.304-2.432 2.048-.426-.171-.682-.683-.768-1.536s0-1.792.256-2.816.555-2.005.896-2.944c.427-1.024.896-1.835 1.408-2.432.598-.597 1.11-.768 1.536-.512zm-18.944.896c.683-.256 1.451.469 2.304 2.176.939 1.621 1.494 3.243 1.664 4.864s-.085 2.731-.768 3.328c-.683.256-1.493-.427-2.432-2.048-.853-1.707-1.365-3.371-1.536-4.992s.085-2.731.768-3.328zm8.576-.896c.683.512.896 1.579.64 3.2-.171 1.621-.682 3.285-1.536 4.992-.853 1.621-1.664 2.304-2.432 2.048-.682-.597-.938-1.707-.768-3.328s.683-3.243 1.536-4.864c.939-1.707 1.792-2.389 2.56-2.048zm1.792-8.832c.768-.256 1.579.469 2.432 2.176.939 1.621 1.494 3.243 1.664 4.864s-.085 2.731-.768 3.328c-.768.256-1.621-.427-2.56-2.048-.853-1.707-1.365-3.371-1.536-4.992s.086-2.731.768-3.328zm8.576-.896c.683.512.939 1.621.768 3.328-.17 1.621-.725 3.243-1.664 4.864-.853 1.621-1.664 2.304-2.432 2.048-.341-.085-.597-.384-.768-.896-.085-.512-.085-1.067 0-1.664.086-.683.214-1.408.384-2.176s.384-1.493.64-2.176c.341-.683.683-1.28 1.024-1.792.342-.597.683-1.024 1.024-1.28.427-.341.768-.427 1.024-.256zm-8.576-8.832c.768-.256 1.579.469 2.432 2.176.939 1.621 1.494 3.243 1.664 4.864s-.085 2.731-.768 3.328c-.426.171-.938-.043-1.536-.64-.512-.597-.981-1.365-1.408-2.304l-.896-3.072c-.256-1.024-.341-1.963-.256-2.816s.342-1.365.768-1.536zm8.576-.896c.683.512.939 1.621.768 3.328-.17 1.621-.725 3.285-1.664 4.992-.853 1.621-1.664 2.261-2.432 1.92-.426-.171-.682-.64-.768-1.408-.085-.853 0-1.792.256-2.816.256-1.109.555-2.133.896-3.072.427-1.024.896-1.792 1.408-2.304.598-.597 1.11-.811 1.536-.64zm-8.576-8.704c.427-.171.896.043 1.408.64.597.512 1.067 1.28 1.408 2.304.427.939.768 1.963 1.024 3.072.256 1.024.342 1.963.256 2.816-.085.768-.341 1.237-.768 1.408-.768.256-1.621-.427-2.56-2.048-.853-1.707-1.365-3.371-1.536-4.992s.086-2.688.768-3.2zm8.576-1.024c.683.512.939 1.621.768 3.328-.17 1.621-.725 3.285-1.664 4.992-.853 1.621-1.664 2.261-2.432 1.92-.426-.171-.682-.64-.768-1.408-.085-.853 0-1.792.256-2.816s.555-2.005.896-2.944c.427-1.024.896-1.835 1.408-2.432.598-.597 1.11-.811 1.536-.64zm-8.576-8.704c.768-.341 1.579.341 2.432 2.048.939 1.621 1.494 3.285 1.664 4.992.171 1.621-.085 2.688-.768 3.2-.768.341-1.621-.299-2.56-1.92-.853-1.707-1.365-3.371-1.536-4.992-.17-1.707.086-2.816.768-3.328zm8.576-1.024c.683.512.939 1.621.768 3.328-.17 1.621-.725 3.285-1.664 4.992-.853 1.621-1.664 2.261-2.432 1.92-.426-.171-.682-.64-.768-1.408-.085-.853 0-1.792.256-2.816s.555-2.005.896-2.944c.427-1.024.896-1.835 1.408-2.432.598-.597 1.11-.811 1.536-.64zm-8.576-8.704c.768-.341 1.579.341 2.432 2.048.939 1.621 1.494 3.285 1.664 4.992.171 1.621-.085 2.688-.768 3.2-.426.171-.938 0-1.536-.512-.512-.597-.981-1.365-1.408-2.304l-.896-3.072c-.256-1.109-.341-2.048-.256-2.816.086-.853.342-1.365.768-1.536zm8.576-1.024c.683.597.939 1.707.768 3.328s-.725 3.285-1.664 4.992c-.853 1.621-1.664 2.304-2.432 2.048-.426-.171-.682-.683-.768-1.536s0-1.792.256-2.816.555-2.005.896-2.944c.427-1.024.896-1.835 1.408-2.432.598-.597 1.11-.811 1.536-.64zm-8.576-8.704c.768-.256 1.579.469 2.432 2.176.939 1.621 1.494 3.243 1.664 4.864s-.085 2.688-.768 3.2c-.768.341-1.621-.299-2.56-1.92-.853-1.707-1.365-3.371-1.536-4.992-.17-1.707.086-2.816.768-3.328zm8.576-1.024c.683.597.939 1.707.768 3.328s-.725 3.285-1.664 4.992c-.853 1.621-1.664 2.304-2.432 2.048-.426-.171-.682-.683-.768-1.536s0-1.792.256-2.816.555-2.005.896-2.944c.427-1.024.896-1.835 1.408-2.432.598-.597 1.11-.811 1.536-.64zm1.92 59.264c.683-.256 1.451.469 2.304 2.176.939 1.621 1.494 3.243 1.664 4.864s-.042 2.731-.64 3.328c-.768.256-1.621-.427-2.56-2.048-.853-1.707-1.365-3.371-1.536-4.992s.085-2.731.768-3.328zm8.576-.896c.683.512.939 1.579.768 3.2s-.725 3.285-1.664 4.992c-.853 1.621-1.664 2.304-2.432 2.048-.426-.171-.682-.683-.768-1.536s0-1.792.256-2.816.555-2.005.896-2.944c.427-1.024.896-1.835 1.408-2.432.598-.597 1.11-.768 1.536-.512zm22.656-28.16c.512-.171 1.024.043 1.536.64.512.512.939 1.28 1.28 2.304.427.939.768 1.963 1.024 3.072.256 1.024.342 1.963.256 2.816-.085.768-.341 1.237-.768 1.408-.768.256-1.579-.427-2.432-2.048-.853-1.707-1.408-3.371-1.664-4.992-.171-1.621.085-2.688.768-3.2zm8.704-1.024c.598.512.811 1.621.64 3.328-.17 1.621-.725 3.285-1.664 4.992-.853 1.621-1.664 2.261-2.432 1.92-.597-.512-.81-1.579-.64-3.2.171-1.707.683-3.371 1.536-4.992.939-1.621 1.792-2.304 2.56-2.048zm-8.704-8.704c.768-.341 1.579.341 2.432 2.048.939 1.621 1.493 3.285 1.664 4.992.171 1.621-.085 2.688-.768 3.2-.768.341-1.579-.299-2.432-1.92-.853-1.707-1.408-3.371-1.664-4.992-.171-1.707.085-2.816.768-3.328zm8.704-1.024c.598.512.811 1.621.64 3.328-.17 1.621-.725 3.285-1.664 4.992-.853 1.621-1.664 2.261-2.432 1.92-.597-.512-.81-1.579-.64-3.2s.683-3.243 1.536-4.864c.939-1.707 1.792-2.432 2.56-2.176zm-19.072 1.024c.768-.341 1.579.341 2.432 2.048.854 1.621 1.366 3.285 1.536 4.992.171 1.621-.042 2.688-.64 3.2-.768.341-1.621-.299-2.56-1.92-.853-1.707-1.365-3.371-1.536-4.992-.17-1.707.086-2.816.768-3.328zm8.576-1.024c.683.512.939 1.621.768 3.328-.17 1.621-.725 3.285-1.664 4.992-.853 1.621-1.664 2.261-2.432 1.92-.683-.512-.939-1.579-.768-3.2s.683-3.243 1.536-4.864c.939-1.707 1.792-2.432 2.56-2.176zm1.792-8.704c.768-.341 1.579.341 2.432 2.048.939 1.621 1.493 3.285 1.664 4.992.171 1.621-.085 2.688-.768 3.2-.427.171-.938 0-1.536-.512-.512-.597-.981-1.365-1.408-2.304l-.896-3.072c-.256-1.109-.341-2.048-.256-2.816.085-.853.341-1.365.768-1.536zm8.704-1.024c.598.597.811 1.707.64 3.328s-.725 3.285-1.664 4.992c-.853 1.621-1.664 2.304-2.432 2.048-.597-.597-.81-1.707-.64-3.328s.683-3.243 1.536-4.864c.939-1.707 1.792-2.432 2.56-2.176zm-19.072 1.024c.768-.341 1.579.341 2.432 2.048.854 1.621 1.366 3.285 1.536 4.992.171 1.621-.042 2.688-.64 3.2-.512.171-1.024 0-1.536-.512-.512-.597-.981-1.365-1.408-2.304a21.7 21.7 0 0 1-1.024-3.072c-.256-1.109-.341-2.048-.256-2.816.086-.853.384-1.365.896-1.536zm8.576-1.024c.683.597.939 1.707.768 3.328s-.725 3.285-1.664 4.992c-.853 1.621-1.664 2.304-2.432 2.048-.683-.597-.939-1.707-.768-3.328s.683-3.243 1.536-4.864c.939-1.707 1.792-2.432 2.56-2.176zm-19.072 1.024c.768-.341 1.579.341 2.432 2.048.939 1.621 1.493 3.285 1.664 4.992.171 1.621-.085 2.688-.768 3.2-.426.171-.938 0-1.536-.512-.512-.597-.981-1.365-1.408-2.304l-.896-3.072c-.256-1.109-.341-2.048-.256-2.816.086-.853.342-1.365.768-1.536zm8.576-1.024c.683.597.939 1.707.768 3.328s-.725 3.285-1.664 4.992c-.853 1.621-1.664 2.304-2.432 2.048-.597-.597-.81-1.707-.64-3.328s.683-3.243 1.536-4.864c.939-1.707 1.75-2.432 2.432-2.176zm1.92-8.704c.768-.256 1.579.469 2.432 2.176.854 1.621 1.366 3.243 1.536 4.864s-.042 2.688-.64 3.2c-.768.341-1.621-.299-2.56-1.92-.853-1.707-1.365-3.371-1.536-4.992-.17-1.707.086-2.816.768-3.328zm8.576-1.024c.683.597.939 1.707.768 3.328s-.725 3.285-1.664 4.992c-.853 1.621-1.664 2.304-2.432 2.048-.683-.597-.939-1.707-.768-3.328s.683-3.243 1.536-4.864c.939-1.707 1.792-2.432 2.56-2.176zm-19.072 1.024c.768-.256 1.579.469 2.432 2.176.939 1.621 1.493 3.243 1.664 4.864s-.085 2.688-.768 3.2c-.768.341-1.621-.299-2.56-1.92-.853-1.707-1.365-3.371-1.536-4.992-.17-1.707.086-2.816.768-3.328zm8.576-1.024c.683.597.939 1.707.768 3.328s-.725 3.285-1.664 4.992c-.853 1.621-1.664 2.304-2.432 2.048-.597-.597-.81-1.707-.64-3.328s.683-3.243 1.536-4.864c.939-1.707 1.75-2.432 2.432-2.176zm-18.944 1.024c.683-.256 1.451.469 2.304 2.176.939 1.621 1.494 3.243 1.664 4.864s-.042 2.688-.64 3.2c-.768.341-1.621-.299-2.56-1.92-.853-1.707-1.365-3.371-1.536-4.992-.171-1.707.085-2.816.768-3.328zm8.576-1.024c.683.597.939 1.707.768 3.328s-.725 3.285-1.664 4.992c-.853 1.621-1.664 2.304-2.432 2.048-.426-.171-.682-.683-.768-1.536s0-1.792.256-2.816.555-2.005.896-2.944c.427-1.024.896-1.835 1.408-2.432.598-.597 1.11-.811 1.536-.64zm54.016 59.264c.768-.256 1.579.469 2.432 2.176.854 1.621 1.366 3.243 1.536 4.864.256 1.621.043 2.731-.64 3.328-.768.256-1.621-.427-2.56-2.048-.853-1.707-1.365-3.371-1.536-4.992s.086-2.731.768-3.328zm8.576-.896c.683.512.939 1.579.768 3.2s-.725 3.285-1.664 4.992c-.853 1.621-1.664 2.304-2.432 2.048-.682-.597-.938-1.707-.768-3.328.256-1.621.811-3.243 1.664-4.864.854-1.707 1.664-2.389 2.432-2.048zm-8.576-8.832c.768-.256 1.579.469 2.432 2.176.854 1.621 1.366 3.243 1.536 4.864.256 1.621.043 2.731-.64 3.328-.768.256-1.621-.427-2.56-2.048-.853-1.707-1.365-3.371-1.536-4.992s.086-2.731.768-3.328zm8.576-.896c.683.512.939 1.621.768 3.328-.17 1.621-.725 3.243-1.664 4.864-.853 1.621-1.664 2.304-2.432 2.048-.682-.512-.938-1.579-.768-3.2.256-1.707.811-3.371 1.664-4.992.854-1.707 1.664-2.389 2.432-2.048zm-19.072.896c.768-.256 1.579.469 2.432 2.176.939 1.621 1.494 3.243 1.664 4.864s-.085 2.731-.768 3.328c-.768.256-1.578-.427-2.432-2.048-.853-1.707-1.408-3.371-1.664-4.992-.17-1.621.086-2.731.768-3.328zm8.704-.896c.683.512.896 1.621.64 3.328-.17 1.621-.725 3.243-1.664 4.864-.853 1.621-1.621 2.304-2.304 2.048-.682-.512-.938-1.579-.768-3.2.171-1.707.683-3.371 1.536-4.992.939-1.707 1.792-2.389 2.56-2.048zm1.792-8.832c.768-.256 1.579.469 2.432 2.176.854 1.621 1.366 3.243 1.536 4.864.256 1.621.043 2.731-.64 3.328-.512.171-1.024-.043-1.536-.64s-.981-1.365-1.408-2.304a21.7 21.7 0 0 1-1.024-3.072c-.17-1.024-.213-1.963-.128-2.816s.342-1.365.768-1.536zm8.576-.896c.683.512.939 1.621.768 3.328-.17 1.621-.725 3.285-1.664 4.992-.853 1.621-1.664 2.261-2.432 1.92-.682-.512-.938-1.579-.768-3.2.256-1.707.811-3.371 1.664-4.992.854-1.707 1.664-2.389 2.432-2.048zm-19.072.896c.768-.256 1.579.469 2.432 2.176.939 1.621 1.494 3.243 1.664 4.864s-.085 2.731-.768 3.328c-.426.171-.939-.043-1.536-.64-.512-.597-.981-1.365-1.408-2.304l-.896-3.072c-.256-1.024-.341-1.963-.256-2.816s.342-1.365.768-1.536zm8.704-.896c.683.512.896 1.621.64 3.328-.17 1.621-.725 3.285-1.664 4.992-.853 1.621-1.621 2.261-2.304 1.92-.682-.512-.938-1.579-.768-3.2.171-1.707.683-3.371 1.536-4.992.939-1.707 1.792-2.389 2.56-2.048zm-19.072.896c.768-.256 1.579.469 2.432 2.176.854 1.621 1.366 3.243 1.536 4.864.256 1.621.043 2.731-.64 3.328-.512.171-1.024-.043-1.536-.64s-.981-1.365-1.408-2.304c-.427-1.024-.768-2.048-1.024-3.072s-.341-1.963-.256-2.816.384-1.365.896-1.536zm8.576-.896c.683.512.939 1.621.768 3.328-.17 1.621-.725 3.285-1.664 4.992-.853 1.621-1.664 2.261-2.432 1.92-.682-.512-.938-1.579-.768-3.2.256-1.707.811-3.371 1.664-4.992.854-1.707 1.664-2.389 2.432-2.048zm12.288-8.704c.854-.341 1.75.512 2.688 2.56 1.536 3.243 1.92 5.632 1.152 7.168-.085.256-.256.427-.512.512-.768.256-1.621-.427-2.56-2.048-.853-1.707-1.365-3.371-1.536-4.992s.086-2.688.768-3.2zm8.576-1.024c.683.512.939 1.621.768 3.328-.17 1.621-.725 3.285-1.664 4.992-.853 1.621-1.664 2.261-2.432 1.92-.682-.512-.938-1.579-.768-3.2.256-1.707.811-3.371 1.664-4.992s1.664-2.304 2.432-2.048zm-19.072 1.024c.342-.171.683-.085 1.024.256.427.256.811.683 1.152 1.28.342.512.64 1.109.896 1.792.342.683.598 1.408.768 2.176s.256 1.493.256 2.176c.086.597.043 1.152-.128 1.664-.085.512-.298.811-.64.896-.768.256-1.578-.427-2.432-2.048-.853-1.707-1.408-3.371-1.664-4.992-.17-1.621.086-2.688.768-3.2zm8.704-1.024c.683.512.896 1.621.64 3.328-.17 1.621-.725 3.285-1.664 4.992-.853 1.621-1.621 2.261-2.304 1.92-.682-.512-.938-1.579-.768-3.2.171-1.707.683-3.371 1.536-4.992.939-1.621 1.792-2.304 2.56-2.048zm-19.072 1.024c.342-.171.683-.085 1.024.256.427.256.768.683 1.024 1.28.341.512.64 1.109.896 1.792a9.4 9.4 0 0 1 .768 2.176l.384 2.176c.086.597.043 1.152-.128 1.664-.085.512-.298.811-.64.896-.768.256-1.621-.427-2.56-2.048-.853-1.707-1.365-3.371-1.536-4.992s.086-2.688.768-3.2zm8.576-1.024c.683.512.939 1.621.768 3.328-.17 1.621-.725 3.285-1.664 4.992-.853 1.621-1.664 2.261-2.432 1.92-.682-.512-.938-1.579-.768-3.2.256-1.707.811-3.371 1.664-4.992s1.664-2.304 2.432-2.048zm12.288-8.704c.768-.341 1.579.341 2.432 2.048.854 1.621 1.366 3.285 1.536 4.992.256 1.621.043 2.688-.64 3.2-.768.341-1.621-.299-2.56-1.92-.853-1.707-1.365-3.371-1.536-4.992-.17-1.707.086-2.816.768-3.328zm8.576-1.024c.683.512.939 1.621.768 3.328-.17 1.621-.725 3.285-1.664 4.992-.853 1.621-1.664 2.261-2.432 1.92-.682-.512-.938-1.579-.768-3.2.256-1.621.811-3.243 1.664-4.864.854-1.707 1.664-2.432 2.432-2.176zm-29.44 1.024c.768-.341 1.579.341 2.432 2.048.854 1.621 1.366 3.285 1.536 4.992.256 1.621.043 2.688-.64 3.2-.768.341-1.621-.299-2.56-1.92-.853-1.707-1.365-3.371-1.536-4.992-.17-1.707.086-2.816.768-3.328zm8.576-1.024c.683.512.939 1.621.768 3.328-.17 1.621-.725 3.285-1.664 4.992-.853 1.621-1.664 2.261-2.432 1.92-.682-.512-.938-1.579-.768-3.2.256-1.621.811-3.243 1.664-4.864.854-1.707 1.664-2.432 2.432-2.176zm12.288-8.704c.768-.341 1.579.341 2.432 2.048.854 1.621 1.366 3.285 1.536 4.992.256 1.621.043 2.688-.64 3.2-.512.171-1.024 0-1.536-.512-.512-.597-.981-1.365-1.408-2.304a21.7 21.7 0 0 1-1.024-3.072c-.17-1.109-.213-2.048-.128-2.816.086-.853.342-1.365.768-1.536zm8.576-1.024c.683.597.939 1.707.768 3.328s-.725 3.285-1.664 4.992c-.853 1.621-1.664 2.304-2.432 2.048-.682-.597-.938-1.707-.768-3.328.256-1.621.811-3.243 1.664-4.864.854-1.707 1.664-2.432 2.432-2.176zm-8.576-8.704c.768-.256 1.579.469 2.432 2.176.854 1.621 1.366 3.243 1.536 4.864.256 1.621.043 2.688-.64 3.2-.768.341-1.621-.299-2.56-1.92-.853-1.707-1.365-3.371-1.536-4.992-.17-1.707.086-2.816.768-3.328zm8.576-1.024c.683.597.939 1.707.768 3.328s-.725 3.285-1.664 4.992c-.853 1.621-1.664 2.304-2.432 2.048-.682-.597-.938-1.707-.768-3.328.256-1.621.811-3.243 1.664-4.864.854-1.707 1.664-2.432 2.432-2.176zm-8.576-8.704c.427-.171.896.043 1.408.64.597.597 1.067 1.408 1.408 2.432a17.13 17.13 0 0 1 1.024 2.944c.256 1.024.341 1.963.256 2.816s-.341 1.365-.768 1.536c-.768.256-1.621-.427-2.56-2.048-.853-1.707-1.365-3.371-1.536-4.992s.086-2.731.768-3.328zm8.576-.896c.683.512.939 1.579.768 3.2s-.725 3.285-1.664 4.992c-.853 1.621-1.664 2.304-2.432 2.048-.682-.597-.938-1.707-.768-3.328.256-1.621.811-3.243 1.664-4.864.854-1.707 1.664-2.389 2.432-2.048zm-60.8.896c.342-.085.683 0 1.024.256.427.256.811.683 1.152 1.28.342.512.64 1.152.896 1.92.342.683.598 1.408.768 2.176s.256 1.493.256 2.176c.085.597.043 1.152-.128 1.664-.085.427-.298.725-.64.896-.768.256-1.621-.427-2.56-2.048-.853-1.707-1.365-3.371-1.536-4.992s.086-2.731.768-3.328zm8.704-.896c.598.512.811 1.579.64 3.2s-.725 3.285-1.664 4.992c-.853 1.621-1.664 2.304-2.432 2.048-.597-.597-.81-1.707-.64-3.328s.683-3.243 1.536-4.864c.939-1.707 1.792-2.389 2.56-2.048zm-19.072.896c.427-.171.896.043 1.408.64.598.597 1.067 1.408 1.408 2.432a17.13 17.13 0 0 1 1.024 2.944c.256 1.024.342 1.963.256 2.816s-.341 1.365-.768 1.536c-.768.256-1.621-.427-2.56-2.048-.853-1.707-1.365-3.371-1.536-4.992s.085-2.731.768-3.328zm8.576-.896c.683.512.939 1.579.768 3.2s-.725 3.285-1.664 4.992c-.853 1.621-1.664 2.304-2.432 2.048-.426-.171-.682-.683-.768-1.536s0-1.792.256-2.816.555-2.005.896-2.944c.427-1.024.896-1.835 1.408-2.432.598-.597 1.11-.768 1.536-.512zm-19.072.896c.427-.171.896.043 1.408.64.597.597 1.067 1.408 1.408 2.432a17.13 17.13 0 0 1 1.024 2.944c.256 1.024.342 1.963.256 2.816s-.341 1.365-.768 1.536c-.768.256-1.621-.427-2.56-2.048-.853-1.707-1.365-3.371-1.536-4.992s.086-2.731.768-3.328zm8.576-.896c.683.512.939 1.579.768 3.2s-.725 3.285-1.664 4.992c-.853 1.621-1.664 2.304-2.432 2.048-.341-.171-.597-.469-.768-.896-.085-.512-.085-1.067 0-1.664.086-.683.214-1.408.384-2.176s.384-1.493.64-2.176c.341-.683.683-1.28 1.024-1.792.342-.597.683-1.024 1.024-1.28.427-.341.768-.427 1.024-.256zm64.512-8.832c.768-.256 1.579.469 2.432 2.176.854 1.621 1.366 3.243 1.536 4.864.256 1.621.043 2.731-.64 3.328-.512.171-1.024-.043-1.536-.64s-.981-1.365-1.408-2.304a21.7 21.7 0 0 1-1.024-3.072c-.17-1.024-.213-1.963-.128-2.816s.342-1.365.768-1.536zm8.576-.896c.683.512.939 1.621.768 3.328-.17 1.621-.725 3.243-1.664 4.864-.853 1.621-1.664 2.304-2.432 2.048-.682-.512-.938-1.579-.768-3.2.256-1.707.811-3.371 1.664-4.992.854-1.707 1.664-2.389 2.432-2.048zm-71.168.896c.683-.256 1.451.469 2.304 2.176.939 1.621 1.494 3.243 1.664 4.864s-.042 2.731-.64 3.328c-.512.171-1.024-.043-1.536-.64s-.981-1.365-1.408-2.304a21.7 21.7 0 0 1-1.024-3.072c-.256-1.024-.341-1.963-.256-2.816s.384-1.365.896-1.536zm8.576-.896c.683.512.939 1.621.768 3.328-.171 1.621-.725 3.243-1.664 4.864-.853 1.621-1.664 2.304-2.432 2.048-.426-.171-.682-.64-.768-1.408-.085-.853 0-1.792.256-2.816.256-1.109.555-2.133.896-3.072.427-1.024.896-1.792 1.408-2.304.598-.597 1.11-.811 1.536-.64zm-19.072.896c.768-.256 1.579.469 2.432 2.176.939 1.621 1.494 3.243 1.664 4.864s-.085 2.731-.768 3.328c-.426.171-.938-.043-1.536-.64-.512-.597-.981-1.365-1.408-2.304l-.896-3.072c-.256-1.024-.341-1.963-.256-2.816s.342-1.365.768-1.536zm8.576-.896c.683.512.939 1.621.768 3.328-.17 1.621-.725 3.243-1.664 4.864-.853 1.621-1.664 2.304-2.432 2.048-.426-.171-.682-.64-.768-1.408-.085-.853 0-1.792.256-2.816.256-1.109.555-2.133.896-3.072.427-1.024.896-1.792 1.408-2.304.598-.597 1.11-.811 1.536-.64zm74.88-8.832c.342-.085.683.043 1.024.384.427.256.811.683 1.152 1.28.342.512.64 1.109.896 1.792.342.683.598 1.408.768 2.176s.256 1.493.256 2.176c.086.597.043 1.152-.128 1.664-.085.427-.298.725-.64.896-.768.256-1.578-.427-2.432-2.048-.853-1.707-1.365-3.371-1.536-4.992s.043-2.731.64-3.328zm8.704-.896c.683.512.896 1.621.64 3.328-.17 1.621-.682 3.285-1.536 4.992-.853 1.621-1.664 2.261-2.432 1.92-.683-.512-.939-1.579-.768-3.2.171-1.707.683-3.371 1.536-4.992.939-1.707 1.792-2.389 2.56-2.048zm-19.072.896c.427-.171.896.043 1.408.64.597.597 1.067 1.408 1.408 2.432a17.13 17.13 0 0 1 1.024 2.944c.256 1.024.341 1.963.256 2.816s-.341 1.365-.768 1.536c-.768.256-1.621-.427-2.56-2.048-.853-1.707-1.365-3.371-1.536-4.992s.086-2.731.768-3.328zm8.576-.896c.683.512.939 1.621.768 3.328-.17 1.621-.725 3.285-1.664 4.992-.853 1.621-1.664 2.261-2.432 1.92-.682-.512-.938-1.579-.768-3.2.256-1.707.811-3.371 1.664-4.992.854-1.707 1.664-2.389 2.432-2.048zm-19.072.896c.512-.171 1.024.043 1.536.64s.982 1.408 1.408 2.432a17.13 17.13 0 0 1 1.024 2.944c.256 1.024.342 1.963.256 2.816s-.384 1.365-.896 1.536c-.768.256-1.578-.427-2.432-2.048-.853-1.707-1.408-3.371-1.664-4.992-.17-1.621.086-2.731.768-3.328zm8.704-.896c.683.512.896 1.621.64 3.328-.17 1.621-.725 3.285-1.664 4.992-.853 1.621-1.621 2.261-2.304 1.92-.682-.512-.938-1.579-.768-3.2.171-1.707.683-3.371 1.536-4.992.939-1.707 1.792-2.389 2.56-2.048zm-60.8.896c.427-.171.896.043 1.408.64.598.597 1.067 1.408 1.408 2.432a17.13 17.13 0 0 1 1.024 2.944c.256 1.024.342 1.963.256 2.816s-.341 1.365-.768 1.536c-.768.256-1.621-.427-2.56-2.048-.853-1.707-1.365-3.371-1.536-4.992s.085-2.731.768-3.328zm8.576-.896c.683.512.939 1.621.768 3.328-.171 1.621-.725 3.285-1.664 4.992-.853 1.621-1.664 2.261-2.432 1.92-.426-.171-.682-.64-.768-1.408-.085-.853 0-1.792.256-2.816.256-1.109.555-2.133.896-3.072.427-1.024.896-1.792 1.408-2.304.598-.597 1.11-.811 1.536-.64zm-19.072.896c.427-.171.896.043 1.408.64.597.597 1.067 1.408 1.408 2.432a17.13 17.13 0 0 1 1.024 2.944c.256 1.024.342 1.963.256 2.816s-.341 1.365-.768 1.536c-.768.256-1.621-.427-2.56-2.048-.853-1.707-1.365-3.371-1.536-4.992s.086-2.731.768-3.328zm8.576-.896c.683.512.939 1.621.768 3.328-.17 1.621-.725 3.285-1.664 4.992-.853 1.621-1.664 2.261-2.432 1.92-.426-.171-.682-.64-.768-1.408-.085-.853 0-1.792.256-2.816.256-1.109.555-2.133.896-3.072.427-1.024.896-1.792 1.408-2.304.598-.597 1.11-.811 1.536-.64zm-18.944.896c.427-.171.896.043 1.408.64s.982 1.408 1.408 2.432a17.13 17.13 0 0 1 1.024 2.944c.256 1.024.341 1.963.256 2.816s-.384 1.365-.896 1.536c-.683.256-1.493-.427-2.432-2.048-.853-1.707-1.365-3.371-1.536-4.992s.085-2.731.768-3.328zm8.576-.896c.683.512.896 1.621.64 3.328-.171 1.621-.682 3.285-1.536 4.992-.853 1.621-1.664 2.261-2.432 1.92-.682-.512-.938-1.579-.768-3.2.171-1.707.683-3.371 1.536-4.992.939-1.707 1.792-2.389 2.56-2.048z" class="B"/><path d="M331.868 132.304c-.768.256-1.578-.427-2.432-2.048-.853-1.707-1.408-3.371-1.664-4.992-.17-1.621.086-2.731.768-3.328.512-.171 1.024.043 1.536.64s.939 1.408 1.28 2.432a17.13 17.13 0 0 1 1.024 2.944c.256 1.024.342 1.963.256 2.816s-.341 1.365-.768 1.536zm1.92-1.024c-.597-.512-.81-1.579-.64-3.2.171-1.707.683-3.371 1.536-4.992.939-1.707 1.792-2.389 2.56-2.048.598.512.811 1.621.64 3.328-.17 1.621-.725 3.243-1.664 4.864-.853 1.621-1.664 2.304-2.432 2.048zm-43.648 68.992c-.768.256-1.621-.427-2.56-2.048-.853-1.707-1.365-3.371-1.536-4.992s.086-2.731.768-3.328c.768-.256 1.579.469 2.432 2.176.939 1.621 1.494 3.243 1.664 4.864s-.085 2.731-.768 3.328zm3.712-10.624c.598-.597 1.11-.811 1.536-.64.512.171.811.683.896 1.536.086.768 0 1.664-.256 2.688s-.597 2.048-1.024 3.072c-.426.939-.896 1.707-1.408 2.304s-1.024.811-1.536.64c-.426-.171-.682-.64-.768-1.408-.085-.853 0-1.792.256-2.816.256-1.109.555-2.133.896-3.072.427-1.024.896-1.792 1.408-2.304zm3.456 9.984c.683-.256 1.451.469 2.304 2.176.939 1.621 1.494 3.243 1.664 4.864s-.042 2.731-.64 3.328c-.768.256-1.621-.427-2.56-2.048-.853-1.707-1.365-3.371-1.536-4.992s.086-2.731.768-3.328zm8.576-.896c.683.512.939 1.579.768 3.2s-.725 3.285-1.664 4.992c-.853 1.621-1.664 2.304-2.432 2.048-.682-.597-.938-1.707-.768-3.328s.683-3.243 1.536-4.864c.939-1.707 1.792-2.389 2.56-2.048zm-19.072.896c.768-.256 1.579.469 2.432 2.176.939 1.621 1.494 3.243 1.664 4.864s-.085 2.731-.768 3.328c-.768.256-1.621-.427-2.56-2.048-.853-1.707-1.365-3.371-1.536-4.992s.086-2.731.768-3.328zm8.576-.896c.683.512.939 1.579.768 3.2s-.725 3.285-1.664 4.992c-.853 1.621-1.664 2.304-2.432 2.048-.426-.171-.682-.683-.768-1.536s0-1.792.256-2.816.555-2.005.896-2.944c.427-1.024.896-1.835 1.408-2.432.598-.597 1.11-.768 1.536-.512zm-18.944-8.832c.683-.256 1.451.469 2.304 2.176.939 1.621 1.494 3.243 1.664 4.864s-.085 2.731-.768 3.328c-.682.256-1.493-.427-2.432-2.048-.853-1.707-1.365-3.371-1.536-4.992s.086-2.731.768-3.328zm8.576-.896c.683.512.896 1.621.64 3.328-.17 1.621-.682 3.243-1.536 4.864s-1.664 2.304-2.432 2.048c-.682-.512-.938-1.579-.768-3.2.171-1.707.683-3.371 1.536-4.992.939-1.707 1.792-2.389 2.56-2.048zm-8.576-8.832c.683-.256 1.451.469 2.304 2.176.939 1.621 1.494 3.243 1.664 4.864s-.085 2.731-.768 3.328c-.682.256-1.493-.427-2.432-2.048-.853-1.707-1.365-3.371-1.536-4.992s.086-2.731.768-3.328zm8.576-.896c.683.512.896 1.621.64 3.328-.17 1.621-.682 3.285-1.536 4.992-.853 1.621-1.664 2.261-2.432 1.92-.682-.512-.938-1.579-.768-3.2.171-1.707.683-3.371 1.536-4.992.939-1.707 1.792-2.389 2.56-2.048zm12.288-18.432c.256-.171.555-.085.896.256.427.256.811.683 1.152 1.28.342.512.64 1.109.896 1.792.342.683.598 1.408.768 2.176l.384 2.176c.086.597.043 1.152-.128 1.664s-.384.811-.64.896c-.768.341-1.621-.299-2.56-1.92-.853-1.707-1.365-3.371-1.536-4.992-.17-1.707.086-2.816.768-3.328zm8.576-1.024c.683.512.939 1.621.768 3.328-.17 1.621-.725 3.285-1.664 4.992-.853 1.621-1.664 2.261-2.432 1.92-.682-.512-.938-1.579-.768-3.2s.683-3.243 1.536-4.864c.939-1.707 1.792-2.432 2.56-2.176zm-8.576-8.704c.683-.341 1.451.341 2.304 2.048.939 1.621 1.494 3.285 1.664 4.992.171 1.621-.042 2.688-.64 3.2-.768.341-1.621-.299-2.56-1.92-.853-1.707-1.365-3.371-1.536-4.992-.17-1.707.086-2.816.768-3.328zm8.576-1.024c.683.597.939 1.707.768 3.328s-.725 3.285-1.664 4.992c-.853 1.621-1.664 2.304-2.432 2.048-.682-.597-.938-1.707-.768-3.328s.683-3.243 1.536-4.864c.939-1.707 1.792-2.432 2.56-2.176zm-19.072 1.024c.768-.341 1.579.341 2.432 2.048.939 1.621 1.494 3.285 1.664 4.992.171 1.621-.085 2.688-.768 3.2-.768.341-1.621-.299-2.56-1.92-.853-1.707-1.365-3.371-1.536-4.992-.17-1.707.086-2.816.768-3.328zm5.248 9.344c-.426-.171-.682-.683-.768-1.536s0-1.792.256-2.816.555-2.005.896-2.944c.427-1.024.896-1.835 1.408-2.432.598-.597 1.11-.811 1.536-.64.683.597.939 1.707.768 3.328s-.725 3.285-1.664 4.992c-.853 1.621-1.664 2.304-2.432 2.048zm-5.248-19.072c.768-.256 1.579.469 2.432 2.176.939 1.621 1.494 3.243 1.664 4.864s-.085 2.688-.768 3.2c-.768.341-1.621-.299-2.56-1.92-.853-1.707-1.365-3.371-1.536-4.992-.17-1.707.086-2.816.768-3.328zm5.248 9.344c-.426-.171-.682-.683-.768-1.536s0-1.792.256-2.816.555-2.005.896-2.944c.427-1.024.896-1.835 1.408-2.432.598-.597 1.11-.811 1.536-.64.683.597.939 1.707.768 3.328s-.725 3.285-1.664 4.992c-.853 1.621-1.664 2.304-2.432 2.048zm-15.616-9.344c.683-.256 1.451.469 2.304 2.176.939 1.621 1.494 3.243 1.664 4.864s-.085 2.688-.768 3.2c-.682.341-1.493-.299-2.432-1.92-.853-1.707-1.365-3.371-1.536-4.992-.17-1.707.086-2.816.768-3.328zm8.576-1.024c.683.597.896 1.707.64 3.328-.17 1.621-.682 3.285-1.536 4.992-.853 1.621-1.664 2.304-2.432 2.048-.682-.597-.938-1.707-.768-3.328s.683-3.243 1.536-4.864c.939-1.707 1.792-2.432 2.56-2.176zm1.792-8.704c.854-.341 1.792.555 2.816 2.688 1.451 3.157 1.792 5.504 1.024 7.04-.085.256-.256.469-.512.64-.768.256-1.621-.427-2.56-2.048-.853-1.707-1.365-3.371-1.536-4.992s.086-2.731.768-3.328zm5.248 9.344c-.426-.171-.682-.683-.768-1.536s0-1.792.256-2.816.555-2.005.896-2.944c.427-1.024.896-1.835 1.408-2.432.598-.597 1.11-.768 1.536-.512.683.512.939 1.579.768 3.2s-.725 3.285-1.664 4.992c-.853 1.621-1.664 2.304-2.432 2.048zm-15.616-9.344c.427-.171.896.043 1.408.64s.982 1.408 1.408 2.432a17.13 17.13 0 0 1 1.024 2.944c.256 1.024.342 1.963.256 2.816s-.384 1.365-.896 1.536c-.682.256-1.493-.427-2.432-2.048-.853-1.707-1.365-3.371-1.536-4.992s.086-2.731.768-3.328zm8.576-.896c.683.512.896 1.579.64 3.2-.17 1.621-.682 3.285-1.536 4.992-.853 1.621-1.664 2.304-2.432 2.048-.682-.597-.938-1.707-.768-3.328s.683-3.243 1.536-4.864c.939-1.707 1.792-2.389 2.56-2.048zm1.792-8.832c.854-.341 1.792.555 2.816 2.688 1.451 3.243 1.792 5.589 1.024 7.04-.085.341-.256.555-.512.64-.768.256-1.621-.427-2.56-2.048-.853-1.707-1.365-3.371-1.536-4.992s.086-2.731.768-3.328zm5.248 9.344c-.426-.171-.682-.64-.768-1.408-.085-.853 0-1.792.256-2.816.256-1.109.555-2.133.896-3.072.427-1.024.896-1.792 1.408-2.304.598-.597 1.11-.811 1.536-.64.683.512.939 1.621.768 3.328-.17 1.621-.725 3.243-1.664 4.864-.853 1.621-1.664 2.304-2.432 2.048zm-15.616-9.344c.256-.085.555 0 .896.256.427.256.811.683 1.152 1.28.342.512.64 1.152.896 1.92.342.683.598 1.408.768 2.176s.256 1.493.256 2.176c.086.597.043 1.152-.128 1.664-.085.427-.298.725-.64.896-.682.256-1.493-.427-2.432-2.048-.853-1.707-1.365-3.371-1.536-4.992s.086-2.731.768-3.328zm8.576-.896c.683.512.896 1.621.64 3.328-.17 1.621-.682 3.243-1.536 4.864s-1.664 2.304-2.432 2.048c-.682-.512-.938-1.579-.768-3.2.171-1.707.683-3.371 1.536-4.992.939-1.707 1.792-2.389 2.56-2.048zm12.288-8.832c.683-.256 1.451.469 2.304 2.176.939 1.621 1.494 3.243 1.664 4.864s-.042 2.731-.64 3.328c-.768.256-1.621-.427-2.56-2.048-.853-1.707-1.365-3.371-1.536-4.992s.086-2.731.768-3.328zm8.576-.896c.683.512.939 1.621.768 3.328-.17 1.621-.725 3.285-1.664 4.992-.853 1.621-1.664 2.261-2.432 1.92-.682-.512-.938-1.579-.768-3.2.171-1.707.683-3.371 1.536-4.992.939-1.707 1.792-2.389 2.56-2.048zm-19.072.896c.768-.256 1.579.469 2.432 2.176.939 1.621 1.494 3.243 1.664 4.864s-.085 2.731-.768 3.328c-.768.256-1.621-.427-2.56-2.048-.853-1.707-1.365-3.371-1.536-4.992s.086-2.731.768-3.328zm5.248 9.344c-.426-.171-.682-.64-.768-1.408-.085-.853 0-1.792.256-2.816.256-1.109.555-2.133.896-3.072.427-1.024.896-1.792 1.408-2.304.598-.597 1.11-.811 1.536-.64.683.512.939 1.621.768 3.328-.17 1.621-.725 3.285-1.664 4.992-.853 1.621-1.664 2.261-2.432 1.92zm36.48 78.08c.768-.256 1.579.469 2.432 2.176.939 1.621 1.494 3.243 1.664 4.864s-.085 2.731-.768 3.328c-.768.256-1.578-.427-2.432-2.048-.853-1.707-1.408-3.371-1.664-4.992-.17-1.621.086-2.731.768-3.328zm8.704-.896c.598.512.811 1.579.64 3.2s-.725 3.285-1.664 4.992c-.853 1.621-1.664 2.304-2.432 2.048-.597-.597-.81-1.707-.64-3.328s.683-3.243 1.536-4.864c.939-1.707 1.792-2.389 2.56-2.048zm-19.072.896c.768-.256 1.579.469 2.432 2.176.854 1.621 1.366 3.243 1.536 4.864s-.042 2.731-.64 3.328c-.768.256-1.621-.427-2.56-2.048-.853-1.707-1.365-3.371-1.536-4.992s.086-2.731.768-3.328zm8.576-.896c.683.512.939 1.579.768 3.2s-.725 3.285-1.664 4.992c-.853 1.621-1.664 2.304-2.432 2.048-.426-.171-.682-.683-.768-1.536s0-1.792.256-2.816.555-2.005.896-2.944c.427-1.024.896-1.835 1.408-2.432.598-.597 1.11-.768 1.536-.512zm-19.072.896c.768-.256 1.579.469 2.432 2.176.939 1.621 1.494 3.243 1.664 4.864s-.085 2.731-.768 3.328c-.768.256-1.621-.427-2.56-2.048-.853-1.707-1.365-3.371-1.536-4.992s.086-2.731.768-3.328zm8.576-.896c.683.512.939 1.579.768 3.2s-.725 3.285-1.664 4.992c-.853 1.621-1.664 2.304-2.432 2.048-.426-.171-.682-.683-.768-1.536s0-1.792.256-2.816.598-2.005 1.024-2.944c.427-1.024.896-1.835 1.408-2.432s.982-.768 1.408-.512zm22.784-8.832c.768-.256 1.579.469 2.432 2.176.854 1.621 1.366 3.243 1.536 4.864.256 1.621.043 2.731-.64 3.328-.768.256-1.621-.427-2.56-2.048-.853-1.707-1.365-3.371-1.536-4.992s.086-2.731.768-3.328zm8.576-.896c.683.512.939 1.621.768 3.328-.17 1.621-.725 3.243-1.664 4.864-.853 1.621-1.664 2.304-2.432 2.048-.682-.512-.938-1.579-.768-3.2.256-1.707.811-3.371 1.664-4.992.854-1.707 1.664-2.389 2.432-2.048zm-19.072.896c.768-.256 1.579.469 2.432 2.176.939 1.621 1.494 3.243 1.664 4.864s-.085 2.731-.768 3.328c-.768.256-1.578-.427-2.432-2.048-.853-1.707-1.408-3.371-1.664-4.992-.17-1.621.086-2.731.768-3.328zm8.704-.896c.598.512.811 1.621.64 3.328-.17 1.621-.725 3.243-1.664 4.864-.853 1.621-1.664 2.304-2.432 2.048-.597-.512-.81-1.579-.64-3.2.171-1.707.683-3.371 1.536-4.992.939-1.707 1.792-2.389 2.56-2.048zm1.792-8.832c.768-.256 1.579.469 2.432 2.176.854 1.621 1.366 3.243 1.536 4.864.256 1.621.043 2.731-.64 3.328-.768.256-1.621-.427-2.56-2.048-.853-1.707-1.365-3.371-1.536-4.992s.086-2.731.768-3.328zm8.576-.896c.683.512.939 1.621.768 3.328-.17 1.621-.725 3.285-1.664 4.992-.853 1.621-1.664 2.261-2.432 1.92-.682-.512-.938-1.579-.768-3.2.256-1.707.811-3.371 1.664-4.992.854-1.707 1.664-2.389 2.432-2.048zm-19.072.896c.768-.256 1.579.469 2.432 2.176.939 1.621 1.494 3.243 1.664 4.864s-.085 2.731-.768 3.328c-.768.256-1.578-.427-2.432-2.048-.853-1.707-1.408-3.371-1.664-4.992-.17-1.621.086-2.731.768-3.328zm8.704-.896c.598.512.811 1.621.64 3.328-.17 1.621-.725 3.285-1.664 4.992-.853 1.621-1.621 2.261-2.304 1.92-.682-.512-.938-1.579-.768-3.2.171-1.707.683-3.371 1.536-4.992.939-1.707 1.792-2.389 2.56-2.048zm1.792-8.704c.768-.341 1.579.341 2.432 2.048.854 1.621 1.366 3.285 1.536 4.992.256 1.621.043 2.688-.64 3.2-.768.256-1.621-.427-2.56-2.048-.853-1.707-1.365-3.371-1.536-4.992s.086-2.688.768-3.2zm8.576-1.024c.683.512.939 1.621.768 3.328-.17 1.621-.725 3.285-1.664 4.992-.853 1.621-1.664 2.261-2.432 1.92-.682-.512-.938-1.579-.768-3.2.256-1.707.811-3.371 1.664-4.992s1.664-2.304 2.432-2.048zm-19.072 1.024c.768-.341 1.579.341 2.432 2.048.939 1.621 1.494 3.285 1.664 4.992.171 1.621-.085 2.688-.768 3.2-.768.256-1.578-.427-2.432-2.048-.853-1.707-1.408-3.371-1.664-4.992-.17-1.621.086-2.688.768-3.2zm8.704-1.024c.598.512.811 1.621.64 3.328-.17 1.621-.725 3.285-1.664 4.992-.853 1.621-1.621 2.261-2.304 1.92-.682-.512-.938-1.579-.768-3.2.171-1.707.683-3.371 1.536-4.992.939-1.621 1.792-2.304 2.56-2.048zm-8.704-8.704c.342-.171.683-.085 1.024.256.427.256.811.683 1.152 1.28.342.512.64 1.109.896 1.792.342.683.598 1.408.768 2.176s.256 1.493.256 2.176c.086.597.043 1.152-.128 1.664-.085.512-.298.811-.64.896-.768.341-1.578-.299-2.432-1.92-.853-1.707-1.408-3.371-1.664-4.992-.17-1.707.086-2.816.768-3.328zm8.704-1.024c.598.512.811 1.621.64 3.328-.17 1.621-.725 3.285-1.664 4.992-.853 1.621-1.621 2.261-2.304 1.92-.682-.512-.938-1.579-.768-3.2s.683-3.243 1.536-4.864c.939-1.707 1.792-2.432 2.56-2.176zm-19.072 1.024c.427-.171.896.043 1.408.64.598.512 1.067 1.28 1.408 2.304.427.939.768 1.963 1.024 3.072.256 1.024.342 1.963.256 2.816-.085.768-.341 1.237-.768 1.408-.768.341-1.621-.299-2.56-1.92-.853-1.707-1.365-3.371-1.536-4.992-.17-1.707.086-2.816.768-3.328zm8.576-1.024c.683.512.939 1.621.768 3.328-.17 1.621-.725 3.285-1.664 4.992-.853 1.621-1.664 2.261-2.432 1.92-.426-.171-.682-.64-.768-1.408-.085-.853 0-1.792.256-2.816s.555-2.005.896-2.944c.427-1.024.896-1.835 1.408-2.432.598-.597 1.11-.811 1.536-.64zm-19.072 1.024c.342-.171.683-.085 1.024.256.427.256.811.683 1.152 1.28.342.512.64 1.109.896 1.792.342.683.598 1.408.768 2.176s.256 1.493.256 2.176c.086.597.043 1.152-.128 1.664-.085.512-.298.811-.64.896-.768.341-1.621-.299-2.56-1.92-.853-1.707-1.365-3.371-1.536-4.992-.17-1.707.086-2.816.768-3.328zm8.576-1.024c.683.512.939 1.621.768 3.328-.17 1.621-.725 3.285-1.664 4.992-.853 1.621-1.664 2.261-2.432 1.92-.426-.171-.682-.64-.768-1.408-.085-.853 0-1.792.256-2.816s.598-2.005 1.024-2.944c.427-1.024.896-1.835 1.408-2.432s.982-.811 1.408-.64zm1.92-8.704c.768-.341 1.579.341 2.432 2.048.854 1.621 1.366 3.285 1.536 4.992.171 1.621-.042 2.688-.64 3.2-.768.341-1.621-.299-2.56-1.92-.853-1.707-1.365-3.371-1.536-4.992-.17-1.707.086-2.816.768-3.328zm8.576-1.024c.683.597.939 1.707.768 3.328s-.725 3.285-1.664 4.992c-.853 1.621-1.664 2.304-2.432 2.048-.426-.171-.682-.683-.768-1.536s0-1.792.256-2.816.555-2.005.896-2.944c.427-1.024.896-1.835 1.408-2.432.598-.597 1.11-.811 1.536-.64zm-19.072 1.024c.768-.341 1.579.341 2.432 2.048.939 1.621 1.494 3.285 1.664 4.992.171 1.621-.085 2.688-.768 3.2-.768.341-1.621-.299-2.56-1.92-.853-1.707-1.365-3.371-1.536-4.992-.17-1.707.086-2.816.768-3.328zm8.576-1.024c.683.597.939 1.707.768 3.328s-.725 3.285-1.664 4.992c-.853 1.621-1.664 2.304-2.432 2.048-.426-.171-.682-.683-.768-1.536s0-1.792.256-2.816.598-2.005 1.024-2.944c.427-1.024.896-1.835 1.408-2.432s.982-.811 1.408-.64zm22.784-18.432c.427-.171.896.043 1.408.64.598.597 1.067 1.408 1.408 2.432a17.13 17.13 0 0 1 1.024 2.944c.256 1.024.342 1.963.256 2.816s-.341 1.365-.768 1.536c-.768.256-1.621-.427-2.56-2.048-.853-1.707-1.365-3.371-1.536-4.992s.086-2.731.768-3.328zm8.576-.896c.683.512.939 1.579.768 3.2s-.725 3.285-1.664 4.992c-.853 1.621-1.664 2.304-2.432 2.048-.682-.597-.938-1.707-.768-3.328.256-1.621.811-3.243 1.664-4.864.854-1.707 1.664-2.389 2.432-2.048zm-8.576-8.832c.342-.085.683 0 1.024.256.427.256.768.683 1.024 1.28.342.512.64 1.152.896 1.92.342.683.598 1.408.768 2.176l.384 2.176c.086.597.043 1.152-.128 1.664-.085.427-.298.725-.64.896-.768.256-1.621-.427-2.56-2.048-.853-1.707-1.365-3.371-1.536-4.992s.086-2.731.768-3.328zm5.248 9.344c-.682-.512-.938-1.579-.768-3.2.256-1.707.811-3.371 1.664-4.992.854-1.707 1.664-2.389 2.432-2.048.683.512.939 1.621.768 3.328-.17 1.621-.725 3.243-1.664 4.864-.853 1.621-1.664 2.304-2.432 2.048zm-15.744-19.072c.768-.256 1.579.469 2.432 2.176.939 1.621 1.494 3.243 1.664 4.864s-.085 2.731-.768 3.328c-.768.256-1.578-.427-2.432-2.048-.853-1.707-1.408-3.371-1.664-4.992-.17-1.621.086-2.731.768-3.328zm8.704-.896c.598.512.811 1.621.64 3.328-.17 1.621-.725 3.285-1.664 4.992-.853 1.621-1.621 2.261-2.304 1.92-.682-.512-.938-1.579-.768-3.2.171-1.707.683-3.371 1.536-4.992.939-1.707 1.792-2.389 2.56-2.048zm-19.072.896c.768-.256 1.579.469 2.432 2.176.854 1.621 1.366 3.243 1.536 4.864s-.042 2.731-.64 3.328c-.768.256-1.621-.427-2.56-2.048-.853-1.707-1.365-3.371-1.536-4.992s.086-2.731.768-3.328zm8.576-.896c.683.512.939 1.621.768 3.328-.17 1.621-.725 3.285-1.664 4.992-.853 1.621-1.664 2.261-2.432 1.92-.426-.171-.682-.64-.768-1.408-.085-.853 0-1.792.256-2.816.256-1.109.555-2.133.896-3.072.427-1.024.896-1.792 1.408-2.304.598-.597 1.11-.811 1.536-.64zm-19.072.896c.768-.256 1.579.469 2.432 2.176.939 1.621 1.494 3.243 1.664 4.864s-.085 2.731-.768 3.328c-.768.256-1.621-.427-2.56-2.048-.853-1.707-1.365-3.371-1.536-4.992s.086-2.731.768-3.328zm8.576-.896c.683.512.939 1.621.768 3.328-.17 1.621-.725 3.285-1.664 4.992-.853 1.621-1.664 2.261-2.432 1.92-.426-.171-.682-.64-.768-1.408-.085-.853 0-1.792.256-2.816.256-1.109.598-2.133 1.024-3.072.427-1.024.896-1.792 1.408-2.304.512-.597.982-.811 1.408-.64z" class="B"/><path d="M262.169 199.632c.768-.256 1.579.469 2.432 2.176.939 1.621 1.494 3.243 1.664 4.864s-.085 2.731-.768 3.328c-.768.256-1.578-.427-2.432-2.048-.853-1.707-1.365-3.371-1.536-4.992s.043-2.731.64-3.328zm8.704-.896c.683.512.896 1.579.64 3.2-.17 1.621-.682 3.285-1.536 4.992-.853 1.621-1.664 2.304-2.432 2.048-.682-.597-.938-1.707-.768-3.328s.683-3.243 1.536-4.864c.939-1.707 1.792-2.389 2.56-2.048zm-19.072.896c.768-.256 1.579.469 2.432 2.176.854 1.621 1.366 3.243 1.536 4.864.256 1.621.043 2.731-.64 3.328-.768.256-1.621-.427-2.56-2.048-.853-1.707-1.365-3.371-1.536-4.992s.086-2.731.768-3.328zm8.576-.896c.683.512.939 1.579.768 3.2s-.725 3.285-1.664 4.992c-.853 1.621-1.664 2.304-2.432 2.048-.682-.597-.938-1.707-.768-3.328.256-1.621.811-3.243 1.664-4.864.854-1.707 1.664-2.389 2.432-2.048zm-19.072.896c.768-.256 1.579.469 2.432 2.176.939 1.621 1.494 3.243 1.664 4.864s-.085 2.731-.768 3.328c-.768.256-1.578-.427-2.432-2.048-.853-1.707-1.408-3.371-1.664-4.992-.17-1.621.086-2.731.768-3.328zm8.704-.896c.683.512.896 1.579.64 3.2-.17 1.621-.725 3.285-1.664 4.992-.853 1.621-1.621 2.304-2.304 2.048-.682-.597-.938-1.707-.768-3.328s.683-3.243 1.536-4.864c.939-1.707 1.792-2.389 2.56-2.048zm-19.072.896c.768-.256 1.579.469 2.432 2.176.854 1.621 1.366 3.243 1.536 4.864.256 1.621.043 2.731-.64 3.328-.768.256-1.621-.427-2.56-2.048-.853-1.707-1.365-3.371-1.536-4.992s.086-2.731.768-3.328zm8.576-.896c.427.171.683.683.768 1.536.086.768 0 1.664-.256 2.688s-.597 2.048-1.024 3.072c-.341.939-.81 1.707-1.408 2.304-.512.597-.981.811-1.408.64-.682-.597-.938-1.707-.768-3.328.256-1.621.811-3.243 1.664-4.864.854-1.707 1.664-2.389 2.432-2.048zm-50.304.896c.683-.256 1.451.469 2.304 2.176.939 1.621 1.494 3.243 1.664 4.864s-.042 2.731-.64 3.328c-.768.256-1.621-.427-2.56-2.048-.853-1.707-1.365-3.371-1.536-4.992s.086-2.731.768-3.328zm8.576-.896c.683.512.939 1.579.768 3.2s-.725 3.285-1.664 4.992c-.853 1.621-1.664 2.304-2.432 2.048-.426-.171-.682-.683-.768-1.536s0-1.792.256-2.816.555-2.005.896-2.944c.427-1.024.896-1.835 1.408-2.432.598-.597 1.11-.768 1.536-.512zm-19.072.896c.768-.256 1.579.469 2.432 2.176.939 1.621 1.494 3.243 1.664 4.864s-.085 2.731-.768 3.328c-.768.256-1.621-.427-2.56-2.048-.853-1.707-1.365-3.371-1.536-4.992s.086-2.731.768-3.328zm8.576-.896c.683.512.939 1.579.768 3.2s-.725 3.285-1.664 4.992c-.853 1.621-1.664 2.304-2.432 2.048-.426-.171-.682-.683-.768-1.536s0-1.792.256-2.816.555-2.005.896-2.944c.427-1.024.896-1.835 1.408-2.432.598-.597 1.11-.768 1.536-.512zm-18.944.896c.683-.256 1.451.469 2.304 2.176.939 1.621 1.494 3.243 1.664 4.864s-.085 2.731-.768 3.328c-.682.256-1.493-.427-2.432-2.048-.853-1.707-1.365-3.371-1.536-4.992s.086-2.731.768-3.328zm8.576-.896c.683.512.896 1.579.64 3.2-.17 1.621-.682 3.285-1.536 4.992-.853 1.621-1.664 2.304-2.432 2.048-.682-.597-.938-1.707-.768-3.328s.683-3.243 1.536-4.864c.939-1.707 1.792-2.389 2.56-2.048zm74.88-8.832c.768-.256 1.579.469 2.432 2.176.854 1.621 1.366 3.243 1.536 4.864.256 1.621.043 2.731-.64 3.328-.768.256-1.621-.427-2.56-2.048-.853-1.707-1.365-3.371-1.536-4.992s.086-2.731.768-3.328zm8.576-.896c.683.512.939 1.621.768 3.328-.17 1.621-.725 3.243-1.664 4.864-.853 1.621-1.664 2.304-2.432 2.048-.682-.512-.938-1.579-.768-3.2.256-1.707.811-3.371 1.664-4.992.854-1.707 1.664-2.389 2.432-2.048zm-19.072.896c.768-.256 1.579.469 2.432 2.176.939 1.621 1.494 3.243 1.664 4.864s-.085 2.731-.768 3.328c-.768.256-1.578-.427-2.432-2.048-.853-1.707-1.408-3.371-1.664-4.992-.17-1.621.086-2.731.768-3.328zm8.704-.896c.683.512.896 1.621.64 3.328-.17 1.621-.725 3.243-1.664 4.864-.853 1.621-1.621 2.304-2.304 2.048-.682-.512-.938-1.579-.768-3.2.171-1.707.683-3.371 1.536-4.992.939-1.707 1.792-2.389 2.56-2.048zm-71.296.896c.768-.256 1.579.469 2.432 2.176.939 1.621 1.494 3.243 1.664 4.864s-.085 2.731-.768 3.328c-.768.256-1.621-.427-2.56-2.048-.853-1.707-1.365-3.371-1.536-4.992s.086-2.731.768-3.328zm8.576-.896c.683.512.939 1.621.768 3.328-.17 1.621-.725 3.243-1.664 4.864-.853 1.621-1.664 2.304-2.432 2.048-.426-.171-.682-.64-.768-1.408-.085-.853 0-1.792.256-2.816.256-1.109.555-2.133.896-3.072.427-1.024.896-1.792 1.408-2.304.598-.597 1.11-.811 1.536-.64zm64.512-8.832c.427-.171.896.043 1.408.64.598.597 1.067 1.408 1.408 2.432a17.13 17.13 0 0 1 1.024 2.944c.256 1.024.342 1.963.256 2.816s-.341 1.365-.768 1.536c-.768.256-1.621-.427-2.56-2.048-.853-1.707-1.365-3.371-1.536-4.992s.086-2.731.768-3.328zm8.576-.896c.683.512.939 1.621.768 3.328-.17 1.621-.725 3.285-1.664 4.992-.853 1.621-1.664 2.261-2.432 1.92-.682-.512-.938-1.579-.768-3.2.256-1.707.811-3.371 1.664-4.992.854-1.707 1.664-2.389 2.432-2.048zm-19.072.896c.512-.171 1.024.043 1.536.64s.982 1.408 1.408 2.432a17.13 17.13 0 0 1 1.024 2.944c.256 1.024.342 1.963.256 2.816s-.384 1.365-.896 1.536c-.768.256-1.578-.427-2.432-2.048-.853-1.707-1.408-3.371-1.664-4.992-.17-1.621.086-2.731.768-3.328zm8.704-.896c.683.512.896 1.621.64 3.328-.17 1.621-.725 3.285-1.664 4.992-.853 1.621-1.621 2.261-2.304 1.92-.682-.512-.938-1.579-.768-3.2.171-1.707.683-3.371 1.536-4.992.939-1.707 1.792-2.389 2.56-2.048zm-71.296.896c.427-.171.896.043 1.408.64.598.597 1.067 1.408 1.408 2.432a17.13 17.13 0 0 1 1.024 2.944c.256 1.024.342 1.963.256 2.816s-.341 1.365-.768 1.536c-.768.256-1.621-.427-2.56-2.048-.853-1.707-1.365-3.371-1.536-4.992s.086-2.731.768-3.328zm8.576-.896c.683.512.939 1.621.768 3.328-.17 1.621-.725 3.285-1.664 4.992-.853 1.621-1.664 2.261-2.432 1.92-.426-.171-.682-.64-.768-1.408-.085-.853 0-1.792.256-2.816.256-1.109.555-2.133.896-3.072.427-1.024.896-1.792 1.408-2.304.598-.597 1.11-.811 1.536-.64zm54.016-8.704c.512-.171 1.024.043 1.536.64.512.512.982 1.28 1.408 2.304.427.939.768 1.963 1.024 3.072.256 1.024.342 1.963.256 2.816-.085.768-.384 1.237-.896 1.408-.768.256-1.578-.427-2.432-2.048-.853-1.707-1.408-3.371-1.664-4.992-.17-1.621.086-2.688.768-3.2zm8.704-1.024c.683.512.896 1.621.64 3.328-.17 1.621-.725 3.285-1.664 4.992-.853 1.621-1.621 2.261-2.304 1.92-.682-.512-.938-1.579-.768-3.2.171-1.707.683-3.371 1.536-4.992.939-1.621 1.792-2.304 2.56-2.048zm-19.072 1.024c.427-.171.896.043 1.408.64.598.512 1.067 1.28 1.408 2.304.427.939.768 1.963 1.024 3.072.256 1.024.342 1.963.256 2.816-.085.768-.341 1.237-.768 1.408-.768.256-1.621-.427-2.56-2.048-.853-1.707-1.365-3.371-1.536-4.992s.086-2.688.768-3.2zm8.576-1.024c.342.085.555.384.64.896.171.512.214 1.109.128 1.792 0 .597-.085 1.28-.256 2.048s-.426 1.493-.768 2.176a13.11 13.11 0 0 1-.896 1.92c-.341.512-.725.939-1.152 1.28-.341.256-.682.299-1.024.128-.682-.512-.938-1.579-.768-3.2.256-1.707.811-3.371 1.664-4.992s1.664-2.304 2.432-2.048zm-19.072 1.024c.512-.171 1.024.043 1.536.64.512.512.982 1.28 1.408 2.304.427.939.726 1.963.896 3.072.256 1.024.342 1.963.256 2.816 0 .768-.256 1.237-.768 1.408-.768.256-1.578-.427-2.432-2.048-.853-1.707-1.408-3.371-1.664-4.992-.17-1.621.086-2.688.768-3.2zm8.704-1.024c.683.512.896 1.621.64 3.328-.17 1.621-.725 3.285-1.664 4.992-.853 1.621-1.621 2.261-2.304 1.92-.682-.512-.938-1.579-.768-3.2.171-1.707.683-3.371 1.536-4.992.939-1.621 1.792-2.304 2.56-2.048zm-19.072 1.024c.427-.171.896.043 1.408.64.598.512 1.067 1.28 1.408 2.304.427.939.768 1.963 1.024 3.072.256 1.024.342 1.963.256 2.816-.085.768-.341 1.237-.768 1.408-.768.256-1.621-.427-2.56-2.048-.853-1.707-1.365-3.371-1.536-4.992s.086-2.688.768-3.2zm8.576-1.024c.683.512.939 1.621.768 3.328-.17 1.621-.725 3.285-1.664 4.992-.853 1.621-1.664 2.261-2.432 1.92-.682-.512-.938-1.579-.768-3.2.171-1.707.683-3.371 1.536-4.992.939-1.621 1.792-2.304 2.56-2.048zm-19.072 1.024c.342-.171.683-.085 1.024.256.427.256.811.683 1.152 1.28.342.512.64 1.109.896 1.792.342.683.598 1.408.768 2.176s.256 1.493.256 2.176c.086.597.043 1.152-.128 1.664-.085.512-.298.811-.64.896-.768.256-1.621-.427-2.56-2.048-.853-1.707-1.365-3.371-1.536-4.992s.086-2.688.768-3.2zm8.704-1.024c.598.512.811 1.621.64 3.328-.17 1.621-.725 3.285-1.664 4.992-.853 1.621-1.664 2.261-2.432 1.92-.597-.512-.81-1.579-.64-3.2.171-1.707.683-3.371 1.536-4.992.939-1.621 1.792-2.304 2.56-2.048zm-19.072 1.024c.427-.171.896.043 1.408.64.598.512 1.067 1.28 1.408 2.304.427.939.768 1.963 1.024 3.072.256 1.024.342 1.963.256 2.816-.085.768-.341 1.237-.768 1.408-.768.256-1.621-.427-2.56-2.048-.853-1.707-1.365-3.371-1.536-4.992s.086-2.688.768-3.2zm8.576-1.024c.683.512.939 1.621.768 3.328-.17 1.621-.725 3.285-1.664 4.992-.853 1.621-1.664 2.261-2.432 1.92-.426-.171-.682-.64-.768-1.408-.085-.853 0-1.792.256-2.816s.555-2.005.896-2.944c.427-1.024.896-1.835 1.408-2.432.598-.597 1.11-.811 1.536-.64zm43.52-8.704c.768-.341 1.579.341 2.432 2.048.939 1.621 1.494 3.285 1.664 4.992.171 1.621-.085 2.688-.768 3.2-.426.171-.938-.043-1.536-.64-.512-.597-.981-1.365-1.408-2.304l-.896-3.072c-.256-1.024-.341-1.92-.256-2.688.086-.853.342-1.365.768-1.536zm8.704-1.024c.683.512.896 1.621.64 3.328-.17 1.621-.725 3.285-1.664 4.992-.853 1.621-1.621 2.261-2.304 1.92-.682-.512-.938-1.579-.768-3.2s.683-3.243 1.536-4.864c.939-1.707 1.792-2.432 2.56-2.176zm-19.072 1.024c.768-.341 1.579.341 2.432 2.048.854 1.621 1.366 3.285 1.536 4.992.256 1.621.043 2.688-.64 3.2-.512.171-1.024-.043-1.536-.64s-.981-1.365-1.408-2.304a21.7 21.7 0 0 1-1.024-3.072c-.256-1.024-.341-1.92-.256-2.688.086-.853.384-1.365.896-1.536zm8.576-1.024c.512.171.768.683.768 1.536.086.853 0 1.792-.256 2.816s-.597 2.048-1.024 3.072c-.341.939-.81 1.707-1.408 2.304-.512.512-.981.683-1.408.512-.682-.512-.938-1.579-.768-3.2.256-1.621.811-3.243 1.664-4.864.854-1.707 1.664-2.432 2.432-2.176zm-50.304 1.024c.683-.341 1.451.341 2.304 2.048.939 1.621 1.494 3.285 1.664 4.992.171 1.621-.042 2.688-.64 3.2-.512.171-1.024-.043-1.536-.64s-.981-1.365-1.408-2.304a21.7 21.7 0 0 1-1.024-3.072c-.256-1.024-.341-1.92-.256-2.688.086-.853.384-1.365.896-1.536zm8.576-1.024c.683.512.939 1.621.768 3.328-.17 1.621-.725 3.285-1.664 4.992-.853 1.621-1.664 2.261-2.432 1.92-.426-.171-.682-.64-.768-1.408-.085-.853 0-1.792.256-2.816s.555-2.005.896-2.944c.427-1.024.896-1.835 1.408-2.432.598-.597 1.11-.811 1.536-.64zm43.52-8.704c.512-.171 1.024.043 1.536.64s.982 1.408 1.408 2.432a17.13 17.13 0 0 1 1.024 2.944c.256 1.024.342 1.963.256 2.816-.085.768-.384 1.237-.896 1.408-.768.341-1.578-.299-2.432-1.92-.853-1.707-1.408-3.371-1.664-4.992-.17-1.707.086-2.816.768-3.328zm8.704-1.024c.683.597.896 1.707.64 3.328-.17 1.621-.725 3.285-1.664 4.992-.853 1.621-1.621 2.304-2.304 2.048-.682-.597-.938-1.707-.768-3.328s.683-3.243 1.536-4.864c.939-1.707 1.792-2.432 2.56-2.176zm-19.072 1.024c.427-.171.896.043 1.408.64.598.597 1.067 1.408 1.408 2.432a17.13 17.13 0 0 1 1.024 2.944c.256 1.024.342 1.963.256 2.816-.085.768-.341 1.237-.768 1.408-.768.341-1.621-.299-2.56-1.92-.853-1.707-1.365-3.371-1.536-4.992-.17-1.707.086-2.816.768-3.328zm8.576-1.024c.342.171.555.512.64 1.024.171.427.214.981.128 1.664 0 .597-.085 1.28-.256 2.048s-.426 1.536-.768 2.304a13.11 13.11 0 0 1-.896 1.92c-.341.512-.725.896-1.152 1.152-.341.256-.682.341-1.024.256-.682-.597-.938-1.707-.768-3.328.256-1.621.811-3.243 1.664-4.864.854-1.707 1.664-2.432 2.432-2.176zm-50.304 1.024c.427-.171.896.043 1.408.64.598.597 1.067 1.408 1.408 2.432a17.13 17.13 0 0 1 1.024 2.944c.256 1.024.342 1.963.256 2.816-.085.768-.341 1.237-.768 1.408-.768.341-1.621-.299-2.56-1.92-.853-1.707-1.365-3.371-1.536-4.992-.17-1.707.086-2.816.768-3.328zm8.576-1.024c.683.597.939 1.707.768 3.328s-.725 3.285-1.664 4.992c-.853 1.621-1.664 2.304-2.432 2.048-.426-.171-.682-.683-.768-1.536s0-1.792.256-2.816.555-2.005.896-2.944c.427-1.024.896-1.835 1.408-2.432.598-.597 1.11-.811 1.536-.64zm33.152-8.704c.768-.256 1.579.469 2.432 2.176.854 1.621 1.366 3.243 1.536 4.864.256 1.621.043 2.688-.64 3.2-.768.341-1.621-.299-2.56-1.92-.853-1.707-1.365-3.371-1.536-4.992-.17-1.707.086-2.816.768-3.328zm8.576-1.024c.512.171.768.683.768 1.536.086.853 0 1.792-.256 2.816s-.597 2.048-1.024 3.072c-.341.939-.81 1.707-1.408 2.304-.512.597-.981.811-1.408.64-.682-.597-.938-1.707-.768-3.328.256-1.621.811-3.243 1.664-4.864.854-1.707 1.664-2.432 2.432-2.176zm-19.072 1.024c.768-.256 1.579.469 2.432 2.176.939 1.621 1.494 3.243 1.664 4.864s-.085 2.688-.768 3.2c-.768.341-1.578-.299-2.432-1.92-.853-1.707-1.408-3.371-1.664-4.992-.17-1.707.086-2.816.768-3.328zm8.704-1.024c.683.597.896 1.707.64 3.328-.17 1.621-.725 3.285-1.664 4.992-.853 1.621-1.621 2.304-2.304 2.048-.682-.597-.938-1.707-.768-3.328s.683-3.243 1.536-4.864c.939-1.707 1.792-2.432 2.56-2.176zm-29.568 1.024c.768-.256 1.579.469 2.432 2.176.939 1.621 1.494 3.243 1.664 4.864s-.085 2.688-.768 3.2c-.768.341-1.621-.299-2.56-1.92-.853-1.707-1.365-3.371-1.536-4.992-.17-1.707.086-2.816.768-3.328zm8.704-1.024c.598.597.811 1.707.64 3.328s-.725 3.285-1.664 4.992c-.853 1.621-1.664 2.304-2.432 2.048-.597-.597-.81-1.707-.64-3.328s.683-3.243 1.536-4.864c.939-1.707 1.792-2.432 2.56-2.176zm22.656-8.704c.427-.171.896.043 1.408.64.598.597 1.067 1.408 1.408 2.432a17.13 17.13 0 0 1 1.024 2.944c.256 1.024.342 1.963.256 2.816s-.341 1.365-.768 1.536c-.768.256-1.621-.427-2.56-2.048-.853-1.707-1.365-3.371-1.536-4.992s.086-2.731.768-3.328zm8.576-.896c.512.171.768.683.768 1.536.086.768 0 1.664-.256 2.688s-.597 2.048-1.024 3.072c-.341.939-.81 1.707-1.408 2.304-.512.597-.981.811-1.408.64-.682-.597-.938-1.707-.768-3.328.256-1.621.811-3.243 1.664-4.864.854-1.707 1.664-2.389 2.432-2.048zm-19.072.896c.512-.171 1.024.043 1.536.64s.982 1.408 1.408 2.432c.427.939.726 1.92.896 2.944.256 1.024.342 1.963.256 2.816 0 .853-.256 1.365-.768 1.536-.768.256-1.578-.427-2.432-2.048-.853-1.707-1.408-3.371-1.664-4.992-.17-1.621.086-2.731.768-3.328zm8.704-.896c.683.512.896 1.579.64 3.2-.17 1.621-.725 3.285-1.664 4.992-.853 1.621-1.621 2.304-2.304 2.048-.682-.597-.938-1.707-.768-3.328s.683-3.243 1.536-4.864c.939-1.707 1.792-2.389 2.56-2.048zm-29.568.896c.512-.171 1.024.043 1.536.64s.939 1.408 1.28 2.432a17.13 17.13 0 0 1 1.024 2.944c.256 1.024.342 1.963.256 2.816s-.341 1.365-.768 1.536c-.768.256-1.621-.427-2.56-2.048-.853-1.707-1.365-3.371-1.536-4.992s.086-2.731.768-3.328zm8.704-.896c.598.512.811 1.579.64 3.2s-.725 3.285-1.664 4.992c-.853 1.621-1.664 2.304-2.432 2.048-.597-.597-.81-1.707-.64-3.328s.683-3.243 1.536-4.864c.939-1.707 1.792-2.389 2.56-2.048zm12.16-8.832c.768-.256 1.579.469 2.432 2.176.939 1.621 1.494 3.243 1.664 4.864s-.085 2.731-.768 3.328c-.768.256-1.578-.427-2.432-2.048-.853-1.707-1.408-3.371-1.664-4.992-.17-1.621.086-2.731.768-3.328zm8.704-.896c.683.512.896 1.621.64 3.328-.17 1.621-.725 3.243-1.664 4.864-.853 1.621-1.621 2.304-2.304 2.048-.682-.512-.938-1.579-.768-3.2.171-1.707.683-3.371 1.536-4.992.939-1.707 1.792-2.389 2.56-2.048zm-19.072.896c.768-.256 1.579.469 2.432 2.176.854 1.621 1.366 3.243 1.536 4.864.256 1.621.043 2.731-.64 3.328-.768.256-1.621-.427-2.56-2.048-.853-1.707-1.365-3.371-1.536-4.992s.086-2.731.768-3.328zm8.576-.896c.683.512.939 1.621.768 3.328-.17 1.621-.725 3.243-1.664 4.864-.853 1.621-1.664 2.304-2.432 2.048-.682-.512-.938-1.579-.768-3.2.171-1.707.683-3.371 1.536-4.992.939-1.707 1.792-2.389 2.56-2.048zm1.792-8.832c.768-.256 1.579.469 2.432 2.176.939 1.621 1.494 3.243 1.664 4.864s-.085 2.731-.768 3.328c-.768.256-1.578-.427-2.432-2.048-.853-1.707-1.408-3.371-1.664-4.992-.17-1.621.086-2.731.768-3.328zm8.704-.896c.683.512.896 1.621.64 3.328-.17 1.621-.725 3.285-1.664 4.992-.853 1.621-1.621 2.261-2.304 1.92-.682-.512-.938-1.579-.768-3.2.171-1.707.683-3.371 1.536-4.992.939-1.707 1.792-2.389 2.56-2.048zm-19.072.896c.768-.256 1.579.469 2.432 2.176.854 1.621 1.366 3.243 1.536 4.864.256 1.621.043 2.731-.64 3.328-.768.256-1.621-.427-2.56-2.048-.853-1.707-1.365-3.371-1.536-4.992s.086-2.731.768-3.328zm8.576-.896c.683.512.939 1.621.768 3.328-.17 1.621-.725 3.285-1.664 4.992-.853 1.621-1.664 2.261-2.432 1.92-.682-.512-.938-1.579-.768-3.2.171-1.707.683-3.371 1.536-4.992.939-1.707 1.792-2.389 2.56-2.048z" class="B"/><path d="M154.856 199.632c.768-.256 1.579.469 2.432 2.176.939 1.621 1.494 3.243 1.664 4.864s-.085 2.731-.768 3.328c-.768.256-1.578-.427-2.432-2.048-.853-1.707-1.408-3.371-1.664-4.992-.17-1.621.086-2.731.768-3.328zm8.704-.896c.683.512.896 1.579.64 3.2-.17 1.621-.725 3.285-1.664 4.992-.853 1.621-1.621 2.304-2.304 2.048-.682-.597-.938-1.707-.768-3.328s.683-3.243 1.536-4.864c.939-1.707 1.792-2.389 2.56-2.048zm-19.072.896c.768-.256 1.579.469 2.432 2.176.854 1.621 1.366 3.243 1.536 4.864.256 1.621.043 2.731-.64 3.328-.768.256-1.621-.427-2.56-2.048-.853-1.707-1.365-3.371-1.536-4.992s.086-2.731.768-3.328zm8.576-.896c.683.512.939 1.579.768 3.2s-.725 3.285-1.664 4.992c-.853 1.621-1.664 2.304-2.432 2.048-.682-.597-.938-1.707-.768-3.328.256-1.621.811-3.243 1.664-4.864.854-1.707 1.664-2.389 2.432-2.048zm-19.072.896c.768-.256 1.579.469 2.432 2.176.939 1.621 1.494 3.243 1.664 4.864s-.085 2.731-.768 3.328c-.768.256-1.578-.427-2.432-2.048-.853-1.707-1.408-3.371-1.664-4.992-.17-1.621.086-2.731.768-3.328zm8.704-.896c.598.512.811 1.579.64 3.2s-.725 3.285-1.664 4.992c-.853 1.621-1.664 2.304-2.432 2.048-.597-.597-.81-1.707-.64-3.328s.683-3.243 1.536-4.864c.939-1.707 1.792-2.389 2.56-2.048zm-19.072.896c.768-.256 1.579.469 2.432 2.176.854 1.621 1.366 3.243 1.536 4.864s-.042 2.731-.64 3.328c-.768.256-1.621-.427-2.56-2.048-.853-1.707-1.365-3.371-1.536-4.992s.086-2.731.768-3.328zm8.576-.896c.683.512.939 1.579.768 3.2s-.725 3.285-1.664 4.992c-.853 1.621-1.664 2.304-2.432 2.048-.682-.597-.938-1.707-.768-3.328s.683-3.243 1.536-4.864c.939-1.707 1.792-2.389 2.56-2.048zm-19.072.896c.768-.256 1.579.469 2.432 2.176.939 1.621 1.494 3.243 1.664 4.864s-.085 2.731-.768 3.328c-.768.256-1.621-.427-2.56-2.048-.853-1.707-1.365-3.371-1.536-4.992s.086-2.731.768-3.328zm8.576-.896c.683.512.939 1.579.768 3.2s-.725 3.285-1.664 4.992c-.853 1.621-1.664 2.304-2.432 2.048-.597-.597-.81-1.707-.64-3.328s.683-3.243 1.536-4.864c.939-1.707 1.75-2.389 2.432-2.048zm-18.944.896c.683-.256 1.451.469 2.304 2.176.939 1.621 1.494 3.243 1.664 4.864s-.042 2.731-.64 3.328c-.768.256-1.621-.427-2.56-2.048-.853-1.707-1.365-3.371-1.536-4.992s.086-2.731.768-3.328zm8.576-.896c.683.512.939 1.579.768 3.2s-.725 3.285-1.664 4.992c-.853 1.621-1.664 2.304-2.432 2.048-.682-.597-.938-1.707-.768-3.328s.683-3.243 1.536-4.864c.939-1.707 1.792-2.389 2.56-2.048zm-19.072.896c.768-.256 1.579.469 2.432 2.176.939 1.621 1.493 3.243 1.664 4.864s-.085 2.731-.768 3.328c-.768.256-1.621-.427-2.56-2.048-.853-1.707-1.365-3.371-1.536-4.992s.085-2.731.768-3.328zm8.576-.896c.683.512.939 1.579.768 3.2s-.725 3.285-1.664 4.992c-.853 1.621-1.664 2.304-2.432 2.048-.683-.597-.939-1.707-.768-3.328.256-1.621.811-3.243 1.664-4.864.939-1.707 1.75-2.389 2.432-2.048zm-18.944.896c.683-.256 1.451.469 2.304 2.176.939 1.621 1.493 3.243 1.664 4.864s-.085 2.731-.768 3.328c-.683.256-1.493-.427-2.432-2.048-.853-1.707-1.365-3.371-1.536-4.992s.085-2.731.768-3.328zm8.576-.896c.427.171.683.683.768 1.536.085.768 0 1.664-.256 2.688a21.61 21.61 0 0 1-1.024 3.072c-.341.939-.811 1.707-1.408 2.304-.512.597-.981.811-1.408.64-.341-.171-.597-.469-.768-.896-.085-.512-.128-1.067-.128-1.664a23.53 23.53 0 0 1 .384-2.176 16.22 16.22 0 0 1 .64-2.176 16.72 16.72 0 0 1 1.024-1.792c.341-.597.683-1.024 1.024-1.28.427-.341.811-.427 1.152-.256zm64.384-8.832c.768-.256 1.579.469 2.432 2.176.939 1.621 1.494 3.243 1.664 4.864s-.085 2.731-.768 3.328c-.768.256-1.578-.427-2.432-2.048-.853-1.707-1.408-3.371-1.664-4.992-.17-1.621.086-2.731.768-3.328zm8.704-.896c.683.512.896 1.621.64 3.328-.17 1.621-.725 3.243-1.664 4.864-.853 1.621-1.621 2.304-2.304 2.048-.682-.512-.938-1.579-.768-3.2.171-1.707.683-3.371 1.536-4.992.939-1.707 1.792-2.389 2.56-2.048zm-60.8.896c.683-.256 1.451.469 2.304 2.176.939 1.621 1.494 3.243 1.664 4.864s-.042 2.731-.64 3.328c-.768.256-1.621-.427-2.56-2.048-.853-1.707-1.365-3.371-1.536-4.992s.086-2.731.768-3.328zm8.576-.896c.683.512.939 1.621.768 3.328-.17 1.621-.725 3.243-1.664 4.864-.853 1.621-1.664 2.304-2.432 2.048-.682-.512-.938-1.579-.768-3.2.171-1.707.683-3.371 1.536-4.992.939-1.707 1.792-2.389 2.56-2.048zm-19.072.896c.768-.256 1.579.469 2.432 2.176.939 1.621 1.493 3.243 1.664 4.864s-.085 2.731-.768 3.328c-.768.256-1.621-.427-2.56-2.048-.853-1.707-1.365-3.371-1.536-4.992s.085-2.731.768-3.328zm8.576-.896c.683.512.939 1.621.768 3.328-.17 1.621-.725 3.243-1.664 4.864-.853 1.621-1.664 2.304-2.432 2.048-.683-.512-.939-1.579-.768-3.2.256-1.707.811-3.371 1.664-4.992.939-1.707 1.75-2.389 2.432-2.048zm53.248-7.296c.086-.853.342-1.365.768-1.536.512-.171 1.024.043 1.536.64s.982 1.408 1.408 2.432a17.13 17.13 0 0 1 1.024 2.944c.256 1.024.342 1.963.256 2.816s-.384 1.365-.896 1.536c-.426.171-.938-.043-1.536-.64-.512-.597-.981-1.365-1.408-2.304l-.896-3.072c-.256-1.024-.341-1.963-.256-2.816zm9.472-2.432c.683.512.896 1.621.64 3.328-.17 1.621-.725 3.285-1.664 4.992-.853 1.621-1.621 2.261-2.304 1.92-.682-.512-.938-1.579-.768-3.2.171-1.707.683-3.371 1.536-4.992.939-1.707 1.792-2.389 2.56-2.048zm-61.696 2.432c.086-.853.342-1.365.768-1.536.512-.171 1.024.043 1.536.64.598.597 1.067 1.408 1.408 2.432a17.13 17.13 0 0 1 1.024 2.944c.256 1.024.342 1.963.256 2.816s-.384 1.365-.896 1.536c-.426.171-.896-.043-1.408-.64s-.981-1.365-1.408-2.304a21.7 21.7 0 0 1-1.024-3.072c-.256-1.024-.341-1.963-.256-2.816zm9.472-2.432c.683.512.939 1.621.768 3.328-.17 1.621-.725 3.285-1.664 4.992-.853 1.621-1.664 2.261-2.432 1.92-.682-.512-.938-1.579-.768-3.2.171-1.707.683-3.371 1.536-4.992.939-1.707 1.792-2.389 2.56-2.048zm-19.072.896c.341-.085.683.043 1.024.384.427.256.811.683 1.152 1.28.341.512.64 1.109.896 1.792s.469 1.408.64 2.176c.256.768.384 1.493.384 2.176.085.597.043 1.152-.128 1.664-.085.427-.299.725-.64.896-.427.171-.939-.043-1.536-.64-.512-.597-.981-1.365-1.408-2.304l-.896-3.072c-.256-1.024-.341-1.963-.256-2.816s.341-1.365.768-1.536zm8.576-.896c.683.512.939 1.621.768 3.328-.17 1.621-.725 3.285-1.664 4.992-.853 1.621-1.664 2.261-2.432 1.92-.683-.512-.939-1.579-.768-3.2.256-1.707.811-3.371 1.664-4.992.939-1.707 1.75-2.389 2.432-2.048zm1.92-8.704c.683-.341 1.451.341 2.304 2.048.939 1.621 1.494 3.285 1.664 4.992.171 1.621-.042 2.688-.64 3.2-.768.256-1.621-.427-2.56-2.048-.853-1.707-1.365-3.371-1.536-4.992s.086-2.688.768-3.2zm8.576-1.024c.683.512.939 1.621.768 3.328-.17 1.621-.725 3.285-1.664 4.992-.853 1.621-1.664 2.261-2.432 1.92-.682-.512-.938-1.579-.768-3.2.171-1.707.683-3.371 1.536-4.992.939-1.621 1.792-2.304 2.56-2.048zm-19.072 1.024c.768-.341 1.579.341 2.432 2.048.939 1.621 1.493 3.285 1.664 4.992.171 1.621-.085 2.688-.768 3.2-.768.256-1.621-.427-2.56-2.048-.853-1.707-1.365-3.371-1.536-4.992s.085-2.688.768-3.2zm8.576-1.024c.683.512.939 1.621.768 3.328-.17 1.621-.725 3.285-1.664 4.992-.853 1.621-1.664 2.261-2.432 1.92-.683-.512-.939-1.579-.768-3.2.256-1.707.811-3.371 1.664-4.992.939-1.621 1.75-2.304 2.432-2.048zm33.152-8.704c.768-.341 1.579.341 2.432 2.048.939 1.621 1.494 3.285 1.664 4.992.171 1.621-.085 2.688-.768 3.2-.768.341-1.578-.299-2.432-1.92-.853-1.707-1.408-3.371-1.664-4.992-.17-1.707.086-2.816.768-3.328zm8.704-1.024c.598.512.811 1.621.64 3.328-.17 1.621-.725 3.285-1.664 4.992-.853 1.621-1.664 2.261-2.432 1.92-.597-.512-.81-1.579-.64-3.2s.683-3.243 1.536-4.864c.939-1.707 1.792-2.432 2.56-2.176zm-39.936 1.024c.683-.341 1.451.341 2.304 2.048.939 1.621 1.494 3.285 1.664 4.992.171 1.621-.042 2.688-.64 3.2-.768.341-1.621-.299-2.56-1.92-.853-1.707-1.365-3.371-1.536-4.992-.17-1.707.086-2.816.768-3.328zm8.576-1.024c.683.512.939 1.621.768 3.328-.17 1.621-.725 3.285-1.664 4.992-.853 1.621-1.664 2.261-2.432 1.92-.682-.512-.938-1.579-.768-3.2s.683-3.243 1.536-4.864c.939-1.707 1.792-2.432 2.56-2.176zm-19.072 1.024c.768-.341 1.579.341 2.432 2.048.939 1.621 1.493 3.285 1.664 4.992.171 1.621-.085 2.688-.768 3.2-.768.341-1.621-.299-2.56-1.92-.853-1.707-1.365-3.371-1.536-4.992-.171-1.707.085-2.816.768-3.328zm8.576-1.024c.683.512.939 1.621.768 3.328-.17 1.621-.725 3.285-1.664 4.992-.853 1.621-1.664 2.261-2.432 1.92-.683-.512-.939-1.579-.768-3.2.256-1.621.811-3.243 1.664-4.864.939-1.707 1.75-2.432 2.432-2.176zm33.152-8.704c.768-.341 1.579.341 2.432 2.048.939 1.621 1.494 3.285 1.664 4.992.171 1.621-.085 2.688-.768 3.2-.768.341-1.578-.299-2.432-1.92-.853-1.707-1.408-3.371-1.664-4.992-.17-1.707.086-2.816.768-3.328zm8.704-1.024c.683.597.896 1.707.64 3.328-.17 1.621-.725 3.285-1.664 4.992-.853 1.621-1.664 2.304-2.432 2.048-.597-.597-.81-1.707-.64-3.328s.683-3.243 1.536-4.864c.939-1.707 1.792-2.432 2.56-2.176zm-19.072 1.024c.768-.341 1.579.341 2.432 2.048.854 1.621 1.366 3.285 1.536 4.992.171 1.621-.042 2.688-.64 3.2-.768.341-1.621-.299-2.56-1.92-.853-1.707-1.365-3.371-1.536-4.992-.17-1.707.086-2.816.768-3.328zm8.576-1.024c.683.597.939 1.707.768 3.328s-.725 3.285-1.664 4.992c-.853 1.621-1.664 2.304-2.432 2.048-.682-.597-.938-1.707-.768-3.328s.683-3.243 1.536-4.864c.939-1.707 1.792-2.432 2.56-2.176zm-19.072 1.024c.768-.341 1.579.341 2.432 2.048.939 1.621 1.494 3.285 1.664 4.992.171 1.621-.085 2.688-.768 3.2-.768.341-1.621-.299-2.56-1.92-.853-1.707-1.365-3.371-1.536-4.992-.17-1.707.086-2.816.768-3.328zm8.704-1.024c.598.597.811 1.707.64 3.328s-.725 3.285-1.664 4.992c-.853 1.621-1.664 2.304-2.432 2.048-.597-.597-.81-1.707-.64-3.328s.683-3.243 1.536-4.864c.939-1.707 1.792-2.432 2.56-2.176zm-19.072 1.024c.683-.341 1.451.341 2.304 2.048.939 1.621 1.494 3.285 1.664 4.992.171 1.621-.042 2.688-.64 3.2-.768.341-1.621-.299-2.56-1.92-.853-1.707-1.365-3.371-1.536-4.992-.17-1.707.086-2.816.768-3.328zm8.576-1.024c.683.597.939 1.707.768 3.328s-.725 3.285-1.664 4.992c-.853 1.621-1.664 2.304-2.432 2.048-.682-.597-.938-1.707-.768-3.328s.683-3.243 1.536-4.864c.939-1.707 1.792-2.432 2.56-2.176zm-19.072 1.024c.768-.341 1.579.341 2.432 2.048.939 1.621 1.493 3.285 1.664 4.992.171 1.621-.085 2.688-.768 3.2-.768.341-1.621-.299-2.56-1.92-.853-1.707-1.365-3.371-1.536-4.992-.171-1.707.085-2.816.768-3.328zm8.576-1.024c.683.597.939 1.707.768 3.328s-.725 3.285-1.664 4.992c-.853 1.621-1.664 2.304-2.432 2.048-.683-.597-.939-1.707-.768-3.328.256-1.621.811-3.243 1.664-4.864.939-1.707 1.75-2.432 2.432-2.176zm33.152-8.704c.768-.256 1.579.469 2.432 2.176.939 1.621 1.494 3.243 1.664 4.864s-.085 2.688-.768 3.2c-.768.341-1.578-.299-2.432-1.92-.853-1.707-1.408-3.371-1.664-4.992-.17-1.707.086-2.816.768-3.328zm8.704-1.024c.683.597.896 1.707.64 3.328-.17 1.621-.725 3.285-1.664 4.992-.853 1.621-1.621 2.304-2.304 2.048-.682-.597-.938-1.707-.768-3.328s.683-3.243 1.536-4.864c.939-1.707 1.792-2.432 2.56-2.176zm-39.936 1.024c.683-.256 1.451.469 2.304 2.176.939 1.621 1.494 3.243 1.664 4.864s-.042 2.688-.64 3.2c-.768.341-1.621-.299-2.56-1.92-.853-1.707-1.365-3.371-1.536-4.992-.17-1.707.086-2.816.768-3.328zm8.576-1.024c.683.597.939 1.707.768 3.328s-.725 3.285-1.664 4.992c-.853 1.621-1.664 2.304-2.432 2.048-.682-.597-.938-1.707-.768-3.328s.683-3.243 1.536-4.864c.939-1.707 1.792-2.432 2.56-2.176zm-19.072 1.024c.768-.256 1.579.469 2.432 2.176.939 1.621 1.493 3.243 1.664 4.864s-.085 2.688-.768 3.2c-.768.341-1.621-.299-2.56-1.92-.853-1.707-1.365-3.371-1.536-4.992-.171-1.707.085-2.816.768-3.328zm8.576-1.024c.683.597.939 1.707.768 3.328s-.725 3.285-1.664 4.992c-.853 1.621-1.664 2.304-2.432 2.048-.683-.597-.939-1.707-.768-3.328.256-1.621.811-3.243 1.664-4.864.939-1.707 1.75-2.432 2.432-2.176zm1.92-8.704c.683-.256 1.451.469 2.304 2.176.939 1.621 1.494 3.243 1.664 4.864s-.042 2.731-.64 3.328c-.768.256-1.621-.427-2.56-2.048-.853-1.707-1.365-3.371-1.536-4.992s.086-2.731.768-3.328zm8.576-.896c.683.512.939 1.579.768 3.2s-.725 3.285-1.664 4.992c-.853 1.621-1.664 2.304-2.432 2.048-.682-.597-.938-1.707-.768-3.328s.683-3.243 1.536-4.864c.939-1.707 1.792-2.389 2.56-2.048zm-19.072.896c.768-.256 1.579.469 2.432 2.176.939 1.621 1.493 3.243 1.664 4.864s-.085 2.731-.768 3.328c-.768.256-1.621-.427-2.56-2.048-.853-1.707-1.365-3.371-1.536-4.992s.085-2.731.768-3.328zm8.576-.896c.683.512.939 1.579.768 3.2s-.725 3.285-1.664 4.992c-.853 1.621-1.664 2.304-2.432 2.048-.683-.597-.939-1.707-.768-3.328.256-1.621.811-3.243 1.664-4.864.939-1.707 1.75-2.389 2.432-2.048zm54.016-8.832c.512-.171 1.024.043 1.536.64s.982 1.408 1.408 2.432a17.13 17.13 0 0 1 1.024 2.944c.256 1.024.342 1.963.256 2.816s-.384 1.365-.896 1.536c-.768.256-1.578-.427-2.432-2.048-.853-1.707-1.408-3.371-1.664-4.992-.17-1.621.086-2.731.768-3.328zm8.704-.896c.683.512.896 1.621.64 3.328-.17 1.621-.725 3.243-1.664 4.864-.853 1.621-1.621 2.304-2.304 2.048-.682-.512-.938-1.579-.768-3.2.171-1.707.683-3.371 1.536-4.992.939-1.707 1.792-2.389 2.56-2.048zm-60.8.896c.427-.171.896.043 1.408.64.598.597 1.067 1.408 1.408 2.432a17.13 17.13 0 0 1 1.024 2.944c.256 1.024.342 1.963.256 2.816s-.341 1.365-.768 1.536c-.768.256-1.621-.427-2.56-2.048-.853-1.707-1.365-3.371-1.536-4.992s.086-2.731.768-3.328zm8.576-.896c.683.512.939 1.621.768 3.328-.17 1.621-.725 3.243-1.664 4.864-.853 1.621-1.664 2.304-2.432 2.048-.682-.512-.938-1.579-.768-3.2.171-1.707.683-3.371 1.536-4.992.939-1.707 1.792-2.389 2.56-2.048zm-19.072.896c.427-.171.896.043 1.408.64.597.597 1.067 1.408 1.408 2.432.427.939.768 1.92 1.024 2.944s.341 1.963.256 2.816-.341 1.365-.768 1.536c-.768.256-1.621-.427-2.56-2.048-.853-1.707-1.365-3.371-1.536-4.992s.085-2.731.768-3.328zm8.576-.896c.683.512.939 1.621.768 3.328-.17 1.621-.725 3.243-1.664 4.864-.853 1.621-1.664 2.304-2.432 2.048-.683-.512-.939-1.579-.768-3.2.256-1.707.811-3.371 1.664-4.992.939-1.707 1.75-2.389 2.432-2.048zm54.016-8.832c.768-.256 1.579.469 2.432 2.176.939 1.621 1.494 3.243 1.664 4.864s-.085 2.731-.768 3.328c-.768.256-1.578-.427-2.432-2.048-.853-1.707-1.408-3.371-1.664-4.992-.17-1.621.086-2.731.768-3.328zm5.376 9.344c-.512-.171-.81-.64-.896-1.408-.085-.853 0-1.792.256-2.816.256-1.109.598-2.133 1.024-3.072.427-1.024.896-1.792 1.408-2.304.512-.597 1.024-.811 1.536-.64.683.512.896 1.621.64 3.328-.17 1.621-.725 3.285-1.664 4.992-.853 1.621-1.621 2.261-2.304 1.92zm-15.744-9.344c.768-.256 1.579.469 2.432 2.176.854 1.621 1.366 3.243 1.536 4.864.256 1.621.043 2.731-.64 3.328-.768.256-1.621-.427-2.56-2.048-.853-1.707-1.365-3.371-1.536-4.992s.086-2.731.768-3.328zm8.576-.896c.683.512.939 1.621.768 3.328-.17 1.621-.725 3.285-1.664 4.992-.853 1.621-1.664 2.261-2.432 1.92-.682-.512-.938-1.579-.768-3.2.256-1.707.811-3.371 1.664-4.992.854-1.707 1.664-2.389 2.432-2.048zm-19.072.896c.768-.256 1.579.469 2.432 2.176.939 1.621 1.494 3.243 1.664 4.864s-.085 2.731-.768 3.328c-.768.256-1.578-.427-2.432-2.048-.853-1.707-1.408-3.371-1.664-4.992-.17-1.621.086-2.731.768-3.328zm8.704-.896c.683.512.896 1.621.64 3.328-.17 1.621-.725 3.285-1.664 4.992-.853 1.621-1.621 2.261-2.304 1.92-.682-.512-.938-1.579-.768-3.2.171-1.707.683-3.371 1.536-4.992.939-1.707 1.792-2.389 2.56-2.048zm-19.072.896c.768-.256 1.579.469 2.432 2.176.854 1.621 1.366 3.243 1.536 4.864s-.042 2.731-.64 3.328c-.768.256-1.621-.427-2.56-2.048-.853-1.707-1.365-3.371-1.536-4.992s.086-2.731.768-3.328zm8.576-.896c.683.512.939 1.621.768 3.328-.17 1.621-.725 3.285-1.664 4.992-.853 1.621-1.664 2.261-2.432 1.92-.682-.512-.938-1.579-.768-3.2.171-1.707.683-3.371 1.536-4.992.939-1.707 1.792-2.389 2.56-2.048zm-19.072.896c.768-.256 1.579.469 2.432 2.176.939 1.621 1.494 3.243 1.664 4.864s-.085 2.731-.768 3.328c-.768.256-1.621-.427-2.56-2.048-.853-1.707-1.365-3.371-1.536-4.992s.086-2.731.768-3.328zm8.704-.896c.598.512.811 1.621.64 3.328-.17 1.621-.725 3.285-1.664 4.992-.853 1.621-1.664 2.261-2.432 1.92-.597-.512-.81-1.579-.64-3.2.171-1.707.683-3.371 1.536-4.992.939-1.707 1.792-2.389 2.56-2.048zm-19.072.896c.683-.256 1.451.469 2.304 2.176.939 1.621 1.494 3.243 1.664 4.864s-.042 2.731-.64 3.328c-.768.256-1.621-.427-2.56-2.048-.853-1.707-1.365-3.371-1.536-4.992s.086-2.731.768-3.328zm8.576-.896c.683.512.939 1.621.768 3.328-.17 1.621-.725 3.285-1.664 4.992-.853 1.621-1.664 2.261-2.432 1.92-.682-.512-.938-1.579-.768-3.2.171-1.707.683-3.371 1.536-4.992.939-1.707 1.792-2.389 2.56-2.048zm-19.072.896c.768-.256 1.579.469 2.432 2.176.939 1.621 1.493 3.243 1.664 4.864s-.085 2.731-.768 3.328c-.768.256-1.621-.427-2.56-2.048-.853-1.707-1.365-3.371-1.536-4.992s.085-2.731.768-3.328zm8.576-.896c.683.512.939 1.621.768 3.328-.17 1.621-.725 3.285-1.664 4.992-.853 1.621-1.664 2.261-2.432 1.92-.683-.512-.939-1.579-.768-3.2.256-1.707.811-3.371 1.664-4.992.939-1.707 1.75-2.389 2.432-2.048zm-18.944.896c.683-.256 1.451.469 2.304 2.176.939 1.621 1.493 3.243 1.664 4.864s-.085 2.731-.768 3.328c-.683.256-1.493-.427-2.432-2.048-.853-1.707-1.365-3.371-1.536-4.992s.085-2.731.768-3.328zm8.576-.896c.341.085.555.384.64.896.171.512.213 1.109.128 1.792l-.384 2.048a9.41 9.41 0 0 1-.768 2.176c-.256.683-.555 1.323-.896 1.92-.256.512-.597.939-1.024 1.28-.341.256-.683.299-1.024.128-1.28-.427-1.323-2.432-.128-6.016 1.195-2.987 2.347-4.395 3.456-4.224z" class="B"/><path d="M58.243 132.304c-.768.256-1.579-.427-2.432-2.048-.853-1.707-1.408-3.371-1.664-4.992-.171-1.621.085-2.731.768-3.328.512-.171 1.024.043 1.536.64s.939 1.408 1.28 2.432c.427.939.768 1.92 1.024 2.944s.341 1.963.256 2.816-.341 1.365-.768 1.536zm1.92-1.024c-.597-.512-.811-1.579-.64-3.2.171-1.707.683-3.371 1.536-4.992.939-1.707 1.792-2.389 2.56-2.048.597.512.811 1.621.64 3.328-.171 1.621-.725 3.243-1.664 4.864-.853 1.621-1.664 2.304-2.432 2.048zm-43.648 68.992c-.768.256-1.621-.427-2.56-2.048-.853-1.707-1.365-3.371-1.536-4.992s.085-2.731.768-3.328c.768-.256 1.579.469 2.432 2.176.939 1.621 1.493 3.243 1.664 4.864s-.085 2.731-.768 3.328zm3.712-10.624c.597-.597 1.109-.811 1.536-.64.512.171.811.683.896 1.536.085.768 0 1.664-.256 2.688a21.61 21.61 0 0 1-1.024 3.072c-.427.939-.896 1.707-1.408 2.304s-1.024.811-1.536.64c-.427-.171-.683-.64-.768-1.408-.085-.853 0-1.792.256-2.816.256-1.109.555-2.133.896-3.072.427-1.024.896-1.792 1.408-2.304zm3.456 9.984c.683-.256 1.451.469 2.304 2.176.939 1.621 1.493 3.243 1.664 4.864s-.043 2.731-.64 3.328c-.768.256-1.621-.427-2.56-2.048-.853-1.707-1.365-3.371-1.536-4.992s.085-2.731.768-3.328zm8.576-.896c.683.512.939 1.579.768 3.2s-.725 3.285-1.664 4.992c-.853 1.621-1.664 2.304-2.432 2.048-.683-.597-.939-1.707-.768-3.328s.683-3.243 1.536-4.864c.939-1.707 1.792-2.389 2.56-2.048zm-19.072.896c.768-.256 1.579.469 2.432 2.176.939 1.621 1.493 3.243 1.664 4.864s-.085 2.731-.768 3.328c-.768.256-1.621-.427-2.56-2.048-.853-1.707-1.365-3.371-1.536-4.992s.085-2.731.768-3.328zm8.576-.896c.683.512.939 1.579.768 3.2s-.725 3.285-1.664 4.992c-.853 1.621-1.664 2.304-2.432 2.048-.427-.171-.683-.683-.768-1.536s0-1.792.256-2.816.555-2.005.896-2.944c.427-1.024.896-1.835 1.408-2.432.597-.597 1.109-.768 1.536-.512zm-18.944-8.832c.683-.256 1.451.469 2.304 2.176.939 1.621 1.493 3.243 1.664 4.864s-.085 2.731-.768 3.328c-.683.256-1.493-.427-2.432-2.048-.853-1.707-1.365-3.371-1.536-4.992s.085-2.731.768-3.328zm8.576-.896c.683.512.896 1.621.64 3.328-.171 1.621-.683 3.243-1.536 4.864s-1.664 2.304-2.432 2.048c-.683-.512-.939-1.579-.768-3.2.171-1.707.683-3.371 1.536-4.992.939-1.707 1.792-2.389 2.56-2.048zm-8.576-8.832c.683-.256 1.451.469 2.304 2.176.939 1.621 1.493 3.243 1.664 4.864s-.085 2.731-.768 3.328c-.683.256-1.493-.427-2.432-2.048-.853-1.707-1.365-3.371-1.536-4.992s.085-2.731.768-3.328zm8.576-.896c.683.512.896 1.621.64 3.328-.171 1.621-.683 3.285-1.536 4.992-.853 1.621-1.664 2.261-2.432 1.92-.683-.512-.939-1.579-.768-3.2.171-1.707.683-3.371 1.536-4.992.939-1.707 1.792-2.389 2.56-2.048zm12.288-18.432c.256-.171.555-.085.896.256.427.256.811.683 1.152 1.28.341.512.64 1.109.896 1.792a9.42 9.42 0 0 1 .768 2.176l.384 2.176c.085.597.043 1.152-.128 1.664s-.384.811-.64.896c-.768.341-1.621-.299-2.56-1.92-.853-1.707-1.365-3.371-1.536-4.992-.171-1.707.085-2.816.768-3.328zm8.576-1.024c.683.512.939 1.621.768 3.328-.171 1.621-.725 3.285-1.664 4.992-.853 1.621-1.664 2.261-2.432 1.92-.683-.512-.939-1.579-.768-3.2s.683-3.243 1.536-4.864c.939-1.707 1.792-2.432 2.56-2.176zm-8.576-8.704c.683-.341 1.451.341 2.304 2.048.939 1.621 1.493 3.285 1.664 4.992.171 1.621-.043 2.688-.64 3.2-.768.341-1.621-.299-2.56-1.92-.853-1.707-1.365-3.371-1.536-4.992-.171-1.707.085-2.816.768-3.328zm8.576-1.024c.683.597.939 1.707.768 3.328s-.725 3.285-1.664 4.992c-.853 1.621-1.664 2.304-2.432 2.048-.683-.597-.939-1.707-.768-3.328s.683-3.243 1.536-4.864c.939-1.707 1.792-2.432 2.56-2.176zm-19.072 1.024c.768-.341 1.579.341 2.432 2.048.939 1.621 1.493 3.285 1.664 4.992.171 1.621-.085 2.688-.768 3.2-.768.341-1.621-.299-2.56-1.92-.853-1.707-1.365-3.371-1.536-4.992-.171-1.707.085-2.816.768-3.328zm5.248 9.344c-.427-.171-.683-.683-.768-1.536s0-1.792.256-2.816.555-2.005.896-2.944c.427-1.024.896-1.835 1.408-2.432.597-.597 1.109-.811 1.536-.64.683.597.939 1.707.768 3.328s-.725 3.285-1.664 4.992c-.853 1.621-1.664 2.304-2.432 2.048zm-5.248-19.072c.768-.256 1.579.469 2.432 2.176.939 1.621 1.493 3.243 1.664 4.864s-.085 2.688-.768 3.2c-.768.341-1.621-.299-2.56-1.92-.853-1.707-1.365-3.371-1.536-4.992-.171-1.707.085-2.816.768-3.328zm5.248 9.344c-.427-.171-.683-.683-.768-1.536s0-1.792.256-2.816.555-2.005.896-2.944c.427-1.024.896-1.835 1.408-2.432.597-.597 1.109-.811 1.536-.64.683.597.939 1.707.768 3.328s-.725 3.285-1.664 4.992c-.853 1.621-1.664 2.304-2.432 2.048zm-15.616-9.344c.683-.256 1.451.469 2.304 2.176.939 1.621 1.493 3.243 1.664 4.864s-.085 2.688-.768 3.2c-.683.341-1.493-.299-2.432-1.92-.853-1.707-1.365-3.371-1.536-4.992-.171-1.707.085-2.816.768-3.328zm8.576-1.024c.683.597.896 1.707.64 3.328-.171 1.621-.683 3.285-1.536 4.992-.853 1.621-1.664 2.304-2.432 2.048-.683-.597-.939-1.707-.768-3.328s.683-3.243 1.536-4.864c.939-1.707 1.792-2.432 2.56-2.176zm1.792-8.704c.853-.341 1.792.555 2.816 2.688 1.451 3.157 1.792 5.504 1.024 7.04-.085.256-.256.469-.512.64-.768.256-1.621-.427-2.56-2.048-.853-1.707-1.365-3.371-1.536-4.992s.085-2.731.768-3.328zm5.248 9.344c-.427-.171-.683-.683-.768-1.536s0-1.792.256-2.816.555-2.005.896-2.944c.427-1.024.896-1.835 1.408-2.432.597-.597 1.109-.768 1.536-.512.683.512.939 1.579.768 3.2s-.725 3.285-1.664 4.992c-.853 1.621-1.664 2.304-2.432 2.048zm-15.616-9.344c.427-.171.896.043 1.408.64s.981 1.408 1.408 2.432a17.16 17.16 0 0 1 1.024 2.944c.256 1.024.341 1.963.256 2.816s-.384 1.365-.896 1.536c-.683.256-1.493-.427-2.432-2.048-.853-1.707-1.365-3.371-1.536-4.992s.085-2.731.768-3.328zm8.576-.896c.683.512.896 1.579.64 3.2-.171 1.621-.683 3.285-1.536 4.992-.853 1.621-1.664 2.304-2.432 2.048-.683-.597-.939-1.707-.768-3.328s.683-3.243 1.536-4.864c.939-1.707 1.792-2.389 2.56-2.048zm1.792-8.832c.853-.341 1.792.555 2.816 2.688 1.451 3.243 1.792 5.589 1.024 7.04-.085.341-.256.555-.512.64-.768.256-1.621-.427-2.56-2.048-.853-1.707-1.365-3.371-1.536-4.992s.085-2.731.768-3.328zm5.248 9.344c-.427-.171-.683-.64-.768-1.408-.085-.853 0-1.792.256-2.816.256-1.109.555-2.133.896-3.072.427-1.024.896-1.792 1.408-2.304.597-.597 1.109-.811 1.536-.64.683.512.939 1.621.768 3.328-.171 1.621-.725 3.243-1.664 4.864-.853 1.621-1.664 2.304-2.432 2.048zm-15.616-9.344c.256-.085.555 0 .896.256.427.256.811.683 1.152 1.28.341.512.64 1.152.896 1.92.341.683.597 1.408.768 2.176s.256 1.493.256 2.176c.085.597.043 1.152-.128 1.664-.085.427-.299.725-.64.896-.683.256-1.493-.427-2.432-2.048-.853-1.707-1.365-3.371-1.536-4.992s.085-2.731.768-3.328zm8.576-.896c.683.512.896 1.621.64 3.328-.171 1.621-.683 3.243-1.536 4.864s-1.664 2.304-2.432 2.048c-.683-.512-.939-1.579-.768-3.2.171-1.707.683-3.371 1.536-4.992.939-1.707 1.792-2.389 2.56-2.048zm12.288-8.832c.683-.256 1.451.469 2.304 2.176.939 1.621 1.493 3.243 1.664 4.864s-.043 2.731-.64 3.328c-.768.256-1.621-.427-2.56-2.048-.853-1.707-1.365-3.371-1.536-4.992s.085-2.731.768-3.328zm8.576-.896c.683.512.939 1.621.768 3.328-.171 1.621-.725 3.285-1.664 4.992-.853 1.621-1.664 2.261-2.432 1.92-.683-.512-.939-1.579-.768-3.2.171-1.707.683-3.371 1.536-4.992.939-1.707 1.792-2.389 2.56-2.048zm-19.072.896c.768-.256 1.579.469 2.432 2.176.939 1.621 1.493 3.243 1.664 4.864s-.085 2.731-.768 3.328c-.768.256-1.621-.427-2.56-2.048-.853-1.707-1.365-3.371-1.536-4.992s.085-2.731.768-3.328zm5.248 9.344c-.427-.171-.683-.64-.768-1.408-.085-.853 0-1.792.256-2.816.256-1.109.555-2.133.896-3.072.427-1.024.896-1.792 1.408-2.304.597-.597 1.109-.811 1.536-.64.683.512.939 1.621.768 3.328-.171 1.621-.725 3.285-1.664 4.992-.853 1.621-1.664 2.261-2.432 1.92zm36.48 78.08c.768-.256 1.579.469 2.432 2.176.939 1.621 1.493 3.243 1.664 4.864s-.085 2.731-.768 3.328c-.768.256-1.579-.427-2.432-2.048-.853-1.707-1.408-3.371-1.664-4.992-.171-1.621.085-2.731.768-3.328zm8.704-.896c.597.512.811 1.579.64 3.2s-.725 3.285-1.664 4.992c-.853 1.621-1.664 2.304-2.432 2.048-.597-.597-.811-1.707-.64-3.328s.683-3.243 1.536-4.864c.939-1.707 1.792-2.389 2.56-2.048zm-19.072.896c.768-.256 1.579.469 2.432 2.176.853 1.621 1.365 3.243 1.536 4.864s-.043 2.731-.64 3.328c-.768.256-1.621-.427-2.56-2.048-.853-1.707-1.365-3.371-1.536-4.992s.085-2.731.768-3.328zm8.576-.896c.683.512.939 1.579.768 3.2s-.725 3.285-1.664 4.992c-.853 1.621-1.664 2.304-2.432 2.048-.427-.171-.683-.683-.768-1.536s0-1.792.256-2.816.555-2.005.896-2.944c.427-1.024.896-1.835 1.408-2.432.597-.597 1.109-.768 1.536-.512zm-19.072.896c.768-.256 1.579.469 2.432 2.176.939 1.621 1.493 3.243 1.664 4.864s-.085 2.731-.768 3.328c-.768.256-1.621-.427-2.56-2.048-.853-1.707-1.365-3.371-1.536-4.992s.085-2.731.768-3.328zm8.576-.896c.683.512.939 1.579.768 3.2s-.725 3.285-1.664 4.992c-.853 1.621-1.664 2.304-2.432 2.048-.427-.171-.683-.683-.768-1.536s0-1.792.256-2.816.597-2.005 1.024-2.944c.427-1.024.896-1.835 1.408-2.432s.981-.768 1.408-.512zm22.784-8.832c.768-.256 1.579.469 2.432 2.176.853 1.621 1.365 3.243 1.536 4.864.256 1.621.043 2.731-.64 3.328-.768.256-1.621-.427-2.56-2.048-.853-1.707-1.365-3.371-1.536-4.992s.085-2.731.768-3.328zm8.576-.896c.683.512.939 1.621.768 3.328-.171 1.621-.725 3.243-1.664 4.864-.853 1.621-1.664 2.304-2.432 2.048-.683-.512-.939-1.579-.768-3.2.256-1.707.811-3.371 1.664-4.992.853-1.707 1.664-2.389 2.432-2.048zm-19.072.896c.768-.256 1.579.469 2.432 2.176.939 1.621 1.493 3.243 1.664 4.864s-.085 2.731-.768 3.328c-.768.256-1.579-.427-2.432-2.048-.853-1.707-1.408-3.371-1.664-4.992-.171-1.621.085-2.731.768-3.328zm8.704-.896c.597.512.811 1.621.64 3.328-.171 1.621-.725 3.243-1.664 4.864-.853 1.621-1.664 2.304-2.432 2.048-.597-.512-.811-1.579-.64-3.2.171-1.707.683-3.371 1.536-4.992.939-1.707 1.792-2.389 2.56-2.048zm1.792-8.832c.768-.256 1.579.469 2.432 2.176.853 1.621 1.365 3.243 1.536 4.864.256 1.621.043 2.731-.64 3.328-.768.256-1.621-.427-2.56-2.048-.853-1.707-1.365-3.371-1.536-4.992s.085-2.731.768-3.328zm8.576-.896c.683.512.939 1.621.768 3.328-.171 1.621-.725 3.285-1.664 4.992-.853 1.621-1.664 2.261-2.432 1.92-.683-.512-.939-1.579-.768-3.2.256-1.707.811-3.371 1.664-4.992.853-1.707 1.664-2.389 2.432-2.048zm-19.072.896c.768-.256 1.579.469 2.432 2.176.939 1.621 1.493 3.243 1.664 4.864s-.085 2.731-.768 3.328c-.768.256-1.579-.427-2.432-2.048-.853-1.707-1.408-3.371-1.664-4.992-.171-1.621.085-2.731.768-3.328zm8.704-.896c.597.512.811 1.621.64 3.328-.171 1.621-.725 3.285-1.664 4.992-.853 1.621-1.621 2.261-2.304 1.92-.683-.512-.939-1.579-.768-3.2.171-1.707.683-3.371 1.536-4.992.939-1.707 1.792-2.389 2.56-2.048zm1.792-8.704c.768-.341 1.579.341 2.432 2.048.853 1.621 1.365 3.285 1.536 4.992.256 1.621.043 2.688-.64 3.2-.768.256-1.621-.427-2.56-2.048-.853-1.707-1.365-3.371-1.536-4.992s.085-2.688.768-3.2zm8.576-1.024c.683.512.939 1.621.768 3.328-.171 1.621-.725 3.285-1.664 4.992-.853 1.621-1.664 2.261-2.432 1.92-.683-.512-.939-1.579-.768-3.2.256-1.707.811-3.371 1.664-4.992s1.664-2.304 2.432-2.048zm-19.072 1.024c.768-.341 1.579.341 2.432 2.048.939 1.621 1.493 3.285 1.664 4.992.171 1.621-.085 2.688-.768 3.2-.768.256-1.579-.427-2.432-2.048-.853-1.707-1.408-3.371-1.664-4.992-.171-1.621.085-2.688.768-3.2zm8.704-1.024c.597.512.811 1.621.64 3.328-.171 1.621-.725 3.285-1.664 4.992-.853 1.621-1.621 2.261-2.304 1.92-.683-.512-.939-1.579-.768-3.2.171-1.707.683-3.371 1.536-4.992.939-1.621 1.792-2.304 2.56-2.048zm-8.704-8.704c.341-.171.683-.085 1.024.256.427.256.811.683 1.152 1.28.341.512.64 1.109.896 1.792a9.42 9.42 0 0 1 .768 2.176c.171.768.256 1.493.256 2.176.085.597.043 1.152-.128 1.664-.085.512-.299.811-.64.896-.768.341-1.579-.299-2.432-1.92-.853-1.707-1.408-3.371-1.664-4.992-.171-1.707.085-2.816.768-3.328zm8.704-1.024c.597.512.811 1.621.64 3.328-.171 1.621-.725 3.285-1.664 4.992-.853 1.621-1.621 2.261-2.304 1.92-.683-.512-.939-1.579-.768-3.2s.683-3.243 1.536-4.864c.939-1.707 1.792-2.432 2.56-2.176zm-19.072 1.024c.427-.171.896.043 1.408.64.597.512 1.067 1.28 1.408 2.304.427.939.768 1.963 1.024 3.072.256 1.024.341 1.963.256 2.816-.085.768-.341 1.237-.768 1.408-.768.341-1.621-.299-2.56-1.92-.853-1.707-1.365-3.371-1.536-4.992-.171-1.707.085-2.816.768-3.328zm8.576-1.024c.683.512.939 1.621.768 3.328-.171 1.621-.725 3.285-1.664 4.992-.853 1.621-1.664 2.261-2.432 1.92-.427-.171-.683-.64-.768-1.408-.085-.853 0-1.792.256-2.816s.555-2.005.896-2.944c.427-1.024.896-1.835 1.408-2.432.597-.597 1.109-.811 1.536-.64zm-19.072 1.024c.341-.171.683-.085 1.024.256.427.256.811.683 1.152 1.28.341.512.64 1.109.896 1.792a9.42 9.42 0 0 1 .768 2.176c.171.768.256 1.493.256 2.176.085.597.043 1.152-.128 1.664-.085.512-.299.811-.64.896-.768.341-1.621-.299-2.56-1.92-.853-1.707-1.365-3.371-1.536-4.992-.171-1.707.085-2.816.768-3.328zm8.576-1.024c.683.512.939 1.621.768 3.328-.171 1.621-.725 3.285-1.664 4.992-.853 1.621-1.664 2.261-2.432 1.92-.427-.171-.683-.64-.768-1.408-.085-.853 0-1.792.256-2.816s.597-2.005 1.024-2.944c.427-1.024.896-1.835 1.408-2.432s.981-.811 1.408-.64zm1.92-8.704c.768-.341 1.579.341 2.432 2.048.853 1.621 1.365 3.285 1.536 4.992.171 1.621-.043 2.688-.64 3.2-.768.341-1.621-.299-2.56-1.92-.853-1.707-1.365-3.371-1.536-4.992-.171-1.707.085-2.816.768-3.328zm8.576-1.024c.683.597.939 1.707.768 3.328s-.725 3.285-1.664 4.992c-.853 1.621-1.664 2.304-2.432 2.048-.427-.171-.683-.683-.768-1.536s0-1.792.256-2.816.555-2.005.896-2.944c.427-1.024.896-1.835 1.408-2.432.597-.597 1.109-.811 1.536-.64zm-19.072 1.024c.768-.341 1.579.341 2.432 2.048.939 1.621 1.493 3.285 1.664 4.992.171 1.621-.085 2.688-.768 3.2-.768.341-1.621-.299-2.56-1.92-.853-1.707-1.365-3.371-1.536-4.992-.171-1.707.085-2.816.768-3.328zm8.576-1.024c.683.597.939 1.707.768 3.328s-.725 3.285-1.664 4.992c-.853 1.621-1.664 2.304-2.432 2.048-.427-.171-.683-.683-.768-1.536s0-1.792.256-2.816.597-2.005 1.024-2.944c.427-1.024.896-1.835 1.408-2.432s.981-.811 1.408-.64zm22.784-18.432c.427-.171.896.043 1.408.64.597.597 1.067 1.408 1.408 2.432.427.939.768 1.92 1.024 2.944s.341 1.963.256 2.816-.341 1.365-.768 1.536c-.768.256-1.621-.427-2.56-2.048-.853-1.707-1.365-3.371-1.536-4.992s.085-2.731.768-3.328zm8.576-.896c.683.512.939 1.579.768 3.2s-.725 3.285-1.664 4.992c-.853 1.621-1.664 2.304-2.432 2.048-.683-.597-.939-1.707-.768-3.328.256-1.621.811-3.243 1.664-4.864.853-1.707 1.664-2.389 2.432-2.048zm-8.576-8.832c.341-.085.683 0 1.024.256.427.256.768.683 1.024 1.28.341.512.64 1.152.896 1.92.341.683.597 1.408.768 2.176l.384 2.176c.085.597.043 1.152-.128 1.664-.085.427-.299.725-.64.896-.768.256-1.621-.427-2.56-2.048-.853-1.707-1.365-3.371-1.536-4.992s.085-2.731.768-3.328zm5.248 9.344c-.683-.512-.939-1.579-.768-3.2.256-1.707.811-3.371 1.664-4.992.853-1.707 1.664-2.389 2.432-2.048.683.512.939 1.621.768 3.328-.171 1.621-.725 3.243-1.664 4.864-.853 1.621-1.664 2.304-2.432 2.048zm-15.744-19.072c.768-.256 1.579.469 2.432 2.176.939 1.621 1.493 3.243 1.664 4.864s-.085 2.731-.768 3.328c-.768.256-1.579-.427-2.432-2.048-.853-1.707-1.408-3.371-1.664-4.992-.171-1.621.085-2.731.768-3.328zm8.704-.896c.597.512.811 1.621.64 3.328-.171 1.621-.725 3.285-1.664 4.992-.853 1.621-1.621 2.261-2.304 1.92-.683-.512-.939-1.579-.768-3.2.171-1.707.683-3.371 1.536-4.992.939-1.707 1.792-2.389 2.56-2.048zm-19.072.896c.768-.256 1.579.469 2.432 2.176.853 1.621 1.365 3.243 1.536 4.864s-.043 2.731-.64 3.328c-.768.256-1.621-.427-2.56-2.048-.853-1.707-1.365-3.371-1.536-4.992s.085-2.731.768-3.328zm8.576-.896c.683.512.939 1.621.768 3.328-.171 1.621-.725 3.285-1.664 4.992-.853 1.621-1.664 2.261-2.432 1.92-.427-.171-.683-.64-.768-1.408-.085-.853 0-1.792.256-2.816.256-1.109.555-2.133.896-3.072.427-1.024.896-1.792 1.408-2.304.597-.597 1.109-.811 1.536-.64zm-19.072.896c.768-.256 1.579.469 2.432 2.176.939 1.621 1.493 3.243 1.664 4.864s-.085 2.731-.768 3.328c-.768.256-1.621-.427-2.56-2.048-.853-1.707-1.365-3.371-1.536-4.992s.085-2.731.768-3.328zm8.576-.896c.683.512.939 1.621.768 3.328-.171 1.621-.725 3.285-1.664 4.992-.853 1.621-1.664 2.261-2.432 1.92-.427-.171-.683-.64-.768-1.408-.085-.853 0-1.792.256-2.816.256-1.109.597-2.133 1.024-3.072.427-1.024.896-1.792 1.408-2.304.512-.597.981-.811 1.408-.64z" class="B"/><use xlink:href="#B" class="B"/><use xlink:href="#C" class="B"/><use xlink:href="#D" class="B"/><use xlink:href="#B" y="28.205" class="B"/><use xlink:href="#E" class="B"/><use xlink:href="#F" class="B"/><use xlink:href="#G" class="B"/><use xlink:href="#E" y="28.205" class="B"/><use xlink:href="#F" y="28.205" class="B"/><use xlink:href="#G" y="28.205" class="B"/><use xlink:href="#E" y="56.41" class="B"/><use xlink:href="#F" y="56.41" class="B"/><use xlink:href="#H" class="B"/><use xlink:href="#I" class="B"/><use xlink:href="#J" class="B"/><use xlink:href="#K" class="B"/><use xlink:href="#I" y="28.205" class="B"/><use xlink:href="#J" y="28.205" class="B"/><use xlink:href="#K" y="28.205" class="C"/><use xlink:href="#I" y="56.41" class="C"/><use xlink:href="#J" y="56.41" class="B"/><use xlink:href="#K" y="56.41" class="B"/><use xlink:href="#I" y="84.615" class="C"/><use xlink:href="#J" y="84.615" class="C"/><use xlink:href="#B" x="33.643" y="-47.008" class="B"/><use xlink:href="#L" class="B"/><use xlink:href="#B" x="33.643" y="-28.205" class="B"/><use xlink:href="#C" x="33.643" y="-28.205" class="B"/><use xlink:href="#D" x="33.643" y="-28.205" class="B"/><use xlink:href="#B" x="33.643" class="B"/><use xlink:href="#C" x="33.643" class="B"/><use xlink:href="#D" x="33.643" class="B"/><use xlink:href="#B" x="33.643" y="28.205" class="C"/><use xlink:href="#C" x="33.643" y="28.205" class="C"/><use xlink:href="#D" x="33.643" y="28.205" class="B"/><use xlink:href="#B" x="33.643" y="56.41" class="B"/><use xlink:href="#C" x="33.643" y="56.41" class="C"/><use xlink:href="#D" x="33.643" y="56.41" class="C"/><use xlink:href="#G" x="33.643" y="-56.41" class="B"/><use xlink:href="#G" x="33.643" y="-47.008" class="B"/><use xlink:href="#M" class="B"/><use xlink:href="#G" x="33.643" y="-28.205" class="B"/><use xlink:href="#E" x="33.643" class="B"/><use xlink:href="#F" x="33.643" class="B"/><use xlink:href="#G" x="33.643" class="C"/><use xlink:href="#E" x="33.643" y="28.205" class="C"/><use xlink:href="#F" x="33.643" y="28.205" class="B"/><use xlink:href="#G" x="33.643" y="28.205" class="B"/><use xlink:href="#E" x="33.643" y="56.41" class="C"/><use xlink:href="#F" x="33.643" y="56.41" class="C"/><use xlink:href="#G" x="33.643" y="56.41" class="B"/><use xlink:href="#E" x="33.643" y="84.615" class="C"/><use xlink:href="#F" x="33.643" y="84.615" class="C"/><use xlink:href="#G" x="33.643" y="84.615" class="C"/><use xlink:href="#B" x="56.072" y="-56.41" class="B"/><use xlink:href="#B" x="56.072" y="-47.008" class="B"/><use xlink:href="#L" x="22.429" class="B"/><use xlink:href="#B" x="56.072" y="-28.205" class="B"/><use xlink:href="#C" x="56.072" y="-28.205" class="B"/><use xlink:href="#D" x="56.072" y="-28.205" class="B"/><use xlink:href="#B" x="56.072" class="B"/><use xlink:href="#C" x="56.072" class="C"/><use xlink:href="#D" x="56.072" class="C"/><use xlink:href="#B" x="56.072" y="28.205" class="B"/><use xlink:href="#C" x="56.072" y="28.205" class="C"/><use xlink:href="#D" x="56.072" y="28.205" class="C"/><use xlink:href="#B" x="56.072" y="56.41" class="C"/><use xlink:href="#C" x="56.072" y="56.41" class="C"/><use xlink:href="#D" x="56.072" y="56.41" class="C"/><use xlink:href="#B" x="56.072" y="84.615" class="C"/><use xlink:href="#G" x="56.072" y="-65.812" class="B"/><use xlink:href="#G" x="56.072" y="-56.41" class="B"/><use xlink:href="#G" x="56.072" y="-47.008" class="B"/><use xlink:href="#M" x="22.429" class="B"/><use xlink:href="#G" x="56.072" y="-28.205" class="B"/><use xlink:href="#E" x="56.072" class="B"/><use xlink:href="#F" x="56.072" class="B"/><use xlink:href="#G" x="56.072" class="B"/><use xlink:href="#E" x="56.072" y="28.205" class="B"/><use xlink:href="#F" x="56.072" y="28.205" class="C"/><use xlink:href="#G" x="56.072" y="28.205" class="C"/><use xlink:href="#E" x="56.072" y="56.41" class="C"/><use xlink:href="#F" x="56.072" y="56.41" class="C"/><use xlink:href="#G" x="56.072" y="56.41" class="C"/><use xlink:href="#E" x="56.072" y="84.615" class="B"/><use xlink:href="#F" x="56.072" y="84.615" class="B"/><use xlink:href="#G" x="56.072" y="84.615" class="B"/><use xlink:href="#E" x="56.072" y="112.82" class="B"/><use xlink:href="#I" x="56.072" y="-37.607" class="B"/><use xlink:href="#I" x="56.072" y="-28.205" class="B"/><use xlink:href="#I" x="56.072" y="-18.803" class="B"/><use xlink:href="#H" x="56.072" class="B"/><use xlink:href="#I" x="56.072" class="C"/><use xlink:href="#J" x="56.072" class="C"/><use xlink:href="#K" x="56.072" class="C"/><use xlink:href="#I" x="56.072" y="28.205" class="C"/><use xlink:href="#J" x="56.072" y="28.205" class="B"/><use xlink:href="#K" x="56.072" y="28.205" class="C"/><use xlink:href="#I" x="56.072" y="56.41" class="C"/><use xlink:href="#J" x="56.072" y="56.41" class="C"/><use xlink:href="#K" x="56.072" y="56.41" class="B"/><use xlink:href="#I" x="56.072" y="84.615" class="B"/><use xlink:href="#J" x="56.072" y="84.615" class="B"/><use xlink:href="#K" x="56.072" y="84.615" class="B"/><use xlink:href="#I" x="56.072" y="112.82" class="B"/><use xlink:href="#J" x="56.072" y="112.82" class="B"/><use xlink:href="#B" x="89.715" y="-65.812" class="B"/><use xlink:href="#B" x="89.715" y="-56.41" class="B"/><use xlink:href="#B" x="89.715" y="-47.008" class="B"/><use xlink:href="#L" x="56.072" class="B"/><use xlink:href="#B" x="89.715" y="-28.205" class="B"/><use xlink:href="#C" x="89.715" y="-28.205" class="B"/><use xlink:href="#D" x="89.715" y="-28.205" class="C"/><use xlink:href="#B" x="89.715" class="C"/><use xlink:href="#C" x="89.715" class="C"/><use xlink:href="#D" x="89.715" class="C"/><use xlink:href="#B" x="89.715" y="28.205" class="C"/><use xlink:href="#C" x="89.715" y="28.205" class="B"/><use xlink:href="#D" x="89.715" y="28.205" class="B"/><use xlink:href="#B" x="89.715" y="56.41" class="B"/><use xlink:href="#C" x="89.715" y="56.41" class="B"/><use xlink:href="#D" x="89.715" y="56.41" class="B"/><use xlink:href="#B" x="89.715" y="84.615" class="B"/><use xlink:href="#C" x="89.715" y="84.615" class="B"/><use xlink:href="#G" x="89.715" y="-56.41" class="B"/><use xlink:href="#G" x="89.715" y="-47.008" class="B"/><use xlink:href="#M" x="56.072" class="B"/><use xlink:href="#G" x="89.715" y="-28.205" class="B"/><use xlink:href="#E" x="89.715" class="B"/><use xlink:href="#F" x="89.715" class="B"/><use xlink:href="#G" x="89.715" class="B"/><use xlink:href="#E" x="89.715" y="28.205" class="C"/><use xlink:href="#F" x="89.715" y="28.205" class="C"/><use xlink:href="#G" x="89.715" y="28.205" class="C"/><use xlink:href="#E" x="89.715" y="56.41" class="B"/><use xlink:href="#F" x="89.715" y="56.41" class="B"/><use xlink:href="#G" x="89.715" y="56.41" class="B"/><use xlink:href="#E" x="89.715" y="84.615" class="B"/><use xlink:href="#F" x="89.715" y="84.615" class="B"/><use xlink:href="#G" x="89.715" y="84.615" class="B"/><use xlink:href="#I" x="89.715" y="-28.205" class="B"/><use xlink:href="#I" x="89.715" y="-18.803" class="B"/><use xlink:href="#H" x="89.715" class="C"/><use xlink:href="#I" x="89.715" class="C"/><use xlink:href="#J" x="89.715" class="C"/><use xlink:href="#K" x="89.715" class="C"/><use xlink:href="#I" x="89.715" y="28.205" class="C"/><use xlink:href="#J" x="89.715" y="28.205" class="C"/><use xlink:href="#K" x="89.715" y="28.205" class="C"/><use xlink:href="#I" x="89.715" y="56.41" class="B"/><use xlink:href="#J" x="89.715" y="56.41" class="B"/><use xlink:href="#K" x="89.715" y="56.41" class="B"/><use xlink:href="#I" x="89.715" y="84.615" class="B"/><use xlink:href="#J" x="89.715" y="84.615" class="B"/><use xlink:href="#K" x="89.715" y="84.615" class="B"/><use xlink:href="#I" x="89.715" y="112.82" class="B"/><use xlink:href="#B" x="123.358" y="-47.008" class="B"/><use xlink:href="#L" x="89.715" class="B"/><use xlink:href="#B" x="123.358" y="-28.205" class="B"/><use xlink:href="#C" x="123.358" y="-28.205" class="C"/><use xlink:href="#D" x="123.358" y="-28.205" class="C"/><use xlink:href="#B" x="123.358" class="C"/><use xlink:href="#C" x="123.358" class="C"/><use xlink:href="#D" x="123.358" class="C"/><use xlink:href="#B" x="123.358" y="28.205" class="B"/><use xlink:href="#C" x="123.358" y="28.205" class="B"/><use xlink:href="#D" x="123.358" y="28.205" class="B"/><use xlink:href="#B" x="123.358" y="56.41" class="B"/><use xlink:href="#C" x="123.358" y="56.41" class="B"/><use xlink:href="#D" x="123.358" y="56.41" class="B"/><use xlink:href="#H" x="112.144" class="B"/><use xlink:href="#I" x="112.144" class="B"/><use xlink:href="#J" x="112.144" class="B"/><use xlink:href="#K" x="112.144" class="B"/><use xlink:href="#I" x="112.144" y="28.205" class="C"/><use xlink:href="#J" x="112.144" y="28.205" class="C"/><use xlink:href="#K" x="112.144" y="28.205" class="B"/><use xlink:href="#I" x="112.144" y="56.41" class="B"/><use xlink:href="#J" x="112.144" y="56.41" class="B"/><use xlink:href="#K" x="112.144" y="56.41" class="B"/><use xlink:href="#I" x="112.144" y="84.615" class="B"/><use xlink:href="#J" x="112.144" y="84.615" class="B"/><use xlink:href="#C" x="145.787" y="-28.205" class="C"/><use xlink:href="#D" x="145.787" y="-28.205" class="C"/><use xlink:href="#B" x="145.787" class="C"/><use xlink:href="#C" x="145.787" class="C"/><use xlink:href="#D" x="145.787" class="B"/><use xlink:href="#B" x="145.787" y="28.205" class="B"/><use xlink:href="#C" x="145.787" y="28.205" class="B"/><use xlink:href="#D" x="145.787" y="28.205" class="B"/><use xlink:href="#G" x="145.787" class="C"/><use xlink:href="#E" x="145.787" y="28.205" class="C"/><use xlink:href="#F" x="145.787" y="28.205" class="B"/><use xlink:href="#G" x="145.787" y="28.205" class="B"/><path fill-rule="evenodd" d="M624.398 47.066c15.885 4.618 41.924 6.681 83.134 2.633l-12.464 2.71 12.766.346c-41.368 4.064-67.86 2.037-84.294-2.74-3.063-.89-5.791-1.881-8.208-2.953-2.719 3.9-6.465 6.486-10.865 8.203-4.765 1.859-10.33 2.713-16.267 3.134-4.883.346-10.105.405-15.416.464l-3.442.041c-13.074.179-26.424.746-37.639 5.663-11.078 4.857-20.199 14.024-24.679 31.787l-2.98-.751c4.698-18.627 14.425-28.587 26.424-33.848 11.862-5.201 25.816-5.743 38.831-5.921l3.483-.042c5.308-.059 10.417-.116 15.2-.456 5.819-.413 11.026-1.237 15.367-2.931 3.788-1.478 6.89-3.606 9.173-6.696-8.555-4.476-12.434-10.079-13.162-15.565-.969-7.289 3.788-13.737 9.064-15.475 2.73-.899 5.725-.56 8.018 1.725 2.213 2.205 3.514 5.972 3.611 11.371.125 6.908-.969 12.362-3.137 16.643 2.185.948 4.668 1.841 7.482 2.659zm-10.261-3.974c1.903-3.72 2.964-8.661 2.844-15.274-.091-5.036-1.307-7.856-2.708-9.252-1.321-1.316-3.038-1.592-4.886-.983-3.883 1.279-7.754 6.34-6.981 12.155.559 4.208 3.643 9.178 11.731 13.353z" class="B"/></g><defs><filter id="A" x="0" y="14.208" width="709.834" height="225.022" filterUnits="userSpaceOnUse" color-interpolation-filters="sRGB"><feFlood flood-opacity="0" result="A"/><feColorMatrix in="SourceAlpha" values="0 0 0 0 0 0 0 0 0 0 0 0 0 0 0 0 0 0 127 0" result="B"/><feOffset dy="2"/><feGaussianBlur stdDeviation="1"/><feComposite in2="B" operator="out"/><feColorMatrix values="0 0 0 0 0.912429 0 0 0 0 0.783615 0 0 0 0 0 0 0 0 1 0"/><feBlend in2="A"/><feBlend in="SourceGraphic"/></filter><path id="B" d="M363.819 130.793c.768-.256 1.579.469 2.432 2.176.854 1.621 1.366 3.243 1.536 4.864.256 1.621.043 2.731-.64 3.328-.768.256-1.621-.427-2.56-2.048-.853-1.707-1.365-3.371-1.536-4.992s.086-2.731.768-3.328zm8.576-.896c.683.512.939 1.579.768 3.2s-.725 3.285-1.664 4.992c-.853 1.621-1.664 2.304-2.432 2.048-.682-.597-.938-1.707-.768-3.328s.683-3.243 1.536-4.864c.939-1.707 1.792-2.389 2.56-2.048z"/><path id="C" d="M363.819 140.195c.768-.256 1.579.469 2.432 2.176.854 1.621 1.366 3.242 1.536 4.864.256 1.621.043 2.73-.64 3.328-.768.256-1.621-.427-2.56-2.048-.853-1.707-1.365-3.371-1.536-4.992s.086-2.731.768-3.328zm8.576-.896c.683.512.939 1.578.768 3.2s-.725 3.285-1.664 4.992c-.853 1.621-1.664 2.304-2.432 2.048-.682-.598-.938-1.707-.768-3.328s.683-3.243 1.536-4.864c.939-1.707 1.792-2.39 2.56-2.048z"/><path id="D" d="M363.819 149.596c.768-.256 1.579.47 2.432 2.176.854 1.622 1.366 3.243 1.536 4.864.256 1.622.043 2.731-.64 3.328-.768.256-1.621-.426-2.56-2.048-.853-1.706-1.365-3.37-1.536-4.992s.086-2.73.768-3.328zm8.576-.896c.683.512.939 1.579.768 3.2s-.725 3.286-1.664 4.992c-.853 1.622-1.664 2.304-2.432 2.048-.682-.597-.938-1.706-.768-3.328s.683-3.242 1.536-4.864c.939-1.706 1.792-2.389 2.56-2.048z"/><path id="E" d="M375.034 111.99c.768-.256 1.578.469 2.432 2.176.853 1.621 1.365 3.242 1.536 4.864.256 1.621.042 2.73-.64 3.328-.768.256-1.622-.427-2.56-2.048-.854-1.707-1.366-3.371-1.536-4.992s.085-2.731.768-3.328zm8.576-.896c.682.512.938 1.578.768 3.2s-.726 3.285-1.664 4.992c-.854 1.621-1.664 2.304-2.432 2.048-.683-.598-.939-1.707-.768-3.328s.682-3.243 1.536-4.864c.938-1.707 1.792-2.39 2.56-2.048z"/><path id="F" d="M375.034 121.391c.768-.256 1.578.47 2.432 2.176.853 1.622 1.365 3.243 1.536 4.864.256 1.622.042 2.731-.64 3.328-.768.256-1.622-.426-2.56-2.048-.854-1.706-1.366-3.37-1.536-4.992s.085-2.73.768-3.328zm8.576-.896c.682.512.938 1.579.768 3.2s-.726 3.286-1.664 4.992c-.854 1.622-1.664 2.304-2.432 2.048-.683-.597-.939-1.706-.768-3.328s.682-3.242 1.536-4.864c.938-1.706 1.792-2.389 2.56-2.048z"/><path id="G" d="M375.034 130.793c.768-.256 1.578.469 2.432 2.176.853 1.621 1.365 3.243 1.536 4.864.256 1.621.042 2.731-.64 3.328-.768.256-1.622-.427-2.56-2.048-.854-1.707-1.366-3.371-1.536-4.992s.085-2.731.768-3.328zm8.576-.896c.682.512.938 1.579.768 3.2s-.726 3.285-1.664 4.992c-.854 1.621-1.664 2.304-2.432 2.048-.683-.597-.939-1.707-.768-3.328s.682-3.243 1.536-4.864c.938-1.707 1.792-2.389 2.56-2.048z"/><path id="H" d="M386.248 93.186c.768-.256 1.579.469 2.432 2.176.853 1.621 1.365 3.243 1.536 4.864.256 1.622.043 2.731-.64 3.328-.768.256-1.621-.426-2.56-2.048-.853-1.706-1.365-3.37-1.536-4.992s.085-2.731.768-3.328zm8.576-.896c.683.512.939 1.579.768 3.2s-.725 3.285-1.664 4.992c-.853 1.622-1.664 2.304-2.432 2.048-.683-.597-.939-1.706-.768-3.328s.683-3.243 1.536-4.864c.939-1.707 1.792-2.389 2.56-2.048z"/><path id="I" d="M386.248 102.588c.768-.256 1.579.469 2.432 2.176.853 1.621 1.365 3.243 1.536 4.864.256 1.621.043 2.731-.64 3.328-.768.256-1.621-.427-2.56-2.048-.853-1.707-1.365-3.371-1.536-4.992s.085-2.731.768-3.328zm8.576-.896c.683.512.939 1.579.768 3.2s-.725 3.285-1.664 4.992c-.853 1.621-1.664 2.304-2.432 2.048-.683-.597-.939-1.707-.768-3.328s.683-3.243 1.536-4.864c.939-1.707 1.792-2.389 2.56-2.048z"/><path id="J" d="M386.248 111.99c.768-.256 1.579.469 2.432 2.176.853 1.621 1.365 3.242 1.536 4.864.256 1.621.043 2.73-.64 3.328-.768.256-1.621-.427-2.56-2.048-.853-1.707-1.365-3.371-1.536-4.992s.085-2.731.768-3.328zm8.576-.896c.683.512.939 1.578.768 3.2s-.725 3.285-1.664 4.992c-.853 1.621-1.664 2.304-2.432 2.048-.683-.598-.939-1.707-.768-3.328s.683-3.243 1.536-4.864c.939-1.707 1.792-2.39 2.56-2.048z"/><path id="K" d="M386.248 121.391c.768-.256 1.579.47 2.432 2.176.853 1.622 1.365 3.243 1.536 4.864.256 1.622.043 2.731-.64 3.328-.768.256-1.621-.426-2.56-2.048-.853-1.706-1.365-3.37-1.536-4.992s.085-2.73.768-3.328zm8.576-.896c.683.512.939 1.579.768 3.2s-.725 3.286-1.664 4.992c-.853 1.622-1.664 2.304-2.432 2.048-.683-.597-.939-1.706-.768-3.328s.683-3.242 1.536-4.864c.939-1.706 1.792-2.389 2.56-2.048z"/><path id="L" d="M397.462 93.186c.768-.256 1.579.469 2.432 2.176.854 1.621 1.366 3.243 1.536 4.864.256 1.622.043 2.731-.64 3.328-.768.256-1.621-.426-2.56-2.048-.853-1.706-1.365-3.37-1.536-4.992s.086-2.731.768-3.328zm8.576-.896c.683.512.939 1.579.768 3.2s-.725 3.285-1.664 4.992c-.853 1.622-1.664 2.304-2.432 2.048-.682-.597-.938-1.706-.768-3.328s.683-3.243 1.536-4.864c.939-1.707 1.792-2.389 2.56-2.048z"/><path id="M" d="M408.677 93.186c.768-.256 1.578.469 2.432 2.176.853 1.621 1.365 3.243 1.536 4.864.256 1.622.042 2.731-.64 3.328-.768.256-1.622-.426-2.56-2.048-.854-1.706-1.366-3.37-1.536-4.992s.085-2.731.768-3.328zm8.576-.896c.682.512.938 1.579.768 3.2s-.726 3.285-1.664 4.992c-.854 1.622-1.664 2.304-2.432 2.048-.683-.597-.939-1.706-.768-3.328s.682-3.243 1.536-4.864c.938-1.707 1.792-2.389 2.56-2.048z"/></defs></svg>