<svg xmlns="http://www.w3.org/2000/svg" xmlns:xlink="http://www.w3.org/1999/xlink" width="50" height="50" fill="none" xmlns:v="https://vecta.io/nano"><g fill="#3a3e45"><use xlink:href="#B"/><path d="M37.226 8.407c.318-.106.654.195 1.008.902.354.672.566 1.344.637 2.016.106.672.018 1.132-.265 1.379-.318.106-.672-.177-1.061-.849-.354-.707-.566-1.397-.637-2.069s.035-1.132.318-1.379zm3.555-.371c.283.212.389.654.318 1.326s-.301 1.362-.69 2.069c-.354.672-.69.955-1.008.849-.283-.248-.389-.707-.318-1.379s.283-1.344.637-2.016c.389-.707.743-.99 1.061-.849z"/><use xlink:href="#C"/><use xlink:href="#C" x="4.648"/><use xlink:href="#C" x="23.24"/><use xlink:href="#D"/><use xlink:href="#C" y="3.726"/><use xlink:href="#C" x="4.648" y="3.726"/><use xlink:href="#C" x="9.296" y="3.726"/><use xlink:href="#C" x="18.591" y="3.726"/><use xlink:href="#C" x="23.24" y="3.726"/><use xlink:href="#D" y="3.726"/><use xlink:href="#E"/><use xlink:href="#E" x="4.648"/><use xlink:href="#E" x="9.295"/><use xlink:href="#E" x="13.943"/><use xlink:href="#E" x="18.592"/><use xlink:href="#E" x="4.648" y="3.725"/><path d="M23.283 23.309c.318-.106.654.194 1.008.902a5.57 5.57 0 0 1 .637 2.016c.106.672.018 1.132-.265 1.379-.318.106-.672-.177-1.061-.849-.354-.707-.566-1.397-.637-2.069s.035-1.132.318-1.379zm3.554-.371c.283.212.389.654.318 1.326s-.301 1.362-.69 2.069c-.354.672-.69.955-1.008.849-.283-.248-.389-.707-.318-1.379s.283-1.344.637-2.016c.389-.707.743-.99 1.061-.849z"/><use xlink:href="#E" x="13.943" y="3.725"/><use xlink:href="#B" x="4.648" y="18.628"/><use xlink:href="#B" x="9.296" y="18.628"/><path d="M23.283 27.035c.318-.106.654.195 1.008.902a5.57 5.57 0 0 1 .637 2.016c.106.672.018 1.132-.265 1.379-.318.106-.672-.177-1.061-.849-.354-.707-.566-1.397-.637-2.069s.035-1.132.318-1.379zm3.554-.371c.283.212.389.654.318 1.326s-.301 1.362-.69 2.069c-.354.672-.69.955-1.008.849-.283-.248-.389-.707-.318-1.379s.283-1.344.637-2.016c.389-.707.743-.99 1.061-.849z"/><use xlink:href="#B" x="18.591" y="18.628"/><use xlink:href="#B" x="23.24" y="18.628"/><use xlink:href="#E" x="-4.648" y="11.176"/><use xlink:href="#E" y="11.176"/><use xlink:href="#E" x="4.648" y="11.176"/><use xlink:href="#E" x="13.943" y="11.176"/><use xlink:href="#E" x="18.592" y="11.176"/><use xlink:href="#F"/><use xlink:href="#E" x="-4.648" y="14.902"/><use xlink:href="#E" y="14.902"/><use xlink:href="#E" x="18.592" y="14.902"/><use xlink:href="#F" y="3.726"/><path d="M9.34 38.211c.318-.106.654.195 1.008.902.354.672.566 1.344.637 2.016.106.672.018 1.132-.265 1.379-.318.106-.672-.177-1.061-.849-.354-.707-.566-1.397-.637-2.069s.035-1.132.318-1.379zm3.554-.371c.283.212.389.654.318 1.326s-.301 1.362-.69 2.069c-.354.672-.69.955-1.008.849-.283-.248-.389-.707-.318-1.379a5.57 5.57 0 0 1 .637-2.016c.389-.707.743-.99 1.061-.849zm24.332.371c.318-.106.654.195 1.008.902.354.672.566 1.344.637 2.016.106.672.018 1.132-.265 1.379-.318.106-.672-.177-1.061-.849-.354-.707-.566-1.397-.637-2.069s.035-1.132.318-1.379zm3.555-.371c.283.212.389.654.318 1.326s-.301 1.362-.69 2.069c-.354.672-.69.955-1.008.849-.283-.248-.389-.707-.318-1.379a5.57 5.57 0 0 1 .637-2.016c.389-.707.743-.99 1.061-.849z"/></g><defs ><path id="B" d="M9.34 8.407c.318-.106.654.195 1.008.902.354.672.566 1.344.637 2.016.106.672.018 1.132-.265 1.379-.318.106-.672-.177-1.061-.849-.354-.707-.566-1.397-.637-2.069s.035-1.132.318-1.379zm3.554-.371c.283.212.389.654.318 1.326s-.301 1.362-.69 2.069c-.354.672-.69.955-1.008.849-.283-.248-.389-.707-.318-1.379s.283-1.344.637-2.016c.389-.707.743-.99 1.061-.849z"/><path id="C" d="M9.34 12.132c.318-.106.654.194 1.008.902.354.672.566 1.344.637 2.016.106.672.018 1.132-.265 1.379-.318.106-.672-.177-1.061-.849-.354-.707-.566-1.397-.637-2.069s.035-1.132.318-1.379zm3.554-.371c.283.212.389.654.318 1.326s-.301 1.362-.69 2.069c-.354.672-.69.955-1.008.849-.283-.247-.389-.707-.318-1.379s.283-1.344.637-2.016c.389-.707.743-.99 1.061-.849z"/><path id="D" d="M37.226 12.132c.318-.106.654.194 1.008.902.354.672.566 1.344.637 2.016.106.672.018 1.132-.265 1.379-.318.106-.672-.177-1.061-.849-.354-.707-.566-1.397-.637-2.069s.035-1.132.318-1.379zm3.555-.371c.283.212.389.654.318 1.326s-.301 1.362-.69 2.069c-.354.672-.69.955-1.008.849-.283-.247-.389-.707-.318-1.379s.283-1.344.637-2.016c.389-.707.743-.99 1.061-.849z"/><path id="E" d="M13.988 19.584c.318-.106.654.194 1.008.902.354.672.566 1.344.637 2.016.106.672.018 1.132-.265 1.379-.318.106-.672-.177-1.061-.849-.354-.707-.566-1.397-.637-2.069s.035-1.132.318-1.379zm3.554-.371c.283.212.389.654.318 1.326s-.301 1.362-.69 2.069c-.354.672-.69.955-1.008.849-.283-.248-.389-.707-.318-1.379s.283-1.344.637-2.016c.389-.707.743-.99 1.061-.849z"/><path id="F" d="M37.226 30.76c.318-.106.654.194 1.008.902.354.672.566 1.344.637 2.016.106.672.018 1.132-.265 1.379-.318.106-.672-.177-1.061-.849-.354-.707-.566-1.397-.637-2.069s.035-1.132.318-1.379zm3.555-.371c.283.212.389.654.318 1.326s-.301 1.362-.69 2.069c-.354.672-.69.955-1.008.849-.283-.248-.389-.707-.318-1.379s.283-1.344.637-2.016c.389-.707.743-.99 1.061-.849z"/></defs></svg>