<svg xmlns="http://www.w3.org/2000/svg" xmlns:xlink="http://www.w3.org/1999/xlink" width="33" height="31" fill="none" xmlns:v="https://vecta.io/nano"><path d="M.819.981c.768-.256 1.579.469 2.432 2.176.853 1.621 1.365 3.243 1.536 4.864.256 1.621.043 2.731-.64 3.328-.768.256-1.621-.427-2.56-2.048C.734 7.595.222 5.931.051 4.309S.137 1.579.819.981zM9.395.085c.683.512.939 1.579.768 3.2s-.725 3.285-1.664 4.992c-.853 1.621-1.664 2.304-2.432 2.048-.683-.597-.939-1.707-.768-3.328s.683-3.243 1.536-4.864C7.774.427 8.627-.256 9.395.085z" fill="#fff"/><path d="M.819 10.383c.768-.256 1.579.469 2.432 2.176.853 1.621 1.365 3.243 1.536 4.864.256 1.621.043 2.731-.64 3.328-.768.256-1.621-.427-2.56-2.048C.734 16.996.222 15.332.051 13.711s.085-2.731.768-3.328zm8.576-.896c.683.512.939 1.579.768 3.2s-.725 3.285-1.664 4.992c-.853 1.621-1.664 2.304-2.432 2.048-.683-.597-.939-1.707-.768-3.328s.683-3.243 1.536-4.864c.939-1.707 1.792-2.389 2.56-2.048z" fill="#3a3e45"/><use xlink:href="#B" fill="#fff"/><use xlink:href="#B" y="9.402" fill="#3a3e45"/><use xlink:href="#B" x="11.214" y="-9.402" fill="#fff"/><use xlink:href="#B" x="11.214" fill="#3a3e45"/><defs ><path id="B" d="M12.034 10.383c.768-.256 1.579.469 2.432 2.176.853 1.621 1.365 3.243 1.536 4.864.256 1.621.043 2.731-.64 3.328-.768.256-1.621-.427-2.56-2.048-.853-1.707-1.365-3.371-1.536-4.992s.085-2.731.768-3.328zm8.576-.896c.683.512.939 1.579.768 3.2s-.725 3.285-1.664 4.992c-.853 1.621-1.664 2.304-2.432 2.048-.683-.597-.939-1.707-.768-3.328s.683-3.243 1.536-4.864c.939-1.707 1.792-2.389 2.56-2.048z"/></defs></svg>