<svg xmlns="http://www.w3.org/2000/svg" width="49" height="48" fill="none" xmlns:v="https://vecta.io/nano"><path d="M48.004 24.002c0 13.256-10.746 24.002-24.002 24.002S0 37.258 0 24.002 10.746 0 24.002 0s24.002 10.746 24.002 24.002z" fill="#fff"/><path d="M43.5 9.965c-2.739 3.652-2.979 8.415-2.904 10.73-1.837-2.44-4.453-7.014-5.078-13.83-5.297 4.94-3.658 12.364-2.704 15.338-2.437-1.834-6.208-5.5-8.676-11.872-3.745 6.211-.133 12.885 1.6 15.476-2.848-1.085-7.481-3.559-11.602-8.993-1.901 7.002 3.4 12.408 5.779 14.416-3.038-.252-8.174-1.344-13.627-5.418.088 7.25 6.672 10.971 9.51 12.24-2.516.505-6.624.845-11.651-.483a24.1 24.1 0 0 0 11.47 8.948c.175-.957.388-1.915.671-2.87 4.072-13.739 18.032-21.822 31.712-18.697.013-.318.048-.631.048-.952 0-5.244-1.697-10.081-4.546-14.033z" fill="#ffdb00"/></svg>