<svg xmlns="http://www.w3.org/2000/svg" xmlns:xlink="http://www.w3.org/1999/xlink" width="50" height="50" fill="none" xmlns:v="https://vecta.io/nano"><g fill="#3a3e45"><use xlink:href="#B"/><use xlink:href="#C"/><use xlink:href="#C" y="7.794"/><path d="M9.34 24.993c.318-.106.654.194 1.008.902.354.672.566 1.344.637 2.016.106.672.018 1.132-.265 1.379-.318.106-.672-.177-1.061-.849-.354-.707-.566-1.397-.637-2.069s.035-1.132.318-1.379zm3.554-.371c.283.212.389.654.318 1.326s-.301 1.362-.69 2.069c-.354.672-.69.955-1.008.849-.283-.248-.389-.707-.318-1.379a5.57 5.57 0 0 1 .637-2.016c.389-.707.743-.99 1.061-.849z"/><use xlink:href="#C" y="19.484"/><use xlink:href="#D"/><use xlink:href="#B" x="4.648"/><use xlink:href="#B" x="4.648" y="3.896"/><use xlink:href="#B" x="4.648" y="11.69"/><use xlink:href="#D" x="4.648" y="-11.69"/><use xlink:href="#B" x="4.648" y="23.38"/><use xlink:href="#D" x="4.648"/><use xlink:href="#B" x="9.295"/><use xlink:href="#B" x="9.295" y="3.896"/><use xlink:href="#B" x="9.295" y="11.69"/><use xlink:href="#D" x="9.295" y="-11.69"/><use xlink:href="#B" x="9.295" y="23.38"/><use xlink:href="#D" x="9.295"/><use xlink:href="#B" x="13.943"/><use xlink:href="#B" x="13.943" y="3.896"/><use xlink:href="#B" x="13.943" y="11.69"/><use xlink:href="#D" x="13.943" y="-11.69"/><use xlink:href="#B" x="13.943" y="23.38"/><use xlink:href="#D" x="13.943"/><use xlink:href="#B" x="18.591"/><use xlink:href="#B" x="18.591" y="3.896"/><use xlink:href="#B" x="18.591" y="11.69"/><use xlink:href="#D" x="18.591" y="-11.69"/><use xlink:href="#B" x="18.591" y="23.38"/><use xlink:href="#D" x="18.591"/><use xlink:href="#B" x="23.239"/><use xlink:href="#B" x="23.239" y="3.896"/><use xlink:href="#B" x="23.239" y="11.69"/><use xlink:href="#D" x="23.239" y="-11.69"/><use xlink:href="#B" x="23.239" y="23.38"/><use xlink:href="#D" x="23.239"/><use xlink:href="#E"/><use xlink:href="#E" y="3.896"/><use xlink:href="#E" y="11.69"/><path d="M37.227 24.993c.318-.106.654.194 1.008.902a5.57 5.57 0 0 1 .637 2.016c.106.672.018 1.132-.265 1.379-.318.106-.672-.177-1.061-.849-.354-.707-.566-1.397-.637-2.069s.035-1.132.318-1.379zm3.554-.371c.283.212.389.654.318 1.326s-.301 1.362-.69 2.069c-.354.672-.69.955-1.008.849-.283-.248-.389-.707-.318-1.379s.283-1.344.637-2.016c.389-.707.743-.99 1.061-.849z"/><use xlink:href="#B" x="27.887" y="23.38"/><use xlink:href="#D" x="27.887"/></g><defs ><path id="B" d="M9.34 9.407c.318-.106.654.195 1.008.902.354.672.566 1.344.637 2.016.106.672.018 1.132-.265 1.379-.318.106-.672-.177-1.061-.849-.354-.707-.566-1.397-.637-2.069s.035-1.132.318-1.379zm3.554-.371c.283.212.389.654.318 1.326s-.301 1.362-.69 2.069c-.354.672-.69.955-1.008.849-.283-.248-.389-.707-.318-1.379s.283-1.344.637-2.016c.389-.707.743-.99 1.061-.849z"/><path id="C" d="M9.34 13.303c.318-.106.654.195 1.008.902.354.672.566 1.344.637 2.016.106.672.018 1.132-.265 1.379-.318.106-.672-.177-1.061-.849-.354-.707-.566-1.397-.637-2.069s.035-1.132.318-1.379zm3.554-.371c.283.212.389.654.318 1.326s-.301 1.362-.69 2.069c-.354.672-.69.955-1.008.849-.283-.248-.389-.707-.318-1.379a5.57 5.57 0 0 1 .637-2.016c.389-.707.743-.99 1.061-.849z"/><path id="D" d="M9.34 36.683c.318-.106.654.194 1.008.902.354.672.566 1.344.637 2.016.106.672.018 1.132-.265 1.379-.318.106-.672-.177-1.061-.849-.354-.707-.566-1.397-.637-2.069s.035-1.132.318-1.379zm3.554-.371c.283.212.389.654.318 1.326s-.301 1.362-.69 2.069c-.354.672-.69.955-1.008.849-.283-.248-.389-.707-.318-1.379s.283-1.344.637-2.016c.389-.707.743-.99 1.061-.849z"/><path id="E" d="M37.227 9.407c.318-.106.654.195 1.008.902a5.57 5.57 0 0 1 .637 2.016c.106.672.018 1.132-.265 1.379-.318.106-.672-.177-1.061-.849-.354-.707-.566-1.397-.637-2.069s.035-1.132.318-1.379zm3.554-.371c.283.212.389.654.318 1.326s-.301 1.362-.69 2.069c-.354.672-.69.955-1.008.849-.283-.248-.389-.707-.318-1.379s.283-1.344.637-2.016c.389-.707.743-.99 1.061-.849z"/></defs></svg>