<svg xmlns="http://www.w3.org/2000/svg" xmlns:xlink="http://www.w3.org/1999/xlink" width="33" height="32" fill="none" xmlns:v="https://vecta.io/nano"><g fill="#3a3e45"><path d="M.34.407c.318-.106.654.195 1.008.902.354.672.566 1.344.637 2.016.106.672.018 1.132-.265 1.379-.318.106-.672-.177-1.061-.849C.304 3.148.092 2.458.021 1.786S.057.654.34.407zM3.894.035c.283.212.389.654.318 1.326s-.301 1.362-.69 2.069c-.354.672-.69.955-1.008.849-.283-.248-.389-.707-.318-1.379s.283-1.344.637-2.016c.389-.707.743-.99 1.061-.849zM.34 4.303c.318-.106.654.195 1.008.902.354.672.566 1.344.637 2.016.106.672.018 1.132-.265 1.379-.318.106-.672-.177-1.061-.849C.304 7.044.092 6.355.021 5.683s.036-1.132.319-1.38zm3.554-.371c.283.212.389.654.318 1.326s-.301 1.362-.69 2.069c-.354.672-.69.955-1.008.849-.283-.248-.389-.707-.318-1.379s.283-1.344.637-2.016c.389-.707.743-.99 1.061-.849z"/><use xlink:href="#B"/><use xlink:href="#C"/><use xlink:href="#B" y="11.69"/><use xlink:href="#B" y="15.586"/><path d="M4.987.407c.318-.106.654.195 1.008.902.354.672.566 1.344.637 2.016.106.672.018 1.132-.265 1.379-.318.106-.672-.177-1.061-.849-.354-.707-.566-1.397-.637-2.069S4.705.654 4.987.407zM8.542.035c.283.212.389.654.318 1.326s-.301 1.362-.69 2.069c-.354.672-.69.955-1.008.849-.283-.248-.389-.707-.318-1.379s.283-1.344.637-2.016c.389-.707.743-.99 1.061-.849z"/><use xlink:href="#B" x="4.647" y="-7.794"/><use xlink:href="#B" x="4.647"/><use xlink:href="#C" x="4.647"/><use xlink:href="#B" x="4.647" y="11.69"/><path d="M4.987 27.683c.318-.106.654.195 1.008.902.354.672.566 1.344.637 2.016.106.672.018 1.132-.265 1.379-.318.106-.672-.177-1.061-.849-.354-.707-.566-1.397-.637-2.069s.035-1.132.318-1.379zm3.554-.371c.283.212.389.654.318 1.326S8.56 30 8.171 30.707c-.354.672-.69.955-1.008.849-.283-.248-.389-.707-.318-1.379s.283-1.344.637-2.016c.389-.707.743-.99 1.061-.849zM9.635.407c.318-.106.654.195 1.008.902.354.672.566 1.344.637 2.016.106.672.018 1.132-.265 1.379-.318.106-.672-.177-1.061-.849-.354-.707-.566-1.397-.637-2.069S9.352.654 9.635.407zM13.19.035c.283.212.389.654.318 1.326s-.301 1.362-.69 2.069c-.354.672-.69.955-1.008.849-.283-.248-.389-.707-.318-1.379s.283-1.344.637-2.016c.389-.707.743-.99 1.061-.849z"/><use xlink:href="#B" x="9.295" y="-7.794"/><use xlink:href="#B" x="9.295"/><use xlink:href="#C" x="9.295"/><use xlink:href="#B" x="9.295" y="11.69"/><use xlink:href="#B" x="9.295" y="15.586"/><path d="M14.283.407c.318-.106.654.195 1.008.902.354.672.566 1.344.637 2.016.106.672.018 1.132-.265 1.379-.318.106-.672-.177-1.061-.849-.354-.707-.566-1.397-.637-2.069S14 .654 14.283.407zm3.554-.371c.283.212.389.654.318 1.326s-.301 1.362-.69 2.069c-.354.672-.69.955-1.008.849-.283-.248-.389-.707-.318-1.379s.283-1.344.637-2.016c.389-.707.743-.99 1.061-.849z"/><use xlink:href="#B" x="13.943" y="-7.794"/><use xlink:href="#B" x="13.943"/><use xlink:href="#C" x="13.943"/><use xlink:href="#B" x="13.943" y="11.69"/><use xlink:href="#B" x="13.943" y="15.586"/><use xlink:href="#B" x="18.591" y="-11.69"/><use xlink:href="#B" x="18.591" y="-7.794"/><use xlink:href="#B" x="18.591"/><use xlink:href="#C" x="18.591"/><use xlink:href="#B" x="18.591" y="11.69"/><use xlink:href="#B" x="18.591" y="15.586"/><use xlink:href="#B" x="23.239" y="-11.69"/><use xlink:href="#B" x="23.239" y="-7.794"/><use xlink:href="#B" x="23.239"/><use xlink:href="#C" x="23.239"/><use xlink:href="#B" x="23.239" y="11.69"/><use xlink:href="#B" x="23.239" y="15.586"/><use xlink:href="#B" x="27.887" y="-11.69"/><use xlink:href="#B" x="27.887" y="-7.794"/><use xlink:href="#B" x="27.887"/><use xlink:href="#C" x="27.887"/><use xlink:href="#B" x="27.887" y="11.69"/><use xlink:href="#B" x="27.887" y="15.586"/></g><defs ><path id="B" d="M.34 12.097c.318-.106.654.195 1.008.902.354.672.566 1.344.637 2.016.106.672.018 1.132-.265 1.379-.318.106-.672-.177-1.061-.849-.354-.707-.566-1.397-.637-2.069s.035-1.132.318-1.379zm3.554-.371c.283.212.389.654.318 1.326s-.301 1.362-.69 2.069c-.354.672-.69.955-1.008.849-.283-.248-.389-.707-.318-1.379s.283-1.344.637-2.016c.389-.707.743-.99 1.061-.849z"/><path id="C" d="M.34 15.993c.318-.106.654.194 1.008.902.354.672.566 1.344.637 2.016.106.672.018 1.132-.265 1.379-.318.106-.672-.177-1.061-.849-.354-.707-.566-1.397-.637-2.069s.035-1.132.318-1.379zm3.554-.371c.283.212.389.654.318 1.326s-.301 1.362-.69 2.069c-.354.672-.69.955-1.008.849-.283-.248-.389-.707-.318-1.379s.283-1.344.637-2.016c.389-.707.743-.99 1.061-.849z"/></defs></svg>