<svg xmlns="http://www.w3.org/2000/svg" xmlns:xlink="http://www.w3.org/1999/xlink" width="33" height="31" fill="none" xmlns:v="https://vecta.io/nano"><g fill="#fff"><path d="M.819 10.383c.768-.256 1.579.469 2.432 2.176.853 1.621 1.365 3.243 1.536 4.864.256 1.621.043 2.731-.64 3.328-.768.256-1.621-.427-2.56-2.048C.734 16.996.222 15.332.051 13.711s.085-2.731.768-3.328zm8.576-.896c.683.512.939 1.579.768 3.2s-.725 3.285-1.664 4.992c-.853 1.621-1.664 2.304-2.432 2.048-.683-.597-.939-1.707-.768-3.328s.683-3.243 1.536-4.864c.939-1.707 1.792-2.389 2.56-2.048zM12.034.981c.768-.256 1.579.469 2.432 2.176.853 1.621 1.365 3.243 1.536 4.864.256 1.621.043 2.731-.64 3.328-.768.256-1.621-.427-2.56-2.048-.853-1.707-1.365-3.371-1.536-4.992s.085-2.731.768-3.328zM20.61.085c.683.512.939 1.579.768 3.2s-.725 3.285-1.664 4.992c-.853 1.621-1.664 2.304-2.432 2.048-.683-.597-.939-1.707-.768-3.328s.683-3.243 1.536-4.864C18.988.427 19.842-.256 20.61.085z"/><use xlink:href="#B"/><use xlink:href="#B" y="9.402"/><use xlink:href="#B" x="11.214"/></g><defs ><path id="B" d="M12.034 10.383c.768-.256 1.579.469 2.432 2.176.853 1.621 1.365 3.243 1.536 4.864.256 1.621.043 2.731-.64 3.328-.768.256-1.621-.427-2.56-2.048-.853-1.707-1.365-3.371-1.536-4.992s.085-2.731.768-3.328zm8.576-.896c.683.512.939 1.579.768 3.2s-.725 3.285-1.664 4.992c-.853 1.621-1.664 2.304-2.432 2.048-.683-.597-.939-1.707-.768-3.328s.683-3.243 1.536-4.864c.939-1.707 1.792-2.389 2.56-2.048z"/></defs></svg>