<svg xmlns="http://www.w3.org/2000/svg" width="25" height="23" fill="#fff" xmlns:v="https://vecta.io/nano"><path d="M.624 7.906c.585-.195 1.202.357 1.852 1.657.65 1.235 1.04 2.469 1.17 3.704.195 1.235.032 2.079-.487 2.534-.585.195-1.235-.325-1.949-1.559-.65-1.3-1.04-2.567-1.17-3.801s.065-2.079.585-2.534zm6.53-.682c.52.39.715 1.202.585 2.437s-.552 2.502-1.267 3.801c-.65 1.235-1.267 1.754-1.852 1.56-.52-.455-.715-1.299-.585-2.534s.52-2.469 1.17-3.704c.715-1.3 1.365-1.819 1.949-1.559zM9.163.747c.585-.195 1.202.357 1.852 1.657.65 1.235 1.04 2.469 1.17 3.704.195 1.235.033 2.079-.487 2.534-.585.195-1.235-.325-1.949-1.559-.65-1.3-1.04-2.567-1.17-3.801s.065-2.079.585-2.534zm6.53-.682c.52.39.715 1.202.585 2.437s-.552 2.502-1.267 3.801c-.65 1.235-1.267 1.754-1.852 1.559-.52-.455-.715-1.3-.585-2.534s.52-2.469 1.17-3.704c.715-1.3 1.365-1.819 1.949-1.559zm-6.53 7.841c.585-.195 1.202.357 1.852 1.657.65 1.235 1.04 2.469 1.17 3.704.195 1.235.033 2.079-.487 2.534-.585.195-1.235-.325-1.949-1.559-.65-1.3-1.04-2.567-1.17-3.801s.065-2.079.585-2.534zm6.53-.682c.52.39.715 1.202.585 2.437s-.552 2.502-1.267 3.801c-.65 1.235-1.267 1.754-1.852 1.56-.52-.455-.715-1.299-.585-2.534s.52-2.469 1.17-3.704c.715-1.3 1.365-1.819 1.949-1.559zm-6.53 7.841c.585-.195 1.202.357 1.852 1.657.65 1.235 1.04 2.469 1.17 3.704.195 1.235.033 2.079-.487 2.534-.585.195-1.235-.325-1.949-1.559-.65-1.3-1.04-2.567-1.17-3.801s.065-2.079.585-2.534zm6.53-.682c.52.39.715 1.202.585 2.437s-.552 2.502-1.267 3.801c-.65 1.235-1.267 1.754-1.852 1.56-.52-.455-.715-1.3-.585-2.534s.52-2.469 1.17-3.704c.715-1.299 1.365-1.819 1.949-1.559zm2.01-6.477c.585-.195 1.202.357 1.852 1.657.65 1.235 1.04 2.469 1.17 3.704.195 1.235.032 2.079-.487 2.534-.585.195-1.235-.325-1.949-1.559-.65-1.3-1.04-2.567-1.17-3.801s.065-2.079.585-2.534zm6.53-.682c.52.39.715 1.202.585 2.437s-.552 2.502-1.267 3.801c-.65 1.235-1.267 1.754-1.852 1.56-.52-.455-.715-1.299-.585-2.534s.52-2.469 1.17-3.704c.715-1.3 1.364-1.819 1.949-1.559z"/></svg>