<svg width="55" height="50" fill="none" xmlns="http://www.w3.org/2000/svg"><g fill="#3A3E45"><path d="M53.454 20.36c-.76-.253-1.562.465-2.407 2.154-.844 1.604-1.35 3.209-1.52 4.813-.253 1.604-.042 2.702.634 3.293.76.254 1.604-.422 2.533-2.026.844-1.69 1.351-3.336 1.52-4.94.169-1.605-.084-2.703-.76-3.294zm-8.487-.886c-.675.506-.929 1.562-.76 3.166.17 1.605.718 3.252 1.647 4.94.844 1.605 1.647 2.28 2.407 2.027.675-.591.928-1.689.76-3.293-.17-1.605-.676-3.21-1.52-4.814-.93-1.689-1.774-2.364-2.534-2.026zM42.355 11.056c-.76-.253-1.562.465-2.406 2.154-.845 1.604-1.352 3.209-1.52 4.813-.254 1.605-.043 2.702.633 3.293.76.254 1.604-.422 2.533-2.026.845-1.69 1.352-3.336 1.52-4.94.17-1.605-.084-2.703-.76-3.294zm-8.486-.886c-.676.506-.93 1.562-.76 3.166.169 1.605.717 3.251 1.646 4.94.845 1.605 1.647 2.28 2.407 2.027.675-.591.929-1.689.76-3.293-.169-1.605-.676-3.21-1.52-4.814-.929-1.689-1.773-2.364-2.533-2.026zM42.355 20.36c-.76-.253-1.562.465-2.406 2.154-.845 1.604-1.352 3.209-1.52 4.813-.254 1.604-.043 2.702.633 3.293.76.254 1.604-.422 2.533-2.026.845-1.69 1.352-3.336 1.52-4.94.17-1.605-.084-2.703-.76-3.294zm-8.486-.886c-.676.506-.93 1.562-.76 3.166.169 1.605.717 3.252 1.646 4.94.845 1.605 1.647 2.28 2.407 2.027.675-.591.929-1.689.76-3.293-.169-1.605-.676-3.21-1.52-4.814-.929-1.689-1.773-2.364-2.533-2.026zM42.355 29.664c-.76-.253-1.562.464-2.406 2.153-.845 1.605-1.352 3.21-1.52 4.814-.254 1.604-.043 2.702.633 3.293.76.254 1.604-.422 2.533-2.026.845-1.69 1.352-3.336 1.52-4.94.17-1.605-.084-2.703-.76-3.294zm-8.486-.887c-.676.507-.93 1.563-.76 3.167.169 1.605.717 3.251 1.646 4.94.845 1.605 1.647 2.28 2.407 2.027.675-.591.929-1.69.76-3.294-.169-1.604-.676-3.208-1.52-4.813-.929-1.689-1.773-2.364-2.533-2.027zM31.258 1.753c-.76-.254-1.563.464-2.407 2.153-.845 1.604-1.351 3.209-1.52 4.813-.253 1.605-.042 2.703.633 3.294.76.253 1.605-.423 2.534-2.027.844-1.689 1.35-3.336 1.52-4.94.169-1.605-.085-2.702-.76-3.293zM22.77.866c-.676.507-.929 1.562-.76 3.167.169 1.604.718 3.25 1.647 4.94.844 1.604 1.646 2.28 2.406 2.026.676-.59.93-1.689.76-3.293-.169-1.605-.675-3.209-1.52-4.813-.929-1.69-1.773-2.365-2.533-2.027zM31.258 11.056c-.76-.253-1.563.465-2.407 2.154-.845 1.604-1.351 3.209-1.52 4.813-.253 1.605-.042 2.702.633 3.293.76.254 1.605-.422 2.534-2.026.844-1.69 1.35-3.336 1.52-4.94.169-1.605-.085-2.703-.76-3.294zm-8.487-.886c-.676.506-.929 1.562-.76 3.166.169 1.605.718 3.251 1.647 4.94.844 1.605 1.646 2.28 2.406 2.027.676-.591.93-1.689.76-3.293-.169-1.605-.675-3.21-1.52-4.814-.929-1.689-1.773-2.364-2.533-2.026zM31.258 29.664c-.76-.253-1.563.464-2.407 2.153-.845 1.605-1.351 3.21-1.52 4.814-.253 1.604-.042 2.702.633 3.293.76.254 1.605-.422 2.534-2.026.844-1.69 1.35-3.336 1.52-4.94.169-1.605-.085-2.703-.76-3.294zm-8.487-.887c-.676.507-.929 1.563-.76 3.167.169 1.605.718 3.251 1.647 4.94.844 1.605 1.646 2.28 2.406 2.027.676-.591.93-1.69.76-3.294-.169-1.604-.675-3.208-1.52-4.813-.929-1.689-1.773-2.364-2.533-2.027zM31.258 38.968c-.76-.253-1.563.464-2.407 2.153-.845 1.605-1.351 3.21-1.52 4.814-.253 1.604-.042 2.702.633 3.293.76.253 1.605-.422 2.534-2.027.844-1.688 1.35-3.335 1.52-4.94.169-1.604-.085-2.702-.76-3.293zm-8.487-.887c-.676.507-.929 1.563-.76 3.167.169 1.605.718 3.251 1.647 4.94.844 1.604 1.646 2.28 2.406 2.027.676-.591.93-1.69.76-3.294-.169-1.604-.675-3.209-1.52-4.813-.929-1.689-1.773-2.364-2.533-2.027z"/></g><g fill="#fff"><path d="M31.683 20.36c-.76-.253-1.562.465-2.406 2.154-.845 1.604-1.351 3.209-1.52 4.813-.254 1.604-.043 2.702.633 3.293.76.254 1.605-.422 2.534-2.026.844-1.69 1.35-3.336 1.52-4.94.168-1.605-.085-2.703-.76-3.294zm-8.486-.886c-.676.506-.93 1.562-.76 3.166.169 1.605.717 3.252 1.646 4.94.845 1.605 1.647 2.28 2.407 2.027.676-.591.929-1.689.76-3.293-.169-1.605-.675-3.21-1.52-4.814-.929-1.689-1.773-2.364-2.533-2.026zM20.585 11.056c-.76-.253-1.562.465-2.407 2.154-.844 1.604-1.351 3.209-1.52 4.813-.253 1.605-.042 2.702.633 3.293.76.254 1.605-.422 2.534-2.026.844-1.69 1.35-3.336 1.52-4.94.169-1.605-.085-2.703-.76-3.294zm-8.487-.886c-.676.506-.929 1.562-.76 3.166.169 1.605.718 3.251 1.647 4.94.844 1.605 1.646 2.28 2.407 2.027.675-.591.928-1.689.76-3.293-.17-1.605-.676-3.21-1.52-4.814-.93-1.689-1.774-2.364-2.534-2.026zM20.585 20.36c-.76-.253-1.562.465-2.407 2.154-.844 1.604-1.351 3.209-1.52 4.813-.253 1.604-.042 2.702.633 3.293.76.254 1.605-.422 2.534-2.026.844-1.69 1.35-3.336 1.52-4.94.169-1.605-.085-2.703-.76-3.294zm-8.487-.886c-.676.506-.929 1.562-.76 3.166.169 1.605.718 3.252 1.647 4.94.844 1.605 1.646 2.28 2.407 2.027.675-.591.928-1.689.76-3.293-.17-1.605-.676-3.21-1.52-4.814-.93-1.689-1.774-2.364-2.534-2.026zM20.585 29.664c-.76-.253-1.562.464-2.407 2.153-.844 1.605-1.351 3.21-1.52 4.814-.253 1.604-.042 2.702.633 3.293.76.254 1.605-.422 2.534-2.026.844-1.69 1.35-3.336 1.52-4.94.169-1.605-.085-2.703-.76-3.294zm-8.487-.887c-.676.507-.929 1.563-.76 3.167.169 1.605.718 3.251 1.647 4.94.844 1.605 1.646 2.28 2.407 2.027.675-.591.928-1.69.76-3.294-.17-1.604-.676-3.208-1.52-4.813-.93-1.689-1.774-2.364-2.534-2.027zM9.487 1.753c-.76-.254-1.562.464-2.407 2.153-.844 1.604-1.35 3.209-1.52 4.813-.253 1.605-.042 2.703.634 3.294.76.253 1.604-.423 2.533-2.027.845-1.689 1.351-3.336 1.52-4.94.17-1.605-.084-2.702-.76-3.293zM1 .866C.325 1.373.072 2.428.24 4.033c.17 1.604.718 3.25 1.647 4.94.845 1.604 1.647 2.28 2.407 2.026.675-.59.929-1.689.76-3.293-.17-1.605-.676-3.209-1.52-4.813C2.604 1.203 1.76.528 1 .866zM9.487 11.056c-.76-.253-1.562.465-2.407 2.154-.844 1.604-1.35 3.209-1.52 4.813-.253 1.605-.042 2.702.634 3.293.76.254 1.604-.422 2.533-2.026.845-1.69 1.351-3.336 1.52-4.94.17-1.605-.084-2.703-.76-3.294zM1 10.17c-.675.506-.928 1.562-.76 3.166.17 1.605.718 3.251 1.647 4.94.845 1.605 1.647 2.28 2.407 2.027.675-.591.929-1.689.76-3.293-.17-1.605-.676-3.21-1.52-4.814C2.604 10.507 1.76 9.832 1 10.17zM9.487 29.664c-.76-.253-1.562.464-2.407 2.153-.844 1.605-1.35 3.21-1.52 4.814-.253 1.604-.042 2.702.634 3.293.76.254 1.604-.422 2.533-2.026.845-1.69 1.351-3.336 1.52-4.94.17-1.605-.084-2.703-.76-3.294zM1 28.777c-.675.507-.928 1.563-.76 3.167.17 1.605.718 3.251 1.647 4.94.845 1.605 1.647 2.28 2.407 2.027.675-.591.929-1.69.76-3.294-.17-1.604-.676-3.208-1.52-4.813C2.604 29.115 1.76 28.44 1 28.777zM9.487 38.968c-.76-.253-1.562.464-2.407 2.153-.844 1.605-1.35 3.21-1.52 4.814-.253 1.604-.042 2.702.634 3.293.76.253 1.604-.422 2.533-2.027.845-1.688 1.351-3.335 1.52-4.94.17-1.604-.084-2.702-.76-3.293zM1 38.081c-.675.507-.928 1.563-.76 3.167.17 1.605.718 3.251 1.647 4.94.845 1.604 1.647 2.28 2.407 2.027.675-.591.929-1.69.76-3.294-.17-1.604-.676-3.209-1.52-4.813-.93-1.689-1.774-2.364-2.534-2.027z"/></g></svg>