<svg width="11" height="12" fill="none" xmlns="http://www.w3.org/2000/svg"><path d="M10.006 1.38c-.76-.254-1.562.464-2.406 2.155-.844 1.605-1.351 3.211-1.52 4.817-.253 1.606-.042 2.704.633 3.296.76.254 1.604-.422 2.533-2.028.844-1.69 1.35-3.339 1.52-4.944.169-1.606-.085-2.705-.76-3.297zM1.52.491C.846.999.593 2.055.761 3.662c.17 1.605.718 3.253 1.647 4.944.844 1.605 1.646 2.281 2.406 2.028.675-.592.928-1.69.76-3.296-.17-1.606-.676-3.212-1.52-4.818C3.125.83 2.281.154 1.521.492z" fill="#3A3E45"/></svg>