<svg width="33" height="31" fill="none" xmlns="http://www.w3.org/2000/svg"><path d="M.98 10.469c.76-.254 1.563.464 2.407 2.153.845 1.604 1.351 3.209 1.52 4.813.254 1.605.043 2.703-.633 3.294-.76.253-1.604-.422-2.533-2.027-.845-1.689-1.352-3.336-1.52-4.94-.17-1.604.084-2.702.76-3.293zm8.487-.887c.676.507.93 1.562.76 3.167-.168 1.604-.717 3.25-1.646 4.94-.845 1.604-1.647 2.28-2.407 2.026-.676-.59-.929-1.689-.76-3.293.169-1.604.676-3.209 1.52-4.813.929-1.69 1.773-2.365 2.533-2.027zM12.078 1.165c.76-.254 1.563.464 2.407 2.153.844 1.605 1.351 3.209 1.52 4.813.253 1.605.042 2.703-.633 3.294-.76.253-1.605-.422-2.534-2.027-.844-1.689-1.35-3.335-1.52-4.94-.169-1.604.085-2.702.76-3.293zm8.487-.887c.676.507.929 1.562.76 3.167-.169 1.604-.718 3.25-1.647 4.94-.844 1.604-1.646 2.28-2.406 2.027-.676-.592-.93-1.69-.76-3.294.168-1.604.675-3.209 1.52-4.813C18.96.615 19.805-.06 20.565.278z" fill="#3A3E45"/><path d="M11.81 9.971c.76-.253 1.563.465 2.407 2.153.845 1.605 1.351 3.21 1.52 4.814.254 1.604.043 2.702-.633 3.293-.76.254-1.604-.422-2.533-2.027-.845-1.688-1.351-3.335-1.52-4.94-.17-1.604.084-2.702.76-3.293zm8.487-.887c.676.507.93 1.563.76 3.167-.168 1.605-.717 3.251-1.646 4.94-.845 1.605-1.647 2.28-2.407 2.027-.676-.591-.929-1.689-.76-3.293.169-1.605.676-3.21 1.52-4.814.929-1.689 1.773-2.364 2.533-2.027zM12.078 19.772c.76-.253 1.563.465 2.407 2.154.844 1.604 1.351 3.209 1.52 4.813.253 1.605.042 2.702-.633 3.293-.76.254-1.605-.422-2.534-2.026-.844-1.69-1.35-3.336-1.52-4.94-.169-1.605.085-2.703.76-3.294zm8.487-.886c.676.506.929 1.562.76 3.166-.169 1.605-.718 3.252-1.647 4.94-.844 1.605-1.646 2.28-2.406 2.027-.676-.591-.93-1.689-.76-3.293.168-1.605.675-3.21 1.52-4.814.928-1.688 1.773-2.364 2.533-2.026zM23.176 10.469c.76-.254 1.562.464 2.407 2.153.844 1.604 1.35 3.209 1.52 4.813.253 1.605.042 2.703-.634 3.294-.76.253-1.604-.422-2.533-2.027-.845-1.689-1.351-3.336-1.52-4.94-.169-1.604.084-2.702.76-3.293zm8.487-.887c.675.507.929 1.562.76 3.167-.17 1.604-.718 3.25-1.647 4.94-.845 1.604-1.647 2.28-2.407 2.026-.675-.59-.929-1.689-.76-3.293.17-1.604.676-3.209 1.52-4.813.93-1.69 1.774-2.365 2.534-2.027z" fill="#3A3E45"/></svg>