<svg width="67" height="100" fill="none" xmlns="http://www.w3.org/2000/svg"><g fill="#fff"><path d="M49.73 57.914c.427-.086.853.128 1.28.64.427.426.81 1.066 1.152 1.92.341.853.597 1.706.768 2.56.256.853.341 1.62.256 2.304 0 .682-.213 1.109-.64 1.28-.597.256-1.28-.3-2.048-1.664-.768-1.451-1.237-2.86-1.408-4.224-.085-1.366.128-2.304.64-2.816zm7.296-.768c.597.426.81 1.365.64 2.816-.17 1.365-.64 2.73-1.408 4.096-.768 1.365-1.45 1.92-2.048 1.664-.341-.086-.555-.47-.64-1.152a7.914 7.914 0 0 1 .128-2.432 20.46 20.46 0 0 1 .896-2.432c.341-.854.725-1.536 1.152-2.048.427-.512.853-.683 1.28-.512zm1.536.768c.341-.086.725.128 1.152.64.512.426.939 1.066 1.28 1.92.341.853.597 1.706.768 2.56.256.853.341 1.62.256 2.304-.085.682-.299 1.109-.64 1.28-.683.256-1.408-.3-2.176-1.664-.683-1.451-1.11-2.86-1.28-4.224-.17-1.366.043-2.304.64-2.816zm7.168-.768c.597.426.81 1.365.64 2.816-.17 1.365-.64 2.73-1.408 4.096-.683 1.365-1.365 1.92-2.048 1.664-.512-.427-.683-1.323-.512-2.688.17-1.366.597-2.731 1.28-4.096.768-1.451 1.45-2.048 2.048-1.792zm-16-7.296c.683-.256 1.365.34 2.048 1.792.768 1.365 1.237 2.73 1.408 4.096.17 1.365-.043 2.26-.64 2.688-.597.256-1.28-.3-2.048-1.664-.768-1.451-1.237-2.86-1.408-4.224-.085-1.366.128-2.262.64-2.688zm7.296-.896c.597.512.81 1.45.64 2.816-.17 1.365-.64 2.773-1.408 4.224-.768 1.365-1.45 1.92-2.048 1.664-.341-.171-.555-.598-.64-1.28-.085-.683-.043-1.451.128-2.304.256-.94.555-1.792.896-2.56.341-.854.725-1.494 1.152-1.92.427-.512.853-.726 1.28-.64zm1.536.896c.597-.256 1.28.34 2.048 1.792.768 1.365 1.195 2.73 1.28 4.096.17 1.365 0 2.26-.512 2.688-.683.256-1.408-.3-2.176-1.664-.683-1.451-1.11-2.86-1.28-4.224-.17-1.366.043-2.262.64-2.688zm5.888-.256c.512-.512.939-.683 1.28-.512.427.085.683.469.768 1.152.085.682 0 1.493-.256 2.432a30.435 30.435 0 0 1-.896 2.56c-.256.768-.64 1.408-1.152 1.92-.427.426-.853.597-1.28.512-.341-.171-.555-.598-.64-1.28-.085-.683-.043-1.451.128-2.304.256-.94.555-1.792.896-2.56.341-.854.725-1.494 1.152-1.92zm-14.72-7.936c.683-.256 1.365.34 2.048 1.792.768 1.365 1.237 2.73 1.408 4.096.17 1.365-.043 2.304-.64 2.816-.597.17-1.28-.427-2.048-1.792-.768-1.366-1.237-2.731-1.408-4.096-.085-1.451.128-2.39.64-2.816zm7.296-.768c.597.426.81 1.322.64 2.688-.17 1.365-.64 2.773-1.408 4.224-.768 1.365-1.45 1.92-2.048 1.664-.341-.171-.555-.598-.64-1.28-.085-.683-.043-1.451.128-2.304a30.47 30.47 0 0 1 .896-2.56c.341-.854.725-1.494 1.152-1.92.427-.512.853-.683 1.28-.512zm1.536.768c.597-.256 1.28.34 2.048 1.792.768 1.365 1.195 2.73 1.28 4.096.17 1.365 0 2.304-.512 2.816-.683.17-1.408-.427-2.176-1.792-.683-1.366-1.11-2.731-1.28-4.096-.17-1.451.043-2.39.64-2.816zm5.888-.256c.512-.512.939-.683 1.28-.512.427.085.683.512.768 1.28.085.682 0 1.45-.256 2.304a30.435 30.435 0 0 1-.896 2.56c-.256.768-.64 1.408-1.152 1.92-.427.512-.853.682-1.28.512-.341-.171-.555-.598-.64-1.28-.085-.683-.043-1.451.128-2.304a30.47 30.47 0 0 1 .896-2.56c.341-.854.725-1.494 1.152-1.92zm-14.72-7.936c.683-.171 1.365.426 2.048 1.792.768 1.365 1.237 2.773 1.408 4.224.17 1.365-.043 2.26-.64 2.688-.597.256-1.28-.3-2.048-1.664-.768-1.451-1.237-2.86-1.408-4.224-.085-1.366.128-2.304.64-2.816zm7.296-.768c.597.426.81 1.365.64 2.816-.17 1.365-.64 2.73-1.408 4.096-.768 1.365-1.45 1.92-2.048 1.664-.341-.086-.555-.47-.64-1.152a7.914 7.914 0 0 1 .128-2.432 20.46 20.46 0 0 1 .896-2.432c.341-.854.725-1.536 1.152-2.048.427-.512.853-.683 1.28-.512zm1.536.768c.597-.171 1.28.426 2.048 1.792.768 1.365 1.195 2.773 1.28 4.224.17 1.365 0 2.26-.512 2.688-.683.256-1.408-.3-2.176-1.664-.683-1.451-1.11-2.86-1.28-4.224-.17-1.366.043-2.304.64-2.816zm5.888-.256c.512-.512.939-.683 1.28-.512.427.17.683.597.768 1.28.085.682 0 1.45-.256 2.304a30.435 30.435 0 0 1-.896 2.56c-.256.853-.64 1.536-1.152 2.048-.427.426-.853.597-1.28.512-.341-.171-.555-.598-.64-1.28a7.914 7.914 0 0 1 .128-2.432 20.46 20.46 0 0 1 .896-2.432c.341-.854.725-1.536 1.152-2.048zm-14.72-7.808c.768-.342 1.536.384 2.304 2.176 1.365 2.816 1.664 4.82.896 6.016a.837.837 0 0 1-.384.384c-.597.256-1.28-.3-2.048-1.664-.768-1.451-1.237-2.86-1.408-4.224-.085-1.366.128-2.262.64-2.688zm7.296-.896c.597.512.81 1.45.64 2.816-.17 1.365-.64 2.773-1.408 4.224-.768 1.365-1.45 1.92-2.048 1.664-.341-.171-.555-.598-.64-1.28-.085-.683-.043-1.451.128-2.304.256-.94.555-1.792.896-2.56.341-.854.725-1.494 1.152-1.92.427-.512.853-.726 1.28-.64zm1.536.896c.341-.171.725 0 1.152.512.512.512.939 1.194 1.28 2.048.341.768.597 1.578.768 2.432.256.853.341 1.62.256 2.304-.085.682-.299 1.109-.64 1.28-.683.256-1.408-.3-2.176-1.664-.683-1.451-1.11-2.86-1.28-4.224-.17-1.366.043-2.262.64-2.688zm5.888-.256c.512-.512.939-.683 1.28-.512.427.085.683.469.768 1.152.085.682 0 1.493-.256 2.432a30.435 30.435 0 0 1-.896 2.56c-.256.768-.64 1.408-1.152 1.92-.427.426-.853.597-1.28.512-.341-.171-.555-.598-.64-1.28-.085-.683-.043-1.451.128-2.304.256-.94.555-1.792.896-2.56.341-.854.725-1.494 1.152-1.92zM49.73 17.21c.683-.256 1.365.34 2.048 1.792.768 1.365 1.237 2.73 1.408 4.096.17 1.365-.043 2.26-.64 2.688-.341.17-.768.042-1.28-.384-.427-.512-.81-1.195-1.152-2.048a30.47 30.47 0 0 1-.896-2.56c-.17-.854-.213-1.622-.128-2.304.085-.683.299-1.11.64-1.28zm7.296-.768c.597.426.81 1.322.64 2.688-.17 1.365-.64 2.773-1.408 4.224-.768 1.365-1.45 1.92-2.048 1.664-.341-.171-.555-.598-.64-1.28-.085-.683-.043-1.451.128-2.304a30.47 30.47 0 0 1 .896-2.56c.341-.854.725-1.494 1.152-1.92.427-.512.853-.683 1.28-.512zm1.536.768c.597-.256 1.28.34 2.048 1.792.768 1.365 1.195 2.73 1.28 4.096.17 1.365 0 2.26-.512 2.688-.427.17-.896.042-1.408-.384-.427-.512-.81-1.195-1.152-2.048l-.768-2.56c-.17-.854-.256-1.622-.256-2.304.085-.683.341-1.11.768-1.28zm5.632 7.296c-.427.512-.853.682-1.28.512-.341-.171-.555-.598-.64-1.28-.085-.683-.043-1.451.128-2.304a30.47 30.47 0 0 1 .896-2.56c.341-.854.725-1.494 1.152-1.92.512-.512.939-.683 1.28-.512.427.085.683.512.768 1.28.085.682 0 1.45-.256 2.304a30.435 30.435 0 0 1-.896 2.56c-.256.768-.64 1.408-1.152 1.92zM41.026 9.018c.597-.256 1.28.34 2.048 1.792.768 1.365 1.195 2.73 1.28 4.096.17 1.365 0 2.304-.512 2.816a1.444 1.444 0 0 1-1.024-.128 12.697 12.697 0 0 1-.896-1.024 31.296 31.296 0 0 1-.768-1.664l-.512-1.792c-.17-.683-.299-1.28-.384-1.792 0-.598.043-1.067.128-1.408.17-.427.384-.726.64-.896zm7.168-.768c.597.426.81 1.365.64 2.816-.17 1.365-.64 2.73-1.408 4.096-.683 1.365-1.323 1.92-1.92 1.664-.597-.427-.81-1.323-.64-2.688.17-1.366.597-2.731 1.28-4.096.768-1.451 1.45-2.048 2.048-1.792zm1.536.768c.683-.256 1.365.34 2.048 1.792.768 1.365 1.237 2.73 1.408 4.096.17 1.365-.043 2.304-.64 2.816-.256.085-.555.042-.896-.128a3.522 3.522 0 0 1-.896-1.024 31.296 31.296 0 0 1-.768-1.664 15.038 15.038 0 0 1-.64-1.792c-.085-.683-.17-1.28-.256-1.792-.085-.598-.085-1.067 0-1.408.17-.427.384-.726.64-.896zm7.296-.768c.597.426.81 1.365.64 2.816-.17 1.365-.64 2.73-1.408 4.096-.768 1.365-1.45 1.92-2.048 1.664-.341-.086-.555-.47-.64-1.152a7.914 7.914 0 0 1 .128-2.432 20.46 20.46 0 0 1 .896-2.432c.341-.854.725-1.536 1.152-2.048.427-.512.853-.683 1.28-.512zM32.194.954c.683-.256 1.365.298 2.048 1.664.768 1.365 1.237 2.773 1.408 4.224.17 1.365-.043 2.26-.64 2.688-.597.256-1.28-.3-2.048-1.664-.768-1.451-1.237-2.86-1.408-4.224-.085-1.366.128-2.262.64-2.688zM39.49.058c.597.512.81 1.45.64 2.816-.17 1.365-.64 2.773-1.408 4.224-.683 1.365-1.365 1.92-2.048 1.664-.512-.512-.725-1.451-.64-2.816.17-1.366.64-2.731 1.408-4.096C38.21.399 38.892-.198 39.49.058zm1.536.896c.597-.256 1.28.298 2.048 1.664.768 1.365 1.195 2.773 1.28 4.224.17 1.365 0 2.26-.512 2.688-.683.256-1.408-.3-2.176-1.664-.683-1.451-1.11-2.86-1.28-4.224-.17-1.366.043-2.262.64-2.688zm7.168-.896c.597.512.81 1.45.64 2.816-.17 1.365-.64 2.773-1.408 4.224-.683 1.365-1.323 1.92-1.92 1.664-.597-.512-.81-1.451-.64-2.816.17-1.366.597-2.731 1.28-4.096.768-1.451 1.45-2.048 2.048-1.792zm1.536 66.048c.427-.171.853 0 1.28.512.427.512.81 1.194 1.152 2.048.341.768.597 1.62.768 2.56.256.853.341 1.62.256 2.304 0 .682-.213 1.109-.64 1.28-.597.17-1.28-.427-2.048-1.792-.768-1.366-1.237-2.731-1.408-4.096-.085-1.451.128-2.39.64-2.816zm7.296-.768c.597.426.81 1.322.64 2.688-.17 1.365-.64 2.773-1.408 4.224-.768 1.365-1.45 1.92-2.048 1.664-.341-.171-.555-.598-.64-1.28-.085-.683-.043-1.451.128-2.304a30.47 30.47 0 0 1 .896-2.56c.341-.854.725-1.494 1.152-1.92.427-.512.853-.683 1.28-.512zm1.536.768c.341-.171.725 0 1.152.512.512.512.939 1.194 1.28 2.048.341.768.597 1.62.768 2.56.256.853.341 1.62.256 2.304-.085.682-.299 1.109-.64 1.28-.683.17-1.408-.427-2.176-1.792-.683-1.366-1.11-2.731-1.28-4.096-.17-1.451.043-2.39.64-2.816zm7.168-.768c.597.426.81 1.322.64 2.688-.17 1.365-.64 2.773-1.408 4.224-.683 1.365-1.365 1.92-2.048 1.664-.512-.427-.683-1.323-.512-2.688.17-1.451.597-2.86 1.28-4.224.768-1.366 1.45-1.92 2.048-1.664zM32.194 90.554c.683-.256 1.365.34 2.048 1.792.768 1.365 1.237 2.73 1.408 4.096.17 1.365-.043 2.304-.64 2.816-.597.17-1.28-.427-2.048-1.792-.768-1.366-1.237-2.731-1.408-4.096-.085-1.451.128-2.39.64-2.816zm7.296-.768c.597.426.81 1.322.64 2.688-.17 1.365-.64 2.773-1.408 4.224-.683 1.365-1.365 1.92-2.048 1.664-.512-.427-.725-1.323-.64-2.688.17-1.451.64-2.86 1.408-4.224.768-1.366 1.45-1.92 2.048-1.664zm1.536.768c.597-.256 1.28.34 2.048 1.792.768 1.365 1.195 2.73 1.28 4.096.17 1.365 0 2.304-.512 2.816-.683.17-1.408-.427-2.176-1.792-.683-1.366-1.11-2.731-1.28-4.096-.17-1.451.043-2.39.64-2.816zm7.168-.768c.597.426.81 1.322.64 2.688-.17 1.365-.64 2.773-1.408 4.224-.683 1.365-1.323 1.92-1.92 1.664-.597-.427-.81-1.323-.64-2.688.17-1.451.597-2.86 1.28-4.224.768-1.366 1.45-1.92 2.048-1.664zm-7.168-7.424c.597-.171 1.28.426 2.048 1.792.768 1.365 1.195 2.773 1.28 4.224.17 1.365 0 2.26-.512 2.688-.683.256-1.408-.3-2.176-1.664-.683-1.451-1.11-2.86-1.28-4.224-.17-1.366.043-2.304.64-2.816zm7.168-.768c.597.426.81 1.365.64 2.816-.17 1.365-.64 2.73-1.408 4.096-.683 1.365-1.323 1.92-1.92 1.664-.597-.427-.81-1.323-.64-2.688.17-1.366.597-2.731 1.28-4.096.768-1.451 1.45-2.048 2.048-1.792zm1.536.768c.683-.171 1.365.426 2.048 1.792.768 1.365 1.237 2.773 1.408 4.224.17 1.365-.043 2.26-.64 2.688-.597.256-1.28-.3-2.048-1.664-.768-1.451-1.237-2.86-1.408-4.224-.085-1.366.128-2.304.64-2.816zm7.296-.768c.597.426.81 1.365.64 2.816-.17 1.365-.64 2.73-1.408 4.096-.768 1.365-1.45 1.92-2.048 1.664-.341-.086-.555-.47-.64-1.152-.085-.683-.043-1.451.128-2.304.256-.94.555-1.792.896-2.56.341-.854.725-1.536 1.152-2.048.427-.512.853-.683 1.28-.512zm-7.296-7.296c.683-.256 1.365.34 2.048 1.792.768 1.365 1.237 2.73 1.408 4.096.17 1.365-.043 2.26-.64 2.688-.597.256-1.28-.3-2.048-1.664-.768-1.451-1.237-2.86-1.408-4.224-.085-1.366.128-2.262.64-2.688zm7.296-.896c.597.512.81 1.45.64 2.816-.17 1.365-.64 2.773-1.408 4.224-.768 1.365-1.45 1.92-2.048 1.664-.341-.171-.555-.598-.64-1.28-.085-.683-.043-1.451.128-2.304.256-.94.555-1.792.896-2.56.341-.854.725-1.494 1.152-1.92.427-.512.853-.726 1.28-.64zm1.536.896c.597-.256 1.28.34 2.048 1.792.768 1.365 1.195 2.73 1.28 4.096.17 1.365 0 2.26-.512 2.688-.683.256-1.408-.3-2.176-1.664-.683-1.451-1.11-2.86-1.28-4.224-.17-1.366.043-2.262.64-2.688zm5.888-.256c.512-.512.939-.683 1.28-.512.427.085.683.469.768 1.152.085.682 0 1.493-.256 2.432a30.435 30.435 0 0 1-.896 2.56c-.256.768-.64 1.408-1.152 1.92-.427.512-.853.682-1.28.512-.341-.171-.555-.598-.64-1.28-.085-.683-.043-1.451.128-2.304.256-.94.555-1.792.896-2.56.341-.854.725-1.494 1.152-1.92zM.697 89.914c.683-.256 1.408.384 2.176 1.92.853 1.45 1.365 2.944 1.536 4.48.17 1.45-.085 2.432-.768 2.944-.683.256-1.408-.384-2.176-1.92-.768-1.536-1.237-3.03-1.408-4.48-.17-1.536.043-2.518.64-2.944zm7.808-.896c.597.512.81 1.493.64 2.944-.17 1.45-.683 2.944-1.536 4.48-.768 1.536-1.493 2.176-2.176 1.92-.341-.171-.555-.64-.64-1.408-.085-.768-.043-1.622.128-2.56.256-.94.555-1.835.896-2.688.427-.94.853-1.664 1.28-2.176.512-.512.981-.683 1.408-.512zm1.664.896c.683-.256 1.408.384 2.176 1.92.853 1.45 1.365 2.944 1.536 4.48.17 1.45-.085 2.432-.768 2.944-.683.256-1.408-.384-2.176-1.92-.768-1.536-1.237-3.03-1.408-4.48-.17-1.536.043-2.518.64-2.944zm7.808-.896c.597.512.81 1.493.64 2.944-.17 1.45-.683 2.944-1.536 4.48-.768 1.536-1.493 2.176-2.176 1.92-.597-.512-.81-1.494-.64-2.944.17-1.536.64-3.03 1.408-4.48.853-1.536 1.621-2.176 2.304-1.92zm-7.808-7.936c.683-.256 1.408.384 2.176 1.92.853 1.45 1.365 2.944 1.536 4.48.17 1.45-.085 2.432-.768 2.944-.683.256-1.408-.342-2.176-1.792-.768-1.536-1.237-3.03-1.408-4.48-.17-1.536.043-2.56.64-3.072zm7.808-.896c.597.512.81 1.536.64 3.072-.17 1.45-.683 2.944-1.536 4.48-.768 1.45-1.493 2.048-2.176 1.792-.597-.512-.81-1.494-.64-2.944.17-1.536.64-3.03 1.408-4.48.853-1.536 1.621-2.176 2.304-1.92zm-17.28.896c.683-.256 1.408.384 2.176 1.92.853 1.45 1.365 2.944 1.536 4.48.17 1.45-.085 2.432-.768 2.944-.683.256-1.408-.342-2.176-1.792-.768-1.536-1.237-3.03-1.408-4.48-.17-1.536.043-2.56.64-3.072zm7.808-.896c.597.512.81 1.536.64 3.072-.17 1.45-.683 2.944-1.536 4.48-.768 1.45-1.493 2.048-2.176 1.792-.341-.171-.555-.64-.64-1.408-.085-.768-.043-1.622.128-2.56.256-.94.555-1.835.896-2.688.427-.854.853-1.536 1.28-2.048.512-.598.981-.811 1.408-.64zm1.664-43.136c.683-.256 1.408.384 2.176 1.92.853 1.45 1.365 2.944 1.536 4.48.17 1.45-.085 2.432-.768 2.944-.683.256-1.408-.342-2.176-1.792-.768-1.536-1.237-3.03-1.408-4.48-.17-1.536.043-2.56.64-3.072zm7.808-.896c.597.512.81 1.536.64 3.072-.17 1.45-.683 2.944-1.536 4.48-.768 1.45-1.493 2.048-2.176 1.792-.597-.512-.81-1.494-.64-2.944.17-1.536.64-3.03 1.408-4.48.853-1.536 1.621-2.176 2.304-1.92zm-17.28.896c.683-.256 1.408.384 2.176 1.92.853 1.45 1.365 2.944 1.536 4.48.17 1.45-.085 2.432-.768 2.944-.683.256-1.408-.342-2.176-1.792-.768-1.536-1.237-3.03-1.408-4.48-.17-1.536.043-2.56.64-3.072zm7.808-.896c.597.512.81 1.536.64 3.072-.17 1.45-.683 2.944-1.536 4.48-.768 1.45-1.493 2.048-2.176 1.792-.341-.171-.555-.64-.64-1.408-.085-.768-.043-1.622.128-2.56.256-.94.555-1.835.896-2.688.427-.94.853-1.664 1.28-2.176.512-.512.981-.683 1.408-.512zm1.664-7.936c.683-.256 1.408.384 2.176 1.92.853 1.45 1.365 2.944 1.536 4.48.17 1.45-.085 2.432-.768 2.944-.683.256-1.408-.342-2.176-1.792-.768-1.536-1.237-3.03-1.408-4.48-.17-1.536.043-2.56.64-3.072zm4.736 8.448c-.597-.512-.81-1.494-.64-2.944.17-1.536.64-3.03 1.408-4.48.853-1.536 1.621-2.176 2.304-1.92.597.512.81 1.536.64 3.072-.17 1.45-.683 2.944-1.536 4.48-.768 1.45-1.493 2.048-2.176 1.792zM.697 28.218c.683-.256 1.408.384 2.176 1.92.853 1.45 1.365 2.944 1.536 4.48.17 1.45-.085 2.432-.768 2.944-.683.256-1.408-.342-2.176-1.792C.697 34.234.228 32.74.057 31.29c-.17-1.536.043-2.56.64-3.072zm7.808-.896c.597.512.81 1.536.64 3.072-.17 1.45-.683 2.944-1.536 4.48-.768 1.45-1.493 2.048-2.176 1.792-.341-.171-.555-.64-.64-1.408-.085-.768-.043-1.622.128-2.56.256-.94.555-1.835.896-2.688.427-.854.853-1.536 1.28-2.048.512-.598.981-.811 1.408-.64z"/></g></svg>