<svg xmlns="http://www.w3.org/2000/svg" xmlns:xlink="http://www.w3.org/1999/xlink" width="84" height="192" fill="none" xmlns:v="https://vecta.io/nano"><g fill="#fff"><path d="M86.419.769c-.602-.201-1.237.368-1.905 1.704-.668 1.27-1.069 2.54-1.203 3.81-.2 1.27-.033 2.139.501 2.607.602.201 1.27-.334 2.005-1.604.668-1.337 1.069-2.64 1.203-3.91s-.067-2.139-.602-2.607zM79.701.067c-.535.401-.735 1.237-.602 2.507s.568 2.573 1.303 3.91c.668 1.27 1.303 1.805 1.905 1.604.535-.468.735-1.337.602-2.607s-.535-2.54-1.203-3.81C80.971.334 80.302-.201 79.701.067zm6.718 7.743c-.602-.201-1.237.368-1.905 1.704-.668 1.27-1.069 2.54-1.203 3.81-.2 1.27-.033 2.139.501 2.607.602.2 1.27-.334 2.005-1.604.668-1.337 1.069-2.64 1.203-3.91s-.067-2.139-.602-2.607zm-6.718-.702c-.535.401-.735 1.237-.602 2.507s.568 2.573 1.303 3.91c.668 1.27 1.303 1.805 1.905 1.604.535-.468.735-1.337.602-2.607s-.535-2.54-1.203-3.81c-.735-1.337-1.404-1.872-2.005-1.604zm-2.067.702c-.602-.201-1.237.368-1.905 1.704-.669 1.27-1.07 2.54-1.203 3.81-.2 1.27-.033 2.139.501 2.607.602.2 1.27-.334 2.005-1.604.668-1.337 1.07-2.64 1.203-3.91s-.067-2.139-.602-2.607zm-6.718-.702c-.535.401-.735 1.237-.602 2.507s.568 2.573 1.303 3.91c.668 1.27 1.303 1.805 1.905 1.604.535-.468.735-1.337.601-2.607s-.535-2.54-1.203-3.81c-.735-1.337-1.404-1.872-2.005-1.604z"/><use xlink:href="#B"/><path d="M68.85 14.851c-.602-.2-1.237.368-1.905 1.704-.668 1.27-1.07 2.54-1.203 3.81-.201 1.27-.033 2.139.501 2.607.602.2 1.27-.334 2.005-1.604.668-1.337 1.07-2.64 1.203-3.91s-.067-2.139-.602-2.607zm-6.718-.702c-.535.401-.735 1.237-.602 2.507s.568 2.573 1.303 3.91c.669 1.27 1.303 1.805 1.905 1.604.535-.468.735-1.337.602-2.607s-.535-2.54-1.203-3.81c-.735-1.337-1.404-1.872-2.005-1.604zm24.287 7.743c-.602-.2-1.237.368-1.905 1.704-.668 1.27-1.069 2.54-1.203 3.81-.2 1.27-.033 2.139.501 2.607.602.201 1.27-.334 2.005-1.604.668-1.337 1.069-2.64 1.203-3.91s-.067-2.139-.602-2.607zm-6.718-.702c-.535.401-.735 1.237-.602 2.507s.568 2.573 1.303 3.91c.668 1.27 1.303 1.805 1.905 1.604.535-.468.735-1.337.602-2.607s-.535-2.54-1.203-3.81c-.735-1.337-1.404-1.872-2.005-1.604z"/></g><path d="M77.634 21.892c-.602-.2-1.237.368-1.905 1.704-.669 1.27-1.07 2.54-1.203 3.81-.2 1.27-.033 2.139.501 2.607.602.201 1.27-.334 2.005-1.604.668-1.337 1.07-2.64 1.203-3.91s-.067-2.139-.602-2.607zm-6.718-.702c-.535.401-.735 1.237-.602 2.507s.568 2.573 1.303 3.91c.668 1.27 1.303 1.805 1.905 1.604.535-.468.735-1.337.601-2.607s-.535-2.54-1.203-3.81c-.735-1.337-1.404-1.872-2.005-1.604z" fill="#f1f1f1"/><g fill="#fff"><use xlink:href="#B" y="14.082"/><path d="M77.634 28.933c-.602-.2-1.237.368-1.905 1.704-.669 1.27-1.07 2.54-1.203 3.81-.2 1.27-.033 2.139.501 2.607.602.2 1.27-.334 2.005-1.604.668-1.337 1.07-2.64 1.203-3.91s-.067-2.139-.602-2.607zm-6.718-.702c-.535.401-.735 1.237-.602 2.507s.568 2.573 1.303 3.91c.668 1.27 1.303 1.805 1.905 1.604.535-.468.735-1.337.601-2.607s-.535-2.54-1.203-3.81c-.735-1.337-1.404-1.872-2.005-1.604zm-10.851.702c-.602-.2-1.236.368-1.905 1.704-.668 1.27-1.069 2.54-1.203 3.81-.201 1.27-.033 2.139.501 2.607.602.2 1.27-.334 2.005-1.604.668-1.337 1.069-2.64 1.203-3.91s-.067-2.139-.602-2.607zm-6.718-.702c-.535.401-.735 1.237-.602 2.507s.568 2.573 1.303 3.91c.668 1.27 1.303 1.805 1.905 1.604.535-.468.735-1.337.602-2.607s-.535-2.54-1.203-3.81c-.735-1.337-1.404-1.872-2.005-1.604z"/><use xlink:href="#C"/><use xlink:href="#D"/><use xlink:href="#E"/><use xlink:href="#F"/><use xlink:href="#G"/><use xlink:href="#C" x="-43.922"/><use xlink:href="#H"/><path d="M77.634 43.015c-.602-.2-1.237.368-1.905 1.705-.669 1.27-1.07 2.54-1.203 3.81-.2 1.27-.033 2.139.501 2.607.602.201 1.27-.334 2.005-1.604.668-1.337 1.07-2.64 1.203-3.91s-.067-2.139-.602-2.607zm-6.718-.702c-.535.401-.735 1.237-.602 2.507s.568 2.574 1.303 3.91c.668 1.27 1.303 1.805 1.905 1.604.535-.468.735-1.337.601-2.607s-.535-2.54-1.203-3.81c-.735-1.337-1.404-1.872-2.005-1.604zm-2.066.702c-.602-.2-1.237.368-1.905 1.705-.668 1.27-1.07 2.54-1.203 3.81-.201 1.27-.033 2.139.501 2.607.602.201 1.27-.334 2.005-1.604.668-1.337 1.07-2.64 1.203-3.91s-.067-2.139-.602-2.607zm-6.718-.702c-.535.401-.735 1.237-.602 2.507s.568 2.574 1.303 3.91c.669 1.27 1.303 1.805 1.905 1.604.535-.468.735-1.337.602-2.607s-.535-2.54-1.203-3.81c-.735-1.337-1.404-1.872-2.005-1.604zm-2.067.702c-.602-.2-1.236.368-1.905 1.705-.668 1.27-1.069 2.54-1.203 3.81-.201 1.27-.033 2.139.501 2.607.602.201 1.27-.334 2.005-1.604.668-1.337 1.069-2.64 1.203-3.91s-.067-2.139-.602-2.607zm-6.718-.702c-.535.401-.735 1.237-.602 2.507s.568 2.574 1.303 3.91c.668 1.27 1.303 1.805 1.905 1.604.535-.468.735-1.337.602-2.607s-.535-2.54-1.203-3.81c-.735-1.337-1.404-1.872-2.005-1.604zm-2.066.702c-.602-.2-1.237.368-1.905 1.705-.668 1.27-1.07 2.54-1.203 3.81-.2 1.27-.033 2.139.501 2.607.601.201 1.27-.334 2.005-1.604.669-1.337 1.07-2.64 1.203-3.91s-.067-2.139-.602-2.607zm-6.718-.702c-.535.401-.735 1.237-.602 2.507s.568 2.574 1.303 3.91c.668 1.27 1.303 1.805 1.905 1.604.535-.468.735-1.337.602-2.607s-.535-2.54-1.203-3.81c-.735-1.337-1.404-1.872-2.005-1.604z"/><use xlink:href="#H" x="-43.922"/></g><path d="M33.712 43.015c-.602-.2-1.236.368-1.905 1.705-.668 1.27-1.069 2.54-1.203 3.81-.201 1.27-.034 2.139.501 2.607.602.201 1.27-.334 2.005-1.604.668-1.337 1.069-2.64 1.203-3.91s-.067-2.139-.602-2.607zm-6.718-.702c-.535.401-.735 1.237-.602 2.507s.568 2.574 1.303 3.91c.668 1.27 1.303 1.805 1.905 1.604.535-.468.735-1.337.602-2.607s-.535-2.54-1.203-3.81c-.735-1.337-1.404-1.872-2.005-1.604z" fill="#f1f1f1"/><g fill="#fff"><use xlink:href="#I"/><use xlink:href="#J"/><use xlink:href="#K"/><use xlink:href="#L"/><use xlink:href="#M"/><use xlink:href="#I" x="-43.922"/><path d="M33.712 50.057c-.602-.2-1.236.368-1.905 1.705-.668 1.27-1.069 2.54-1.203 3.81-.201 1.27-.034 2.139.501 2.607.602.2 1.27-.334 2.005-1.604.668-1.337 1.069-2.64 1.203-3.91s-.067-2.139-.602-2.607zm-6.718-.702c-.535.401-.735 1.237-.602 2.507s.568 2.573 1.303 3.91c.668 1.27 1.303 1.805 1.905 1.604.535-.468.735-1.337.602-2.607s-.535-2.54-1.203-3.81c-.735-1.337-1.404-1.872-2.005-1.604z"/><use xlink:href="#I" y="7.041"/><use xlink:href="#J" y="7.041"/><use xlink:href="#K" y="7.041"/><use xlink:href="#L" y="7.041"/><use xlink:href="#M" y="7.041"/><use xlink:href="#I" x="-43.922" y="7.041"/><use xlink:href="#N"/><path d="M77.634 64.139c-.602-.2-1.237.368-1.905 1.704-.669 1.27-1.07 2.54-1.203 3.81-.2 1.27-.033 2.139.501 2.607.602.201 1.27-.334 2.005-1.604.668-1.337 1.07-2.64 1.203-3.91s-.067-2.139-.602-2.607zm-6.718-.702c-.535.401-.735 1.237-.602 2.507s.568 2.574 1.303 3.91c.668 1.27 1.303 1.805 1.905 1.604.535-.468.735-1.337.601-2.607s-.535-2.54-1.203-3.81c-.735-1.337-1.404-1.872-2.005-1.604zm-2.066.702c-.602-.2-1.237.368-1.905 1.704-.668 1.27-1.07 2.54-1.203 3.81-.201 1.27-.033 2.139.501 2.607.602.201 1.27-.334 2.005-1.604.668-1.337 1.07-2.64 1.203-3.91s-.067-2.139-.602-2.607zm-6.718-.702c-.535.401-.735 1.237-.602 2.507s.568 2.574 1.303 3.91c.669 1.27 1.303 1.805 1.905 1.604.535-.468.735-1.337.602-2.607s-.535-2.54-1.203-3.81c-.735-1.337-1.404-1.872-2.005-1.604zm-2.067.702c-.602-.2-1.236.368-1.905 1.704-.668 1.27-1.069 2.54-1.203 3.81-.201 1.27-.033 2.139.501 2.607.602.201 1.27-.334 2.005-1.604.668-1.337 1.069-2.64 1.203-3.91s-.067-2.139-.602-2.607zm-6.718-.702c-.535.401-.735 1.237-.602 2.507s.568 2.574 1.303 3.91c.668 1.27 1.303 1.805 1.905 1.604.535-.468.735-1.337.602-2.607s-.535-2.54-1.203-3.81c-.735-1.337-1.404-1.872-2.005-1.604zm-2.066.702c-.602-.2-1.237.368-1.905 1.704-.668 1.27-1.07 2.54-1.203 3.81-.2 1.27-.033 2.139.501 2.607.601.201 1.27-.334 2.005-1.604.669-1.337 1.07-2.64 1.203-3.91s-.067-2.139-.602-2.607zm-6.718-.702c-.535.401-.735 1.237-.602 2.507s.568 2.574 1.303 3.91c.668 1.27 1.303 1.805 1.905 1.604.535-.468.735-1.337.602-2.607s-.535-2.54-1.203-3.81c-.735-1.337-1.404-1.872-2.005-1.604z"/><use xlink:href="#N" x="-43.922"/><path d="M33.712 64.139c-.602-.2-1.236.368-1.905 1.704-.668 1.27-1.069 2.54-1.203 3.81-.201 1.27-.034 2.139.501 2.607.602.201 1.27-.334 2.005-1.604.668-1.337 1.069-2.64 1.203-3.91s-.067-2.139-.602-2.607zm-6.718-.702c-.535.401-.735 1.237-.602 2.507s.568 2.574 1.303 3.91c.668 1.27 1.303 1.805 1.905 1.604.535-.468.735-1.337.602-2.607s-.535-2.54-1.203-3.81c-.735-1.337-1.404-1.872-2.005-1.604zm-2.066.702c-.602-.2-1.237.368-1.905 1.704-.668 1.27-1.07 2.54-1.203 3.81-.201 1.27-.033 2.139.501 2.607.602.201 1.27-.334 2.005-1.604.668-1.337 1.07-2.64 1.203-3.91s-.067-2.139-.602-2.607zm-6.718-.702c-.535.401-.735 1.237-.602 2.507s.568 2.574 1.303 3.91c.668 1.27 1.303 1.805 1.905 1.604.535-.468.735-1.337.602-2.607s-.535-2.54-1.203-3.81c-.735-1.337-1.404-1.872-2.005-1.604z"/><use xlink:href="#C" y="35.206"/><use xlink:href="#D" y="35.206"/><use xlink:href="#E" y="35.206"/><use xlink:href="#F" y="35.206"/><use xlink:href="#G" y="35.206"/><use xlink:href="#C" x="-43.922" y="35.206"/><path d="M33.712 71.18c-.602-.201-1.236.368-1.905 1.704-.668 1.27-1.069 2.54-1.203 3.81-.201 1.27-.034 2.139.501 2.607.602.201 1.27-.334 2.005-1.604.668-1.337 1.069-2.64 1.203-3.91s-.067-2.139-.602-2.607zm-6.718-.702c-.535.401-.735 1.237-.602 2.507s.568 2.573 1.303 3.91c.668 1.27 1.303 1.805 1.905 1.604.535-.468.735-1.337.602-2.607s-.535-2.54-1.203-3.81c-.735-1.337-1.404-1.872-2.005-1.604z"/><use xlink:href="#O"/><use xlink:href="#C" y="42.247"/><use xlink:href="#D" y="42.247"/><use xlink:href="#E" y="42.247"/><use xlink:href="#F" y="42.247"/><use xlink:href="#G" y="42.247"/><use xlink:href="#C" x="-43.922" y="42.247"/><use xlink:href="#O" y="7.041"/><use xlink:href="#P"/><use xlink:href="#Q"/><use xlink:href="#R"/><use xlink:href="#S"/><use xlink:href="#T"/><use xlink:href="#P" x="-43.922"/><use xlink:href="#U"/><use xlink:href="#V"/><path d="M77.634 92.303c-.602-.201-1.237.368-1.905 1.704-.669 1.27-1.07 2.54-1.203 3.81-.2 1.27-.033 2.139.501 2.607.602.2 1.27-.335 2.005-1.605.668-1.337 1.07-2.64 1.203-3.91s-.067-2.139-.602-2.607zm-6.718-.702c-.535.401-.735 1.237-.602 2.507s.568 2.573 1.303 3.91c.668 1.27 1.303 1.805 1.905 1.604.535-.468.735-1.337.601-2.607s-.535-2.54-1.203-3.81c-.735-1.337-1.404-1.872-2.005-1.604zm-2.066.702c-.602-.201-1.237.368-1.905 1.704-.668 1.27-1.07 2.54-1.203 3.81-.201 1.27-.033 2.139.501 2.607.602.2 1.27-.335 2.005-1.605.668-1.337 1.07-2.64 1.203-3.91s-.067-2.139-.602-2.607zm-6.718-.702c-.535.401-.735 1.237-.602 2.507s.568 2.573 1.303 3.91c.669 1.27 1.303 1.805 1.905 1.604.535-.468.735-1.337.602-2.607s-.535-2.54-1.203-3.81c-.735-1.337-1.404-1.872-2.005-1.604zm-2.067.702c-.602-.201-1.236.368-1.905 1.704-.668 1.27-1.069 2.54-1.203 3.81-.201 1.27-.033 2.139.501 2.607.602.2 1.27-.335 2.005-1.605.668-1.337 1.069-2.64 1.203-3.91s-.067-2.139-.602-2.607zm-6.718-.702c-.535.401-.735 1.237-.602 2.507s.568 2.573 1.303 3.91c.668 1.27 1.303 1.805 1.905 1.604.535-.468.735-1.337.602-2.607s-.535-2.54-1.203-3.81c-.735-1.337-1.404-1.872-2.005-1.604zm-2.066.702c-.602-.201-1.237.368-1.905 1.704-.668 1.27-1.07 2.54-1.203 3.81-.2 1.27-.033 2.139.501 2.607.601.2 1.27-.335 2.005-1.605.669-1.337 1.07-2.64 1.203-3.91s-.067-2.139-.602-2.607zm-6.718-.702c-.535.401-.735 1.237-.602 2.507s.568 2.573 1.303 3.91c.668 1.27 1.303 1.805 1.905 1.604.535-.468.735-1.337.602-2.607s-.535-2.54-1.203-3.81c-.735-1.337-1.404-1.872-2.005-1.604z"/><use xlink:href="#V" x="-43.922"/><path d="M33.712 92.303c-.602-.201-1.236.368-1.905 1.704-.668 1.27-1.069 2.54-1.203 3.81-.201 1.27-.034 2.139.501 2.607.602.2 1.27-.335 2.005-1.605.668-1.337 1.069-2.64 1.203-3.91s-.067-2.139-.602-2.607zm-6.718-.702c-.535.401-.735 1.237-.602 2.507s.568 2.573 1.303 3.91c.668 1.27 1.303 1.805 1.905 1.604.535-.468.735-1.337.602-2.607s-.535-2.54-1.203-3.81c-.735-1.337-1.404-1.872-2.005-1.604z"/><use xlink:href="#W"/><path d="M77.634 99.344c-.602-.201-1.237.368-1.905 1.705-.669 1.27-1.07 2.54-1.203 3.81-.2 1.27-.033 2.139.501 2.607.602.2 1.27-.334 2.005-1.604.668-1.337 1.07-2.641 1.203-3.911s-.067-2.139-.602-2.607zm-6.718-.702c-.535.401-.735 1.237-.602 2.507s.568 2.574 1.303 3.91c.668 1.27 1.303 1.805 1.905 1.605.535-.468.735-1.337.601-2.607s-.535-2.54-1.203-3.81c-.735-1.337-1.404-1.872-2.005-1.605zm-2.066.702c-.602-.201-1.237.368-1.905 1.705-.668 1.27-1.07 2.54-1.203 3.81-.201 1.27-.033 2.139.501 2.607.602.2 1.27-.334 2.005-1.604.668-1.337 1.07-2.641 1.203-3.911s-.067-2.139-.602-2.607zm-6.718-.702c-.535.401-.735 1.237-.602 2.507s.568 2.574 1.303 3.91c.669 1.27 1.303 1.805 1.905 1.605.535-.468.735-1.337.602-2.607s-.535-2.54-1.203-3.81c-.735-1.337-1.404-1.872-2.005-1.605zm-2.067.702c-.602-.201-1.236.368-1.905 1.705-.668 1.27-1.069 2.54-1.203 3.81-.201 1.27-.033 2.139.501 2.607.602.2 1.27-.334 2.005-1.604.668-1.337 1.069-2.641 1.203-3.911s-.067-2.139-.602-2.607zm-6.718-.702c-.535.401-.735 1.237-.602 2.507s.568 2.574 1.303 3.91c.668 1.27 1.303 1.805 1.905 1.605.535-.468.735-1.337.602-2.607s-.535-2.54-1.203-3.81c-.735-1.337-1.404-1.872-2.005-1.605zm-2.066.702c-.602-.201-1.237.368-1.905 1.705-.668 1.27-1.07 2.54-1.203 3.81-.2 1.27-.033 2.139.501 2.607.601.2 1.27-.334 2.005-1.604.669-1.337 1.07-2.641 1.203-3.911s-.067-2.139-.602-2.607zm-6.718-.702c-.535.401-.735 1.237-.602 2.507s.568 2.574 1.303 3.91c.668 1.27 1.303 1.805 1.905 1.605.535-.468.735-1.337.602-2.607s-.535-2.54-1.203-3.81c-.735-1.337-1.404-1.872-2.005-1.605z"/><use xlink:href="#W" x="-43.922"/><path d="M33.712 99.344c-.602-.201-1.236.368-1.905 1.705-.668 1.27-1.069 2.54-1.203 3.81-.201 1.27-.034 2.139.501 2.607.602.2 1.27-.334 2.005-1.604.668-1.337 1.069-2.641 1.203-3.911s-.067-2.139-.602-2.607zm-6.718-.702c-.535.401-.735 1.237-.602 2.507s.568 2.574 1.303 3.91c.668 1.27 1.303 1.805 1.905 1.605.535-.468.735-1.337.602-2.607s-.535-2.54-1.203-3.81c-.735-1.337-1.404-1.872-2.005-1.605zm-2.066.702c-.602-.201-1.237.368-1.905 1.705-.668 1.27-1.07 2.54-1.203 3.81-.201 1.27-.033 2.139.501 2.607.602.2 1.27-.334 2.005-1.604.668-1.337 1.07-2.641 1.203-3.911s-.067-2.139-.602-2.607zm-6.718-.702c-.535.401-.735 1.237-.602 2.507s.568 2.574 1.303 3.91c.668 1.27 1.303 1.805 1.905 1.605.535-.468.735-1.337.602-2.607s-.535-2.54-1.203-3.81c-.735-1.337-1.404-1.872-2.005-1.605zm-2.066.702c-.601-.201-1.236.368-1.905 1.705-.668 1.27-1.069 2.54-1.203 3.81-.201 1.27-.034 2.139.501 2.607.602.2 1.27-.334 2.005-1.604.668-1.337 1.069-2.641 1.203-3.911s-.067-2.139-.602-2.607zm-6.718-.702c-.535.401-.735 1.237-.602 2.507s.568 2.574 1.303 3.91c.668 1.27 1.303 1.805 1.905 1.605.535-.468.735-1.337.602-2.607s-.535-2.54-1.203-3.81c-.735-1.337-1.404-1.872-2.005-1.605z"/><use xlink:href="#X"/><use xlink:href="#Y"/><use xlink:href="#Z"/><use xlink:href="#a"/><use xlink:href="#b"/><use xlink:href="#X" x="-43.922"/></g><path d="M33.712 106.385c-.602-.2-1.236.368-1.905 1.705-.668 1.27-1.069 2.54-1.203 3.81-.201 1.27-.034 2.139.501 2.607.602.2 1.27-.334 2.005-1.604.668-1.337 1.069-2.641 1.203-3.911s-.067-2.139-.602-2.607zm-6.718-.701c-.535.401-.735 1.236-.602 2.506s.568 2.574 1.303 3.91c.668 1.27 1.303 1.805 1.905 1.605.535-.468.735-1.337.602-2.607s-.535-2.54-1.203-3.81c-.735-1.337-1.404-1.872-2.005-1.604z" fill="#f1f1f1"/><g fill="#fff"><path d="M24.928 106.385c-.602-.2-1.237.368-1.905 1.705-.668 1.27-1.07 2.54-1.203 3.81-.201 1.27-.033 2.139.501 2.607.602.2 1.27-.334 2.005-1.604.668-1.337 1.07-2.641 1.203-3.911s-.067-2.139-.602-2.607zm-6.718-.701c-.535.401-.735 1.236-.602 2.506s.568 2.574 1.303 3.91c.668 1.27 1.303 1.805 1.905 1.605.535-.468.735-1.337.602-2.607s-.535-2.54-1.203-3.81c-.735-1.337-1.404-1.872-2.005-1.604zm-2.066.701c-.601-.2-1.236.368-1.905 1.705-.668 1.27-1.069 2.54-1.203 3.81-.201 1.27-.034 2.139.501 2.607.602.2 1.27-.334 2.005-1.604.668-1.337 1.069-2.641 1.203-3.911s-.067-2.139-.602-2.607zm-6.718-.701c-.535.401-.735 1.236-.602 2.506s.568 2.574 1.303 3.91c.668 1.27 1.303 1.805 1.905 1.605.535-.468.735-1.337.602-2.607s-.535-2.54-1.203-3.81c-.735-1.337-1.404-1.872-2.005-1.604z"/><use xlink:href="#c"/><use xlink:href="#d"/><path d="M68.85 113.427c-.602-.201-1.237.367-1.905 1.704-.668 1.27-1.07 2.54-1.203 3.81-.201 1.27-.033 2.139.501 2.607.602.2 1.27-.334 2.005-1.604.668-1.337 1.07-2.641 1.203-3.911s-.067-2.139-.602-2.606zm-6.718-.702c-.535.401-.735 1.236-.602 2.506s.568 2.574 1.303 3.911c.669 1.27 1.303 1.804 1.905 1.604.535-.468.735-1.337.602-2.607s-.535-2.54-1.203-3.81c-.735-1.337-1.404-1.872-2.005-1.604z"/><use xlink:href="#e"/><path d="M51.281 113.427c-.602-.201-1.237.367-1.905 1.704-.668 1.27-1.07 2.54-1.203 3.81-.2 1.27-.033 2.139.501 2.607.601.2 1.27-.334 2.005-1.604.669-1.337 1.07-2.641 1.203-3.911s-.067-2.139-.602-2.606zm-6.718-.702c-.535.401-.735 1.236-.602 2.506s.568 2.574 1.303 3.911c.668 1.27 1.303 1.804 1.905 1.604.535-.468.735-1.337.602-2.607s-.535-2.54-1.203-3.81c-.735-1.337-1.404-1.872-2.005-1.604z"/><use xlink:href="#c" x="-43.922"/><path d="M33.712 113.427c-.602-.201-1.236.367-1.905 1.704-.668 1.27-1.069 2.54-1.203 3.81-.201 1.27-.034 2.139.501 2.607.602.2 1.27-.334 2.005-1.604.668-1.337 1.069-2.641 1.203-3.911s-.067-2.139-.602-2.606zm-6.718-.702c-.535.401-.735 1.236-.602 2.506s.568 2.574 1.303 3.911c.668 1.27 1.303 1.804 1.905 1.604.535-.468.735-1.337.602-2.607s-.535-2.54-1.203-3.81c-.735-1.337-1.404-1.872-2.005-1.604zm-2.066.702c-.602-.201-1.237.367-1.905 1.704-.668 1.27-1.07 2.54-1.203 3.81-.201 1.27-.033 2.139.501 2.607.602.2 1.27-.334 2.005-1.604.668-1.337 1.07-2.641 1.203-3.911s-.067-2.139-.602-2.606zm-6.718-.702c-.535.401-.735 1.236-.602 2.506s.568 2.574 1.303 3.911c.668 1.27 1.303 1.804 1.905 1.604.535-.468.735-1.337.602-2.607s-.535-2.54-1.203-3.81c-.735-1.337-1.404-1.872-2.005-1.604zm-2.066.702c-.601-.201-1.236.367-1.905 1.704-.668 1.27-1.069 2.54-1.203 3.81-.201 1.27-.034 2.139.501 2.607.602.2 1.27-.334 2.005-1.604.668-1.337 1.069-2.641 1.203-3.911s-.067-2.139-.602-2.606zm-6.718-.702c-.535.401-.735 1.236-.602 2.506s.568 2.574 1.303 3.911c.668 1.27 1.303 1.804 1.905 1.604.535-.468.735-1.337.602-2.607s-.535-2.54-1.203-3.81c-.735-1.337-1.404-1.872-2.005-1.604zm-2.067.702c-.602-.201-1.237.367-1.905 1.704-.668 1.27-1.069 2.54-1.203 3.81-.201 1.27-.033 2.139.501 2.607.602.2 1.27-.334 2.005-1.604.668-1.337 1.069-2.641 1.203-3.911s-.067-2.139-.602-2.606zm-6.718-.702c-.535.401-.735 1.236-.602 2.506s.568 2.574 1.303 3.911c.668 1.27 1.303 1.804 1.905 1.604.535-.468.735-1.337.602-2.607s-.535-2.54-1.203-3.81c-.735-1.337-1.404-1.872-2.005-1.604z"/><use xlink:href="#f"/><use xlink:href="#g"/><use xlink:href="#h"/><use xlink:href="#i"/><use xlink:href="#j"/><use xlink:href="#f" x="-43.922"/><use xlink:href="#k"/><use xlink:href="#l"/><use xlink:href="#m"/><use xlink:href="#f" y="7.041"/><use xlink:href="#g" y="7.041"/><use xlink:href="#h" y="7.041"/><use xlink:href="#i" y="7.041"/><use xlink:href="#j" y="7.041"/><use xlink:href="#f" x="-43.922" y="7.041"/><use xlink:href="#k" y="7.041"/><use xlink:href="#l" y="7.041"/><use xlink:href="#m" y="7.041"/><path d="M7.359 127.509c-.602-.201-1.237.367-1.905 1.704-.668 1.27-1.069 2.54-1.203 3.81-.201 1.27-.033 2.139.501 2.607.602.201 1.27-.334 2.005-1.604.668-1.337 1.069-2.64 1.203-3.91s-.067-2.139-.602-2.607zm-6.718-.702c-.535.401-.735 1.236-.602 2.506s.568 2.574 1.303 3.911c.668 1.27 1.303 1.804 1.905 1.604.535-.468.735-1.337.602-2.607s-.535-2.54-1.203-3.81c-.735-1.337-1.404-1.872-2.005-1.604z"/><use xlink:href="#P" y="49.288"/><use xlink:href="#Q" y="49.288"/></g><use xlink:href="#R" y="49.288" fill="#f1f1f1"/><g fill="#fff"><use xlink:href="#S" y="49.288"/><use xlink:href="#T" y="49.288"/><use xlink:href="#P" x="-43.922" y="49.288"/><use xlink:href="#U" y="49.288"/><use xlink:href="#n"/><path d="M7.359 134.55c-.602-.201-1.237.368-1.905 1.704-.668 1.27-1.069 2.54-1.203 3.81-.201 1.27-.033 2.139.501 2.607.602.201 1.27-.334 2.005-1.604.668-1.337 1.069-2.64 1.203-3.91s-.067-2.139-.602-2.607zm-6.718-.702c-.535.401-.735 1.237-.602 2.507s.568 2.573 1.303 3.91c.668 1.27 1.303 1.805 1.905 1.604.535-.468.735-1.337.602-2.607s-.535-2.54-1.203-3.81c-.735-1.337-1.404-1.871-2.005-1.604z"/><use xlink:href="#P" y="56.329"/><use xlink:href="#Q" y="56.329"/><use xlink:href="#R" y="56.329"/><use xlink:href="#S" y="56.329"/><use xlink:href="#T" y="56.329"/><use xlink:href="#P" x="-43.922" y="56.329"/><use xlink:href="#U" y="56.329"/><use xlink:href="#n" y="7.041"/><use xlink:href="#o"/><path d="M77.634 148.632c-.602-.2-1.237.368-1.905 1.705-.669 1.27-1.07 2.54-1.203 3.81-.2 1.27-.033 2.139.501 2.606.602.201 1.27-.334 2.005-1.604.668-1.337 1.07-2.64 1.203-3.91s-.067-2.139-.602-2.607zm-6.718-.702c-.535.401-.735 1.237-.602 2.507s.568 2.573 1.303 3.91c.668 1.27 1.303 1.805 1.905 1.604.535-.468.735-1.337.601-2.607s-.535-2.54-1.203-3.81c-.735-1.336-1.404-1.871-2.005-1.604zm-2.066.702c-.602-.2-1.237.368-1.905 1.705-.668 1.27-1.07 2.54-1.203 3.81-.201 1.27-.033 2.139.501 2.606.602.201 1.27-.334 2.005-1.604.668-1.337 1.07-2.64 1.203-3.91s-.067-2.139-.602-2.607zm-6.718-.702c-.535.401-.735 1.237-.602 2.507s.568 2.573 1.303 3.91c.669 1.27 1.303 1.805 1.905 1.604.535-.468.735-1.337.602-2.607s-.535-2.54-1.203-3.81c-.735-1.336-1.404-1.871-2.005-1.604zm-2.067.702c-.602-.2-1.236.368-1.905 1.705-.668 1.27-1.069 2.54-1.203 3.81-.201 1.27-.033 2.139.501 2.606.602.201 1.27-.334 2.005-1.604.668-1.337 1.069-2.64 1.203-3.91s-.067-2.139-.602-2.607zm-6.718-.702c-.535.401-.735 1.237-.602 2.507s.568 2.573 1.303 3.91c.668 1.27 1.303 1.805 1.905 1.604.535-.468.735-1.337.602-2.607s-.535-2.54-1.203-3.81c-.735-1.336-1.404-1.871-2.005-1.604zm-2.066.702c-.602-.2-1.237.368-1.905 1.705-.668 1.27-1.07 2.54-1.203 3.81-.2 1.27-.033 2.139.501 2.606.601.201 1.27-.334 2.005-1.604.669-1.337 1.07-2.64 1.203-3.91s-.067-2.139-.602-2.607zm-6.718-.702c-.535.401-.735 1.237-.602 2.507s.568 2.573 1.303 3.91c.668 1.27 1.303 1.805 1.905 1.604.535-.468.735-1.337.602-2.607s-.535-2.54-1.203-3.81c-.735-1.336-1.404-1.871-2.005-1.604z"/><use xlink:href="#o" x="-43.922"/><path d="M24.928 148.632c-.602-.2-1.237.368-1.905 1.705-.668 1.27-1.07 2.54-1.203 3.81-.201 1.27-.033 2.139.501 2.606.602.201 1.27-.334 2.005-1.604.668-1.337 1.07-2.64 1.203-3.91s-.067-2.139-.602-2.607zm-6.718-.702c-.535.401-.735 1.237-.602 2.507s.568 2.573 1.303 3.91c.668 1.27 1.303 1.805 1.905 1.604.535-.468.735-1.337.602-2.607s-.535-2.54-1.203-3.81c-.735-1.336-1.404-1.871-2.005-1.604z"/><use xlink:href="#p"/><use xlink:href="#q"/><use xlink:href="#r"/><use xlink:href="#s"/><use xlink:href="#t"/><use xlink:href="#p" x="-43.922"/><use xlink:href="#u"/><use xlink:href="#p" y="7.041"/><use xlink:href="#q" y="7.041"/><use xlink:href="#r" y="7.041"/><use xlink:href="#s" y="7.041"/><use xlink:href="#t" y="7.041"/><use xlink:href="#u" y="7.041"/><use xlink:href="#X" y="63.37"/><use xlink:href="#Y" y="63.37"/><use xlink:href="#Z" y="63.37"/><use xlink:href="#a" y="63.37"/><use xlink:href="#b" y="63.37"/><use xlink:href="#c" y="63.37"/><use xlink:href="#d" y="63.37"/><use xlink:href="#e" y="63.37"/><use xlink:href="#f" y="63.37"/><use xlink:href="#i" y="63.37"/></g><defs ><path id="B" d="M86.419 14.851c-.602-.2-1.237.368-1.905 1.704-.668 1.27-1.069 2.54-1.203 3.81-.2 1.27-.033 2.139.501 2.607.602.2 1.27-.334 2.005-1.604.668-1.337 1.069-2.64 1.203-3.91s-.067-2.139-.602-2.607zm-6.718-.702c-.535.401-.735 1.237-.602 2.507s.568 2.573 1.303 3.91c.668 1.27 1.303 1.805 1.905 1.604.535-.468.735-1.337.602-2.607s-.535-2.54-1.203-3.81c-.735-1.337-1.404-1.872-2.005-1.604z"/><path id="C" d="M86.419 35.974c-.602-.201-1.237.368-1.905 1.704-.668 1.27-1.069 2.54-1.203 3.81-.2 1.27-.033 2.139.501 2.607.602.201 1.27-.334 2.005-1.604.668-1.337 1.069-2.64 1.203-3.91s-.067-2.139-.602-2.607zm-6.718-.702c-.535.401-.735 1.237-.602 2.507s.568 2.573 1.303 3.91c.668 1.27 1.303 1.805 1.905 1.604.535-.468.735-1.337.602-2.607s-.535-2.54-1.203-3.81c-.735-1.337-1.404-1.872-2.005-1.604z"/><path id="D" d="M77.634 35.974c-.602-.201-1.237.368-1.905 1.704-.669 1.27-1.07 2.54-1.203 3.81-.2 1.27-.033 2.139.501 2.607.602.201 1.27-.334 2.005-1.604.668-1.337 1.07-2.64 1.203-3.91s-.067-2.139-.602-2.607zm-6.718-.702c-.535.401-.735 1.237-.602 2.507s.568 2.573 1.303 3.91c.668 1.27 1.303 1.805 1.905 1.604.535-.468.735-1.337.601-2.607s-.535-2.54-1.203-3.81c-.735-1.337-1.404-1.872-2.005-1.604z"/><path id="E" d="M68.85 35.974c-.602-.201-1.237.368-1.905 1.704-.668 1.27-1.07 2.54-1.203 3.81-.201 1.27-.033 2.139.501 2.607.602.201 1.27-.334 2.005-1.604.668-1.337 1.07-2.64 1.203-3.91s-.067-2.139-.602-2.607zm-6.718-.702c-.535.401-.735 1.237-.602 2.507s.568 2.573 1.303 3.91c.669 1.27 1.303 1.805 1.905 1.604.535-.468.735-1.337.602-2.607s-.535-2.54-1.203-3.81c-.735-1.337-1.404-1.872-2.005-1.604z"/><path id="F" d="M60.065 35.974c-.602-.201-1.236.368-1.905 1.704-.668 1.27-1.069 2.54-1.203 3.81-.201 1.27-.033 2.139.501 2.607.602.201 1.27-.334 2.005-1.604.668-1.337 1.069-2.64 1.203-3.91s-.067-2.139-.602-2.607zm-6.718-.702c-.535.401-.735 1.237-.602 2.507s.568 2.573 1.303 3.91c.668 1.27 1.303 1.805 1.905 1.604.535-.468.735-1.337.602-2.607s-.535-2.54-1.203-3.81c-.735-1.337-1.404-1.872-2.005-1.604z"/><path id="G" d="M51.281 35.974c-.602-.201-1.237.368-1.905 1.704-.668 1.27-1.07 2.54-1.203 3.81-.2 1.27-.033 2.139.501 2.607.601.201 1.27-.334 2.005-1.604.669-1.337 1.07-2.64 1.203-3.91s-.067-2.139-.602-2.607zm-6.718-.702c-.535.401-.735 1.237-.602 2.507s.568 2.573 1.303 3.91c.668 1.27 1.303 1.805 1.905 1.604.535-.468.735-1.337.602-2.607s-.535-2.54-1.203-3.81c-.735-1.337-1.404-1.872-2.005-1.604z"/><path id="H" d="M86.419 43.015c-.602-.2-1.237.368-1.905 1.705-.668 1.27-1.069 2.54-1.203 3.81-.2 1.27-.033 2.139.501 2.607.602.201 1.27-.334 2.005-1.604.668-1.337 1.069-2.64 1.203-3.91s-.067-2.139-.602-2.607zm-6.718-.702c-.535.401-.735 1.237-.602 2.507s.568 2.574 1.303 3.91c.668 1.27 1.303 1.805 1.905 1.604.535-.468.735-1.337.602-2.607s-.535-2.54-1.203-3.81c-.735-1.337-1.404-1.872-2.005-1.604z"/><path id="I" d="M86.419 50.057c-.602-.2-1.237.368-1.905 1.705-.668 1.27-1.069 2.54-1.203 3.81-.2 1.27-.033 2.139.501 2.607.602.2 1.27-.334 2.005-1.604.668-1.337 1.069-2.64 1.203-3.91s-.067-2.139-.602-2.607zm-6.718-.702c-.535.401-.735 1.237-.602 2.507s.568 2.573 1.303 3.91c.668 1.27 1.303 1.805 1.905 1.604.535-.468.735-1.337.602-2.607s-.535-2.54-1.203-3.81c-.735-1.337-1.404-1.872-2.005-1.604z"/><path id="J" d="M77.634 50.057c-.602-.2-1.237.368-1.905 1.705-.669 1.27-1.07 2.54-1.203 3.81-.2 1.27-.033 2.139.501 2.607.602.2 1.27-.334 2.005-1.604.668-1.337 1.07-2.64 1.203-3.91s-.067-2.139-.602-2.607zm-6.718-.702c-.535.401-.735 1.237-.602 2.507s.568 2.573 1.303 3.91c.668 1.27 1.303 1.805 1.905 1.604.535-.468.735-1.337.601-2.607s-.535-2.54-1.203-3.81c-.735-1.337-1.404-1.872-2.005-1.604z"/><path id="K" d="M68.85 50.057c-.602-.2-1.237.368-1.905 1.705-.668 1.27-1.07 2.54-1.203 3.81-.201 1.27-.033 2.139.501 2.607.602.2 1.27-.334 2.005-1.604.668-1.337 1.07-2.64 1.203-3.91s-.067-2.139-.602-2.607zm-6.718-.702c-.535.401-.735 1.237-.602 2.507s.568 2.573 1.303 3.91c.669 1.27 1.303 1.805 1.905 1.604.535-.468.735-1.337.602-2.607s-.535-2.54-1.203-3.81c-.735-1.337-1.404-1.872-2.005-1.604z"/><path id="L" d="M60.065 50.057c-.602-.2-1.236.368-1.905 1.705-.668 1.27-1.069 2.54-1.203 3.81-.201 1.27-.033 2.139.501 2.607.602.2 1.27-.334 2.005-1.604.668-1.337 1.069-2.64 1.203-3.91s-.067-2.139-.602-2.607zm-6.718-.702c-.535.401-.735 1.237-.602 2.507s.568 2.573 1.303 3.91c.668 1.27 1.303 1.805 1.905 1.604.535-.468.735-1.337.602-2.607s-.535-2.54-1.203-3.81c-.735-1.337-1.404-1.872-2.005-1.604z"/><path id="M" d="M51.281 50.057c-.602-.2-1.237.368-1.905 1.705-.668 1.27-1.07 2.54-1.203 3.81-.2 1.27-.033 2.139.501 2.607.601.2 1.27-.334 2.005-1.604.669-1.337 1.07-2.64 1.203-3.91s-.067-2.139-.602-2.607zm-6.718-.702c-.535.401-.735 1.237-.602 2.507s.568 2.573 1.303 3.91c.668 1.27 1.303 1.805 1.905 1.604.535-.468.735-1.337.602-2.607s-.535-2.54-1.203-3.81c-.735-1.337-1.404-1.872-2.005-1.604z"/><path id="N" d="M86.419 64.139c-.602-.2-1.237.368-1.905 1.704-.668 1.27-1.069 2.54-1.203 3.81-.2 1.27-.033 2.139.501 2.607.602.201 1.27-.334 2.005-1.604.668-1.337 1.069-2.64 1.203-3.91s-.067-2.139-.602-2.607zm-6.718-.702c-.535.401-.735 1.237-.602 2.507s.568 2.574 1.303 3.91c.668 1.27 1.303 1.805 1.905 1.604.535-.468.735-1.337.602-2.607s-.535-2.54-1.203-3.81c-.735-1.337-1.404-1.872-2.005-1.604z"/><path id="O" d="M24.928 71.18c-.602-.201-1.237.368-1.905 1.704-.668 1.27-1.07 2.54-1.203 3.81-.201 1.27-.033 2.139.501 2.607.602.201 1.27-.334 2.005-1.604.668-1.337 1.07-2.64 1.203-3.91s-.067-2.139-.602-2.607zm-6.718-.702c-.535.401-.735 1.237-.602 2.507s.568 2.573 1.303 3.91c.668 1.27 1.303 1.805 1.905 1.604.535-.468.735-1.337.602-2.607s-.535-2.54-1.203-3.81c-.735-1.337-1.404-1.872-2.005-1.604z"/><path id="P" d="M86.419 85.262c-.602-.201-1.237.368-1.905 1.704-.668 1.27-1.069 2.54-1.203 3.81-.2 1.27-.033 2.139.501 2.607.602.201 1.27-.334 2.005-1.604.668-1.337 1.069-2.64 1.203-3.91s-.067-2.139-.602-2.607zm-6.718-.702c-.535.401-.735 1.237-.602 2.507s.568 2.573 1.303 3.91c.668 1.27 1.303 1.805 1.905 1.604.535-.468.735-1.337.602-2.607s-.535-2.54-1.203-3.81c-.735-1.337-1.404-1.871-2.005-1.604z"/><path id="Q" d="M77.634 85.262c-.602-.201-1.237.368-1.905 1.704-.669 1.27-1.07 2.54-1.203 3.81-.2 1.27-.033 2.139.501 2.607.602.201 1.27-.334 2.005-1.604.668-1.337 1.07-2.64 1.203-3.91s-.067-2.139-.602-2.607zm-6.718-.702c-.535.401-.735 1.237-.602 2.507s.568 2.573 1.303 3.91c.668 1.27 1.303 1.805 1.905 1.604.535-.468.735-1.337.601-2.607s-.535-2.54-1.203-3.81c-.735-1.337-1.404-1.871-2.005-1.604z"/><path id="R" d="M68.85 85.262c-.602-.201-1.237.368-1.905 1.704-.668 1.27-1.07 2.54-1.203 3.81-.201 1.27-.033 2.139.501 2.607.602.201 1.27-.334 2.005-1.604.668-1.337 1.07-2.64 1.203-3.91s-.067-2.139-.602-2.607zm-6.718-.702c-.535.401-.735 1.237-.602 2.507s.568 2.573 1.303 3.91c.669 1.27 1.303 1.805 1.905 1.604.535-.468.735-1.337.602-2.607s-.535-2.54-1.203-3.81c-.735-1.337-1.404-1.871-2.005-1.604z"/><path id="S" d="M60.065 85.262c-.602-.201-1.236.368-1.905 1.704-.668 1.27-1.069 2.54-1.203 3.81-.201 1.27-.033 2.139.501 2.607.602.201 1.27-.334 2.005-1.604.668-1.337 1.069-2.64 1.203-3.91s-.067-2.139-.602-2.607zm-6.718-.702c-.535.401-.735 1.237-.602 2.507s.568 2.573 1.303 3.91c.668 1.27 1.303 1.805 1.905 1.604.535-.468.735-1.337.602-2.607s-.535-2.54-1.203-3.81c-.735-1.337-1.404-1.871-2.005-1.604z"/><path id="T" d="M51.281 85.262c-.602-.201-1.237.368-1.905 1.704-.668 1.27-1.07 2.54-1.203 3.81-.2 1.27-.033 2.139.501 2.607.601.201 1.27-.334 2.005-1.604.669-1.337 1.07-2.64 1.203-3.91s-.067-2.139-.602-2.607zm-6.718-.702c-.535.401-.735 1.237-.602 2.507s.568 2.573 1.303 3.91c.668 1.27 1.303 1.805 1.905 1.604.535-.468.735-1.337.602-2.607s-.535-2.54-1.203-3.81c-.735-1.337-1.404-1.871-2.005-1.604z"/><path id="U" d="M33.712 85.262c-.602-.201-1.236.368-1.905 1.704-.668 1.27-1.069 2.54-1.203 3.81-.201 1.27-.034 2.139.501 2.607.602.201 1.27-.334 2.005-1.604.668-1.337 1.069-2.64 1.203-3.91s-.067-2.139-.602-2.607zm-6.718-.702c-.535.401-.735 1.237-.602 2.507s.568 2.573 1.303 3.91c.668 1.27 1.303 1.805 1.905 1.604.535-.468.735-1.337.602-2.607s-.535-2.54-1.203-3.81c-.735-1.337-1.404-1.871-2.005-1.604z"/><path id="V" d="M86.419 92.303c-.602-.201-1.237.368-1.905 1.704-.668 1.27-1.069 2.54-1.203 3.81-.2 1.27-.033 2.139.501 2.607.602.2 1.27-.335 2.005-1.605.668-1.337 1.069-2.64 1.203-3.91s-.067-2.139-.602-2.607zm-6.718-.702c-.535.401-.735 1.237-.602 2.507s.568 2.573 1.303 3.91c.668 1.27 1.303 1.805 1.905 1.604.535-.468.735-1.337.602-2.607s-.535-2.54-1.203-3.81c-.735-1.337-1.404-1.872-2.005-1.604z"/><path id="W" d="M86.419 99.344c-.602-.201-1.237.368-1.905 1.705-.668 1.27-1.069 2.54-1.203 3.81-.2 1.27-.033 2.139.501 2.607.602.2 1.27-.334 2.005-1.604.668-1.337 1.069-2.641 1.203-3.911s-.067-2.139-.602-2.607zm-6.718-.702c-.535.401-.735 1.237-.602 2.507s.568 2.574 1.303 3.91c.668 1.27 1.303 1.805 1.905 1.605.535-.468.735-1.337.602-2.607s-.535-2.54-1.203-3.81c-.735-1.337-1.404-1.872-2.005-1.605z"/><path id="X" d="M86.419 106.385c-.602-.2-1.237.368-1.905 1.705-.668 1.27-1.069 2.54-1.203 3.81-.2 1.27-.033 2.139.501 2.607.602.2 1.27-.334 2.005-1.604.668-1.337 1.069-2.641 1.203-3.911s-.067-2.139-.602-2.607zm-6.718-.701c-.535.401-.735 1.236-.602 2.506s.568 2.574 1.303 3.91c.668 1.27 1.303 1.805 1.905 1.605.535-.468.735-1.337.602-2.607s-.535-2.54-1.203-3.81c-.735-1.337-1.404-1.872-2.005-1.604z"/><path id="Y" d="M77.634 106.385c-.602-.2-1.237.368-1.905 1.705-.669 1.27-1.07 2.54-1.203 3.81-.2 1.27-.033 2.139.501 2.607.602.2 1.27-.334 2.005-1.604.668-1.337 1.07-2.641 1.203-3.911s-.067-2.139-.602-2.607zm-6.718-.701c-.535.401-.735 1.236-.602 2.506s.568 2.574 1.303 3.91c.668 1.27 1.303 1.805 1.905 1.605.535-.468.735-1.337.601-2.607s-.535-2.54-1.203-3.81c-.735-1.337-1.404-1.872-2.005-1.604z"/><path id="Z" d="M68.85 106.385c-.602-.2-1.237.368-1.905 1.705-.668 1.27-1.07 2.54-1.203 3.81-.201 1.27-.033 2.139.501 2.607.602.2 1.27-.334 2.005-1.604.668-1.337 1.07-2.641 1.203-3.911s-.067-2.139-.602-2.607zm-6.718-.701c-.535.401-.735 1.236-.602 2.506s.568 2.574 1.303 3.91c.669 1.27 1.303 1.805 1.905 1.605.535-.468.735-1.337.602-2.607s-.535-2.54-1.203-3.81c-.735-1.337-1.404-1.872-2.005-1.604z"/><path id="a" d="M60.065 106.385c-.602-.2-1.236.368-1.905 1.705-.668 1.27-1.069 2.54-1.203 3.81-.201 1.27-.033 2.139.501 2.607.602.2 1.27-.334 2.005-1.604.668-1.337 1.069-2.641 1.203-3.911s-.067-2.139-.602-2.607zm-6.718-.701c-.535.401-.735 1.236-.602 2.506s.568 2.574 1.303 3.91c.668 1.27 1.303 1.805 1.905 1.605.535-.468.735-1.337.602-2.607s-.535-2.54-1.203-3.81c-.735-1.337-1.404-1.872-2.005-1.604z"/><path id="b" d="M51.281 106.385c-.602-.2-1.237.368-1.905 1.705-.668 1.27-1.07 2.54-1.203 3.81-.2 1.27-.033 2.139.501 2.607.601.2 1.27-.334 2.005-1.604.669-1.337 1.07-2.641 1.203-3.911s-.067-2.139-.602-2.607zm-6.718-.701c-.535.401-.735 1.236-.602 2.506s.568 2.574 1.303 3.91c.668 1.27 1.303 1.805 1.905 1.605.535-.468.735-1.337.602-2.607s-.535-2.54-1.203-3.81c-.735-1.337-1.404-1.872-2.005-1.604z"/><path id="c" d="M86.419 113.427c-.602-.201-1.237.367-1.905 1.704-.668 1.27-1.069 2.54-1.203 3.81-.2 1.27-.033 2.139.501 2.607.602.2 1.27-.334 2.005-1.604.668-1.337 1.069-2.641 1.203-3.911s-.067-2.139-.602-2.606zm-6.718-.702c-.535.401-.735 1.236-.602 2.506s.568 2.574 1.303 3.911c.668 1.27 1.303 1.804 1.905 1.604.535-.468.735-1.337.602-2.607s-.535-2.54-1.203-3.81c-.735-1.337-1.404-1.872-2.005-1.604z"/><path id="d" d="M77.634 113.427c-.602-.201-1.237.367-1.905 1.704-.669 1.27-1.07 2.54-1.203 3.81-.2 1.27-.033 2.139.501 2.607.602.2 1.27-.334 2.005-1.604.668-1.337 1.07-2.641 1.203-3.911s-.067-2.139-.602-2.606zm-6.718-.702c-.535.401-.735 1.236-.602 2.506s.568 2.574 1.303 3.911c.668 1.27 1.303 1.804 1.905 1.604.535-.468.735-1.337.601-2.607s-.535-2.54-1.203-3.81c-.735-1.337-1.404-1.872-2.005-1.604z"/><path id="e" d="M60.065 113.427c-.602-.201-1.236.367-1.905 1.704-.668 1.27-1.069 2.54-1.203 3.81-.201 1.27-.033 2.139.501 2.607.602.2 1.27-.334 2.005-1.604.668-1.337 1.069-2.641 1.203-3.911s-.067-2.139-.602-2.606zm-6.718-.702c-.535.401-.735 1.236-.602 2.506s.568 2.574 1.303 3.911c.668 1.27 1.303 1.804 1.905 1.604.535-.468.735-1.337.602-2.607s-.535-2.54-1.203-3.81c-.735-1.337-1.404-1.872-2.005-1.604z"/><path id="f" d="M86.419 120.468c-.602-.201-1.237.367-1.905 1.704-.668 1.27-1.069 2.54-1.203 3.81-.2 1.27-.033 2.139.501 2.607.602.201 1.27-.334 2.005-1.604.668-1.337 1.069-2.64 1.203-3.91s-.067-2.139-.602-2.607zm-6.718-.702c-.535.401-.735 1.236-.602 2.506s.568 2.574 1.303 3.911c.668 1.27 1.303 1.804 1.905 1.604.535-.468.735-1.337.602-2.607s-.535-2.54-1.203-3.81c-.735-1.337-1.404-1.872-2.005-1.604z"/><path id="g" d="M77.634 120.468c-.602-.201-1.237.367-1.905 1.704-.669 1.27-1.07 2.54-1.203 3.81-.2 1.27-.033 2.139.501 2.607.602.201 1.27-.334 2.005-1.604.668-1.337 1.07-2.64 1.203-3.91s-.067-2.139-.602-2.607zm-6.718-.702c-.535.401-.735 1.236-.602 2.506s.568 2.574 1.303 3.911c.668 1.27 1.303 1.804 1.905 1.604.535-.468.735-1.337.601-2.607s-.535-2.54-1.203-3.81c-.735-1.337-1.404-1.872-2.005-1.604z"/><path id="h" d="M68.85 120.468c-.602-.201-1.237.367-1.905 1.704-.668 1.27-1.07 2.54-1.203 3.81-.201 1.27-.033 2.139.501 2.607.602.201 1.27-.334 2.005-1.604.668-1.337 1.07-2.64 1.203-3.91s-.067-2.139-.602-2.607zm-6.718-.702c-.535.401-.735 1.236-.602 2.506s.568 2.574 1.303 3.911c.669 1.27 1.303 1.804 1.905 1.604.535-.468.735-1.337.602-2.607s-.535-2.54-1.203-3.81c-.735-1.337-1.404-1.872-2.005-1.604z"/><path id="i" d="M60.065 120.468c-.602-.201-1.236.367-1.905 1.704-.668 1.27-1.069 2.54-1.203 3.81-.201 1.27-.033 2.139.501 2.607.602.201 1.27-.334 2.005-1.604.668-1.337 1.069-2.64 1.203-3.91s-.067-2.139-.602-2.607zm-6.718-.702c-.535.401-.735 1.236-.602 2.506s.568 2.574 1.303 3.911c.668 1.27 1.303 1.804 1.905 1.604.535-.468.735-1.337.602-2.607s-.535-2.54-1.203-3.81c-.735-1.337-1.404-1.872-2.005-1.604z"/><path id="j" d="M51.281 120.468c-.602-.201-1.237.367-1.905 1.704-.668 1.27-1.07 2.54-1.203 3.81-.2 1.27-.033 2.139.501 2.607.601.201 1.27-.334 2.005-1.604.669-1.337 1.07-2.64 1.203-3.91s-.067-2.139-.602-2.607zm-6.718-.702c-.535.401-.735 1.236-.602 2.506s.568 2.574 1.303 3.911c.668 1.27 1.303 1.804 1.905 1.604.535-.468.735-1.337.602-2.607s-.535-2.54-1.203-3.81c-.735-1.337-1.404-1.872-2.005-1.604z"/><path id="k" d="M33.712 120.468c-.602-.201-1.236.367-1.905 1.704-.668 1.27-1.069 2.54-1.203 3.81-.201 1.27-.034 2.139.501 2.607.602.201 1.27-.334 2.005-1.604.668-1.337 1.069-2.64 1.203-3.91s-.067-2.139-.602-2.607zm-6.718-.702c-.535.401-.735 1.236-.602 2.506s.568 2.574 1.303 3.911c.668 1.27 1.303 1.804 1.905 1.604.535-.468.735-1.337.602-2.607s-.535-2.54-1.203-3.81c-.735-1.337-1.404-1.872-2.005-1.604z"/><path id="l" d="M24.928 120.468c-.602-.201-1.237.367-1.905 1.704-.668 1.27-1.07 2.54-1.203 3.81-.201 1.27-.033 2.139.501 2.607.602.201 1.27-.334 2.005-1.604.668-1.337 1.07-2.64 1.203-3.91s-.067-2.139-.602-2.607zm-6.718-.702c-.535.401-.735 1.236-.602 2.506s.568 2.574 1.303 3.911c.668 1.27 1.303 1.804 1.905 1.604.535-.468.735-1.337.602-2.607s-.535-2.54-1.203-3.81c-.735-1.337-1.404-1.872-2.005-1.604z"/><path id="m" d="M16.144 120.468c-.601-.201-1.236.367-1.905 1.704-.668 1.27-1.069 2.54-1.203 3.81-.201 1.27-.034 2.139.501 2.607.602.201 1.27-.334 2.005-1.604.668-1.337 1.069-2.64 1.203-3.91s-.067-2.139-.602-2.607zm-6.718-.702c-.535.401-.735 1.236-.602 2.506s.568 2.574 1.303 3.911c.668 1.27 1.303 1.804 1.905 1.604.535-.468.735-1.337.602-2.607s-.535-2.54-1.203-3.81c-.735-1.337-1.404-1.872-2.005-1.604z"/><path id="n" d="M24.928 134.55c-.602-.201-1.237.368-1.905 1.704-.668 1.27-1.07 2.54-1.203 3.81-.201 1.27-.033 2.139.501 2.607.602.201 1.27-.334 2.005-1.604.668-1.337 1.07-2.64 1.203-3.91s-.067-2.139-.602-2.607zm-6.718-.702c-.535.401-.735 1.237-.602 2.507s.568 2.573 1.303 3.91c.668 1.27 1.303 1.805 1.905 1.604.535-.468.735-1.337.602-2.607s-.535-2.54-1.203-3.81c-.735-1.337-1.404-1.871-2.005-1.604z"/><path id="o" d="M86.419 148.632c-.602-.2-1.237.368-1.905 1.705-.668 1.27-1.069 2.54-1.203 3.81-.2 1.27-.033 2.139.501 2.606.602.201 1.27-.334 2.005-1.604.668-1.337 1.069-2.64 1.203-3.91s-.067-2.139-.602-2.607zm-6.718-.702c-.535.401-.735 1.237-.602 2.507s.568 2.573 1.303 3.91c.668 1.27 1.303 1.805 1.905 1.604.535-.468.735-1.337.602-2.607s-.535-2.54-1.203-3.81c-.735-1.336-1.404-1.871-2.005-1.604z"/><path id="p" d="M86.419 155.673c-.602-.2-1.237.368-1.905 1.705-.668 1.27-1.069 2.54-1.203 3.81-.2 1.27-.033 2.139.501 2.607.602.2 1.27-.335 2.005-1.605.668-1.336 1.069-2.64 1.203-3.91s-.067-2.139-.602-2.607zm-6.718-.702c-.535.401-.735 1.237-.602 2.507s.568 2.573 1.303 3.91c.668 1.27 1.303 1.805 1.905 1.604.535-.467.735-1.336.602-2.606s-.535-2.54-1.203-3.81c-.735-1.337-1.404-1.872-2.005-1.605z"/><path id="q" d="M77.634 155.673c-.602-.2-1.237.368-1.905 1.705-.669 1.27-1.07 2.54-1.203 3.81-.2 1.27-.033 2.139.501 2.607.602.2 1.27-.335 2.005-1.605.668-1.336 1.07-2.64 1.203-3.91s-.067-2.139-.602-2.607zm-6.718-.702c-.535.401-.735 1.237-.602 2.507s.568 2.573 1.303 3.91c.668 1.27 1.303 1.805 1.905 1.604.535-.467.735-1.336.601-2.606s-.535-2.54-1.203-3.81c-.735-1.337-1.404-1.872-2.005-1.605z"/><path id="r" d="M68.85 155.673c-.602-.2-1.237.368-1.905 1.705-.668 1.27-1.07 2.54-1.203 3.81-.201 1.27-.033 2.139.501 2.607.602.2 1.27-.335 2.005-1.605.668-1.336 1.07-2.64 1.203-3.91s-.067-2.139-.602-2.607zm-6.718-.702c-.535.401-.735 1.237-.602 2.507s.568 2.573 1.303 3.91c.669 1.27 1.303 1.805 1.905 1.604.535-.467.735-1.336.602-2.606s-.535-2.54-1.203-3.81c-.735-1.337-1.404-1.872-2.005-1.605z"/><path id="s" d="M60.065 155.673c-.602-.2-1.236.368-1.905 1.705-.668 1.27-1.069 2.54-1.203 3.81-.201 1.27-.033 2.139.501 2.607.602.2 1.27-.335 2.005-1.605.668-1.336 1.069-2.64 1.203-3.91s-.067-2.139-.602-2.607zm-6.718-.702c-.535.401-.735 1.237-.602 2.507s.568 2.573 1.303 3.91c.668 1.27 1.303 1.805 1.905 1.604.535-.467.735-1.336.602-2.606s-.535-2.54-1.203-3.81c-.735-1.337-1.404-1.872-2.005-1.605z"/><path id="t" d="M51.281 155.673c-.602-.2-1.237.368-1.905 1.705-.668 1.27-1.07 2.54-1.203 3.81-.2 1.27-.033 2.139.501 2.607.601.2 1.27-.335 2.005-1.605.669-1.336 1.07-2.64 1.203-3.91s-.067-2.139-.602-2.607zm-6.718-.702c-.535.401-.735 1.237-.602 2.507s.568 2.573 1.303 3.91c.668 1.27 1.303 1.805 1.905 1.604.535-.467.735-1.336.602-2.606s-.535-2.54-1.203-3.81c-.735-1.337-1.404-1.872-2.005-1.605z"/><path id="u" d="M33.712 155.673c-.602-.2-1.236.368-1.905 1.705-.668 1.27-1.069 2.54-1.203 3.81-.201 1.27-.034 2.139.501 2.607.602.2 1.27-.335 2.005-1.605.668-1.336 1.069-2.64 1.203-3.91s-.067-2.139-.602-2.607zm-6.718-.702c-.535.401-.735 1.237-.602 2.507s.568 2.573 1.303 3.91c.668 1.27 1.303 1.805 1.905 1.604.535-.467.735-1.336.602-2.606s-.535-2.54-1.203-3.81c-.735-1.337-1.404-1.872-2.005-1.605z"/></defs></svg>