<svg xmlns="http://www.w3.org/2000/svg" xmlns:xlink="http://www.w3.org/1999/xlink" width="61" height="164" fill="none" xmlns:v="https://vecta.io/nano"><g fill="#fff"><path d="M60.065.769c-.602-.201-1.236.368-1.905 1.704-.668 1.27-1.069 2.54-1.203 3.81-.201 1.27-.033 2.139.501 2.607.602.201 1.27-.334 2.005-1.604.668-1.337 1.069-2.64 1.203-3.91S60.6 1.237 60.065.769zM53.348.067c-.535.401-.735 1.237-.602 2.507s.568 2.573 1.303 3.91c.668 1.27 1.303 1.805 1.905 1.604.535-.468.735-1.337.602-2.607s-.535-2.54-1.203-3.81C54.618.334 53.949-.201 53.348.067z"/><use xlink:href="#B"/><use xlink:href="#C"/><use xlink:href="#D"/><path d="M60.065 14.851c-.602-.2-1.236.368-1.905 1.704-.668 1.27-1.069 2.54-1.203 3.81-.201 1.27-.033 2.139.501 2.607.602.2 1.27-.334 2.005-1.604.668-1.337 1.069-2.64 1.203-3.91s-.067-2.139-.602-2.607zm-6.718-.702c-.535.401-.735 1.236-.602 2.506s.568 2.573 1.303 3.91c.668 1.27 1.303 1.805 1.905 1.604.535-.468.735-1.337.602-2.607s-.535-2.54-1.203-3.81c-.735-1.337-1.404-1.872-2.005-1.604zm-2.066.702c-.602-.2-1.237.368-1.905 1.704-.668 1.27-1.07 2.54-1.203 3.81-.2 1.27-.033 2.139.501 2.607.601.2 1.27-.334 2.005-1.604.669-1.337 1.07-2.64 1.203-3.91s-.067-2.139-.602-2.607zm-6.718-.702c-.535.401-.735 1.236-.602 2.506s.568 2.573 1.303 3.91c.668 1.27 1.303 1.805 1.905 1.604.535-.468.735-1.337.602-2.607s-.535-2.54-1.203-3.81c-.735-1.337-1.404-1.872-2.005-1.604zm-2.066.702c-.601-.2-1.236.368-1.905 1.704-.668 1.27-1.069 2.54-1.203 3.81-.201 1.27-.033 2.139.501 2.607.602.2 1.27-.334 2.005-1.604.668-1.337 1.069-2.64 1.203-3.91s-.067-2.139-.602-2.607zm-6.718-.702c-.535.401-.735 1.236-.602 2.506s.568 2.573 1.303 3.91c.668 1.27 1.303 1.805 1.905 1.604.535-.468.735-1.337.602-2.607s-.535-2.54-1.203-3.81c-.735-1.337-1.404-1.872-2.005-1.604z"/></g><path d="M33.713 14.851c-.602-.2-1.237.368-1.905 1.704-.669 1.27-1.07 2.54-1.203 3.81-.2 1.27-.033 2.139.501 2.607.602.2 1.27-.334 2.005-1.604.668-1.337 1.07-2.64 1.203-3.91s-.067-2.139-.602-2.607zm-6.718-.702c-.535.401-.735 1.236-.602 2.506s.568 2.573 1.303 3.91c.669 1.27 1.303 1.805 1.905 1.604.535-.468.735-1.337.601-2.607s-.535-2.54-1.203-3.81c-.735-1.337-1.404-1.872-2.005-1.604z" fill="#f1f1f1"/><g fill="#fff"><path d="M60.065 21.892c-.602-.2-1.236.368-1.905 1.704-.668 1.27-1.069 2.54-1.203 3.81-.201 1.27-.033 2.139.501 2.607.602.2 1.27-.334 2.005-1.604.668-1.337 1.069-2.64 1.203-3.91s-.067-2.139-.602-2.607zm-6.718-.702c-.535.401-.735 1.236-.602 2.507s.568 2.573 1.303 3.91c.668 1.27 1.303 1.805 1.905 1.604.535-.468.735-1.337.602-2.607s-.535-2.54-1.203-3.81c-.735-1.337-1.404-1.872-2.005-1.604zm-2.066.702c-.602-.2-1.237.368-1.905 1.704-.668 1.27-1.07 2.54-1.203 3.81-.2 1.27-.033 2.139.501 2.607.601.2 1.27-.334 2.005-1.604.669-1.337 1.07-2.64 1.203-3.91s-.067-2.139-.602-2.607zm-6.718-.702c-.535.401-.735 1.236-.602 2.507s.568 2.573 1.303 3.91c.668 1.27 1.303 1.805 1.905 1.604.535-.468.735-1.337.602-2.607s-.535-2.54-1.203-3.81c-.735-1.337-1.404-1.872-2.005-1.604zm-2.066.702c-.601-.2-1.236.368-1.905 1.704-.668 1.27-1.069 2.54-1.203 3.81-.201 1.27-.033 2.139.501 2.607.602.2 1.27-.334 2.005-1.604.668-1.337 1.069-2.64 1.203-3.91s-.067-2.139-.602-2.607zm-6.718-.702c-.535.401-.735 1.236-.602 2.507s.568 2.573 1.303 3.91c.668 1.27 1.303 1.805 1.905 1.604.535-.468.735-1.337.602-2.607s-.535-2.54-1.203-3.81c-.735-1.337-1.404-1.872-2.005-1.604zm-2.066.702c-.602-.2-1.237.368-1.905 1.704-.669 1.27-1.07 2.54-1.203 3.81-.2 1.27-.033 2.139.501 2.607.602.2 1.27-.334 2.005-1.604.668-1.337 1.07-2.64 1.203-3.91s-.067-2.139-.602-2.607zm-6.718-.702c-.535.401-.735 1.236-.602 2.507s.568 2.573 1.303 3.91c.669 1.27 1.303 1.805 1.905 1.604.535-.468.735-1.337.601-2.607s-.535-2.54-1.203-3.81c-.735-1.337-1.404-1.872-2.005-1.604z"/><use xlink:href="#B" y="21.123"/><use xlink:href="#C" y="21.123"/><use xlink:href="#D" y="21.123"/><use xlink:href="#E"/><use xlink:href="#F"/><use xlink:href="#G"/><use xlink:href="#H"/><use xlink:href="#I"/><path d="M60.065 43.015c-.602-.2-1.236.368-1.905 1.705-.668 1.27-1.069 2.54-1.203 3.81-.201 1.27-.033 2.139.501 2.607.602.201 1.27-.334 2.005-1.604.668-1.337 1.069-2.64 1.203-3.91s-.067-2.139-.602-2.607zm-6.718-.702c-.535.401-.735 1.237-.602 2.507s.568 2.574 1.303 3.91c.668 1.27 1.303 1.805 1.905 1.604.535-.468.735-1.337.602-2.607s-.535-2.54-1.203-3.81c-.735-1.337-1.404-1.872-2.005-1.604zm-2.066.702c-.602-.2-1.237.368-1.905 1.705-.668 1.27-1.07 2.54-1.203 3.81-.2 1.27-.033 2.139.501 2.607.601.201 1.27-.334 2.005-1.604.669-1.337 1.07-2.64 1.203-3.91s-.067-2.139-.602-2.607zm-6.718-.702c-.535.401-.735 1.237-.602 2.507s.568 2.574 1.303 3.91c.668 1.27 1.303 1.805 1.905 1.604.535-.468.735-1.337.602-2.607s-.535-2.54-1.203-3.81c-.735-1.337-1.404-1.872-2.005-1.604zm-2.066.702c-.601-.2-1.236.368-1.905 1.705-.668 1.27-1.069 2.54-1.203 3.81-.201 1.27-.033 2.139.501 2.607.602.201 1.27-.334 2.005-1.604.668-1.337 1.069-2.64 1.203-3.91s-.067-2.139-.602-2.607zm-6.718-.702c-.535.401-.735 1.237-.602 2.507s.568 2.574 1.303 3.91c.668 1.27 1.303 1.805 1.905 1.604.535-.468.735-1.337.602-2.607s-.535-2.54-1.203-3.81c-.735-1.337-1.404-1.872-2.005-1.604zm-2.066.702c-.602-.2-1.237.368-1.905 1.705-.669 1.27-1.07 2.54-1.203 3.81-.2 1.27-.033 2.139.501 2.607.602.201 1.27-.334 2.005-1.604.668-1.337 1.07-2.64 1.203-3.91s-.067-2.139-.602-2.607zm-6.718-.702c-.535.401-.735 1.237-.602 2.507s.568 2.574 1.303 3.91c.669 1.27 1.303 1.805 1.905 1.604.535-.468.735-1.337.601-2.607s-.535-2.54-1.203-3.81c-.735-1.337-1.404-1.872-2.005-1.604zm-2.067.702c-.602-.2-1.237.368-1.905 1.705-.668 1.27-1.07 2.54-1.203 3.81-.201 1.27-.033 2.139.501 2.607.602.201 1.27-.334 2.005-1.604.668-1.337 1.07-2.64 1.203-3.91s-.067-2.139-.602-2.607zm-6.718-.702c-.535.401-.735 1.237-.602 2.507s.568 2.574 1.303 3.91c.668 1.27 1.303 1.805 1.905 1.604.535-.468.735-1.337.602-2.607s-.535-2.54-1.203-3.81c-.735-1.337-1.404-1.872-2.005-1.604zm41.855 7.743c-.602-.2-1.236.368-1.905 1.705-.668 1.27-1.069 2.54-1.203 3.81-.201 1.27-.033 2.139.501 2.607.602.201 1.27-.334 2.005-1.604.668-1.337 1.069-2.64 1.203-3.91s-.067-2.139-.602-2.607zm-6.718-.702c-.535.401-.735 1.236-.602 2.507s.568 2.573 1.303 3.91c.668 1.27 1.303 1.805 1.905 1.604.535-.468.735-1.337.602-2.607s-.535-2.54-1.203-3.81c-.735-1.337-1.404-1.872-2.005-1.604zm-2.066.702c-.602-.2-1.237.368-1.905 1.705-.668 1.27-1.07 2.54-1.203 3.81-.2 1.27-.033 2.139.501 2.607.601.201 1.27-.334 2.005-1.604.669-1.337 1.07-2.64 1.203-3.91s-.067-2.139-.602-2.607zm-6.718-.702c-.535.401-.735 1.236-.602 2.507s.568 2.573 1.303 3.91c.668 1.27 1.303 1.805 1.905 1.604.535-.468.735-1.337.602-2.607s-.535-2.54-1.203-3.81c-.735-1.337-1.404-1.872-2.005-1.604zm-2.066.702c-.601-.2-1.236.368-1.905 1.705-.668 1.27-1.069 2.54-1.203 3.81-.201 1.27-.033 2.139.501 2.607.602.201 1.27-.334 2.005-1.604.668-1.337 1.069-2.64 1.203-3.91s-.067-2.139-.602-2.607zm-6.718-.702c-.535.401-.735 1.236-.602 2.507s.568 2.573 1.303 3.91c.668 1.27 1.303 1.805 1.905 1.604.535-.468.735-1.337.602-2.607s-.535-2.54-1.203-3.81c-.735-1.337-1.404-1.872-2.005-1.604zm-10.851.702c-.602-.2-1.237.368-1.905 1.705-.668 1.27-1.07 2.54-1.203 3.81-.201 1.27-.033 2.139.501 2.607.602.201 1.27-.334 2.005-1.604.668-1.337 1.07-2.64 1.203-3.91s-.067-2.139-.602-2.607zm-6.718-.702c-.535.401-.735 1.236-.602 2.507s.568 2.573 1.303 3.91c.668 1.27 1.303 1.805 1.905 1.604.535-.468.735-1.337.602-2.607s-.535-2.54-1.203-3.81c-.735-1.337-1.404-1.872-2.005-1.604zm41.855 7.744c-.602-.2-1.236.368-1.905 1.705-.668 1.27-1.069 2.54-1.203 3.81-.201 1.27-.033 2.139.501 2.607.602.2 1.27-.334 2.005-1.604.668-1.337 1.069-2.64 1.203-3.91s-.067-2.139-.602-2.607zm-6.718-.702c-.535.401-.735 1.237-.602 2.507s.568 2.573 1.303 3.91c.668 1.27 1.303 1.805 1.905 1.604.535-.468.735-1.337.602-2.607s-.535-2.54-1.203-3.81c-.735-1.337-1.404-1.872-2.005-1.604zm-2.066.702c-.602-.2-1.237.368-1.905 1.705-.668 1.27-1.07 2.54-1.203 3.81-.2 1.27-.033 2.139.501 2.607.601.2 1.27-.334 2.005-1.604.669-1.337 1.07-2.64 1.203-3.91s-.067-2.139-.602-2.607zm-6.718-.702c-.535.401-.735 1.237-.602 2.507s.568 2.573 1.303 3.91c.668 1.27 1.303 1.805 1.905 1.604.535-.468.735-1.337.602-2.607s-.535-2.54-1.203-3.81c-.735-1.337-1.404-1.872-2.005-1.604zm-2.066.702c-.601-.2-1.236.368-1.905 1.705-.668 1.27-1.069 2.54-1.203 3.81-.201 1.27-.033 2.139.501 2.607.602.2 1.27-.334 2.005-1.604.668-1.337 1.069-2.64 1.203-3.91s-.067-2.139-.602-2.607zm-6.718-.702c-.535.401-.735 1.237-.602 2.507s.568 2.573 1.303 3.91c.668 1.27 1.303 1.805 1.905 1.604.535-.468.735-1.337.602-2.607s-.535-2.54-1.203-3.81c-.735-1.337-1.404-1.872-2.005-1.604zm-2.066.702c-.602-.2-1.237.368-1.905 1.705-.669 1.27-1.07 2.54-1.203 3.81-.2 1.27-.033 2.139.501 2.607.602.2 1.27-.334 2.005-1.604.668-1.337 1.07-2.64 1.203-3.91s-.067-2.139-.602-2.607zm-6.718-.702c-.535.401-.735 1.237-.602 2.507s.568 2.573 1.303 3.91c.669 1.27 1.303 1.805 1.905 1.604.535-.468.735-1.337.601-2.607S29.669 59.27 29 58c-.735-1.337-1.404-1.872-2.005-1.604zm33.07 7.743c-.602-.2-1.236.368-1.905 1.704-.668 1.27-1.069 2.54-1.203 3.81-.201 1.27-.033 2.139.501 2.607.602.201 1.27-.334 2.005-1.604.668-1.337 1.069-2.64 1.203-3.91s-.067-2.139-.602-2.607zm-6.718-.702c-.535.401-.735 1.237-.602 2.507s.568 2.573 1.303 3.91c.668 1.27 1.303 1.805 1.905 1.604.535-.468.735-1.337.602-2.607s-.535-2.54-1.203-3.81c-.735-1.337-1.404-1.872-2.005-1.604zm-2.066.702c-.602-.2-1.237.368-1.905 1.704-.668 1.27-1.07 2.54-1.203 3.81-.2 1.27-.033 2.139.501 2.607.601.201 1.27-.334 2.005-1.604.669-1.337 1.07-2.64 1.203-3.91s-.067-2.139-.602-2.607zm-6.718-.702c-.535.401-.735 1.237-.602 2.507s.568 2.573 1.303 3.91c.668 1.27 1.303 1.805 1.905 1.604.535-.468.735-1.337.602-2.607s-.535-2.54-1.203-3.81c-.735-1.337-1.404-1.872-2.005-1.604zm-2.066.702c-.601-.2-1.236.368-1.905 1.704-.668 1.27-1.069 2.54-1.203 3.81-.201 1.27-.033 2.139.501 2.607.602.201 1.27-.334 2.005-1.604.668-1.337 1.069-2.64 1.203-3.91s-.067-2.139-.602-2.607zm-6.718-.702c-.535.401-.735 1.237-.602 2.507s.568 2.573 1.303 3.91c.668 1.27 1.303 1.805 1.905 1.604.535-.468.735-1.337.602-2.607s-.535-2.54-1.203-3.81c-.735-1.337-1.404-1.872-2.005-1.604zm-2.066.702c-.602-.2-1.237.368-1.905 1.704-.669 1.27-1.07 2.54-1.203 3.81-.2 1.27-.033 2.139.501 2.607.602.201 1.27-.334 2.005-1.604.668-1.337 1.07-2.64 1.203-3.91s-.067-2.139-.602-2.607zm-6.718-.702c-.535.401-.735 1.237-.602 2.507s.568 2.573 1.303 3.91c.669 1.27 1.303 1.805 1.905 1.604.535-.468.735-1.337.601-2.607s-.535-2.54-1.203-3.81c-.735-1.337-1.404-1.872-2.005-1.604z"/><use xlink:href="#E" y="35.206"/><use xlink:href="#F" y="35.206"/><use xlink:href="#G" y="35.206"/><use xlink:href="#H" y="35.206"/><use xlink:href="#I" y="35.206"/><use xlink:href="#J"/><path d="M60.065 78.221c-.602-.201-1.236.368-1.905 1.704-.668 1.27-1.069 2.54-1.203 3.81-.201 1.27-.033 2.139.501 2.607.602.201 1.27-.334 2.005-1.604.668-1.337 1.069-2.64 1.203-3.91s-.067-2.139-.602-2.607zm-6.718-.702c-.535.401-.735 1.237-.602 2.507s.568 2.574 1.303 3.91c.668 1.27 1.303 1.805 1.905 1.604.535-.468.735-1.337.602-2.607s-.535-2.54-1.203-3.81c-.735-1.337-1.404-1.872-2.005-1.604zm-2.066.702c-.602-.201-1.237.368-1.905 1.704-.668 1.27-1.07 2.54-1.203 3.81-.2 1.27-.033 2.139.501 2.607.601.201 1.27-.334 2.005-1.604.669-1.337 1.07-2.64 1.203-3.91s-.067-2.139-.602-2.607zm-6.718-.702c-.535.401-.735 1.237-.602 2.507s.568 2.574 1.303 3.91c.668 1.27 1.303 1.805 1.905 1.604.535-.468.735-1.337.602-2.607s-.535-2.54-1.203-3.81c-.735-1.337-1.404-1.872-2.005-1.604zm-2.066.702c-.601-.201-1.236.368-1.905 1.704-.668 1.27-1.069 2.54-1.203 3.81-.201 1.27-.033 2.139.501 2.607.602.201 1.27-.334 2.005-1.604.668-1.337 1.069-2.64 1.203-3.91s-.067-2.139-.602-2.607zm-6.718-.702c-.535.401-.735 1.237-.602 2.507s.568 2.574 1.303 3.91c.668 1.27 1.303 1.805 1.905 1.604.535-.468.735-1.337.602-2.607s-.535-2.54-1.203-3.81c-.735-1.337-1.404-1.872-2.005-1.604z"/></g><path d="M33.713 78.221c-.602-.201-1.237.368-1.905 1.704-.669 1.27-1.07 2.54-1.203 3.81-.2 1.27-.033 2.139.501 2.607.602.201 1.27-.334 2.005-1.604.668-1.337 1.07-2.64 1.203-3.91s-.067-2.139-.602-2.607zm-6.718-.702c-.535.401-.735 1.237-.602 2.507s.568 2.574 1.303 3.91c.669 1.27 1.303 1.805 1.905 1.604.535-.468.735-1.337.601-2.607s-.535-2.54-1.203-3.81c-.735-1.337-1.404-1.872-2.005-1.604z" fill="#f1f1f1"/><g fill="#fff"><path d="M24.928 78.221c-.602-.201-1.237.368-1.905 1.704-.668 1.27-1.07 2.54-1.203 3.81-.201 1.27-.033 2.139.501 2.607.602.201 1.27-.334 2.005-1.604.668-1.337 1.07-2.64 1.203-3.91s-.067-2.139-.602-2.607zm-6.718-.702c-.535.401-.735 1.237-.602 2.507s.568 2.574 1.303 3.91c.668 1.27 1.303 1.805 1.905 1.604.535-.468.735-1.337.602-2.607s-.535-2.54-1.203-3.81c-.735-1.337-1.404-1.872-2.005-1.604zm-2.066.702c-.602-.201-1.237.368-1.905 1.704-.668 1.27-1.069 2.54-1.203 3.81-.2 1.27-.033 2.139.501 2.607.602.201 1.27-.334 2.005-1.604.668-1.337 1.069-2.64 1.203-3.91s-.067-2.139-.602-2.607zm-6.718-.702c-.535.401-.735 1.237-.602 2.507s.568 2.574 1.303 3.91c.668 1.27 1.303 1.805 1.905 1.604.535-.468.735-1.337.602-2.607s-.535-2.54-1.203-3.81c-.735-1.337-1.404-1.872-2.005-1.604z"/><use xlink:href="#E" y="49.288"/><use xlink:href="#F" y="49.288"/><use xlink:href="#G" y="49.288"/><use xlink:href="#H" y="49.288"/><use xlink:href="#I" y="49.288"/><use xlink:href="#J" y="14.082"/><path d="M7.359 85.262c-.602-.201-1.237.368-1.905 1.704-.668 1.27-1.069 2.54-1.203 3.81-.201 1.27-.033 2.139.501 2.607.602.201 1.27-.334 2.005-1.604.668-1.337 1.069-2.64 1.203-3.91s-.067-2.139-.602-2.607zM.642 84.56c-.535.401-.735 1.237-.602 2.507s.568 2.573 1.303 3.91c.668 1.27 1.303 1.805 1.905 1.604.535-.468.735-1.337.602-2.607s-.535-2.54-1.203-3.81c-.735-1.337-1.404-1.872-2.005-1.604zm59.423 7.743c-.602-.201-1.236.368-1.905 1.704-.668 1.27-1.069 2.54-1.203 3.81-.201 1.27-.033 2.139.501 2.607.602.2 1.27-.335 2.005-1.605.668-1.337 1.069-2.64 1.203-3.91s-.067-2.139-.602-2.607zm-6.718-.702c-.535.401-.735 1.237-.602 2.507s.568 2.573 1.303 3.91c.668 1.27 1.303 1.805 1.905 1.604.535-.468.735-1.337.602-2.607s-.535-2.54-1.203-3.81c-.735-1.337-1.404-1.872-2.005-1.604zm-2.066.702c-.602-.201-1.237.368-1.905 1.704-.668 1.27-1.07 2.54-1.203 3.81-.2 1.27-.033 2.139.501 2.607.601.2 1.27-.335 2.005-1.605.669-1.337 1.07-2.64 1.203-3.91s-.067-2.139-.602-2.607zm-6.718-.702c-.535.401-.735 1.237-.602 2.507s.568 2.573 1.303 3.91c.668 1.27 1.303 1.805 1.905 1.604.535-.468.735-1.337.602-2.607s-.535-2.54-1.203-3.81c-.735-1.337-1.404-1.872-2.005-1.604zm-2.066.702c-.601-.201-1.236.368-1.905 1.704-.668 1.27-1.069 2.54-1.203 3.81-.201 1.27-.033 2.139.501 2.607.602.2 1.27-.335 2.005-1.605.668-1.337 1.069-2.64 1.203-3.91s-.067-2.139-.602-2.607zm-6.718-.702c-.535.401-.735 1.237-.602 2.507s.568 2.573 1.303 3.91c.668 1.27 1.303 1.805 1.905 1.604.535-.468.735-1.337.602-2.607s-.535-2.54-1.203-3.81c-.735-1.337-1.404-1.872-2.005-1.604zm-2.066.702c-.602-.201-1.237.368-1.905 1.704-.669 1.27-1.07 2.54-1.203 3.81-.2 1.27-.033 2.139.501 2.607.602.2 1.27-.335 2.005-1.605.668-1.337 1.07-2.64 1.203-3.91s-.067-2.139-.602-2.607zm-6.718-.702c-.535.401-.735 1.237-.602 2.507s.568 2.573 1.303 3.91c.669 1.27 1.303 1.805 1.905 1.604.535-.468.735-1.337.601-2.607s-.535-2.54-1.203-3.81c-.735-1.337-1.404-1.872-2.005-1.604zm-2.067.702c-.602-.201-1.237.368-1.905 1.704-.668 1.27-1.07 2.54-1.203 3.81-.201 1.27-.033 2.139.501 2.607.602.2 1.27-.335 2.005-1.605.668-1.337 1.07-2.64 1.203-3.91s-.067-2.139-.602-2.607zm-6.718-.702c-.535.401-.735 1.237-.602 2.507s.568 2.573 1.303 3.91c.668 1.27 1.303 1.805 1.905 1.604.535-.468.735-1.337.602-2.607s-.535-2.54-1.203-3.81c-.735-1.337-1.404-1.872-2.005-1.604zm-2.066.702c-.602-.201-1.237.368-1.905 1.704-.668 1.27-1.069 2.54-1.203 3.81-.2 1.27-.033 2.139.501 2.607.602.2 1.27-.335 2.005-1.605.668-1.337 1.069-2.64 1.203-3.91s-.067-2.139-.602-2.607zm-6.718-.702c-.535.401-.735 1.237-.602 2.507s.568 2.573 1.303 3.91c.668 1.27 1.303 1.805 1.905 1.604.535-.468.735-1.337.602-2.607s-.535-2.54-1.203-3.81c-.735-1.337-1.404-1.872-2.005-1.604zm50.639 7.743c-.602-.201-1.236.368-1.905 1.705-.668 1.27-1.069 2.54-1.203 3.81-.201 1.27-.033 2.139.501 2.607.602.2 1.27-.335 2.005-1.605.668-1.336 1.069-2.64 1.203-3.91s-.067-2.139-.602-2.607zm-6.718-.702c-.535.401-.735 1.237-.602 2.507s.568 2.573 1.303 3.91c.668 1.27 1.303 1.805 1.905 1.604.535-.467.735-1.336.602-2.606s-.535-2.54-1.203-3.81c-.735-1.337-1.404-1.872-2.005-1.605zm-2.066.702c-.602-.201-1.237.368-1.905 1.705-.668 1.27-1.07 2.54-1.203 3.81-.2 1.27-.033 2.139.501 2.607.601.2 1.27-.335 2.005-1.605.669-1.336 1.07-2.64 1.203-3.91s-.067-2.139-.602-2.607zm-6.718-.702c-.535.401-.735 1.237-.602 2.507s.568 2.573 1.303 3.91c.668 1.27 1.303 1.805 1.905 1.604.535-.467.735-1.336.602-2.606s-.535-2.54-1.203-3.81c-.735-1.337-1.404-1.872-2.005-1.605zm-2.066.702c-.601-.201-1.236.368-1.905 1.705-.668 1.27-1.069 2.54-1.203 3.81-.201 1.27-.033 2.139.501 2.607.602.2 1.27-.335 2.005-1.605.668-1.336 1.069-2.64 1.203-3.91s-.067-2.139-.602-2.607zm-6.718-.702c-.535.401-.735 1.237-.602 2.507s.568 2.573 1.303 3.91c.668 1.27 1.303 1.805 1.905 1.604.535-.467.735-1.336.602-2.606s-.535-2.54-1.203-3.81c-.735-1.337-1.404-1.872-2.005-1.605zm-2.066.702c-.602-.201-1.237.368-1.905 1.705-.669 1.27-1.07 2.54-1.203 3.81-.2 1.27-.033 2.139.501 2.607.602.2 1.27-.335 2.005-1.605.668-1.336 1.07-2.64 1.203-3.91s-.067-2.139-.602-2.607zm-6.718-.702c-.535.401-.735 1.237-.602 2.507s.568 2.573 1.303 3.91c.669 1.27 1.303 1.805 1.905 1.604.535-.467.735-1.336.601-2.606s-.535-2.54-1.203-3.81c-.735-1.337-1.404-1.872-2.005-1.605zm-2.067.702c-.602-.201-1.237.368-1.905 1.705-.668 1.27-1.07 2.54-1.203 3.81-.201 1.27-.033 2.139.501 2.607.602.2 1.27-.335 2.005-1.605.668-1.336 1.07-2.64 1.203-3.91s-.067-2.139-.602-2.607zm-6.718-.702c-.535.401-.735 1.237-.602 2.507s.568 2.573 1.303 3.91c.668 1.27 1.303 1.805 1.905 1.604.535-.467.735-1.336.602-2.606s-.535-2.54-1.203-3.81c-.735-1.337-1.404-1.872-2.005-1.605zm-2.066.702c-.602-.201-1.237.368-1.905 1.705-.668 1.27-1.069 2.54-1.203 3.81-.2 1.27-.033 2.139.501 2.607.602.2 1.27-.335 2.005-1.605.668-1.336 1.069-2.64 1.203-3.91s-.067-2.139-.602-2.607zm-6.718-.702c-.535.401-.735 1.237-.602 2.507s.568 2.573 1.303 3.91c.668 1.27 1.303 1.805 1.905 1.604.535-.467.735-1.336.602-2.606s-.535-2.54-1.203-3.81c-.735-1.337-1.404-1.872-2.005-1.605zm-2.067.702c-.602-.201-1.237.368-1.905 1.705-.668 1.27-1.069 2.54-1.203 3.81-.201 1.27-.033 2.139.501 2.607.602.2 1.27-.335 2.005-1.605.668-1.336 1.069-2.64 1.203-3.91s-.067-2.139-.602-2.607zm-6.718-.702c-.535.401-.735 1.237-.602 2.507s.568 2.573 1.303 3.91c.668 1.27 1.303 1.805 1.905 1.604.535-.467.735-1.336.602-2.606s-.535-2.54-1.203-3.81c-.735-1.337-1.404-1.872-2.005-1.605zm59.424 7.743c-.602-.2-1.236.368-1.905 1.705-.668 1.27-1.069 2.54-1.203 3.81-.201 1.27-.033 2.139.501 2.607.602.2 1.27-.334 2.005-1.604.668-1.337 1.069-2.641 1.203-3.911s-.067-2.139-.602-2.607zm-6.718-.701c-.535.401-.735 1.236-.602 2.506s.568 2.574 1.303 3.91c.668 1.27 1.303 1.805 1.905 1.605.535-.468.735-1.337.602-2.607s-.535-2.54-1.203-3.81c-.735-1.337-1.404-1.872-2.005-1.604zm-2.066.701c-.602-.2-1.237.368-1.905 1.705-.668 1.27-1.07 2.54-1.203 3.81-.2 1.27-.033 2.139.501 2.607.601.2 1.27-.334 2.005-1.604.669-1.337 1.07-2.641 1.203-3.911s-.067-2.139-.602-2.607zm-6.718-.701c-.535.401-.735 1.236-.602 2.506s.568 2.574 1.303 3.91c.668 1.27 1.303 1.805 1.905 1.605.535-.468.735-1.337.602-2.607s-.535-2.54-1.203-3.81c-.735-1.337-1.404-1.872-2.005-1.604zm-2.066.701c-.601-.2-1.236.368-1.905 1.705-.668 1.27-1.069 2.54-1.203 3.81-.201 1.27-.033 2.139.501 2.607.602.2 1.27-.334 2.005-1.604.668-1.337 1.069-2.641 1.203-3.911s-.067-2.139-.602-2.607zm-6.718-.701c-.535.401-.735 1.236-.602 2.506s.568 2.574 1.303 3.91c.668 1.27 1.303 1.805 1.905 1.605.535-.468.735-1.337.602-2.607s-.535-2.54-1.203-3.81c-.735-1.337-1.404-1.872-2.005-1.604zm-2.066.701c-.602-.2-1.237.368-1.905 1.705-.669 1.27-1.07 2.54-1.203 3.81-.2 1.27-.033 2.139.501 2.607.602.2 1.27-.334 2.005-1.604.668-1.337 1.07-2.641 1.203-3.911s-.067-2.139-.602-2.607zm-6.718-.701c-.535.401-.735 1.236-.602 2.506s.568 2.574 1.303 3.91c.669 1.27 1.303 1.805 1.905 1.605.535-.468.735-1.337.601-2.607s-.535-2.54-1.203-3.81c-.735-1.337-1.404-1.872-2.005-1.604zm-2.067.701c-.602-.2-1.237.368-1.905 1.705-.668 1.27-1.07 2.54-1.203 3.81-.201 1.27-.033 2.139.501 2.607.602.2 1.27-.334 2.005-1.604.668-1.337 1.07-2.641 1.203-3.911s-.067-2.139-.602-2.607zm-6.718-.701c-.535.401-.735 1.236-.602 2.506s.568 2.574 1.303 3.91c.668 1.27 1.303 1.805 1.905 1.605.535-.468.735-1.337.602-2.607s-.535-2.54-1.203-3.81c-.735-1.337-1.404-1.872-2.005-1.604zm-10.851.701c-.602-.2-1.237.368-1.905 1.705-.668 1.27-1.069 2.54-1.203 3.81-.201 1.27-.033 2.139.501 2.607.602.2 1.27-.334 2.005-1.604.668-1.337 1.069-2.641 1.203-3.911s-.067-2.139-.602-2.607zm-6.718-.701c-.535.401-.735 1.236-.602 2.506s.568 2.574 1.303 3.91c.668 1.27 1.303 1.805 1.905 1.605.535-.468.735-1.337.602-2.607s-.535-2.54-1.203-3.81c-.735-1.337-1.404-1.872-2.005-1.604z"/><use xlink:href="#K"/><use xlink:href="#L"/><use xlink:href="#M"/><path d="M33.713 113.427c-.602-.201-1.237.367-1.905 1.704-.669 1.27-1.07 2.54-1.203 3.81-.2 1.27-.033 2.139.501 2.607.602.2 1.27-.334 2.005-1.604.668-1.337 1.07-2.641 1.203-3.911s-.067-2.139-.602-2.606zm-6.718-.702c-.535.401-.735 1.236-.602 2.506s.568 2.574 1.303 3.911c.669 1.27 1.303 1.804 1.905 1.604.535-.468.735-1.337.601-2.607s-.535-2.54-1.203-3.81c-.735-1.337-1.404-1.872-2.005-1.604z"/><use xlink:href="#N"/><use xlink:href="#K" y="7.041"/><use xlink:href="#L" y="7.041"/><use xlink:href="#M" y="7.041"/><use xlink:href="#N" y="7.041"/><use xlink:href="#O"/><use xlink:href="#P"/><path d="M42.497 127.509c-.601-.201-1.236.367-1.905 1.704-.668 1.27-1.069 2.54-1.203 3.81-.201 1.27-.033 2.139.501 2.607.602.201 1.27-.334 2.005-1.604.668-1.337 1.069-2.64 1.203-3.91s-.067-2.139-.602-2.607zm-6.718-.702c-.535.401-.735 1.236-.602 2.506s.568 2.574 1.303 3.911c.668 1.27 1.303 1.805 1.905 1.604.535-.468.735-1.337.602-2.607s-.535-2.54-1.203-3.81c-.735-1.337-1.404-1.871-2.005-1.604z"/><use xlink:href="#Q"/><use xlink:href="#O" y="7.041"/><use xlink:href="#P" y="7.041"/><use xlink:href="#Q" y="7.041"/><path d="M60.065 141.591c-.602-.201-1.236.368-1.905 1.704-.668 1.27-1.069 2.54-1.203 3.81-.201 1.27-.033 2.139.501 2.607.602.201 1.27-.334 2.005-1.604.668-1.337 1.069-2.64 1.203-3.91s-.067-2.139-.602-2.607zm-6.718-.702c-.535.401-.735 1.237-.602 2.507s.568 2.573 1.303 3.91c.668 1.27 1.303 1.805 1.905 1.604.535-.468.735-1.337.602-2.607s-.535-2.54-1.203-3.81c-.735-1.337-1.404-1.871-2.005-1.604zm-2.066.702c-.602-.201-1.237.368-1.905 1.704-.668 1.27-1.07 2.54-1.203 3.81-.2 1.27-.033 2.139.501 2.607.601.201 1.27-.334 2.005-1.604.669-1.337 1.07-2.64 1.203-3.91s-.067-2.139-.602-2.607zm-6.718-.702c-.535.401-.735 1.237-.602 2.507s.568 2.573 1.303 3.91c.668 1.27 1.303 1.805 1.905 1.604.535-.468.735-1.337.602-2.607s-.535-2.54-1.203-3.81c-.735-1.337-1.404-1.871-2.005-1.604zm15.502 7.743c-.602-.2-1.236.368-1.905 1.705-.668 1.27-1.069 2.54-1.203 3.81-.201 1.27-.033 2.138.501 2.606.602.201 1.27-.334 2.005-1.604.668-1.337 1.069-2.64 1.203-3.91s-.067-2.139-.602-2.607zm-6.718-.702c-.535.401-.735 1.237-.602 2.507s.568 2.573 1.303 3.91c.668 1.27 1.303 1.805 1.905 1.604.535-.468.735-1.337.602-2.607s-.535-2.54-1.203-3.81c-.735-1.336-1.404-1.871-2.005-1.604zm6.718 7.743c-.602-.2-1.236.368-1.905 1.705-.668 1.27-1.069 2.54-1.203 3.81-.201 1.27-.033 2.139.501 2.607.602.2 1.27-.335 2.005-1.605.668-1.337 1.069-2.64 1.203-3.91s-.067-2.139-.602-2.607zm-6.718-.702c-.535.401-.735 1.237-.602 2.507s.568 2.573 1.303 3.91c.668 1.27 1.303 1.805 1.905 1.604.535-.467.735-1.336.602-2.606s-.535-2.54-1.203-3.81c-.735-1.337-1.404-1.872-2.005-1.605z"/></g><defs ><path id="B" d="M60.065 7.81c-.602-.201-1.236.368-1.905 1.704-.668 1.27-1.069 2.54-1.203 3.81-.201 1.27-.033 2.139.501 2.607.602.2 1.27-.334 2.005-1.604.668-1.337 1.069-2.64 1.203-3.91s-.067-2.139-.602-2.607zm-6.718-.702c-.535.401-.735 1.237-.602 2.507s.568 2.573 1.303 3.91c.668 1.27 1.303 1.805 1.905 1.604.535-.468.735-1.337.602-2.607s-.535-2.54-1.203-3.81c-.735-1.337-1.404-1.872-2.005-1.604z"/><path id="C" d="M51.281 7.81c-.602-.201-1.237.368-1.905 1.704-.668 1.27-1.07 2.54-1.203 3.81-.2 1.27-.033 2.139.501 2.607.601.2 1.27-.334 2.005-1.604.669-1.337 1.07-2.64 1.203-3.91s-.067-2.139-.602-2.607zm-6.718-.702c-.535.401-.735 1.237-.602 2.507s.568 2.573 1.303 3.91c.668 1.27 1.303 1.805 1.905 1.604.535-.468.735-1.337.602-2.607s-.535-2.54-1.203-3.81c-.735-1.337-1.404-1.872-2.005-1.604z"/><path id="D" d="M42.497 7.81c-.601-.201-1.236.368-1.905 1.704-.668 1.27-1.069 2.54-1.203 3.81-.201 1.27-.033 2.139.501 2.607.602.2 1.27-.334 2.005-1.604.668-1.337 1.069-2.64 1.203-3.91s-.067-2.139-.602-2.607zm-6.718-.702c-.535.401-.735 1.237-.602 2.507s.568 2.573 1.303 3.91c.668 1.27 1.303 1.805 1.905 1.604.535-.468.735-1.337.602-2.607s-.535-2.54-1.203-3.81c-.735-1.337-1.404-1.872-2.005-1.604z"/><path id="E" d="M60.065 35.974c-.602-.201-1.236.368-1.905 1.704-.668 1.27-1.069 2.54-1.203 3.81-.201 1.27-.033 2.139.501 2.607.602.201 1.27-.334 2.005-1.604.668-1.337 1.069-2.64 1.203-3.91s-.067-2.139-.602-2.607zm-6.718-.702c-.535.401-.735 1.237-.602 2.507s.568 2.573 1.303 3.91c.668 1.27 1.303 1.805 1.905 1.604.535-.468.735-1.337.602-2.607s-.535-2.54-1.203-3.81c-.735-1.337-1.404-1.872-2.005-1.604z"/><path id="F" d="M51.281 35.974c-.602-.201-1.237.368-1.905 1.704-.668 1.27-1.07 2.54-1.203 3.81-.2 1.27-.033 2.139.501 2.607.601.201 1.27-.334 2.005-1.604.669-1.337 1.07-2.64 1.203-3.91s-.067-2.139-.602-2.607zm-6.718-.702c-.535.401-.735 1.237-.602 2.507s.568 2.573 1.303 3.91c.668 1.27 1.303 1.805 1.905 1.604.535-.468.735-1.337.602-2.607s-.535-2.54-1.203-3.81c-.735-1.337-1.404-1.872-2.005-1.604z"/><path id="G" d="M42.497 35.974c-.601-.201-1.236.368-1.905 1.704-.668 1.27-1.069 2.54-1.203 3.81-.201 1.27-.033 2.139.501 2.607.602.201 1.27-.334 2.005-1.604.668-1.337 1.069-2.64 1.203-3.91s-.067-2.139-.602-2.607zm-6.718-.702c-.535.401-.735 1.237-.602 2.507s.568 2.573 1.303 3.91c.668 1.27 1.303 1.805 1.905 1.604.535-.468.735-1.337.602-2.607s-.535-2.54-1.203-3.81c-.735-1.337-1.404-1.872-2.005-1.604z"/><path id="H" d="M33.713 35.974c-.602-.201-1.237.368-1.905 1.704-.669 1.27-1.07 2.54-1.203 3.81-.2 1.27-.033 2.139.501 2.607.602.201 1.27-.334 2.005-1.604.668-1.337 1.07-2.64 1.203-3.91s-.067-2.139-.602-2.607zm-6.718-.702c-.535.401-.735 1.237-.602 2.507s.568 2.573 1.303 3.91c.669 1.27 1.303 1.805 1.905 1.604.535-.468.735-1.337.601-2.607s-.535-2.54-1.203-3.81c-.735-1.337-1.404-1.872-2.005-1.604z"/><path id="I" d="M24.928 35.974c-.602-.201-1.237.368-1.905 1.704-.668 1.27-1.07 2.54-1.203 3.81-.201 1.27-.033 2.139.501 2.607.602.201 1.27-.334 2.005-1.604.668-1.337 1.07-2.64 1.203-3.91s-.067-2.139-.602-2.607zm-6.718-.702c-.535.401-.735 1.237-.602 2.507s.568 2.573 1.303 3.91c.668 1.27 1.303 1.805 1.905 1.604.535-.468.735-1.337.602-2.607s-.535-2.54-1.203-3.81c-.735-1.337-1.404-1.872-2.005-1.604z"/><path id="J" d="M16.144 71.18c-.602-.201-1.237.368-1.905 1.704-.668 1.27-1.069 2.54-1.203 3.81-.2 1.27-.033 2.139.501 2.607.602.201 1.27-.334 2.005-1.604.668-1.337 1.069-2.64 1.203-3.91s-.067-2.139-.602-2.607zm-6.718-.702c-.535.401-.735 1.237-.602 2.507s.568 2.573 1.303 3.91c.668 1.27 1.303 1.805 1.905 1.604.535-.468.735-1.337.602-2.607s-.535-2.54-1.203-3.81c-.735-1.337-1.404-1.872-2.005-1.604z"/><path id="K" d="M60.065 113.427c-.602-.201-1.236.367-1.905 1.704-.668 1.27-1.069 2.54-1.203 3.81-.201 1.27-.033 2.139.501 2.607.602.2 1.27-.334 2.005-1.604.668-1.337 1.069-2.641 1.203-3.911s-.067-2.139-.602-2.606zm-6.718-.702c-.535.401-.735 1.236-.602 2.506s.568 2.574 1.303 3.911c.668 1.27 1.303 1.804 1.905 1.604.535-.468.735-1.337.602-2.607s-.535-2.54-1.203-3.81c-.735-1.337-1.404-1.872-2.005-1.604z"/><path id="L" d="M51.281 113.427c-.602-.201-1.237.367-1.905 1.704-.668 1.27-1.07 2.54-1.203 3.81-.2 1.27-.033 2.139.501 2.607.601.2 1.27-.334 2.005-1.604.669-1.337 1.07-2.641 1.203-3.911s-.067-2.139-.602-2.606zm-6.718-.702c-.535.401-.735 1.236-.602 2.506s.568 2.574 1.303 3.911c.668 1.27 1.303 1.804 1.905 1.604.535-.468.735-1.337.602-2.607s-.535-2.54-1.203-3.81c-.735-1.337-1.404-1.872-2.005-1.604z"/><path id="M" d="M42.497 113.427c-.601-.201-1.236.367-1.905 1.704-.668 1.27-1.069 2.54-1.203 3.81-.201 1.27-.033 2.139.501 2.607.602.2 1.27-.334 2.005-1.604.668-1.337 1.069-2.641 1.203-3.911s-.067-2.139-.602-2.606zm-6.718-.702c-.535.401-.735 1.236-.602 2.506s.568 2.574 1.303 3.911c.668 1.27 1.303 1.804 1.905 1.604.535-.468.735-1.337.602-2.607s-.535-2.54-1.203-3.81c-.735-1.337-1.404-1.872-2.005-1.604z"/><path id="N" d="M24.928 113.427c-.602-.201-1.237.367-1.905 1.704-.668 1.27-1.07 2.54-1.203 3.81-.201 1.27-.033 2.139.501 2.607.602.2 1.27-.334 2.005-1.604.668-1.337 1.07-2.641 1.203-3.911s-.067-2.139-.602-2.606zm-6.718-.702c-.535.401-.735 1.236-.602 2.506s.568 2.574 1.303 3.911c.668 1.27 1.303 1.804 1.905 1.604.535-.468.735-1.337.602-2.607s-.535-2.54-1.203-3.81c-.735-1.337-1.404-1.872-2.005-1.604z"/><path id="O" d="M60.065 127.509c-.602-.201-1.236.367-1.905 1.704-.668 1.27-1.069 2.54-1.203 3.81-.201 1.27-.033 2.139.501 2.607.602.201 1.27-.334 2.005-1.604.668-1.337 1.069-2.64 1.203-3.91s-.067-2.139-.602-2.607zm-6.718-.702c-.535.401-.735 1.236-.602 2.506s.568 2.574 1.303 3.911c.668 1.27 1.303 1.805 1.905 1.604.535-.468.735-1.337.602-2.607s-.535-2.54-1.203-3.81c-.735-1.337-1.404-1.871-2.005-1.604z"/><path id="P" d="M51.281 127.509c-.602-.201-1.237.367-1.905 1.704-.668 1.27-1.07 2.54-1.203 3.81-.2 1.27-.033 2.139.501 2.607.601.201 1.27-.334 2.005-1.604.669-1.337 1.07-2.64 1.203-3.91s-.067-2.139-.602-2.607zm-6.718-.702c-.535.401-.735 1.236-.602 2.506s.568 2.574 1.303 3.911c.668 1.27 1.303 1.805 1.905 1.604.535-.468.735-1.337.602-2.607s-.535-2.54-1.203-3.81c-.735-1.337-1.404-1.871-2.005-1.604z"/><path id="Q" d="M33.713 127.509c-.602-.201-1.237.367-1.905 1.704-.669 1.27-1.07 2.54-1.203 3.81-.2 1.27-.033 2.139.501 2.607.602.201 1.27-.334 2.005-1.604.668-1.337 1.07-2.64 1.203-3.91s-.067-2.139-.602-2.607zm-6.718-.702c-.535.401-.735 1.236-.602 2.506s.568 2.574 1.303 3.911c.669 1.27 1.303 1.805 1.905 1.604.535-.468.735-1.337.601-2.607s-.535-2.54-1.203-3.81c-.735-1.337-1.404-1.871-2.005-1.604z"/></defs></svg>