<svg xmlns="http://www.w3.org/2000/svg" xmlns:xlink="http://www.w3.org/1999/xlink" width="44" height="108" fill="none" xmlns:v="https://vecta.io/nano"><g fill="#fff"><path d="M.642.769c.602-.201 1.237.368 1.905 1.704.668 1.27 1.069 2.54 1.203 3.81.201 1.27.033 2.139-.501 2.607-.602.201-1.27-.334-2.005-1.604C.575 5.949.174 4.646.04 3.376S.107 1.237.642.769zM7.359.067c.535.401.735 1.237.602 2.507s-.568 2.573-1.303 3.91c-.668 1.27-1.303 1.805-1.905 1.604-.535-.468-.735-1.337-.602-2.607s.535-2.54 1.203-3.81C6.089.334 6.758-.201 7.359.067zM.642 7.81c.602-.201 1.237.368 1.905 1.704.668 1.27 1.069 2.54 1.203 3.81.201 1.27.033 2.139-.501 2.607-.602.2-1.27-.334-2.005-1.604-.669-1.337-1.07-2.64-1.204-3.91S.107 8.278.642 7.81zm6.718-.702c.535.401.735 1.237.602 2.507s-.568 2.573-1.303 3.91c-.668 1.27-1.303 1.805-1.905 1.604-.535-.468-.735-1.337-.602-2.607s.535-2.54 1.203-3.81C6.09 7.375 6.759 6.84 7.36 7.108z"/><use xlink:href="#B"/><path d="M.642 14.851c.602-.201 1.237.368 1.905 1.704.668 1.27 1.069 2.54 1.203 3.81.201 1.27.033 2.139-.501 2.607-.602.2-1.27-.334-2.005-1.604-.668-1.337-1.069-2.64-1.203-3.91s.067-2.139.602-2.607zm6.718-.702c.535.401.735 1.237.602 2.507s-.568 2.573-1.303 3.91c-.668 1.27-1.303 1.805-1.905 1.604-.535-.468-.735-1.337-.602-2.607s.535-2.54 1.203-3.81c.735-1.337 1.404-1.872 2.005-1.604z"/><use xlink:href="#B" y="7.041"/><path d="M18.21 14.851c.602-.201 1.237.368 1.905 1.704.668 1.27 1.069 2.54 1.203 3.81.201 1.27.034 2.139-.501 2.607-.602.2-1.27-.334-2.005-1.604-.669-1.337-1.07-2.64-1.203-3.91s.067-2.139.602-2.607zm6.718-.702c.535.401.735 1.237.602 2.507s-.568 2.573-1.303 3.91c-.668 1.27-1.303 1.805-1.905 1.604-.535-.468-.735-1.337-.602-2.607s.535-2.54 1.203-3.81c.735-1.337 1.404-1.872 2.005-1.604zM.642 21.892c.602-.2 1.237.368 1.905 1.704.668 1.27 1.069 2.54 1.203 3.81.201 1.27.033 2.139-.501 2.607-.602.2-1.27-.334-2.005-1.604-.668-1.337-1.069-2.64-1.203-3.91s.067-2.139.602-2.607zm6.718-.702c.535.401.735 1.237.602 2.507s-.568 2.573-1.303 3.91c-.668 1.27-1.303 1.805-1.905 1.604-.535-.468-.735-1.337-.602-2.607s.535-2.54 1.203-3.81c.735-1.337 1.404-1.872 2.005-1.604z"/><use xlink:href="#C"/><use xlink:href="#D"/><path d="M.642 28.933c.602-.2 1.237.368 1.905 1.704.668 1.27 1.069 2.54 1.203 3.81.201 1.27.033 2.139-.501 2.607-.602.2-1.27-.334-2.005-1.604C.575 34.114.174 32.81.04 31.54s.067-2.139.602-2.607zm6.718-.702c.535.401.735 1.237.602 2.507s-.568 2.573-1.303 3.91c-.668 1.27-1.303 1.805-1.905 1.604-.535-.468-.735-1.337-.602-2.607s.535-2.54 1.203-3.81c.735-1.337 1.404-1.872 2.005-1.604z"/><use xlink:href="#C" y="7.041"/><use xlink:href="#D" y="7.041"/><use xlink:href="#E"/><use xlink:href="#F"/></g><use xlink:href="#G" fill="#f1f1f1"/><g fill="#fff"><use xlink:href="#H"/><use xlink:href="#I"/><use xlink:href="#E" y="7.042"/><use xlink:href="#F" y="7.042"/><use xlink:href="#G" y="7.042"/><use xlink:href="#H" y="7.042"/><use xlink:href="#I" y="7.042"/><path d="M.642 50.057c.602-.201 1.237.368 1.905 1.704.668 1.27 1.069 2.54 1.203 3.81.201 1.27.033 2.139-.501 2.607-.602.201-1.27-.334-2.005-1.604-.668-1.337-1.069-2.64-1.203-3.91s.067-2.139.602-2.607zm6.718-.702c.535.401.735 1.237.602 2.507s-.568 2.574-1.303 3.91c-.668 1.27-1.303 1.805-1.905 1.604-.535-.468-.735-1.337-.602-2.607s.535-2.54 1.203-3.81c.735-1.337 1.404-1.871 2.005-1.604zm2.066.702c.602-.201 1.237.368 1.905 1.704.668 1.27 1.069 2.54 1.203 3.81.2 1.27.033 2.139-.501 2.607-.601.201-1.27-.334-2.005-1.604-.668-1.337-1.07-2.64-1.203-3.91s.067-2.139.602-2.607zm6.718-.702c.535.401.735 1.237.602 2.507s-.568 2.574-1.303 3.91c-.668 1.27-1.303 1.805-1.905 1.604-.535-.468-.735-1.337-.602-2.607s.535-2.54 1.203-3.81c.735-1.337 1.404-1.871 2.005-1.604zm2.066.702c.602-.201 1.237.368 1.905 1.704.668 1.27 1.069 2.54 1.203 3.81.201 1.27.034 2.139-.501 2.607-.602.201-1.27-.334-2.005-1.604-.669-1.337-1.07-2.64-1.203-3.91s.067-2.139.602-2.607zm6.718-.702c.535.401.735 1.237.602 2.507s-.568 2.574-1.303 3.91c-.668 1.27-1.303 1.805-1.905 1.604-.535-.468-.735-1.337-.602-2.607s.535-2.54 1.203-3.81c.735-1.337 1.404-1.871 2.005-1.604zm2.067.702c.602-.201 1.237.368 1.905 1.704.669 1.27 1.07 2.54 1.203 3.81.2 1.27.033 2.139-.501 2.607-.602.201-1.27-.334-2.005-1.604-.668-1.337-1.069-2.64-1.203-3.91s.067-2.139.602-2.607zm6.718-.702c.535.401.735 1.237.602 2.507s-.568 2.574-1.303 3.91c-.669 1.27-1.303 1.805-1.905 1.604-.535-.468-.735-1.337-.601-2.607s.535-2.54 1.203-3.81c.735-1.337 1.404-1.871 2.005-1.604zM.642 57.098c.602-.2 1.237.368 1.905 1.705.668 1.27 1.069 2.54 1.203 3.81.201 1.27.033 2.139-.501 2.607-.602.201-1.27-.334-2.005-1.604-.668-1.337-1.069-2.64-1.203-3.91s.067-2.139.602-2.607zm6.718-.702c.535.401.735 1.237.602 2.507s-.568 2.573-1.303 3.91c-.668 1.27-1.303 1.805-1.905 1.604-.535-.468-.735-1.337-.602-2.607s.535-2.54 1.203-3.81c.735-1.337 1.404-1.872 2.005-1.604zm2.066.702c.602-.2 1.237.368 1.905 1.705.668 1.27 1.069 2.54 1.203 3.81.2 1.27.033 2.139-.501 2.607-.601.201-1.27-.334-2.005-1.604-.668-1.337-1.07-2.64-1.203-3.91s.067-2.139.602-2.607zm6.718-.702c.535.401.735 1.237.602 2.507s-.568 2.573-1.303 3.91c-.668 1.27-1.303 1.805-1.905 1.604-.535-.468-.735-1.337-.602-2.607s.535-2.54 1.203-3.81c.735-1.337 1.404-1.872 2.005-1.604zm2.066.702c.602-.2 1.237.368 1.905 1.705.668 1.27 1.069 2.54 1.203 3.81.201 1.27.034 2.139-.501 2.607-.602.201-1.27-.334-2.005-1.604-.669-1.337-1.07-2.64-1.203-3.91s.067-2.139.602-2.607zm6.718-.702c.535.401.735 1.237.602 2.507s-.568 2.573-1.303 3.91c-.668 1.27-1.303 1.805-1.905 1.604-.535-.468-.735-1.337-.602-2.607s.535-2.54 1.203-3.81c.735-1.337 1.404-1.872 2.005-1.604zm2.067.702c.602-.2 1.237.368 1.905 1.705.669 1.27 1.07 2.54 1.203 3.81.2 1.27.033 2.139-.501 2.607-.602.201-1.27-.334-2.005-1.604-.668-1.337-1.069-2.64-1.203-3.91s.067-2.139.602-2.607zm6.718-.702c.535.401.735 1.237.602 2.507s-.568 2.573-1.303 3.91c-.669 1.27-1.303 1.805-1.905 1.604-.535-.468-.735-1.337-.601-2.607s.535-2.54 1.203-3.81c.735-1.337 1.404-1.872 2.005-1.604zm2.066.702c.602-.2 1.237.368 1.905 1.705.668 1.27 1.07 2.54 1.203 3.81.201 1.27.034 2.139-.501 2.607-.602.201-1.27-.334-2.005-1.604-.669-1.337-1.07-2.64-1.203-3.91s.067-2.139.602-2.607zm6.718-.702c.535.401.735 1.237.602 2.507s-.568 2.573-1.303 3.91c-.668 1.27-1.303 1.805-1.905 1.604-.535-.468-.735-1.337-.602-2.607s.535-2.54 1.203-3.81c.735-1.337 1.404-1.872 2.005-1.604z"/><use xlink:href="#E" y="28.165"/><use xlink:href="#F" y="28.165"/><use xlink:href="#G" y="28.165"/><use xlink:href="#H" y="28.165"/><path d="M.642 71.18c.602-.201 1.237.368 1.905 1.704.668 1.27 1.069 2.54 1.203 3.81.201 1.27.033 2.139-.501 2.607-.602.201-1.27-.334-2.005-1.604C.575 76.36.174 75.057.04 73.787s.067-2.139.602-2.607zm6.718-.702c.535.401.735 1.237.602 2.507s-.568 2.573-1.303 3.91c-.668 1.27-1.303 1.805-1.905 1.604-.535-.468-.735-1.337-.602-2.607s.535-2.54 1.203-3.81c.735-1.337 1.404-1.872 2.005-1.604z"/><use xlink:href="#F" y="35.206"/><use xlink:href="#G" y="35.206"/><use xlink:href="#H" y="35.206"/><use xlink:href="#E" y="42.247"/><use xlink:href="#F" y="42.247"/><use xlink:href="#H" y="42.247"/><use xlink:href="#E" y="49.288"/><use xlink:href="#F" y="49.288"/><use xlink:href="#G" y="49.288"/><path d="M.642 92.303c.602-.201 1.237.368 1.905 1.704.668 1.27 1.069 2.54 1.203 3.81.201 1.27.033 2.139-.501 2.606-.602.201-1.27-.334-2.005-1.604C.575 97.483.174 96.18.04 94.91s.067-2.139.602-2.607zm6.718-.702c.535.401.735 1.237.602 2.507s-.568 2.573-1.303 3.91c-.668 1.27-1.303 1.805-1.905 1.604-.535-.468-.735-1.337-.602-2.607s.535-2.54 1.203-3.81c.735-1.337 1.404-1.872 2.005-1.604zm10.85.702c.602-.201 1.237.368 1.905 1.704.668 1.27 1.069 2.54 1.203 3.81.201 1.27.034 2.139-.501 2.606-.602.201-1.27-.334-2.005-1.604-.669-1.337-1.07-2.64-1.203-3.91s.067-2.139.602-2.607zm6.718-.702c.535.401.735 1.237.602 2.507s-.568 2.573-1.303 3.91c-.668 1.27-1.303 1.805-1.905 1.604-.535-.468-.735-1.337-.602-2.607s.535-2.54 1.203-3.81c.735-1.337 1.404-1.872 2.005-1.604zM.642 99.344c.602-.201 1.237.368 1.905 1.705.668 1.27 1.069 2.54 1.203 3.81.201 1.27.033 2.139-.501 2.607-.602.2-1.27-.334-2.005-1.604-.668-1.337-1.069-2.641-1.203-3.911s.067-2.139.602-2.607zm6.718-.702c.535.401.735 1.237.602 2.507s-.568 2.574-1.303 3.91c-.668 1.27-1.303 1.805-1.905 1.605-.535-.468-.735-1.337-.602-2.607s.535-2.54 1.203-3.81c.735-1.337 1.404-1.872 2.005-1.605z"/></g><defs ><path id="B" d="M9.426 7.81c.602-.201 1.237.368 1.905 1.704.668 1.27 1.069 2.54 1.203 3.81.2 1.27.033 2.139-.501 2.607-.601.2-1.27-.334-2.005-1.604-.668-1.337-1.07-2.64-1.203-3.91s.067-2.139.602-2.607zm6.718-.702c.535.401.735 1.237.602 2.507s-.568 2.573-1.303 3.91c-.668 1.27-1.303 1.805-1.905 1.604-.535-.468-.735-1.337-.602-2.607s.535-2.54 1.203-3.81c.735-1.337 1.404-1.872 2.005-1.604z"/><path id="C" d="M9.426 21.892c.602-.2 1.237.368 1.905 1.704.668 1.27 1.069 2.54 1.203 3.81.2 1.27.033 2.139-.501 2.607-.601.2-1.27-.334-2.005-1.604-.668-1.337-1.07-2.64-1.203-3.91s.067-2.139.602-2.607zm6.718-.702c.535.401.735 1.237.602 2.507s-.568 2.573-1.303 3.91c-.668 1.27-1.303 1.805-1.905 1.604-.535-.468-.735-1.337-.602-2.607s.535-2.54 1.203-3.81c.735-1.337 1.404-1.872 2.005-1.604z"/><path id="D" d="M18.21 21.892c.602-.2 1.237.368 1.905 1.704.668 1.27 1.069 2.54 1.203 3.81.201 1.27.034 2.139-.501 2.607-.602.2-1.27-.334-2.005-1.604-.669-1.337-1.07-2.64-1.203-3.91s.067-2.139.602-2.607zm6.718-.702c.535.401.735 1.237.602 2.507s-.568 2.573-1.303 3.91c-.668 1.27-1.303 1.805-1.905 1.604-.535-.468-.735-1.337-.602-2.607s.535-2.54 1.203-3.81c.735-1.337 1.404-1.872 2.005-1.604z"/><path id="E" d="M.642 35.974c.602-.201 1.237.368 1.905 1.704.668 1.27 1.069 2.54 1.203 3.81.201 1.27.033 2.139-.501 2.607-.602.201-1.27-.334-2.005-1.604-.668-1.337-1.069-2.64-1.203-3.91s.067-2.139.602-2.607zm6.718-.702c.535.401.735 1.237.602 2.507s-.568 2.573-1.303 3.91c-.668 1.27-1.303 1.805-1.905 1.604-.535-.468-.735-1.337-.602-2.607s.535-2.54 1.203-3.81c.735-1.337 1.404-1.872 2.005-1.604z"/><path id="F" d="M9.426 35.974c.602-.201 1.237.368 1.905 1.704.668 1.27 1.069 2.54 1.203 3.81.2 1.27.033 2.139-.501 2.607-.601.201-1.27-.334-2.005-1.604-.668-1.337-1.07-2.64-1.203-3.91s.067-2.139.602-2.607zm6.718-.702c.535.401.735 1.237.602 2.507s-.568 2.573-1.303 3.91c-.668 1.27-1.303 1.805-1.905 1.604-.535-.468-.735-1.337-.602-2.607s.535-2.54 1.203-3.81c.735-1.337 1.404-1.872 2.005-1.604z"/><path id="G" d="M18.21 35.974c.602-.201 1.237.368 1.905 1.704.668 1.27 1.069 2.54 1.203 3.81.201 1.27.034 2.139-.501 2.607-.602.201-1.27-.334-2.005-1.604-.669-1.337-1.07-2.64-1.203-3.91s.067-2.139.602-2.607zm6.718-.702c.535.401.735 1.237.602 2.507s-.568 2.573-1.303 3.91c-.668 1.27-1.303 1.805-1.905 1.604-.535-.468-.735-1.337-.602-2.607s.535-2.54 1.203-3.81c.735-1.337 1.404-1.872 2.005-1.604z"/><path id="H" d="M26.995 35.974c.602-.201 1.237.368 1.905 1.704.669 1.27 1.07 2.54 1.203 3.81.2 1.27.033 2.139-.501 2.607-.602.201-1.27-.334-2.005-1.604-.668-1.337-1.069-2.64-1.203-3.91s.067-2.139.602-2.607zm6.718-.702c.535.401.735 1.237.602 2.507s-.568 2.573-1.303 3.91c-.669 1.27-1.303 1.805-1.905 1.604-.535-.468-.735-1.337-.601-2.607s.535-2.54 1.203-3.81c.735-1.337 1.404-1.872 2.005-1.604z"/><path id="I" d="M35.779 35.974c.602-.201 1.237.368 1.905 1.704.668 1.27 1.07 2.54 1.203 3.81.201 1.27.034 2.139-.501 2.607-.602.201-1.27-.334-2.005-1.604-.669-1.337-1.07-2.64-1.203-3.91s.067-2.139.602-2.607zm6.718-.702c.535.401.735 1.237.602 2.507s-.568 2.573-1.303 3.91c-.668 1.27-1.303 1.805-1.905 1.604-.535-.468-.735-1.337-.602-2.607s.535-2.54 1.203-3.81c.735-1.337 1.404-1.872 2.005-1.604z"/></defs></svg>