<svg xmlns="http://www.w3.org/2000/svg" xmlns:xlink="http://www.w3.org/1999/xlink" width="38" height="143" fill="none" xmlns:v="https://vecta.io/nano"><g fill="#fff"><path d="M42.497.769c-.602-.201-1.237.368-1.905 1.704-.668 1.27-1.07 2.54-1.203 3.81-.2 1.27-.033 2.139.501 2.607.602.201 1.27-.334 2.005-1.604.668-1.337 1.069-2.64 1.203-3.91s-.067-2.139-.602-2.607zM35.779.067c-.535.401-.735 1.237-.601 2.507s.568 2.573 1.303 3.91c.668 1.27 1.303 1.805 1.905 1.604.535-.468.735-1.337.602-2.607s-.535-2.54-1.203-3.81C37.049.334 36.38-.201 35.779.067z"/><use xlink:href="#B"/><use xlink:href="#C"/></g><use xlink:href="#D" fill="#f1f1f1"/><g fill="#fff"><path d="M42.497 14.851c-.602-.201-1.237.368-1.905 1.704-.668 1.27-1.07 2.54-1.203 3.81-.2 1.27-.033 2.139.501 2.607.602.2 1.27-.334 2.005-1.604.668-1.337 1.069-2.64 1.203-3.91s-.067-2.139-.602-2.607zm-6.718-.702c-.535.401-.735 1.237-.601 2.507s.568 2.573 1.303 3.91c.668 1.27 1.303 1.805 1.905 1.604.535-.468.735-1.337.602-2.607s-.535-2.54-1.203-3.81c-.735-1.337-1.404-1.872-2.005-1.604zm-2.067.702c-.602-.201-1.237.368-1.905 1.704-.668 1.27-1.07 2.54-1.203 3.81-.2 1.27-.033 2.139.501 2.607.602.2 1.27-.334 2.005-1.604.668-1.337 1.07-2.64 1.203-3.91s-.067-2.139-.602-2.607zm-6.718-.702c-.535.401-.735 1.237-.602 2.507s.568 2.573 1.303 3.91c.668 1.27 1.303 1.805 1.905 1.604.535-.468.735-1.337.602-2.607s-.535-2.54-1.203-3.81c-.735-1.337-1.404-1.872-2.005-1.604zm-2.066.702c-.602-.201-1.237.368-1.905 1.704-.668 1.27-1.07 2.54-1.203 3.81-.201 1.27-.033 2.139.501 2.607.601.2 1.27-.334 2.005-1.604.669-1.337 1.07-2.64 1.203-3.91s-.067-2.139-.602-2.607zm-6.718-.702c-.535.401-.735 1.237-.602 2.507s.568 2.573 1.303 3.91c.668 1.27 1.303 1.805 1.905 1.604.535-.468.735-1.337.602-2.607s-.535-2.54-1.203-3.81c-.735-1.337-1.404-1.872-2.005-1.604zm24.287 7.743c-.602-.2-1.237.368-1.905 1.704-.668 1.27-1.07 2.54-1.203 3.81-.2 1.27-.033 2.139.501 2.607.602.2 1.27-.334 2.005-1.604.668-1.337 1.069-2.64 1.203-3.91s-.067-2.139-.602-2.607zm-6.718-.702c-.535.401-.735 1.237-.601 2.507s.568 2.573 1.303 3.91c.668 1.27 1.303 1.805 1.905 1.604.535-.468.735-1.337.602-2.607s-.535-2.54-1.203-3.81c-.735-1.337-1.404-1.872-2.005-1.604zm-2.067.702c-.602-.2-1.237.368-1.905 1.704-.668 1.27-1.07 2.54-1.203 3.81-.2 1.27-.033 2.139.501 2.607.602.2 1.27-.334 2.005-1.604.668-1.337 1.07-2.64 1.203-3.91s-.067-2.139-.602-2.607zm-6.718-.702c-.535.401-.735 1.237-.602 2.507s.568 2.573 1.303 3.91c.668 1.27 1.303 1.805 1.905 1.604.535-.468.735-1.337.602-2.607s-.535-2.54-1.203-3.81c-.735-1.337-1.404-1.872-2.005-1.604zm15.503 7.743c-.602-.2-1.237.368-1.905 1.704-.668 1.27-1.07 2.54-1.203 3.81-.2 1.27-.033 2.139.501 2.607.602.201 1.27-.334 2.005-1.604.668-1.337 1.069-2.64 1.203-3.91s-.067-2.139-.602-2.607zm-6.718-.702c-.535.401-.735 1.237-.601 2.507s.568 2.573 1.303 3.91c.668 1.27 1.303 1.805 1.905 1.604.535-.468.735-1.337.602-2.607s-.535-2.54-1.203-3.81c-.735-1.337-1.404-1.872-2.005-1.604zm-2.067.702c-.602-.2-1.237.368-1.905 1.704-.668 1.27-1.07 2.54-1.203 3.81-.2 1.27-.033 2.139.501 2.607.602.201 1.27-.334 2.005-1.604.668-1.337 1.07-2.64 1.203-3.91s-.067-2.139-.602-2.607zm-6.718-.702c-.535.401-.735 1.237-.602 2.507s.568 2.573 1.303 3.91c.668 1.27 1.303 1.805 1.905 1.604.535-.468.735-1.337.602-2.607s-.535-2.54-1.203-3.81c-.735-1.337-1.404-1.872-2.005-1.604zm-2.066.702c-.602-.2-1.237.368-1.905 1.704-.668 1.27-1.07 2.54-1.203 3.81-.201 1.27-.033 2.139.501 2.607.601.201 1.27-.334 2.005-1.604.669-1.337 1.07-2.64 1.203-3.91s-.067-2.139-.602-2.607zm-6.718-.702c-.535.401-.735 1.237-.602 2.507s.568 2.573 1.303 3.91c.668 1.27 1.303 1.805 1.905 1.604.535-.468.735-1.337.602-2.607s-.535-2.54-1.203-3.81c-.735-1.337-1.404-1.872-2.005-1.604zm-2.067.702c-.601-.2-1.236.368-1.905 1.704-.668 1.27-1.069 2.54-1.203 3.81-.201 1.27-.033 2.139.501 2.607.602.201 1.27-.334 2.005-1.604.668-1.337 1.069-2.64 1.203-3.91s-.067-2.139-.602-2.607zm-6.718-.702c-.535.401-.735 1.237-.602 2.507s.568 2.573 1.303 3.91c.668 1.27 1.303 1.805 1.905 1.604.535-.468.735-1.337.602-2.607s-.535-2.54-1.203-3.81c-.735-1.337-1.404-1.872-2.005-1.604zm33.072 7.743c-.602-.201-1.237.368-1.905 1.704-.668 1.27-1.07 2.54-1.203 3.81-.2 1.27-.033 2.139.501 2.607.602.201 1.27-.334 2.005-1.604.668-1.337 1.069-2.64 1.203-3.91s-.067-2.139-.602-2.607zm-6.718-.702c-.535.401-.735 1.237-.601 2.507s.568 2.574 1.303 3.91c.668 1.27 1.303 1.805 1.905 1.604.535-.468.735-1.337.602-2.607s-.535-2.54-1.203-3.81c-.735-1.337-1.404-1.871-2.005-1.604zm-2.067.702c-.602-.201-1.237.368-1.905 1.704-.668 1.27-1.07 2.54-1.203 3.81-.2 1.27-.033 2.139.501 2.607.602.201 1.27-.334 2.005-1.604.668-1.337 1.07-2.64 1.203-3.91s-.067-2.139-.602-2.607zm-6.718-.702c-.535.401-.735 1.237-.602 2.507s.568 2.574 1.303 3.91c.668 1.27 1.303 1.805 1.905 1.604.535-.468.735-1.337.602-2.607s-.535-2.54-1.203-3.81c-.735-1.337-1.404-1.871-2.005-1.604zm-2.066.702c-.602-.201-1.237.368-1.905 1.704-.668 1.27-1.07 2.54-1.203 3.81-.201 1.27-.033 2.139.501 2.607.601.201 1.27-.334 2.005-1.604.669-1.337 1.07-2.64 1.203-3.91s-.067-2.139-.602-2.607zm-6.718-.702c-.535.401-.735 1.237-.602 2.507s.568 2.574 1.303 3.91c.668 1.27 1.303 1.805 1.905 1.604.535-.468.735-1.337.602-2.607s-.535-2.54-1.203-3.81c-.735-1.337-1.404-1.871-2.005-1.604zm-2.067.702c-.601-.201-1.236.368-1.905 1.704-.668 1.27-1.069 2.54-1.203 3.81-.201 1.27-.033 2.139.501 2.607.602.201 1.27-.334 2.005-1.604.668-1.337 1.069-2.64 1.203-3.91s-.067-2.139-.602-2.607zm-6.718-.702c-.535.401-.735 1.237-.602 2.507s.568 2.574 1.303 3.91c.668 1.27 1.303 1.805 1.905 1.604.535-.468.735-1.337.602-2.607s-.535-2.54-1.203-3.81c-.735-1.337-1.404-1.871-2.005-1.604zm33.072 7.743c-.602-.2-1.237.368-1.905 1.705-.668 1.27-1.07 2.54-1.203 3.81-.2 1.27-.033 2.139.501 2.607.602.201 1.27-.334 2.005-1.604.668-1.337 1.069-2.64 1.203-3.91s-.067-2.139-.602-2.607zm-6.718-.702c-.535.401-.735 1.237-.601 2.507s.568 2.574 1.303 3.91c.668 1.27 1.303 1.805 1.905 1.604.535-.468.735-1.337.602-2.607s-.535-2.54-1.203-3.81c-.735-1.337-1.404-1.872-2.005-1.604zm-2.067.702c-.602-.2-1.237.368-1.905 1.705-.668 1.27-1.07 2.54-1.203 3.81-.2 1.27-.033 2.139.501 2.607.602.201 1.27-.334 2.005-1.604.668-1.337 1.07-2.64 1.203-3.91s-.067-2.139-.602-2.607zm-6.718-.702c-.535.401-.735 1.237-.602 2.507s.568 2.574 1.303 3.91c.668 1.27 1.303 1.805 1.905 1.604.535-.468.735-1.337.602-2.607s-.535-2.54-1.203-3.81c-.735-1.337-1.404-1.872-2.005-1.604zm-10.851.702c-.601-.2-1.236.368-1.905 1.705-.668 1.27-1.069 2.54-1.203 3.81-.201 1.27-.033 2.139.501 2.607.602.201 1.27-.334 2.005-1.604.668-1.337 1.069-2.64 1.203-3.91s-.067-2.139-.602-2.607zm-6.718-.702c-.535.401-.735 1.237-.602 2.507s.568 2.574 1.303 3.91c.668 1.27 1.303 1.805 1.905 1.604.535-.468.735-1.337.602-2.607s-.535-2.54-1.203-3.81c-.735-1.337-1.404-1.872-2.005-1.604zm33.072 7.744c-.602-.2-1.237.368-1.905 1.705-.668 1.27-1.07 2.54-1.203 3.81-.2 1.27-.033 2.139.501 2.607.602.2 1.27-.334 2.005-1.604.668-1.337 1.069-2.64 1.203-3.91s-.067-2.139-.602-2.607zm-6.718-.702c-.535.401-.735 1.237-.601 2.507s.568 2.573 1.303 3.91c.668 1.27 1.303 1.805 1.905 1.604.535-.468.735-1.337.602-2.607s-.535-2.54-1.203-3.81c-.735-1.337-1.404-1.872-2.005-1.604zm-2.067.702c-.602-.2-1.237.368-1.905 1.705-.668 1.27-1.07 2.54-1.203 3.81-.2 1.27-.033 2.139.501 2.607.602.2 1.27-.334 2.005-1.604.668-1.337 1.07-2.64 1.203-3.91s-.067-2.139-.602-2.607zm-6.718-.702c-.535.401-.735 1.237-.602 2.507s.568 2.573 1.303 3.91c.668 1.27 1.303 1.805 1.905 1.604.535-.468.735-1.337.602-2.607s-.535-2.54-1.203-3.81c-.735-1.337-1.404-1.872-2.005-1.604zm-2.066.702c-.602-.2-1.237.368-1.905 1.705-.668 1.27-1.07 2.54-1.203 3.81-.201 1.27-.033 2.139.501 2.607.601.2 1.27-.334 2.005-1.604.669-1.337 1.07-2.64 1.203-3.91s-.067-2.139-.602-2.607zm-6.718-.702c-.535.401-.735 1.237-.602 2.507s.568 2.573 1.303 3.91c.668 1.27 1.303 1.805 1.905 1.604.535-.468.735-1.337.602-2.607s-.535-2.54-1.203-3.81c-.735-1.337-1.404-1.872-2.005-1.604z"/><use xlink:href="#B" y="49.288"/><path d="M33.712 57.098c-.602-.201-1.237.368-1.905 1.704-.668 1.27-1.07 2.54-1.203 3.81-.2 1.27-.033 2.139.501 2.607.602.201 1.27-.334 2.005-1.604.668-1.337 1.07-2.64 1.203-3.91s-.067-2.139-.602-2.607zm-6.718-.702c-.535.401-.735 1.237-.602 2.507s.568 2.573 1.303 3.91c.668 1.27 1.303 1.805 1.905 1.604.535-.468.735-1.337.602-2.607S29.668 59.27 29 58c-.735-1.337-1.404-1.872-2.005-1.604z"/><use xlink:href="#D" y="49.288"/><use xlink:href="#B" y="56.329"/><use xlink:href="#C" y="56.329"/><use xlink:href="#D" y="56.329"/><use xlink:href="#E"/><use xlink:href="#F"/><use xlink:href="#B" y="63.37"/><use xlink:href="#C" y="63.37"/></g><use xlink:href="#D" y="63.37" fill="#f1f1f1"/><g fill="#fff"><use xlink:href="#E" y="7.041"/><use xlink:href="#F" y="7.041"/><use xlink:href="#B" y="70.411"/><use xlink:href="#C" y="70.411"/><use xlink:href="#D" y="70.411"/><use xlink:href="#E" y="14.082"/><use xlink:href="#F" y="14.082"/><use xlink:href="#B" y="77.452"/><use xlink:href="#C" y="77.452"/><use xlink:href="#D" y="77.452"/><use xlink:href="#E" y="21.123"/><path d="M42.497 92.303c-.602-.201-1.237.368-1.905 1.704-.668 1.27-1.07 2.54-1.203 3.81-.2 1.27-.033 2.139.501 2.607.602.2 1.27-.335 2.005-1.605.668-1.337 1.069-2.64 1.203-3.91s-.067-2.139-.602-2.607zm-6.718-.702c-.535.401-.735 1.237-.601 2.507s.568 2.573 1.303 3.91c.668 1.27 1.303 1.805 1.905 1.604.535-.468.735-1.337.602-2.607s-.535-2.54-1.203-3.81c-.735-1.337-1.404-1.872-2.005-1.604zm-2.067.702c-.602-.201-1.237.368-1.905 1.704-.668 1.27-1.07 2.54-1.203 3.81-.2 1.27-.033 2.139.501 2.607.602.2 1.27-.335 2.005-1.605.668-1.337 1.07-2.64 1.203-3.91s-.067-2.139-.602-2.607zm-6.718-.702c-.535.401-.735 1.237-.602 2.507s.568 2.573 1.303 3.91c.668 1.27 1.303 1.805 1.905 1.604.535-.468.735-1.337.602-2.607s-.535-2.54-1.203-3.81c-.735-1.337-1.404-1.872-2.005-1.604zm-2.066.702c-.602-.201-1.237.368-1.905 1.704-.668 1.27-1.07 2.54-1.203 3.81-.201 1.27-.033 2.139.501 2.607.601.2 1.27-.335 2.005-1.605.669-1.337 1.07-2.64 1.203-3.91s-.067-2.139-.602-2.607zm-6.718-.702c-.535.401-.735 1.237-.602 2.507s.568 2.573 1.303 3.91c.668 1.27 1.303 1.805 1.905 1.604.535-.468.735-1.337.602-2.607s-.535-2.54-1.203-3.81c-.735-1.337-1.404-1.872-2.005-1.604zm-2.067.702c-.601-.201-1.236.368-1.905 1.704-.668 1.27-1.069 2.54-1.203 3.81-.201 1.27-.033 2.139.501 2.607.602.2 1.27-.335 2.005-1.605.668-1.337 1.069-2.64 1.203-3.91s-.067-2.139-.602-2.607zm-6.718-.702c-.535.401-.735 1.237-.602 2.507s.568 2.573 1.303 3.91c.668 1.27 1.303 1.805 1.905 1.604.535-.468.735-1.337.602-2.607s-.535-2.54-1.203-3.81c-.735-1.337-1.404-1.872-2.005-1.604zm-2.066.702c-.602-.201-1.237.368-1.905 1.704-.668 1.27-1.069 2.54-1.203 3.81-.201 1.27-.033 2.139.501 2.607.602.2 1.27-.335 2.005-1.605.668-1.337 1.069-2.64 1.203-3.91s-.067-2.139-.602-2.607zm-6.718-.702c-.535.401-.735 1.237-.602 2.507s.568 2.573 1.303 3.91c.668 1.27 1.303 1.805 1.905 1.604.535-.468.735-1.337.602-2.607s-.535-2.54-1.203-3.81c-.735-1.337-1.404-1.872-2.005-1.604zm41.856 7.743c-.602-.2-1.237.368-1.905 1.705-.668 1.27-1.07 2.54-1.203 3.81-.2 1.27-.033 2.139.501 2.607.602.2 1.27-.334 2.005-1.604.668-1.337 1.069-2.641 1.203-3.911s-.067-2.139-.602-2.607zm-6.718-.702c-.535.401-.735 1.237-.601 2.506s.568 2.574 1.303 3.91c.668 1.27 1.303 1.805 1.905 1.605.535-.468.735-1.337.602-2.607s-.535-2.54-1.203-3.81c-.735-1.337-1.404-1.872-2.005-1.604zm-2.067.702c-.602-.2-1.237.368-1.905 1.705-.668 1.27-1.07 2.54-1.203 3.81-.2 1.27-.033 2.139.501 2.607.602.2 1.27-.334 2.005-1.604.668-1.337 1.07-2.641 1.203-3.911s-.067-2.139-.602-2.607zm-6.718-.702c-.535.401-.735 1.237-.602 2.506s.568 2.574 1.303 3.91c.668 1.27 1.303 1.805 1.905 1.605.535-.468.735-1.337.602-2.607s-.535-2.54-1.203-3.81c-.735-1.337-1.404-1.872-2.005-1.604zm-2.066.702c-.602-.2-1.237.368-1.905 1.705-.668 1.27-1.07 2.54-1.203 3.81-.201 1.27-.033 2.139.501 2.607.601.2 1.27-.334 2.005-1.604.669-1.337 1.07-2.641 1.203-3.911s-.067-2.139-.602-2.607zm-6.718-.702c-.535.401-.735 1.237-.602 2.506s.568 2.574 1.303 3.91c.668 1.27 1.303 1.805 1.905 1.605.535-.468.735-1.337.602-2.607s-.535-2.54-1.203-3.81c-.735-1.337-1.404-1.872-2.005-1.604zm-2.067.702c-.601-.2-1.236.368-1.905 1.705-.668 1.27-1.069 2.54-1.203 3.81-.201 1.27-.033 2.139.501 2.607.602.2 1.27-.334 2.005-1.604.668-1.337 1.069-2.641 1.203-3.911s-.067-2.139-.602-2.607zm-6.718-.702c-.535.401-.735 1.237-.602 2.506s.568 2.574 1.303 3.91c.668 1.27 1.303 1.805 1.905 1.605.535-.468.735-1.337.602-2.607s-.535-2.54-1.203-3.81c-.735-1.337-1.404-1.872-2.005-1.604z"/><use xlink:href="#G"/><use xlink:href="#H"/><path d="M24.928 106.386c-.602-.201-1.237.367-1.905 1.704-.668 1.27-1.07 2.54-1.203 3.81-.201 1.27-.033 2.139.501 2.607.601.2 1.27-.334 2.005-1.604.669-1.337 1.07-2.641 1.203-3.911s-.067-2.139-.602-2.606zm-6.718-.702c-.535.401-.735 1.236-.602 2.506s.568 2.574 1.303 3.911c.668 1.27 1.303 1.804 1.905 1.604.535-.468.735-1.337.602-2.607s-.535-2.54-1.203-3.81c-.735-1.337-1.404-1.872-2.005-1.604z"/><use xlink:href="#I"/><use xlink:href="#G" y="7.041"/><use xlink:href="#H" y="7.041"/><use xlink:href="#I" y="7.041"/><path d="M42.497 120.468c-.602-.201-1.237.367-1.905 1.704-.668 1.27-1.07 2.54-1.203 3.81-.2 1.27-.033 2.139.501 2.607.602.201 1.27-.334 2.005-1.604.668-1.337 1.069-2.64 1.203-3.91s-.067-2.139-.602-2.607zm-6.718-.702c-.535.401-.735 1.236-.601 2.506s.568 2.574 1.303 3.911c.668 1.27 1.303 1.804 1.905 1.604.535-.468.735-1.337.602-2.607s-.535-2.54-1.203-3.81c-.735-1.337-1.404-1.871-2.005-1.604zm-2.067.702c-.602-.201-1.237.367-1.905 1.704-.668 1.27-1.07 2.54-1.203 3.81-.2 1.27-.033 2.139.501 2.607.602.201 1.27-.334 2.005-1.604.668-1.337 1.07-2.64 1.203-3.91s-.067-2.139-.602-2.607zm-6.718-.702c-.535.401-.735 1.236-.602 2.506s.568 2.574 1.303 3.911c.668 1.27 1.303 1.804 1.905 1.604.535-.468.735-1.337.602-2.607s-.535-2.54-1.203-3.81c-.735-1.337-1.404-1.871-2.005-1.604zm-2.066.702c-.602-.201-1.237.367-1.905 1.704-.668 1.27-1.07 2.54-1.203 3.81-.201 1.27-.033 2.139.501 2.607.601.201 1.27-.334 2.005-1.604.669-1.337 1.07-2.64 1.203-3.91s-.067-2.139-.602-2.607zm-6.718-.702c-.535.401-.735 1.236-.602 2.506s.568 2.574 1.303 3.911c.668 1.27 1.303 1.804 1.905 1.604.535-.468.735-1.337.602-2.607s-.535-2.54-1.203-3.81c-.735-1.337-1.404-1.871-2.005-1.604zm24.287 7.743c-.602-.201-1.237.367-1.905 1.704-.668 1.27-1.07 2.54-1.203 3.81-.2 1.27-.033 2.139.501 2.607.602.201 1.27-.334 2.005-1.604.668-1.337 1.069-2.64 1.203-3.91s-.067-2.139-.602-2.607zm-6.718-.702c-.535.401-.735 1.236-.601 2.506s.568 2.574 1.303 3.911c.668 1.27 1.303 1.805 1.905 1.604.535-.468.735-1.337.602-2.607s-.535-2.54-1.203-3.81c-.735-1.337-1.404-1.871-2.005-1.604zm-10.851.702c-.602-.201-1.237.367-1.905 1.704-.668 1.27-1.07 2.54-1.203 3.81-.201 1.27-.033 2.139.501 2.607.601.201 1.27-.334 2.005-1.604.669-1.337 1.07-2.64 1.203-3.91s-.067-2.139-.602-2.607zm-6.718-.702c-.535.401-.735 1.236-.602 2.506s.568 2.574 1.303 3.911c.668 1.27 1.303 1.805 1.905 1.604.535-.468.735-1.337.602-2.607s-.535-2.54-1.203-3.81c-.735-1.337-1.404-1.871-2.005-1.604zm24.287 7.743c-.602-.201-1.237.368-1.905 1.704-.668 1.27-1.07 2.54-1.203 3.81-.2 1.27-.033 2.139.501 2.607.602.201 1.27-.334 2.005-1.604.668-1.337 1.069-2.64 1.203-3.91s-.067-2.139-.602-2.607zm-6.718-.702c-.535.401-.735 1.237-.601 2.507s.568 2.573 1.303 3.91c.668 1.27 1.303 1.805 1.905 1.604.535-.468.735-1.337.602-2.607s-.535-2.54-1.203-3.81c-.735-1.337-1.404-1.871-2.005-1.604z"/></g><defs ><path id="B" d="M42.497 7.81c-.602-.201-1.237.368-1.905 1.704-.668 1.27-1.07 2.54-1.203 3.81-.2 1.27-.033 2.139.501 2.607.602.201 1.27-.334 2.005-1.604.668-1.337 1.069-2.64 1.203-3.91s-.067-2.139-.602-2.607zm-6.718-.702c-.535.401-.735 1.237-.601 2.507s.568 2.573 1.303 3.91c.668 1.27 1.303 1.805 1.905 1.604.535-.468.735-1.337.602-2.607s-.535-2.54-1.203-3.81c-.735-1.337-1.404-1.872-2.005-1.604z"/><path id="C" d="M33.712 7.81c-.602-.201-1.237.368-1.905 1.704-.668 1.27-1.07 2.54-1.203 3.81-.2 1.27-.033 2.139.501 2.607.602.201 1.27-.334 2.005-1.604.668-1.337 1.07-2.64 1.203-3.91s-.067-2.139-.602-2.607zm-6.718-.702c-.535.401-.735 1.237-.602 2.507s.568 2.573 1.303 3.91c.668 1.27 1.303 1.805 1.905 1.604.535-.468.735-1.337.602-2.607s-.535-2.54-1.203-3.81c-.735-1.337-1.404-1.872-2.005-1.604z"/><path id="D" d="M24.928 7.81c-.602-.201-1.237.368-1.905 1.704-.668 1.27-1.07 2.54-1.203 3.81-.201 1.27-.033 2.139.501 2.607.601.201 1.27-.334 2.005-1.604.669-1.337 1.07-2.64 1.203-3.91s-.067-2.139-.602-2.607zm-6.718-.702c-.535.401-.735 1.237-.602 2.507s.568 2.573 1.303 3.91c.668 1.27 1.303 1.805 1.905 1.604.535-.468.735-1.337.602-2.607s-.535-2.54-1.203-3.81c-.735-1.337-1.404-1.872-2.005-1.604z"/><path id="E" d="M16.143 64.139c-.601-.201-1.236.368-1.905 1.704-.668 1.27-1.069 2.54-1.203 3.81-.201 1.27-.033 2.139.501 2.607.602.201 1.27-.334 2.005-1.604.668-1.337 1.069-2.64 1.203-3.91s-.067-2.139-.602-2.607zm-6.718-.702c-.535.401-.735 1.237-.602 2.507s.568 2.573 1.303 3.91c.668 1.27 1.303 1.805 1.905 1.604.535-.468.735-1.337.602-2.607s-.535-2.54-1.203-3.81c-.735-1.337-1.404-1.872-2.005-1.604z"/><path id="F" d="M7.359 64.139c-.602-.201-1.237.368-1.905 1.704-.668 1.27-1.069 2.54-1.203 3.81-.201 1.27-.033 2.139.501 2.607.602.201 1.27-.334 2.005-1.604.668-1.337 1.069-2.64 1.203-3.91s-.067-2.139-.602-2.607zm-6.718-.702c-.535.401-.735 1.237-.602 2.507s.568 2.573 1.303 3.91c.668 1.27 1.303 1.805 1.905 1.604.535-.468.735-1.337.602-2.607s-.535-2.54-1.203-3.81c-.735-1.337-1.404-1.872-2.005-1.604z"/><path id="G" d="M42.497 106.386c-.602-.201-1.237.367-1.905 1.704-.668 1.27-1.07 2.54-1.203 3.81-.2 1.27-.033 2.139.501 2.607.602.2 1.27-.334 2.005-1.604.668-1.337 1.069-2.641 1.203-3.911s-.067-2.139-.602-2.606zm-6.718-.702c-.535.401-.735 1.236-.601 2.506s.568 2.574 1.303 3.911c.668 1.27 1.303 1.804 1.905 1.604.535-.468.735-1.337.602-2.607s-.535-2.54-1.203-3.81c-.735-1.337-1.404-1.872-2.005-1.604z"/><path id="H" d="M33.712 106.386c-.602-.201-1.237.367-1.905 1.704-.668 1.27-1.07 2.54-1.203 3.81-.2 1.27-.033 2.139.501 2.607.602.2 1.27-.334 2.005-1.604.668-1.337 1.07-2.641 1.203-3.911s-.067-2.139-.602-2.606zm-6.718-.702c-.535.401-.735 1.236-.602 2.506s.568 2.574 1.303 3.911c.668 1.27 1.303 1.804 1.905 1.604.535-.468.735-1.337.602-2.607s-.535-2.54-1.203-3.81c-.735-1.337-1.404-1.872-2.005-1.604z"/><path id="I" d="M16.143 106.386c-.601-.201-1.236.367-1.905 1.704-.668 1.27-1.069 2.54-1.203 3.81-.201 1.27-.033 2.139.501 2.607.602.2 1.27-.334 2.005-1.604.668-1.337 1.069-2.641 1.203-3.911s-.067-2.139-.602-2.606zm-6.718-.702c-.535.401-.735 1.236-.602 2.506s.568 2.574 1.303 3.911c.668 1.27 1.303 1.804 1.905 1.604.535-.468.735-1.337.602-2.607s-.535-2.54-1.203-3.81c-.735-1.337-1.404-1.872-2.005-1.604z"/></defs></svg>