<svg xmlns="http://www.w3.org/2000/svg" xmlns:xlink="http://www.w3.org/1999/xlink" width="44" height="143" fill="none" xmlns:v="https://vecta.io/nano"><g fill="#fff"><path d="M.642.769c.602-.201 1.237.368 1.905 1.704.668 1.27 1.069 2.54 1.203 3.81.201 1.27.033 2.139-.501 2.607-.602.201-1.27-.334-2.005-1.604C.575 5.949.174 4.646.04 3.376S.107 1.237.642.769zM7.359.067c.535.401.735 1.237.602 2.507s-.568 2.573-1.303 3.91c-.668 1.27-1.303 1.805-1.905 1.604-.535-.468-.735-1.337-.602-2.607s.535-2.54 1.203-3.81C6.089.334 6.758-.201 7.359.067zM.642 7.81c.602-.201 1.237.368 1.905 1.704.668 1.27 1.069 2.54 1.203 3.81.201 1.27.033 2.139-.501 2.607-.602.201-1.27-.334-2.005-1.604-.669-1.337-1.07-2.64-1.204-3.91S.107 8.278.642 7.81zm6.718-.702c.535.401.735 1.237.602 2.507s-.568 2.573-1.303 3.91c-.668 1.27-1.303 1.805-1.905 1.604-.535-.468-.735-1.337-.602-2.607s.535-2.54 1.203-3.81C6.09 7.375 6.759 6.84 7.36 7.108z"/><use xlink:href="#B"/></g><use xlink:href="#C" fill="#f1f1f1"/><g fill="#fff"><path d="M.642 14.851c.602-.201 1.237.368 1.905 1.704.668 1.27 1.069 2.54 1.203 3.81.201 1.27.033 2.139-.501 2.607-.602.2-1.27-.334-2.005-1.604-.668-1.337-1.069-2.64-1.203-3.91s.067-2.139.602-2.607zm6.718-.702c.535.401.735 1.237.602 2.507s-.568 2.573-1.303 3.91c-.668 1.27-1.303 1.805-1.905 1.604-.535-.468-.735-1.337-.602-2.607s.535-2.54 1.203-3.81c.735-1.337 1.404-1.872 2.005-1.604zm2.066.702c.602-.201 1.237.368 1.905 1.704.668 1.27 1.069 2.54 1.203 3.81.2 1.27.033 2.139-.501 2.607-.601.2-1.27-.334-2.005-1.604-.668-1.337-1.07-2.64-1.203-3.91s.067-2.139.602-2.607zm6.718-.702c.535.401.735 1.237.602 2.507s-.568 2.573-1.303 3.91c-.668 1.27-1.303 1.805-1.905 1.604-.535-.468-.735-1.337-.602-2.607s.535-2.54 1.203-3.81c.735-1.337 1.404-1.872 2.005-1.604zm2.066.702c.602-.201 1.237.368 1.905 1.704.668 1.27 1.069 2.54 1.203 3.81.201 1.27.034 2.139-.501 2.607-.602.2-1.27-.334-2.005-1.604-.669-1.337-1.07-2.64-1.203-3.91s.067-2.139.602-2.607zm6.718-.702c.535.401.735 1.237.602 2.507s-.568 2.573-1.303 3.91c-.668 1.27-1.303 1.805-1.905 1.604-.535-.468-.735-1.337-.602-2.607s.535-2.54 1.203-3.81c.735-1.337 1.404-1.872 2.005-1.604zM.642 21.892c.602-.2 1.237.368 1.905 1.704.668 1.27 1.069 2.54 1.203 3.81.201 1.27.033 2.139-.501 2.607-.602.2-1.27-.334-2.005-1.604-.668-1.337-1.069-2.64-1.203-3.91s.067-2.139.602-2.607zm6.718-.702c.535.401.735 1.237.602 2.507s-.568 2.573-1.303 3.91c-.668 1.27-1.303 1.805-1.905 1.604-.535-.468-.735-1.337-.602-2.607s.535-2.54 1.203-3.81c.735-1.337 1.404-1.872 2.005-1.604zm2.066.702c.602-.2 1.237.368 1.905 1.704.668 1.27 1.069 2.54 1.203 3.81.2 1.27.033 2.139-.501 2.607-.601.2-1.27-.334-2.005-1.604-.668-1.337-1.07-2.64-1.203-3.91s.067-2.139.602-2.607zm6.718-.702c.535.401.735 1.237.602 2.507s-.568 2.573-1.303 3.91c-.668 1.27-1.303 1.805-1.905 1.604-.535-.468-.735-1.337-.602-2.607s.535-2.54 1.203-3.81c.735-1.337 1.404-1.872 2.005-1.604zM.642 28.933c.602-.2 1.237.368 1.905 1.704.668 1.27 1.069 2.54 1.203 3.81.201 1.27.033 2.139-.501 2.607-.602.201-1.27-.334-2.005-1.604C.575 34.114.174 32.81.04 31.54s.067-2.139.602-2.607zm6.718-.702c.535.401.735 1.237.602 2.507s-.568 2.573-1.303 3.91c-.668 1.27-1.303 1.805-1.905 1.604-.535-.468-.735-1.337-.602-2.607s.535-2.54 1.203-3.81c.735-1.337 1.404-1.872 2.005-1.604zm2.066.702c.602-.2 1.237.368 1.905 1.704.668 1.27 1.069 2.54 1.203 3.81.2 1.27.033 2.139-.501 2.607-.601.201-1.27-.334-2.005-1.604-.668-1.337-1.07-2.64-1.203-3.91s.067-2.139.602-2.607zm6.718-.702c.535.401.735 1.237.602 2.507s-.568 2.573-1.303 3.91c-.668 1.27-1.303 1.805-1.905 1.604-.535-.468-.735-1.337-.602-2.607s.535-2.54 1.203-3.81c.735-1.337 1.404-1.872 2.005-1.604zm2.066.702c.602-.2 1.237.368 1.905 1.704.668 1.27 1.069 2.54 1.203 3.81.201 1.27.034 2.139-.501 2.607-.602.201-1.27-.334-2.005-1.604-.669-1.337-1.07-2.64-1.203-3.91s.067-2.139.602-2.607zm6.718-.702c.535.401.735 1.237.602 2.507s-.568 2.573-1.303 3.91c-.668 1.27-1.303 1.805-1.905 1.604-.535-.468-.735-1.337-.602-2.607s.535-2.54 1.203-3.81c.735-1.337 1.404-1.872 2.005-1.604zm2.067.702c.602-.2 1.237.368 1.905 1.704.669 1.27 1.07 2.54 1.203 3.81.2 1.27.033 2.139-.501 2.607-.602.201-1.27-.334-2.005-1.604-.668-1.337-1.069-2.64-1.203-3.91s.067-2.139.602-2.607zm6.718-.702c.535.401.735 1.237.602 2.507s-.568 2.573-1.303 3.91c-.669 1.27-1.303 1.805-1.905 1.604-.535-.468-.735-1.337-.601-2.607s.535-2.54 1.203-3.81c.735-1.337 1.404-1.872 2.005-1.604zM.642 35.974c.602-.201 1.237.368 1.905 1.704.668 1.27 1.069 2.54 1.203 3.81.201 1.27.033 2.139-.501 2.607-.602.201-1.27-.334-2.005-1.604-.668-1.337-1.069-2.64-1.203-3.91s.067-2.139.602-2.607zm6.718-.702c.535.401.735 1.237.602 2.507s-.568 2.574-1.303 3.91c-.668 1.27-1.303 1.805-1.905 1.604-.535-.468-.735-1.337-.602-2.607s.535-2.54 1.203-3.81c.735-1.337 1.404-1.871 2.005-1.604zm2.066.702c.602-.201 1.237.368 1.905 1.704.668 1.27 1.069 2.54 1.203 3.81.2 1.27.033 2.139-.501 2.607-.601.201-1.27-.334-2.005-1.604-.668-1.337-1.07-2.64-1.203-3.91s.067-2.139.602-2.607zm6.718-.702c.535.401.735 1.237.602 2.507s-.568 2.574-1.303 3.91c-.668 1.27-1.303 1.805-1.905 1.604-.535-.468-.735-1.337-.602-2.607s.535-2.54 1.203-3.81c.735-1.337 1.404-1.871 2.005-1.604zm2.066.702c.602-.201 1.237.368 1.905 1.704.668 1.27 1.069 2.54 1.203 3.81.201 1.27.034 2.139-.501 2.607-.602.201-1.27-.334-2.005-1.604-.669-1.337-1.07-2.64-1.203-3.91s.067-2.139.602-2.607zm6.718-.702c.535.401.735 1.237.602 2.507s-.568 2.574-1.303 3.91c-.668 1.27-1.303 1.805-1.905 1.604-.535-.468-.735-1.337-.602-2.607s.535-2.54 1.203-3.81c.735-1.337 1.404-1.871 2.005-1.604zm2.067.702c.602-.201 1.237.368 1.905 1.704.669 1.27 1.07 2.54 1.203 3.81.2 1.27.033 2.139-.501 2.607-.602.201-1.27-.334-2.005-1.604-.668-1.337-1.069-2.64-1.203-3.91s.067-2.139.602-2.607zm6.718-.702c.535.401.735 1.237.602 2.507s-.568 2.574-1.303 3.91c-.669 1.27-1.303 1.805-1.905 1.604-.535-.468-.735-1.337-.601-2.607s.535-2.54 1.203-3.81c.735-1.337 1.404-1.871 2.005-1.604zM.642 43.015c.602-.2 1.237.368 1.905 1.705.668 1.27 1.069 2.54 1.203 3.81.201 1.27.033 2.139-.501 2.607-.602.201-1.27-.334-2.005-1.604-.668-1.337-1.069-2.64-1.203-3.91s.067-2.139.602-2.607zm6.718-.702c.535.401.735 1.237.602 2.507s-.568 2.574-1.303 3.91c-.668 1.27-1.303 1.805-1.905 1.604-.535-.468-.735-1.337-.602-2.607s.535-2.54 1.203-3.81c.735-1.337 1.404-1.872 2.005-1.604zm2.066.702c.602-.2 1.237.368 1.905 1.705.668 1.27 1.069 2.54 1.203 3.81.2 1.27.033 2.139-.501 2.607-.601.201-1.27-.334-2.005-1.604-.668-1.337-1.07-2.64-1.203-3.91s.067-2.139.602-2.607zm6.718-.702c.535.401.735 1.237.602 2.507s-.568 2.574-1.303 3.91c-.668 1.27-1.303 1.805-1.905 1.604-.535-.468-.735-1.337-.602-2.607s.535-2.54 1.203-3.81c.735-1.337 1.404-1.872 2.005-1.604zm10.851.702c.602-.2 1.237.368 1.905 1.705.669 1.27 1.07 2.54 1.203 3.81.2 1.27.033 2.139-.501 2.607-.602.201-1.27-.334-2.005-1.604-.668-1.337-1.069-2.64-1.203-3.91s.067-2.139.602-2.607zm6.718-.702c.535.401.735 1.237.602 2.507s-.568 2.574-1.303 3.91c-.669 1.27-1.303 1.805-1.905 1.604-.535-.468-.735-1.337-.601-2.607s.535-2.54 1.203-3.81c.735-1.337 1.404-1.872 2.005-1.604zM.642 50.057c.602-.2 1.237.368 1.905 1.705.668 1.27 1.069 2.54 1.203 3.81.201 1.27.033 2.139-.501 2.607-.602.2-1.27-.334-2.005-1.604-.668-1.337-1.069-2.64-1.203-3.91s.067-2.139.602-2.607zm6.718-.702c.535.401.735 1.237.602 2.507s-.568 2.573-1.303 3.91c-.668 1.27-1.303 1.805-1.905 1.604-.535-.468-.735-1.337-.602-2.607s.535-2.54 1.203-3.81c.735-1.337 1.404-1.872 2.005-1.604zm2.066.702c.602-.2 1.237.368 1.905 1.705.668 1.27 1.069 2.54 1.203 3.81.2 1.27.033 2.139-.501 2.607-.601.2-1.27-.334-2.005-1.604-.668-1.337-1.07-2.64-1.203-3.91s.067-2.139.602-2.607zm6.718-.702c.535.401.735 1.237.602 2.507s-.568 2.573-1.303 3.91c-.668 1.27-1.303 1.805-1.905 1.604-.535-.468-.735-1.337-.602-2.607s.535-2.54 1.203-3.81c.735-1.337 1.404-1.872 2.005-1.604zm2.066.702c.602-.2 1.237.368 1.905 1.705.668 1.27 1.069 2.54 1.203 3.81.201 1.27.034 2.139-.501 2.607-.602.2-1.27-.334-2.005-1.604-.669-1.337-1.07-2.64-1.203-3.91s.067-2.139.602-2.607zm6.718-.702c.535.401.735 1.237.602 2.507s-.568 2.573-1.303 3.91c-.668 1.27-1.303 1.805-1.905 1.604-.535-.468-.735-1.337-.602-2.607s.535-2.54 1.203-3.81c.735-1.337 1.404-1.872 2.005-1.604z"/><use xlink:href="#D"/><use xlink:href="#B" y="49.288"/><use xlink:href="#C" y="49.288"/><use xlink:href="#D" y="7.041"/><use xlink:href="#B" y="56.329"/><use xlink:href="#C" y="56.329"/><use xlink:href="#E"/><use xlink:href="#F"/><path d="M.642 71.18c.602-.201 1.237.368 1.905 1.704.668 1.27 1.069 2.54 1.203 3.81.201 1.27.033 2.139-.501 2.607-.602.201-1.27-.334-2.005-1.604C.575 76.36.174 75.057.04 73.787s.067-2.139.602-2.607zm6.718-.702c.535.401.735 1.237.602 2.507s-.568 2.573-1.303 3.91c-.668 1.27-1.303 1.805-1.905 1.604-.535-.468-.735-1.337-.602-2.607s.535-2.54 1.203-3.81c.735-1.337 1.404-1.872 2.005-1.604z"/><use xlink:href="#B" y="63.37"/></g><use xlink:href="#C" y="63.37" fill="#f1f1f1"/><g fill="#fff"><use xlink:href="#E" y="7.041"/><use xlink:href="#F" y="7.041"/><use xlink:href="#D" y="21.123"/><use xlink:href="#B" y="70.411"/><use xlink:href="#C" y="70.411"/><use xlink:href="#E" y="14.082"/><use xlink:href="#F" y="14.082"/><use xlink:href="#D" y="28.164"/><use xlink:href="#B" y="77.452"/><use xlink:href="#C" y="77.452"/><use xlink:href="#E" y="21.123"/><path d="M.642 92.303c.602-.201 1.237.368 1.905 1.704.668 1.27 1.069 2.54 1.203 3.81.201 1.27.033 2.139-.501 2.607-.602.2-1.27-.335-2.005-1.605C.575 97.484.174 96.18.04 94.91s.067-2.139.602-2.607zm6.718-.702c.535.401.735 1.237.602 2.507s-.568 2.573-1.303 3.91c-.668 1.27-1.303 1.805-1.905 1.604-.535-.468-.735-1.337-.602-2.607s.535-2.54 1.203-3.81c.735-1.337 1.404-1.872 2.005-1.604zm2.066.702c.602-.201 1.237.368 1.905 1.704.668 1.27 1.069 2.54 1.203 3.81.2 1.27.033 2.139-.501 2.607-.601.2-1.27-.335-2.005-1.605-.668-1.337-1.07-2.64-1.203-3.91s.067-2.139.602-2.607zm6.718-.702c.535.401.735 1.237.602 2.507s-.568 2.573-1.303 3.91c-.668 1.27-1.303 1.805-1.905 1.604-.535-.468-.735-1.337-.602-2.607s.535-2.54 1.203-3.81c.735-1.337 1.404-1.872 2.005-1.604zm2.066.702c.602-.201 1.237.368 1.905 1.704.668 1.27 1.069 2.54 1.203 3.81.201 1.27.034 2.139-.501 2.607-.602.2-1.27-.335-2.005-1.605-.669-1.337-1.07-2.64-1.203-3.91s.067-2.139.602-2.607zm6.718-.702c.535.401.735 1.237.602 2.507s-.568 2.573-1.303 3.91c-.668 1.27-1.303 1.805-1.905 1.604-.535-.468-.735-1.337-.602-2.607s.535-2.54 1.203-3.81c.735-1.337 1.404-1.872 2.005-1.604zm2.067.702c.602-.201 1.237.368 1.905 1.704.669 1.27 1.07 2.54 1.203 3.81.2 1.27.033 2.139-.501 2.607-.602.2-1.27-.335-2.005-1.605-.668-1.337-1.069-2.64-1.203-3.91s.067-2.139.602-2.607zm6.718-.702c.535.401.735 1.237.602 2.507s-.568 2.573-1.303 3.91c-.669 1.27-1.303 1.805-1.905 1.604-.535-.468-.735-1.337-.601-2.607s.535-2.54 1.203-3.81c.735-1.337 1.404-1.872 2.005-1.604zm2.066.702c.602-.201 1.237.368 1.905 1.704.668 1.27 1.07 2.54 1.203 3.81.201 1.27.034 2.139-.501 2.607-.602.2-1.27-.335-2.005-1.605-.669-1.337-1.07-2.64-1.203-3.91s.067-2.139.602-2.607zm6.718-.702c.535.401.735 1.237.602 2.507s-.568 2.573-1.303 3.91c-.668 1.27-1.303 1.805-1.905 1.604-.535-.468-.735-1.337-.602-2.607s.535-2.54 1.203-3.81c.735-1.337 1.404-1.872 2.005-1.604zM.642 99.344c.602-.201 1.237.368 1.905 1.705.668 1.27 1.069 2.54 1.203 3.81.201 1.27.033 2.139-.501 2.607-.602.2-1.27-.334-2.005-1.604-.668-1.337-1.069-2.641-1.203-3.911s.067-2.139.602-2.607zm6.718-.702c.535.401.735 1.237.602 2.507s-.568 2.574-1.303 3.91c-.668 1.27-1.303 1.805-1.905 1.605-.535-.468-.735-1.337-.602-2.607s.535-2.54 1.203-3.81c.735-1.337 1.404-1.872 2.005-1.605zm2.066.702c.602-.201 1.237.368 1.905 1.705.668 1.27 1.069 2.54 1.203 3.81.2 1.27.033 2.139-.501 2.607-.601.2-1.27-.334-2.005-1.604-.668-1.337-1.07-2.641-1.203-3.911s.067-2.139.602-2.607zm6.718-.702c.535.401.735 1.237.602 2.507s-.568 2.574-1.303 3.91c-.668 1.27-1.303 1.805-1.905 1.605-.535-.468-.735-1.337-.602-2.607s.535-2.54 1.203-3.81c.735-1.337 1.404-1.872 2.005-1.605zm2.066.702c.602-.201 1.237.368 1.905 1.705.668 1.27 1.069 2.54 1.203 3.81.201 1.27.034 2.139-.501 2.607-.602.2-1.27-.334-2.005-1.604-.669-1.337-1.07-2.641-1.203-3.911s.067-2.139.602-2.607zm6.718-.702c.535.401.735 1.237.602 2.507s-.568 2.574-1.303 3.91c-.668 1.27-1.303 1.805-1.905 1.605-.535-.468-.735-1.337-.602-2.607s.535-2.54 1.203-3.81c.735-1.337 1.404-1.872 2.005-1.605zm2.067.702c.602-.201 1.237.368 1.905 1.705.669 1.27 1.07 2.54 1.203 3.81.2 1.27.033 2.139-.501 2.607-.602.2-1.27-.334-2.005-1.604-.668-1.337-1.069-2.641-1.203-3.911s.067-2.139.602-2.607zm6.718-.702c.535.401.735 1.237.602 2.507s-.568 2.574-1.303 3.91c-.669 1.27-1.303 1.805-1.905 1.605-.535-.468-.735-1.337-.601-2.607s.535-2.54 1.203-3.81c.735-1.337 1.404-1.872 2.005-1.605zM.642 106.386c.602-.201 1.237.367 1.905 1.704.668 1.27 1.069 2.54 1.203 3.81.201 1.27.033 2.139-.501 2.607-.602.2-1.27-.334-2.005-1.604-.668-1.337-1.069-2.641-1.203-3.911s.067-2.139.602-2.606zm6.718-.702c.535.401.735 1.236.602 2.506s-.568 2.574-1.303 3.911c-.668 1.27-1.303 1.804-1.905 1.604-.535-.468-.735-1.337-.602-2.607s.535-2.54 1.203-3.81c.735-1.337 1.404-1.872 2.005-1.604zm2.066.702c.602-.201 1.237.367 1.905 1.704.668 1.27 1.069 2.54 1.203 3.81.2 1.27.033 2.139-.501 2.607-.601.2-1.27-.334-2.005-1.604-.668-1.337-1.07-2.641-1.203-3.911s.067-2.139.602-2.606zm6.718-.702c.535.401.735 1.236.602 2.506s-.568 2.574-1.303 3.911c-.668 1.27-1.303 1.804-1.905 1.604-.535-.468-.735-1.337-.602-2.607s.535-2.54 1.203-3.81c.735-1.337 1.404-1.872 2.005-1.604zm2.066.702c.602-.201 1.237.367 1.905 1.704.668 1.27 1.069 2.54 1.203 3.81.201 1.27.034 2.139-.501 2.607-.602.2-1.27-.334-2.005-1.604-.669-1.337-1.07-2.641-1.203-3.911s.067-2.139.602-2.606zm6.718-.702c.535.401.735 1.236.602 2.506s-.568 2.574-1.303 3.911c-.668 1.27-1.303 1.804-1.905 1.604-.535-.468-.735-1.337-.602-2.607s.535-2.54 1.203-3.81c.735-1.337 1.404-1.872 2.005-1.604zm2.067.702c.602-.201 1.237.367 1.905 1.704.669 1.27 1.07 2.54 1.203 3.81.2 1.27.033 2.139-.501 2.607-.602.2-1.27-.334-2.005-1.604-.668-1.337-1.069-2.641-1.203-3.911s.067-2.139.602-2.606zm6.718-.702c.535.401.735 1.236.602 2.506s-.568 2.574-1.303 3.911c-.669 1.27-1.303 1.804-1.905 1.604-.535-.468-.735-1.337-.601-2.607s.535-2.54 1.203-3.81c.735-1.337 1.404-1.872 2.005-1.604z"/><use xlink:href="#G"/><use xlink:href="#H"/><path d="M26.995 113.427c.602-.201 1.237.367 1.905 1.704.669 1.27 1.07 2.54 1.203 3.81.2 1.27.033 2.139-.501 2.607-.602.201-1.27-.334-2.005-1.604-.668-1.337-1.069-2.64-1.203-3.91s.067-2.139.602-2.607zm6.718-.702c.535.401.735 1.236.602 2.506s-.568 2.574-1.303 3.911c-.669 1.27-1.303 1.804-1.905 1.604-.535-.468-.735-1.337-.601-2.607s.535-2.54 1.203-3.81c.735-1.337 1.404-1.872 2.005-1.604z"/><use xlink:href="#G" y="7.041"/><use xlink:href="#H" y="7.041"/><use xlink:href="#I"/><use xlink:href="#G" y="14.082"/><use xlink:href="#I" y="7.041"/><path d="M.642 134.55c.602-.201 1.237.368 1.905 1.704.668 1.27 1.069 2.54 1.203 3.81.201 1.27.033 2.139-.501 2.607-.602.201-1.27-.334-2.005-1.604-.668-1.337-1.069-2.64-1.203-3.91s.067-2.139.602-2.607zm6.718-.702c.535.401.735 1.237.602 2.507s-.568 2.573-1.303 3.91c-.668 1.27-1.303 1.805-1.905 1.604-.535-.468-.735-1.337-.602-2.607s.535-2.54 1.203-3.81c.735-1.337 1.404-1.871 2.005-1.604z"/></g><defs ><path id="B" d="M9.426 7.81c.602-.201 1.237.368 1.905 1.704.668 1.27 1.069 2.54 1.203 3.81.2 1.27.033 2.139-.501 2.607-.601.201-1.27-.334-2.005-1.604-.668-1.337-1.07-2.64-1.203-3.91s.067-2.139.602-2.607zm6.718-.702c.535.401.735 1.237.602 2.507s-.568 2.573-1.303 3.91c-.668 1.27-1.303 1.805-1.905 1.604-.535-.468-.735-1.337-.602-2.607s.535-2.54 1.203-3.81c.735-1.337 1.404-1.872 2.005-1.604z"/><path id="C" d="M18.21 7.81c.602-.201 1.237.368 1.905 1.704.668 1.27 1.069 2.54 1.203 3.81.201 1.27.034 2.139-.501 2.607-.602.201-1.27-.334-2.005-1.604-.669-1.337-1.07-2.64-1.203-3.91s.067-2.139.602-2.607zm6.718-.702c.535.401.735 1.237.602 2.507s-.568 2.573-1.303 3.91c-.668 1.27-1.303 1.805-1.905 1.604-.535-.468-.735-1.337-.602-2.607s.535-2.54 1.203-3.81c.735-1.337 1.404-1.872 2.005-1.604z"/><path id="D" d="M.642 57.098c.602-.201 1.237.368 1.905 1.704.668 1.27 1.069 2.54 1.203 3.81.201 1.27.033 2.139-.501 2.607-.602.201-1.27-.334-2.005-1.604-.668-1.337-1.069-2.64-1.203-3.91s.067-2.139.602-2.607zm6.718-.702c.535.401.735 1.237.602 2.507s-.568 2.573-1.303 3.91c-.668 1.27-1.303 1.805-1.905 1.604-.535-.468-.735-1.337-.602-2.607s.535-2.54 1.203-3.81c.735-1.337 1.404-1.872 2.005-1.604z"/><path id="E" d="M26.995 64.139c.602-.201 1.237.368 1.905 1.704.669 1.27 1.07 2.54 1.203 3.81.2 1.27.033 2.139-.501 2.607-.602.201-1.27-.334-2.005-1.604-.668-1.337-1.069-2.64-1.203-3.91s.067-2.139.602-2.607zm6.718-.702c.535.401.735 1.237.602 2.507s-.568 2.573-1.303 3.91c-.669 1.27-1.303 1.805-1.905 1.604-.535-.468-.735-1.337-.601-2.607s.535-2.54 1.203-3.81c.735-1.337 1.404-1.872 2.005-1.604z"/><path id="F" d="M35.779 64.139c.602-.201 1.237.368 1.905 1.704.668 1.27 1.07 2.54 1.203 3.81.201 1.27.034 2.139-.501 2.607-.602.201-1.27-.334-2.005-1.604-.669-1.337-1.07-2.64-1.203-3.91s.067-2.139.602-2.607zm6.718-.702c.535.401.735 1.237.602 2.507s-.568 2.573-1.303 3.91c-.668 1.27-1.303 1.805-1.905 1.604-.535-.468-.735-1.337-.602-2.607s.535-2.54 1.203-3.81c.735-1.337 1.404-1.872 2.005-1.604z"/><path id="G" d="M.642 113.427c.602-.201 1.237.367 1.905 1.704.668 1.27 1.069 2.54 1.203 3.81.201 1.27.033 2.139-.501 2.607-.602.201-1.27-.334-2.005-1.604-.668-1.337-1.069-2.64-1.203-3.91s.067-2.139.602-2.607zm6.718-.702c.535.401.735 1.236.602 2.506s-.568 2.574-1.303 3.911c-.668 1.27-1.303 1.804-1.905 1.604-.535-.468-.735-1.337-.602-2.607s.535-2.54 1.203-3.81c.735-1.337 1.404-1.872 2.005-1.604z"/><path id="H" d="M9.426 113.427c.602-.201 1.237.367 1.905 1.704.668 1.27 1.069 2.54 1.203 3.81.2 1.27.033 2.139-.501 2.607-.601.201-1.27-.334-2.005-1.604-.668-1.337-1.07-2.64-1.203-3.91s.067-2.139.602-2.607zm6.718-.702c.535.401.735 1.236.602 2.506s-.568 2.574-1.303 3.911c-.668 1.27-1.303 1.804-1.905 1.604-.535-.468-.735-1.337-.602-2.607s.535-2.54 1.203-3.81c.735-1.337 1.404-1.872 2.005-1.604z"/><path id="I" d="M18.21 120.468c.602-.201 1.237.367 1.905 1.704.668 1.27 1.069 2.54 1.203 3.81.201 1.27.034 2.139-.501 2.607-.602.201-1.27-.334-2.005-1.604-.669-1.337-1.07-2.64-1.203-3.91s.067-2.139.602-2.607zm6.718-.702c.535.401.735 1.236.602 2.506s-.568 2.574-1.303 3.911c-.668 1.27-1.303 1.804-1.905 1.604-.535-.468-.735-1.337-.602-2.607s.535-2.54 1.203-3.81c.735-1.337 1.404-1.872 2.005-1.604z"/></defs></svg>