<svg xmlns="http://www.w3.org/2000/svg" xmlns:xlink="http://www.w3.org/1999/xlink" width="87" height="94" fill="none" xmlns:v="https://vecta.io/nano"><g fill="#fff"><path d="M-5.819-3.101c.586-.195 1.204.358 1.855 1.66.651 1.237 1.042 2.474 1.172 3.711.195 1.237.033 2.083-.488 2.539-.586.195-1.237-.326-1.953-1.562C-5.884 1.945-6.275.675-6.405-.562s.065-2.083.586-2.539zm6.543-.684c.521.391.716 1.204.586 2.441S.756 1.164.04 2.466c-.651 1.237-1.27 1.757-1.856 1.562-.521-.456-.716-1.302-.586-2.539s.521-2.474 1.172-3.711C-.514-3.524.137-4.045.723-3.784zm2.012.684c.586-.195 1.204.358 1.855 1.66.651 1.237 1.042 2.474 1.172 3.711.195 1.237.033 2.083-.488 2.539-.586.195-1.237-.326-1.953-1.562C2.671 1.945 2.28.675 2.15-.562s.065-2.083.586-2.539zm6.543-.684c.521.391.716 1.204.586 2.441s-.553 2.506-1.269 3.808c-.652 1.239-1.27 1.759-1.856 1.564-.521-.456-.716-1.302-.586-2.539s.521-2.474 1.172-3.711c.716-1.302 1.367-1.823 1.953-1.562zm2.013.684c.586-.195 1.204.358 1.855 1.66.651 1.237 1.042 2.474 1.172 3.711.195 1.237.032 2.083-.488 2.539-.586.195-1.237-.326-1.953-1.562-.651-1.302-1.042-2.572-1.172-3.808s.065-2.083.586-2.539zm6.543-.684c.521.391.716 1.204.586 2.441s-.553 2.506-1.27 3.808c-.651 1.237-1.269 1.758-1.855 1.562-.521-.456-.716-1.302-.586-2.539s.521-2.474 1.172-3.711c.716-1.302 1.367-1.823 1.953-1.562zm2.013.684c.586-.195 1.204.358 1.855 1.66.651 1.237 1.042 2.474 1.172 3.711.195 1.237.033 2.083-.488 2.539-.586.195-1.237-.326-1.953-1.562-.651-1.302-1.042-2.572-1.172-3.808s.065-2.083.586-2.539zm6.543-.684c.521.391.716 1.204.586 2.441s-.553 2.506-1.269 3.808c-.651 1.237-1.27 1.758-1.855 1.562-.521-.456-.716-1.302-.586-2.539s.521-2.474 1.172-3.711c.716-1.302 1.367-1.823 1.953-1.562zm2.012.684c.586-.195 1.204.358 1.855 1.66C30.91-.204 31.3 1.033 31.43 2.27c.195 1.237.033 2.083-.488 2.539-.586.195-1.237-.326-1.953-1.562-.651-1.302-1.042-2.572-1.172-3.808s.065-2.083.586-2.539zm6.543-.684c.521.391.716 1.204.586 2.441s-.553 2.506-1.27 3.808c-.651 1.237-1.27 1.758-1.855 1.562-.521-.456-.716-1.302-.586-2.539s.521-2.474 1.172-3.711c.716-1.302 1.367-1.823 1.953-1.562zm2.013.684c.586-.195 1.204.358 1.855 1.66.651 1.237 1.042 2.474 1.172 3.711.195 1.237.033 2.083-.488 2.539-.586.195-1.237-.326-1.953-1.562-.651-1.302-1.042-2.572-1.172-3.808s.065-2.083.586-2.539zm6.543-.684c.521.391.716 1.204.586 2.441s-.553 2.506-1.27 3.808c-.651 1.237-1.27 1.758-1.855 1.562-.521-.456-.716-1.302-.586-2.539s.521-2.474 1.172-3.711c.716-1.302 1.367-1.823 1.953-1.562z"/><use xlink:href="#B"/><use xlink:href="#B" x="8.556"/><path d="M62.625-3.101c.586-.195 1.204.358 1.855 1.66.651 1.237 1.042 2.474 1.172 3.711.195 1.237.032 2.083-.488 2.539-.586.195-1.237-.326-1.953-1.562C62.56 1.945 62.17.675 62.039-.562s.065-2.083.586-2.539zm6.543-.684c.521.391.716 1.204.586 2.441s-.553 2.506-1.27 3.808c-.651 1.237-1.269 1.758-1.855 1.562-.521-.456-.716-1.302-.586-2.539s.521-2.474 1.172-3.711c.716-1.302 1.367-1.823 1.953-1.562zm2.013.684c.586-.195 1.204.358 1.855 1.66.651 1.237 1.042 2.474 1.172 3.711.195 1.237.033 2.083-.488 2.539-.586.195-1.237-.326-1.953-1.562-.651-1.302-1.042-2.572-1.172-3.808s.065-2.083.586-2.539zm6.543-.684c.521.391.716 1.204.586 2.441s-.553 2.506-1.269 3.808c-.651 1.237-1.269 1.758-1.855 1.562-.521-.456-.716-1.302-.586-2.539s.521-2.474 1.172-3.711c.716-1.302 1.367-1.823 1.953-1.562zM-5.819 3.757c.586-.195 1.204.358 1.855 1.66.651 1.237 1.042 2.474 1.172 3.711.195 1.237.033 2.083-.488 2.539-.586.195-1.237-.325-1.953-1.562-.651-1.302-1.042-2.572-1.172-3.808s.065-2.083.586-2.539zm6.543-.684c.521.391.716 1.204.586 2.441S.756 8.021.04 9.323c-.651 1.237-1.269 1.758-1.855 1.562-.521-.456-.716-1.302-.586-2.539s.521-2.474 1.172-3.711C-.514 3.334.137 2.813.723 3.074zm2.012.684c.586-.195 1.204.358 1.855 1.66.651 1.237 1.042 2.474 1.172 3.711.195 1.237.033 2.083-.488 2.539-.586.195-1.237-.325-1.953-1.562C2.671 8.803 2.28 7.533 2.15 6.296s.065-2.083.586-2.539zm6.543-.684c.521.391.716 1.204.586 2.441S9.312 8.02 8.596 9.322c-.651 1.237-1.269 1.758-1.855 1.562-.521-.456-.716-1.302-.586-2.539s.521-2.474 1.172-3.711c.716-1.302 1.367-1.823 1.953-1.562z"/><use xlink:href="#C"/><path d="M19.848 3.757c.586-.195 1.204.358 1.855 1.66.651 1.237 1.042 2.474 1.172 3.711.195 1.237.033 2.083-.488 2.539-.586.195-1.237-.325-1.953-1.562-.651-1.302-1.042-2.572-1.172-3.808s.065-2.083.586-2.539zm6.543-.684c.521.391.716 1.204.586 2.441s-.553 2.506-1.269 3.808c-.651 1.237-1.27 1.758-1.855 1.562-.521-.456-.716-1.302-.586-2.539s.521-2.474 1.172-3.711c.716-1.302 1.367-1.823 1.953-1.562z"/><use xlink:href="#D"/><use xlink:href="#D" x="8.556"/><use xlink:href="#E"/><use xlink:href="#E" x="8.556"/><use xlink:href="#C" x="51.333"/><path d="M71.181 3.757c.586-.195 1.204.358 1.855 1.66.651 1.237 1.042 2.474 1.172 3.711.195 1.237.033 2.083-.488 2.539-.586.195-1.237-.325-1.953-1.562-.651-1.302-1.042-2.572-1.172-3.808s.065-2.083.586-2.539zm6.543-.684c.521.391.716 1.204.586 2.441s-.553 2.506-1.269 3.808c-.651 1.237-1.269 1.758-1.855 1.562-.521-.456-.716-1.302-.586-2.539s.521-2.474 1.172-3.711c.716-1.302 1.367-1.823 1.953-1.562z"/><use xlink:href="#C" x="68.445"/><path d="M-5.819 10.615c.586-.195 1.204.358 1.855 1.66.651 1.237 1.042 2.474 1.172 3.711.195 1.237.033 2.083-.488 2.539-.586.195-1.237-.325-1.953-1.562-.651-1.302-1.042-2.572-1.172-3.808s.065-2.083.586-2.539zm6.543-.684c.521.391.716 1.204.586 2.441S.756 14.879.04 16.181c-.651 1.237-1.269 1.758-1.855 1.563-.521-.456-.716-1.302-.586-2.539s.521-2.474 1.172-3.711C-.514 10.192.137 9.671.723 9.931z"/><use xlink:href="#F"/><use xlink:href="#G"/><path d="M19.848 10.615c.586-.195 1.204.358 1.855 1.66.651 1.237 1.042 2.474 1.172 3.711.195 1.237.033 2.083-.488 2.539-.586.195-1.237-.325-1.953-1.562-.651-1.302-1.042-2.572-1.172-3.808s.065-2.083.586-2.539zm6.543-.684c.521.391.716 1.204.586 2.441s-.553 2.506-1.269 3.808c-.651 1.237-1.27 1.758-1.855 1.563-.521-.456-.716-1.302-.586-2.539s.521-2.474 1.172-3.711c.716-1.302 1.367-1.823 1.953-1.562z"/><use xlink:href="#H"/></g><use xlink:href="#H" x="8.556" fill="#f1f1f1"/><g fill="#fff"><use xlink:href="#I"/><use xlink:href="#I" x="8.556"/><use xlink:href="#G" x="51.333"/><use xlink:href="#F" x="68.445"/><path d="M-5.819 17.473c.586-.195 1.204.358 1.855 1.66.651 1.237 1.042 2.474 1.172 3.711.195 1.237.033 2.083-.488 2.539-.586.195-1.237-.326-1.953-1.562-.651-1.302-1.042-2.572-1.172-3.808s.065-2.083.586-2.539zm6.543-.683c.521.391.716 1.204.586 2.441S.756 21.737.04 23.039c-.651 1.237-1.269 1.758-1.855 1.563-.521-.456-.716-1.302-.586-2.539s.521-2.474 1.172-3.711C-.514 17.05.137 16.529.723 16.789z"/><use xlink:href="#J"/><use xlink:href="#K"/><use xlink:href="#L"/><use xlink:href="#M"/><use xlink:href="#M" x="8.556"/><use xlink:href="#N"/><use xlink:href="#N" x="8.556"/><use xlink:href="#K" x="51.333"/><path d="M-5.819 24.331c.586-.195 1.204.358 1.855 1.66.651 1.237 1.042 2.474 1.172 3.711.195 1.237.033 2.083-.488 2.539-.586.195-1.237-.326-1.953-1.562-.651-1.302-1.042-2.572-1.172-3.808s.065-2.083.586-2.539zm6.543-.684c.521.391.716 1.204.586 2.441S.756 28.595.04 29.897c-.651 1.237-1.269 1.758-1.855 1.563-.521-.456-.716-1.302-.586-2.539s.521-2.474 1.172-3.711c.716-1.302 1.367-1.823 1.953-1.562z"/><use xlink:href="#O"/><use xlink:href="#P"/><use xlink:href="#Q"/><use xlink:href="#R"/><use xlink:href="#R" x="8.556"/><use xlink:href="#S"/><use xlink:href="#S" x="8.556"/><use xlink:href="#P" x="51.333"/><use xlink:href="#O" x="68.445"/><path d="M-5.819 31.188c.586-.195 1.204.358 1.855 1.66.651 1.237 1.042 2.474 1.172 3.711.195 1.237.033 2.083-.488 2.539-.586.195-1.237-.325-1.953-1.562-.651-1.302-1.042-2.572-1.172-3.808s.065-2.083.586-2.539zm6.543-.684c.521.391.716 1.204.586 2.441S.756 35.452.04 36.754c-.651 1.237-1.269 1.758-1.855 1.562-.521-.456-.716-1.302-.586-2.539s.521-2.474 1.172-3.711c.716-1.302 1.367-1.823 1.953-1.563z"/><use xlink:href="#T"/><use xlink:href="#U"/><path d="M19.848 31.188c.586-.195 1.204.358 1.855 1.66.651 1.237 1.042 2.474 1.172 3.711.195 1.237.033 2.083-.488 2.539-.586.195-1.237-.325-1.953-1.562-.651-1.302-1.042-2.572-1.172-3.808s.065-2.083.586-2.539zm6.543-.684c.521.391.716 1.204.586 2.441s-.553 2.506-1.269 3.808c-.651 1.237-1.27 1.758-1.855 1.562-.521-.456-.716-1.302-.586-2.539s.521-2.474 1.172-3.711c.716-1.302 1.367-1.823 1.953-1.563z"/><use xlink:href="#V"/><use xlink:href="#V" x="8.556"/><use xlink:href="#W"/><use xlink:href="#W" x="8.556"/><use xlink:href="#U" x="51.333"/><use xlink:href="#T" x="68.445"/><path d="M-5.819 38.046c.586-.195 1.204.358 1.855 1.66.651 1.237 1.042 2.474 1.172 3.711.195 1.237.033 2.083-.488 2.539-.586.195-1.237-.326-1.953-1.562-.651-1.302-1.042-2.572-1.172-3.809s.065-2.083.586-2.539zm6.543-.684c.521.391.716 1.204.586 2.441S.756 42.31.04 43.612c-.651 1.237-1.269 1.758-1.855 1.562-.521-.456-.716-1.302-.586-2.539s.521-2.474 1.172-3.711c.716-1.302 1.367-1.823 1.953-1.562z"/></g><path d="M2.736 38.046c.586-.195 1.204.358 1.855 1.66.651 1.237 1.042 2.474 1.172 3.711.195 1.237.033 2.083-.488 2.539-.586.195-1.237-.326-1.953-1.562-.651-1.302-1.042-2.572-1.172-3.809s.065-2.083.586-2.539zm6.543-.684c.521.391.716 1.204.586 2.441s-.553 2.506-1.269 3.809c-.651 1.237-1.269 1.758-1.855 1.562-.521-.456-.716-1.302-.586-2.539s.521-2.474 1.172-3.711c.716-1.302 1.367-1.823 1.953-1.562z" fill="#f1f1f1"/><g fill="#fff"><use xlink:href="#X"/><path d="M19.848 38.046c.586-.195 1.204.358 1.855 1.66.651 1.237 1.042 2.474 1.172 3.711.195 1.237.033 2.083-.488 2.539-.586.195-1.237-.326-1.953-1.562-.651-1.302-1.042-2.572-1.172-3.809s.065-2.083.586-2.539zm6.543-.684c.521.391.716 1.204.586 2.441s-.553 2.506-1.269 3.809c-.651 1.237-1.27 1.758-1.855 1.562-.521-.456-.716-1.302-.586-2.539s.521-2.474 1.172-3.711c.716-1.302 1.367-1.823 1.953-1.562z"/><use xlink:href="#Y"/><use xlink:href="#Y" x="8.556"/><path d="M45.514 38.046c.586-.195 1.204.358 1.855 1.66.651 1.237 1.042 2.474 1.172 3.711.195 1.237.033 2.083-.488 2.539-.586.195-1.237-.326-1.953-1.562-.651-1.302-1.042-2.572-1.172-3.809s.065-2.083.586-2.539zm6.543-.684c.521.391.716 1.204.586 2.441s-.553 2.506-1.27 3.809c-.651 1.237-1.269 1.758-1.855 1.562-.521-.456-.716-1.302-.586-2.539s.521-2.474 1.172-3.711c.716-1.302 1.367-1.823 1.953-1.562z"/><use xlink:href="#X" x="51.333"/><path d="M-5.819 44.904c.586-.195 1.204.358 1.855 1.66.651 1.237 1.042 2.474 1.172 3.711.195 1.237.033 2.083-.488 2.539-.586.195-1.237-.325-1.953-1.562-.651-1.302-1.042-2.572-1.172-3.808s.065-2.083.586-2.539zm6.543-.683c.521.391.716 1.204.586 2.441S.756 49.168.04 50.47c-.651 1.237-1.269 1.758-1.855 1.563-.521-.456-.716-1.302-.586-2.539s.521-2.474 1.172-3.711C-.514 44.481.137 43.96.723 44.22z"/><use xlink:href="#Z"/><use xlink:href="#a"/><use xlink:href="#b"/><use xlink:href="#c"/><use xlink:href="#c" x="8.556"/><path d="M45.514 44.904c.586-.195 1.204.358 1.855 1.66.651 1.237 1.042 2.474 1.172 3.711.195 1.237.033 2.083-.488 2.539-.586.195-1.237-.325-1.953-1.562-.651-1.302-1.042-2.572-1.172-3.808s.065-2.083.586-2.539zm6.543-.683c.521.391.716 1.204.586 2.441s-.553 2.506-1.27 3.808c-.651 1.237-1.269 1.758-1.855 1.563-.521-.456-.716-1.302-.586-2.539s.521-2.474 1.172-3.711c.716-1.302 1.367-1.823 1.953-1.562z"/><use xlink:href="#Z" x="68.445"/><path d="M-5.819 51.761c.586-.195 1.204.358 1.855 1.66.651 1.237 1.042 2.474 1.172 3.711.195 1.237.033 2.083-.488 2.539-.586.195-1.237-.326-1.953-1.562-.651-1.302-1.042-2.572-1.172-3.808s.065-2.083.586-2.539zm6.543-.684c.521.391.716 1.204.586 2.441S.756 56.026.04 57.328c-.651 1.237-1.269 1.758-1.855 1.563-.521-.456-.716-1.302-.586-2.539s.521-2.474 1.172-3.711c.716-1.302 1.367-1.823 1.953-1.562z"/><use xlink:href="#O" y="27.43"/><use xlink:href="#P" y="27.43"/><use xlink:href="#Q" y="27.43"/><use xlink:href="#R" y="27.43"/><use xlink:href="#R" x="8.556" y="27.43"/><use xlink:href="#S" y="27.43"/><path d="M-5.819 58.619c.586-.195 1.204.358 1.855 1.66.651 1.237 1.042 2.474 1.172 3.711.195 1.237.033 2.083-.488 2.539-.586.195-1.237-.326-1.953-1.562-.651-1.302-1.042-2.572-1.172-3.808s.065-2.083.586-2.539zm6.543-.684c.521.391.716 1.204.586 2.441S.756 62.883.04 64.185c-.651 1.237-1.269 1.758-1.855 1.563-.521-.456-.716-1.302-.586-2.539s.521-2.474 1.172-3.711c.716-1.302 1.367-1.823 1.953-1.562z"/><use xlink:href="#O" y="34.288"/><use xlink:href="#P" y="34.288"/><use xlink:href="#Q" y="34.288"/><use xlink:href="#R" y="34.288"/><use xlink:href="#R" x="8.556" y="34.288"/><path d="M-5.819 65.477c.586-.195 1.204.358 1.855 1.66.651 1.237 1.042 2.474 1.172 3.711.195 1.237.033 2.083-.488 2.539-.586.195-1.237-.325-1.953-1.562-.651-1.302-1.042-2.572-1.172-3.808s.065-2.083.586-2.539zm6.543-.683c.521.391.716 1.204.586 2.441S.756 69.741.04 71.043c-.651 1.237-1.269 1.758-1.855 1.563-.521-.456-.716-1.302-.586-2.539s.521-2.474 1.172-3.711c.716-1.302 1.367-1.823 1.953-1.562z"/><use xlink:href="#Z" y="20.573"/><use xlink:href="#a" y="20.573"/><use xlink:href="#b" y="20.573"/><use xlink:href="#c" x="8.556" y="20.573"/><path d="M-5.819 72.335c.586-.195 1.204.358 1.855 1.66.651 1.237 1.042 2.474 1.172 3.711.195 1.237.033 2.083-.488 2.539-.586.195-1.237-.326-1.953-1.562-.651-1.302-1.042-2.572-1.172-3.808s.065-2.083.586-2.539zm6.543-.683c.521.391.716 1.204.586 2.441S.756 76.599.04 77.901c-.651 1.237-1.269 1.758-1.855 1.563-.521-.456-.716-1.302-.586-2.539s.521-2.474 1.172-3.711c.716-1.302 1.367-1.823 1.953-1.562z"/><use xlink:href="#J" y="54.862"/><use xlink:href="#K" y="54.862"/><use xlink:href="#L" y="54.862"/><use xlink:href="#M" x="8.556" y="54.862"/><path d="M-5.819 79.193c.586-.195 1.204.358 1.855 1.66.651 1.237 1.042 2.474 1.172 3.711.195 1.237.033 2.083-.488 2.539-.586.195-1.237-.326-1.953-1.562-.651-1.302-1.042-2.572-1.172-3.809s.065-2.083.586-2.539zm6.543-.684c.521.391.716 1.204.586 2.441S.756 83.457.04 84.759c-.651 1.237-1.269 1.758-1.855 1.562-.521-.456-.716-1.302-.586-2.539s.521-2.474 1.172-3.711c.716-1.302 1.367-1.823 1.953-1.562z"/><use xlink:href="#X" y="41.147"/><use xlink:href="#C" y="82.293"/></g><defs ><path id="B" d="M45.514-3.101c.586-.195 1.204.358 1.855 1.66.651 1.237 1.042 2.474 1.172 3.711.195 1.237.033 2.083-.488 2.539-.586.195-1.237-.326-1.953-1.562-.651-1.302-1.042-2.572-1.172-3.808s.065-2.083.586-2.539zm6.543-.684c.521.391.716 1.204.586 2.441s-.553 2.506-1.27 3.808c-.651 1.237-1.269 1.758-1.855 1.562-.521-.456-.716-1.302-.586-2.539s.521-2.474 1.172-3.711c.716-1.302 1.367-1.823 1.953-1.562z"/><path id="C" d="M11.292 3.757c.586-.195 1.204.358 1.855 1.66.651 1.237 1.042 2.474 1.172 3.711.195 1.237.032 2.083-.488 2.539-.586.195-1.237-.325-1.953-1.562-.651-1.302-1.042-2.572-1.172-3.808s.065-2.083.586-2.539zm6.543-.684c.521.391.716 1.204.586 2.441s-.553 2.506-1.27 3.808c-.651 1.237-1.269 1.758-1.855 1.562-.521-.456-.716-1.302-.586-2.539s.521-2.474 1.172-3.711c.716-1.302 1.367-1.823 1.953-1.562z"/><path id="D" d="M28.403 3.757c.586-.195 1.204.358 1.855 1.66.651 1.237 1.042 2.474 1.172 3.711.195 1.237.033 2.083-.488 2.539-.586.195-1.237-.325-1.953-1.562-.651-1.302-1.042-2.572-1.172-3.808s.065-2.083.586-2.539zm6.543-.684c.521.391.716 1.204.586 2.441s-.553 2.506-1.27 3.808c-.651 1.237-1.27 1.758-1.855 1.562-.521-.456-.716-1.302-.586-2.539s.521-2.474 1.172-3.711c.716-1.302 1.367-1.823 1.953-1.562z"/><path id="E" d="M45.514 3.757c.586-.195 1.204.358 1.855 1.66.651 1.237 1.042 2.474 1.172 3.711.195 1.237.033 2.083-.488 2.539-.586.195-1.237-.325-1.953-1.562-.651-1.302-1.042-2.572-1.172-3.808s.065-2.083.586-2.539zm6.543-.684c.521.391.716 1.204.586 2.441s-.553 2.506-1.27 3.808c-.651 1.237-1.269 1.758-1.855 1.562-.521-.456-.716-1.302-.586-2.539s.521-2.474 1.172-3.711c.716-1.302 1.367-1.823 1.953-1.562z"/><path id="F" d="M2.736 10.615c.586-.195 1.204.358 1.855 1.66.651 1.237 1.042 2.474 1.172 3.711.195 1.237.033 2.083-.488 2.539-.586.195-1.237-.325-1.953-1.562-.651-1.302-1.042-2.572-1.172-3.808s.065-2.083.586-2.539zm6.543-.684c.521.391.716 1.204.586 2.441s-.553 2.506-1.269 3.808c-.651 1.237-1.269 1.758-1.855 1.563-.521-.456-.716-1.302-.586-2.539s.521-2.474 1.172-3.711c.716-1.302 1.367-1.823 1.953-1.562z"/><path id="G" d="M11.292 10.615c.586-.195 1.204.358 1.855 1.66.651 1.237 1.042 2.474 1.172 3.711.195 1.237.032 2.083-.488 2.539-.586.195-1.237-.325-1.953-1.562-.651-1.302-1.042-2.572-1.172-3.808s.065-2.083.586-2.539zm6.543-.684c.521.391.716 1.204.586 2.441s-.553 2.506-1.27 3.808c-.651 1.237-1.269 1.758-1.855 1.563-.521-.456-.716-1.302-.586-2.539s.521-2.474 1.172-3.711c.716-1.302 1.367-1.823 1.953-1.562z"/><path id="H" d="M28.403 10.615c.586-.195 1.204.358 1.855 1.66.651 1.237 1.042 2.474 1.172 3.711.195 1.237.033 2.083-.488 2.539-.586.195-1.237-.325-1.953-1.562-.651-1.302-1.042-2.572-1.172-3.808s.065-2.083.586-2.539zm6.543-.684c.521.391.716 1.204.586 2.441s-.553 2.506-1.27 3.808c-.651 1.237-1.27 1.758-1.855 1.563-.521-.456-.716-1.302-.586-2.539s.521-2.474 1.172-3.711c.716-1.302 1.367-1.823 1.953-1.562z"/><path id="I" d="M45.514 10.615c.586-.195 1.204.358 1.855 1.66.651 1.237 1.042 2.474 1.172 3.711.195 1.237.033 2.083-.488 2.539-.586.195-1.237-.325-1.953-1.562-.651-1.302-1.042-2.572-1.172-3.808s.065-2.083.586-2.539zm6.543-.684c.521.391.716 1.204.586 2.441s-.553 2.506-1.27 3.808c-.651 1.237-1.269 1.758-1.855 1.563-.521-.456-.716-1.302-.586-2.539s.521-2.474 1.172-3.711c.716-1.302 1.367-1.823 1.953-1.562z"/><path id="J" d="M2.736 17.473c.586-.195 1.204.358 1.855 1.66.651 1.237 1.042 2.474 1.172 3.711.195 1.237.033 2.083-.488 2.539-.586.195-1.237-.326-1.953-1.562-.651-1.302-1.042-2.572-1.172-3.808s.065-2.083.586-2.539zm6.543-.683c.521.391.716 1.204.586 2.441s-.553 2.506-1.269 3.808c-.651 1.237-1.269 1.758-1.855 1.563-.521-.456-.716-1.302-.586-2.539s.521-2.474 1.172-3.711c.716-1.302 1.367-1.823 1.953-1.562z"/><path id="K" d="M11.292 17.473c.586-.195 1.204.358 1.855 1.66.651 1.237 1.042 2.474 1.172 3.711.195 1.237.032 2.083-.488 2.539-.586.195-1.237-.326-1.953-1.562-.651-1.302-1.042-2.572-1.172-3.808s.065-2.083.586-2.539zm6.543-.683c.521.391.716 1.204.586 2.441s-.553 2.506-1.27 3.808c-.651 1.237-1.269 1.758-1.855 1.563-.521-.456-.716-1.302-.586-2.539s.521-2.474 1.172-3.711c.716-1.302 1.367-1.823 1.953-1.562z"/><path id="L" d="M19.848 17.473c.586-.195 1.204.358 1.855 1.66.651 1.237 1.042 2.474 1.172 3.711.195 1.237.033 2.083-.488 2.539-.586.195-1.237-.326-1.953-1.562-.651-1.302-1.042-2.572-1.172-3.808s.065-2.083.586-2.539zm6.543-.683c.521.391.716 1.204.586 2.441s-.553 2.506-1.269 3.808c-.651 1.237-1.27 1.758-1.855 1.563-.521-.456-.716-1.302-.586-2.539s.521-2.474 1.172-3.711c.716-1.302 1.367-1.823 1.953-1.562z"/><path id="M" d="M28.403 17.473c.586-.195 1.204.358 1.855 1.66.651 1.237 1.042 2.474 1.172 3.711.195 1.237.033 2.083-.488 2.539-.586.195-1.237-.326-1.953-1.562-.651-1.302-1.042-2.572-1.172-3.808s.065-2.083.586-2.539zm6.543-.683c.521.391.716 1.204.586 2.441s-.553 2.506-1.27 3.808c-.651 1.237-1.27 1.758-1.855 1.563-.521-.456-.716-1.302-.586-2.539s.521-2.474 1.172-3.711c.716-1.302 1.367-1.823 1.953-1.562z"/><path id="N" d="M45.514 17.473c.586-.195 1.204.358 1.855 1.66.651 1.237 1.042 2.474 1.172 3.711.195 1.237.033 2.083-.488 2.539-.586.195-1.237-.326-1.953-1.562-.651-1.302-1.042-2.572-1.172-3.808s.065-2.083.586-2.539zm6.543-.683c.521.391.716 1.204.586 2.441s-.553 2.506-1.27 3.808c-.651 1.237-1.269 1.758-1.855 1.563-.521-.456-.716-1.302-.586-2.539s.521-2.474 1.172-3.711c.716-1.302 1.367-1.823 1.953-1.562z"/><path id="O" d="M2.736 24.331c.586-.195 1.204.358 1.855 1.66.651 1.237 1.042 2.474 1.172 3.711.195 1.237.033 2.083-.488 2.539-.586.195-1.237-.326-1.953-1.562-.651-1.302-1.042-2.572-1.172-3.808s.065-2.083.586-2.539zm6.543-.684c.521.391.716 1.204.586 2.441s-.553 2.506-1.269 3.808c-.651 1.237-1.269 1.758-1.855 1.563-.521-.456-.716-1.302-.586-2.539s.521-2.474 1.172-3.711c.716-1.302 1.367-1.823 1.953-1.562z"/><path id="P" d="M11.292 24.331c.586-.195 1.204.358 1.855 1.66.651 1.237 1.042 2.474 1.172 3.711.195 1.237.032 2.083-.488 2.539-.586.195-1.237-.326-1.953-1.562-.651-1.302-1.042-2.572-1.172-3.808s.065-2.083.586-2.539zm6.543-.684c.521.391.716 1.204.586 2.441s-.553 2.506-1.27 3.808c-.651 1.237-1.269 1.758-1.855 1.563-.521-.456-.716-1.302-.586-2.539s.521-2.474 1.172-3.711c.716-1.302 1.367-1.823 1.953-1.562z"/><path id="Q" d="M19.848 24.331c.586-.195 1.204.358 1.855 1.66.651 1.237 1.042 2.474 1.172 3.711.195 1.237.033 2.083-.488 2.539-.586.195-1.237-.326-1.953-1.562-.651-1.302-1.042-2.572-1.172-3.808s.065-2.083.586-2.539zm6.543-.684c.521.391.716 1.204.586 2.441s-.553 2.506-1.269 3.808c-.651 1.237-1.27 1.758-1.855 1.563-.521-.456-.716-1.302-.586-2.539s.521-2.474 1.172-3.711c.716-1.302 1.367-1.823 1.953-1.562z"/><path id="R" d="M28.403 24.331c.586-.195 1.204.358 1.855 1.66.651 1.237 1.042 2.474 1.172 3.711.195 1.237.033 2.083-.488 2.539-.586.195-1.237-.326-1.953-1.562-.651-1.302-1.042-2.572-1.172-3.808s.065-2.083.586-2.539zm6.543-.684c.521.391.716 1.204.586 2.441s-.553 2.506-1.27 3.808c-.651 1.237-1.27 1.758-1.855 1.563-.521-.456-.716-1.302-.586-2.539s.521-2.474 1.172-3.711c.716-1.302 1.367-1.823 1.953-1.562z"/><path id="S" d="M45.514 24.331c.586-.195 1.204.358 1.855 1.66.651 1.237 1.042 2.474 1.172 3.711.195 1.237.033 2.083-.488 2.539-.586.195-1.237-.326-1.953-1.562-.651-1.302-1.042-2.572-1.172-3.808s.065-2.083.586-2.539zm6.543-.684c.521.391.716 1.204.586 2.441s-.553 2.506-1.27 3.808c-.651 1.237-1.269 1.758-1.855 1.563-.521-.456-.716-1.302-.586-2.539s.521-2.474 1.172-3.711c.716-1.302 1.367-1.823 1.953-1.562z"/><path id="T" d="M2.736 31.188c.586-.195 1.204.358 1.855 1.66.651 1.237 1.042 2.474 1.172 3.711.195 1.237.033 2.083-.488 2.539-.586.195-1.237-.325-1.953-1.562-.651-1.302-1.042-2.572-1.172-3.808s.065-2.083.586-2.539zm6.543-.684c.521.391.716 1.204.586 2.441s-.553 2.506-1.269 3.808c-.651 1.237-1.269 1.758-1.855 1.562-.521-.456-.716-1.302-.586-2.539s.521-2.474 1.172-3.711c.716-1.302 1.367-1.823 1.953-1.563z"/><path id="U" d="M11.292 31.188c.586-.195 1.204.358 1.855 1.66.651 1.237 1.042 2.474 1.172 3.711.195 1.237.032 2.083-.488 2.539-.586.195-1.237-.325-1.953-1.562-.651-1.302-1.042-2.572-1.172-3.808s.065-2.083.586-2.539zm6.543-.684c.521.391.716 1.204.586 2.441s-.553 2.506-1.27 3.808c-.651 1.237-1.269 1.758-1.855 1.562-.521-.456-.716-1.302-.586-2.539s.521-2.474 1.172-3.711c.716-1.302 1.367-1.823 1.953-1.563z"/><path id="V" d="M28.403 31.188c.586-.195 1.204.358 1.855 1.66.651 1.237 1.042 2.474 1.172 3.711.195 1.237.033 2.083-.488 2.539-.586.195-1.237-.325-1.953-1.562-.651-1.302-1.042-2.572-1.172-3.808s.065-2.083.586-2.539zm6.543-.684c.521.391.716 1.204.586 2.441s-.553 2.506-1.27 3.808c-.651 1.237-1.27 1.758-1.855 1.562-.521-.456-.716-1.302-.586-2.539s.521-2.474 1.172-3.711c.716-1.302 1.367-1.823 1.953-1.563z"/><path id="W" d="M45.514 31.188c.586-.195 1.204.358 1.855 1.66.651 1.237 1.042 2.474 1.172 3.711.195 1.237.033 2.083-.488 2.539-.586.195-1.237-.325-1.953-1.562-.651-1.302-1.042-2.572-1.172-3.808s.065-2.083.586-2.539zm6.543-.684c.521.391.716 1.204.586 2.441s-.553 2.506-1.27 3.808c-.651 1.237-1.269 1.758-1.855 1.562-.521-.456-.716-1.302-.586-2.539s.521-2.474 1.172-3.711c.716-1.302 1.367-1.823 1.953-1.563z"/><path id="X" d="M11.292 38.046c.586-.195 1.204.358 1.855 1.66.651 1.237 1.042 2.474 1.172 3.711.195 1.237.032 2.083-.488 2.539-.586.195-1.237-.326-1.953-1.562-.651-1.302-1.042-2.572-1.172-3.809s.065-2.083.586-2.539zm6.543-.684c.521.391.716 1.204.586 2.441s-.553 2.506-1.27 3.809c-.651 1.237-1.269 1.758-1.855 1.562-.521-.456-.716-1.302-.586-2.539s.521-2.474 1.172-3.711c.716-1.302 1.367-1.823 1.953-1.562z"/><path id="Y" d="M28.403 38.046c.586-.195 1.204.358 1.855 1.66.651 1.237 1.042 2.474 1.172 3.711.195 1.237.033 2.083-.488 2.539-.586.195-1.237-.326-1.953-1.562-.651-1.302-1.042-2.572-1.172-3.809s.065-2.083.586-2.539zm6.543-.684c.521.391.716 1.204.586 2.441s-.553 2.506-1.27 3.809c-.651 1.237-1.27 1.758-1.855 1.562-.521-.456-.716-1.302-.586-2.539s.521-2.474 1.172-3.711c.716-1.302 1.367-1.823 1.953-1.562z"/><path id="Z" d="M2.736 44.904c.586-.195 1.204.358 1.855 1.66.651 1.237 1.042 2.474 1.172 3.711.195 1.237.033 2.083-.488 2.539-.586.195-1.237-.325-1.953-1.562-.651-1.302-1.042-2.572-1.172-3.808s.065-2.083.586-2.539zm6.543-.683c.521.391.716 1.204.586 2.441s-.553 2.506-1.269 3.808c-.651 1.237-1.269 1.758-1.855 1.563-.521-.456-.716-1.302-.586-2.539s.521-2.474 1.172-3.711c.716-1.302 1.367-1.823 1.953-1.562z"/><path id="a" d="M11.292 44.904c.586-.195 1.204.358 1.855 1.66.651 1.237 1.042 2.474 1.172 3.711.195 1.237.032 2.083-.488 2.539-.586.195-1.237-.325-1.953-1.562-.651-1.302-1.042-2.572-1.172-3.808s.065-2.083.586-2.539zm6.543-.683c.521.391.716 1.204.586 2.441s-.553 2.506-1.27 3.808c-.651 1.237-1.269 1.758-1.855 1.563-.521-.456-.716-1.302-.586-2.539s.521-2.474 1.172-3.711c.716-1.302 1.367-1.823 1.953-1.562z"/><path id="b" d="M19.848 44.904c.586-.195 1.204.358 1.855 1.66.651 1.237 1.042 2.474 1.172 3.711.195 1.237.033 2.083-.488 2.539-.586.195-1.237-.325-1.953-1.562-.651-1.302-1.042-2.572-1.172-3.808s.065-2.083.586-2.539zm6.543-.683c.521.391.716 1.204.586 2.441s-.553 2.506-1.269 3.808c-.651 1.237-1.27 1.758-1.855 1.563-.521-.456-.716-1.302-.586-2.539s.521-2.474 1.172-3.711c.716-1.302 1.367-1.823 1.953-1.562z"/><path id="c" d="M28.403 44.904c.586-.195 1.204.358 1.855 1.66.651 1.237 1.042 2.474 1.172 3.711.195 1.237.033 2.083-.488 2.539-.586.195-1.237-.325-1.953-1.562-.651-1.302-1.042-2.572-1.172-3.808s.065-2.083.586-2.539zm6.543-.683c.521.391.716 1.204.586 2.441s-.553 2.506-1.27 3.808c-.651 1.237-1.27 1.758-1.855 1.563-.521-.456-.716-1.302-.586-2.539s.521-2.474 1.172-3.711c.716-1.302 1.367-1.823 1.953-1.562z"/></defs></svg>