<svg xmlns="http://www.w3.org/2000/svg" xmlns:xlink="http://www.w3.org/1999/xlink" width="88" height="192" fill="none" xmlns:v="https://vecta.io/nano"><path d="M.642.769c.602-.201 1.237.368 1.905 1.704.668 1.27 1.069 2.54 1.203 3.81.201 1.27.033 2.139-.501 2.607-.602.201-1.27-.334-2.005-1.604C.575 5.949.174 4.646.04 3.376S.107 1.237.642.769zM7.359.067c.535.401.735 1.237.602 2.507s-.568 2.573-1.303 3.91c-.668 1.27-1.303 1.805-1.905 1.604-.535-.468-.735-1.337-.602-2.607s.535-2.54 1.203-3.81C6.089.334 6.758-.201 7.359.067zM.642 7.81c.602-.201 1.237.368 1.905 1.704.668 1.27 1.069 2.54 1.203 3.81.201 1.27.033 2.139-.501 2.607-.602.2-1.27-.334-2.005-1.604-.669-1.337-1.07-2.64-1.204-3.91S.107 8.278.642 7.81zm6.718-.702c.535.401.735 1.237.602 2.507s-.568 2.573-1.303 3.91c-.668 1.27-1.303 1.805-1.905 1.604-.535-.468-.735-1.337-.602-2.607s.535-2.54 1.203-3.81C6.09 7.375 6.759 6.84 7.36 7.108zm2.066.702c.602-.201 1.237.368 1.905 1.704.668 1.27 1.07 2.54 1.203 3.81.2 1.27.033 2.139-.501 2.607-.602.2-1.27-.334-2.005-1.604-.668-1.337-1.069-2.64-1.203-3.91s.067-2.139.602-2.607zm6.718-.702c.535.401.735 1.237.602 2.507s-.568 2.573-1.303 3.91c-.668 1.27-1.303 1.805-1.905 1.604-.535-.468-.735-1.337-.602-2.607s.535-2.54 1.203-3.81c.735-1.337 1.404-1.872 2.005-1.604zM.642 14.851c.602-.2 1.237.368 1.905 1.704.668 1.27 1.069 2.54 1.203 3.81.201 1.27.033 2.139-.501 2.607-.602.201-1.27-.334-2.005-1.604-.668-1.337-1.069-2.64-1.203-3.91s.067-2.139.602-2.607zm6.718-.702c.535.401.735 1.237.602 2.507s-.568 2.573-1.303 3.91c-.668 1.27-1.303 1.805-1.905 1.604-.535-.468-.735-1.337-.602-2.607s.535-2.54 1.203-3.81c.735-1.337 1.404-1.872 2.005-1.604zm10.85.702c.602-.2 1.237.368 1.905 1.704.668 1.27 1.069 2.54 1.203 3.81.201 1.27.033 2.139-.501 2.607-.602.201-1.27-.334-2.005-1.604-.668-1.337-1.07-2.64-1.203-3.91s.067-2.139.602-2.607zm6.718-.702c.535.401.735 1.237.602 2.507s-.568 2.573-1.303 3.91c-.668 1.27-1.303 1.805-1.905 1.604-.535-.468-.735-1.337-.602-2.607s.535-2.54 1.203-3.81c.735-1.337 1.404-1.872 2.005-1.604zM.642 21.892c.602-.2 1.237.368 1.905 1.704.668 1.27 1.069 2.54 1.203 3.81.201 1.27.033 2.139-.501 2.607-.602.2-1.27-.334-2.005-1.604-.668-1.337-1.069-2.64-1.203-3.91s.067-2.139.602-2.607zm6.718-.702c.535.401.735 1.237.602 2.507s-.568 2.573-1.303 3.91c-.668 1.27-1.303 1.805-1.905 1.604-.535-.468-.735-1.337-.602-2.607s.535-2.54 1.203-3.81c.735-1.337 1.404-1.872 2.005-1.604z" fill="#fff"/><path d="M9.426 21.892c.602-.2 1.237.368 1.905 1.704.668 1.27 1.07 2.54 1.203 3.81.2 1.27.033 2.139-.501 2.607-.602.2-1.27-.334-2.005-1.604-.668-1.337-1.069-2.64-1.203-3.91s.067-2.139.602-2.607zm6.718-.702c.535.401.735 1.237.602 2.507s-.568 2.573-1.303 3.91c-.668 1.27-1.303 1.805-1.905 1.604-.535-.468-.735-1.337-.602-2.607s.535-2.54 1.203-3.81c.735-1.337 1.404-1.872 2.005-1.604z" fill="#f1f1f1"/><path d="M.642 28.933c.602-.2 1.237.368 1.905 1.704.668 1.27 1.069 2.54 1.203 3.81.201 1.27.033 2.139-.501 2.607-.602.201-1.27-.334-2.005-1.604C.575 34.114.174 32.81.04 31.54s.067-2.139.602-2.607zm6.718-.702c.535.401.735 1.237.602 2.507s-.568 2.573-1.303 3.91c-.668 1.27-1.303 1.805-1.905 1.604-.535-.468-.735-1.337-.602-2.607s.535-2.54 1.203-3.81c.735-1.337 1.404-1.872 2.005-1.604zm2.066.702c.602-.2 1.237.368 1.905 1.704.668 1.27 1.07 2.54 1.203 3.81.2 1.27.033 2.139-.501 2.607-.602.201-1.27-.334-2.005-1.604-.668-1.337-1.069-2.64-1.203-3.91s.067-2.139.602-2.607zm6.718-.702c.535.401.735 1.237.602 2.507s-.568 2.573-1.303 3.91c-.668 1.27-1.303 1.805-1.905 1.604-.535-.468-.735-1.337-.602-2.607s.535-2.54 1.203-3.81c.735-1.337 1.404-1.872 2.005-1.604zm10.851.702c.602-.2 1.237.368 1.905 1.704.669 1.27 1.07 2.54 1.203 3.81.2 1.27.033 2.139-.501 2.607-.602.201-1.27-.334-2.005-1.604-.668-1.337-1.069-2.64-1.203-3.91s.067-2.139.602-2.607zm6.718-.702c.535.401.735 1.237.602 2.507s-.568 2.573-1.303 3.91c-.669 1.27-1.303 1.805-1.905 1.604-.535-.468-.735-1.337-.601-2.607s.535-2.54 1.203-3.81c.735-1.337 1.404-1.872 2.005-1.604zM.642 35.974c.602-.201 1.237.368 1.905 1.704.668 1.27 1.069 2.54 1.203 3.81.201 1.27.033 2.139-.501 2.607-.602.201-1.27-.334-2.005-1.604-.668-1.337-1.069-2.64-1.203-3.91s.067-2.139.602-2.607zm6.718-.702c.535.401.735 1.236.602 2.507s-.568 2.573-1.303 3.91c-.668 1.27-1.303 1.805-1.905 1.604-.535-.468-.735-1.337-.602-2.607s.535-2.54 1.203-3.81c.735-1.337 1.404-1.872 2.005-1.604zm2.066.702c.602-.201 1.237.368 1.905 1.704.668 1.27 1.07 2.54 1.203 3.81.2 1.27.033 2.139-.501 2.607-.602.201-1.27-.334-2.005-1.604-.668-1.337-1.069-2.64-1.203-3.91s.067-2.139.602-2.607zm6.718-.702c.535.401.735 1.236.602 2.507s-.568 2.573-1.303 3.91c-.668 1.27-1.303 1.805-1.905 1.604-.535-.468-.735-1.337-.602-2.607s.535-2.54 1.203-3.81c.735-1.337 1.404-1.872 2.005-1.604zm2.066.702c.602-.201 1.237.368 1.905 1.704.668 1.27 1.069 2.54 1.203 3.81.201 1.27.033 2.139-.501 2.607-.602.201-1.27-.334-2.005-1.604-.668-1.337-1.07-2.64-1.203-3.91s.067-2.139.602-2.607zm6.718-.702c.535.401.735 1.236.602 2.507s-.568 2.573-1.303 3.91c-.668 1.27-1.303 1.805-1.905 1.604-.535-.468-.735-1.337-.602-2.607s.535-2.54 1.203-3.81c.735-1.337 1.404-1.872 2.005-1.604zm2.067.702c.602-.201 1.237.368 1.905 1.704.669 1.27 1.07 2.54 1.203 3.81.2 1.27.033 2.139-.501 2.607-.602.201-1.27-.334-2.005-1.604-.668-1.337-1.069-2.64-1.203-3.91s.067-2.139.602-2.607zm6.718-.702c.535.401.735 1.236.602 2.507s-.568 2.573-1.303 3.91c-.669 1.27-1.303 1.805-1.905 1.604-.535-.468-.735-1.337-.601-2.607s.535-2.54 1.203-3.81c.735-1.337 1.404-1.872 2.005-1.604zm2.066.702c.602-.201 1.236.368 1.905 1.704.668 1.27 1.069 2.54 1.203 3.81.201 1.27.034 2.139-.501 2.607-.602.201-1.27-.334-2.005-1.604-.668-1.337-1.069-2.64-1.203-3.91s.067-2.139.602-2.607zm6.718-.702c.535.401.735 1.236.602 2.507s-.568 2.573-1.303 3.91c-.668 1.27-1.303 1.805-1.905 1.604-.535-.468-.735-1.337-.602-2.607s.535-2.54 1.203-3.81c.735-1.337 1.404-1.872 2.005-1.604zm2.067.702c.602-.201 1.236.368 1.905 1.704.668 1.27 1.069 2.54 1.203 3.81.201 1.27.033 2.139-.501 2.607-.602.201-1.27-.334-2.005-1.604-.668-1.337-1.069-2.64-1.203-3.91s.067-2.139.602-2.607zm6.718-.702c.535.401.735 1.236.602 2.507s-.568 2.573-1.303 3.91c-.668 1.27-1.303 1.805-1.905 1.604-.535-.468-.735-1.337-.602-2.607s.535-2.54 1.203-3.81c.735-1.337 1.404-1.872 2.005-1.604zM.642 43.015c.602-.2 1.237.368 1.905 1.705.668 1.27 1.069 2.54 1.203 3.81.201 1.27.033 2.139-.501 2.607-.602.201-1.27-.334-2.005-1.604-.668-1.337-1.069-2.64-1.203-3.91s.067-2.139.602-2.607zm6.718-.702c.535.401.735 1.237.602 2.507s-.568 2.574-1.303 3.91c-.668 1.27-1.303 1.805-1.905 1.604-.535-.468-.735-1.337-.602-2.607s.535-2.54 1.203-3.81c.735-1.337 1.404-1.872 2.005-1.604zm2.066.702c.602-.2 1.237.368 1.905 1.705.668 1.27 1.07 2.54 1.203 3.81.2 1.27.033 2.139-.501 2.607-.602.201-1.27-.334-2.005-1.604-.668-1.337-1.069-2.64-1.203-3.91s.067-2.139.602-2.607zm6.718-.702c.535.401.735 1.237.602 2.507s-.568 2.574-1.303 3.91c-.668 1.27-1.303 1.805-1.905 1.604-.535-.468-.735-1.337-.602-2.607s.535-2.54 1.203-3.81c.735-1.337 1.404-1.872 2.005-1.604zm2.066.702c.602-.2 1.237.368 1.905 1.705.668 1.27 1.069 2.54 1.203 3.81.201 1.27.033 2.139-.501 2.607-.602.201-1.27-.334-2.005-1.604-.668-1.337-1.07-2.64-1.203-3.91s.067-2.139.602-2.607zm6.718-.702c.535.401.735 1.237.602 2.507s-.568 2.574-1.303 3.91c-.668 1.27-1.303 1.805-1.905 1.604-.535-.468-.735-1.337-.602-2.607s.535-2.54 1.203-3.81c.735-1.337 1.404-1.872 2.005-1.604zm2.067.702c.602-.2 1.237.368 1.905 1.705.669 1.27 1.07 2.54 1.203 3.81.2 1.27.033 2.139-.501 2.607-.602.201-1.27-.334-2.005-1.604-.668-1.337-1.069-2.64-1.203-3.91s.067-2.139.602-2.607zm6.718-.702c.535.401.735 1.237.602 2.507s-.568 2.574-1.303 3.91c-.669 1.27-1.303 1.805-1.905 1.604-.535-.468-.735-1.337-.601-2.607s.535-2.54 1.203-3.81c.735-1.337 1.404-1.872 2.005-1.604zm2.066.702c.602-.2 1.236.368 1.905 1.705.668 1.27 1.069 2.54 1.203 3.81.201 1.27.034 2.139-.501 2.607-.602.201-1.27-.334-2.005-1.604-.668-1.337-1.069-2.64-1.203-3.91s.067-2.139.602-2.607zm6.718-.702c.535.401.735 1.237.602 2.507s-.568 2.574-1.303 3.91c-.668 1.27-1.303 1.805-1.905 1.604-.535-.468-.735-1.337-.602-2.607s.535-2.54 1.203-3.81c.735-1.337 1.404-1.872 2.005-1.604zm2.067.702c.602-.2 1.236.368 1.905 1.705.668 1.27 1.069 2.54 1.203 3.81.201 1.27.033 2.139-.501 2.607-.602.201-1.27-.334-2.005-1.604-.668-1.337-1.069-2.64-1.203-3.91s.067-2.139.602-2.607zm6.718-.702c.535.401.735 1.237.602 2.507s-.568 2.574-1.303 3.91c-.668 1.27-1.303 1.805-1.905 1.604-.535-.468-.735-1.337-.602-2.607s.535-2.54 1.203-3.81c.735-1.337 1.404-1.872 2.005-1.604z" fill="#fff"/><path d="M53.348 43.015c.602-.2 1.237.368 1.905 1.705.668 1.27 1.069 2.54 1.203 3.81.2 1.27.033 2.139-.501 2.607-.602.201-1.27-.334-2.005-1.604-.668-1.337-1.069-2.64-1.203-3.91s.067-2.139.602-2.607zm6.718-.702c.535.401.735 1.237.602 2.507s-.568 2.574-1.303 3.91c-.669 1.27-1.303 1.805-1.905 1.604-.535-.468-.735-1.337-.602-2.607s.535-2.54 1.203-3.81c.735-1.337 1.404-1.872 2.005-1.604z" fill="#f1f1f1"/><g fill="#fff"><path d="M.642 50.057c.602-.2 1.237.368 1.905 1.705.668 1.27 1.069 2.54 1.203 3.81.201 1.27.033 2.139-.501 2.607-.602.2-1.27-.334-2.005-1.604-.668-1.337-1.069-2.64-1.203-3.91s.067-2.139.602-2.607zm6.718-.702c.535.401.735 1.236.602 2.507s-.568 2.573-1.303 3.91c-.668 1.27-1.303 1.805-1.905 1.604-.535-.468-.735-1.337-.602-2.607s.535-2.54 1.203-3.81c.735-1.337 1.404-1.872 2.005-1.604zm2.066.702c.602-.2 1.237.368 1.905 1.705.668 1.27 1.07 2.54 1.203 3.81.2 1.27.033 2.139-.501 2.607-.602.2-1.27-.334-2.005-1.604-.668-1.337-1.069-2.64-1.203-3.91s.067-2.139.602-2.607zm6.718-.702c.535.401.735 1.236.602 2.507s-.568 2.573-1.303 3.91c-.668 1.27-1.303 1.805-1.905 1.604-.535-.468-.735-1.337-.602-2.607s.535-2.54 1.203-3.81c.735-1.337 1.404-1.872 2.005-1.604zm2.066.702c.602-.2 1.237.368 1.905 1.705.668 1.27 1.069 2.54 1.203 3.81.201 1.27.033 2.139-.501 2.607-.602.2-1.27-.334-2.005-1.604-.668-1.337-1.07-2.64-1.203-3.91s.067-2.139.602-2.607zm6.718-.702c.535.401.735 1.236.602 2.507s-.568 2.573-1.303 3.91c-.668 1.27-1.303 1.805-1.905 1.604-.535-.468-.735-1.337-.602-2.607s.535-2.54 1.203-3.81c.735-1.337 1.404-1.872 2.005-1.604zm2.067.702c.602-.2 1.237.368 1.905 1.705.669 1.27 1.07 2.54 1.203 3.81.2 1.27.033 2.139-.501 2.607-.602.2-1.27-.334-2.005-1.604-.668-1.337-1.069-2.64-1.203-3.91s.067-2.139.602-2.607zm6.718-.702c.535.401.735 1.236.602 2.507s-.568 2.573-1.303 3.91c-.669 1.27-1.303 1.805-1.905 1.604-.535-.468-.735-1.337-.601-2.607s.535-2.54 1.203-3.81c.735-1.337 1.404-1.872 2.005-1.604zm2.066.702c.602-.2 1.236.368 1.905 1.705.668 1.27 1.069 2.54 1.203 3.81.201 1.27.034 2.139-.501 2.607-.602.2-1.27-.334-2.005-1.604-.668-1.337-1.069-2.64-1.203-3.91s.067-2.139.602-2.607zm6.718-.702c.535.401.735 1.236.602 2.507s-.568 2.573-1.303 3.91c-.668 1.27-1.303 1.805-1.905 1.604-.535-.468-.735-1.337-.602-2.607s.535-2.54 1.203-3.81c.735-1.337 1.404-1.872 2.005-1.604zm2.067.702c.602-.2 1.236.368 1.905 1.705.668 1.27 1.069 2.54 1.203 3.81.201 1.27.033 2.139-.501 2.607-.602.2-1.27-.334-2.005-1.604-.668-1.337-1.069-2.64-1.203-3.91s.067-2.139.602-2.607zm6.718-.702c.535.401.735 1.236.602 2.507s-.568 2.573-1.303 3.91c-.668 1.27-1.303 1.805-1.905 1.604-.535-.468-.735-1.337-.602-2.607s.535-2.54 1.203-3.81c.735-1.337 1.404-1.872 2.005-1.604zm2.066.702c.602-.2 1.237.368 1.905 1.705.668 1.27 1.069 2.54 1.203 3.81.2 1.27.033 2.139-.501 2.607-.602.2-1.27-.334-2.005-1.604-.668-1.337-1.069-2.64-1.203-3.91s.067-2.139.602-2.607zm6.718-.702c.535.401.735 1.236.602 2.507s-.568 2.573-1.303 3.91c-.669 1.27-1.303 1.805-1.905 1.604-.535-.468-.735-1.337-.602-2.607s.535-2.54 1.203-3.81c.735-1.337 1.404-1.872 2.005-1.604zM.642 57.098c.602-.2 1.237.368 1.905 1.705.668 1.27 1.069 2.54 1.203 3.81.201 1.27.033 2.139-.501 2.607-.602.2-1.27-.334-2.005-1.604-.668-1.337-1.069-2.64-1.203-3.91s.067-2.139.602-2.607zm6.718-.702c.535.401.735 1.237.602 2.507s-.568 2.573-1.303 3.91c-.668 1.27-1.303 1.805-1.905 1.604-.535-.468-.735-1.337-.602-2.607s.535-2.54 1.203-3.81c.735-1.337 1.404-1.872 2.005-1.604zm2.066.702c.602-.2 1.237.368 1.905 1.705.668 1.27 1.07 2.54 1.203 3.81.2 1.27.033 2.139-.501 2.607-.602.2-1.27-.334-2.005-1.604-.668-1.337-1.069-2.64-1.203-3.91s.067-2.139.602-2.607zm6.718-.702c.535.401.735 1.237.602 2.507s-.568 2.573-1.303 3.91c-.668 1.27-1.303 1.805-1.905 1.604-.535-.468-.735-1.337-.602-2.607s.535-2.54 1.203-3.81c.735-1.337 1.404-1.872 2.005-1.604zm2.066.702c.602-.2 1.237.368 1.905 1.705.668 1.27 1.069 2.54 1.203 3.81.201 1.27.033 2.139-.501 2.607-.602.2-1.27-.334-2.005-1.604-.668-1.337-1.07-2.64-1.203-3.91s.067-2.139.602-2.607zm6.718-.702c.535.401.735 1.237.602 2.507s-.568 2.573-1.303 3.91c-.668 1.27-1.303 1.805-1.905 1.604-.535-.468-.735-1.337-.602-2.607s.535-2.54 1.203-3.81c.735-1.337 1.404-1.872 2.005-1.604zm2.067.702c.602-.2 1.237.368 1.905 1.705.669 1.27 1.07 2.54 1.203 3.81.2 1.27.033 2.139-.501 2.607-.602.2-1.27-.334-2.005-1.604-.668-1.337-1.069-2.64-1.203-3.91s.067-2.139.602-2.607zm6.718-.702c.535.401.735 1.237.602 2.507s-.568 2.573-1.303 3.91c-.669 1.27-1.303 1.805-1.905 1.604-.535-.468-.735-1.337-.601-2.607s.535-2.54 1.203-3.81c.735-1.337 1.404-1.872 2.005-1.604zm2.066.702c.602-.2 1.236.368 1.905 1.705.668 1.27 1.069 2.54 1.203 3.81.201 1.27.034 2.139-.501 2.607-.602.2-1.27-.334-2.005-1.604-.668-1.337-1.069-2.64-1.203-3.91s.067-2.139.602-2.607zm6.718-.702c.535.401.735 1.237.602 2.507s-.568 2.573-1.303 3.91c-.668 1.27-1.303 1.805-1.905 1.604-.535-.468-.735-1.337-.602-2.607s.535-2.54 1.203-3.81c.735-1.337 1.404-1.872 2.005-1.604zm2.067.702c.602-.2 1.236.368 1.905 1.705.668 1.27 1.069 2.54 1.203 3.81.201 1.27.033 2.139-.501 2.607-.602.2-1.27-.334-2.005-1.604-.668-1.337-1.069-2.64-1.203-3.91s.067-2.139.602-2.607zm6.718-.702c.535.401.735 1.237.602 2.507s-.568 2.573-1.303 3.91c-.668 1.27-1.303 1.805-1.905 1.604-.535-.468-.735-1.337-.602-2.607s.535-2.54 1.203-3.81c.735-1.337 1.404-1.872 2.005-1.604zM.642 64.139c.602-.2 1.237.368 1.905 1.704.668 1.27 1.069 2.54 1.203 3.81.201 1.27.033 2.139-.501 2.607-.602.201-1.27-.334-2.005-1.604-.668-1.337-1.069-2.64-1.203-3.91s.067-2.139.602-2.607zm6.718-.702c.535.401.735 1.236.602 2.506s-.568 2.574-1.303 3.91c-.668 1.27-1.303 1.805-1.905 1.604-.535-.468-.735-1.337-.602-2.607s.535-2.54 1.203-3.81c.735-1.337 1.404-1.872 2.005-1.604zm2.066.702c.602-.2 1.237.368 1.905 1.704.668 1.27 1.07 2.54 1.203 3.81.2 1.27.033 2.139-.501 2.607-.602.201-1.27-.334-2.005-1.604-.668-1.337-1.069-2.64-1.203-3.91s.067-2.139.602-2.607zm6.718-.702c.535.401.735 1.236.602 2.506s-.568 2.574-1.303 3.91c-.668 1.27-1.303 1.805-1.905 1.604-.535-.468-.735-1.337-.602-2.607s.535-2.54 1.203-3.81c.735-1.337 1.404-1.872 2.005-1.604z"/><use xlink:href="#B"/><path d="M26.995 64.139c.602-.2 1.237.368 1.905 1.704.669 1.27 1.07 2.54 1.203 3.81.2 1.27.033 2.139-.501 2.607-.602.201-1.27-.334-2.005-1.604-.668-1.337-1.069-2.64-1.203-3.91s.067-2.139.602-2.607zm6.718-.702c.535.401.735 1.236.602 2.506s-.568 2.574-1.303 3.91c-.669 1.27-1.303 1.805-1.905 1.604-.535-.468-.735-1.337-.601-2.607s.535-2.54 1.203-3.81c.735-1.337 1.404-1.872 2.005-1.604zm2.066.702c.602-.2 1.236.368 1.905 1.704.668 1.27 1.069 2.54 1.203 3.81.201 1.27.034 2.139-.501 2.607-.602.201-1.27-.334-2.005-1.604-.668-1.337-1.069-2.64-1.203-3.91s.067-2.139.602-2.607zm6.718-.702c.535.401.735 1.236.602 2.506s-.568 2.574-1.303 3.91c-.668 1.27-1.303 1.805-1.905 1.604-.535-.468-.735-1.337-.602-2.607s.535-2.54 1.203-3.81c.735-1.337 1.404-1.872 2.005-1.604zm2.067.702c.602-.2 1.236.368 1.905 1.704.668 1.27 1.069 2.54 1.203 3.81.201 1.27.033 2.139-.501 2.607-.602.201-1.27-.334-2.005-1.604-.668-1.337-1.069-2.64-1.203-3.91s.067-2.139.602-2.607zm6.718-.702c.535.401.735 1.236.602 2.506s-.568 2.574-1.303 3.91c-.668 1.27-1.303 1.805-1.905 1.604-.535-.468-.735-1.337-.602-2.607s.535-2.54 1.203-3.81c.735-1.337 1.404-1.872 2.005-1.604zm2.066.702c.602-.2 1.237.368 1.905 1.704.668 1.27 1.069 2.54 1.203 3.81.2 1.27.033 2.139-.501 2.607-.602.201-1.27-.334-2.005-1.604-.668-1.337-1.069-2.64-1.203-3.91s.067-2.139.602-2.607zm6.718-.702c.535.401.735 1.236.602 2.506s-.568 2.574-1.303 3.91c-.669 1.27-1.303 1.805-1.905 1.604-.535-.468-.735-1.337-.602-2.607s.535-2.54 1.203-3.81c.735-1.337 1.404-1.872 2.005-1.604z"/><use xlink:href="#B" x="43.922"/><path d="M.642 71.18c.602-.201 1.237.368 1.905 1.704.668 1.27 1.069 2.54 1.203 3.81.201 1.27.033 2.139-.501 2.607-.602.201-1.27-.334-2.005-1.604C.575 76.36.174 75.057.04 73.787s.067-2.139.602-2.607zm6.718-.702c.535.401.735 1.237.602 2.507s-.568 2.573-1.303 3.91c-.668 1.27-1.303 1.805-1.905 1.604-.535-.468-.735-1.337-.602-2.607s.535-2.54 1.203-3.81c.735-1.337 1.404-1.871 2.005-1.604z"/><use xlink:href="#C"/><use xlink:href="#D"/><use xlink:href="#E"/><use xlink:href="#F"/><use xlink:href="#G"/><use xlink:href="#H"/><use xlink:href="#D" x="43.922"/><use xlink:href="#I"/><use xlink:href="#J"/><use xlink:href="#K"/><use xlink:href="#L"/><use xlink:href="#M"/><use xlink:href="#N"/><use xlink:href="#K" x="43.922"/><use xlink:href="#I" y="7.041"/><use xlink:href="#J" y="7.041"/><use xlink:href="#K" y="7.041"/><use xlink:href="#L" y="7.041"/><use xlink:href="#M" y="7.041"/><use xlink:href="#N" y="7.041"/><path d="M53.348 85.262c.602-.201 1.237.368 1.905 1.704.668 1.27 1.069 2.54 1.203 3.81.2 1.27.033 2.139-.501 2.607-.602.201-1.27-.334-2.005-1.604-.668-1.337-1.069-2.64-1.203-3.91s.067-2.139.602-2.607zm6.718-.702c.535.401.735 1.237.602 2.507s-.568 2.573-1.303 3.91c-.669 1.27-1.303 1.805-1.905 1.604-.535-.468-.735-1.337-.602-2.607s.535-2.54 1.203-3.81c.735-1.337 1.404-1.872 2.005-1.604zM.642 92.303c.602-.201 1.237.368 1.905 1.704.668 1.27 1.069 2.54 1.203 3.81.201 1.27.033 2.139-.501 2.607-.602.2-1.27-.335-2.005-1.605C.575 97.484.174 96.18.04 94.91s.067-2.139.602-2.607zm6.718-.702c.535.401.735 1.237.602 2.507s-.568 2.573-1.303 3.91c-.668 1.27-1.303 1.805-1.905 1.604-.535-.468-.735-1.337-.602-2.607s.535-2.54 1.203-3.81c.735-1.337 1.404-1.872 2.005-1.604zm2.066.702c.602-.201 1.237.368 1.905 1.704.668 1.27 1.07 2.54 1.203 3.81.2 1.27.033 2.139-.501 2.607-.602.2-1.27-.335-2.005-1.605-.668-1.337-1.069-2.64-1.203-3.91s.067-2.139.602-2.607zm6.718-.702c.535.401.735 1.237.602 2.507s-.568 2.573-1.303 3.91c-.668 1.27-1.303 1.805-1.905 1.604-.535-.468-.735-1.337-.602-2.607s.535-2.54 1.203-3.81c.735-1.337 1.404-1.872 2.005-1.604zm2.066.702c.602-.201 1.237.368 1.905 1.704.668 1.27 1.069 2.54 1.203 3.81.201 1.27.033 2.139-.501 2.607-.602.2-1.27-.335-2.005-1.605-.668-1.337-1.07-2.64-1.203-3.91s.067-2.139.602-2.607zm6.718-.702c.535.401.735 1.237.602 2.507s-.568 2.573-1.303 3.91c-.668 1.27-1.303 1.805-1.905 1.604-.535-.468-.735-1.337-.602-2.607s.535-2.54 1.203-3.81c.735-1.337 1.404-1.872 2.005-1.604zm2.067.702c.602-.201 1.237.368 1.905 1.704.669 1.27 1.07 2.54 1.203 3.81.2 1.27.033 2.139-.501 2.607-.602.2-1.27-.335-2.005-1.605-.668-1.337-1.069-2.64-1.203-3.91s.067-2.139.602-2.607zm6.718-.702c.535.401.735 1.237.602 2.507s-.568 2.573-1.303 3.91c-.669 1.27-1.303 1.805-1.905 1.604-.535-.468-.735-1.337-.601-2.607s.535-2.54 1.203-3.81c.735-1.337 1.404-1.872 2.005-1.604zm2.066.702c.602-.201 1.236.368 1.905 1.704.668 1.27 1.069 2.54 1.203 3.81.201 1.27.034 2.139-.501 2.607-.602.2-1.27-.335-2.005-1.605-.668-1.337-1.069-2.64-1.203-3.91s.067-2.139.602-2.607zm6.718-.702c.535.401.735 1.237.602 2.507s-.568 2.573-1.303 3.91c-.668 1.27-1.303 1.805-1.905 1.604-.535-.468-.735-1.337-.602-2.607s.535-2.54 1.203-3.81c.735-1.337 1.404-1.872 2.005-1.604zm2.067.702c.602-.201 1.236.368 1.905 1.704.668 1.27 1.069 2.54 1.203 3.81.201 1.27.033 2.139-.501 2.607-.602.2-1.27-.335-2.005-1.605-.668-1.337-1.069-2.64-1.203-3.91s.067-2.139.602-2.607zm6.718-.702c.535.401.735 1.237.602 2.507s-.568 2.573-1.303 3.91c-.668 1.27-1.303 1.805-1.905 1.604-.535-.468-.735-1.337-.602-2.607s.535-2.54 1.203-3.81c.735-1.337 1.404-1.872 2.005-1.604zm2.066.702c.602-.201 1.237.368 1.905 1.704.668 1.27 1.069 2.54 1.203 3.81.2 1.27.033 2.139-.501 2.607-.602.2-1.27-.335-2.005-1.605-.668-1.337-1.069-2.64-1.203-3.91s.067-2.139.602-2.607zm6.718-.702c.535.401.735 1.237.602 2.507s-.568 2.573-1.303 3.91c-.669 1.27-1.303 1.805-1.905 1.604-.535-.468-.735-1.337-.602-2.607s.535-2.54 1.203-3.81c.735-1.337 1.404-1.872 2.005-1.604zM.642 99.344c.602-.201 1.237.368 1.905 1.705.668 1.27 1.069 2.54 1.203 3.81.201 1.27.033 2.139-.501 2.607-.602.2-1.27-.335-2.005-1.605-.668-1.336-1.069-2.64-1.203-3.91s.067-2.139.602-2.607zm6.718-.702c.535.401.735 1.237.602 2.507s-.568 2.574-1.303 3.91c-.668 1.27-1.303 1.805-1.905 1.605-.535-.468-.735-1.337-.602-2.607s.535-2.54 1.203-3.81c.735-1.337 1.404-1.872 2.005-1.605zm2.066.702c.602-.201 1.237.368 1.905 1.705.668 1.27 1.07 2.54 1.203 3.81.2 1.27.033 2.139-.501 2.607-.602.2-1.27-.335-2.005-1.605-.668-1.336-1.069-2.64-1.203-3.91s.067-2.139.602-2.607zm6.718-.702c.535.401.735 1.237.602 2.507s-.568 2.574-1.303 3.91c-.668 1.27-1.303 1.805-1.905 1.605-.535-.468-.735-1.337-.602-2.607s.535-2.54 1.203-3.81c.735-1.337 1.404-1.872 2.005-1.605z"/><use xlink:href="#O"/><path d="M26.995 99.344c.602-.201 1.237.368 1.905 1.705.669 1.27 1.07 2.54 1.203 3.81.2 1.27.033 2.139-.501 2.607-.602.2-1.27-.335-2.005-1.605-.668-1.336-1.069-2.64-1.203-3.91s.067-2.139.602-2.607zm6.718-.702c.535.401.735 1.237.602 2.507s-.568 2.574-1.303 3.91c-.669 1.27-1.303 1.805-1.905 1.605-.535-.468-.735-1.337-.601-2.607s.535-2.54 1.203-3.81c.735-1.337 1.404-1.872 2.005-1.605zm2.066.702c.602-.201 1.236.368 1.905 1.705.668 1.27 1.069 2.54 1.203 3.81.201 1.27.034 2.139-.501 2.607-.602.2-1.27-.335-2.005-1.605-.668-1.336-1.069-2.64-1.203-3.91s.067-2.139.602-2.607zm6.718-.702c.535.401.735 1.237.602 2.507s-.568 2.574-1.303 3.91c-.668 1.27-1.303 1.805-1.905 1.605-.535-.468-.735-1.337-.602-2.607s.535-2.54 1.203-3.81c.735-1.337 1.404-1.872 2.005-1.605zm2.067.702c.602-.201 1.236.368 1.905 1.705.668 1.27 1.069 2.54 1.203 3.81.201 1.27.033 2.139-.501 2.607-.602.2-1.27-.335-2.005-1.605-.668-1.336-1.069-2.64-1.203-3.91s.067-2.139.602-2.607zm6.718-.702c.535.401.735 1.237.602 2.507s-.568 2.574-1.303 3.91c-.668 1.27-1.303 1.805-1.905 1.605-.535-.468-.735-1.337-.602-2.607s.535-2.54 1.203-3.81c.735-1.337 1.404-1.872 2.005-1.605zm2.066.702c.602-.201 1.237.368 1.905 1.705.668 1.27 1.069 2.54 1.203 3.81.2 1.27.033 2.139-.501 2.607-.602.2-1.27-.335-2.005-1.605-.668-1.336-1.069-2.64-1.203-3.91s.067-2.139.602-2.607zm6.718-.702c.535.401.735 1.237.602 2.507s-.568 2.574-1.303 3.91c-.669 1.27-1.303 1.805-1.905 1.605-.535-.468-.735-1.337-.602-2.607s.535-2.54 1.203-3.81c.735-1.337 1.404-1.872 2.005-1.605z"/><use xlink:href="#O" x="43.922"/><path d="M70.916 99.344c.602-.201 1.237.368 1.905 1.705.668 1.27 1.069 2.54 1.203 3.81.2 1.27.033 2.139-.501 2.607-.602.2-1.27-.335-2.005-1.605-.668-1.336-1.069-2.64-1.203-3.91s.067-2.139.602-2.607zm6.718-.702c.535.401.735 1.237.602 2.507s-.568 2.574-1.303 3.91c-.668 1.27-1.303 1.805-1.905 1.605-.535-.468-.735-1.337-.602-2.607s.535-2.54 1.203-3.81c.735-1.337 1.404-1.872 2.005-1.605z"/><use xlink:href="#P"/><use xlink:href="#Q"/><use xlink:href="#R"/><use xlink:href="#S"/><use xlink:href="#T"/><path d="M44.564 106.385c.602-.2 1.236.368 1.905 1.705.668 1.27 1.069 2.54 1.203 3.81.201 1.27.033 2.139-.501 2.607-.602.2-1.27-.334-2.005-1.604-.668-1.337-1.069-2.641-1.203-3.911s.067-2.139.602-2.607zm6.718-.701c.535.401.735 1.236.602 2.506s-.568 2.574-1.303 3.91c-.668 1.27-1.303 1.805-1.905 1.605-.535-.468-.735-1.337-.602-2.607s.535-2.54 1.203-3.81c.735-1.337 1.404-1.872 2.005-1.604z"/></g><path d="M53.348 106.385c.602-.2 1.237.368 1.905 1.705.668 1.27 1.069 2.54 1.203 3.81.2 1.27.033 2.139-.501 2.607-.602.2-1.27-.334-2.005-1.604-.668-1.337-1.069-2.641-1.203-3.911s.067-2.139.602-2.607zm6.718-.701c.535.401.735 1.236.602 2.506s-.568 2.574-1.303 3.91c-.669 1.27-1.303 1.805-1.905 1.605-.535-.468-.735-1.337-.602-2.607s.535-2.54 1.203-3.81c.735-1.337 1.404-1.872 2.005-1.604z" fill="#f1f1f1"/><g fill="#fff"><use xlink:href="#R" x="43.922"/><path d="M70.916 106.385c.602-.2 1.237.368 1.905 1.705.668 1.27 1.069 2.54 1.203 3.81.2 1.27.033 2.139-.501 2.607-.602.2-1.27-.334-2.005-1.604-.668-1.337-1.069-2.641-1.203-3.911s.067-2.139.602-2.607zm6.718-.701c.535.401.735 1.236.602 2.506s-.568 2.574-1.303 3.91c-.668 1.27-1.303 1.805-1.905 1.605-.535-.468-.735-1.337-.602-2.607s.535-2.54 1.203-3.81c.735-1.337 1.404-1.872 2.005-1.604z"/><use xlink:href="#U"/><use xlink:href="#V"/><use xlink:href="#W"/><use xlink:href="#X"/><path d="M35.779 113.427c.602-.201 1.236.367 1.905 1.704.668 1.27 1.069 2.54 1.203 3.81.201 1.27.034 2.139-.501 2.607-.602.2-1.27-.334-2.005-1.604-.668-1.337-1.069-2.641-1.203-3.911s.067-2.139.602-2.606zm6.718-.702c.535.401.735 1.236.602 2.506s-.568 2.574-1.303 3.911c-.668 1.27-1.303 1.804-1.905 1.604-.535-.468-.735-1.337-.602-2.607s.535-2.54 1.203-3.81c.735-1.337 1.404-1.872 2.005-1.604zm2.067.702c.602-.201 1.236.367 1.905 1.704.668 1.27 1.069 2.54 1.203 3.81.201 1.27.033 2.139-.501 2.607-.602.2-1.27-.334-2.005-1.604-.668-1.337-1.069-2.641-1.203-3.911s.067-2.139.602-2.606zm6.718-.702c.535.401.735 1.236.602 2.506s-.568 2.574-1.303 3.911c-.668 1.27-1.303 1.804-1.905 1.604-.535-.468-.735-1.337-.602-2.607s.535-2.54 1.203-3.81c.735-1.337 1.404-1.872 2.005-1.604zm2.066.702c.602-.201 1.237.367 1.905 1.704.668 1.27 1.069 2.54 1.203 3.81.2 1.27.033 2.139-.501 2.607-.602.2-1.27-.334-2.005-1.604-.668-1.337-1.069-2.641-1.203-3.911s.067-2.139.602-2.606zm6.718-.702c.535.401.735 1.236.602 2.506s-.568 2.574-1.303 3.911c-.669 1.27-1.303 1.804-1.905 1.604-.535-.468-.735-1.337-.602-2.607s.535-2.54 1.203-3.81c.735-1.337 1.404-1.872 2.005-1.604z"/><use xlink:href="#W" x="43.922"/><path d="M70.916 113.427c.602-.201 1.237.367 1.905 1.704.668 1.27 1.069 2.54 1.203 3.81.2 1.27.033 2.139-.501 2.607-.602.2-1.27-.334-2.005-1.604-.668-1.337-1.069-2.641-1.203-3.911s.067-2.139.602-2.606zm6.718-.702c.535.401.735 1.236.602 2.506s-.568 2.574-1.303 3.911c-.668 1.27-1.303 1.804-1.905 1.604-.535-.468-.735-1.337-.602-2.607s.535-2.54 1.203-3.81c.735-1.337 1.404-1.872 2.005-1.604zm2.067.702c.602-.201 1.237.367 1.905 1.704.668 1.27 1.069 2.54 1.203 3.81.201 1.27.034 2.139-.501 2.607-.602.2-1.27-.334-2.005-1.604-.669-1.337-1.07-2.641-1.203-3.911s.067-2.139.602-2.606zm6.718-.702c.535.401.735 1.236.602 2.506s-.568 2.574-1.303 3.911c-.668 1.27-1.303 1.804-1.905 1.604-.535-.468-.735-1.337-.602-2.607s.535-2.54 1.203-3.81c.735-1.337 1.404-1.872 2.005-1.604zM.642 120.468c.602-.201 1.237.367 1.905 1.704.668 1.27 1.069 2.54 1.203 3.81.201 1.27.033 2.139-.501 2.607-.602.201-1.27-.334-2.005-1.604-.668-1.337-1.069-2.64-1.203-3.91s.067-2.139.602-2.607zm6.718-.702c.535.401.735 1.236.602 2.506s-.568 2.574-1.303 3.911c-.668 1.27-1.303 1.804-1.905 1.604-.535-.468-.735-1.337-.602-2.607s.535-2.54 1.203-3.81c.735-1.337 1.404-1.872 2.005-1.604zm2.066.702c.602-.201 1.237.367 1.905 1.704.668 1.27 1.07 2.54 1.203 3.81.2 1.27.033 2.139-.501 2.607-.602.201-1.27-.334-2.005-1.604-.668-1.337-1.069-2.64-1.203-3.91s.067-2.139.602-2.607zm6.718-.702c.535.401.735 1.236.602 2.506s-.568 2.574-1.303 3.911c-.668 1.27-1.303 1.804-1.905 1.604-.535-.468-.735-1.337-.602-2.607s.535-2.54 1.203-3.81c.735-1.337 1.404-1.872 2.005-1.604z"/><use xlink:href="#Y"/><path d="M26.995 120.468c.602-.201 1.237.367 1.905 1.704.669 1.27 1.07 2.54 1.203 3.81.2 1.27.033 2.139-.501 2.607-.602.201-1.27-.334-2.005-1.604-.668-1.337-1.069-2.64-1.203-3.91s.067-2.139.602-2.607zm6.718-.702c.535.401.735 1.236.602 2.506s-.568 2.574-1.303 3.911c-.669 1.27-1.303 1.804-1.905 1.604-.535-.468-.735-1.337-.601-2.607s.535-2.54 1.203-3.81c.735-1.337 1.404-1.872 2.005-1.604zm2.066.702c.602-.201 1.236.367 1.905 1.704.668 1.27 1.069 2.54 1.203 3.81.201 1.27.034 2.139-.501 2.607-.602.201-1.27-.334-2.005-1.604-.668-1.337-1.069-2.64-1.203-3.91s.067-2.139.602-2.607zm6.718-.702c.535.401.735 1.236.602 2.506s-.568 2.574-1.303 3.911c-.668 1.27-1.303 1.804-1.905 1.604-.535-.468-.735-1.337-.602-2.607s.535-2.54 1.203-3.81c.735-1.337 1.404-1.872 2.005-1.604zm2.067.702c.602-.201 1.236.367 1.905 1.704.668 1.27 1.069 2.54 1.203 3.81.201 1.27.033 2.139-.501 2.607-.602.201-1.27-.334-2.005-1.604-.668-1.337-1.069-2.64-1.203-3.91s.067-2.139.602-2.607zm6.718-.702c.535.401.735 1.236.602 2.506s-.568 2.574-1.303 3.911c-.668 1.27-1.303 1.804-1.905 1.604-.535-.468-.735-1.337-.602-2.607s.535-2.54 1.203-3.81c.735-1.337 1.404-1.872 2.005-1.604zm2.066.702c.602-.201 1.237.367 1.905 1.704.668 1.27 1.069 2.54 1.203 3.81.2 1.27.033 2.139-.501 2.607-.602.201-1.27-.334-2.005-1.604-.668-1.337-1.069-2.64-1.203-3.91s.067-2.139.602-2.607zm6.718-.702c.535.401.735 1.236.602 2.506s-.568 2.574-1.303 3.911c-.669 1.27-1.303 1.804-1.905 1.604-.535-.468-.735-1.337-.602-2.607s.535-2.54 1.203-3.81c.735-1.337 1.404-1.872 2.005-1.604z"/><use xlink:href="#Y" x="43.922"/><path d="M70.916 120.468c.602-.201 1.237.367 1.905 1.704.668 1.27 1.069 2.54 1.203 3.81.2 1.27.033 2.139-.501 2.607-.602.201-1.27-.334-2.005-1.604-.668-1.337-1.069-2.64-1.203-3.91s.067-2.139.602-2.607zm6.718-.702c.535.401.735 1.236.602 2.506s-.568 2.574-1.303 3.911c-.668 1.27-1.303 1.804-1.905 1.604-.535-.468-.735-1.337-.602-2.607s.535-2.54 1.203-3.81c.735-1.337 1.404-1.872 2.005-1.604zM.642 127.509c.602-.201 1.237.367 1.905 1.704.668 1.27 1.069 2.54 1.203 3.81.201 1.27.033 2.139-.501 2.607-.602.201-1.27-.334-2.005-1.604-.668-1.337-1.069-2.64-1.203-3.91s.067-2.139.602-2.607zm6.718-.702c.535.401.735 1.236.602 2.506s-.568 2.574-1.303 3.911c-.668 1.27-1.303 1.804-1.905 1.604-.535-.468-.735-1.337-.602-2.607s.535-2.54 1.203-3.81c.735-1.337 1.404-1.871 2.005-1.604zm2.066.702c.602-.201 1.237.367 1.905 1.704.668 1.27 1.07 2.54 1.203 3.81.2 1.27.033 2.139-.501 2.607-.602.201-1.27-.334-2.005-1.604-.668-1.337-1.069-2.64-1.203-3.91s.067-2.139.602-2.607zm6.718-.702c.535.401.735 1.236.602 2.506s-.568 2.574-1.303 3.911c-.668 1.27-1.303 1.804-1.905 1.604-.535-.468-.735-1.337-.602-2.607s.535-2.54 1.203-3.81c.735-1.337 1.404-1.871 2.005-1.604z"/><use xlink:href="#Z"/><path d="M26.995 127.509c.602-.201 1.237.367 1.905 1.704.669 1.27 1.07 2.54 1.203 3.81.2 1.27.033 2.139-.501 2.607-.602.201-1.27-.334-2.005-1.604-.668-1.337-1.069-2.64-1.203-3.91s.067-2.139.602-2.607zm6.718-.702c.535.401.735 1.236.602 2.506s-.568 2.574-1.303 3.911c-.669 1.27-1.303 1.804-1.905 1.604-.535-.468-.735-1.337-.601-2.607s.535-2.54 1.203-3.81c.735-1.337 1.404-1.871 2.005-1.604zm2.066.702c.602-.201 1.236.367 1.905 1.704.668 1.27 1.069 2.54 1.203 3.81.201 1.27.034 2.139-.501 2.607-.602.201-1.27-.334-2.005-1.604-.668-1.337-1.069-2.64-1.203-3.91s.067-2.139.602-2.607zm6.718-.702c.535.401.735 1.236.602 2.506s-.568 2.574-1.303 3.911c-.668 1.27-1.303 1.804-1.905 1.604-.535-.468-.735-1.337-.602-2.607s.535-2.54 1.203-3.81c.735-1.337 1.404-1.871 2.005-1.604zm2.067.702c.602-.201 1.236.367 1.905 1.704.668 1.27 1.069 2.54 1.203 3.81.201 1.27.033 2.139-.501 2.607-.602.201-1.27-.334-2.005-1.604-.668-1.337-1.069-2.64-1.203-3.91s.067-2.139.602-2.607zm6.718-.702c.535.401.735 1.236.602 2.506s-.568 2.574-1.303 3.911c-.668 1.27-1.303 1.804-1.905 1.604-.535-.468-.735-1.337-.602-2.607s.535-2.54 1.203-3.81c.735-1.337 1.404-1.871 2.005-1.604zm2.066.702c.602-.201 1.237.367 1.905 1.704.668 1.27 1.069 2.54 1.203 3.81.2 1.27.033 2.139-.501 2.607-.602.201-1.27-.334-2.005-1.604-.668-1.337-1.069-2.64-1.203-3.91s.067-2.139.602-2.607zm6.718-.702c.535.401.735 1.236.602 2.506s-.568 2.574-1.303 3.911c-.669 1.27-1.303 1.804-1.905 1.604-.535-.468-.735-1.337-.602-2.607s.535-2.54 1.203-3.81c.735-1.337 1.404-1.871 2.005-1.604z"/><use xlink:href="#Z" x="43.922"/><path d="M70.916 127.509c.602-.201 1.237.367 1.905 1.704.668 1.27 1.069 2.54 1.203 3.81.2 1.27.033 2.139-.501 2.607-.602.201-1.27-.334-2.005-1.604-.668-1.337-1.069-2.64-1.203-3.91s.067-2.139.602-2.607zm6.718-.702c.535.401.735 1.236.602 2.506s-.568 2.574-1.303 3.911c-.668 1.27-1.303 1.804-1.905 1.604-.535-.468-.735-1.337-.602-2.607s.535-2.54 1.203-3.81c.735-1.337 1.404-1.871 2.005-1.604zm2.067.702c.602-.201 1.237.367 1.905 1.704.668 1.27 1.069 2.54 1.203 3.81.201 1.27.034 2.139-.501 2.607-.602.201-1.27-.334-2.005-1.604-.669-1.337-1.07-2.64-1.203-3.91s.067-2.139.602-2.607zm6.718-.702c.535.401.735 1.236.602 2.506s-.568 2.574-1.303 3.911c-.668 1.27-1.303 1.804-1.905 1.604-.535-.468-.735-1.337-.602-2.607s.535-2.54 1.203-3.81c.735-1.337 1.404-1.871 2.005-1.604zM.642 134.55c.602-.201 1.237.368 1.905 1.704.668 1.27 1.069 2.54 1.203 3.81.201 1.27.033 2.139-.501 2.607-.602.201-1.27-.334-2.005-1.604-.668-1.337-1.069-2.64-1.203-3.91s.067-2.139.602-2.607zm6.718-.702c.535.401.735 1.237.602 2.507s-.568 2.573-1.303 3.91c-.668 1.27-1.303 1.805-1.905 1.604-.535-.468-.735-1.337-.602-2.607s.535-2.54 1.203-3.81c.735-1.337 1.404-1.871 2.005-1.604z"/><use xlink:href="#C" y="63.37"/></g><use xlink:href="#D" y="63.37" fill="#f1f1f1"/><g fill="#fff"><use xlink:href="#E" y="63.37"/><use xlink:href="#F" y="63.37"/><use xlink:href="#G" y="63.37"/><use xlink:href="#H" y="63.37"/><use xlink:href="#D" x="43.922" y="63.37"/><path d="M79.701 134.55c.602-.201 1.237.368 1.905 1.704.668 1.27 1.069 2.54 1.203 3.81.201 1.27.034 2.139-.501 2.607-.602.201-1.27-.334-2.005-1.604-.669-1.337-1.07-2.64-1.203-3.91s.067-2.139.602-2.607zm6.718-.702c.535.401.735 1.237.602 2.507s-.568 2.573-1.303 3.91c-.668 1.27-1.303 1.805-1.905 1.604-.535-.468-.735-1.337-.602-2.607s.535-2.54 1.203-3.81c.735-1.337 1.404-1.871 2.005-1.604zM.642 141.591c.602-.201 1.237.368 1.905 1.704.668 1.271 1.069 2.541 1.203 3.811.201 1.27.033 2.138-.501 2.606-.602.201-1.27-.334-2.005-1.604-.668-1.337-1.069-2.64-1.203-3.91s.067-2.139.602-2.607zm6.718-.702c.535.401.735 1.237.602 2.507s-.568 2.573-1.303 3.91c-.668 1.27-1.303 1.805-1.905 1.604-.535-.468-.735-1.337-.602-2.607s.535-2.54 1.203-3.81c.735-1.336 1.404-1.871 2.005-1.604zm2.066.702c.602-.201 1.237.368 1.905 1.704.668 1.271 1.07 2.541 1.203 3.811.2 1.27.033 2.138-.501 2.606-.602.201-1.27-.334-2.005-1.604-.668-1.337-1.069-2.64-1.203-3.91s.067-2.139.602-2.607zm6.718-.702c.535.401.735 1.237.602 2.507s-.568 2.573-1.303 3.91c-.668 1.27-1.303 1.805-1.905 1.604-.535-.468-.735-1.337-.602-2.607s.535-2.54 1.203-3.81c.735-1.336 1.404-1.871 2.005-1.604z"/><use xlink:href="#a"/><path d="M26.995 141.591c.602-.201 1.237.368 1.905 1.704.669 1.271 1.07 2.541 1.203 3.811.2 1.27.033 2.138-.501 2.606-.602.201-1.27-.334-2.005-1.604-.668-1.337-1.069-2.64-1.203-3.91s.067-2.139.602-2.607zm6.718-.702c.535.401.735 1.237.602 2.507s-.568 2.573-1.303 3.91c-.669 1.27-1.303 1.805-1.905 1.604-.535-.468-.735-1.337-.601-2.607s.535-2.54 1.203-3.81c.735-1.336 1.404-1.871 2.005-1.604zm2.066.702c.602-.201 1.236.368 1.905 1.704.668 1.271 1.069 2.541 1.203 3.811.201 1.27.034 2.138-.501 2.606-.602.201-1.27-.334-2.005-1.604-.668-1.337-1.069-2.64-1.203-3.91s.067-2.139.602-2.607zm6.718-.702c.535.401.735 1.237.602 2.507s-.568 2.573-1.303 3.91c-.668 1.27-1.303 1.805-1.905 1.604-.535-.468-.735-1.337-.602-2.607s.535-2.54 1.203-3.81c.735-1.336 1.404-1.871 2.005-1.604zm2.067.702c.602-.201 1.236.368 1.905 1.704.668 1.271 1.069 2.541 1.203 3.811.201 1.27.033 2.138-.501 2.606-.602.201-1.27-.334-2.005-1.604-.668-1.337-1.069-2.64-1.203-3.91s.067-2.139.602-2.607zm6.718-.702c.535.401.735 1.237.602 2.507s-.568 2.573-1.303 3.91c-.668 1.27-1.303 1.805-1.905 1.604-.535-.468-.735-1.337-.602-2.607s.535-2.54 1.203-3.81c.735-1.336 1.404-1.871 2.005-1.604zm2.066.702c.602-.201 1.237.368 1.905 1.704.668 1.271 1.069 2.541 1.203 3.811.2 1.27.033 2.138-.501 2.606-.602.201-1.27-.334-2.005-1.604-.668-1.337-1.069-2.64-1.203-3.91s.067-2.139.602-2.607zm6.718-.702c.535.401.735 1.237.602 2.507s-.568 2.573-1.303 3.91c-.669 1.27-1.303 1.805-1.905 1.604-.535-.468-.735-1.337-.602-2.607s.535-2.54 1.203-3.81c.735-1.336 1.404-1.871 2.005-1.604z"/><use xlink:href="#a" x="43.922"/><path d="M.642 148.632c.602-.2 1.237.368 1.905 1.705.668 1.27 1.069 2.54 1.203 3.81.201 1.27.033 2.139-.501 2.606-.602.201-1.27-.334-2.005-1.604-.668-1.337-1.069-2.64-1.203-3.91s.067-2.139.602-2.607zm6.718-.702c.535.401.735 1.237.602 2.507s-.568 2.573-1.303 3.91c-.668 1.27-1.303 1.805-1.905 1.604-.535-.468-.735-1.337-.602-2.607s.535-2.54 1.203-3.81c.735-1.336 1.404-1.871 2.005-1.604zm2.066.702c.602-.2 1.237.368 1.905 1.705.668 1.27 1.07 2.54 1.203 3.81.2 1.27.033 2.139-.501 2.606-.602.201-1.27-.334-2.005-1.604-.668-1.337-1.069-2.64-1.203-3.91s.067-2.139.602-2.607zm6.718-.702c.535.401.735 1.237.602 2.507s-.568 2.573-1.303 3.91c-.668 1.27-1.303 1.805-1.905 1.604-.535-.468-.735-1.337-.602-2.607s.535-2.54 1.203-3.81c.735-1.336 1.404-1.871 2.005-1.604z"/><use xlink:href="#b"/><path d="M26.995 148.632c.602-.2 1.237.368 1.905 1.705.669 1.27 1.07 2.54 1.203 3.81.2 1.27.033 2.139-.501 2.606-.602.201-1.27-.334-2.005-1.604-.668-1.337-1.069-2.64-1.203-3.91s.067-2.139.602-2.607zm6.718-.702c.535.401.735 1.237.602 2.507s-.568 2.573-1.303 3.91c-.669 1.27-1.303 1.805-1.905 1.604-.535-.468-.735-1.337-.601-2.607s.535-2.54 1.203-3.81c.735-1.336 1.404-1.871 2.005-1.604zm2.066.702c.602-.2 1.236.368 1.905 1.705.668 1.27 1.069 2.54 1.203 3.81.201 1.27.034 2.139-.501 2.606-.602.201-1.27-.334-2.005-1.604-.668-1.337-1.069-2.64-1.203-3.91s.067-2.139.602-2.607zm6.718-.702c.535.401.735 1.237.602 2.507s-.568 2.573-1.303 3.91c-.668 1.27-1.303 1.805-1.905 1.604-.535-.468-.735-1.337-.602-2.607s.535-2.54 1.203-3.81c.735-1.336 1.404-1.871 2.005-1.604zm2.067.702c.602-.2 1.236.368 1.905 1.705.668 1.27 1.069 2.54 1.203 3.81.201 1.27.033 2.139-.501 2.606-.602.201-1.27-.334-2.005-1.604-.668-1.337-1.069-2.64-1.203-3.91s.067-2.139.602-2.607zm6.718-.702c.535.401.735 1.237.602 2.507s-.568 2.573-1.303 3.91c-.668 1.27-1.303 1.805-1.905 1.604-.535-.468-.735-1.337-.602-2.607s.535-2.54 1.203-3.81c.735-1.336 1.404-1.871 2.005-1.604z"/><use xlink:href="#b" x="43.922"/><use xlink:href="#c"/><use xlink:href="#d"/><use xlink:href="#e"/><use xlink:href="#f"/><use xlink:href="#g"/><path d="M44.564 155.673c.602-.2 1.236.368 1.905 1.705.668 1.27 1.069 2.54 1.203 3.81.201 1.27.033 2.139-.501 2.607-.602.2-1.27-.335-2.005-1.605-.668-1.336-1.069-2.64-1.203-3.91s.067-2.139.602-2.607zm6.718-.702c.535.401.735 1.237.602 2.507s-.568 2.573-1.303 3.91c-.668 1.27-1.303 1.805-1.905 1.604-.535-.467-.735-1.336-.602-2.606s.535-2.54 1.203-3.81c.735-1.337 1.404-1.872 2.005-1.605z"/><use xlink:href="#h"/><use xlink:href="#c" y="7.041"/><use xlink:href="#d" y="7.041"/><use xlink:href="#e" y="7.041"/><use xlink:href="#f" y="7.041"/><use xlink:href="#g" y="7.041"/><use xlink:href="#h" y="7.041"/><use xlink:href="#P" y="63.37"/><use xlink:href="#Q" y="63.37"/><use xlink:href="#R" y="63.37"/><use xlink:href="#S" y="63.37"/><use xlink:href="#T" y="63.37"/><use xlink:href="#U" y="63.37"/><use xlink:href="#V" y="63.37"/><use xlink:href="#X" y="63.37"/><path d="M.642 183.838c.602-.201 1.237.367 1.905 1.704.668 1.27 1.069 2.54 1.203 3.81.201 1.27.033 2.139-.501 2.607-.602.201-1.27-.334-2.005-1.604-.668-1.337-1.069-2.641-1.203-3.911s.067-2.138.602-2.606zm6.718-.702c.535.401.735 1.236.602 2.506s-.568 2.574-1.303 3.911c-.668 1.27-1.303 1.804-1.905 1.604-.535-.468-.735-1.337-.602-2.607s.535-2.54 1.203-3.81c.735-1.337 1.404-1.872 2.005-1.604zm19.635.702c.602-.201 1.237.367 1.905 1.704.669 1.27 1.07 2.54 1.203 3.81.2 1.27.033 2.139-.501 2.607-.602.201-1.27-.334-2.005-1.604-.668-1.337-1.069-2.641-1.203-3.911s.067-2.138.602-2.606zm6.718-.702c.535.401.735 1.236.602 2.506s-.568 2.574-1.303 3.911c-.669 1.27-1.303 1.804-1.905 1.604-.535-.468-.735-1.337-.601-2.607s.535-2.54 1.203-3.81c.735-1.337 1.404-1.872 2.005-1.604z"/></g><defs ><path id="B" d="M18.21 64.139c.602-.2 1.237.368 1.905 1.704.668 1.27 1.069 2.54 1.203 3.81.201 1.27.033 2.139-.501 2.607-.602.201-1.27-.334-2.005-1.604-.668-1.337-1.07-2.64-1.203-3.91s.067-2.139.602-2.607zm6.718-.702c.535.401.735 1.236.602 2.506s-.568 2.574-1.303 3.91c-.668 1.27-1.303 1.805-1.905 1.604-.535-.468-.735-1.337-.602-2.607s.535-2.54 1.203-3.81c.735-1.337 1.404-1.872 2.005-1.604z"/><path id="C" d="M9.426 71.18c.602-.201 1.237.368 1.905 1.704.668 1.27 1.07 2.54 1.203 3.81.2 1.27.033 2.139-.501 2.607-.602.201-1.27-.334-2.005-1.604-.668-1.337-1.069-2.64-1.203-3.91s.067-2.139.602-2.607zm6.718-.702c.535.401.735 1.237.602 2.507s-.568 2.573-1.303 3.91c-.668 1.27-1.303 1.805-1.905 1.604-.535-.468-.735-1.337-.602-2.607s.535-2.54 1.203-3.81c.735-1.337 1.404-1.871 2.005-1.604z"/><path id="D" d="M18.21 71.18c.602-.201 1.237.368 1.905 1.704.668 1.27 1.069 2.54 1.203 3.81.201 1.27.033 2.139-.501 2.607-.602.201-1.27-.334-2.005-1.604-.668-1.337-1.07-2.64-1.203-3.91s.067-2.139.602-2.607zm6.718-.702c.535.401.735 1.237.602 2.507s-.568 2.573-1.303 3.91c-.668 1.27-1.303 1.805-1.905 1.604-.535-.468-.735-1.337-.602-2.607s.535-2.54 1.203-3.81c.735-1.337 1.404-1.871 2.005-1.604z"/><path id="E" d="M26.995 71.18c.602-.201 1.237.368 1.905 1.704.669 1.27 1.07 2.54 1.203 3.81.2 1.27.033 2.139-.501 2.607-.602.201-1.27-.334-2.005-1.604-.668-1.337-1.069-2.64-1.203-3.91s.067-2.139.602-2.607zm6.718-.702c.535.401.735 1.237.602 2.507s-.568 2.573-1.303 3.91c-.669 1.27-1.303 1.805-1.905 1.604-.535-.468-.735-1.337-.601-2.607s.535-2.54 1.203-3.81c.735-1.337 1.404-1.871 2.005-1.604z"/><path id="F" d="M35.779 71.18c.602-.201 1.236.368 1.905 1.704.668 1.27 1.069 2.54 1.203 3.81.201 1.27.034 2.139-.501 2.607-.602.201-1.27-.334-2.005-1.604-.668-1.337-1.069-2.64-1.203-3.91s.067-2.139.602-2.607zm6.718-.702c.535.401.735 1.237.602 2.507s-.568 2.573-1.303 3.91c-.668 1.27-1.303 1.805-1.905 1.604-.535-.468-.735-1.337-.602-2.607s.535-2.54 1.203-3.81c.735-1.337 1.404-1.871 2.005-1.604z"/><path id="G" d="M44.564 71.18c.602-.201 1.236.368 1.905 1.704.668 1.27 1.069 2.54 1.203 3.81.201 1.27.033 2.139-.501 2.607-.602.201-1.27-.334-2.005-1.604-.668-1.337-1.069-2.64-1.203-3.91s.067-2.139.602-2.607zm6.718-.702c.535.401.735 1.237.602 2.507s-.568 2.573-1.303 3.91c-.668 1.27-1.303 1.805-1.905 1.604-.535-.468-.735-1.337-.602-2.607s.535-2.54 1.203-3.81c.735-1.337 1.404-1.871 2.005-1.604z"/><path id="H" d="M53.348 71.18c.602-.201 1.237.368 1.905 1.704.668 1.27 1.069 2.54 1.203 3.81.2 1.27.033 2.139-.501 2.607-.602.201-1.27-.334-2.005-1.604-.668-1.337-1.069-2.64-1.203-3.91s.067-2.139.602-2.607zm6.718-.702c.535.401.735 1.237.602 2.507s-.568 2.573-1.303 3.91c-.669 1.27-1.303 1.805-1.905 1.604-.535-.468-.735-1.337-.602-2.607s.535-2.54 1.203-3.81c.735-1.337 1.404-1.871 2.005-1.604z"/><path id="I" d="M.642 78.221c.602-.201 1.237.368 1.905 1.704.668 1.27 1.069 2.54 1.203 3.81.201 1.27.033 2.139-.501 2.607-.602.201-1.27-.334-2.005-1.604-.668-1.337-1.069-2.64-1.203-3.91s.067-2.139.602-2.607zm6.718-.702c.535.401.735 1.237.602 2.507s-.568 2.573-1.303 3.91c-.668 1.27-1.303 1.805-1.905 1.604-.535-.468-.735-1.337-.602-2.607s.535-2.54 1.203-3.81c.735-1.337 1.404-1.872 2.005-1.604z"/><path id="J" d="M9.426 78.221c.602-.201 1.237.368 1.905 1.704.668 1.27 1.07 2.54 1.203 3.81.2 1.27.033 2.139-.501 2.607-.602.201-1.27-.334-2.005-1.604-.668-1.337-1.069-2.64-1.203-3.91s.067-2.139.602-2.607zm6.718-.702c.535.401.735 1.237.602 2.507s-.568 2.573-1.303 3.91c-.668 1.27-1.303 1.805-1.905 1.604-.535-.468-.735-1.337-.602-2.607s.535-2.54 1.203-3.81c.735-1.337 1.404-1.872 2.005-1.604z"/><path id="K" d="M18.21 78.221c.602-.201 1.237.368 1.905 1.704.668 1.27 1.069 2.54 1.203 3.81.201 1.27.033 2.139-.501 2.607-.602.201-1.27-.334-2.005-1.604-.668-1.337-1.07-2.64-1.203-3.91s.067-2.139.602-2.607zm6.718-.702c.535.401.735 1.237.602 2.507s-.568 2.573-1.303 3.91c-.668 1.27-1.303 1.805-1.905 1.604-.535-.468-.735-1.337-.602-2.607s.535-2.54 1.203-3.81c.735-1.337 1.404-1.872 2.005-1.604z"/><path id="L" d="M26.995 78.221c.602-.201 1.237.368 1.905 1.704.669 1.27 1.07 2.54 1.203 3.81.2 1.27.033 2.139-.501 2.607-.602.201-1.27-.334-2.005-1.604-.668-1.337-1.069-2.64-1.203-3.91s.067-2.139.602-2.607zm6.718-.702c.535.401.735 1.237.602 2.507s-.568 2.573-1.303 3.91c-.669 1.27-1.303 1.805-1.905 1.604-.535-.468-.735-1.337-.601-2.607s.535-2.54 1.203-3.81c.735-1.337 1.404-1.872 2.005-1.604z"/><path id="M" d="M35.779 78.221c.602-.201 1.236.368 1.905 1.704.668 1.27 1.069 2.54 1.203 3.81.201 1.27.034 2.139-.501 2.607-.602.201-1.27-.334-2.005-1.604-.668-1.337-1.069-2.64-1.203-3.91s.067-2.139.602-2.607zm6.718-.702c.535.401.735 1.237.602 2.507s-.568 2.573-1.303 3.91c-.668 1.27-1.303 1.805-1.905 1.604-.535-.468-.735-1.337-.602-2.607s.535-2.54 1.203-3.81c.735-1.337 1.404-1.872 2.005-1.604z"/><path id="N" d="M44.564 78.221c.602-.201 1.236.368 1.905 1.704.668 1.27 1.069 2.54 1.203 3.81.201 1.27.033 2.139-.501 2.607-.602.201-1.27-.334-2.005-1.604-.668-1.337-1.069-2.64-1.203-3.91s.067-2.139.602-2.607zm6.718-.702c.535.401.735 1.237.602 2.507s-.568 2.573-1.303 3.91c-.668 1.27-1.303 1.805-1.905 1.604-.535-.468-.735-1.337-.602-2.607s.535-2.54 1.203-3.81c.735-1.337 1.404-1.872 2.005-1.604z"/><path id="O" d="M18.21 99.344c.602-.201 1.237.368 1.905 1.705.668 1.27 1.069 2.54 1.203 3.81.201 1.27.033 2.139-.501 2.607-.602.2-1.27-.335-2.005-1.605-.668-1.336-1.07-2.64-1.203-3.91s.067-2.139.602-2.607zm6.718-.702c.535.401.735 1.237.602 2.507s-.568 2.574-1.303 3.91c-.668 1.27-1.303 1.805-1.905 1.605-.535-.468-.735-1.337-.602-2.607s.535-2.54 1.203-3.81c.735-1.337 1.404-1.872 2.005-1.605z"/><path id="P" d="M.642 106.385c.602-.2 1.237.368 1.905 1.705.668 1.27 1.069 2.54 1.203 3.81.201 1.27.033 2.139-.501 2.607-.602.2-1.27-.334-2.005-1.604-.668-1.337-1.069-2.641-1.203-3.911s.067-2.139.602-2.607zm6.718-.701c.535.401.735 1.236.602 2.506s-.568 2.574-1.303 3.91c-.668 1.27-1.303 1.805-1.905 1.605-.535-.468-.735-1.337-.602-2.607s.535-2.54 1.203-3.81c.735-1.337 1.404-1.872 2.005-1.604z"/><path id="Q" d="M9.426 106.385c.602-.2 1.237.368 1.905 1.705.668 1.27 1.07 2.54 1.203 3.81.2 1.27.033 2.139-.501 2.607-.602.2-1.27-.334-2.005-1.604-.668-1.337-1.069-2.641-1.203-3.911s.067-2.139.602-2.607zm6.718-.701c.535.401.735 1.236.602 2.506s-.568 2.574-1.303 3.91c-.668 1.27-1.303 1.805-1.905 1.605-.535-.468-.735-1.337-.602-2.607s.535-2.54 1.203-3.81c.735-1.337 1.404-1.872 2.005-1.604z"/><path id="R" d="M18.21 106.385c.602-.2 1.237.368 1.905 1.705.668 1.27 1.069 2.54 1.203 3.81.201 1.27.033 2.139-.501 2.607-.602.2-1.27-.334-2.005-1.604-.668-1.337-1.07-2.641-1.203-3.911s.067-2.139.602-2.607zm6.718-.701c.535.401.735 1.236.602 2.506s-.568 2.574-1.303 3.91c-.668 1.27-1.303 1.805-1.905 1.605-.535-.468-.735-1.337-.602-2.607s.535-2.54 1.203-3.81c.735-1.337 1.404-1.872 2.005-1.604z"/><path id="S" d="M26.995 106.385c.602-.2 1.237.368 1.905 1.705.669 1.27 1.07 2.54 1.203 3.81.2 1.27.033 2.139-.501 2.607-.602.2-1.27-.334-2.005-1.604-.668-1.337-1.069-2.641-1.203-3.911s.067-2.139.602-2.607zm6.718-.701c.535.401.735 1.236.602 2.506s-.568 2.574-1.303 3.91c-.669 1.27-1.303 1.805-1.905 1.605-.535-.468-.735-1.337-.601-2.607s.535-2.54 1.203-3.81c.735-1.337 1.404-1.872 2.005-1.604z"/><path id="T" d="M35.779 106.385c.602-.2 1.236.368 1.905 1.705.668 1.27 1.069 2.54 1.203 3.81.201 1.27.034 2.139-.501 2.607-.602.2-1.27-.334-2.005-1.604-.668-1.337-1.069-2.641-1.203-3.911s.067-2.139.602-2.607zm6.718-.701c.535.401.735 1.236.602 2.506s-.568 2.574-1.303 3.91c-.668 1.27-1.303 1.805-1.905 1.605-.535-.468-.735-1.337-.602-2.607s.535-2.54 1.203-3.81c.735-1.337 1.404-1.872 2.005-1.604z"/><path id="U" d="M.642 113.427c.602-.201 1.237.367 1.905 1.704.668 1.27 1.069 2.54 1.203 3.81.201 1.27.033 2.139-.501 2.607-.602.2-1.27-.334-2.005-1.604-.668-1.337-1.069-2.641-1.203-3.911s.067-2.139.602-2.606zm6.718-.702c.535.401.735 1.236.602 2.506s-.568 2.574-1.303 3.911c-.668 1.27-1.303 1.804-1.905 1.604-.535-.468-.735-1.337-.602-2.607s.535-2.54 1.203-3.81c.735-1.337 1.404-1.872 2.005-1.604z"/><path id="V" d="M9.426 113.427c.602-.201 1.237.367 1.905 1.704.668 1.27 1.07 2.54 1.203 3.81.2 1.27.033 2.139-.501 2.607-.602.2-1.27-.334-2.005-1.604-.668-1.337-1.069-2.641-1.203-3.911s.067-2.139.602-2.606zm6.718-.702c.535.401.735 1.236.602 2.506s-.568 2.574-1.303 3.911c-.668 1.27-1.303 1.804-1.905 1.604-.535-.468-.735-1.337-.602-2.607s.535-2.54 1.203-3.81c.735-1.337 1.404-1.872 2.005-1.604z"/><path id="W" d="M18.21 113.427c.602-.201 1.237.367 1.905 1.704.668 1.27 1.069 2.54 1.203 3.81.201 1.27.033 2.139-.501 2.607-.602.2-1.27-.334-2.005-1.604-.668-1.337-1.07-2.641-1.203-3.911s.067-2.139.602-2.606zm6.718-.702c.535.401.735 1.236.602 2.506s-.568 2.574-1.303 3.911c-.668 1.27-1.303 1.804-1.905 1.604-.535-.468-.735-1.337-.602-2.607s.535-2.54 1.203-3.81c.735-1.337 1.404-1.872 2.005-1.604z"/><path id="X" d="M26.995 113.427c.602-.201 1.237.367 1.905 1.704.669 1.27 1.07 2.54 1.203 3.81.2 1.27.033 2.139-.501 2.607-.602.2-1.27-.334-2.005-1.604-.668-1.337-1.069-2.641-1.203-3.911s.067-2.139.602-2.606zm6.718-.702c.535.401.735 1.236.602 2.506s-.568 2.574-1.303 3.911c-.669 1.27-1.303 1.804-1.905 1.604-.535-.468-.735-1.337-.601-2.607s.535-2.54 1.203-3.81c.735-1.337 1.404-1.872 2.005-1.604z"/><path id="Y" d="M18.21 120.468c.602-.201 1.237.367 1.905 1.704.668 1.27 1.069 2.54 1.203 3.81.201 1.27.033 2.139-.501 2.607-.602.201-1.27-.334-2.005-1.604-.668-1.337-1.07-2.64-1.203-3.91s.067-2.139.602-2.607zm6.718-.702c.535.401.735 1.236.602 2.506s-.568 2.574-1.303 3.911c-.668 1.27-1.303 1.804-1.905 1.604-.535-.468-.735-1.337-.602-2.607s.535-2.54 1.203-3.81c.735-1.337 1.404-1.872 2.005-1.604z"/><path id="Z" d="M18.21 127.509c.602-.201 1.237.367 1.905 1.704.668 1.27 1.069 2.54 1.203 3.81.201 1.27.033 2.139-.501 2.607-.602.201-1.27-.334-2.005-1.604-.668-1.337-1.07-2.64-1.203-3.91s.067-2.139.602-2.607zm6.718-.702c.535.401.735 1.236.602 2.506s-.568 2.574-1.303 3.911c-.668 1.27-1.303 1.804-1.905 1.604-.535-.468-.735-1.337-.602-2.607s.535-2.54 1.203-3.81c.735-1.337 1.404-1.871 2.005-1.604z"/><path id="a" d="M18.21 141.591c.602-.201 1.237.368 1.905 1.704.668 1.271 1.069 2.541 1.203 3.811.201 1.27.033 2.138-.501 2.606-.602.201-1.27-.334-2.005-1.604-.668-1.337-1.07-2.64-1.203-3.91s.067-2.139.602-2.607zm6.718-.702c.535.401.735 1.237.602 2.507s-.568 2.573-1.303 3.91c-.668 1.27-1.303 1.805-1.905 1.604-.535-.468-.735-1.337-.602-2.607s.535-2.54 1.203-3.81c.735-1.336 1.404-1.871 2.005-1.604z"/><path id="b" d="M18.21 148.632c.602-.2 1.237.368 1.905 1.705.668 1.27 1.069 2.54 1.203 3.81.201 1.27.033 2.139-.501 2.606-.602.201-1.27-.334-2.005-1.604-.668-1.337-1.07-2.64-1.203-3.91s.067-2.139.602-2.607zm6.718-.702c.535.401.735 1.237.602 2.507s-.568 2.573-1.303 3.91c-.668 1.27-1.303 1.805-1.905 1.604-.535-.468-.735-1.337-.602-2.607s.535-2.54 1.203-3.81c.735-1.336 1.404-1.871 2.005-1.604z"/><path id="c" d="M.642 155.673c.602-.2 1.237.368 1.905 1.705.668 1.27 1.069 2.54 1.203 3.81.201 1.27.033 2.139-.501 2.607-.602.2-1.27-.335-2.005-1.605-.668-1.336-1.069-2.64-1.203-3.91s.067-2.139.602-2.607zm6.718-.702c.535.401.735 1.237.602 2.507s-.568 2.573-1.303 3.91c-.668 1.27-1.303 1.805-1.905 1.604-.535-.467-.735-1.336-.602-2.606s.535-2.54 1.203-3.81c.735-1.337 1.404-1.872 2.005-1.605z"/><path id="d" d="M9.426 155.673c.602-.2 1.237.368 1.905 1.705.668 1.27 1.07 2.54 1.203 3.81.2 1.27.033 2.139-.501 2.607-.602.2-1.27-.335-2.005-1.605-.668-1.336-1.069-2.64-1.203-3.91s.067-2.139.602-2.607zm6.718-.702c.535.401.735 1.237.602 2.507s-.568 2.573-1.303 3.91c-.668 1.27-1.303 1.805-1.905 1.604-.535-.467-.735-1.336-.602-2.606s.535-2.54 1.203-3.81c.735-1.337 1.404-1.872 2.005-1.605z"/><path id="e" d="M18.21 155.673c.602-.2 1.237.368 1.905 1.705.668 1.27 1.069 2.54 1.203 3.81.201 1.27.033 2.139-.501 2.607-.602.2-1.27-.335-2.005-1.605-.668-1.336-1.07-2.64-1.203-3.91s.067-2.139.602-2.607zm6.718-.702c.535.401.735 1.237.602 2.507s-.568 2.573-1.303 3.91c-.668 1.27-1.303 1.805-1.905 1.604-.535-.467-.735-1.336-.602-2.606s.535-2.54 1.203-3.81c.735-1.337 1.404-1.872 2.005-1.605z"/><path id="f" d="M26.995 155.673c.602-.2 1.237.368 1.905 1.705.669 1.27 1.07 2.54 1.203 3.81.2 1.27.033 2.139-.501 2.607-.602.2-1.27-.335-2.005-1.605-.668-1.336-1.069-2.64-1.203-3.91s.067-2.139.602-2.607zm6.718-.702c.535.401.735 1.237.602 2.507s-.568 2.573-1.303 3.91c-.669 1.27-1.303 1.805-1.905 1.604-.535-.467-.735-1.336-.601-2.606s.535-2.54 1.203-3.81c.735-1.337 1.404-1.872 2.005-1.605z"/><path id="g" d="M35.779 155.673c.602-.2 1.236.368 1.905 1.705.668 1.27 1.069 2.54 1.203 3.81.201 1.27.034 2.139-.501 2.607-.602.2-1.27-.335-2.005-1.605-.668-1.336-1.069-2.64-1.203-3.91s.067-2.139.602-2.607zm6.718-.702c.535.401.735 1.237.602 2.507s-.568 2.573-1.303 3.91c-.668 1.27-1.303 1.805-1.905 1.604-.535-.467-.735-1.336-.602-2.606s.535-2.54 1.203-3.81c.735-1.337 1.404-1.872 2.005-1.605z"/><path id="h" d="M53.348 155.673c.602-.2 1.237.368 1.905 1.705.668 1.27 1.069 2.54 1.203 3.81.2 1.27.033 2.139-.501 2.607-.602.2-1.27-.335-2.005-1.605-.668-1.336-1.069-2.64-1.203-3.91s.067-2.139.602-2.607zm6.718-.702c.535.401.735 1.237.602 2.507s-.568 2.573-1.303 3.91c-.669 1.27-1.303 1.805-1.905 1.604-.535-.467-.735-1.336-.602-2.606s.535-2.54 1.203-3.81c.735-1.337 1.404-1.872 2.005-1.605z"/></defs></svg>